<?xml version="1.0" encoding="UTF-8" standalone="no"?>
<!DOCTYPE svg PUBLIC "-//W3C//DTD SVG 1.1//EN"
 "http://www.w3.org/Graphics/SVG/1.1/DTD/svg11.dtd">
<!-- Generated by graphviz version 14.0.0 (20250921.2048)
 -->
<!-- Title: getDTthreads_R Pages: 1 -->
<svg width="412pt" height="101pt"
 viewBox="0.00 0.00 412.00 101.00" xmlns="http://www.w3.org/2000/svg" xmlns:xlink="http://www.w3.org/1999/xlink">

<svg id="main" version="1.1" xmlns="http://www.w3.org/2000/svg" xmlns:xlink="http://www.w3.org/1999/xlink" xml:space="preserve">

<style type="text/css"><![CDATA[
.node, .edge {opacity: 0.7;}
.node.selected, .edge.selected {opacity: 1;}
.edge:hover path { stroke: red; }
.edge:hover polygon { stroke: red; fill: red; }
]]></style>
<script type="application/ecmascript" xlink:href="../../../../assets/svg.min.js"/>
<svg id="graph" class="graph">
<g id="graph0" class="graph" transform="scale(1 1) rotate(0) translate(4 97.25)">
<title>getDTthreads_R</title>
<!-- Node1 -->
<g id="Node000001" class="node">
<title>Node1</title>
<g id="a_Node000001"><a xlink:title="R interface for thread configuration inspection.">
<polygon fill="#999999" stroke="#666666" points="88,-37.25 0,-37.25 0,-18 88,-18 88,-37.25"/>
<text xml:space="preserve" text-anchor="middle" x="44" y="-23.75" font-family="Helvetica,sans-Serif" font-size="10.00">getDTthreads_R</text>
</a>
</g>
</g>
<!-- Node2 -->
<g id="Node000002" class="node">
<title>Node2</title>
<g id="a_Node000002"><a xlink:href="openme-utils_8hpp.html#a7d6263da9da6b46b945746e3abdea4ca" target="_top" xlink:title="Determines number of threads for parallel operations.">
<polygon fill="white" stroke="#666666" points="199.25,-56.25 124,-56.25 124,-37 199.25,-37 199.25,-56.25"/>
<text xml:space="preserve" text-anchor="middle" x="161.62" y="-42.75" font-family="Helvetica,sans-Serif" font-size="10.00">getDTthreads</text>
</a>
</g>
</g>
<!-- Node1&#45;&gt;Node2 -->
<g id="edge1_Node000001_Node000002" class="edge">
<title>Node1&#45;&gt;Node2</title>
<g id="a_edge1_Node000001_Node000002"><a xlink:title=" ">
<path fill="none" stroke="#63b8ff" d="M88.38,-34.75C96.31,-36.06 104.62,-37.42 112.67,-38.75"/>
<polygon fill="#63b8ff" stroke="#63b8ff" points="111.88,-42.16 122.32,-40.33 113.02,-35.26 111.88,-42.16"/>
</a>
</g>
</g>
<!-- Node7 -->
<g id="Node000007" class="node">
<title>Node7</title>
<g id="a_Node000007"><a xlink:href="openme-utils_8hpp.html#afa952c9934f30268d5efdf2b05cc3488" target="_top" xlink:title="Safe environment variable retrieval with default.">
<polygon fill="white" stroke="#666666" points="191,-19.25 132.25,-19.25 132.25,0 191,0 191,-19.25"/>
<text xml:space="preserve" text-anchor="middle" x="161.62" y="-5.75" font-family="Helvetica,sans-Serif" font-size="10.00">mygetenv</text>
</a>
</g>
</g>
<!-- Node1&#45;&gt;Node7 -->
<g id="edge6_Node000001_Node000007" class="edge">
<title>Node1&#45;&gt;Node7</title>
<g id="a_edge6_Node000001_Node000007"><a xlink:title=" ">
<path fill="none" stroke="#63b8ff" d="M88.38,-20.87C99,-19.22 110.31,-17.46 120.75,-15.83"/>
<polygon fill="#63b8ff" stroke="#63b8ff" points="121.25,-19.3 130.59,-14.3 120.17,-12.38 121.25,-19.3"/>
</a>
</g>
</g>
<!-- Node3 -->
<g id="Node000003" class="node">
<title>Node3</title>
<g id="a_Node000003"><a xlink:href="openme-utils_8hpp.html#a32e65a19d36ceec1952e48362e4153b8" target="_top" xlink:title="Initializes thread configuration based on environment and system state.">
<polygon fill="white" stroke="#666666" points="309.75,-56.25 235.25,-56.25 235.25,-37 309.75,-37 309.75,-56.25"/>
<text xml:space="preserve" text-anchor="middle" x="272.5" y="-42.75" font-family="Helvetica,sans-Serif" font-size="10.00">initDTthreads</text>
</a>
</g>
</g>
<!-- Node2&#45;&gt;Node3 -->
<g id="edge2_Node000002_Node000003" class="edge">
<title>Node2&#45;&gt;Node3</title>
<g id="a_edge2_Node000002_Node000003"><a xlink:title=" ">
<path fill="none" stroke="#63b8ff" d="M199.49,-46.62C207.28,-46.62 215.62,-46.62 223.76,-46.62"/>
<polygon fill="#63b8ff" stroke="#63b8ff" points="223.53,-50.13 233.53,-46.63 223.53,-43.13 223.53,-50.13"/>
</a>
</g>
</g>
<!-- Node4 -->
<g id="Node000004" class="node">
<title>Node4</title>
<g id="a_Node000004"><a xlink:href="openme-utils_8hpp.html#a62643b5f3a2b3d36929fed3c368c2cfc" target="_top" xlink:title="Retrieves integer value from environment variable.">
<polygon fill="white" stroke="#666666" points="403.75,-93.25 345.75,-93.25 345.75,-74 403.75,-74 403.75,-93.25"/>
<text xml:space="preserve" text-anchor="middle" x="374.75" y="-79.75" font-family="Helvetica,sans-Serif" font-size="10.00">getIntEnv</text>
</a>
</g>
</g>
<!-- Node3&#45;&gt;Node4 -->
<g id="edge3_Node000003_Node000004" class="edge">
<title>Node3&#45;&gt;Node4</title>
<g id="a_edge3_Node000003_Node000004"><a xlink:title=" ">
<path fill="none" stroke="#63b8ff" d="M300.89,-56.74C311.61,-60.69 324.09,-65.3 335.66,-69.57"/>
<polygon fill="#63b8ff" stroke="#63b8ff" points="334.38,-72.82 344.97,-73 336.8,-66.26 334.38,-72.82"/>
</a>
</g>
</g>
<!-- Node5 -->
<g id="Node000005" class="node">
<title>Node5</title>
<g id="a_Node000005"><a xlink:href="openme-utils_8hpp.html#afca01a231aef5cdbcbb5c23a7134e9d4" target="_top" xlink:title="Maximum of two integers.">
<polygon fill="white" stroke="#666666" points="393.25,-56.25 356.25,-56.25 356.25,-37 393.25,-37 393.25,-56.25"/>
<text xml:space="preserve" text-anchor="middle" x="374.75" y="-42.75" font-family="Helvetica,sans-Serif" font-size="10.00">imax</text>
</a>
</g>
</g>
<!-- Node3&#45;&gt;Node5 -->
<g id="edge4_Node000003_Node000005" class="edge">
<title>Node3&#45;&gt;Node5</title>
<g id="a_edge4_Node000003_Node000005"><a xlink:title=" ">
<path fill="none" stroke="#63b8ff" d="M309.98,-46.62C321.37,-46.62 333.77,-46.62 344.59,-46.62"/>
<polygon fill="#63b8ff" stroke="#63b8ff" points="344.48,-50.13 354.48,-46.63 344.48,-43.13 344.48,-50.13"/>
</a>
</g>
</g>
<!-- Node6 -->
<g id="Node000006" class="node">
<title>Node6</title>
<g id="a_Node000006"><a xlink:href="openme-utils_8hpp.html#aa011f843a2a959cc6f8c226f60e96224" target="_top" xlink:title="Minimum of two integers.">
<polygon fill="white" stroke="#666666" points="391.75,-19.25 357.75,-19.25 357.75,0 391.75,0 391.75,-19.25"/>
<text xml:space="preserve" text-anchor="middle" x="374.75" y="-5.75" font-family="Helvetica,sans-Serif" font-size="10.00">imin</text>
</a>
</g>
</g>
<!-- Node3&#45;&gt;Node6 -->
<g id="edge5_Node000003_Node000006" class="edge">
<title>Node3&#45;&gt;Node6</title>
<g id="a_edge5_Node000003_Node000006"><a xlink:title=" ">
<path fill="none" stroke="#63b8ff" d="M300.89,-36.51C315.17,-31.25 332.56,-24.83 346.77,-19.58"/>
<polygon fill="#63b8ff" stroke="#63b8ff" points="347.77,-22.94 355.94,-16.2 345.35,-16.38 347.77,-22.94"/>
</a>
</g>
</g>
</g>
</svg>
</svg>

<style type='text/css'>
<![CDATA[
[data-mouse-over-selected='false'] { opacity: 0.7; }
[data-mouse-over-selected='true']  { opacity: 1.0; }
]]>
</style>
<script type="application/ecmascript"><![CDATA[
document.addEventListener('DOMContentLoaded', (event) => {
  highlightEdges();
  highlightAdjacentNodes();
});
]]></script>
</svg>
