<?xml version="1.0" encoding="UTF-8" standalone="no"?>
<!DOCTYPE svg PUBLIC "-//W3C//DTD SVG 1.1//EN"
 "http://www.w3.org/Graphics/SVG/1.1/DTD/svg11.dtd">
<!-- Generated by graphviz version 14.0.0 (20250921.2048)
 -->
<!-- Title: BigDataStatMeth::hdf5Dataset::hdf5Dataset Pages: 1 -->
<!--zoomable 137 -->

<svg id="main" version="1.1" xmlns="http://www.w3.org/2000/svg" xmlns:xlink="http://www.w3.org/1999/xlink" xml:space="preserve" onload="init(evt)">

<style type="text/css"><![CDATA[
.node, .edge {opacity: 0.7;}
.node.selected, .edge.selected {opacity: 1;}
.edge:hover path { stroke: red; }
.edge:hover polygon { stroke: red; fill: red; }
]]></style>

<defs>
  <circle id="rim" cx="0" cy="0" r="7"/>
  <circle id="rim2" cx="0" cy="0" r="3.5"/>
  <g id="zoomPlus">
    <use xlink:href="#rim" fill="#404040"><set attributeName="fill" to="#808080" begin="zoomplus.mouseover" end="zoomplus.mouseout"/></use>
    <path d="M-4,0h8M0,-4v8" fill="none" stroke="white" stroke-width="1.5" pointer-events="none"/>
  </g>
  <g id="zoomMin">
    <use xlink:href="#rim" fill="#404040"><set attributeName="fill" to="#808080" begin="zoomminus.mouseover" end="zoomminus.mouseout"/></use>
    <path d="M-4,0h8" fill="none" stroke="white" stroke-width="1.5" pointer-events="none"/>
  </g>
  <g id="arrowUp" transform="translate(30 24)">
    <use xlink:href="#rim"/>
    <path pointer-events="none" fill="none" stroke="white" stroke-width="1.5" d="M0,-3.0v7 M-2.5,-0.5L0,-3.0L2.5,-0.5"/>
  </g>
  <g id="arrowRight" transform="rotate(90) translate(36 -43)">
    <use xlink:href="#rim"/>
    <path pointer-events="none" fill="none" stroke="white" stroke-width="1.5" d="M0,-3.0v7 M-2.5,-0.5L0,-3.0L2.5,-0.5"/>
  </g>
  <g id="arrowDown" transform="rotate(180) translate(-30 -48)">
    <use xlink:href="#rim"/>
    <path pointer-events="none" fill="none" stroke="white" stroke-width="1.5" d="M0,-3.0v7 M-2.5,-0.5L0,-3.0L2.5,-0.5"/>
  </g>
  <g id="arrowLeft" transform="rotate(270) translate(-36 17)">
    <use xlink:href="#rim"/>
    <path pointer-events="none" fill="none" stroke="white" stroke-width="1.5" d="M0,-3.0v7 M-2.5,-0.5L0,-3.0L2.5,-0.5"/>
  </g>
  <g id="resetDef">
    <use xlink:href="#rim2" fill="#404040"><set attributeName="fill" to="#808080" begin="reset.mouseover" end="reset.mouseout"/></use>
  </g>
</defs>
<script type="application/ecmascript">
var viewWidth = 881;
var viewHeight = 137;
var sectionId = 'dynsection-5';
</script>
<script type="application/ecmascript" xlink:href="../../../../assets/svg.min.js"/>
<svg id="graph" class="graph">
<g id="viewport">
<title>BigDataStatMeth::hdf5Dataset::hdf5Dataset</title>
<!-- Node1 -->
<g id="Node000001" class="node">
<title>Node1</title>
<g id="a_Node000001"><a xlink:title=" ">
<polygon fill="#999999" stroke="#666666" points="150.25,-82.5 0,-82.5 0,-52 150.25,-52 150.25,-82.5"/>
<text xml:space="preserve" text-anchor="start" x="8" y="-69" font-family="Helvetica,sans-Serif" font-size="10.00">BigDataStatMeth::hdf5Dataset</text>
<text xml:space="preserve" text-anchor="middle" x="75.12" y="-57.75" font-family="Helvetica,sans-Serif" font-size="10.00">::hdf5Dataset</text>
</a>
</g>
</g>
<!-- Node2 -->
<g id="Node000002" class="node">
<title>Node2</title>
<g id="a_Node000002"><a xlink:href="class_big_data_stat_meth_1_1hdf5_group.html#a25c7a3b62f91e28e5905f711cca83ab4" target="_top" xlink:title="Constructor with filename and group name.">
<polygon fill="white" stroke="#666666" points="346.62,-104.5 204.62,-104.5 204.62,-74 346.62,-74 346.62,-104.5"/>
<text xml:space="preserve" text-anchor="start" x="212.62" y="-91" font-family="Helvetica,sans-Serif" font-size="10.00">BigDataStatMeth::hdf5Group</text>
<text xml:space="preserve" text-anchor="middle" x="275.62" y="-79.75" font-family="Helvetica,sans-Serif" font-size="10.00">::hdf5Group</text>
</a>
</g>
</g>
<!-- Node1&#45;&gt;Node2 -->
<g id="edge1_Node000001_Node000002" class="edge">
<title>Node1&#45;&gt;Node2</title>
<g id="a_edge1_Node000001_Node000002"><a xlink:title=" ">
<path fill="none" stroke="#63b8ff" d="M150.6,-75.5C164.49,-77.04 179.07,-78.66 193.16,-80.22"/>
<polygon fill="#63b8ff" stroke="#63b8ff" points="192.5,-83.67 202.82,-81.29 193.27,-76.71 192.5,-83.67"/>
</a>
</g>
</g>
<!-- Node9 -->
<g id="Node000009" class="node">
<title>Node9</title>
<g id="a_Node000009"><a xlink:href="namespace_big_data_stat_meth.html#a06fddec88c03d097747f91c35b2c2bd7" target="_top" xlink:title="Splits a full file path into directory path and filename.">
<polygon fill="white" stroke="#666666" points="365,-55.88 186.25,-55.88 186.25,-36.62 365,-36.62 365,-55.88"/>
<text xml:space="preserve" text-anchor="middle" x="275.62" y="-42.38" font-family="Helvetica,sans-Serif" font-size="10.00">BigDataStatMeth::SplitElementName</text>
</a>
</g>
</g>
<!-- Node1&#45;&gt;Node9 -->
<g id="edge9_Node000001_Node000009" class="edge">
<title>Node1&#45;&gt;Node9</title>
<g id="a_edge9_Node000001_Node000009"><a xlink:title=" ">
<path fill="none" stroke="#63b8ff" d="M150.6,-59.37C158.45,-58.54 166.53,-57.69 174.61,-56.83"/>
<polygon fill="#63b8ff" stroke="#63b8ff" points="174.93,-60.32 184.5,-55.78 174.19,-53.36 174.93,-60.32"/>
</a>
</g>
</g>
<!-- Node3 -->
<g id="Node000003" class="node">
<title>Node3</title>
<g id="a_Node000003"><a xlink:href="class_big_data_stat_meth_1_1hdf5_file.html#ad3ace148f4947318c19149f52620825a" target="_top" xlink:title="Constructor with path and filename.">
<polygon fill="white" stroke="#666666" points="532.5,-128.5 401,-128.5 401,-98 532.5,-98 532.5,-128.5"/>
<text xml:space="preserve" text-anchor="start" x="409" y="-115" font-family="Helvetica,sans-Serif" font-size="10.00">BigDataStatMeth::hdf5File</text>
<text xml:space="preserve" text-anchor="middle" x="466.75" y="-103.75" font-family="Helvetica,sans-Serif" font-size="10.00">::hdf5File</text>
</a>
</g>
</g>
<!-- Node2&#45;&gt;Node3 -->
<g id="edge2_Node000002_Node000003" class="edge">
<title>Node2&#45;&gt;Node3</title>
<g id="a_edge2_Node000002_Node000003"><a xlink:title=" ">
<path fill="none" stroke="#63b8ff" d="M347.05,-98.19C360.89,-99.94 375.47,-101.79 389.49,-103.57"/>
<polygon fill="#63b8ff" stroke="#63b8ff" points="388.72,-107 399.08,-104.79 389.6,-100.06 388.72,-107"/>
</a>
</g>
</g>
<!-- Node4 -->
<g id="Node000004" class="node">
<title>Node4</title>
<g id="a_Node000004"><a xlink:href="class_big_data_stat_meth_1_1hdf5_file.html#a1f873c3d0509dc41d78468904a202375" target="_top" xlink:title="Open an existing HDF5 file.">
<polygon fill="white" stroke="#666666" points="532.5,-79.5 401,-79.5 401,-49 532.5,-49 532.5,-79.5"/>
<text xml:space="preserve" text-anchor="start" x="409" y="-66" font-family="Helvetica,sans-Serif" font-size="10.00">BigDataStatMeth::hdf5File</text>
<text xml:space="preserve" text-anchor="middle" x="466.75" y="-54.75" font-family="Helvetica,sans-Serif" font-size="10.00">::openFile</text>
</a>
</g>
</g>
<!-- Node2&#45;&gt;Node4 -->
<g id="edge3_Node000002_Node000004" class="edge">
<title>Node2&#45;&gt;Node4</title>
<g id="a_edge3_Node000002_Node000004"><a xlink:title=" ">
<path fill="none" stroke="#63b8ff" d="M347.05,-79.94C360.89,-78.11 375.47,-76.18 389.49,-74.33"/>
<polygon fill="#63b8ff" stroke="#63b8ff" points="389.63,-77.84 399.08,-73.06 388.71,-70.9 389.63,-77.84"/>
</a>
</g>
</g>
<!-- Node5 -->
<g id="Node000005" class="node">
<title>Node5</title>
<g id="a_Node000005"><a xlink:href="class_big_data_stat_meth_1_1hdf5_file.html#adb9b0e6f3099361c6085fdcd7e690a09" target="_top" xlink:title="Check if file is corrupt, open, accessible or has_valid_structure.">
<polygon fill="white" stroke="#666666" points="700,-122.5 568.5,-122.5 568.5,-92 700,-92 700,-122.5"/>
<text xml:space="preserve" text-anchor="start" x="576.5" y="-109" font-family="Helvetica,sans-Serif" font-size="10.00">BigDataStatMeth::hdf5File</text>
<text xml:space="preserve" text-anchor="middle" x="634.25" y="-97.75" font-family="Helvetica,sans-Serif" font-size="10.00">::checkHDF5File</text>
</a>
</g>
</g>
<!-- Node4&#45;&gt;Node5 -->
<g id="edge4_Node000004_Node000005" class="edge">
<title>Node4&#45;&gt;Node5</title>
<g id="a_edge4_Node000004_Node000005"><a xlink:title=" ">
<path fill="none" stroke="#63b8ff" d="M527.97,-79.9C538.92,-82.74 550.44,-85.73 561.68,-88.66"/>
<polygon fill="#63b8ff" stroke="#63b8ff" points="560.78,-92.04 571.34,-91.16 562.54,-85.26 560.78,-92.04"/>
</a>
</g>
</g>
<!-- Node6 -->
<g id="Node000006" class="node">
<title>Node6</title>
<g id="a_Node000006"><a xlink:href="class_big_data_stat_meth_1_1hdf5_file.html#ae8464c5d367bcd1085206e74b8b55a9e" target="_top" xlink:title=" ">
<polygon fill="white" stroke="#666666" points="872.75,-79.5 736,-79.5 736,-49 872.75,-49 872.75,-79.5"/>
<text xml:space="preserve" text-anchor="start" x="744" y="-66" font-family="Helvetica,sans-Serif" font-size="10.00">BigDataStatMeth::hdf5File</text>
<text xml:space="preserve" text-anchor="middle" x="804.38" y="-54.75" font-family="Helvetica,sans-Serif" font-size="10.00">::enable_hdf5_locking_once</text>
</a>
</g>
</g>
<!-- Node4&#45;&gt;Node6 -->
<g id="edge5_Node000004_Node000006" class="edge">
<title>Node4&#45;&gt;Node6</title>
<g id="a_edge5_Node000004_Node000006"><a xlink:title=" ">
<path fill="none" stroke="#63b8ff" d="M532.86,-64.25C587.55,-64.25 665.88,-64.25 724.19,-64.25"/>
<polygon fill="#63b8ff" stroke="#63b8ff" points="724.05,-67.75 734.05,-64.25 724.05,-60.75 724.05,-67.75"/>
</a>
</g>
</g>
<!-- Node7 -->
<g id="Node000007" class="node">
<title>Node7</title>
<g id="a_Node000007"><a xlink:href="class_big_data_stat_meth_1_1hdf5_file.html#a724347e245a0a7e096c462a531d71719" target="_top" xlink:title="Return true if existing HDF5 file appears locked/busy.">
<polygon fill="white" stroke="#666666" points="700,-36.5 568.5,-36.5 568.5,-6 700,-6 700,-36.5"/>
<text xml:space="preserve" text-anchor="start" x="576.5" y="-23" font-family="Helvetica,sans-Serif" font-size="10.00">BigDataStatMeth::hdf5File</text>
<text xml:space="preserve" text-anchor="middle" x="634.25" y="-11.75" font-family="Helvetica,sans-Serif" font-size="10.00">::lockedByOtherProcess</text>
</a>
</g>
</g>
<!-- Node4&#45;&gt;Node7 -->
<g id="edge6_Node000004_Node000007" class="edge">
<title>Node4&#45;&gt;Node7</title>
<g id="a_edge6_Node000004_Node000007"><a xlink:title=" ">
<path fill="none" stroke="#63b8ff" d="M527.97,-48.6C538.92,-45.76 550.44,-42.77 561.68,-39.84"/>
<polygon fill="#63b8ff" stroke="#63b8ff" points="562.54,-43.24 571.34,-37.34 560.78,-36.46 562.54,-43.24"/>
</a>
</g>
</g>
<!-- Node7&#45;&gt;Node6 -->
<g id="edge7_Node000007_Node000006" class="edge">
<title>Node7&#45;&gt;Node6</title>
<g id="a_edge7_Node000007_Node000006"><a xlink:title=" ">
<path fill="none" stroke="#63b8ff" d="M696.42,-36.9C707.66,-39.77 719.5,-42.8 731.03,-45.75"/>
<polygon fill="#63b8ff" stroke="#63b8ff" points="729.94,-49.08 740.5,-48.17 731.68,-42.3 729.94,-49.08"/>
</a>
</g>
</g>
<!-- Node8 -->
<g id="Node000008" class="node">
<title>Node8</title>
<g id="a_Node000008"><a xlink:href="class_big_data_stat_meth_1_1hdf5_file.html#a859f404005f3f9b854bce3f122111eb8" target="_top" xlink:title="Check if file exists using file stream.">
<polygon fill="white" stroke="#666666" points="870.12,-30.5 738.62,-30.5 738.62,0 870.12,0 870.12,-30.5"/>
<text xml:space="preserve" text-anchor="start" x="746.62" y="-17" font-family="Helvetica,sans-Serif" font-size="10.00">BigDataStatMeth::hdf5File</text>
<text xml:space="preserve" text-anchor="middle" x="804.38" y="-5.75" font-family="Helvetica,sans-Serif" font-size="10.00">::ResFileExist_filestream</text>
</a>
</g>
</g>
<!-- Node7&#45;&gt;Node8 -->
<g id="edge8_Node000007_Node000008" class="edge">
<title>Node7&#45;&gt;Node8</title>
<g id="a_edge8_Node000007_Node000008"><a xlink:title=" ">
<path fill="none" stroke="#63b8ff" d="M700.25,-18.93C709.02,-18.62 718.09,-18.29 727.03,-17.97"/>
<polygon fill="#63b8ff" stroke="#63b8ff" points="726.89,-21.48 736.76,-17.63 726.64,-14.49 726.89,-21.48"/>
</a>
</g>
</g>
</g>
</svg>

<g id="navigator" transform="translate(0 0)" fill="#404254">
  <rect fill="#f2f5e9" fill-opacity="0.5" stroke="#606060" stroke-width=".5" x="0" y="0" width="60" height="60"/>
  <use id="zoomplus" xlink:href="#zoomPlus" x="17" y="9" onmousedown="handleZoom(evt,'in')"/>
  <use id="zoomminus" xlink:href="#zoomMin" x="42" y="9" onmousedown="handleZoom(evt,'out')"/>
  <use id="reset" xlink:href="#resetDef" x="30" y="36" onmousedown="handleReset()"/>
   <use id="arrowup" xlink:href="#arrowUp" x="0" y="0" onmousedown="handlePan(0,-1)"/>
  <use id="arrowright" xlink:href="#arrowRight" x="0" y="0" onmousedown="handlePan(1,0)"/>
  <use id="arrowdown" xlink:href="#arrowDown" x="0" y="0" onmousedown="handlePan(0,1)"/>
  <use id="arrowleft" xlink:href="#arrowLeft" x="0" y="0" onmousedown="handlePan(-1,0)"/>
</g>
<svg viewBox="0 0 15 15" width="100%" height="30px" preserveAspectRatio="xMaxYMin meet">
 <g id="arrow_out" transform="scale(0.3 0.3)">
  <a xlink:href="class_big_data_stat_meth_1_1hdf5_dataset_abad312b6dbd58dc3f79c737471762b79_cgraph_org.svg" target="_base">
   <rect id="button" ry="5" rx="5" y="6" x="6" height="38" width="38"
        fill="#f2f5e9" fill-opacity="0.5" stroke="#606060" stroke-width="1.0"/>
   <path id="arrow"
     d="M 11.500037,31.436501 C 11.940474,20.09759 22.043105,11.32322 32.158766,21.979434 L 37.068811,17.246167 C 37.068811,17.246167 37.088388,32 37.088388,32 L 22.160133,31.978069 C 22.160133,31.978069 26.997745,27.140456 26.997745,27.140456 C 18.528582,18.264221 13.291696,25.230495 11.500037,31.436501 z"
     style="fill:#404040;"/>
  </a>
 </g>
</svg>

<style type='text/css'>
<![CDATA[
[data-mouse-over-selected='false'] { opacity: 0.7; }
[data-mouse-over-selected='true']  { opacity: 1.0; }
]]>
</style>
<script type="application/ecmascript"><![CDATA[
document.addEventListener('DOMContentLoaded', (event) => {
  highlightEdges();
  highlightAdjacentNodes();
});
]]></script>
</svg>
