<?xml version="1.0" encoding="UTF-8" standalone="no"?>
<!DOCTYPE svg PUBLIC "-//W3C//DTD SVG 1.1//EN"
 "http://www.w3.org/Graphics/SVG/1.1/DTD/svg11.dtd">
<!-- Generated by graphviz version 14.0.0 (20250921.2048)
 -->
<!-- Title: BigDataStatMeth::hdf5DiagonalMatrix::createScalarDiagonalMatrix Pages: 1 -->
<!--zoomable 424 -->

<svg id="main" version="1.1" xmlns="http://www.w3.org/2000/svg" xmlns:xlink="http://www.w3.org/1999/xlink" xml:space="preserve" onload="init(evt)">

<style type="text/css"><![CDATA[
.node, .edge {opacity: 0.7;}
.node.selected, .edge.selected {opacity: 1;}
.edge:hover path { stroke: red; }
.edge:hover polygon { stroke: red; fill: red; }
]]></style>

<defs>
  <circle id="rim" cx="0" cy="0" r="7"/>
  <circle id="rim2" cx="0" cy="0" r="3.5"/>
  <g id="zoomPlus">
    <use xlink:href="#rim" fill="#404040"><set attributeName="fill" to="#808080" begin="zoomplus.mouseover" end="zoomplus.mouseout"/></use>
    <path d="M-4,0h8M0,-4v8" fill="none" stroke="white" stroke-width="1.5" pointer-events="none"/>
  </g>
  <g id="zoomMin">
    <use xlink:href="#rim" fill="#404040"><set attributeName="fill" to="#808080" begin="zoomminus.mouseover" end="zoomminus.mouseout"/></use>
    <path d="M-4,0h8" fill="none" stroke="white" stroke-width="1.5" pointer-events="none"/>
  </g>
  <g id="arrowUp" transform="translate(30 24)">
    <use xlink:href="#rim"/>
    <path pointer-events="none" fill="none" stroke="white" stroke-width="1.5" d="M0,-3.0v7 M-2.5,-0.5L0,-3.0L2.5,-0.5"/>
  </g>
  <g id="arrowRight" transform="rotate(90) translate(36 -43)">
    <use xlink:href="#rim"/>
    <path pointer-events="none" fill="none" stroke="white" stroke-width="1.5" d="M0,-3.0v7 M-2.5,-0.5L0,-3.0L2.5,-0.5"/>
  </g>
  <g id="arrowDown" transform="rotate(180) translate(-30 -48)">
    <use xlink:href="#rim"/>
    <path pointer-events="none" fill="none" stroke="white" stroke-width="1.5" d="M0,-3.0v7 M-2.5,-0.5L0,-3.0L2.5,-0.5"/>
  </g>
  <g id="arrowLeft" transform="rotate(270) translate(-36 17)">
    <use xlink:href="#rim"/>
    <path pointer-events="none" fill="none" stroke="white" stroke-width="1.5" d="M0,-3.0v7 M-2.5,-0.5L0,-3.0L2.5,-0.5"/>
  </g>
  <g id="resetDef">
    <use xlink:href="#rim2" fill="#404040"><set attributeName="fill" to="#808080" begin="reset.mouseover" end="reset.mouseout"/></use>
  </g>
</defs>
<script type="application/ecmascript">
var viewWidth = 761;
var viewHeight = 424;
var sectionId = 'dynsection-4';
</script>
<script type="application/ecmascript" xlink:href="../../../../assets/svg.min.js"/>
<svg id="graph" class="graph">
<g id="viewport">
<title>BigDataStatMeth::hdf5DiagonalMatrix::createScalarDiagonalMatrix</title>
<!-- Node1 -->
<g id="Node000001" class="node">
<title>Node1</title>
<g id="a_Node000001"><a xlink:title="Create diagonal matrix with scalar multiplication.">
<polygon fill="#999999" stroke="#666666" points="169,-145.5 0,-145.5 0,-115 169,-115 169,-145.5"/>
<text xml:space="preserve" text-anchor="start" x="8" y="-132" font-family="Helvetica,sans-Serif" font-size="10.00">BigDataStatMeth::hdf5Diagonal</text>
<text xml:space="preserve" text-anchor="middle" x="84.5" y="-120.75" font-family="Helvetica,sans-Serif" font-size="10.00">Matrix::createScalarDiagonalMatrix</text>
</a>
</g>
</g>
<!-- Node2 -->
<g id="Node000002" class="node">
<title>Node2</title>
<g id="a_Node000002"><a xlink:href="class_big_data_stat_meth_1_1hdf5_dataset.html#ab19bac9a31efe4a733294c1c23ff5ef7" target="_top" xlink:title="Create a new dataset with optional compression.">
<polygon fill="white" stroke="#666666" points="357.12,-243.5 206.88,-243.5 206.88,-213 357.12,-213 357.12,-243.5"/>
<text xml:space="preserve" text-anchor="start" x="214.88" y="-230" font-family="Helvetica,sans-Serif" font-size="10.00">BigDataStatMeth::hdf5Dataset</text>
<text xml:space="preserve" text-anchor="middle" x="282" y="-218.75" font-family="Helvetica,sans-Serif" font-size="10.00">::createDataset</text>
</a>
</g>
</g>
<!-- Node1&#45;&gt;Node2 -->
<g id="edge1_Node000001_Node000002" class="edge">
<title>Node1&#45;&gt;Node2</title>
<g id="a_edge1_Node000001_Node000002"><a xlink:title=" ">
<path fill="none" stroke="#63b8ff" d="M116.91,-146C150.26,-162.71 203.11,-189.2 239.78,-207.59"/>
<polygon fill="#63b8ff" stroke="#63b8ff" points="237.81,-210.51 248.31,-211.87 240.94,-204.26 237.81,-210.51"/>
</a>
</g>
</g>
<!-- Node13 -->
<g id="Node000013" class="node">
<title>Node13</title>
<g id="a_Node000013"><a xlink:href="class_big_data_stat_meth_1_1hdf5_diagonal_matrix.html#a9cf70033d788079f176f1a20ccee5b42" target="_top" xlink:title="Write diagonal elements directly using HDF5 element selection.">
<polygon fill="white" stroke="#666666" points="359,-96.5 205,-96.5 205,-66 359,-66 359,-96.5"/>
<text xml:space="preserve" text-anchor="start" x="213" y="-83" font-family="Helvetica,sans-Serif" font-size="10.00">BigDataStatMeth::hdf5Diagonal</text>
<text xml:space="preserve" text-anchor="middle" x="282" y="-71.75" font-family="Helvetica,sans-Serif" font-size="10.00">Matrix::writeDiagonal</text>
</a>
</g>
</g>
<!-- Node1&#45;&gt;Node13 -->
<g id="edge13_Node000001_Node000013" class="edge">
<title>Node1&#45;&gt;Node13</title>
<g id="a_edge13_Node000001_Node000013"><a xlink:title=" ">
<path fill="none" stroke="#63b8ff" d="M148.16,-114.54C167.02,-109.82 187.88,-104.59 207.37,-99.7"/>
<polygon fill="#63b8ff" stroke="#63b8ff" points="208.04,-103.15 216.89,-97.32 206.34,-96.36 208.04,-103.15"/>
</a>
</g>
</g>
<!-- Node14 -->
<g id="Node000014" class="node">
<title>Node14</title>
<g id="a_Node000014"><a xlink:href="class_big_data_stat_meth_1_1hdf5_diagonal_matrix.html#aeaf0a7ed3492f1865ecd8a9d69f12d10" target="_top" xlink:title="Write diagonal values directly as vector dataset.">
<polygon fill="white" stroke="#666666" points="359,-145.5 205,-145.5 205,-115 359,-115 359,-145.5"/>
<text xml:space="preserve" text-anchor="start" x="213" y="-132" font-family="Helvetica,sans-Serif" font-size="10.00">BigDataStatMeth::hdf5Diagonal</text>
<text xml:space="preserve" text-anchor="middle" x="282" y="-120.75" font-family="Helvetica,sans-Serif" font-size="10.00">Matrix::writeVectorDiagonal</text>
</a>
</g>
</g>
<!-- Node1&#45;&gt;Node14 -->
<g id="edge14_Node000001_Node000014" class="edge">
<title>Node1&#45;&gt;Node14</title>
<g id="a_edge14_Node000001_Node000014"><a xlink:title=" ">
<path fill="none" stroke="#63b8ff" d="M169.26,-130.25C177.13,-130.25 185.12,-130.25 193.03,-130.25"/>
<polygon fill="#63b8ff" stroke="#63b8ff" points="193.01,-133.75 203.01,-130.25 193.01,-126.75 193.01,-133.75"/>
</a>
</g>
</g>
<!-- Node3 -->
<g id="Node000003" class="node">
<title>Node3</title>
<g id="a_Node000003"><a xlink:href="class_big_data_stat_meth_1_1hdf5_dataset.html#ac7a7f23b7e22c9b56ca6ad86592f2d52" target="_top" xlink:title="Add an attribute to the dataset.">
<polygon fill="white" stroke="#666666" points="545.25,-268.5 395,-268.5 395,-238 545.25,-238 545.25,-268.5"/>
<text xml:space="preserve" text-anchor="start" x="403" y="-255" font-family="Helvetica,sans-Serif" font-size="10.00">BigDataStatMeth::hdf5Dataset</text>
<text xml:space="preserve" text-anchor="middle" x="470.12" y="-243.75" font-family="Helvetica,sans-Serif" font-size="10.00">::addAttribute</text>
</a>
</g>
</g>
<!-- Node2&#45;&gt;Node3 -->
<g id="edge2_Node000002_Node000003" class="edge">
<title>Node2&#45;&gt;Node3</title>
<g id="a_edge2_Node000002_Node000003"><a xlink:title=" ">
<path fill="none" stroke="#63b8ff" d="M357.36,-238.24C365.88,-239.38 374.62,-240.56 383.27,-241.72"/>
<polygon fill="#63b8ff" stroke="#63b8ff" points="382.7,-245.17 393.08,-243.04 383.63,-238.23 382.7,-245.17"/>
</a>
</g>
</g>
<!-- Node4 -->
<g id="Node000004" class="node">
<title>Node4</title>
<g id="a_Node000004"><a xlink:href="class_big_data_stat_meth_1_1hdf5_file.html#abfb73b5f1eb25ee00489485c8dc56a2a" target="_top" xlink:title="Close file and cleanup resources.">
<polygon fill="white" stroke="#666666" points="535.88,-219.5 404.38,-219.5 404.38,-189 535.88,-189 535.88,-219.5"/>
<text xml:space="preserve" text-anchor="start" x="412.38" y="-206" font-family="Helvetica,sans-Serif" font-size="10.00">BigDataStatMeth::hdf5File</text>
<text xml:space="preserve" text-anchor="middle" x="470.12" y="-194.75" font-family="Helvetica,sans-Serif" font-size="10.00">::close_file</text>
</a>
</g>
</g>
<!-- Node2&#45;&gt;Node4 -->
<g id="edge3_Node000002_Node000004" class="edge">
<title>Node2&#45;&gt;Node4</title>
<g id="a_edge3_Node000002_Node000004"><a xlink:title=" ">
<path fill="none" stroke="#63b8ff" d="M357.36,-218.66C369.03,-217.16 381.1,-215.6 392.81,-214.09"/>
<polygon fill="#63b8ff" stroke="#63b8ff" points="392.92,-217.61 402.39,-212.85 392.03,-210.66 392.92,-217.61"/>
</a>
</g>
</g>
<!-- Node5 -->
<g id="Node000005" class="node">
<title>Node5</title>
<g id="a_Node000005"><a xlink:href="class_big_data_stat_meth_1_1hdf5_group.html#a27cef4d33e46c72bfd792aa49fa621a3" target="_top" xlink:title="Create multiple nested groups.">
<polygon fill="white" stroke="#666666" points="541.12,-317.5 399.12,-317.5 399.12,-287 541.12,-287 541.12,-317.5"/>
<text xml:space="preserve" text-anchor="start" x="407.12" y="-304" font-family="Helvetica,sans-Serif" font-size="10.00">BigDataStatMeth::hdf5Group</text>
<text xml:space="preserve" text-anchor="middle" x="470.12" y="-292.75" font-family="Helvetica,sans-Serif" font-size="10.00">::create_HDF5_groups</text>
</a>
</g>
</g>
<!-- Node2&#45;&gt;Node5 -->
<g id="edge4_Node000002_Node000005" class="edge">
<title>Node2&#45;&gt;Node5</title>
<g id="a_edge4_Node000002_Node000005"><a xlink:title=" ">
<path fill="none" stroke="#63b8ff" d="M316.5,-243.82C338.59,-253.86 368.27,-266.92 395,-277.25 399.89,-279.14 404.99,-281.03 410.12,-282.87"/>
<polygon fill="#63b8ff" stroke="#63b8ff" points="408.64,-286.06 419.23,-286.08 410.96,-279.46 408.64,-286.06"/>
</a>
</g>
</g>
<!-- Node7 -->
<g id="Node000007" class="node">
<title>Node7</title>
<g id="a_Node000007"><a xlink:href="namespace_big_data_stat_meth.html#a89d901ab4b5e01771f4e3fc7dc84e50e" target="_top" xlink:title="Checks if an HDF5 element (group or dataset) exists.">
<polygon fill="white" stroke="#666666" points="531.75,-366.5 408.5,-366.5 408.5,-336 531.75,-336 531.75,-366.5"/>
<text xml:space="preserve" text-anchor="start" x="416.5" y="-353" font-family="Helvetica,sans-Serif" font-size="10.00">BigDataStatMeth::exists</text>
<text xml:space="preserve" text-anchor="middle" x="470.12" y="-341.75" font-family="Helvetica,sans-Serif" font-size="10.00">_HDF5_element</text>
</a>
</g>
</g>
<!-- Node2&#45;&gt;Node7 -->
<g id="edge6_Node000002_Node000007" class="edge">
<title>Node2&#45;&gt;Node7</title>
<g id="a_edge6_Node000002_Node000007"><a xlink:title=" ">
<path fill="none" stroke="#63b8ff" d="M297.09,-243.97C316.99,-265.33 355.36,-303.45 395,-326.25 397.97,-327.96 401.06,-329.57 404.24,-331.09"/>
<polygon fill="#63b8ff" stroke="#63b8ff" points="402.65,-334.21 413.21,-335.03 405.46,-327.8 402.65,-334.21"/>
</a>
</g>
</g>
<!-- Node8 -->
<g id="Node000008" class="node">
<title>Node8</title>
<g id="a_Node000008"><a xlink:href="class_big_data_stat_meth_1_1hdf5_group.html#a59995412538627e6c80f64b552c286f5" target="_top" xlink:title=" ">
<polygon fill="white" stroke="#666666" points="541.12,-121.5 399.12,-121.5 399.12,-91 541.12,-91 541.12,-121.5"/>
<text xml:space="preserve" text-anchor="start" x="407.12" y="-108" font-family="Helvetica,sans-Serif" font-size="10.00">BigDataStatMeth::hdf5Group</text>
<text xml:space="preserve" text-anchor="middle" x="470.12" y="-96.75" font-family="Helvetica,sans-Serif" font-size="10.00">::getGroupName</text>
</a>
</g>
</g>
<!-- Node2&#45;&gt;Node8 -->
<g id="edge8_Node000002_Node000008" class="edge">
<title>Node2&#45;&gt;Node8</title>
<g id="a_edge8_Node000002_Node000008"><a xlink:title=" ">
<path fill="none" stroke="#63b8ff" d="M297.12,-212.7C317.07,-191.57 355.48,-153.85 395,-131.25 397.97,-129.55 401.07,-127.95 404.25,-126.43"/>
<polygon fill="#63b8ff" stroke="#63b8ff" points="405.47,-129.72 413.22,-122.5 402.66,-123.31 405.47,-129.72"/>
</a>
</g>
</g>
<!-- Node9 -->
<g id="Node000009" class="node">
<title>Node9</title>
<g id="a_Node000009"><a xlink:href="namespace_big_data_stat_meth.html#a3d06783149029f1df2853c472d401380" target="_top" xlink:title="Removes multiple elements from an HDF5 file.">
<polygon fill="white" stroke="#666666" points="534.75,-415.5 405.5,-415.5 405.5,-385 534.75,-385 534.75,-415.5"/>
<text xml:space="preserve" text-anchor="start" x="413.5" y="-402" font-family="Helvetica,sans-Serif" font-size="10.00">BigDataStatMeth::remove</text>
<text xml:space="preserve" text-anchor="middle" x="470.12" y="-390.75" font-family="Helvetica,sans-Serif" font-size="10.00">_elements</text>
</a>
</g>
</g>
<!-- Node2&#45;&gt;Node9 -->
<g id="edge9_Node000002_Node000009" class="edge">
<title>Node2&#45;&gt;Node9</title>
<g id="a_edge9_Node000002_Node000009"><a xlink:title=" ">
<path fill="none" stroke="#63b8ff" d="M290.63,-243.55C306.19,-273.25 344.43,-338.96 395,-375.25 396.94,-376.64 398.96,-377.96 401.05,-379.21"/>
<polygon fill="#63b8ff" stroke="#63b8ff" points="399.37,-382.28 409.85,-383.85 402.64,-376.09 399.37,-382.28"/>
</a>
</g>
</g>
<!-- Node10 -->
<g id="Node000010" class="node">
<title>Node10</title>
<g id="a_Node000010"><a xlink:href="class_big_data_stat_meth_1_1hdf5_dataset.html#acf9843abcb57a0090f1635cc69d95300" target="_top" xlink:title="Write data to the dataset.">
<polygon fill="white" stroke="#666666" points="545.25,-170.5 395,-170.5 395,-140 545.25,-140 545.25,-170.5"/>
<text xml:space="preserve" text-anchor="start" x="403" y="-157" font-family="Helvetica,sans-Serif" font-size="10.00">BigDataStatMeth::hdf5Dataset</text>
<text xml:space="preserve" text-anchor="middle" x="470.12" y="-145.75" font-family="Helvetica,sans-Serif" font-size="10.00">::writeDataset</text>
</a>
</g>
</g>
<!-- Node2&#45;&gt;Node10 -->
<g id="edge10_Node000002_Node000010" class="edge">
<title>Node2&#45;&gt;Node10</title>
<g id="a_edge10_Node000002_Node000010"><a xlink:title=" ">
<path fill="none" stroke="#63b8ff" d="M317.52,-212.61C339.51,-202.86 368.72,-190.3 395,-180.25 399.9,-178.38 405,-176.5 410.14,-174.67"/>
<polygon fill="#63b8ff" stroke="#63b8ff" points="410.97,-178.08 419.25,-171.47 408.66,-171.48 410.97,-178.08"/>
</a>
</g>
</g>
<!-- Node6 -->
<g id="Node000006" class="node">
<title>Node6</title>
<g id="a_Node000006"><a xlink:href="namespace_big_data_stat_meth.html#abcaa4216cd52f03ebac42e4855ef846b" target="_top" xlink:title="Checks if a path exists in an HDF5 file.">
<polygon fill="white" stroke="#666666" points="738.62,-335.88 595.12,-335.88 595.12,-316.62 738.62,-316.62 738.62,-335.88"/>
<text xml:space="preserve" text-anchor="middle" x="666.88" y="-322.38" font-family="Helvetica,sans-Serif" font-size="10.00">BigDataStatMeth::pathExists</text>
</a>
</g>
</g>
<!-- Node5&#45;&gt;Node6 -->
<g id="edge5_Node000005_Node000006" class="edge">
<title>Node5&#45;&gt;Node6</title>
<g id="a_edge5_Node000005_Node000006"><a xlink:title=" ">
<path fill="none" stroke="#63b8ff" d="M541.43,-310.91C555.1,-312.6 569.55,-314.38 583.56,-316.11"/>
<polygon fill="#63b8ff" stroke="#63b8ff" points="582.83,-319.54 593.19,-317.29 583.69,-312.6 582.83,-319.54"/>
</a>
</g>
</g>
<!-- Node7&#45;&gt;Node6 -->
<g id="edge7_Node000007_Node000006" class="edge">
<title>Node7&#45;&gt;Node6</title>
<g id="a_edge7_Node000007_Node000006"><a xlink:title=" ">
<path fill="none" stroke="#63b8ff" d="M532.21,-343.41C548.5,-341.32 566.37,-339.02 583.59,-336.81"/>
<polygon fill="#63b8ff" stroke="#63b8ff" points="583.82,-340.31 593.29,-335.57 582.93,-333.37 583.82,-340.31"/>
</a>
</g>
</g>
<!-- Node11 -->
<g id="Node000011" class="node">
<title>Node11</title>
<g id="a_Node000011"><a xlink:href="class_big_data_stat_meth_1_1hdf5_dataset.html#aba39e56a580d3b1fa7f1619fc72efa3e" target="_top" xlink:title="Close dataset and file.">
<polygon fill="white" stroke="#666666" points="742,-119.5 591.75,-119.5 591.75,-89 742,-89 742,-119.5"/>
<text xml:space="preserve" text-anchor="start" x="599.75" y="-106" font-family="Helvetica,sans-Serif" font-size="10.00">BigDataStatMeth::hdf5Dataset</text>
<text xml:space="preserve" text-anchor="middle" x="666.88" y="-94.75" font-family="Helvetica,sans-Serif" font-size="10.00">::close_dataset_file</text>
</a>
</g>
</g>
<!-- Node10&#45;&gt;Node11 -->
<g id="edge11_Node000010_Node000011" class="edge">
<title>Node10&#45;&gt;Node11</title>
<g id="a_edge11_Node000010_Node000011"><a xlink:title=" ">
<path fill="none" stroke="#63b8ff" d="M531.15,-139.53C551.32,-134.25 574.03,-128.3 594.96,-122.82"/>
<polygon fill="#63b8ff" stroke="#63b8ff" points="595.8,-126.22 604.59,-120.3 594.03,-119.45 595.8,-126.22"/>
</a>
</g>
</g>
<!-- Node12 -->
<g id="Node000012" class="node">
<title>Node12</title>
<g id="a_Node000012"><a xlink:href="class_big_data_stat_meth_1_1hdf5_dataset.html#a94d81b72e92cb0230b4e64f37ea7d2e3" target="_top" xlink:title="Convert DataFrame to range list.">
<polygon fill="white" stroke="#666666" points="752.5,-169.5 581.25,-169.5 581.25,-139 752.5,-139 752.5,-169.5"/>
<text xml:space="preserve" text-anchor="start" x="589.25" y="-156" font-family="Helvetica,sans-Serif" font-size="10.00">BigDataStatMeth::hdf5Dataset</text>
<text xml:space="preserve" text-anchor="middle" x="666.88" y="-144.75" font-family="Helvetica,sans-Serif" font-size="10.00">::convert_DataFrame_to_RangeList</text>
</a>
</g>
</g>
<!-- Node10&#45;&gt;Node12 -->
<g id="edge12_Node000010_Node000012" class="edge">
<title>Node10&#45;&gt;Node12</title>
<g id="a_edge12_Node000010_Node000012"><a xlink:title=" ">
<path fill="none" stroke="#63b8ff" d="M545.59,-154.87C553.47,-154.83 561.56,-154.79 569.65,-154.74"/>
<polygon fill="#63b8ff" stroke="#63b8ff" points="569.55,-158.24 579.53,-154.69 569.51,-151.24 569.55,-158.24"/>
</a>
</g>
</g>
<!-- Node15 -->
<g id="Node000015" class="node">
<title>Node15</title>
<g id="a_Node000015"><a xlink:href="class_big_data_stat_meth_1_1hdf5_dataset.html#af606176d84a63561b65702b6fde3a583" target="_top" xlink:title="Write block of data with optional transposition.">
<polygon fill="white" stroke="#666666" points="545.25,-72.5 395,-72.5 395,-42 545.25,-42 545.25,-72.5"/>
<text xml:space="preserve" text-anchor="start" x="403" y="-59" font-family="Helvetica,sans-Serif" font-size="10.00">BigDataStatMeth::hdf5Dataset</text>
<text xml:space="preserve" text-anchor="middle" x="470.12" y="-47.75" font-family="Helvetica,sans-Serif" font-size="10.00">::writeDatasetBlock</text>
</a>
</g>
</g>
<!-- Node14&#45;&gt;Node15 -->
<g id="edge15_Node000014_Node000015" class="edge">
<title>Node14&#45;&gt;Node15</title>
<g id="a_edge15_Node000014_Node000015"><a xlink:title=" ">
<path fill="none" stroke="#63b8ff" d="M336.41,-114.57C344.11,-111.77 351.85,-108.64 359,-105.25 376.15,-97.11 377.88,-90.46 395,-82.25 398.77,-80.44 402.71,-78.71 406.72,-77.05"/>
<polygon fill="#63b8ff" stroke="#63b8ff" points="407.98,-80.32 416.03,-73.42 405.44,-73.8 407.98,-80.32"/>
</a>
</g>
</g>
<!-- Node15&#45;&gt;Node11 -->
<g id="edge17_Node000015_Node000011" class="edge">
<title>Node15&#45;&gt;Node11</title>
<g id="a_edge17_Node000015_Node000011"><a xlink:title=" ">
<path fill="none" stroke="#63b8ff" d="M536.24,-72.97C553.38,-77.1 572.02,-81.6 589.68,-85.86"/>
<polygon fill="#63b8ff" stroke="#63b8ff" points="588.8,-89.25 599.35,-88.19 590.45,-82.45 588.8,-89.25"/>
</a>
</g>
</g>
<!-- Node15&#45;&gt;Node12 -->
<g id="edge18_Node000015_Node000012" class="edge">
<title>Node15&#45;&gt;Node12</title>
<g id="a_edge18_Node000015_Node000012"><a xlink:title=" ">
<path fill="none" stroke="#63b8ff" d="M528.64,-72.83C534.49,-75.52 540.15,-78.64 545.25,-82.25 566.44,-97.25 559.86,-113.54 581.25,-128.25 584.07,-130.19 587.04,-131.99 590.12,-133.66"/>
<polygon fill="#63b8ff" stroke="#63b8ff" points="588.34,-136.69 598.86,-137.89 591.39,-130.39 588.34,-136.69"/>
</a>
</g>
</g>
<!-- Node16 -->
<g id="Node000016" class="node">
<title>Node16</title>
<g id="a_Node000016"><a xlink:href="class_big_data_stat_meth_1_1hdf5_dataset.html#a64177ae924792ea9e557febaa95ed400" target="_top" xlink:title="Close the dataset.">
<polygon fill="white" stroke="#666666" points="742,-30.5 591.75,-30.5 591.75,0 742,0 742,-30.5"/>
<text xml:space="preserve" text-anchor="start" x="599.75" y="-17" font-family="Helvetica,sans-Serif" font-size="10.00">BigDataStatMeth::hdf5Dataset</text>
<text xml:space="preserve" text-anchor="middle" x="666.88" y="-5.75" font-family="Helvetica,sans-Serif" font-size="10.00">::close_dataset</text>
</a>
</g>
</g>
<!-- Node15&#45;&gt;Node16 -->
<g id="edge16_Node000015_Node000016" class="edge">
<title>Node15&#45;&gt;Node16</title>
<g id="a_edge16_Node000015_Node000016"><a xlink:title=" ">
<path fill="none" stroke="#63b8ff" d="M543.92,-41.55C556.29,-38.88 569.22,-36.09 581.85,-33.37"/>
<polygon fill="#63b8ff" stroke="#63b8ff" points="582.33,-36.85 591.36,-31.32 580.85,-30.01 582.33,-36.85"/>
</a>
</g>
</g>
<!-- Node17 -->
<g id="Node000017" class="node">
<title>Node17</title>
<g id="a_Node000017"><a xlink:href="namespace_big_data_stat_meth.html#a2692707b3ea4aaafa09d07afaf632437" target="_top" xlink:title="Transposes a 2D matrix.">
<polygon fill="white" stroke="#666666" points="736.75,-67.88 597,-67.88 597,-48.62 736.75,-48.62 736.75,-67.88"/>
<text xml:space="preserve" text-anchor="middle" x="666.88" y="-54.38" font-family="Helvetica,sans-Serif" font-size="10.00">BigDataStatMeth::transpose</text>
</a>
</g>
</g>
<!-- Node15&#45;&gt;Node17 -->
<g id="edge19_Node000015_Node000017" class="edge">
<title>Node15&#45;&gt;Node17</title>
<g id="a_edge19_Node000015_Node000017"><a xlink:title=" ">
<path fill="none" stroke="#63b8ff" d="M545.59,-57.63C558.54,-57.7 572.07,-57.77 585.18,-57.84"/>
<polygon fill="#63b8ff" stroke="#63b8ff" points="585.05,-61.33 595.06,-57.89 585.08,-54.33 585.05,-61.33"/>
</a>
</g>
</g>
</g>
</svg>

<g id="navigator" transform="translate(0 0)" fill="#404254">
  <rect fill="#f2f5e9" fill-opacity="0.5" stroke="#606060" stroke-width=".5" x="0" y="0" width="60" height="60"/>
  <use id="zoomplus" xlink:href="#zoomPlus" x="17" y="9" onmousedown="handleZoom(evt,'in')"/>
  <use id="zoomminus" xlink:href="#zoomMin" x="42" y="9" onmousedown="handleZoom(evt,'out')"/>
  <use id="reset" xlink:href="#resetDef" x="30" y="36" onmousedown="handleReset()"/>
   <use id="arrowup" xlink:href="#arrowUp" x="0" y="0" onmousedown="handlePan(0,-1)"/>
  <use id="arrowright" xlink:href="#arrowRight" x="0" y="0" onmousedown="handlePan(1,0)"/>
  <use id="arrowdown" xlink:href="#arrowDown" x="0" y="0" onmousedown="handlePan(0,1)"/>
  <use id="arrowleft" xlink:href="#arrowLeft" x="0" y="0" onmousedown="handlePan(-1,0)"/>
</g>
<svg viewBox="0 0 15 15" width="100%" height="30px" preserveAspectRatio="xMaxYMin meet">
 <g id="arrow_out" transform="scale(0.3 0.3)">
  <a xlink:href="class_big_data_stat_meth_1_1hdf5_diagonal_matrix_a6ec879449abc81a01da537456baf8291_cgraph_org.svg" target="_base">
   <rect id="button" ry="5" rx="5" y="6" x="6" height="38" width="38"
        fill="#f2f5e9" fill-opacity="0.5" stroke="#606060" stroke-width="1.0"/>
   <path id="arrow"
     d="M 11.500037,31.436501 C 11.940474,20.09759 22.043105,11.32322 32.158766,21.979434 L 37.068811,17.246167 C 37.068811,17.246167 37.088388,32 37.088388,32 L 22.160133,31.978069 C 22.160133,31.978069 26.997745,27.140456 26.997745,27.140456 C 18.528582,18.264221 13.291696,25.230495 11.500037,31.436501 z"
     style="fill:#404040;"/>
  </a>
 </g>
</svg>

<style type='text/css'>
<![CDATA[
[data-mouse-over-selected='false'] { opacity: 0.7; }
[data-mouse-over-selected='true']  { opacity: 1.0; }
]]>
</style>
<script type="application/ecmascript"><![CDATA[
document.addEventListener('DOMContentLoaded', (event) => {
  highlightEdges();
  highlightAdjacentNodes();
});
]]></script>
</svg>
