<?xml version="1.0" encoding="UTF-8" standalone="no"?>
<!DOCTYPE svg PUBLIC "-//W3C//DTD SVG 1.1//EN"
 "http://www.w3.org/Graphics/SVG/1.1/DTD/svg11.dtd">
<!-- Generated by graphviz version 14.0.0 (20250921.2048)
 -->
<!-- Title: BigDataStatMeth::Inverse_of_Cholesky_decomposition_hdf5 Pages: 1 -->
<!--zoomable 287 -->

<svg id="main" version="1.1" xmlns="http://www.w3.org/2000/svg" xmlns:xlink="http://www.w3.org/1999/xlink" xml:space="preserve" onload="init(evt)">

<style type="text/css"><![CDATA[
.node, .edge {opacity: 0.7;}
.node.selected, .edge.selected {opacity: 1;}
.edge:hover path { stroke: red; }
.edge:hover polygon { stroke: red; fill: red; }
]]></style>

<defs>
  <circle id="rim" cx="0" cy="0" r="7"/>
  <circle id="rim2" cx="0" cy="0" r="3.5"/>
  <g id="zoomPlus">
    <use xlink:href="#rim" fill="#404040"><set attributeName="fill" to="#808080" begin="zoomplus.mouseover" end="zoomplus.mouseout"/></use>
    <path d="M-4,0h8M0,-4v8" fill="none" stroke="white" stroke-width="1.5" pointer-events="none"/>
  </g>
  <g id="zoomMin">
    <use xlink:href="#rim" fill="#404040"><set attributeName="fill" to="#808080" begin="zoomminus.mouseover" end="zoomminus.mouseout"/></use>
    <path d="M-4,0h8" fill="none" stroke="white" stroke-width="1.5" pointer-events="none"/>
  </g>
  <g id="arrowUp" transform="translate(30 24)">
    <use xlink:href="#rim"/>
    <path pointer-events="none" fill="none" stroke="white" stroke-width="1.5" d="M0,-3.0v7 M-2.5,-0.5L0,-3.0L2.5,-0.5"/>
  </g>
  <g id="arrowRight" transform="rotate(90) translate(36 -43)">
    <use xlink:href="#rim"/>
    <path pointer-events="none" fill="none" stroke="white" stroke-width="1.5" d="M0,-3.0v7 M-2.5,-0.5L0,-3.0L2.5,-0.5"/>
  </g>
  <g id="arrowDown" transform="rotate(180) translate(-30 -48)">
    <use xlink:href="#rim"/>
    <path pointer-events="none" fill="none" stroke="white" stroke-width="1.5" d="M0,-3.0v7 M-2.5,-0.5L0,-3.0L2.5,-0.5"/>
  </g>
  <g id="arrowLeft" transform="rotate(270) translate(-36 17)">
    <use xlink:href="#rim"/>
    <path pointer-events="none" fill="none" stroke="white" stroke-width="1.5" d="M0,-3.0v7 M-2.5,-0.5L0,-3.0L2.5,-0.5"/>
  </g>
  <g id="resetDef">
    <use xlink:href="#rim2" fill="#404040"><set attributeName="fill" to="#808080" begin="reset.mouseover" end="reset.mouseout"/></use>
  </g>
</defs>
<script type="application/ecmascript">
var viewWidth = 954;
var viewHeight = 287;
var sectionId = 'dynsection-90';
</script>
<script type="application/ecmascript" xlink:href="../../../../assets/svg.min.js"/>
<svg id="graph" class="graph">
<g id="viewport">
<title>BigDataStatMeth::Inverse_of_Cholesky_decomposition_hdf5</title>
<!-- Node1 -->
<g id="Node000001" class="node">
<title>Node1</title>
<g id="a_Node000001"><a xlink:title="Computes inverse of Cholesky factor with automatic algorithm selection.">
<polygon fill="#999999" stroke="#666666" points="168.25,-118.88 0,-118.88 0,-88.38 168.25,-88.38 168.25,-118.88"/>
<text xml:space="preserve" text-anchor="start" x="8" y="-105.38" font-family="Helvetica,sans-Serif" font-size="10.00">BigDataStatMeth::Inverse</text>
<text xml:space="preserve" text-anchor="middle" x="84.12" y="-94.12" font-family="Helvetica,sans-Serif" font-size="10.00">_of_Cholesky_decomposition_hdf5</text>
</a>
</g>
</g>
<!-- Node2 -->
<g id="Node000002" class="node">
<title>Node2</title>
<g id="a_Node000002"><a xlink:href="namespace_big_data_stat_meth.html#aea31bd4c416718e1d4c084eb4a6d0b28" target="_top" xlink:title="Computes inverse of Cholesky factor in&#45;place.">
<polygon fill="white" stroke="#666666" points="348.5,-170.5 204.25,-170.5 204.25,-128.75 348.5,-128.75 348.5,-170.5"/>
<text xml:space="preserve" text-anchor="start" x="212.25" y="-157" font-family="Helvetica,sans-Serif" font-size="10.00">BigDataStatMeth::Inverse</text>
<text xml:space="preserve" text-anchor="start" x="212.25" y="-145.75" font-family="Helvetica,sans-Serif" font-size="10.00">_of_Cholesky_decomposition</text>
<text xml:space="preserve" text-anchor="middle" x="276.38" y="-134.5" font-family="Helvetica,sans-Serif" font-size="10.00">_intermediate_hdf5</text>
</a>
</g>
</g>
<!-- Node1&#45;&gt;Node2 -->
<g id="edge1_Node000001_Node000002" class="edge">
<title>Node1&#45;&gt;Node2</title>
<g id="a_edge1_Node000001_Node000002"><a xlink:title=" ">
<path fill="none" stroke="#63b8ff" d="M150.07,-119.33C163.88,-122.67 178.63,-126.23 193,-129.71"/>
<polygon fill="#63b8ff" stroke="#63b8ff" points="191.87,-133.03 202.41,-131.98 193.51,-126.23 191.87,-133.03"/>
</a>
</g>
</g>
<!-- Node14 -->
<g id="Node000014" class="node">
<title>Node14</title>
<g id="a_Node000014"><a xlink:href="namespace_big_data_stat_meth.html#a2284c5613ebeffe9d40caf8924de633f" target="_top" xlink:title="Out&#45;of&#45;core inverse of Cholesky factor using tiled back&#45;substitution.">
<polygon fill="white" stroke="#666666" points="540.75,-57.5 396.5,-57.5 396.5,-15.75 540.75,-15.75 540.75,-57.5"/>
<text xml:space="preserve" text-anchor="start" x="404.5" y="-44" font-family="Helvetica,sans-Serif" font-size="10.00">BigDataStatMeth::Inverse</text>
<text xml:space="preserve" text-anchor="start" x="404.5" y="-32.75" font-family="Helvetica,sans-Serif" font-size="10.00">_of_Cholesky_decomposition</text>
<text xml:space="preserve" text-anchor="middle" x="468.62" y="-21.5" font-family="Helvetica,sans-Serif" font-size="10.00">_outofcore_hdf5</text>
</a>
</g>
</g>
<!-- Node1&#45;&gt;Node14 -->
<g id="edge17_Node000001_Node000014" class="edge">
<title>Node1&#45;&gt;Node14</title>
<g id="a_edge17_Node000001_Node000014"><a xlink:title=" ">
<path fill="none" stroke="#63b8ff" d="M168.59,-89C232.77,-77.76 321,-62.31 384.97,-51.1"/>
<polygon fill="#63b8ff" stroke="#63b8ff" points="385.49,-54.57 394.73,-49.39 384.28,-47.67 385.49,-54.57"/>
</a>
</g>
</g>
<!-- Node3 -->
<g id="Node000003" class="node">
<title>Node3</title>
<g id="a_Node000003"><a xlink:href="namespace_big_data_stat_meth.html#aa11cdd9bdca5cff2819a45c2900506c7" target="_top" xlink:title="Extracts the diagonal elements from a matrix stored in HDF5 format.">
<polygon fill="white" stroke="#666666" points="552.75,-229.88 384.5,-229.88 384.5,-199.38 552.75,-199.38 552.75,-229.88"/>
<text xml:space="preserve" text-anchor="start" x="392.5" y="-216.38" font-family="Helvetica,sans-Serif" font-size="10.00">BigDataStatMeth::getDiagonalfrom</text>
<text xml:space="preserve" text-anchor="middle" x="468.62" y="-205.12" font-family="Helvetica,sans-Serif" font-size="10.00">Matrix</text>
</a>
</g>
</g>
<!-- Node2&#45;&gt;Node3 -->
<g id="edge2_Node000002_Node000003" class="edge">
<title>Node2&#45;&gt;Node3</title>
<g id="a_edge2_Node000002_Node000003"><a xlink:title=" ">
<path fill="none" stroke="#63b8ff" d="M339.93,-171C362.83,-178.82 388.59,-187.62 410.94,-195.26"/>
<polygon fill="#63b8ff" stroke="#63b8ff" points="409.59,-198.49 420.18,-198.42 411.85,-191.87 409.59,-198.49"/>
</a>
</g>
</g>
<!-- Node5 -->
<g id="Node000005" class="node">
<title>Node5</title>
<g id="a_Node000005"><a xlink:href="class_big_data_stat_meth_1_1hdf5_dataset.html#a23bea87165b8ef6b944709c5b2cbd0cf" target="_top" xlink:title=" ">
<polygon fill="white" stroke="#666666" points="739,-165.88 588.75,-165.88 588.75,-135.38 739,-135.38 739,-165.88"/>
<text xml:space="preserve" text-anchor="start" x="596.75" y="-152.38" font-family="Helvetica,sans-Serif" font-size="10.00">BigDataStatMeth::hdf5Dataset</text>
<text xml:space="preserve" text-anchor="middle" x="663.88" y="-141.12" font-family="Helvetica,sans-Serif" font-size="10.00">::readDatasetBlock</text>
</a>
</g>
</g>
<!-- Node2&#45;&gt;Node5 -->
<g id="edge8_Node000002_Node000005" class="edge">
<title>Node2&#45;&gt;Node5</title>
<g id="a_edge8_Node000002_Node000005"><a xlink:title=" ">
<path fill="none" stroke="#63b8ff" d="M348.82,-151.9C360.74,-152.2 372.97,-152.46 384.5,-152.62 459.27,-153.67 477.98,-153.3 552.75,-152.62 560.7,-152.55 568.98,-152.45 577.26,-152.33"/>
<polygon fill="#63b8ff" stroke="#63b8ff" points="577.08,-155.84 587.02,-152.18 576.97,-148.84 577.08,-155.84"/>
</a>
</g>
</g>
<!-- Node7 -->
<g id="Node000007" class="node">
<title>Node7</title>
<g id="a_Node000007"><a xlink:href="namespace_big_data_stat_meth.html#abcd544ed5db12dd03f79bca0a8f31ca5" target="_top" xlink:title="Calculates optimal block size for memory&#45;efficient matrix operations.">
<polygon fill="white" stroke="#666666" points="540.75,-278.88 396.5,-278.88 396.5,-248.38 540.75,-248.38 540.75,-278.88"/>
<text xml:space="preserve" text-anchor="start" x="404.5" y="-265.38" font-family="Helvetica,sans-Serif" font-size="10.00">BigDataStatMeth::getOptimal</text>
<text xml:space="preserve" text-anchor="middle" x="468.62" y="-254.12" font-family="Helvetica,sans-Serif" font-size="10.00">BlockElements</text>
</a>
</g>
</g>
<!-- Node2&#45;&gt;Node7 -->
<g id="edge6_Node000002_Node000007" class="edge">
<title>Node2&#45;&gt;Node7</title>
<g id="a_edge6_Node000002_Node000007"><a xlink:title=" ">
<path fill="none" stroke="#63b8ff" d="M297.65,-170.82C317.92,-190.89 350.84,-220.55 384.5,-238.62 387.92,-240.46 391.5,-242.18 395.16,-243.79"/>
<polygon fill="#63b8ff" stroke="#63b8ff" points="393.68,-246.97 404.27,-247.47 396.31,-240.48 393.68,-246.97"/>
</a>
</g>
</g>
<!-- Node9 -->
<g id="Node000009" class="node">
<title>Node9</title>
<g id="a_Node000009"><a xlink:href="namespace_big_data_stat_meth.html#ab5429d9d25ff38d72d77e6dca59947b0" target="_top" xlink:title="Sets the diagonal elements of a matrix stored in HDF5 format.">
<polygon fill="white" stroke="#666666" points="543,-143.88 394.25,-143.88 394.25,-113.38 543,-113.38 543,-143.88"/>
<text xml:space="preserve" text-anchor="start" x="402.25" y="-130.38" font-family="Helvetica,sans-Serif" font-size="10.00">BigDataStatMeth::setDiagonal</text>
<text xml:space="preserve" text-anchor="middle" x="468.62" y="-119.12" font-family="Helvetica,sans-Serif" font-size="10.00">Matrix</text>
</a>
</g>
</g>
<!-- Node2&#45;&gt;Node9 -->
<g id="edge9_Node000002_Node000009" class="edge">
<title>Node2&#45;&gt;Node9</title>
<g id="a_edge9_Node000002_Node000009"><a xlink:title=" ">
<path fill="none" stroke="#63b8ff" d="M348.76,-141.75C359.83,-140.52 371.36,-139.25 382.69,-138"/>
<polygon fill="#63b8ff" stroke="#63b8ff" points="382.88,-141.5 392.43,-136.92 382.11,-134.54 382.88,-141.5"/>
</a>
</g>
</g>
<!-- Node10 -->
<g id="Node000010" class="node">
<title>Node10</title>
<g id="a_Node000010"><a xlink:href="class_big_data_stat_meth_1_1hdf5_dataset.html#af606176d84a63561b65702b6fde3a583" target="_top" xlink:title="Write block of data with optional transposition.">
<polygon fill="white" stroke="#666666" points="739,-100.88 588.75,-100.88 588.75,-70.38 739,-70.38 739,-100.88"/>
<text xml:space="preserve" text-anchor="start" x="596.75" y="-87.38" font-family="Helvetica,sans-Serif" font-size="10.00">BigDataStatMeth::hdf5Dataset</text>
<text xml:space="preserve" text-anchor="middle" x="663.88" y="-76.12" font-family="Helvetica,sans-Serif" font-size="10.00">::writeDatasetBlock</text>
</a>
</g>
</g>
<!-- Node2&#45;&gt;Node10 -->
<g id="edge16_Node000002_Node000010" class="edge">
<title>Node2&#45;&gt;Node10</title>
<g id="a_edge16_Node000002_Node000010"><a xlink:title=" ">
<path fill="none" stroke="#63b8ff" d="M319.04,-128.35C338.43,-119.44 362.12,-109.93 384.5,-104.62 447.89,-89.59 521.5,-85.11 577.1,-84.24"/>
<polygon fill="#63b8ff" stroke="#63b8ff" points="576.86,-87.74 586.81,-84.13 576.77,-80.74 576.86,-87.74"/>
</a>
</g>
</g>
<!-- Node4 -->
<g id="Node000004" class="node">
<title>Node4</title>
<g id="a_Node000004"><a xlink:href="class_big_data_stat_meth_1_1hdf5_dataset.html#a6cbce676967d0cc4b50e2cc5282c322b" target="_top" xlink:title="Get number of rows in internal format.">
<polygon fill="white" stroke="#666666" points="739,-229.88 588.75,-229.88 588.75,-199.38 739,-199.38 739,-229.88"/>
<text xml:space="preserve" text-anchor="start" x="596.75" y="-216.38" font-family="Helvetica,sans-Serif" font-size="10.00">BigDataStatMeth::hdf5Dataset</text>
<text xml:space="preserve" text-anchor="middle" x="663.88" y="-205.12" font-family="Helvetica,sans-Serif" font-size="10.00">::nrows</text>
</a>
</g>
</g>
<!-- Node3&#45;&gt;Node4 -->
<g id="edge3_Node000003_Node000004" class="edge">
<title>Node3&#45;&gt;Node4</title>
<g id="a_edge3_Node000003_Node000004"><a xlink:title=" ">
<path fill="none" stroke="#63b8ff" d="M552.98,-214.62C560.88,-214.62 568.89,-214.62 576.81,-214.62"/>
<polygon fill="#63b8ff" stroke="#63b8ff" points="576.8,-218.13 586.8,-214.63 576.8,-211.13 576.8,-218.13"/>
</a>
</g>
</g>
<!-- Node3&#45;&gt;Node5 -->
<g id="edge4_Node000003_Node000005" class="edge">
<title>Node3&#45;&gt;Node5</title>
<g id="a_edge4_Node000003_Node000005"><a xlink:title=" ">
<path fill="none" stroke="#63b8ff" d="M516.9,-198.97C543.34,-190.21 576.51,-179.23 604.55,-169.94"/>
<polygon fill="#63b8ff" stroke="#63b8ff" points="605.59,-173.28 613.98,-166.82 603.39,-166.64 605.59,-173.28"/>
</a>
</g>
</g>
<!-- Node6 -->
<g id="Node000006" class="node">
<title>Node6</title>
<g id="a_Node000006"><a xlink:href="class_big_data_stat_meth_1_1hdf5_dataset.html#aba39e56a580d3b1fa7f1619fc72efa3e" target="_top" xlink:title="Close dataset and file.">
<polygon fill="white" stroke="#666666" points="935.75,-165.88 785.5,-165.88 785.5,-135.38 935.75,-135.38 935.75,-165.88"/>
<text xml:space="preserve" text-anchor="start" x="793.5" y="-152.38" font-family="Helvetica,sans-Serif" font-size="10.00">BigDataStatMeth::hdf5Dataset</text>
<text xml:space="preserve" text-anchor="middle" x="860.62" y="-141.12" font-family="Helvetica,sans-Serif" font-size="10.00">::close_dataset_file</text>
</a>
</g>
</g>
<!-- Node5&#45;&gt;Node6 -->
<g id="edge5_Node000005_Node000006" class="edge">
<title>Node5&#45;&gt;Node6</title>
<g id="a_edge5_Node000005_Node000006"><a xlink:title=" ">
<path fill="none" stroke="#63b8ff" d="M739.34,-150.62C750.61,-150.62 762.32,-150.62 773.81,-150.62"/>
<polygon fill="#63b8ff" stroke="#63b8ff" points="773.69,-154.13 783.69,-150.63 773.69,-147.13 773.69,-154.13"/>
</a>
</g>
</g>
<!-- Node8 -->
<g id="Node000008" class="node">
<title>Node8</title>
<g id="a_Node000008"><a xlink:href="namespace_big_data_stat_meth.html#a8a3d5e267930c906cce28346886f07bc" target="_top" xlink:title="Detects available system memory using R&#45;compatible methods.">
<polygon fill="white" stroke="#666666" points="739,-278.88 588.75,-278.88 588.75,-248.38 739,-248.38 739,-278.88"/>
<text xml:space="preserve" text-anchor="start" x="596.75" y="-265.38" font-family="Helvetica,sans-Serif" font-size="10.00">BigDataStatMeth::getAvailable</text>
<text xml:space="preserve" text-anchor="middle" x="663.88" y="-254.12" font-family="Helvetica,sans-Serif" font-size="10.00">MemoryMB</text>
</a>
</g>
</g>
<!-- Node7&#45;&gt;Node8 -->
<g id="edge7_Node000007_Node000008" class="edge">
<title>Node7&#45;&gt;Node8</title>
<g id="a_edge7_Node000007_Node000008"><a xlink:title=" ">
<path fill="none" stroke="#63b8ff" d="M541.04,-263.62C552.77,-263.62 565.03,-263.62 577.07,-263.62"/>
<polygon fill="#63b8ff" stroke="#63b8ff" points="577.01,-267.13 587.01,-263.63 577.01,-260.13 577.01,-267.13"/>
</a>
</g>
</g>
<!-- Node9&#45;&gt;Node5 -->
<g id="edge10_Node000009_Node000005" class="edge">
<title>Node9&#45;&gt;Node5</title>
<g id="a_edge10_Node000009_Node000005"><a xlink:title=" ">
<path fill="none" stroke="#63b8ff" d="M543.24,-137.01C554.36,-138.27 565.91,-139.59 577.25,-140.88"/>
<polygon fill="#63b8ff" stroke="#63b8ff" points="576.67,-144.33 587,-141.99 577.46,-137.38 576.67,-144.33"/>
</a>
</g>
</g>
<!-- Node9&#45;&gt;Node10 -->
<g id="edge11_Node000009_Node000010" class="edge">
<title>Node9&#45;&gt;Node10</title>
<g id="a_edge11_Node000009_Node000010"><a xlink:title=" ">
<path fill="none" stroke="#63b8ff" d="M540.21,-112.92C553.57,-109.95 567.64,-106.81 581.31,-103.77"/>
<polygon fill="#63b8ff" stroke="#63b8ff" points="581.68,-107.28 590.68,-101.69 580.16,-100.45 581.68,-107.28"/>
</a>
</g>
</g>
<!-- Node10&#45;&gt;Node6 -->
<g id="edge13_Node000010_Node000006" class="edge">
<title>Node10&#45;&gt;Node6</title>
<g id="a_edge13_Node000010_Node000006"><a xlink:title=" ">
<path fill="none" stroke="#63b8ff" d="M706.24,-101.33C726.81,-108.96 752.1,-118.09 775,-125.62 781.15,-127.65 787.58,-129.69 794.03,-131.68"/>
<polygon fill="#63b8ff" stroke="#63b8ff" points="792.81,-134.97 803.4,-134.53 794.85,-128.27 792.81,-134.97"/>
</a>
</g>
</g>
<!-- Node11 -->
<g id="Node000011" class="node">
<title>Node11</title>
<g id="a_Node000011"><a xlink:href="class_big_data_stat_meth_1_1hdf5_dataset.html#a64177ae924792ea9e557febaa95ed400" target="_top" xlink:title="Close the dataset.">
<polygon fill="white" stroke="#666666" points="935.75,-116.88 785.5,-116.88 785.5,-86.38 935.75,-86.38 935.75,-116.88"/>
<text xml:space="preserve" text-anchor="start" x="793.5" y="-103.38" font-family="Helvetica,sans-Serif" font-size="10.00">BigDataStatMeth::hdf5Dataset</text>
<text xml:space="preserve" text-anchor="middle" x="860.62" y="-92.12" font-family="Helvetica,sans-Serif" font-size="10.00">::close_dataset</text>
</a>
</g>
</g>
<!-- Node10&#45;&gt;Node11 -->
<g id="edge12_Node000010_Node000011" class="edge">
<title>Node10&#45;&gt;Node11</title>
<g id="a_edge12_Node000010_Node000011"><a xlink:title=" ">
<path fill="none" stroke="#63b8ff" d="M739.34,-91.74C750.61,-92.67 762.32,-93.63 773.81,-94.57"/>
<polygon fill="#63b8ff" stroke="#63b8ff" points="773.44,-98.06 783.7,-95.39 774.02,-91.08 773.44,-98.06"/>
</a>
</g>
</g>
<!-- Node12 -->
<g id="Node000012" class="node">
<title>Node12</title>
<g id="a_Node000012"><a xlink:href="class_big_data_stat_meth_1_1hdf5_dataset.html#a94d81b72e92cb0230b4e64f37ea7d2e3" target="_top" xlink:title="Convert DataFrame to range list.">
<polygon fill="white" stroke="#666666" points="946.25,-67.88 775,-67.88 775,-37.38 946.25,-37.38 946.25,-67.88"/>
<text xml:space="preserve" text-anchor="start" x="783" y="-54.38" font-family="Helvetica,sans-Serif" font-size="10.00">BigDataStatMeth::hdf5Dataset</text>
<text xml:space="preserve" text-anchor="middle" x="860.62" y="-43.12" font-family="Helvetica,sans-Serif" font-size="10.00">::convert_DataFrame_to_RangeList</text>
</a>
</g>
</g>
<!-- Node10&#45;&gt;Node12 -->
<g id="edge14_Node000010_Node000012" class="edge">
<title>Node10&#45;&gt;Node12</title>
<g id="a_edge14_Node000010_Node000012"><a xlink:title=" ">
<path fill="none" stroke="#63b8ff" d="M739.34,-73.01C747.31,-71.66 755.5,-70.27 763.68,-68.88"/>
<polygon fill="#63b8ff" stroke="#63b8ff" points="764.03,-72.37 773.3,-67.25 762.86,-65.47 764.03,-72.37"/>
</a>
</g>
</g>
<!-- Node13 -->
<g id="Node000013" class="node">
<title>Node13</title>
<g id="a_Node000013"><a xlink:href="namespace_big_data_stat_meth.html#a2692707b3ea4aaafa09d07afaf632437" target="_top" xlink:title="Transposes a 2D matrix.">
<polygon fill="white" stroke="#666666" points="930.5,-19.25 790.75,-19.25 790.75,0 930.5,0 930.5,-19.25"/>
<text xml:space="preserve" text-anchor="middle" x="860.62" y="-5.75" font-family="Helvetica,sans-Serif" font-size="10.00">BigDataStatMeth::transpose</text>
</a>
</g>
</g>
<!-- Node10&#45;&gt;Node13 -->
<g id="edge15_Node000010_Node000013" class="edge">
<title>Node10&#45;&gt;Node13</title>
<g id="a_edge15_Node000010_Node000013"><a xlink:title=" ">
<path fill="none" stroke="#63b8ff" d="M690.27,-70.08C712.06,-57.35 744.66,-39.67 775,-28.62 781.16,-26.38 787.68,-24.35 794.25,-22.52"/>
<polygon fill="#63b8ff" stroke="#63b8ff" points="795.05,-25.93 803.84,-20.03 793.28,-19.16 795.05,-25.93"/>
</a>
</g>
</g>
<!-- Node14&#45;&gt;Node5 -->
<g id="edge18_Node000014_Node000005" class="edge">
<title>Node14&#45;&gt;Node5</title>
<g id="a_edge18_Node000014_Node000005"><a xlink:title=" ">
<path fill="none" stroke="#63b8ff" d="M503.53,-57.96C527.24,-72.73 559.72,-92.71 588.75,-109.62 600.04,-116.2 612.41,-123.15 623.76,-129.42"/>
<polygon fill="#63b8ff" stroke="#63b8ff" points="622.07,-132.48 632.51,-134.23 625.44,-126.34 622.07,-132.48"/>
</a>
</g>
</g>
<!-- Node14&#45;&gt;Node10 -->
<g id="edge19_Node000014_Node000010" class="edge">
<title>Node14&#45;&gt;Node10</title>
<g id="a_edge19_Node000014_Node000010"><a xlink:title=" ">
<path fill="none" stroke="#63b8ff" d="M541.04,-54.73C557.02,-58.79 574,-63.09 590.04,-67.16"/>
<polygon fill="#63b8ff" stroke="#63b8ff" points="588.96,-70.49 599.51,-69.56 590.68,-63.71 588.96,-70.49"/>
</a>
</g>
</g>
</g>
</svg>

<g id="navigator" transform="translate(0 0)" fill="#404254">
  <rect fill="#f2f5e9" fill-opacity="0.5" stroke="#606060" stroke-width=".5" x="0" y="0" width="60" height="60"/>
  <use id="zoomplus" xlink:href="#zoomPlus" x="17" y="9" onmousedown="handleZoom(evt,'in')"/>
  <use id="zoomminus" xlink:href="#zoomMin" x="42" y="9" onmousedown="handleZoom(evt,'out')"/>
  <use id="reset" xlink:href="#resetDef" x="30" y="36" onmousedown="handleReset()"/>
   <use id="arrowup" xlink:href="#arrowUp" x="0" y="0" onmousedown="handlePan(0,-1)"/>
  <use id="arrowright" xlink:href="#arrowRight" x="0" y="0" onmousedown="handlePan(1,0)"/>
  <use id="arrowdown" xlink:href="#arrowDown" x="0" y="0" onmousedown="handlePan(0,1)"/>
  <use id="arrowleft" xlink:href="#arrowLeft" x="0" y="0" onmousedown="handlePan(-1,0)"/>
</g>
<svg viewBox="0 0 15 15" width="100%" height="30px" preserveAspectRatio="xMaxYMin meet">
 <g id="arrow_out" transform="scale(0.3 0.3)">
  <a xlink:href="namespace_big_data_stat_meth_a5e754ab66b3a16a958f04ae4bced7007_cgraph_org.svg" target="_base">
   <rect id="button" ry="5" rx="5" y="6" x="6" height="38" width="38"
        fill="#f2f5e9" fill-opacity="0.5" stroke="#606060" stroke-width="1.0"/>
   <path id="arrow"
     d="M 11.500037,31.436501 C 11.940474,20.09759 22.043105,11.32322 32.158766,21.979434 L 37.068811,17.246167 C 37.068811,17.246167 37.088388,32 37.088388,32 L 22.160133,31.978069 C 22.160133,31.978069 26.997745,27.140456 26.997745,27.140456 C 18.528582,18.264221 13.291696,25.230495 11.500037,31.436501 z"
     style="fill:#404040;"/>
  </a>
 </g>
</svg>

<style type='text/css'>
<![CDATA[
[data-mouse-over-selected='false'] { opacity: 0.7; }
[data-mouse-over-selected='true']  { opacity: 1.0; }
]]>
</style>
<script type="application/ecmascript"><![CDATA[
document.addEventListener('DOMContentLoaded', (event) => {
  highlightEdges();
  highlightAdjacentNodes();
});
]]></script>
</svg>
