<?xml version="1.0" encoding="UTF-8" standalone="no"?>
<!DOCTYPE svg PUBLIC "-//W3C//DTD SVG 1.1//EN"
 "http://www.w3.org/Graphics/SVG/1.1/DTD/svg11.dtd">
<!-- Generated by graphviz version 14.0.0 (20250921.2048)
 -->
<!-- Title: BigDataStatMeth::RcppQRHdf5_dispatch Pages: 1 -->
<!--zoomable 572 -->

<svg id="main" version="1.1" xmlns="http://www.w3.org/2000/svg" xmlns:xlink="http://www.w3.org/1999/xlink" xml:space="preserve" onload="init(evt)">

<style type="text/css"><![CDATA[
.node, .edge {opacity: 0.7;}
.node.selected, .edge.selected {opacity: 1;}
.edge:hover path { stroke: red; }
.edge:hover polygon { stroke: red; fill: red; }
]]></style>

<defs>
  <circle id="rim" cx="0" cy="0" r="7"/>
  <circle id="rim2" cx="0" cy="0" r="3.5"/>
  <g id="zoomPlus">
    <use xlink:href="#rim" fill="#404040"><set attributeName="fill" to="#808080" begin="zoomplus.mouseover" end="zoomplus.mouseout"/></use>
    <path d="M-4,0h8M0,-4v8" fill="none" stroke="white" stroke-width="1.5" pointer-events="none"/>
  </g>
  <g id="zoomMin">
    <use xlink:href="#rim" fill="#404040"><set attributeName="fill" to="#808080" begin="zoomminus.mouseover" end="zoomminus.mouseout"/></use>
    <path d="M-4,0h8" fill="none" stroke="white" stroke-width="1.5" pointer-events="none"/>
  </g>
  <g id="arrowUp" transform="translate(30 24)">
    <use xlink:href="#rim"/>
    <path pointer-events="none" fill="none" stroke="white" stroke-width="1.5" d="M0,-3.0v7 M-2.5,-0.5L0,-3.0L2.5,-0.5"/>
  </g>
  <g id="arrowRight" transform="rotate(90) translate(36 -43)">
    <use xlink:href="#rim"/>
    <path pointer-events="none" fill="none" stroke="white" stroke-width="1.5" d="M0,-3.0v7 M-2.5,-0.5L0,-3.0L2.5,-0.5"/>
  </g>
  <g id="arrowDown" transform="rotate(180) translate(-30 -48)">
    <use xlink:href="#rim"/>
    <path pointer-events="none" fill="none" stroke="white" stroke-width="1.5" d="M0,-3.0v7 M-2.5,-0.5L0,-3.0L2.5,-0.5"/>
  </g>
  <g id="arrowLeft" transform="rotate(270) translate(-36 17)">
    <use xlink:href="#rim"/>
    <path pointer-events="none" fill="none" stroke="white" stroke-width="1.5" d="M0,-3.0v7 M-2.5,-0.5L0,-3.0L2.5,-0.5"/>
  </g>
  <g id="resetDef">
    <use xlink:href="#rim2" fill="#404040"><set attributeName="fill" to="#808080" begin="reset.mouseover" end="reset.mouseout"/></use>
  </g>
</defs>
<script type="application/ecmascript">
var viewWidth = 1043;
var viewHeight = 572;
var sectionId = 'dynsection-193';
</script>
<script type="application/ecmascript" xlink:href="../../../../assets/svg.min.js"/>
<svg id="graph" class="graph">
<g id="viewport">
<title>BigDataStatMeth::RcppQRHdf5_dispatch</title>
<!-- Node1 -->
<g id="Node000001" class="node">
<title>Node1</title>
<g id="a_Node000001"><a xlink:title="Unified QR entry point — dispatches to LAPACK or TSQR based on method.">
<polygon fill="#999999" stroke="#666666" points="156.25,-457.88 0,-457.88 0,-427.38 156.25,-427.38 156.25,-457.88"/>
<text xml:space="preserve" text-anchor="start" x="8" y="-444.38" font-family="Helvetica,sans-Serif" font-size="10.00">BigDataStatMeth::RcppQRHdf5</text>
<text xml:space="preserve" text-anchor="middle" x="78.12" y="-433.12" font-family="Helvetica,sans-Serif" font-size="10.00">_dispatch</text>
</a>
</g>
</g>
<!-- Node2 -->
<g id="Node000002" class="node">
<title>Node2</title>
<g id="a_Node000002"><a xlink:href="class_big_data_stat_meth_1_1hdf5_dataset.html#aa743c8c46d7ff3bb2f894145dd07fd8a" target="_top" xlink:title="Get number of columns in internal format.">
<polygon fill="white" stroke="#666666" points="547.5,-533.88 397.25,-533.88 397.25,-503.38 547.5,-503.38 547.5,-533.88"/>
<text xml:space="preserve" text-anchor="start" x="405.25" y="-520.38" font-family="Helvetica,sans-Serif" font-size="10.00">BigDataStatMeth::hdf5Dataset</text>
<text xml:space="preserve" text-anchor="middle" x="472.38" y="-509.12" font-family="Helvetica,sans-Serif" font-size="10.00">::ncols</text>
</a>
</g>
</g>
<!-- Node1&#45;&gt;Node2 -->
<g id="edge1_Node000001_Node000002" class="edge">
<title>Node1&#45;&gt;Node2</title>
<g id="a_edge1_Node000001_Node000002"><a xlink:title=" ">
<path fill="none" stroke="#63b8ff" d="M139.12,-458.33C156.22,-462.58 174.92,-467 192.25,-470.62 256.75,-484.13 330.21,-496.65 385.58,-505.52"/>
<polygon fill="#63b8ff" stroke="#63b8ff" points="384.83,-508.94 395.26,-507.06 385.93,-502.03 384.83,-508.94"/>
</a>
</g>
</g>
<!-- Node3 -->
<g id="Node000003" class="node">
<title>Node3</title>
<g id="a_Node000003"><a xlink:href="class_big_data_stat_meth_1_1hdf5_dataset.html#a6cbce676967d0cc4b50e2cc5282c322b" target="_top" xlink:title="Get number of rows in internal format.">
<polygon fill="white" stroke="#666666" points="547.5,-484.88 397.25,-484.88 397.25,-454.38 547.5,-454.38 547.5,-484.88"/>
<text xml:space="preserve" text-anchor="start" x="405.25" y="-471.38" font-family="Helvetica,sans-Serif" font-size="10.00">BigDataStatMeth::hdf5Dataset</text>
<text xml:space="preserve" text-anchor="middle" x="472.38" y="-460.12" font-family="Helvetica,sans-Serif" font-size="10.00">::nrows</text>
</a>
</g>
</g>
<!-- Node1&#45;&gt;Node3 -->
<g id="edge2_Node000001_Node000003" class="edge">
<title>Node1&#45;&gt;Node3</title>
<g id="a_edge2_Node000001_Node000003"><a xlink:title=" ">
<path fill="none" stroke="#63b8ff" d="M156.62,-447.96C222.71,-452.51 317.6,-459.04 385.88,-463.74"/>
<polygon fill="#63b8ff" stroke="#63b8ff" points="385.31,-467.21 395.52,-464.4 385.79,-460.23 385.31,-467.21"/>
</a>
</g>
</g>
<!-- Node4 -->
<g id="Node000004" class="node">
<title>Node4</title>
<g id="a_Node000004"><a xlink:href="namespace_big_data_stat_meth.html#a7ffbdabd392fc681aeeefb8276a72fa7" target="_top" xlink:title="QR decomposition for HDF5 matrices (Householder / LAPACK backend)">
<polygon fill="white" stroke="#666666" points="354.88,-433.25 198.62,-433.25 198.62,-414 354.88,-414 354.88,-433.25"/>
<text xml:space="preserve" text-anchor="middle" x="276.75" y="-419.75" font-family="Helvetica,sans-Serif" font-size="10.00">BigDataStatMeth::RcppQRHdf5</text>
</a>
</g>
</g>
<!-- Node1&#45;&gt;Node4 -->
<g id="edge3_Node000001_Node000004" class="edge">
<title>Node1&#45;&gt;Node4</title>
<g id="a_edge3_Node000001_Node000004"><a xlink:title=" ">
<path fill="none" stroke="#63b8ff" d="M156.55,-435.14C166.55,-434.18 176.84,-433.18 187,-432.2"/>
<polygon fill="#63b8ff" stroke="#63b8ff" points="187.27,-435.69 196.88,-431.25 186.59,-428.72 187.27,-435.69"/>
</a>
</g>
</g>
<!-- Node19 -->
<g id="Node000019" class="node">
<title>Node19</title>
<g id="a_Node000019"><a xlink:href="namespace_big_data_stat_meth.html#a9782a58cbfdaeb0648cd0f4aafbb648c" target="_top" xlink:title="TSQR (Tall&#45;Skinny QR) decomposition for HDF5 matrices.">
<polygon fill="white" stroke="#666666" points="361.25,-381.25 192.25,-381.25 192.25,-362 361.25,-362 361.25,-381.25"/>
<text xml:space="preserve" text-anchor="middle" x="276.75" y="-367.75" font-family="Helvetica,sans-Serif" font-size="10.00">BigDataStatMeth::RcppTSQRHdf5</text>
</a>
</g>
</g>
<!-- Node1&#45;&gt;Node19 -->
<g id="edge23_Node000001_Node000019" class="edge">
<title>Node1&#45;&gt;Node19</title>
<g id="a_edge23_Node000001_Node000019"><a xlink:title=" ">
<path fill="none" stroke="#63b8ff" d="M122.28,-427.04C156.6,-414.65 204.2,-397.46 237.25,-385.53"/>
<polygon fill="#63b8ff" stroke="#63b8ff" points="238.22,-388.9 246.44,-382.21 235.84,-382.31 238.22,-388.9"/>
</a>
</g>
</g>
<!-- Node4&#45;&gt;Node2 -->
<g id="edge18_Node000004_Node000002" class="edge">
<title>Node4&#45;&gt;Node2</title>
<g id="a_edge18_Node000004_Node000002"><a xlink:title=" ">
<path fill="none" stroke="#63b8ff" d="M292.68,-433.72C314.79,-448.36 357.87,-475.68 397.25,-493.62 401.24,-495.44 405.4,-497.2 409.62,-498.88"/>
<polygon fill="#63b8ff" stroke="#63b8ff" points="408.19,-502.08 418.79,-502.36 410.68,-495.54 408.19,-502.08"/>
</a>
</g>
</g>
<!-- Node4&#45;&gt;Node3 -->
<g id="edge19_Node000004_Node000003" class="edge">
<title>Node4&#45;&gt;Node3</title>
<g id="a_edge19_Node000004_Node000003"><a xlink:title=" ">
<path fill="none" stroke="#63b8ff" d="M320.24,-433.72C341.96,-438.88 369.08,-445.32 394.32,-451.32"/>
<polygon fill="#63b8ff" stroke="#63b8ff" points="393.37,-454.69 403.91,-453.6 394.99,-447.88 393.37,-454.69"/>
</a>
</g>
</g>
<!-- Node5 -->
<g id="Node000005" class="node">
<title>Node5</title>
<g id="a_Node000005"><a xlink:href="class_big_data_stat_meth_1_1hdf5_dataset.html#a374a6cadcadfc23c1f5df858d31e20df" target="_top" xlink:title="Create a new dataset with optional compression.">
<polygon fill="white" stroke="#666666" points="547.5,-251.88 397.25,-251.88 397.25,-221.38 547.5,-221.38 547.5,-251.88"/>
<text xml:space="preserve" text-anchor="start" x="405.25" y="-238.38" font-family="Helvetica,sans-Serif" font-size="10.00">BigDataStatMeth::hdf5Dataset</text>
<text xml:space="preserve" text-anchor="middle" x="472.38" y="-227.12" font-family="Helvetica,sans-Serif" font-size="10.00">::createDataset</text>
</a>
</g>
</g>
<!-- Node4&#45;&gt;Node5 -->
<g id="edge4_Node000004_Node000005" class="edge">
<title>Node4&#45;&gt;Node5</title>
<g id="a_edge4_Node000004_Node000005"><a xlink:title=" ">
<path fill="none" stroke="#63b8ff" d="M322.02,-413.64C336,-408.67 350.58,-401.33 361.25,-390.62 392.25,-359.52 371.61,-334.27 397.25,-298.62 408.26,-283.32 423.89,-269.5 437.96,-258.82"/>
<polygon fill="#63b8ff" stroke="#63b8ff" points="439.69,-261.89 445.69,-253.16 435.56,-256.24 439.69,-261.89"/>
</a>
</g>
</g>
<!-- Node13 -->
<g id="Node000013" class="node">
<title>Node13</title>
<g id="a_Node000013"><a xlink:href="class_big_data_stat_meth_1_1hdf5_dataset.html#acf9843abcb57a0090f1635cc69d95300" target="_top" xlink:title="Write data to the dataset.">
<polygon fill="white" stroke="#666666" points="733.75,-398.88 583.5,-398.88 583.5,-368.38 733.75,-368.38 733.75,-398.88"/>
<text xml:space="preserve" text-anchor="start" x="591.5" y="-385.38" font-family="Helvetica,sans-Serif" font-size="10.00">BigDataStatMeth::hdf5Dataset</text>
<text xml:space="preserve" text-anchor="middle" x="658.62" y="-374.12" font-family="Helvetica,sans-Serif" font-size="10.00">::writeDataset</text>
</a>
</g>
</g>
<!-- Node4&#45;&gt;Node13 -->
<g id="edge22_Node000004_Node000013" class="edge">
<title>Node4&#45;&gt;Node13</title>
<g id="a_edge22_Node000004_Node000013"><a xlink:title=" ">
<path fill="none" stroke="#63b8ff" d="M283.71,-433.54C298.94,-457.8 342.04,-519.83 397.25,-542.62 458.97,-568.12 488.35,-573.61 547.5,-542.62 601.14,-514.53 633.86,-447.11 648.51,-409.72"/>
<polygon fill="#63b8ff" stroke="#63b8ff" points="651.71,-411.16 651.95,-400.57 645.15,-408.7 651.71,-411.16"/>
</a>
</g>
</g>
<!-- Node16 -->
<g id="Node000016" class="node">
<title>Node16</title>
<g id="a_Node000016"><a xlink:href="class_big_data_stat_meth_1_1hdf5_dataset.html#af3ab7117b94164ab629673cacd896dd9" target="_top" xlink:title="Get the current compression level for this dataset instance.">
<polygon fill="white" stroke="#666666" points="547.5,-337.88 397.25,-337.88 397.25,-307.38 547.5,-307.38 547.5,-337.88"/>
<text xml:space="preserve" text-anchor="start" x="405.25" y="-324.38" font-family="Helvetica,sans-Serif" font-size="10.00">BigDataStatMeth::hdf5Dataset</text>
<text xml:space="preserve" text-anchor="middle" x="472.38" y="-313.12" font-family="Helvetica,sans-Serif" font-size="10.00">::getCompressionLevel</text>
</a>
</g>
</g>
<!-- Node4&#45;&gt;Node16 -->
<g id="edge16_Node000004_Node000016" class="edge">
<title>Node4&#45;&gt;Node16</title>
<g id="a_edge16_Node000004_Node000016"><a xlink:title=" ">
<path fill="none" stroke="#63b8ff" d="M314.26,-413.6C329.66,-408.3 347.22,-400.75 361.25,-390.62 381.46,-376.04 376.67,-361.69 397.25,-347.62 399.47,-346.11 401.8,-344.67 404.19,-343.32"/>
<polygon fill="#63b8ff" stroke="#63b8ff" points="405.65,-346.5 413.01,-338.88 402.51,-340.25 405.65,-346.5"/>
</a>
</g>
</g>
<!-- Node17 -->
<g id="Node000017" class="node">
<title>Node17</title>
<g id="a_Node000017"><a xlink:href="class_big_data_stat_meth_1_1hdf5_dataset.html#a8cce59e2884ad1ee3b67f281566780af" target="_top" xlink:title="Inherit the compression level from an input dataset if not already set.">
<polygon fill="white" stroke="#666666" points="547.5,-435.88 397.25,-435.88 397.25,-405.38 547.5,-405.38 547.5,-435.88"/>
<text xml:space="preserve" text-anchor="start" x="405.25" y="-422.38" font-family="Helvetica,sans-Serif" font-size="10.00">BigDataStatMeth::hdf5Dataset</text>
<text xml:space="preserve" text-anchor="middle" x="472.38" y="-411.12" font-family="Helvetica,sans-Serif" font-size="10.00">::inheritCompressionLevel</text>
</a>
</g>
</g>
<!-- Node4&#45;&gt;Node17 -->
<g id="edge17_Node000004_Node000017" class="edge">
<title>Node4&#45;&gt;Node17</title>
<g id="a_edge17_Node000004_Node000017"><a xlink:title=" ">
<path fill="none" stroke="#63b8ff" d="M355.11,-422.43C365.14,-422.27 375.45,-422.11 385.6,-421.95"/>
<polygon fill="#63b8ff" stroke="#63b8ff" points="385.51,-425.46 395.46,-421.8 385.41,-418.46 385.51,-425.46"/>
</a>
</g>
</g>
<!-- Node18 -->
<g id="Node000018" class="node">
<title>Node18</title>
<g id="a_Node000018"><a xlink:href="class_big_data_stat_meth_1_1hdf5_dataset.html#a23bea87165b8ef6b944709c5b2cbd0cf" target="_top" xlink:title=" ">
<polygon fill="white" stroke="#666666" points="547.5,-386.88 397.25,-386.88 397.25,-356.38 547.5,-356.38 547.5,-386.88"/>
<text xml:space="preserve" text-anchor="start" x="405.25" y="-373.38" font-family="Helvetica,sans-Serif" font-size="10.00">BigDataStatMeth::hdf5Dataset</text>
<text xml:space="preserve" text-anchor="middle" x="472.38" y="-362.12" font-family="Helvetica,sans-Serif" font-size="10.00">::readDatasetBlock</text>
</a>
</g>
</g>
<!-- Node4&#45;&gt;Node18 -->
<g id="edge20_Node000004_Node000018" class="edge">
<title>Node4&#45;&gt;Node18</title>
<g id="a_edge20_Node000004_Node000018"><a xlink:title=" ">
<path fill="none" stroke="#63b8ff" d="M315.08,-413.6C339.64,-407 372.53,-398.17 401.8,-390.31"/>
<polygon fill="#63b8ff" stroke="#63b8ff" points="402.61,-393.72 411.36,-387.74 400.79,-386.96 402.61,-393.72"/>
</a>
</g>
</g>
<!-- Node6 -->
<g id="Node000006" class="node">
<title>Node6</title>
<g id="a_Node000006"><a xlink:href="class_big_data_stat_meth_1_1hdf5_dataset.html#ac7a7f23b7e22c9b56ca6ad86592f2d52" target="_top" xlink:title="Add an attribute to the dataset.">
<polygon fill="white" stroke="#666666" points="733.75,-251.88 583.5,-251.88 583.5,-221.38 733.75,-221.38 733.75,-251.88"/>
<text xml:space="preserve" text-anchor="start" x="591.5" y="-238.38" font-family="Helvetica,sans-Serif" font-size="10.00">BigDataStatMeth::hdf5Dataset</text>
<text xml:space="preserve" text-anchor="middle" x="658.62" y="-227.12" font-family="Helvetica,sans-Serif" font-size="10.00">::addAttribute</text>
</a>
</g>
</g>
<!-- Node5&#45;&gt;Node6 -->
<g id="edge5_Node000005_Node000006" class="edge">
<title>Node5&#45;&gt;Node6</title>
<g id="a_edge5_Node000005_Node000006"><a xlink:title=" ">
<path fill="none" stroke="#63b8ff" d="M547.79,-236.62C555.73,-236.62 563.85,-236.62 571.91,-236.62"/>
<polygon fill="#63b8ff" stroke="#63b8ff" points="571.72,-240.13 581.72,-236.63 571.72,-233.13 571.72,-240.13"/>
</a>
</g>
</g>
<!-- Node7 -->
<g id="Node000007" class="node">
<title>Node7</title>
<g id="a_Node000007"><a xlink:href="class_big_data_stat_meth_1_1hdf5_file.html#abfb73b5f1eb25ee00489485c8dc56a2a" target="_top" xlink:title="Close file and cleanup resources.">
<polygon fill="white" stroke="#666666" points="724.38,-202.88 592.88,-202.88 592.88,-172.38 724.38,-172.38 724.38,-202.88"/>
<text xml:space="preserve" text-anchor="start" x="600.88" y="-189.38" font-family="Helvetica,sans-Serif" font-size="10.00">BigDataStatMeth::hdf5File</text>
<text xml:space="preserve" text-anchor="middle" x="658.62" y="-178.12" font-family="Helvetica,sans-Serif" font-size="10.00">::close_file</text>
</a>
</g>
</g>
<!-- Node5&#45;&gt;Node7 -->
<g id="edge6_Node000005_Node000007" class="edge">
<title>Node5&#45;&gt;Node7</title>
<g id="a_edge6_Node000005_Node000007"><a xlink:title=" ">
<path fill="none" stroke="#63b8ff" d="M532.43,-220.92C549.95,-216.26 569.31,-211.11 587.47,-206.28"/>
<polygon fill="#63b8ff" stroke="#63b8ff" points="588.36,-209.67 597.12,-203.72 586.56,-202.9 588.36,-209.67"/>
</a>
</g>
</g>
<!-- Node8 -->
<g id="Node000008" class="node">
<title>Node8</title>
<g id="a_Node000008"><a xlink:href="class_big_data_stat_meth_1_1hdf5_group.html#a27cef4d33e46c72bfd792aa49fa621a3" target="_top" xlink:title="Create multiple nested groups.">
<polygon fill="white" stroke="#666666" points="729.62,-104.88 587.62,-104.88 587.62,-74.38 729.62,-74.38 729.62,-104.88"/>
<text xml:space="preserve" text-anchor="start" x="595.62" y="-91.38" font-family="Helvetica,sans-Serif" font-size="10.00">BigDataStatMeth::hdf5Group</text>
<text xml:space="preserve" text-anchor="middle" x="658.62" y="-80.12" font-family="Helvetica,sans-Serif" font-size="10.00">::create_HDF5_groups</text>
</a>
</g>
</g>
<!-- Node5&#45;&gt;Node8 -->
<g id="edge7_Node000005_Node000008" class="edge">
<title>Node5&#45;&gt;Node8</title>
<g id="a_edge7_Node000005_Node000008"><a xlink:title=" ">
<path fill="none" stroke="#63b8ff" d="M483.34,-221.2C500.69,-195.51 538.89,-143.91 583.5,-114.62 585.88,-113.06 588.38,-111.58 590.94,-110.19"/>
<polygon fill="#63b8ff" stroke="#63b8ff" points="592.31,-113.42 599.77,-105.9 589.25,-107.12 592.31,-113.42"/>
</a>
</g>
</g>
<!-- Node10 -->
<g id="Node000010" class="node">
<title>Node10</title>
<g id="a_Node000010"><a xlink:href="namespace_big_data_stat_meth.html#a89d901ab4b5e01771f4e3fc7dc84e50e" target="_top" xlink:title="Checks if an HDF5 element (group or dataset) exists.">
<polygon fill="white" stroke="#666666" points="720.25,-349.88 597,-349.88 597,-319.38 720.25,-319.38 720.25,-349.88"/>
<text xml:space="preserve" text-anchor="start" x="605" y="-336.38" font-family="Helvetica,sans-Serif" font-size="10.00">BigDataStatMeth::exists</text>
<text xml:space="preserve" text-anchor="middle" x="658.62" y="-325.12" font-family="Helvetica,sans-Serif" font-size="10.00">_HDF5_element</text>
</a>
</g>
</g>
<!-- Node5&#45;&gt;Node10 -->
<g id="edge9_Node000005_Node000010" class="edge">
<title>Node5&#45;&gt;Node10</title>
<g id="a_edge9_Node000005_Node000010"><a xlink:title=" ">
<path fill="none" stroke="#63b8ff" d="M523.85,-252.31C532.14,-256.01 540.35,-260.42 547.5,-265.62 567.93,-280.49 562.72,-295.25 583.5,-309.62 585.59,-311.07 587.76,-312.44 590.01,-313.73"/>
<polygon fill="#63b8ff" stroke="#63b8ff" points="588.35,-316.81 598.84,-318.24 591.53,-310.58 588.35,-316.81"/>
</a>
</g>
</g>
<!-- Node11 -->
<g id="Node000011" class="node">
<title>Node11</title>
<g id="a_Node000011"><a xlink:href="class_big_data_stat_meth_1_1hdf5_group.html#a59995412538627e6c80f64b552c286f5" target="_top" xlink:title=" ">
<polygon fill="white" stroke="#666666" points="729.62,-153.88 587.62,-153.88 587.62,-123.38 729.62,-123.38 729.62,-153.88"/>
<text xml:space="preserve" text-anchor="start" x="595.62" y="-140.38" font-family="Helvetica,sans-Serif" font-size="10.00">BigDataStatMeth::hdf5Group</text>
<text xml:space="preserve" text-anchor="middle" x="658.62" y="-129.12" font-family="Helvetica,sans-Serif" font-size="10.00">::getGroupName</text>
</a>
</g>
</g>
<!-- Node5&#45;&gt;Node11 -->
<g id="edge11_Node000005_Node000011" class="edge">
<title>Node5&#45;&gt;Node11</title>
<g id="a_edge11_Node000005_Node000011"><a xlink:title=" ">
<path fill="none" stroke="#63b8ff" d="M493.52,-220.94C514.89,-204.86 550.13,-179.97 583.5,-163.62 587.19,-161.82 591.05,-160.09 594.98,-158.44"/>
<polygon fill="#63b8ff" stroke="#63b8ff" points="596.07,-161.77 604.08,-154.84 593.5,-155.26 596.07,-161.77"/>
</a>
</g>
</g>
<!-- Node12 -->
<g id="Node000012" class="node">
<title>Node12</title>
<g id="a_Node000012"><a xlink:href="namespace_big_data_stat_meth.html#a3d06783149029f1df2853c472d401380" target="_top" xlink:title="Removes multiple elements from an HDF5 file.">
<polygon fill="white" stroke="#666666" points="723.25,-300.88 594,-300.88 594,-270.38 723.25,-270.38 723.25,-300.88"/>
<text xml:space="preserve" text-anchor="start" x="602" y="-287.38" font-family="Helvetica,sans-Serif" font-size="10.00">BigDataStatMeth::remove</text>
<text xml:space="preserve" text-anchor="middle" x="658.62" y="-276.12" font-family="Helvetica,sans-Serif" font-size="10.00">_elements</text>
</a>
</g>
</g>
<!-- Node5&#45;&gt;Node12 -->
<g id="edge12_Node000005_Node000012" class="edge">
<title>Node5&#45;&gt;Node12</title>
<g id="a_edge12_Node000005_Node000012"><a xlink:title=" ">
<path fill="none" stroke="#63b8ff" d="M532.43,-252.33C549.95,-256.99 569.31,-262.14 587.47,-266.97"/>
<polygon fill="#63b8ff" stroke="#63b8ff" points="586.56,-270.35 597.12,-269.53 588.36,-263.58 586.56,-270.35"/>
</a>
</g>
</g>
<!-- Node5&#45;&gt;Node13 -->
<g id="edge13_Node000005_Node000013" class="edge">
<title>Node5&#45;&gt;Node13</title>
<g id="a_edge13_Node000005_Node000013"><a xlink:title=" ">
<path fill="none" stroke="#63b8ff" d="M528.78,-252.23C535.65,-255.83 542.14,-260.24 547.5,-265.62 578.78,-297.02 551.48,-327.98 583.5,-358.62 584.55,-359.63 585.64,-360.59 586.77,-361.52"/>
<polygon fill="#63b8ff" stroke="#63b8ff" points="584.55,-364.24 594.78,-367.02 588.52,-358.47 584.55,-364.24"/>
</a>
</g>
</g>
<!-- Node9 -->
<g id="Node000009" class="node">
<title>Node9</title>
<g id="a_Node000009"><a xlink:href="namespace_big_data_stat_meth.html#abcaa4216cd52f03ebac42e4855ef846b" target="_top" xlink:title="Checks if a path exists in an HDF5 file.">
<polygon fill="white" stroke="#666666" points="927.12,-221.25 783.62,-221.25 783.62,-202 927.12,-202 927.12,-221.25"/>
<text xml:space="preserve" text-anchor="middle" x="855.38" y="-207.75" font-family="Helvetica,sans-Serif" font-size="10.00">BigDataStatMeth::pathExists</text>
</a>
</g>
</g>
<!-- Node8&#45;&gt;Node9 -->
<g id="edge8_Node000008_Node000009" class="edge">
<title>Node8&#45;&gt;Node9</title>
<g id="a_edge8_Node000008_Node000009"><a xlink:title=" ">
<path fill="none" stroke="#63b8ff" d="M713.63,-105.33C720.56,-108.07 727.44,-111.17 733.75,-114.62 773.93,-136.64 814.1,-172.36 836.45,-193.76"/>
<polygon fill="#63b8ff" stroke="#63b8ff" points="833.93,-196.2 843.54,-200.66 838.81,-191.18 833.93,-196.2"/>
</a>
</g>
</g>
<!-- Node10&#45;&gt;Node9 -->
<g id="edge10_Node000010_Node000009" class="edge">
<title>Node10&#45;&gt;Node9</title>
<g id="a_edge10_Node000010_Node000009"><a xlink:title=" ">
<path fill="none" stroke="#63b8ff" d="M713.64,-318.95C720.58,-316.21 727.45,-313.1 733.75,-309.62 774.04,-287.42 814.17,-251.32 836.48,-229.68"/>
<polygon fill="#63b8ff" stroke="#63b8ff" points="838.9,-232.21 843.57,-222.7 833.99,-227.23 838.9,-232.21"/>
</a>
</g>
</g>
<!-- Node14 -->
<g id="Node000014" class="node">
<title>Node14</title>
<g id="a_Node000014"><a xlink:href="class_big_data_stat_meth_1_1hdf5_dataset.html#aba39e56a580d3b1fa7f1619fc72efa3e" target="_top" xlink:title="Close dataset and file.">
<polygon fill="white" stroke="#666666" points="930.5,-441.88 780.25,-441.88 780.25,-411.38 930.5,-411.38 930.5,-441.88"/>
<text xml:space="preserve" text-anchor="start" x="788.25" y="-428.38" font-family="Helvetica,sans-Serif" font-size="10.00">BigDataStatMeth::hdf5Dataset</text>
<text xml:space="preserve" text-anchor="middle" x="855.38" y="-417.12" font-family="Helvetica,sans-Serif" font-size="10.00">::close_dataset_file</text>
</a>
</g>
</g>
<!-- Node13&#45;&gt;Node14 -->
<g id="edge14_Node000013_Node000014" class="edge">
<title>Node13&#45;&gt;Node14</title>
<g id="a_edge14_Node000013_Node000014"><a xlink:title=" ">
<path fill="none" stroke="#63b8ff" d="M730.76,-399.33C744.22,-402.3 758.41,-405.44 772.17,-408.48"/>
<polygon fill="#63b8ff" stroke="#63b8ff" points="771.11,-411.82 781.63,-410.56 772.62,-404.99 771.11,-411.82"/>
</a>
</g>
</g>
<!-- Node15 -->
<g id="Node000015" class="node">
<title>Node15</title>
<g id="a_Node000015"><a xlink:href="class_big_data_stat_meth_1_1hdf5_dataset.html#a94d81b72e92cb0230b4e64f37ea7d2e3" target="_top" xlink:title="Convert DataFrame to range list.">
<polygon fill="white" stroke="#666666" points="941,-392.88 769.75,-392.88 769.75,-362.38 941,-362.38 941,-392.88"/>
<text xml:space="preserve" text-anchor="start" x="777.75" y="-379.38" font-family="Helvetica,sans-Serif" font-size="10.00">BigDataStatMeth::hdf5Dataset</text>
<text xml:space="preserve" text-anchor="middle" x="855.38" y="-368.12" font-family="Helvetica,sans-Serif" font-size="10.00">::convert_DataFrame_to_RangeList</text>
</a>
</g>
</g>
<!-- Node13&#45;&gt;Node15 -->
<g id="edge15_Node000013_Node000015" class="edge">
<title>Node13&#45;&gt;Node15</title>
<g id="a_edge15_Node000013_Node000015"><a xlink:title=" ">
<path fill="none" stroke="#63b8ff" d="M734.09,-381.33C741.97,-381.09 750.06,-380.84 758.15,-380.59"/>
<polygon fill="#63b8ff" stroke="#63b8ff" points="758.15,-384.09 768.03,-380.29 757.93,-377.09 758.15,-384.09"/>
</a>
</g>
</g>
<!-- Node18&#45;&gt;Node14 -->
<g id="edge21_Node000018_Node000014" class="edge">
<title>Node18&#45;&gt;Node14</title>
<g id="a_edge21_Node000018_Node000014"><a xlink:title=" ">
<path fill="none" stroke="#63b8ff" d="M519.46,-387.28C546.58,-396.38 576.84,-406.32 583.5,-407.62 644.73,-419.59 715.04,-424.26 768.68,-425.98"/>
<polygon fill="#63b8ff" stroke="#63b8ff" points="768.25,-429.47 778.35,-426.26 768.46,-422.48 768.25,-429.47"/>
</a>
</g>
</g>
<!-- Node19&#45;&gt;Node2 -->
<g id="edge33_Node000019_Node000002" class="edge">
<title>Node19&#45;&gt;Node2</title>
<g id="a_edge33_Node000019_Node000002"><a xlink:title=" ">
<path fill="none" stroke="#63b8ff" d="M321.95,-381.68C335.93,-386.66 350.52,-393.98 361.25,-404.62 391.54,-434.68 366.2,-464.36 397.25,-493.62 398.45,-494.76 399.71,-495.84 401.02,-496.88"/>
<polygon fill="#63b8ff" stroke="#63b8ff" points="398.68,-499.53 408.94,-502.18 402.57,-493.71 398.68,-499.53"/>
</a>
</g>
</g>
<!-- Node19&#45;&gt;Node3 -->
<g id="edge34_Node000019_Node000003" class="edge">
<title>Node19&#45;&gt;Node3</title>
<g id="a_edge34_Node000019_Node000003"><a xlink:title=" ">
<path fill="none" stroke="#63b8ff" d="M313.68,-381.75C329.14,-387.1 346.91,-394.66 361.25,-404.62 380.89,-418.27 377.27,-431.48 397.25,-444.62 399.63,-446.19 402.12,-447.67 404.69,-449.06"/>
<polygon fill="#63b8ff" stroke="#63b8ff" points="402.99,-452.13 413.52,-453.36 406.06,-445.84 402.99,-452.13"/>
</a>
</g>
</g>
<!-- Node19&#45;&gt;Node5 -->
<g id="edge24_Node000019_Node000005" class="edge">
<title>Node19&#45;&gt;Node5</title>
<g id="a_edge24_Node000019_Node000005"><a xlink:title=" ">
<path fill="none" stroke="#63b8ff" d="M286.73,-361.56C305.47,-341.06 350.89,-294 397.25,-265.62 402.41,-262.47 407.97,-259.54 413.64,-256.86"/>
<polygon fill="#63b8ff" stroke="#63b8ff" points="414.81,-260.18 422.53,-252.92 411.97,-253.78 414.81,-260.18"/>
</a>
</g>
</g>
<!-- Node19&#45;&gt;Node13 -->
<g id="edge36_Node000019_Node000013" class="edge">
<title>Node19&#45;&gt;Node13</title>
<g id="a_edge36_Node000019_Node000013"><a xlink:title=" ">
<path fill="none" stroke="#63b8ff" d="M289.25,-361.53C309.43,-344.57 353.25,-311 397.25,-298.62 461.53,-280.54 489.39,-265.72 547.5,-298.62 574.56,-313.95 559.28,-339.12 583.5,-358.62 585.03,-359.85 586.62,-361.03 588.26,-362.14"/>
<polygon fill="#63b8ff" stroke="#63b8ff" points="586.44,-365.13 596.84,-367.16 589.97,-359.09 586.44,-365.13"/>
</a>
</g>
</g>
<!-- Node19&#45;&gt;Node16 -->
<g id="edge31_Node000019_Node000016" class="edge">
<title>Node19&#45;&gt;Node16</title>
<g id="a_edge31_Node000019_Node000016"><a xlink:title=" ">
<path fill="none" stroke="#63b8ff" d="M317.4,-361.59C340.64,-355.71 370.73,-348.1 398.13,-341.16"/>
<polygon fill="#63b8ff" stroke="#63b8ff" points="398.98,-344.56 407.82,-338.71 397.26,-337.77 398.98,-344.56"/>
</a>
</g>
</g>
<!-- Node19&#45;&gt;Node17 -->
<g id="edge32_Node000019_Node000017" class="edge">
<title>Node19&#45;&gt;Node17</title>
<g id="a_edge32_Node000019_Node000017"><a xlink:title=" ">
<path fill="none" stroke="#63b8ff" d="M317.4,-381.66C340.64,-387.54 370.73,-395.15 398.13,-402.09"/>
<polygon fill="#63b8ff" stroke="#63b8ff" points="397.26,-405.48 407.82,-404.54 398.98,-398.69 397.26,-405.48"/>
</a>
</g>
</g>
<!-- Node19&#45;&gt;Node18 -->
<g id="edge35_Node000019_Node000018" class="edge">
<title>Node19&#45;&gt;Node18</title>
<g id="a_edge35_Node000019_Node000018"><a xlink:title=" ">
<path fill="none" stroke="#63b8ff" d="M361.55,-371.62C369.45,-371.62 377.46,-371.62 385.38,-371.62"/>
<polygon fill="#63b8ff" stroke="#63b8ff" points="385.37,-375.13 395.37,-371.63 385.37,-368.13 385.37,-375.13"/>
</a>
</g>
</g>
<!-- Node20 -->
<g id="Node000020" class="node">
<title>Node20</title>
<g id="a_Node000020"><a xlink:href="openme-utils_8hpp.html#a172daf6d039501f511eff563e5de2ae7" target="_top" xlink:title=" ">
<polygon fill="white" stroke="#666666" points="524.62,-130.25 420.12,-130.25 420.12,-111 524.62,-111 524.62,-130.25"/>
<text xml:space="preserve" text-anchor="middle" x="472.38" y="-116.75" font-family="Helvetica,sans-Serif" font-size="10.00">get_number_threads</text>
</a>
</g>
</g>
<!-- Node19&#45;&gt;Node20 -->
<g id="edge25_Node000019_Node000020" class="edge">
<title>Node19&#45;&gt;Node20</title>
<g id="a_edge25_Node000019_Node000020"><a xlink:title=" ">
<path fill="none" stroke="#63b8ff" d="M284.91,-361.86C303.3,-336.84 353.77,-268.49 397.25,-212.62 417.11,-187.1 440.63,-158.12 455.76,-139.62"/>
<polygon fill="#63b8ff" stroke="#63b8ff" points="458.44,-141.87 462.08,-131.92 453.03,-137.43 458.44,-141.87"/>
</a>
</g>
</g>
<!-- Node21 -->
<g id="Node000021" class="node">
<title>Node21</title>
<g id="a_Node000021"><a xlink:href="openme-utils_8hpp.html#a7d6263da9da6b46b945746e3abdea4ca" target="_top" xlink:title="Determines number of threads for parallel operations.">
<polygon fill="white" stroke="#666666" points="696.25,-56.25 621,-56.25 621,-37 696.25,-37 696.25,-56.25"/>
<text xml:space="preserve" text-anchor="middle" x="658.62" y="-42.75" font-family="Helvetica,sans-Serif" font-size="10.00">getDTthreads</text>
</a>
</g>
</g>
<!-- Node20&#45;&gt;Node21 -->
<g id="edge26_Node000020_Node000021" class="edge">
<title>Node20&#45;&gt;Node21</title>
<g id="a_edge26_Node000020_Node000021"><a xlink:title=" ">
<path fill="none" stroke="#63b8ff" d="M490.41,-110.69C511.63,-98.65 549.26,-78.4 583.5,-65.62 591.81,-62.52 600.84,-59.75 609.63,-57.34"/>
<polygon fill="#63b8ff" stroke="#63b8ff" points="610.32,-60.77 619.11,-54.87 608.55,-54 610.32,-60.77"/>
</a>
</g>
</g>
<!-- Node22 -->
<g id="Node000022" class="node">
<title>Node22</title>
<g id="a_Node000022"><a xlink:href="openme-utils_8hpp.html#a32e65a19d36ceec1952e48362e4153b8" target="_top" xlink:title="Initializes thread configuration based on environment and system state.">
<polygon fill="white" stroke="#666666" points="892.62,-56.25 818.12,-56.25 818.12,-37 892.62,-37 892.62,-56.25"/>
<text xml:space="preserve" text-anchor="middle" x="855.38" y="-42.75" font-family="Helvetica,sans-Serif" font-size="10.00">initDTthreads</text>
</a>
</g>
</g>
<!-- Node21&#45;&gt;Node22 -->
<g id="edge27_Node000021_Node000022" class="edge">
<title>Node21&#45;&gt;Node22</title>
<g id="a_edge27_Node000021_Node000022"><a xlink:title=" ">
<path fill="none" stroke="#63b8ff" d="M696.71,-46.62C727.81,-46.62 772.43,-46.62 806.27,-46.62"/>
<polygon fill="#63b8ff" stroke="#63b8ff" points="806.24,-50.13 816.24,-46.63 806.24,-43.13 806.24,-50.13"/>
</a>
</g>
</g>
<!-- Node23 -->
<g id="Node000023" class="node">
<title>Node23</title>
<g id="a_Node000023"><a xlink:href="openme-utils_8hpp.html#a62643b5f3a2b3d36929fed3c368c2cfc" target="_top" xlink:title="Retrieves integer value from environment variable.">
<polygon fill="white" stroke="#666666" points="1035,-93.25 977,-93.25 977,-74 1035,-74 1035,-93.25"/>
<text xml:space="preserve" text-anchor="middle" x="1006" y="-79.75" font-family="Helvetica,sans-Serif" font-size="10.00">getIntEnv</text>
</a>
</g>
</g>
<!-- Node22&#45;&gt;Node23 -->
<g id="edge28_Node000022_Node000023" class="edge">
<title>Node22&#45;&gt;Node23</title>
<g id="a_edge28_Node000022_Node000023"><a xlink:title=" ">
<path fill="none" stroke="#63b8ff" d="M893.11,-55.77C915.17,-61.26 943.23,-68.25 965.73,-73.85"/>
<polygon fill="#63b8ff" stroke="#63b8ff" points="964.58,-77.17 975.13,-76.19 966.27,-70.38 964.58,-77.17"/>
</a>
</g>
</g>
<!-- Node24 -->
<g id="Node000024" class="node">
<title>Node24</title>
<g id="a_Node000024"><a xlink:href="openme-utils_8hpp.html#afca01a231aef5cdbcbb5c23a7134e9d4" target="_top" xlink:title="Maximum of two integers.">
<polygon fill="white" stroke="#666666" points="1024.5,-56.25 987.5,-56.25 987.5,-37 1024.5,-37 1024.5,-56.25"/>
<text xml:space="preserve" text-anchor="middle" x="1006" y="-42.75" font-family="Helvetica,sans-Serif" font-size="10.00">imax</text>
</a>
</g>
</g>
<!-- Node22&#45;&gt;Node24 -->
<g id="edge29_Node000022_Node000024" class="edge">
<title>Node22&#45;&gt;Node24</title>
<g id="a_edge29_Node000022_Node000024"><a xlink:title=" ">
<path fill="none" stroke="#63b8ff" d="M893.11,-46.62C918.59,-46.62 952.06,-46.62 975.73,-46.62"/>
<polygon fill="#63b8ff" stroke="#63b8ff" points="975.61,-50.13 985.61,-46.63 975.61,-43.13 975.61,-50.13"/>
</a>
</g>
</g>
<!-- Node25 -->
<g id="Node000025" class="node">
<title>Node25</title>
<g id="a_Node000025"><a xlink:href="openme-utils_8hpp.html#aa011f843a2a959cc6f8c226f60e96224" target="_top" xlink:title="Minimum of two integers.">
<polygon fill="white" stroke="#666666" points="1023,-19.25 989,-19.25 989,0 1023,0 1023,-19.25"/>
<text xml:space="preserve" text-anchor="middle" x="1006" y="-5.75" font-family="Helvetica,sans-Serif" font-size="10.00">imin</text>
</a>
</g>
</g>
<!-- Node22&#45;&gt;Node25 -->
<g id="edge30_Node000022_Node000025" class="edge">
<title>Node22&#45;&gt;Node25</title>
<g id="a_edge30_Node000022_Node000025"><a xlink:title=" ">
<path fill="none" stroke="#63b8ff" d="M893.11,-37.48C919.29,-30.96 953.91,-22.34 977.67,-16.43"/>
<polygon fill="#63b8ff" stroke="#63b8ff" points="978.36,-19.86 987.22,-14.05 976.67,-13.07 978.36,-19.86"/>
</a>
</g>
</g>
</g>
</svg>

<g id="navigator" transform="translate(0 0)" fill="#404254">
  <rect fill="#f2f5e9" fill-opacity="0.5" stroke="#606060" stroke-width=".5" x="0" y="0" width="60" height="60"/>
  <use id="zoomplus" xlink:href="#zoomPlus" x="17" y="9" onmousedown="handleZoom(evt,'in')"/>
  <use id="zoomminus" xlink:href="#zoomMin" x="42" y="9" onmousedown="handleZoom(evt,'out')"/>
  <use id="reset" xlink:href="#resetDef" x="30" y="36" onmousedown="handleReset()"/>
   <use id="arrowup" xlink:href="#arrowUp" x="0" y="0" onmousedown="handlePan(0,-1)"/>
  <use id="arrowright" xlink:href="#arrowRight" x="0" y="0" onmousedown="handlePan(1,0)"/>
  <use id="arrowdown" xlink:href="#arrowDown" x="0" y="0" onmousedown="handlePan(0,1)"/>
  <use id="arrowleft" xlink:href="#arrowLeft" x="0" y="0" onmousedown="handlePan(-1,0)"/>
</g>
<svg viewBox="0 0 15 15" width="100%" height="30px" preserveAspectRatio="xMaxYMin meet">
 <g id="arrow_out" transform="scale(0.3 0.3)">
  <a xlink:href="namespace_big_data_stat_meth_aec24433c15a496148a05e79c376bb84a_cgraph_org.svg" target="_base">
   <rect id="button" ry="5" rx="5" y="6" x="6" height="38" width="38"
        fill="#f2f5e9" fill-opacity="0.5" stroke="#606060" stroke-width="1.0"/>
   <path id="arrow"
     d="M 11.500037,31.436501 C 11.940474,20.09759 22.043105,11.32322 32.158766,21.979434 L 37.068811,17.246167 C 37.068811,17.246167 37.088388,32 37.088388,32 L 22.160133,31.978069 C 22.160133,31.978069 26.997745,27.140456 26.997745,27.140456 C 18.528582,18.264221 13.291696,25.230495 11.500037,31.436501 z"
     style="fill:#404040;"/>
  </a>
 </g>
</svg>

<style type='text/css'>
<![CDATA[
[data-mouse-over-selected='false'] { opacity: 0.7; }
[data-mouse-over-selected='true']  { opacity: 1.0; }
]]>
</style>
<script type="application/ecmascript"><![CDATA[
document.addEventListener('DOMContentLoaded', (event) => {
  highlightEdges();
  highlightAdjacentNodes();
});
]]></script>
</svg>
