<?xml version="1.0" encoding="UTF-8" standalone="no"?>
<!DOCTYPE svg PUBLIC "-//W3C//DTD SVG 1.1//EN"
 "http://www.w3.org/Graphics/SVG/1.1/DTD/svg11.dtd">
<!-- Generated by graphviz version 14.0.0 (20250921.2048)
 -->
<!-- Title: BigDataStatMeth::tcrossprod Pages: 1 -->
<!--zoomable 647 -->

<svg id="main" version="1.1" xmlns="http://www.w3.org/2000/svg" xmlns:xlink="http://www.w3.org/1999/xlink" xml:space="preserve" onload="init(evt)">

<style type="text/css"><![CDATA[
.node, .edge {opacity: 0.7;}
.node.selected, .edge.selected {opacity: 1;}
.edge:hover path { stroke: red; }
.edge:hover polygon { stroke: red; fill: red; }
]]></style>

<defs>
  <circle id="rim" cx="0" cy="0" r="7"/>
  <circle id="rim2" cx="0" cy="0" r="3.5"/>
  <g id="zoomPlus">
    <use xlink:href="#rim" fill="#404040"><set attributeName="fill" to="#808080" begin="zoomplus.mouseover" end="zoomplus.mouseout"/></use>
    <path d="M-4,0h8M0,-4v8" fill="none" stroke="white" stroke-width="1.5" pointer-events="none"/>
  </g>
  <g id="zoomMin">
    <use xlink:href="#rim" fill="#404040"><set attributeName="fill" to="#808080" begin="zoomminus.mouseover" end="zoomminus.mouseout"/></use>
    <path d="M-4,0h8" fill="none" stroke="white" stroke-width="1.5" pointer-events="none"/>
  </g>
  <g id="arrowUp" transform="translate(30 24)">
    <use xlink:href="#rim"/>
    <path pointer-events="none" fill="none" stroke="white" stroke-width="1.5" d="M0,-3.0v7 M-2.5,-0.5L0,-3.0L2.5,-0.5"/>
  </g>
  <g id="arrowRight" transform="rotate(90) translate(36 -43)">
    <use xlink:href="#rim"/>
    <path pointer-events="none" fill="none" stroke="white" stroke-width="1.5" d="M0,-3.0v7 M-2.5,-0.5L0,-3.0L2.5,-0.5"/>
  </g>
  <g id="arrowDown" transform="rotate(180) translate(-30 -48)">
    <use xlink:href="#rim"/>
    <path pointer-events="none" fill="none" stroke="white" stroke-width="1.5" d="M0,-3.0v7 M-2.5,-0.5L0,-3.0L2.5,-0.5"/>
  </g>
  <g id="arrowLeft" transform="rotate(270) translate(-36 17)">
    <use xlink:href="#rim"/>
    <path pointer-events="none" fill="none" stroke="white" stroke-width="1.5" d="M0,-3.0v7 M-2.5,-0.5L0,-3.0L2.5,-0.5"/>
  </g>
  <g id="resetDef">
    <use xlink:href="#rim2" fill="#404040"><set attributeName="fill" to="#808080" begin="reset.mouseover" end="reset.mouseout"/></use>
  </g>
</defs>
<script type="application/ecmascript">
var viewWidth = 825;
var viewHeight = 647;
var sectionId = 'dynsection-189';
</script>
<script type="application/ecmascript" xlink:href="../../../../assets/svg.min.js"/>
<svg id="graph" class="graph">
<g id="viewport">
<title>BigDataStatMeth::tcrossprod</title>
<!-- Node1 -->
<g id="Node000001" class="node">
<title>Node1</title>
<g id="a_Node000001"><a xlink:title="Transposed cross&#45;product for HDF5 matrices.">
<polygon fill="#999999" stroke="#666666" points="142.75,-214.88 0,-214.88 0,-195.62 142.75,-195.62 142.75,-214.88"/>
<text xml:space="preserve" text-anchor="middle" x="71.38" y="-201.38" font-family="Helvetica,sans-Serif" font-size="10.00">BigDataStatMeth::tcrossprod</text>
</a>
</g>
</g>
<!-- Node2 -->
<g id="Node000002" class="node">
<title>Node2</title>
<g id="a_Node000002"><a xlink:href="class_big_data_stat_meth_1_1hdf5_dataset.html#ab19bac9a31efe4a733294c1c23ff5ef7" target="_top" xlink:title="Create a new dataset with optional compression.">
<polygon fill="white" stroke="#666666" points="329,-467.5 178.75,-467.5 178.75,-437 329,-437 329,-467.5"/>
<text xml:space="preserve" text-anchor="start" x="186.75" y="-454" font-family="Helvetica,sans-Serif" font-size="10.00">BigDataStatMeth::hdf5Dataset</text>
<text xml:space="preserve" text-anchor="middle" x="253.88" y="-442.75" font-family="Helvetica,sans-Serif" font-size="10.00">::createDataset</text>
</a>
</g>
</g>
<!-- Node1&#45;&gt;Node2 -->
<g id="edge1_Node000001_Node000002" class="edge">
<title>Node1&#45;&gt;Node2</title>
<g id="a_edge1_Node000001_Node000002"><a xlink:title=" ">
<path fill="none" stroke="#63b8ff" d="M78.87,-215.14C95.15,-239.84 139.23,-306.03 178.75,-359.25 196.44,-383.07 217.63,-409.46 232.81,-428.02"/>
<polygon fill="#63b8ff" stroke="#63b8ff" points="229.94,-430.03 238.99,-435.54 235.35,-425.59 229.94,-430.03"/>
</a>
</g>
</g>
<!-- Node13 -->
<g id="Node000013" class="node">
<title>Node13</title>
<g id="a_Node000013"><a xlink:href="openme-utils_8hpp.html#a172daf6d039501f511eff563e5de2ae7" target="_top" xlink:title=" ">
<polygon fill="white" stroke="#666666" points="306.12,-214.88 201.62,-214.88 201.62,-195.62 306.12,-195.62 306.12,-214.88"/>
<text xml:space="preserve" text-anchor="middle" x="253.88" y="-201.38" font-family="Helvetica,sans-Serif" font-size="10.00">get_number_threads</text>
</a>
</g>
</g>
<!-- Node1&#45;&gt;Node13 -->
<g id="edge13_Node000001_Node000013" class="edge">
<title>Node1&#45;&gt;Node13</title>
<g id="a_edge13_Node000001_Node000013"><a xlink:title=" ">
<path fill="none" stroke="#63b8ff" d="M143.2,-205.25C158.62,-205.25 174.84,-205.25 189.94,-205.25"/>
<polygon fill="#63b8ff" stroke="#63b8ff" points="189.72,-208.75 199.72,-205.25 189.72,-201.75 189.72,-208.75"/>
</a>
</g>
</g>
<!-- Node19 -->
<g id="Node000019" class="node">
<title>Node19</title>
<g id="a_Node000019"><a xlink:href="class_big_data_stat_meth_1_1hdf5_dataset.html#ac979eba40078c7c5974b64b2ce6347a3" target="_top" xlink:title="Get dataset name.">
<polygon fill="white" stroke="#666666" points="329,-177.5 178.75,-177.5 178.75,-147 329,-147 329,-177.5"/>
<text xml:space="preserve" text-anchor="start" x="186.75" y="-164" font-family="Helvetica,sans-Serif" font-size="10.00">BigDataStatMeth::hdf5Dataset</text>
<text xml:space="preserve" text-anchor="middle" x="253.88" y="-152.75" font-family="Helvetica,sans-Serif" font-size="10.00">::getDatasetName</text>
</a>
</g>
</g>
<!-- Node1&#45;&gt;Node19 -->
<g id="edge19_Node000001_Node000019" class="edge">
<title>Node1&#45;&gt;Node19</title>
<g id="a_edge19_Node000001_Node000019"><a xlink:title=" ">
<path fill="none" stroke="#63b8ff" d="M114.69,-195.17C132.89,-190.83 154.75,-185.63 175.65,-180.65"/>
<polygon fill="#63b8ff" stroke="#63b8ff" points="176.41,-184.06 185.33,-178.34 174.79,-177.25 176.41,-184.06"/>
</a>
</g>
</g>
<!-- Node20 -->
<g id="Node000020" class="node">
<title>Node20</title>
<g id="a_Node000020"><a xlink:href="class_big_data_stat_meth_1_1hdf5_dataset.html#ae7e94f6d05d1a6cff2d24ec3f1b18fca" target="_top" xlink:title="Get file name.">
<polygon fill="white" stroke="#666666" points="329,-128.5 178.75,-128.5 178.75,-98 329,-98 329,-128.5"/>
<text xml:space="preserve" text-anchor="start" x="186.75" y="-115" font-family="Helvetica,sans-Serif" font-size="10.00">BigDataStatMeth::hdf5Dataset</text>
<text xml:space="preserve" text-anchor="middle" x="253.88" y="-103.75" font-family="Helvetica,sans-Serif" font-size="10.00">::getFileName</text>
</a>
</g>
</g>
<!-- Node1&#45;&gt;Node20 -->
<g id="edge20_Node000001_Node000020" class="edge">
<title>Node1&#45;&gt;Node20</title>
<g id="a_edge20_Node000001_Node000020"><a xlink:title=" ">
<path fill="none" stroke="#63b8ff" d="M85.88,-195.26C105.52,-181.1 143.46,-155.02 178.75,-138.25 182.53,-136.45 186.47,-134.73 190.49,-133.08"/>
<polygon fill="#63b8ff" stroke="#63b8ff" points="191.74,-136.35 199.8,-129.46 189.21,-129.82 191.74,-136.35"/>
</a>
</g>
</g>
<!-- Node22 -->
<g id="Node000022" class="node">
<title>Node22</title>
<g id="a_Node000022"><a xlink:href="class_big_data_stat_meth_1_1hdf5_dataset.html#af4869e54b1d4c01ab4caacf1939e1907" target="_top" xlink:title="Get group name.">
<polygon fill="white" stroke="#666666" points="329,-350.5 178.75,-350.5 178.75,-320 329,-320 329,-350.5"/>
<text xml:space="preserve" text-anchor="start" x="186.75" y="-337" font-family="Helvetica,sans-Serif" font-size="10.00">BigDataStatMeth::hdf5Dataset</text>
<text xml:space="preserve" text-anchor="middle" x="253.88" y="-325.75" font-family="Helvetica,sans-Serif" font-size="10.00">::getGroup</text>
</a>
</g>
</g>
<!-- Node1&#45;&gt;Node22 -->
<g id="edge22_Node000001_Node000022" class="edge">
<title>Node1&#45;&gt;Node22</title>
<g id="a_edge22_Node000001_Node000022"><a xlink:title=" ">
<path fill="none" stroke="#63b8ff" d="M79.79,-215.14C95.69,-235.71 135.22,-283.44 178.75,-310.25 181.37,-311.86 184.11,-313.39 186.92,-314.83"/>
<polygon fill="#63b8ff" stroke="#63b8ff" points="185.44,-318 195.99,-319.02 188.38,-311.64 185.44,-318"/>
</a>
</g>
</g>
<!-- Node23 -->
<g id="Node000023" class="node">
<title>Node23</title>
<g id="a_Node000023"><a xlink:href="class_big_data_stat_meth_1_1hdf5_dataset.html#aa743c8c46d7ff3bb2f894145dd07fd8a" target="_top" xlink:title="Get number of columns in internal format.">
<polygon fill="white" stroke="#666666" points="329,-79.5 178.75,-79.5 178.75,-49 329,-49 329,-79.5"/>
<text xml:space="preserve" text-anchor="start" x="186.75" y="-66" font-family="Helvetica,sans-Serif" font-size="10.00">BigDataStatMeth::hdf5Dataset</text>
<text xml:space="preserve" text-anchor="middle" x="253.88" y="-54.75" font-family="Helvetica,sans-Serif" font-size="10.00">::ncols</text>
</a>
</g>
</g>
<!-- Node1&#45;&gt;Node23 -->
<g id="edge24_Node000001_Node000023" class="edge">
<title>Node1&#45;&gt;Node23</title>
<g id="a_edge24_Node000001_Node000023"><a xlink:title=" ">
<path fill="none" stroke="#63b8ff" d="M78.84,-195.31C93.79,-173.09 132.95,-119.06 178.75,-89.25 181.14,-87.69 183.64,-86.23 186.21,-84.84"/>
<polygon fill="#63b8ff" stroke="#63b8ff" points="187.57,-88.07 195.05,-80.56 184.52,-81.77 187.57,-88.07"/>
</a>
</g>
</g>
<!-- Node24 -->
<g id="Node000024" class="node">
<title>Node24</title>
<g id="a_Node000024"><a xlink:href="class_big_data_stat_meth_1_1hdf5_dataset.html#a6cbce676967d0cc4b50e2cc5282c322b" target="_top" xlink:title="Get number of rows in internal format.">
<polygon fill="white" stroke="#666666" points="329,-30.5 178.75,-30.5 178.75,0 329,0 329,-30.5"/>
<text xml:space="preserve" text-anchor="start" x="186.75" y="-17" font-family="Helvetica,sans-Serif" font-size="10.00">BigDataStatMeth::hdf5Dataset</text>
<text xml:space="preserve" text-anchor="middle" x="253.88" y="-5.75" font-family="Helvetica,sans-Serif" font-size="10.00">::nrows</text>
</a>
</g>
</g>
<!-- Node1&#45;&gt;Node24 -->
<g id="edge25_Node000001_Node000024" class="edge">
<title>Node1&#45;&gt;Node24</title>
<g id="a_edge25_Node000001_Node000024"><a xlink:title=" ">
<path fill="none" stroke="#63b8ff" d="M75.97,-195.44C86.88,-167.09 122.28,-84.23 178.75,-40.25 180.48,-38.9 182.28,-37.63 184.15,-36.42"/>
<polygon fill="#63b8ff" stroke="#63b8ff" points="185.59,-39.63 192.57,-31.66 182.14,-33.53 185.59,-39.63"/>
</a>
</g>
</g>
<!-- Node25 -->
<g id="Node000025" class="node">
<title>Node25</title>
<g id="a_Node000025"><a xlink:href="class_big_data_stat_meth_1_1hdf5_dataset.html#a23bea87165b8ef6b944709c5b2cbd0cf" target="_top" xlink:title=" ">
<polygon fill="white" stroke="#666666" points="329,-301.5 178.75,-301.5 178.75,-271 329,-271 329,-301.5"/>
<text xml:space="preserve" text-anchor="start" x="186.75" y="-288" font-family="Helvetica,sans-Serif" font-size="10.00">BigDataStatMeth::hdf5Dataset</text>
<text xml:space="preserve" text-anchor="middle" x="253.88" y="-276.75" font-family="Helvetica,sans-Serif" font-size="10.00">::readDatasetBlock</text>
</a>
</g>
</g>
<!-- Node1&#45;&gt;Node25 -->
<g id="edge26_Node000001_Node000025" class="edge">
<title>Node1&#45;&gt;Node25</title>
<g id="a_edge26_Node000001_Node000025"><a xlink:title=" ">
<path fill="none" stroke="#63b8ff" d="M91.76,-215.32C112.91,-226.17 147.88,-243.69 178.75,-257.25 185.72,-260.31 193.12,-263.4 200.45,-266.36"/>
<polygon fill="#63b8ff" stroke="#63b8ff" points="199.08,-269.58 209.67,-270.03 201.67,-263.08 199.08,-269.58"/>
</a>
</g>
</g>
<!-- Node26 -->
<g id="Node000026" class="node">
<title>Node26</title>
<g id="a_Node000026"><a xlink:href="class_big_data_stat_meth_1_1hdf5_dataset.html#af606176d84a63561b65702b6fde3a583" target="_top" xlink:title="Write block of data with optional transposition.">
<polygon fill="white" stroke="#666666" points="515.25,-258.5 365,-258.5 365,-228 515.25,-228 515.25,-258.5"/>
<text xml:space="preserve" text-anchor="start" x="373" y="-245" font-family="Helvetica,sans-Serif" font-size="10.00">BigDataStatMeth::hdf5Dataset</text>
<text xml:space="preserve" text-anchor="middle" x="440.12" y="-233.75" font-family="Helvetica,sans-Serif" font-size="10.00">::writeDatasetBlock</text>
</a>
</g>
</g>
<!-- Node1&#45;&gt;Node26 -->
<g id="edge28_Node000001_Node000026" class="edge">
<title>Node1&#45;&gt;Node26</title>
<g id="a_edge28_Node000001_Node000026"><a xlink:title=" ">
<path fill="none" stroke="#63b8ff" d="M122.8,-215.36C140.44,-218.61 160.41,-221.95 178.75,-224.25 236.76,-231.53 302.42,-236.29 353.29,-239.23"/>
<polygon fill="#63b8ff" stroke="#63b8ff" points="352.88,-242.72 363.06,-239.78 353.27,-235.73 352.88,-242.72"/>
</a>
</g>
</g>
<!-- Node3 -->
<g id="Node000003" class="node">
<title>Node3</title>
<g id="a_Node000003"><a xlink:href="class_big_data_stat_meth_1_1hdf5_dataset.html#ac7a7f23b7e22c9b56ca6ad86592f2d52" target="_top" xlink:title="Add an attribute to the dataset.">
<polygon fill="white" stroke="#666666" points="515.25,-491.5 365,-491.5 365,-461 515.25,-461 515.25,-491.5"/>
<text xml:space="preserve" text-anchor="start" x="373" y="-478" font-family="Helvetica,sans-Serif" font-size="10.00">BigDataStatMeth::hdf5Dataset</text>
<text xml:space="preserve" text-anchor="middle" x="440.12" y="-466.75" font-family="Helvetica,sans-Serif" font-size="10.00">::addAttribute</text>
</a>
</g>
</g>
<!-- Node2&#45;&gt;Node3 -->
<g id="edge2_Node000002_Node000003" class="edge">
<title>Node2&#45;&gt;Node3</title>
<g id="a_edge2_Node000002_Node000003"><a xlink:title=" ">
<path fill="none" stroke="#63b8ff" d="M329.29,-461.94C337.23,-462.98 345.35,-464.04 353.41,-465.09"/>
<polygon fill="#63b8ff" stroke="#63b8ff" points="352.87,-468.54 363.24,-466.36 353.77,-461.6 352.87,-468.54"/>
</a>
</g>
</g>
<!-- Node4 -->
<g id="Node000004" class="node">
<title>Node4</title>
<g id="a_Node000004"><a xlink:href="class_big_data_stat_meth_1_1hdf5_file.html#abfb73b5f1eb25ee00489485c8dc56a2a" target="_top" xlink:title="Close file and cleanup resources.">
<polygon fill="white" stroke="#666666" points="505.88,-442.5 374.38,-442.5 374.38,-412 505.88,-412 505.88,-442.5"/>
<text xml:space="preserve" text-anchor="start" x="382.38" y="-429" font-family="Helvetica,sans-Serif" font-size="10.00">BigDataStatMeth::hdf5File</text>
<text xml:space="preserve" text-anchor="middle" x="440.12" y="-417.75" font-family="Helvetica,sans-Serif" font-size="10.00">::close_file</text>
</a>
</g>
</g>
<!-- Node2&#45;&gt;Node4 -->
<g id="edge3_Node000002_Node000004" class="edge">
<title>Node2&#45;&gt;Node4</title>
<g id="a_edge3_Node000002_Node000004"><a xlink:title=" ">
<path fill="none" stroke="#63b8ff" d="M329.29,-442.15C340.26,-440.67 351.58,-439.13 362.59,-437.63"/>
<polygon fill="#63b8ff" stroke="#63b8ff" points="362.99,-441.11 372.43,-436.3 362.05,-434.18 362.99,-441.11"/>
</a>
</g>
</g>
<!-- Node5 -->
<g id="Node000005" class="node">
<title>Node5</title>
<g id="a_Node000005"><a xlink:href="class_big_data_stat_meth_1_1hdf5_group.html#a27cef4d33e46c72bfd792aa49fa621a3" target="_top" xlink:title="Create multiple nested groups.">
<polygon fill="white" stroke="#666666" points="511.12,-638.5 369.12,-638.5 369.12,-608 511.12,-608 511.12,-638.5"/>
<text xml:space="preserve" text-anchor="start" x="377.12" y="-625" font-family="Helvetica,sans-Serif" font-size="10.00">BigDataStatMeth::hdf5Group</text>
<text xml:space="preserve" text-anchor="middle" x="440.12" y="-613.75" font-family="Helvetica,sans-Serif" font-size="10.00">::create_HDF5_groups</text>
</a>
</g>
</g>
<!-- Node2&#45;&gt;Node5 -->
<g id="edge4_Node000002_Node000005" class="edge">
<title>Node2&#45;&gt;Node5</title>
<g id="a_edge4_Node000002_Node000005"><a xlink:title=" ">
<path fill="none" stroke="#63b8ff" d="M262.57,-467.91C277.95,-497.62 315.3,-562.4 365,-598.25 366.94,-599.65 368.96,-600.97 371.04,-602.22"/>
<polygon fill="#63b8ff" stroke="#63b8ff" points="369.35,-605.29 379.83,-606.87 372.63,-599.1 369.35,-605.29"/>
</a>
</g>
</g>
<!-- Node7 -->
<g id="Node000007" class="node">
<title>Node7</title>
<g id="a_Node000007"><a xlink:href="namespace_big_data_stat_meth.html#a89d901ab4b5e01771f4e3fc7dc84e50e" target="_top" xlink:title="Checks if an HDF5 element (group or dataset) exists.">
<polygon fill="white" stroke="#666666" points="501.75,-589.5 378.5,-589.5 378.5,-559 501.75,-559 501.75,-589.5"/>
<text xml:space="preserve" text-anchor="start" x="386.5" y="-576" font-family="Helvetica,sans-Serif" font-size="10.00">BigDataStatMeth::exists</text>
<text xml:space="preserve" text-anchor="middle" x="440.12" y="-564.75" font-family="Helvetica,sans-Serif" font-size="10.00">_HDF5_element</text>
</a>
</g>
</g>
<!-- Node2&#45;&gt;Node7 -->
<g id="edge6_Node000002_Node000007" class="edge">
<title>Node2&#45;&gt;Node7</title>
<g id="a_edge6_Node000002_Node000007"><a xlink:title=" ">
<path fill="none" stroke="#63b8ff" d="M268.71,-467.82C288.25,-488.96 325.95,-526.7 365,-549.25 367.96,-550.96 371.06,-552.58 374.24,-554.1"/>
<polygon fill="#63b8ff" stroke="#63b8ff" points="372.64,-557.22 383.2,-558.04 375.45,-550.81 372.64,-557.22"/>
</a>
</g>
</g>
<!-- Node8 -->
<g id="Node000008" class="node">
<title>Node8</title>
<g id="a_Node000008"><a xlink:href="class_big_data_stat_meth_1_1hdf5_group.html#a59995412538627e6c80f64b552c286f5" target="_top" xlink:title=" ">
<polygon fill="white" stroke="#666666" points="511.12,-344.5 369.12,-344.5 369.12,-314 511.12,-314 511.12,-344.5"/>
<text xml:space="preserve" text-anchor="start" x="377.12" y="-331" font-family="Helvetica,sans-Serif" font-size="10.00">BigDataStatMeth::hdf5Group</text>
<text xml:space="preserve" text-anchor="middle" x="440.12" y="-319.75" font-family="Helvetica,sans-Serif" font-size="10.00">::getGroupName</text>
</a>
</g>
</g>
<!-- Node2&#45;&gt;Node8 -->
<g id="edge8_Node000002_Node000008" class="edge">
<title>Node2&#45;&gt;Node8</title>
<g id="a_edge8_Node000002_Node000008"><a xlink:title=" ">
<path fill="none" stroke="#63b8ff" d="M268.67,-436.51C288.18,-415.14 325.83,-377 365,-354.25 367.81,-352.62 370.74,-351.07 373.74,-349.62"/>
<polygon fill="#63b8ff" stroke="#63b8ff" points="375.08,-352.85 382.79,-345.59 372.23,-346.46 375.08,-352.85"/>
</a>
</g>
</g>
<!-- Node9 -->
<g id="Node000009" class="node">
<title>Node9</title>
<g id="a_Node000009"><a xlink:href="namespace_big_data_stat_meth.html#a3d06783149029f1df2853c472d401380" target="_top" xlink:title="Removes multiple elements from an HDF5 file.">
<polygon fill="white" stroke="#666666" points="504.75,-540.5 375.5,-540.5 375.5,-510 504.75,-510 504.75,-540.5"/>
<text xml:space="preserve" text-anchor="start" x="383.5" y="-527" font-family="Helvetica,sans-Serif" font-size="10.00">BigDataStatMeth::remove</text>
<text xml:space="preserve" text-anchor="middle" x="440.12" y="-515.75" font-family="Helvetica,sans-Serif" font-size="10.00">_elements</text>
</a>
</g>
</g>
<!-- Node2&#45;&gt;Node9 -->
<g id="edge9_Node000002_Node000009" class="edge">
<title>Node2&#45;&gt;Node9</title>
<g id="a_edge9_Node000002_Node000009"><a xlink:title=" ">
<path fill="none" stroke="#63b8ff" d="M288.79,-467.93C310.41,-477.7 339.12,-490.27 365,-500.25 369.89,-502.14 374.99,-504.02 380.13,-505.86"/>
<polygon fill="#63b8ff" stroke="#63b8ff" points="378.64,-509.05 389.24,-509.07 380.96,-502.45 378.64,-509.05"/>
</a>
</g>
</g>
<!-- Node10 -->
<g id="Node000010" class="node">
<title>Node10</title>
<g id="a_Node000010"><a xlink:href="class_big_data_stat_meth_1_1hdf5_dataset.html#acf9843abcb57a0090f1635cc69d95300" target="_top" xlink:title="Write data to the dataset.">
<polygon fill="white" stroke="#666666" points="515.25,-393.5 365,-393.5 365,-363 515.25,-363 515.25,-393.5"/>
<text xml:space="preserve" text-anchor="start" x="373" y="-380" font-family="Helvetica,sans-Serif" font-size="10.00">BigDataStatMeth::hdf5Dataset</text>
<text xml:space="preserve" text-anchor="middle" x="440.12" y="-368.75" font-family="Helvetica,sans-Serif" font-size="10.00">::writeDataset</text>
</a>
</g>
</g>
<!-- Node2&#45;&gt;Node10 -->
<g id="edge10_Node000002_Node000010" class="edge">
<title>Node2&#45;&gt;Node10</title>
<g id="a_edge10_Node000002_Node000010"><a xlink:title=" ">
<path fill="none" stroke="#63b8ff" d="M287.79,-436.64C309.5,-426.58 338.68,-413.52 365,-403.25 369.88,-401.34 374.98,-399.45 380.11,-397.6"/>
<polygon fill="#63b8ff" stroke="#63b8ff" points="380.95,-401.01 389.22,-394.38 378.62,-394.41 380.95,-401.01"/>
</a>
</g>
</g>
<!-- Node6 -->
<g id="Node000006" class="node">
<title>Node6</title>
<g id="a_Node000006"><a xlink:href="namespace_big_data_stat_meth.html#abcaa4216cd52f03ebac42e4855ef846b" target="_top" xlink:title="Checks if a path exists in an HDF5 file.">
<polygon fill="white" stroke="#666666" points="708.62,-607.88 565.12,-607.88 565.12,-588.62 708.62,-588.62 708.62,-607.88"/>
<text xml:space="preserve" text-anchor="middle" x="636.88" y="-594.38" font-family="Helvetica,sans-Serif" font-size="10.00">BigDataStatMeth::pathExists</text>
</a>
</g>
</g>
<!-- Node5&#45;&gt;Node6 -->
<g id="edge5_Node000005_Node000006" class="edge">
<title>Node5&#45;&gt;Node6</title>
<g id="a_edge5_Node000005_Node000006"><a xlink:title=" ">
<path fill="none" stroke="#63b8ff" d="M511.43,-614.22C525.1,-612.47 539.55,-610.62 553.56,-608.82"/>
<polygon fill="#63b8ff" stroke="#63b8ff" points="553.71,-612.33 563.19,-607.58 552.82,-605.38 553.71,-612.33"/>
</a>
</g>
</g>
<!-- Node7&#45;&gt;Node6 -->
<g id="edge7_Node000007_Node000006" class="edge">
<title>Node7&#45;&gt;Node6</title>
<g id="a_edge7_Node000007_Node000006"><a xlink:title=" ">
<path fill="none" stroke="#63b8ff" d="M502.21,-581.78C518.5,-583.79 536.37,-585.99 553.59,-588.11"/>
<polygon fill="#63b8ff" stroke="#63b8ff" points="552.94,-591.56 563.29,-589.31 553.79,-584.61 552.94,-591.56"/>
</a>
</g>
</g>
<!-- Node11 -->
<g id="Node000011" class="node">
<title>Node11</title>
<g id="a_Node000011"><a xlink:href="class_big_data_stat_meth_1_1hdf5_dataset.html#aba39e56a580d3b1fa7f1619fc72efa3e" target="_top" xlink:title="Close dataset and file.">
<polygon fill="white" stroke="#666666" points="712,-365.5 561.75,-365.5 561.75,-335 712,-335 712,-365.5"/>
<text xml:space="preserve" text-anchor="start" x="569.75" y="-352" font-family="Helvetica,sans-Serif" font-size="10.00">BigDataStatMeth::hdf5Dataset</text>
<text xml:space="preserve" text-anchor="middle" x="636.88" y="-340.75" font-family="Helvetica,sans-Serif" font-size="10.00">::close_dataset_file</text>
</a>
</g>
</g>
<!-- Node10&#45;&gt;Node11 -->
<g id="edge11_Node000010_Node000011" class="edge">
<title>Node10&#45;&gt;Node11</title>
<g id="a_edge11_Node000010_Node000011"><a xlink:title=" ">
<path fill="none" stroke="#63b8ff" d="M515.59,-367.54C526.86,-365.92 538.57,-364.24 550.06,-362.59"/>
<polygon fill="#63b8ff" stroke="#63b8ff" points="550.56,-366.05 559.96,-361.16 549.56,-359.12 550.56,-366.05"/>
</a>
</g>
</g>
<!-- Node12 -->
<g id="Node000012" class="node">
<title>Node12</title>
<g id="a_Node000012"><a xlink:href="class_big_data_stat_meth_1_1hdf5_dataset.html#a94d81b72e92cb0230b4e64f37ea7d2e3" target="_top" xlink:title="Convert DataFrame to range list.">
<polygon fill="white" stroke="#666666" points="722.5,-316.5 551.25,-316.5 551.25,-286 722.5,-286 722.5,-316.5"/>
<text xml:space="preserve" text-anchor="start" x="559.25" y="-303" font-family="Helvetica,sans-Serif" font-size="10.00">BigDataStatMeth::hdf5Dataset</text>
<text xml:space="preserve" text-anchor="middle" x="636.88" y="-291.75" font-family="Helvetica,sans-Serif" font-size="10.00">::convert_DataFrame_to_RangeList</text>
</a>
</g>
</g>
<!-- Node10&#45;&gt;Node12 -->
<g id="edge12_Node000010_Node000012" class="edge">
<title>Node10&#45;&gt;Node12</title>
<g id="a_edge12_Node000010_Node000012"><a xlink:title=" ">
<path fill="none" stroke="#63b8ff" d="M494.23,-362.65C501.45,-359.87 508.64,-356.73 515.25,-353.25 532.95,-343.94 533.38,-335.23 551.25,-326.25 554.96,-324.39 558.83,-322.64 562.79,-321"/>
<polygon fill="#63b8ff" stroke="#63b8ff" points="563.92,-324.32 572.01,-317.47 561.42,-317.78 563.92,-324.32"/>
</a>
</g>
</g>
<!-- Node14 -->
<g id="Node000014" class="node">
<title>Node14</title>
<g id="a_Node000014"><a xlink:href="openme-utils_8hpp.html#a7d6263da9da6b46b945746e3abdea4ca" target="_top" xlink:title="Determines number of threads for parallel operations.">
<polygon fill="white" stroke="#666666" points="477.75,-191.88 402.5,-191.88 402.5,-172.62 477.75,-172.62 477.75,-191.88"/>
<text xml:space="preserve" text-anchor="middle" x="440.12" y="-178.38" font-family="Helvetica,sans-Serif" font-size="10.00">getDTthreads</text>
</a>
</g>
</g>
<!-- Node13&#45;&gt;Node14 -->
<g id="edge14_Node000013_Node000014" class="edge">
<title>Node13&#45;&gt;Node14</title>
<g id="a_edge14_Node000013_Node000014"><a xlink:title=" ">
<path fill="none" stroke="#63b8ff" d="M306.2,-198.84C332.73,-195.53 364.91,-191.51 390.97,-188.26"/>
<polygon fill="#63b8ff" stroke="#63b8ff" points="391.1,-191.77 400.59,-187.06 390.23,-184.83 391.1,-191.77"/>
</a>
</g>
</g>
<!-- Node15 -->
<g id="Node000015" class="node">
<title>Node15</title>
<g id="a_Node000015"><a xlink:href="openme-utils_8hpp.html#a32e65a19d36ceec1952e48362e4153b8" target="_top" xlink:title="Initializes thread configuration based on environment and system state.">
<polygon fill="white" stroke="#666666" points="674.12,-181.88 599.62,-181.88 599.62,-162.62 674.12,-162.62 674.12,-181.88"/>
<text xml:space="preserve" text-anchor="middle" x="636.88" y="-168.38" font-family="Helvetica,sans-Serif" font-size="10.00">initDTthreads</text>
</a>
</g>
</g>
<!-- Node14&#45;&gt;Node15 -->
<g id="edge15_Node000014_Node000015" class="edge">
<title>Node14&#45;&gt;Node15</title>
<g id="a_edge15_Node000014_Node000015"><a xlink:title=" ">
<path fill="none" stroke="#63b8ff" d="M478.21,-180.35C509.31,-178.75 553.93,-176.46 587.77,-174.72"/>
<polygon fill="#63b8ff" stroke="#63b8ff" points="587.93,-178.22 597.74,-174.21 587.58,-171.23 587.93,-178.22"/>
</a>
</g>
</g>
<!-- Node16 -->
<g id="Node000016" class="node">
<title>Node16</title>
<g id="a_Node000016"><a xlink:href="openme-utils_8hpp.html#a62643b5f3a2b3d36929fed3c368c2cfc" target="_top" xlink:title="Retrieves integer value from environment variable.">
<polygon fill="white" stroke="#666666" points="816.5,-218.88 758.5,-218.88 758.5,-199.62 816.5,-199.62 816.5,-218.88"/>
<text xml:space="preserve" text-anchor="middle" x="787.5" y="-205.38" font-family="Helvetica,sans-Serif" font-size="10.00">getIntEnv</text>
</a>
</g>
</g>
<!-- Node15&#45;&gt;Node16 -->
<g id="edge16_Node000015_Node000016" class="edge">
<title>Node15&#45;&gt;Node16</title>
<g id="a_edge16_Node000015_Node000016"><a xlink:title=" ">
<path fill="none" stroke="#63b8ff" d="M674.26,-179.33C689.26,-182.42 706.78,-186.25 722.5,-190.25 730.61,-192.31 739.23,-194.72 747.44,-197.12"/>
<polygon fill="#63b8ff" stroke="#63b8ff" points="746.24,-200.42 756.83,-199.92 748.24,-193.71 746.24,-200.42"/>
</a>
</g>
</g>
<!-- Node17 -->
<g id="Node000017" class="node">
<title>Node17</title>
<g id="a_Node000017"><a xlink:href="openme-utils_8hpp.html#afca01a231aef5cdbcbb5c23a7134e9d4" target="_top" xlink:title="Maximum of two integers.">
<polygon fill="white" stroke="#666666" points="806,-181.88 769,-181.88 769,-162.62 806,-162.62 806,-181.88"/>
<text xml:space="preserve" text-anchor="middle" x="787.5" y="-168.38" font-family="Helvetica,sans-Serif" font-size="10.00">imax</text>
</a>
</g>
</g>
<!-- Node15&#45;&gt;Node17 -->
<g id="edge17_Node000015_Node000017" class="edge">
<title>Node15&#45;&gt;Node17</title>
<g id="a_edge17_Node000015_Node000017"><a xlink:title=" ">
<path fill="none" stroke="#63b8ff" d="M674.61,-172.25C700.09,-172.25 733.56,-172.25 757.23,-172.25"/>
<polygon fill="#63b8ff" stroke="#63b8ff" points="757.11,-175.75 767.11,-172.25 757.11,-168.75 757.11,-175.75"/>
</a>
</g>
</g>
<!-- Node18 -->
<g id="Node000018" class="node">
<title>Node18</title>
<g id="a_Node000018"><a xlink:href="openme-utils_8hpp.html#aa011f843a2a959cc6f8c226f60e96224" target="_top" xlink:title="Minimum of two integers.">
<polygon fill="white" stroke="#666666" points="804.5,-144.88 770.5,-144.88 770.5,-125.62 804.5,-125.62 804.5,-144.88"/>
<text xml:space="preserve" text-anchor="middle" x="787.5" y="-131.38" font-family="Helvetica,sans-Serif" font-size="10.00">imin</text>
</a>
</g>
</g>
<!-- Node15&#45;&gt;Node18 -->
<g id="edge18_Node000015_Node000018" class="edge">
<title>Node15&#45;&gt;Node18</title>
<g id="a_edge18_Node000015_Node000018"><a xlink:title=" ">
<path fill="none" stroke="#63b8ff" d="M674.61,-163.1C700.79,-156.59 735.41,-147.97 759.17,-142.05"/>
<polygon fill="#63b8ff" stroke="#63b8ff" points="759.86,-145.49 768.72,-139.68 758.17,-138.7 759.86,-145.49"/>
</a>
</g>
</g>
<!-- Node21 -->
<g id="Node000021" class="node">
<title>Node21</title>
<g id="a_Node000021"><a xlink:href="class_big_data_stat_meth_1_1hdf5_file.html#abb50d96e6674ac770e4f27f650ad34cb" target="_top" xlink:title="Get filename.">
<polygon fill="white" stroke="#666666" points="505.88,-128.5 374.38,-128.5 374.38,-98 505.88,-98 505.88,-128.5"/>
<text xml:space="preserve" text-anchor="start" x="382.38" y="-115" font-family="Helvetica,sans-Serif" font-size="10.00">BigDataStatMeth::hdf5File</text>
<text xml:space="preserve" text-anchor="middle" x="440.12" y="-103.75" font-family="Helvetica,sans-Serif" font-size="10.00">::getFilename</text>
</a>
</g>
</g>
<!-- Node20&#45;&gt;Node21 -->
<g id="edge21_Node000020_Node000021" class="edge">
<title>Node20&#45;&gt;Node21</title>
<g id="a_edge21_Node000020_Node000021"><a xlink:title=" ">
<path fill="none" stroke="#63b8ff" d="M329.29,-113.25C340.26,-113.25 351.58,-113.25 362.59,-113.25"/>
<polygon fill="#63b8ff" stroke="#63b8ff" points="362.41,-116.75 372.41,-113.25 362.41,-109.75 362.41,-116.75"/>
</a>
</g>
</g>
<!-- Node22&#45;&gt;Node8 -->
<g id="edge23_Node000022_Node000008" class="edge">
<title>Node22&#45;&gt;Node8</title>
<g id="a_edge23_Node000022_Node000008"><a xlink:title=" ">
<path fill="none" stroke="#63b8ff" d="M329.29,-332.83C338.59,-332.52 348.14,-332.21 357.54,-331.91"/>
<polygon fill="#63b8ff" stroke="#63b8ff" points="357.52,-335.41 367.4,-331.59 357.29,-328.41 357.52,-335.41"/>
</a>
</g>
</g>
<!-- Node25&#45;&gt;Node11 -->
<g id="edge27_Node000025_Node000011" class="edge">
<title>Node25&#45;&gt;Node11</title>
<g id="a_edge27_Node000025_Node000011"><a xlink:title=" ">
<path fill="none" stroke="#63b8ff" d="M329.35,-283.24C382.27,-283.13 454.45,-287.11 515.25,-305.25 532.79,-310.48 534.37,-318.17 551.25,-325.25 555.91,-327.2 560.76,-329.07 565.7,-330.83"/>
<polygon fill="#63b8ff" stroke="#63b8ff" points="564.54,-334.14 575.13,-334.05 566.8,-327.51 564.54,-334.14"/>
</a>
</g>
</g>
<!-- Node26&#45;&gt;Node11 -->
<g id="edge30_Node000026_Node000011" class="edge">
<title>Node26&#45;&gt;Node11</title>
<g id="a_edge30_Node000026_Node000011"><a xlink:title=" ">
<path fill="none" stroke="#63b8ff" d="M493.16,-258.94C501,-262.59 508.66,-266.99 515.25,-272.25 537.51,-290.01 528.25,-308.46 551.25,-325.25 553.18,-326.66 555.2,-327.99 557.27,-329.25"/>
<polygon fill="#63b8ff" stroke="#63b8ff" points="555.56,-332.31 566.03,-333.9 558.84,-326.12 555.56,-332.31"/>
</a>
</g>
</g>
<!-- Node26&#45;&gt;Node12 -->
<g id="edge31_Node000026_Node000012" class="edge">
<title>Node26&#45;&gt;Node12</title>
<g id="a_edge31_Node000026_Node000012"><a xlink:title=" ">
<path fill="none" stroke="#63b8ff" d="M493.49,-258.99C511.76,-264.47 532.41,-270.64 551.25,-276.25 557.9,-278.23 564.84,-280.29 571.77,-282.34"/>
<polygon fill="#63b8ff" stroke="#63b8ff" points="570.56,-285.63 581.15,-285.12 572.55,-278.92 570.56,-285.63"/>
</a>
</g>
</g>
<!-- Node27 -->
<g id="Node000027" class="node">
<title>Node27</title>
<g id="a_Node000027"><a xlink:href="class_big_data_stat_meth_1_1hdf5_dataset.html#a64177ae924792ea9e557febaa95ed400" target="_top" xlink:title="Close the dataset.">
<polygon fill="white" stroke="#666666" points="712,-267.5 561.75,-267.5 561.75,-237 712,-237 712,-267.5"/>
<text xml:space="preserve" text-anchor="start" x="569.75" y="-254" font-family="Helvetica,sans-Serif" font-size="10.00">BigDataStatMeth::hdf5Dataset</text>
<text xml:space="preserve" text-anchor="middle" x="636.88" y="-242.75" font-family="Helvetica,sans-Serif" font-size="10.00">::close_dataset</text>
</a>
</g>
</g>
<!-- Node26&#45;&gt;Node27 -->
<g id="edge29_Node000026_Node000027" class="edge">
<title>Node26&#45;&gt;Node27</title>
<g id="a_edge29_Node000026_Node000027"><a xlink:title=" ">
<path fill="none" stroke="#63b8ff" d="M515.59,-246.69C526.86,-247.21 538.57,-247.75 550.06,-248.28"/>
<polygon fill="#63b8ff" stroke="#63b8ff" points="549.79,-251.78 559.94,-248.74 550.12,-244.78 549.79,-251.78"/>
</a>
</g>
</g>
<!-- Node28 -->
<g id="Node000028" class="node">
<title>Node28</title>
<g id="a_Node000028"><a xlink:href="namespace_big_data_stat_meth.html#a2692707b3ea4aaafa09d07afaf632437" target="_top" xlink:title="Transposes a 2D matrix.">
<polygon fill="white" stroke="#666666" points="706.75,-218.88 567,-218.88 567,-199.62 706.75,-199.62 706.75,-218.88"/>
<text xml:space="preserve" text-anchor="middle" x="636.88" y="-205.38" font-family="Helvetica,sans-Serif" font-size="10.00">BigDataStatMeth::transpose</text>
</a>
</g>
</g>
<!-- Node26&#45;&gt;Node28 -->
<g id="edge32_Node000026_Node000028" class="edge">
<title>Node26&#45;&gt;Node28</title>
<g id="a_edge32_Node000026_Node000028"><a xlink:title=" ">
<path fill="none" stroke="#63b8ff" d="M515.59,-230.25C532.42,-227.31 550.23,-224.2 566.84,-221.3"/>
<polygon fill="#63b8ff" stroke="#63b8ff" points="567.37,-224.76 576.62,-219.59 566.17,-217.87 567.37,-224.76"/>
</a>
</g>
</g>
</g>
</svg>

<g id="navigator" transform="translate(0 0)" fill="#404254">
  <rect fill="#f2f5e9" fill-opacity="0.5" stroke="#606060" stroke-width=".5" x="0" y="0" width="60" height="60"/>
  <use id="zoomplus" xlink:href="#zoomPlus" x="17" y="9" onmousedown="handleZoom(evt,'in')"/>
  <use id="zoomminus" xlink:href="#zoomMin" x="42" y="9" onmousedown="handleZoom(evt,'out')"/>
  <use id="reset" xlink:href="#resetDef" x="30" y="36" onmousedown="handleReset()"/>
   <use id="arrowup" xlink:href="#arrowUp" x="0" y="0" onmousedown="handlePan(0,-1)"/>
  <use id="arrowright" xlink:href="#arrowRight" x="0" y="0" onmousedown="handlePan(1,0)"/>
  <use id="arrowdown" xlink:href="#arrowDown" x="0" y="0" onmousedown="handlePan(0,1)"/>
  <use id="arrowleft" xlink:href="#arrowLeft" x="0" y="0" onmousedown="handlePan(-1,0)"/>
</g>
<svg viewBox="0 0 15 15" width="100%" height="30px" preserveAspectRatio="xMaxYMin meet">
 <g id="arrow_out" transform="scale(0.3 0.3)">
  <a xlink:href="namespace_big_data_stat_meth_ac2e6dd65c09c7af829c6e4732ac18781_cgraph_org.svg" target="_base">
   <rect id="button" ry="5" rx="5" y="6" x="6" height="38" width="38"
        fill="#f2f5e9" fill-opacity="0.5" stroke="#606060" stroke-width="1.0"/>
   <path id="arrow"
     d="M 11.500037,31.436501 C 11.940474,20.09759 22.043105,11.32322 32.158766,21.979434 L 37.068811,17.246167 C 37.068811,17.246167 37.088388,32 37.088388,32 L 22.160133,31.978069 C 22.160133,31.978069 26.997745,27.140456 26.997745,27.140456 C 18.528582,18.264221 13.291696,25.230495 11.500037,31.436501 z"
     style="fill:#404040;"/>
  </a>
 </g>
</svg>

<style type='text/css'>
<![CDATA[
[data-mouse-over-selected='false'] { opacity: 0.7; }
[data-mouse-over-selected='true']  { opacity: 1.0; }
]]>
</style>
<script type="application/ecmascript"><![CDATA[
document.addEventListener('DOMContentLoaded', (event) => {
  highlightEdges();
  highlightAdjacentNodes();
});
]]></script>
</svg>
