<?xml version="1.0" encoding="UTF-8" standalone="no"?>
<!DOCTYPE svg PUBLIC "-//W3C//DTD SVG 1.1//EN"
 "http://www.w3.org/Graphics/SVG/1.1/DTD/svg11.dtd">
<!-- Generated by graphviz version 14.0.0 (20250921.2048)
 -->
<!-- Title: BigDataStatMeth::RcppNormalizeRowwise Pages: 1 -->
<!--zoomable 294 -->

<svg id="main" version="1.1" xmlns="http://www.w3.org/2000/svg" xmlns:xlink="http://www.w3.org/1999/xlink" xml:space="preserve" onload="init(evt)">

<style type="text/css"><![CDATA[
.node, .edge {opacity: 0.7;}
.node.selected, .edge.selected {opacity: 1;}
.edge:hover path { stroke: red; }
.edge:hover polygon { stroke: red; fill: red; }
]]></style>

<defs>
  <circle id="rim" cx="0" cy="0" r="7"/>
  <circle id="rim2" cx="0" cy="0" r="3.5"/>
  <g id="zoomPlus">
    <use xlink:href="#rim" fill="#404040"><set attributeName="fill" to="#808080" begin="zoomplus.mouseover" end="zoomplus.mouseout"/></use>
    <path d="M-4,0h8M0,-4v8" fill="none" stroke="white" stroke-width="1.5" pointer-events="none"/>
  </g>
  <g id="zoomMin">
    <use xlink:href="#rim" fill="#404040"><set attributeName="fill" to="#808080" begin="zoomminus.mouseover" end="zoomminus.mouseout"/></use>
    <path d="M-4,0h8" fill="none" stroke="white" stroke-width="1.5" pointer-events="none"/>
  </g>
  <g id="arrowUp" transform="translate(30 24)">
    <use xlink:href="#rim"/>
    <path pointer-events="none" fill="none" stroke="white" stroke-width="1.5" d="M0,-3.0v7 M-2.5,-0.5L0,-3.0L2.5,-0.5"/>
  </g>
  <g id="arrowRight" transform="rotate(90) translate(36 -43)">
    <use xlink:href="#rim"/>
    <path pointer-events="none" fill="none" stroke="white" stroke-width="1.5" d="M0,-3.0v7 M-2.5,-0.5L0,-3.0L2.5,-0.5"/>
  </g>
  <g id="arrowDown" transform="rotate(180) translate(-30 -48)">
    <use xlink:href="#rim"/>
    <path pointer-events="none" fill="none" stroke="white" stroke-width="1.5" d="M0,-3.0v7 M-2.5,-0.5L0,-3.0L2.5,-0.5"/>
  </g>
  <g id="arrowLeft" transform="rotate(270) translate(-36 17)">
    <use xlink:href="#rim"/>
    <path pointer-events="none" fill="none" stroke="white" stroke-width="1.5" d="M0,-3.0v7 M-2.5,-0.5L0,-3.0L2.5,-0.5"/>
  </g>
  <g id="resetDef">
    <use xlink:href="#rim2" fill="#404040"><set attributeName="fill" to="#808080" begin="reset.mouseover" end="reset.mouseout"/></use>
  </g>
</defs>
<script type="application/ecmascript">
var viewWidth = 1433;
var viewHeight = 294;
var sectionId = 'dynsection-187';
</script>
<script type="application/ecmascript" xlink:href="../../../../assets/svg.min.js"/>
<svg id="graph" class="graph">
<g id="viewport">
<title>BigDataStatMeth::RcppNormalizeRowwise</title>
<!-- Node1 -->
<g id="Node000001" class="node">
<title>Node1</title>
<g id="a_Node000001"><a xlink:title=" ">
<polygon fill="#999999" stroke="#666666" points="1425.25,-214.88 1260.75,-214.88 1260.75,-184.38 1425.25,-184.38 1425.25,-214.88"/>
<text xml:space="preserve" text-anchor="start" x="1268.75" y="-201.38" font-family="Helvetica,sans-Serif" font-size="10.00">BigDataStatMeth::RcppNormalize</text>
<text xml:space="preserve" text-anchor="middle" x="1343" y="-190.12" font-family="Helvetica,sans-Serif" font-size="10.00">Rowwise</text>
</a>
</g>
</g>
<!-- Node2 -->
<g id="Node000002" class="node">
<title>Node2</title>
<g id="a_Node000002"><a xlink:href="namespace_big_data_stat_meth.html#a04d836f0bf408e66c56001bbbaa5bb41" target="_top" xlink:title="Calculate PCA individuals statistics.">
<polygon fill="white" stroke="#666666" points="354.12,-283.88 218.12,-283.88 218.12,-253.38 354.12,-253.38 354.12,-283.88"/>
<text xml:space="preserve" text-anchor="start" x="226.12" y="-270.38" font-family="Helvetica,sans-Serif" font-size="10.00">BigDataStatMeth::RcppGet</text>
<text xml:space="preserve" text-anchor="middle" x="286.12" y="-259.12" font-family="Helvetica,sans-Serif" font-size="10.00">PCAIndividualsHdf5</text>
</a>
</g>
</g>
<!-- Node1&#45;&gt;Node2 -->
<g id="edge1_Node000001_Node000002" class="edge">
<title>Node1&#45;&gt;Node2</title>
<g id="a_edge1_Node000001_Node000002"><a xlink:title=" ">
<path fill="none" stroke="#63b8ff" d="M1285.43,-218.76C1205.34,-244.1 1053.87,-285.62 921.25,-285.62 0,-84.62 0,-84.62 715,-285.62 587.5,-285.62 438.8,-278 354.53,-272.96"/>
<polygon fill="#63b8ff" stroke="#63b8ff" points="1286.34,-222.14 1294.8,-215.76 1284.21,-215.48 1286.34,-222.14"/>
</a>
</g>
</g>
<!-- Node4 -->
<g id="Node000004" class="node">
<title>Node4</title>
<g id="a_Node000004"><a xlink:href="namespace_big_data_stat_meth.html#a1cd3f5cf856a0d1bff9e1cf956f368fd" target="_top" xlink:title="Template function for normalizing data with pre&#45;computed statistics.">
<polygon fill="white" stroke="#666666" points="1224.75,-152.25 1034,-152.25 1034,-133 1224.75,-133 1224.75,-152.25"/>
<text xml:space="preserve" text-anchor="middle" x="1129.38" y="-138.75" font-family="Helvetica,sans-Serif" font-size="10.00">BigDataStatMeth::RcppNormalize_Data</text>
</a>
</g>
</g>
<!-- Node1&#45;&gt;Node4 -->
<g id="edge3_Node000001_Node000004" class="edge">
<title>Node1&#45;&gt;Node4</title>
<g id="a_edge3_Node000001_Node000004"><a xlink:title=" ">
<path fill="none" stroke="#63b8ff" d="M1272.53,-180.91C1237.69,-171.53 1196.86,-160.53 1167.92,-152.74"/>
<polygon fill="#63b8ff" stroke="#63b8ff" points="1271.58,-184.28 1282.15,-183.5 1273.41,-177.52 1271.58,-184.28"/>
</a>
</g>
</g>
<!-- Node3 -->
<g id="Node000003" class="node">
<title>Node3</title>
<g id="a_Node000003"><a xlink:href="namespace_big_data_stat_meth.html#ad6b05b5b52e05bd7801b03ba6008980d" target="_top" xlink:title="Perform Principal Component Analysis.">
<polygon fill="white" stroke="#666666" points="162.25,-240.25 0,-240.25 0,-221 162.25,-221 162.25,-240.25"/>
<text xml:space="preserve" text-anchor="middle" x="81.12" y="-226.75" font-family="Helvetica,sans-Serif" font-size="10.00">BigDataStatMeth::RcppPCAHdf5</text>
</a>
</g>
</g>
<!-- Node2&#45;&gt;Node3 -->
<g id="edge2_Node000002_Node000003" class="edge">
<title>Node2&#45;&gt;Node3</title>
<g id="a_edge2_Node000002_Node000003"><a xlink:title=" ">
<path fill="none" stroke="#63b8ff" d="M206.75,-253.95C183.14,-249.53 157.76,-244.78 136.11,-240.73"/>
<polygon fill="#63b8ff" stroke="#63b8ff" points="205.85,-257.35 216.32,-255.75 207.14,-250.47 205.85,-257.35"/>
</a>
</g>
</g>
<!-- Node5 -->
<g id="Node000005" class="node">
<title>Node5</title>
<g id="a_Node000005"><a xlink:href="namespace_big_data_stat_meth.html#a8230fb3b686276464c16ed444be03d22" target="_top" xlink:title=" ">
<polygon fill="white" stroke="#666666" points="806.5,-94.88 625.5,-94.88 625.5,-64.38 806.5,-64.38 806.5,-94.88"/>
<text xml:space="preserve" text-anchor="start" x="633.5" y="-81.38" font-family="Helvetica,sans-Serif" font-size="10.00">BigDataStatMeth::First</text>
<text xml:space="preserve" text-anchor="middle" x="716" y="-70.12" font-family="Helvetica,sans-Serif" font-size="10.00">_level_SvdBlock_decomposition_hdf5</text>
</a>
</g>
</g>
<!-- Node4&#45;&gt;Node5 -->
<g id="edge4_Node000004_Node000005" class="edge">
<title>Node4&#45;&gt;Node5</title>
<g id="a_edge4_Node000004_Node000005"><a xlink:title=" ">
<path fill="none" stroke="#63b8ff" d="M1051,-130.78C981.57,-120.14 879.68,-104.54 806.71,-93.36"/>
<polygon fill="#63b8ff" stroke="#63b8ff" points="1050.37,-134.22 1060.78,-132.27 1051.43,-127.3 1050.37,-134.22"/>
</a>
</g>
</g>
<!-- Node8 -->
<g id="Node000008" class="node">
<title>Node8</title>
<g id="a_Node000008"><a xlink:href="namespace_big_data_stat_meth.html#af27025105c7f4730a8233cf325613694" target="_top" xlink:title="Block&#45;wise eigendecomposition for large HDF5 matrices using Spectra.">
<polygon fill="white" stroke="#666666" points="793.75,-45.88 638.25,-45.88 638.25,-15.37 793.75,-15.37 793.75,-45.88"/>
<text xml:space="preserve" text-anchor="start" x="646.25" y="-32.38" font-family="Helvetica,sans-Serif" font-size="10.00">BigDataStatMeth::RcppbdEigen</text>
<text xml:space="preserve" text-anchor="middle" x="716" y="-21.12" font-family="Helvetica,sans-Serif" font-size="10.00">_hdf5_Block</text>
</a>
</g>
</g>
<!-- Node4&#45;&gt;Node8 -->
<g id="edge8_Node000004_Node000008" class="edge">
<title>Node4&#45;&gt;Node8</title>
<g id="a_edge8_Node000004_Node000008"><a xlink:title=" ">
<path fill="none" stroke="#63b8ff" d="M1092.72,-128.47C1066.72,-118.48 1030.51,-105.21 998,-95.62 929.8,-75.52 850.8,-57.72 793.97,-45.85"/>
<polygon fill="#63b8ff" stroke="#63b8ff" points="1091.19,-131.64 1101.78,-131.99 1093.72,-125.11 1091.19,-131.64"/>
</a>
</g>
</g>
<!-- Node10 -->
<g id="Node000010" class="node">
<title>Node10</title>
<g id="a_Node000010"><a xlink:href="namespace_big_data_stat_meth.html#a050dd22b3a20be0b77d4b72fd278a214" target="_top" xlink:title="Eigenvalue decomposition using Spectra (partial, k &lt; n)">
<polygon fill="white" stroke="#666666" points="998,-45.88 842.5,-45.88 842.5,-15.37 998,-15.37 998,-45.88"/>
<text xml:space="preserve" text-anchor="start" x="850.5" y="-32.38" font-family="Helvetica,sans-Serif" font-size="10.00">BigDataStatMeth::RcppbdEigen</text>
<text xml:space="preserve" text-anchor="middle" x="920.25" y="-21.12" font-family="Helvetica,sans-Serif" font-size="10.00">_spectra</text>
</a>
</g>
</g>
<!-- Node4&#45;&gt;Node10 -->
<g id="edge10_Node000004_Node000010" class="edge">
<title>Node4&#45;&gt;Node10</title>
<g id="a_edge10_Node000004_Node000010"><a xlink:title=" ">
<path fill="none" stroke="#63b8ff" d="M1104.67,-126.53C1079.02,-109.48 1036.62,-82.37 998,-62.62 986.56,-56.78 973.8,-51.13 962.02,-46.24"/>
<polygon fill="#63b8ff" stroke="#63b8ff" points="1102.43,-129.24 1112.69,-131.9 1106.33,-123.42 1102.43,-129.24"/>
</a>
</g>
</g>
<!-- Node11 -->
<g id="Node000011" class="node">
<title>Node11</title>
<g id="a_Node000011"><a xlink:href="namespace_big_data_stat_meth.html#afaec816571c5d3411749d33349ed9eda" target="_top" xlink:title="Compute SVD decomposition using Spectra eigenvalue solver.">
<polygon fill="white" stroke="#666666" points="791.88,-257.25 640.12,-257.25 640.12,-238 791.88,-238 791.88,-257.25"/>
<text xml:space="preserve" text-anchor="middle" x="716" y="-243.75" font-family="Helvetica,sans-Serif" font-size="10.00">BigDataStatMeth::RcppbdSVD</text>
</a>
</g>
</g>
<!-- Node4&#45;&gt;Node11 -->
<g id="edge13_Node000004_Node000011" class="edge">
<title>Node4&#45;&gt;Node11</title>
<g id="a_edge13_Node000004_Node000011"><a xlink:title=" ">
<path fill="none" stroke="#63b8ff" d="M1091.73,-156.62C1065.81,-166.18 1030.09,-178.7 998,-187.62 921.47,-208.92 831.41,-226.94 774.28,-237.52"/>
<polygon fill="#63b8ff" stroke="#63b8ff" points="1092.64,-160.01 1100.79,-153.24 1090.19,-153.45 1092.64,-160.01"/>
</a>
</g>
</g>
<!-- Node12 -->
<g id="Node000012" class="node">
<title>Node12</title>
<g id="a_Node000012"><a xlink:href="namespace_big_data_stat_meth.html#a818fb4dbac351735a7272343c3ad5f23" target="_top" xlink:title=" ">
<polygon fill="white" stroke="#666666" points="996.12,-178.88 844.38,-178.88 844.38,-148.38 996.12,-148.38 996.12,-178.88"/>
<text xml:space="preserve" text-anchor="start" x="852.38" y="-165.38" font-family="Helvetica,sans-Serif" font-size="10.00">BigDataStatMeth::RcppbdSVD</text>
<text xml:space="preserve" text-anchor="middle" x="920.25" y="-154.12" font-family="Helvetica,sans-Serif" font-size="10.00">_lapack</text>
</a>
</g>
</g>
<!-- Node4&#45;&gt;Node12 -->
<g id="edge14_Node000004_Node000012" class="edge">
<title>Node4&#45;&gt;Node12</title>
<g id="a_edge14_Node000004_Node000012"><a xlink:title=" ">
<path fill="none" stroke="#63b8ff" d="M1022.18,-153.39C1013.49,-154.27 1004.83,-155.15 996.43,-156"/>
<polygon fill="#63b8ff" stroke="#63b8ff" points="1022.5,-156.88 1032.1,-152.39 1021.79,-149.91 1022.5,-156.88"/>
</a>
</g>
</g>
<!-- Node6 -->
<g id="Node000006" class="node">
<title>Node6</title>
<g id="a_Node000006"><a xlink:href="namespace_big_data_stat_meth.html#afbf517649a66c749830f33e4273857a7" target="_top" xlink:title="Block&#45;wise SVD decomposition for large HDF5 matrices.">
<polygon fill="white" stroke="#666666" points="575.62,-162.88 423.88,-162.88 423.88,-132.38 575.62,-132.38 575.62,-162.88"/>
<text xml:space="preserve" text-anchor="start" x="431.88" y="-149.38" font-family="Helvetica,sans-Serif" font-size="10.00">BigDataStatMeth::RcppbdSVD</text>
<text xml:space="preserve" text-anchor="middle" x="499.75" y="-138.12" font-family="Helvetica,sans-Serif" font-size="10.00">_hdf5_Block</text>
</a>
</g>
</g>
<!-- Node5&#45;&gt;Node6 -->
<g id="edge5_Node000005_Node000006" class="edge">
<title>Node5&#45;&gt;Node6</title>
<g id="a_edge5_Node000005_Node000006"><a xlink:title=" ">
<path fill="none" stroke="#63b8ff" d="M646.13,-98.41C639.15,-100.45 632.17,-102.55 625.5,-104.62 598.27,-113.11 568.02,-123.51 544.13,-131.96"/>
<polygon fill="#63b8ff" stroke="#63b8ff" points="646.98,-101.81 655.62,-95.68 645.05,-95.09 646.98,-101.81"/>
</a>
</g>
</g>
<!-- Node7 -->
<g id="Node000007" class="node">
<title>Node7</title>
<g id="a_Node000007"><a xlink:href="namespace_big_data_stat_meth.html#a05d2196df8a68f19b986fd06d8812e84" target="_top" xlink:title="Main SVD computation function for HDF5 matrices.">
<polygon fill="white" stroke="#666666" points="374,-219.25 198.25,-219.25 198.25,-200 374,-200 374,-219.25"/>
<text xml:space="preserve" text-anchor="middle" x="286.12" y="-205.75" font-family="Helvetica,sans-Serif" font-size="10.00">BigDataStatMeth::RcppbdSVD_hdf5</text>
</a>
</g>
</g>
<!-- Node6&#45;&gt;Node7 -->
<g id="edge6_Node000006_Node000007" class="edge">
<title>Node6&#45;&gt;Node7</title>
<g id="a_edge6_Node000006_Node000007"><a xlink:title=" ">
<path fill="none" stroke="#63b8ff" d="M434.33,-166.5C397.18,-177.38 351.95,-190.63 321.51,-199.55"/>
<polygon fill="#63b8ff" stroke="#63b8ff" points="435.01,-169.95 443.62,-163.78 433.04,-163.23 435.01,-169.95"/>
</a>
</g>
</g>
<!-- Node7&#45;&gt;Node3 -->
<g id="edge7_Node000007_Node000003" class="edge">
<title>Node7&#45;&gt;Node3</title>
<g id="a_edge7_Node000007_Node000003"><a xlink:title=" ">
<path fill="none" stroke="#63b8ff" d="M186.54,-219.82C178.51,-220.65 170.46,-221.49 162.58,-222.3"/>
<polygon fill="#63b8ff" stroke="#63b8ff" points="186.76,-223.32 196.35,-218.81 186.04,-216.36 186.76,-223.32"/>
</a>
</g>
</g>
<!-- Node9 -->
<g id="Node000009" class="node">
<title>Node9</title>
<g id="a_Node000009"><a xlink:href="namespace_big_data_stat_meth.html#a05652afd0a5a4a4afcda52b3d3bd2cc0" target="_top" xlink:title="Main eigenvalue decomposition for HDF5 matrices.">
<polygon fill="white" stroke="#666666" points="589.5,-19.25 410,-19.25 410,0 589.5,0 589.5,-19.25"/>
<text xml:space="preserve" text-anchor="middle" x="499.75" y="-5.75" font-family="Helvetica,sans-Serif" font-size="10.00">BigDataStatMeth::RcppbdEigen_hdf5</text>
</a>
</g>
</g>
<!-- Node8&#45;&gt;Node9 -->
<g id="edge9_Node000008_Node000009" class="edge">
<title>Node8&#45;&gt;Node9</title>
<g id="a_edge9_Node000008_Node000009"><a xlink:title=" ">
<path fill="none" stroke="#63b8ff" d="M626.85,-21.99C614.64,-20.79 602.09,-19.56 589.86,-18.36"/>
<polygon fill="#63b8ff" stroke="#63b8ff" points="626.15,-25.43 636.45,-22.93 626.84,-18.47 626.15,-25.43"/>
</a>
</g>
</g>
<!-- Node10&#45;&gt;Node8 -->
<g id="edge12_Node000010_Node000008" class="edge">
<title>Node10&#45;&gt;Node8</title>
<g id="a_edge12_Node000010_Node000008"><a xlink:title=" ">
<path fill="none" stroke="#63b8ff" d="M831.03,-30.62C818.75,-30.62 806.21,-30.62 794.16,-30.62"/>
<polygon fill="#63b8ff" stroke="#63b8ff" points="830.7,-34.13 840.7,-30.63 830.7,-27.13 830.7,-34.13"/>
</a>
</g>
</g>
<!-- Node10&#45;&gt;Node9 -->
<g id="edge11_Node000010_Node000009" class="edge">
<title>Node10&#45;&gt;Node9</title>
<g id="a_edge11_Node000010_Node000009"><a xlink:title=" ">
<path fill="none" stroke="#63b8ff" d="M845.5,-12.61C832.57,-10.12 819.2,-7.96 806.5,-6.62 733.91,1.02 651.09,-0.42 589.98,-3.38"/>
<polygon fill="#63b8ff" stroke="#63b8ff" points="844.73,-16.03 855.22,-14.58 846.11,-9.17 844.73,-16.03"/>
</a>
</g>
</g>
<!-- Node12&#45;&gt;Node5 -->
<g id="edge15_Node000012_Node000005" class="edge">
<title>Node12&#45;&gt;Node5</title>
<g id="a_edge15_Node000012_Node000005"><a xlink:title=" ">
<path fill="none" stroke="#63b8ff" d="M864.02,-143.48C856.63,-140.17 849.27,-136.52 842.5,-132.62 824.93,-122.51 824.6,-113.75 806.5,-104.62 799.44,-101.07 791.8,-97.96 784.07,-95.25"/>
<polygon fill="#63b8ff" stroke="#63b8ff" points="862.47,-146.63 873.04,-147.35 865.23,-140.19 862.47,-146.63"/>
</a>
</g>
</g>
<!-- Node12&#45;&gt;Node6 -->
<g id="edge20_Node000012_Node000006" class="edge">
<title>Node12&#45;&gt;Node6</title>
<g id="a_edge20_Node000012_Node000006"><a xlink:title=" ">
<path fill="none" stroke="#63b8ff" d="M832.67,-160.44C774.16,-158.28 695.18,-155.33 625.5,-152.62 609.47,-152 592.29,-151.32 575.95,-150.67"/>
<polygon fill="#63b8ff" stroke="#63b8ff" points="832.45,-163.94 842.57,-160.81 832.71,-156.94 832.45,-163.94"/>
</a>
</g>
</g>
<!-- Node12&#45;&gt;Node7 -->
<g id="edge19_Node000012_Node000007" class="edge">
<title>Node12&#45;&gt;Node7</title>
<g id="a_edge19_Node000012_Node000007"><a xlink:title=" ">
<path fill="none" stroke="#63b8ff" d="M832.59,-169.93C712.07,-178.7 495.1,-194.49 374.31,-203.28"/>
<polygon fill="#63b8ff" stroke="#63b8ff" points="832.71,-173.43 842.43,-169.22 832.2,-166.45 832.71,-173.43"/>
</a>
</g>
</g>
<!-- Node12&#45;&gt;Node11 -->
<g id="edge18_Node000012_Node000011" class="edge">
<title>Node12&#45;&gt;Node11</title>
<g id="a_edge18_Node000012_Node000011"><a xlink:title=" ">
<path fill="none" stroke="#63b8ff" d="M884.29,-184.89C862.51,-197.46 833.57,-212.95 806.5,-223.62 792.43,-229.17 776.63,-233.88 762.26,-237.62"/>
<polygon fill="#63b8ff" stroke="#63b8ff" points="885.9,-188 892.76,-179.93 882.36,-181.96 885.9,-188"/>
</a>
</g>
</g>
<!-- Node13 -->
<g id="Node000013" class="node">
<title>Node13</title>
<g id="a_Node000013"><a xlink:href="namespace_big_data_stat_meth.html#aba547c198a44e235965333df9d1dc146" target="_top" xlink:title=" ">
<polygon fill="white" stroke="#666666" points="806.5,-143.88 625.5,-143.88 625.5,-113.38 806.5,-113.38 806.5,-143.88"/>
<text xml:space="preserve" text-anchor="start" x="633.5" y="-130.38" font-family="Helvetica,sans-Serif" font-size="10.00">BigDataStatMeth::Next</text>
<text xml:space="preserve" text-anchor="middle" x="716" y="-119.12" font-family="Helvetica,sans-Serif" font-size="10.00">_level_SvdBlock_decomposition_hdf5</text>
</a>
</g>
</g>
<!-- Node12&#45;&gt;Node13 -->
<g id="edge16_Node000012_Node000013" class="edge">
<title>Node12&#45;&gt;Node13</title>
<g id="a_edge16_Node000012_Node000013"><a xlink:title=" ">
<path fill="none" stroke="#63b8ff" d="M832.73,-148.65C824.12,-147.16 815.36,-145.65 806.72,-144.15"/>
<polygon fill="#63b8ff" stroke="#63b8ff" points="832,-152.08 842.45,-150.33 833.19,-145.18 832,-152.08"/>
</a>
</g>
</g>
<!-- Node13&#45;&gt;Node6 -->
<g id="edge17_Node000013_Node000006" class="edge">
<title>Node13&#45;&gt;Node6</title>
<g id="a_edge17_Node000013_Node000006"><a xlink:title=" ">
<path fill="none" stroke="#63b8ff" d="M613.87,-137.59C601.08,-138.73 588.17,-139.87 575.88,-140.96"/>
<polygon fill="#63b8ff" stroke="#63b8ff" points="613.91,-141.1 623.56,-136.73 613.29,-134.13 613.91,-141.1"/>
</a>
</g>
</g>
</g>
</svg>

<g id="navigator" transform="translate(0 0)" fill="#404254">
  <rect fill="#f2f5e9" fill-opacity="0.5" stroke="#606060" stroke-width=".5" x="0" y="0" width="60" height="60"/>
  <use id="zoomplus" xlink:href="#zoomPlus" x="17" y="9" onmousedown="handleZoom(evt,'in')"/>
  <use id="zoomminus" xlink:href="#zoomMin" x="42" y="9" onmousedown="handleZoom(evt,'out')"/>
  <use id="reset" xlink:href="#resetDef" x="30" y="36" onmousedown="handleReset()"/>
   <use id="arrowup" xlink:href="#arrowUp" x="0" y="0" onmousedown="handlePan(0,-1)"/>
  <use id="arrowright" xlink:href="#arrowRight" x="0" y="0" onmousedown="handlePan(1,0)"/>
  <use id="arrowdown" xlink:href="#arrowDown" x="0" y="0" onmousedown="handlePan(0,1)"/>
  <use id="arrowleft" xlink:href="#arrowLeft" x="0" y="0" onmousedown="handlePan(-1,0)"/>
</g>
<svg viewBox="0 0 15 15" width="100%" height="30px" preserveAspectRatio="xMaxYMin meet">
 <g id="arrow_out" transform="scale(0.3 0.3)">
  <a xlink:href="namespace_big_data_stat_meth_a44b65a910276a5b61d0c3877b810eaeb_icgraph_org.svg" target="_base">
   <rect id="button" ry="5" rx="5" y="6" x="6" height="38" width="38"
        fill="#f2f5e9" fill-opacity="0.5" stroke="#606060" stroke-width="1.0"/>
   <path id="arrow"
     d="M 11.500037,31.436501 C 11.940474,20.09759 22.043105,11.32322 32.158766,21.979434 L 37.068811,17.246167 C 37.068811,17.246167 37.088388,32 37.088388,32 L 22.160133,31.978069 C 22.160133,31.978069 26.997745,27.140456 26.997745,27.140456 C 18.528582,18.264221 13.291696,25.230495 11.500037,31.436501 z"
     style="fill:#404040;"/>
  </a>
 </g>
</svg>

<style type='text/css'>
<![CDATA[
[data-mouse-over-selected='false'] { opacity: 0.7; }
[data-mouse-over-selected='true']  { opacity: 1.0; }
]]>
</style>
<script type="application/ecmascript"><![CDATA[
document.addEventListener('DOMContentLoaded', (event) => {
  highlightEdges();
  highlightAdjacentNodes();
});
]]></script>
</svg>
