<?xml version="1.0" encoding="UTF-8" standalone="no"?>
<!DOCTYPE svg PUBLIC "-//W3C//DTD SVG 1.1//EN"
 "http://www.w3.org/Graphics/SVG/1.1/DTD/svg11.dtd">
<!-- Generated by graphviz version 14.0.0 (20250921.2048)
 -->
<!-- Title: BigDataStatMeth::Inverse_Matrix_Cholesky_hdf5 Pages: 1 -->
<!--zoomable 763 -->

<svg id="main" version="1.1" xmlns="http://www.w3.org/2000/svg" xmlns:xlink="http://www.w3.org/1999/xlink" xml:space="preserve" onload="init(evt)">

<style type="text/css"><![CDATA[
.node, .edge {opacity: 0.7;}
.node.selected, .edge.selected {opacity: 1;}
.edge:hover path { stroke: red; }
.edge:hover polygon { stroke: red; fill: red; }
]]></style>

<defs>
  <circle id="rim" cx="0" cy="0" r="7"/>
  <circle id="rim2" cx="0" cy="0" r="3.5"/>
  <g id="zoomPlus">
    <use xlink:href="#rim" fill="#404040"><set attributeName="fill" to="#808080" begin="zoomplus.mouseover" end="zoomplus.mouseout"/></use>
    <path d="M-4,0h8M0,-4v8" fill="none" stroke="white" stroke-width="1.5" pointer-events="none"/>
  </g>
  <g id="zoomMin">
    <use xlink:href="#rim" fill="#404040"><set attributeName="fill" to="#808080" begin="zoomminus.mouseover" end="zoomminus.mouseout"/></use>
    <path d="M-4,0h8" fill="none" stroke="white" stroke-width="1.5" pointer-events="none"/>
  </g>
  <g id="arrowUp" transform="translate(30 24)">
    <use xlink:href="#rim"/>
    <path pointer-events="none" fill="none" stroke="white" stroke-width="1.5" d="M0,-3.0v7 M-2.5,-0.5L0,-3.0L2.5,-0.5"/>
  </g>
  <g id="arrowRight" transform="rotate(90) translate(36 -43)">
    <use xlink:href="#rim"/>
    <path pointer-events="none" fill="none" stroke="white" stroke-width="1.5" d="M0,-3.0v7 M-2.5,-0.5L0,-3.0L2.5,-0.5"/>
  </g>
  <g id="arrowDown" transform="rotate(180) translate(-30 -48)">
    <use xlink:href="#rim"/>
    <path pointer-events="none" fill="none" stroke="white" stroke-width="1.5" d="M0,-3.0v7 M-2.5,-0.5L0,-3.0L2.5,-0.5"/>
  </g>
  <g id="arrowLeft" transform="rotate(270) translate(-36 17)">
    <use xlink:href="#rim"/>
    <path pointer-events="none" fill="none" stroke="white" stroke-width="1.5" d="M0,-3.0v7 M-2.5,-0.5L0,-3.0L2.5,-0.5"/>
  </g>
  <g id="resetDef">
    <use xlink:href="#rim2" fill="#404040"><set attributeName="fill" to="#808080" begin="reset.mouseover" end="reset.mouseout"/></use>
  </g>
</defs>
<script type="application/ecmascript">
var viewWidth = 1131;
var viewHeight = 763;
var sectionId = 'dynsection-84';
</script>
<script type="application/ecmascript" xlink:href="../../../../assets/svg.min.js"/>
<svg id="graph" class="graph">
<g id="viewport">
<title>BigDataStatMeth::Inverse_Matrix_Cholesky_hdf5</title>
<!-- Node1 -->
<g id="Node000001" class="node">
<title>Node1</title>
<g id="a_Node000001"><a xlink:title="Computes final matrix inverse with automatic algorithm selection.">
<polygon fill="#999999" stroke="#666666" points="129.25,-505.5 0,-505.5 0,-475 129.25,-475 129.25,-505.5"/>
<text xml:space="preserve" text-anchor="start" x="8" y="-492" font-family="Helvetica,sans-Serif" font-size="10.00">BigDataStatMeth::Inverse</text>
<text xml:space="preserve" text-anchor="middle" x="64.62" y="-480.75" font-family="Helvetica,sans-Serif" font-size="10.00">_Matrix_Cholesky_hdf5</text>
</a>
</g>
</g>
<!-- Node2 -->
<g id="Node000002" class="node">
<title>Node2</title>
<g id="a_Node000002"><a xlink:href="namespace_big_data_stat_meth.html#a0f2b52e15661ecc7c19b233f152d09dc" target="_top" xlink:title="Computes final matrix inverse using inverted Cholesky factors.">
<polygon fill="white" stroke="#666666" points="342.5,-641.5 165.25,-641.5 165.25,-611 342.5,-611 342.5,-641.5"/>
<text xml:space="preserve" text-anchor="start" x="173.25" y="-628" font-family="Helvetica,sans-Serif" font-size="10.00">BigDataStatMeth::Inverse</text>
<text xml:space="preserve" text-anchor="middle" x="253.88" y="-616.75" font-family="Helvetica,sans-Serif" font-size="10.00">_Matrix_Cholesky_intermediate_hdf5</text>
</a>
</g>
</g>
<!-- Node1&#45;&gt;Node2 -->
<g id="edge1_Node000001_Node000002" class="edge">
<title>Node1&#45;&gt;Node2</title>
<g id="a_edge1_Node000001_Node000002"><a xlink:title=" ">
<path fill="none" stroke="#63b8ff" d="M87.1,-505.85C120.31,-529.97 184.25,-576.41 222.28,-604.03"/>
<polygon fill="#63b8ff" stroke="#63b8ff" points="219.99,-606.69 230.13,-609.73 224.1,-601.02 219.99,-606.69"/>
</a>
</g>
</g>
<!-- Node12 -->
<g id="Node000012" class="node">
<title>Node12</title>
<g id="a_Node000012"><a xlink:href="namespace_big_data_stat_meth.html#a6cf11002c5ce11473daebd0aefb52444" target="_top" xlink:title="Out&#45;of&#45;core computation of A^&#45;1 = L^&#45;T L^&#45;1 using tiles.">
<polygon fill="white" stroke="#666666" points="543,-300.5 378.5,-300.5 378.5,-270 543,-270 543,-300.5"/>
<text xml:space="preserve" text-anchor="start" x="386.5" y="-287" font-family="Helvetica,sans-Serif" font-size="10.00">BigDataStatMeth::Inverse</text>
<text xml:space="preserve" text-anchor="middle" x="460.75" y="-275.75" font-family="Helvetica,sans-Serif" font-size="10.00">_Matrix_Cholesky_outofcore_hdf5</text>
</a>
</g>
</g>
<!-- Node1&#45;&gt;Node12 -->
<g id="edge14_Node000001_Node000012" class="edge">
<title>Node1&#45;&gt;Node12</title>
<g id="a_edge14_Node000001_Node000012"><a xlink:title=" ">
<path fill="none" stroke="#63b8ff" d="M95.9,-474.5C166.19,-437.94 340.5,-347.28 419.59,-306.14"/>
<polygon fill="#63b8ff" stroke="#63b8ff" points="421.05,-309.33 428.3,-301.61 417.82,-303.12 421.05,-309.33"/>
</a>
</g>
</g>
<!-- Node3 -->
<g id="Node000003" class="node">
<title>Node3</title>
<g id="a_Node000003"><a xlink:href="namespace_big_data_stat_meth.html#abcd544ed5db12dd03f79bca0a8f31ca5" target="_top" xlink:title="Calculates optimal block size for memory&#45;efficient matrix operations.">
<polygon fill="white" stroke="#666666" points="532.88,-730.5 388.62,-730.5 388.62,-700 532.88,-700 532.88,-730.5"/>
<text xml:space="preserve" text-anchor="start" x="396.62" y="-717" font-family="Helvetica,sans-Serif" font-size="10.00">BigDataStatMeth::getOptimal</text>
<text xml:space="preserve" text-anchor="middle" x="460.75" y="-705.75" font-family="Helvetica,sans-Serif" font-size="10.00">BlockElements</text>
</a>
</g>
</g>
<!-- Node2&#45;&gt;Node3 -->
<g id="edge2_Node000002_Node000003" class="edge">
<title>Node2&#45;&gt;Node3</title>
<g id="a_edge2_Node000002_Node000003"><a xlink:title=" ">
<path fill="none" stroke="#63b8ff" d="M287.44,-641.88C312.24,-653.63 347.31,-669.93 378.5,-683.25 388.02,-687.32 398.25,-691.49 408.12,-695.43"/>
<polygon fill="#63b8ff" stroke="#63b8ff" points="406.65,-698.61 417.24,-699.03 409.23,-692.1 406.65,-698.61"/>
</a>
</g>
</g>
<!-- Node5 -->
<g id="Node000005" class="node">
<title>Node5</title>
<g id="a_Node000005"><a xlink:href="class_big_data_stat_meth_1_1hdf5_dataset.html#a23bea87165b8ef6b944709c5b2cbd0cf" target="_top" xlink:title=" ">
<polygon fill="white" stroke="#666666" points="729.25,-683.5 579,-683.5 579,-653 729.25,-653 729.25,-683.5"/>
<text xml:space="preserve" text-anchor="start" x="587" y="-670" font-family="Helvetica,sans-Serif" font-size="10.00">BigDataStatMeth::hdf5Dataset</text>
<text xml:space="preserve" text-anchor="middle" x="654.12" y="-658.75" font-family="Helvetica,sans-Serif" font-size="10.00">::readDatasetBlock</text>
</a>
</g>
</g>
<!-- Node2&#45;&gt;Node5 -->
<g id="edge4_Node000002_Node000005" class="edge">
<title>Node2&#45;&gt;Node5</title>
<g id="a_edge4_Node000002_Node000005"><a xlink:title=" ">
<path fill="none" stroke="#63b8ff" d="M327.84,-642C344.43,-645.14 362.02,-648.12 378.5,-650.25 441.43,-658.39 512.97,-662.93 567.26,-665.41"/>
<polygon fill="#63b8ff" stroke="#63b8ff" points="566.92,-668.9 577.06,-665.84 567.22,-661.91 566.92,-668.9"/>
</a>
</g>
</g>
<!-- Node7 -->
<g id="Node000007" class="node">
<title>Node7</title>
<g id="a_Node000007"><a xlink:href="namespace_big_data_stat_meth.html#ab5429d9d25ff38d72d77e6dca59947b0" target="_top" xlink:title="Sets the diagonal elements of a matrix stored in HDF5 format.">
<polygon fill="white" stroke="#666666" points="535.12,-641.5 386.38,-641.5 386.38,-611 535.12,-611 535.12,-641.5"/>
<text xml:space="preserve" text-anchor="start" x="394.38" y="-628" font-family="Helvetica,sans-Serif" font-size="10.00">BigDataStatMeth::setDiagonal</text>
<text xml:space="preserve" text-anchor="middle" x="460.75" y="-616.75" font-family="Helvetica,sans-Serif" font-size="10.00">Matrix</text>
</a>
</g>
</g>
<!-- Node2&#45;&gt;Node7 -->
<g id="edge6_Node000002_Node000007" class="edge">
<title>Node2&#45;&gt;Node7</title>
<g id="a_edge6_Node000002_Node000007"><a xlink:title=" ">
<path fill="none" stroke="#63b8ff" d="M342.95,-626.25C353.46,-626.25 364.18,-626.25 374.65,-626.25"/>
<polygon fill="#63b8ff" stroke="#63b8ff" points="374.38,-629.75 384.38,-626.25 374.38,-622.75 374.38,-629.75"/>
</a>
</g>
</g>
<!-- Node8 -->
<g id="Node000008" class="node">
<title>Node8</title>
<g id="a_Node000008"><a xlink:href="class_big_data_stat_meth_1_1hdf5_dataset.html#af606176d84a63561b65702b6fde3a583" target="_top" xlink:title="Write block of data with optional transposition.">
<polygon fill="white" stroke="#666666" points="729.25,-634.5 579,-634.5 579,-604 729.25,-604 729.25,-634.5"/>
<text xml:space="preserve" text-anchor="start" x="587" y="-621" font-family="Helvetica,sans-Serif" font-size="10.00">BigDataStatMeth::hdf5Dataset</text>
<text xml:space="preserve" text-anchor="middle" x="654.12" y="-609.75" font-family="Helvetica,sans-Serif" font-size="10.00">::writeDatasetBlock</text>
</a>
</g>
</g>
<!-- Node2&#45;&gt;Node8 -->
<g id="edge13_Node000002_Node000008" class="edge">
<title>Node2&#45;&gt;Node8</title>
<g id="a_edge13_Node000002_Node000008"><a xlink:title=" ">
<path fill="none" stroke="#63b8ff" d="M323.52,-610.5C341.32,-607.08 360.55,-603.98 378.5,-602.25 451.28,-595.25 470.1,-596.66 543,-602.25 550.96,-602.86 559.21,-603.72 567.45,-604.72"/>
<polygon fill="#63b8ff" stroke="#63b8ff" points="566.8,-608.16 577.16,-605.98 567.7,-601.22 566.8,-608.16"/>
</a>
</g>
</g>
<!-- Node4 -->
<g id="Node000004" class="node">
<title>Node4</title>
<g id="a_Node000004"><a xlink:href="namespace_big_data_stat_meth.html#a8a3d5e267930c906cce28346886f07bc" target="_top" xlink:title="Detects available system memory using R&#45;compatible methods.">
<polygon fill="white" stroke="#666666" points="729.25,-732.5 579,-732.5 579,-702 729.25,-702 729.25,-732.5"/>
<text xml:space="preserve" text-anchor="start" x="587" y="-719" font-family="Helvetica,sans-Serif" font-size="10.00">BigDataStatMeth::getAvailable</text>
<text xml:space="preserve" text-anchor="middle" x="654.12" y="-707.75" font-family="Helvetica,sans-Serif" font-size="10.00">MemoryMB</text>
</a>
</g>
</g>
<!-- Node3&#45;&gt;Node4 -->
<g id="edge3_Node000003_Node000004" class="edge">
<title>Node3&#45;&gt;Node4</title>
<g id="a_edge3_Node000003_Node000004"><a xlink:title=" ">
<path fill="none" stroke="#63b8ff" d="M533.28,-716C544.43,-716.11 556.05,-716.24 567.47,-716.35"/>
<polygon fill="#63b8ff" stroke="#63b8ff" points="567.25,-719.85 577.29,-716.46 567.33,-712.85 567.25,-719.85"/>
</a>
</g>
</g>
<!-- Node6 -->
<g id="Node000006" class="node">
<title>Node6</title>
<g id="a_Node000006"><a xlink:href="class_big_data_stat_meth_1_1hdf5_dataset.html#aba39e56a580d3b1fa7f1619fc72efa3e" target="_top" xlink:title="Close dataset and file.">
<polygon fill="white" stroke="#666666" points="926,-754.5 775.75,-754.5 775.75,-724 926,-724 926,-754.5"/>
<text xml:space="preserve" text-anchor="start" x="783.75" y="-741" font-family="Helvetica,sans-Serif" font-size="10.00">BigDataStatMeth::hdf5Dataset</text>
<text xml:space="preserve" text-anchor="middle" x="850.88" y="-729.75" font-family="Helvetica,sans-Serif" font-size="10.00">::close_dataset_file</text>
</a>
</g>
</g>
<!-- Node5&#45;&gt;Node6 -->
<g id="edge5_Node000005_Node000006" class="edge">
<title>Node5&#45;&gt;Node6</title>
<g id="a_edge5_Node000005_Node000006"><a xlink:title=" ">
<path fill="none" stroke="#63b8ff" d="M706.29,-683.99C714.09,-686.82 721.96,-689.93 729.25,-693.25 746.11,-700.92 748.24,-706.91 765.25,-714.25 769.8,-716.22 774.56,-718.09 779.39,-719.85"/>
<polygon fill="#63b8ff" stroke="#63b8ff" points="778.02,-723.08 788.62,-723.05 780.32,-716.47 778.02,-723.08"/>
</a>
</g>
</g>
<!-- Node7&#45;&gt;Node5 -->
<g id="edge7_Node000007_Node000005" class="edge">
<title>Node7&#45;&gt;Node5</title>
<g id="a_edge7_Node000007_Node000005"><a xlink:title=" ">
<path fill="none" stroke="#63b8ff" d="M533.28,-641.95C545.31,-644.59 557.89,-647.35 570.18,-650.05"/>
<polygon fill="#63b8ff" stroke="#63b8ff" points="569.36,-653.45 579.88,-652.18 570.86,-646.61 569.36,-653.45"/>
</a>
</g>
</g>
<!-- Node7&#45;&gt;Node8 -->
<g id="edge8_Node000007_Node000008" class="edge">
<title>Node7&#45;&gt;Node8</title>
<g id="a_edge8_Node000007_Node000008"><a xlink:title=" ">
<path fill="none" stroke="#63b8ff" d="M535.47,-623.55C545.91,-623.17 556.71,-622.78 567.36,-622.39"/>
<polygon fill="#63b8ff" stroke="#63b8ff" points="567.44,-625.89 577.3,-622.02 567.18,-618.89 567.44,-625.89"/>
</a>
</g>
</g>
<!-- Node8&#45;&gt;Node6 -->
<g id="edge10_Node000008_Node000006" class="edge">
<title>Node8&#45;&gt;Node6</title>
<g id="a_edge10_Node000008_Node000006"><a xlink:title=" ">
<path fill="none" stroke="#63b8ff" d="M715.22,-634.85C720.26,-637.51 725.03,-640.62 729.25,-644.25 755.77,-667.07 738.3,-691.94 765.25,-714.25 766.75,-715.49 768.31,-716.67 769.92,-717.8"/>
<polygon fill="#63b8ff" stroke="#63b8ff" points="767.95,-720.69 778.33,-722.82 771.54,-714.69 767.95,-720.69"/>
</a>
</g>
</g>
<!-- Node9 -->
<g id="Node000009" class="node">
<title>Node9</title>
<g id="a_Node000009"><a xlink:href="class_big_data_stat_meth_1_1hdf5_dataset.html#a64177ae924792ea9e557febaa95ed400" target="_top" xlink:title="Close the dataset.">
<polygon fill="white" stroke="#666666" points="926,-705.5 775.75,-705.5 775.75,-675 926,-675 926,-705.5"/>
<text xml:space="preserve" text-anchor="start" x="783.75" y="-692" font-family="Helvetica,sans-Serif" font-size="10.00">BigDataStatMeth::hdf5Dataset</text>
<text xml:space="preserve" text-anchor="middle" x="850.88" y="-680.75" font-family="Helvetica,sans-Serif" font-size="10.00">::close_dataset</text>
</a>
</g>
</g>
<!-- Node8&#45;&gt;Node9 -->
<g id="edge9_Node000008_Node000009" class="edge">
<title>Node8&#45;&gt;Node9</title>
<g id="a_edge9_Node000008_Node000009"><a xlink:title=" ">
<path fill="none" stroke="#63b8ff" d="M706.29,-634.99C714.09,-637.82 721.96,-640.93 729.25,-644.25 746.11,-651.92 748.24,-657.91 765.25,-665.25 769.8,-667.22 774.56,-669.09 779.39,-670.85"/>
<polygon fill="#63b8ff" stroke="#63b8ff" points="778.02,-674.08 788.62,-674.05 780.32,-667.47 778.02,-674.08"/>
</a>
</g>
</g>
<!-- Node10 -->
<g id="Node000010" class="node">
<title>Node10</title>
<g id="a_Node000010"><a xlink:href="class_big_data_stat_meth_1_1hdf5_dataset.html#a94d81b72e92cb0230b4e64f37ea7d2e3" target="_top" xlink:title="Convert DataFrame to range list.">
<polygon fill="white" stroke="#666666" points="936.5,-656.5 765.25,-656.5 765.25,-626 936.5,-626 936.5,-656.5"/>
<text xml:space="preserve" text-anchor="start" x="773.25" y="-643" font-family="Helvetica,sans-Serif" font-size="10.00">BigDataStatMeth::hdf5Dataset</text>
<text xml:space="preserve" text-anchor="middle" x="850.88" y="-631.75" font-family="Helvetica,sans-Serif" font-size="10.00">::convert_DataFrame_to_RangeList</text>
</a>
</g>
</g>
<!-- Node8&#45;&gt;Node10 -->
<g id="edge11_Node000008_Node000010" class="edge">
<title>Node8&#45;&gt;Node10</title>
<g id="a_edge11_Node000008_Node000010"><a xlink:title=" ">
<path fill="none" stroke="#63b8ff" d="M729.59,-627.66C737.47,-628.55 745.56,-629.47 753.65,-630.38"/>
<polygon fill="#63b8ff" stroke="#63b8ff" points="753.21,-633.85 763.54,-631.5 754,-626.9 753.21,-633.85"/>
</a>
</g>
</g>
<!-- Node11 -->
<g id="Node000011" class="node">
<title>Node11</title>
<g id="a_Node000011"><a xlink:href="namespace_big_data_stat_meth.html#a2692707b3ea4aaafa09d07afaf632437" target="_top" xlink:title="Transposes a 2D matrix.">
<polygon fill="white" stroke="#666666" points="920.75,-607.88 781,-607.88 781,-588.62 920.75,-588.62 920.75,-607.88"/>
<text xml:space="preserve" text-anchor="middle" x="850.88" y="-594.38" font-family="Helvetica,sans-Serif" font-size="10.00">BigDataStatMeth::transpose</text>
</a>
</g>
</g>
<!-- Node8&#45;&gt;Node11 -->
<g id="edge12_Node000008_Node000011" class="edge">
<title>Node8&#45;&gt;Node11</title>
<g id="a_edge12_Node000008_Node000011"><a xlink:title=" ">
<path fill="none" stroke="#63b8ff" d="M729.59,-611.22C742.54,-609.82 756.07,-608.36 769.18,-606.95"/>
<polygon fill="#63b8ff" stroke="#63b8ff" points="769.51,-610.44 779.07,-605.88 768.75,-603.48 769.51,-610.44"/>
</a>
</g>
</g>
<!-- Node12&#45;&gt;Node5 -->
<g id="edge31_Node000012_Node000005" class="edge">
<title>Node12&#45;&gt;Node5</title>
<g id="a_edge31_Node000012_Node000005"><a xlink:title=" ">
<path fill="none" stroke="#63b8ff" d="M462.13,-300.63C464.31,-355.31 479.09,-542.46 579,-643.25 579.88,-644.14 580.8,-645 581.75,-645.83"/>
<polygon fill="#63b8ff" stroke="#63b8ff" points="579.58,-648.59 589.74,-651.61 583.69,-642.92 579.58,-648.59"/>
</a>
</g>
</g>
<!-- Node12&#45;&gt;Node8 -->
<g id="edge38_Node000012_Node000008" class="edge">
<title>Node12&#45;&gt;Node8</title>
<g id="a_edge38_Node000012_Node000008"><a xlink:title=" ">
<path fill="none" stroke="#63b8ff" d="M467.18,-300.77C481.77,-341.41 524.45,-453.54 579,-536.25 593.27,-557.89 612.94,-579.64 628.43,-595.45"/>
<polygon fill="#63b8ff" stroke="#63b8ff" points="625.94,-597.9 635.48,-602.51 630.89,-592.96 625.94,-597.9"/>
</a>
</g>
</g>
<!-- Node13 -->
<g id="Node000013" class="node">
<title>Node13</title>
<g id="a_Node000013"><a xlink:href="class_big_data_stat_meth_1_1hdf5_dataset_internal.html#a4e1b20deb54e3e313a02d75f092ed7f8" target="_top" xlink:title="Create a new internal dataset with optional compression.">
<polygon fill="white" stroke="#666666" points="729.25,-324.5 579,-324.5 579,-294 729.25,-294 729.25,-324.5"/>
<text xml:space="preserve" text-anchor="start" x="587" y="-311" font-family="Helvetica,sans-Serif" font-size="10.00">BigDataStatMeth::hdf5Dataset</text>
<text xml:space="preserve" text-anchor="middle" x="654.12" y="-299.75" font-family="Helvetica,sans-Serif" font-size="10.00">Internal::createDataset</text>
</a>
</g>
</g>
<!-- Node12&#45;&gt;Node13 -->
<g id="edge15_Node000012_Node000013" class="edge">
<title>Node12&#45;&gt;Node13</title>
<g id="a_edge15_Node000012_Node000013"><a xlink:title=" ">
<path fill="none" stroke="#63b8ff" d="M543.47,-295.5C551.41,-296.49 559.48,-297.51 567.46,-298.51"/>
<polygon fill="#63b8ff" stroke="#63b8ff" points="566.79,-301.95 577.15,-299.72 567.66,-295 566.79,-301.95"/>
</a>
</g>
</g>
<!-- Node23 -->
<g id="Node000023" class="node">
<title>Node23</title>
<g id="a_Node000023"><a xlink:href="class_big_data_stat_meth_1_1hdf5_dataset.html#af3ab7117b94164ab629673cacd896dd9" target="_top" xlink:title="Get the current compression level for this dataset instance.">
<polygon fill="white" stroke="#666666" points="729.25,-177.5 579,-177.5 579,-147 729.25,-147 729.25,-177.5"/>
<text xml:space="preserve" text-anchor="start" x="587" y="-164" font-family="Helvetica,sans-Serif" font-size="10.00">BigDataStatMeth::hdf5Dataset</text>
<text xml:space="preserve" text-anchor="middle" x="654.12" y="-152.75" font-family="Helvetica,sans-Serif" font-size="10.00">::getCompressionLevel</text>
</a>
</g>
</g>
<!-- Node12&#45;&gt;Node23 -->
<g id="edge26_Node000012_Node000023" class="edge">
<title>Node12&#45;&gt;Node23</title>
<g id="a_edge26_Node000012_Node000023"><a xlink:title=" ">
<path fill="none" stroke="#63b8ff" d="M476.65,-269.57C497.67,-248.27 538.03,-210.2 579,-187.25 581.98,-185.58 585.1,-183.99 588.29,-182.49"/>
<polygon fill="#63b8ff" stroke="#63b8ff" points="589.5,-185.79 597.28,-178.6 586.71,-179.36 589.5,-185.79"/>
</a>
</g>
</g>
<!-- Node24 -->
<g id="Node000024" class="node">
<title>Node24</title>
<g id="a_Node000024"><a xlink:href="class_big_data_stat_meth_1_1hdf5_dataset.html#ac979eba40078c7c5974b64b2ce6347a3" target="_top" xlink:title="Get dataset name.">
<polygon fill="white" stroke="#666666" points="729.25,-128.5 579,-128.5 579,-98 729.25,-98 729.25,-128.5"/>
<text xml:space="preserve" text-anchor="start" x="587" y="-115" font-family="Helvetica,sans-Serif" font-size="10.00">BigDataStatMeth::hdf5Dataset</text>
<text xml:space="preserve" text-anchor="middle" x="654.12" y="-103.75" font-family="Helvetica,sans-Serif" font-size="10.00">::getDatasetName</text>
</a>
</g>
</g>
<!-- Node12&#45;&gt;Node24 -->
<g id="edge27_Node000012_Node000024" class="edge">
<title>Node12&#45;&gt;Node24</title>
<g id="a_edge27_Node000012_Node000024"><a xlink:title=" ">
<path fill="none" stroke="#63b8ff" d="M469.93,-269.96C486.55,-240.28 527.14,-174.6 579,-138.25 581.08,-136.79 583.25,-135.42 585.48,-134.11"/>
<polygon fill="#63b8ff" stroke="#63b8ff" points="587.01,-137.26 594.3,-129.57 583.81,-131.04 587.01,-137.26"/>
</a>
</g>
</g>
<!-- Node25 -->
<g id="Node000025" class="node">
<title>Node25</title>
<g id="a_Node000025"><a xlink:href="class_big_data_stat_meth_1_1hdf5_file.html#a2d2bd792aa9c01e459312e6727cde8af" target="_top" xlink:title="Get full file path.">
<polygon fill="white" stroke="#666666" points="719.88,-79.5 588.38,-79.5 588.38,-49 719.88,-49 719.88,-79.5"/>
<text xml:space="preserve" text-anchor="start" x="596.38" y="-66" font-family="Helvetica,sans-Serif" font-size="10.00">BigDataStatMeth::hdf5File</text>
<text xml:space="preserve" text-anchor="middle" x="654.12" y="-54.75" font-family="Helvetica,sans-Serif" font-size="10.00">::getFullPath</text>
</a>
</g>
</g>
<!-- Node12&#45;&gt;Node25 -->
<g id="edge28_Node000012_Node000025" class="edge">
<title>Node12&#45;&gt;Node25</title>
<g id="a_edge28_Node000012_Node000025"><a xlink:title=" ">
<path fill="none" stroke="#63b8ff" d="M466.78,-269.75C479.51,-232.95 516.49,-139.64 579,-89.25 580.53,-88.02 582.12,-86.85 583.76,-85.73"/>
<polygon fill="#63b8ff" stroke="#63b8ff" points="585.47,-88.79 592.33,-80.71 581.94,-82.74 585.47,-88.79"/>
</a>
</g>
</g>
<!-- Node26 -->
<g id="Node000026" class="node">
<title>Node26</title>
<g id="a_Node000026"><a xlink:href="class_big_data_stat_meth_1_1hdf5_dataset.html#af4869e54b1d4c01ab4caacf1939e1907" target="_top" xlink:title="Get group name.">
<polygon fill="white" stroke="#666666" points="729.25,-226.5 579,-226.5 579,-196 729.25,-196 729.25,-226.5"/>
<text xml:space="preserve" text-anchor="start" x="587" y="-213" font-family="Helvetica,sans-Serif" font-size="10.00">BigDataStatMeth::hdf5Dataset</text>
<text xml:space="preserve" text-anchor="middle" x="654.12" y="-201.75" font-family="Helvetica,sans-Serif" font-size="10.00">::getGroup</text>
</a>
</g>
</g>
<!-- Node12&#45;&gt;Node26 -->
<g id="edge29_Node000012_Node000026" class="edge">
<title>Node12&#45;&gt;Node26</title>
<g id="a_edge29_Node000012_Node000026"><a xlink:title=" ">
<path fill="none" stroke="#63b8ff" d="M497.41,-269.58C520.51,-259.62 551.34,-246.68 579,-236.25 583.98,-234.37 589.17,-232.48 594.39,-230.63"/>
<polygon fill="#63b8ff" stroke="#63b8ff" points="595.38,-233.99 603.67,-227.39 593.08,-227.38 595.38,-233.99"/>
</a>
</g>
</g>
<!-- Node27 -->
<g id="Node000027" class="node">
<title>Node27</title>
<g id="a_Node000027"><a xlink:href="class_big_data_stat_meth_1_1hdf5_dataset_internal.html#ad96e4a35e00a9f908436172d63a125d8" target="_top" xlink:title="Read a block of data from internal dataset.">
<polygon fill="white" stroke="#666666" points="926,-446.5 775.75,-446.5 775.75,-416 926,-416 926,-446.5"/>
<text xml:space="preserve" text-anchor="start" x="783.75" y="-433" font-family="Helvetica,sans-Serif" font-size="10.00">BigDataStatMeth::hdf5Dataset</text>
<text xml:space="preserve" text-anchor="middle" x="850.88" y="-421.75" font-family="Helvetica,sans-Serif" font-size="10.00">Internal::readDatasetBlock</text>
</a>
</g>
</g>
<!-- Node12&#45;&gt;Node27 -->
<g id="edge32_Node000012_Node000027" class="edge">
<title>Node12&#45;&gt;Node27</title>
<g id="a_edge32_Node000012_Node000027"><a xlink:title=" ">
<path fill="none" stroke="#63b8ff" d="M497.76,-300.94C554.16,-325.21 667.06,-372.57 765.25,-406.25 771.05,-408.24 777.1,-410.22 783.18,-412.14"/>
<polygon fill="#63b8ff" stroke="#63b8ff" points="782.09,-415.46 792.68,-415.08 784.16,-408.77 782.09,-415.46"/>
</a>
</g>
</g>
<!-- Node28 -->
<g id="Node000028" class="node">
<title>Node28</title>
<g id="a_Node000028"><a xlink:href="class_big_data_stat_meth_1_1hdf5_dataset.html#a248d5e9f269b92ef906ab3f78b3e42d8" target="_top" xlink:title="Remove the dataset.">
<polygon fill="white" stroke="#666666" points="729.25,-275.5 579,-275.5 579,-245 729.25,-245 729.25,-275.5"/>
<text xml:space="preserve" text-anchor="start" x="587" y="-262" font-family="Helvetica,sans-Serif" font-size="10.00">BigDataStatMeth::hdf5Dataset</text>
<text xml:space="preserve" text-anchor="middle" x="654.12" y="-250.75" font-family="Helvetica,sans-Serif" font-size="10.00">::remove</text>
</a>
</g>
</g>
<!-- Node12&#45;&gt;Node28 -->
<g id="edge34_Node000012_Node000028" class="edge">
<title>Node12&#45;&gt;Node28</title>
<g id="a_edge34_Node000012_Node000028"><a xlink:title=" ">
<path fill="none" stroke="#63b8ff" d="M543.47,-274.58C551.41,-273.54 559.48,-272.48 567.46,-271.44"/>
<polygon fill="#63b8ff" stroke="#63b8ff" points="567.69,-274.94 577.15,-270.18 566.78,-268 567.69,-274.94"/>
</a>
</g>
</g>
<!-- Node29 -->
<g id="Node000029" class="node">
<title>Node29</title>
<g id="a_Node000029"><a xlink:href="class_big_data_stat_meth_1_1hdf5_dataset.html#a9b74902d79f983c5ac359b9e72199c01" target="_top" xlink:title="Set the compression level for this dataset instance.">
<polygon fill="white" stroke="#666666" points="729.25,-30.5 579,-30.5 579,0 729.25,0 729.25,-30.5"/>
<text xml:space="preserve" text-anchor="start" x="587" y="-17" font-family="Helvetica,sans-Serif" font-size="10.00">BigDataStatMeth::hdf5Dataset</text>
<text xml:space="preserve" text-anchor="middle" x="654.12" y="-5.75" font-family="Helvetica,sans-Serif" font-size="10.00">::setCompressionLevel</text>
</a>
</g>
</g>
<!-- Node12&#45;&gt;Node29 -->
<g id="edge37_Node000012_Node000029" class="edge">
<title>Node12&#45;&gt;Node29</title>
<g id="a_edge37_Node000012_Node000029"><a xlink:title=" ">
<path fill="none" stroke="#63b8ff" d="M464.76,-269.81C473.91,-226.96 505.4,-105.44 579,-40.25 580.27,-39.12 581.59,-38.05 582.96,-37.02"/>
<polygon fill="#63b8ff" stroke="#63b8ff" points="584.72,-40.05 591.27,-31.73 580.96,-34.15 584.72,-40.05"/>
</a>
</g>
</g>
<!-- Node30 -->
<g id="Node000030" class="node">
<title>Node30</title>
<g id="a_Node000030"><a xlink:href="class_big_data_stat_meth_1_1hdf5_dataset_internal.html#a4f988a5f93c2870e87c14d84f00e441c" target="_top" xlink:title="Write block of data to internal dataset.">
<polygon fill="white" stroke="#666666" points="729.25,-527.5 579,-527.5 579,-497 729.25,-497 729.25,-527.5"/>
<text xml:space="preserve" text-anchor="start" x="587" y="-514" font-family="Helvetica,sans-Serif" font-size="10.00">BigDataStatMeth::hdf5Dataset</text>
<text xml:space="preserve" text-anchor="middle" x="654.12" y="-502.75" font-family="Helvetica,sans-Serif" font-size="10.00">Internal::writeDatasetBlock</text>
</a>
</g>
</g>
<!-- Node12&#45;&gt;Node30 -->
<g id="edge39_Node000012_Node000030" class="edge">
<title>Node12&#45;&gt;Node30</title>
<g id="a_edge39_Node000012_Node000030"><a xlink:title=" ">
<path fill="none" stroke="#63b8ff" d="M474.9,-300.85C507.68,-339.73 593.18,-441.14 632.63,-487.94"/>
<polygon fill="#63b8ff" stroke="#63b8ff" points="629.78,-489.99 638.9,-495.38 635.13,-485.48 629.78,-489.99"/>
</a>
</g>
</g>
<!-- Node14 -->
<g id="Node000014" class="node">
<title>Node14</title>
<g id="a_Node000014"><a xlink:href="class_big_data_stat_meth_1_1hdf5_dataset.html#ac7a7f23b7e22c9b56ca6ad86592f2d52" target="_top" xlink:title="Add an attribute to the dataset.">
<polygon fill="white" stroke="#666666" points="926,-299.5 775.75,-299.5 775.75,-269 926,-269 926,-299.5"/>
<text xml:space="preserve" text-anchor="start" x="783.75" y="-286" font-family="Helvetica,sans-Serif" font-size="10.00">BigDataStatMeth::hdf5Dataset</text>
<text xml:space="preserve" text-anchor="middle" x="850.88" y="-274.75" font-family="Helvetica,sans-Serif" font-size="10.00">::addAttribute</text>
</a>
</g>
</g>
<!-- Node13&#45;&gt;Node14 -->
<g id="edge16_Node000013_Node000014" class="edge">
<title>Node13&#45;&gt;Node14</title>
<g id="a_edge16_Node000013_Node000014"><a xlink:title=" ">
<path fill="none" stroke="#63b8ff" d="M729.59,-299.69C740.86,-298.24 752.57,-296.74 764.06,-295.27"/>
<polygon fill="#63b8ff" stroke="#63b8ff" points="764.48,-298.74 773.95,-294 763.59,-291.8 764.48,-298.74"/>
</a>
</g>
</g>
<!-- Node15 -->
<g id="Node000015" class="node">
<title>Node15</title>
<g id="a_Node000015"><a xlink:href="class_big_data_stat_meth_1_1hdf5_group.html#a27cef4d33e46c72bfd792aa49fa621a3" target="_top" xlink:title="Create multiple nested groups.">
<polygon fill="white" stroke="#666666" points="921.88,-250.5 779.88,-250.5 779.88,-220 921.88,-220 921.88,-250.5"/>
<text xml:space="preserve" text-anchor="start" x="787.88" y="-237" font-family="Helvetica,sans-Serif" font-size="10.00">BigDataStatMeth::hdf5Group</text>
<text xml:space="preserve" text-anchor="middle" x="850.88" y="-225.75" font-family="Helvetica,sans-Serif" font-size="10.00">::create_HDF5_groups</text>
</a>
</g>
</g>
<!-- Node13&#45;&gt;Node15 -->
<g id="edge17_Node000013_Node000015" class="edge">
<title>Node13&#45;&gt;Node15</title>
<g id="a_edge17_Node000013_Node000015"><a xlink:title=" ">
<path fill="none" stroke="#63b8ff" d="M707.27,-293.6C714.77,-290.8 722.3,-287.66 729.25,-284.25 746.51,-275.77 747.83,-268.4 765.25,-260.25 769.27,-258.37 773.47,-256.59 777.75,-254.92"/>
<polygon fill="#63b8ff" stroke="#63b8ff" points="778.89,-258.23 787.08,-251.51 776.49,-251.66 778.89,-258.23"/>
</a>
</g>
</g>
<!-- Node17 -->
<g id="Node000017" class="node">
<title>Node17</title>
<g id="a_Node000017"><a xlink:href="namespace_big_data_stat_meth.html#a89d901ab4b5e01771f4e3fc7dc84e50e" target="_top" xlink:title="Checks if an HDF5 element (group or dataset) exists.">
<polygon fill="white" stroke="#666666" points="912.5,-348.5 789.25,-348.5 789.25,-318 912.5,-318 912.5,-348.5"/>
<text xml:space="preserve" text-anchor="start" x="797.25" y="-335" font-family="Helvetica,sans-Serif" font-size="10.00">BigDataStatMeth::exists</text>
<text xml:space="preserve" text-anchor="middle" x="850.88" y="-323.75" font-family="Helvetica,sans-Serif" font-size="10.00">_HDF5_element</text>
</a>
</g>
</g>
<!-- Node13&#45;&gt;Node17 -->
<g id="edge19_Node000013_Node000017" class="edge">
<title>Node13&#45;&gt;Node17</title>
<g id="a_edge19_Node000013_Node000017"><a xlink:title=" ">
<path fill="none" stroke="#63b8ff" d="M729.59,-318.43C745.4,-320.37 762.07,-322.43 777.79,-324.37"/>
<polygon fill="#63b8ff" stroke="#63b8ff" points="777.19,-327.82 787.54,-325.57 778.04,-320.87 777.19,-327.82"/>
</a>
</g>
</g>
<!-- Node18 -->
<g id="Node000018" class="node">
<title>Node18</title>
<g id="a_Node000018"><a xlink:href="class_big_data_stat_meth_1_1hdf5_group.html#a59995412538627e6c80f64b552c286f5" target="_top" xlink:title=" ">
<polygon fill="white" stroke="#666666" points="921.88,-152.5 779.88,-152.5 779.88,-122 921.88,-122 921.88,-152.5"/>
<text xml:space="preserve" text-anchor="start" x="787.88" y="-139" font-family="Helvetica,sans-Serif" font-size="10.00">BigDataStatMeth::hdf5Group</text>
<text xml:space="preserve" text-anchor="middle" x="850.88" y="-127.75" font-family="Helvetica,sans-Serif" font-size="10.00">::getGroupName</text>
</a>
</g>
</g>
<!-- Node13&#45;&gt;Node18 -->
<g id="edge21_Node000013_Node000018" class="edge">
<title>Node13&#45;&gt;Node18</title>
<g id="a_edge21_Node000013_Node000018"><a xlink:title=" ">
<path fill="none" stroke="#63b8ff" d="M717.4,-293.61C721.74,-290.97 725.77,-287.87 729.25,-284.25 768.45,-243.52 725.28,-202.23 765.25,-162.25 766.83,-160.67 768.51,-159.18 770.27,-157.79"/>
<polygon fill="#63b8ff" stroke="#63b8ff" points="771.98,-160.85 778.39,-152.41 768.12,-155.02 771.98,-160.85"/>
</a>
</g>
</g>
<!-- Node19 -->
<g id="Node000019" class="node">
<title>Node19</title>
<g id="a_Node000019"><a xlink:href="namespace_big_data_stat_meth.html#a3d06783149029f1df2853c472d401380" target="_top" xlink:title="Removes multiple elements from an HDF5 file.">
<polygon fill="white" stroke="#666666" points="915.5,-201.5 786.25,-201.5 786.25,-171 915.5,-171 915.5,-201.5"/>
<text xml:space="preserve" text-anchor="start" x="794.25" y="-188" font-family="Helvetica,sans-Serif" font-size="10.00">BigDataStatMeth::remove</text>
<text xml:space="preserve" text-anchor="middle" x="850.88" y="-176.75" font-family="Helvetica,sans-Serif" font-size="10.00">_elements</text>
</a>
</g>
</g>
<!-- Node13&#45;&gt;Node19 -->
<g id="edge22_Node000013_Node000019" class="edge">
<title>Node13&#45;&gt;Node19</title>
<g id="a_edge22_Node000013_Node000019"><a xlink:title=" ">
<path fill="none" stroke="#63b8ff" d="M715.66,-293.53C720.54,-290.9 725.16,-287.83 729.25,-284.25 756.47,-260.42 737.58,-234.55 765.25,-211.25 768.49,-208.52 772.01,-206.09 775.72,-203.93"/>
<polygon fill="#63b8ff" stroke="#63b8ff" points="777.2,-207.1 784.56,-199.48 774.06,-200.85 777.2,-207.1"/>
</a>
</g>
</g>
<!-- Node20 -->
<g id="Node000020" class="node">
<title>Node20</title>
<g id="a_Node000020"><a xlink:href="class_big_data_stat_meth_1_1hdf5_dataset_internal.html#a349b08ecc0bed2df5283e56fb9e9d178" target="_top" xlink:title="Write data to the internal dataset.">
<polygon fill="white" stroke="#666666" points="926,-397.5 775.75,-397.5 775.75,-367 926,-367 926,-397.5"/>
<text xml:space="preserve" text-anchor="start" x="783.75" y="-384" font-family="Helvetica,sans-Serif" font-size="10.00">BigDataStatMeth::hdf5Dataset</text>
<text xml:space="preserve" text-anchor="middle" x="850.88" y="-372.75" font-family="Helvetica,sans-Serif" font-size="10.00">Internal::writeDataset</text>
</a>
</g>
</g>
<!-- Node13&#45;&gt;Node20 -->
<g id="edge23_Node000013_Node000020" class="edge">
<title>Node13&#45;&gt;Node20</title>
<g id="a_edge23_Node000013_Node000020"><a xlink:title=" ">
<path fill="none" stroke="#63b8ff" d="M687.94,-324.83C709.62,-334.8 738.79,-347.62 765.25,-357.25 770.83,-359.28 776.66,-361.27 782.53,-363.18"/>
<polygon fill="#63b8ff" stroke="#63b8ff" points="781.08,-366.39 791.67,-366.08 783.2,-359.72 781.08,-366.39"/>
</a>
</g>
</g>
<!-- Node16 -->
<g id="Node000016" class="node">
<title>Node16</title>
<g id="a_Node000016"><a xlink:href="namespace_big_data_stat_meth.html#abcaa4216cd52f03ebac42e4855ef846b" target="_top" xlink:title="Checks if a path exists in an HDF5 file.">
<polygon fill="white" stroke="#666666" points="1119.38,-293.88 975.88,-293.88 975.88,-274.62 1119.38,-274.62 1119.38,-293.88"/>
<text xml:space="preserve" text-anchor="middle" x="1047.62" y="-280.38" font-family="Helvetica,sans-Serif" font-size="10.00">BigDataStatMeth::pathExists</text>
</a>
</g>
</g>
<!-- Node15&#45;&gt;Node16 -->
<g id="edge18_Node000015_Node000016" class="edge">
<title>Node15&#45;&gt;Node16</title>
<g id="a_edge18_Node000015_Node000016"><a xlink:title=" ">
<path fill="none" stroke="#63b8ff" d="M914.3,-250.96C940.54,-257.56 970.69,-265.14 995.57,-271.41"/>
<polygon fill="#63b8ff" stroke="#63b8ff" points="994.59,-274.77 1005.14,-273.81 996.29,-267.98 994.59,-274.77"/>
</a>
</g>
</g>
<!-- Node17&#45;&gt;Node16 -->
<g id="edge20_Node000017_Node000016" class="edge">
<title>Node17&#45;&gt;Node16</title>
<g id="a_edge20_Node000017_Node000016"><a xlink:title=" ">
<path fill="none" stroke="#63b8ff" d="M912.96,-317.88C939.59,-311.18 970.43,-303.42 995.78,-297.04"/>
<polygon fill="#63b8ff" stroke="#63b8ff" points="996.33,-300.51 1005.18,-294.68 994.62,-293.72 996.33,-300.51"/>
</a>
</g>
</g>
<!-- Node21 -->
<g id="Node000021" class="node">
<title>Node21</title>
<g id="a_Node000021"><a xlink:href="class_big_data_stat_meth_1_1hdf5_dataset_internal.html#a91d48a0c7186c87eb0af78f426ce6a4d" target="_top" xlink:title="Close dataset and file.">
<polygon fill="white" stroke="#666666" points="1122.75,-446.5 972.5,-446.5 972.5,-416 1122.75,-416 1122.75,-446.5"/>
<text xml:space="preserve" text-anchor="start" x="980.5" y="-433" font-family="Helvetica,sans-Serif" font-size="10.00">BigDataStatMeth::hdf5Dataset</text>
<text xml:space="preserve" text-anchor="middle" x="1047.62" y="-421.75" font-family="Helvetica,sans-Serif" font-size="10.00">Internal::close_dataset_file</text>
</a>
</g>
</g>
<!-- Node20&#45;&gt;Node21 -->
<g id="edge24_Node000020_Node000021" class="edge">
<title>Node20&#45;&gt;Node21</title>
<g id="a_edge24_Node000020_Node000021"><a xlink:title=" ">
<path fill="none" stroke="#63b8ff" d="M914.3,-397.96C933.08,-402.68 953.86,-407.91 973.28,-412.8"/>
<polygon fill="#63b8ff" stroke="#63b8ff" points="972.2,-416.13 982.75,-415.18 973.91,-409.35 972.2,-416.13"/>
</a>
</g>
</g>
<!-- Node22 -->
<g id="Node000022" class="node">
<title>Node22</title>
<g id="a_Node000022"><a xlink:href="class_big_data_stat_meth_1_1hdf5_dataset_internal.html#a152c59a2a409e1883e3834a26170ed59" target="_top" xlink:title="Convert DataFrame to range list.">
<polygon fill="white" stroke="#666666" points="1122.75,-519.12 972.5,-519.12 972.5,-477.38 1122.75,-477.38 1122.75,-519.12"/>
<text xml:space="preserve" text-anchor="start" x="980.5" y="-505.62" font-family="Helvetica,sans-Serif" font-size="10.00">BigDataStatMeth::hdf5Dataset</text>
<text xml:space="preserve" text-anchor="start" x="980.5" y="-494.38" font-family="Helvetica,sans-Serif" font-size="10.00">Internal::convert_DataFrame</text>
<text xml:space="preserve" text-anchor="middle" x="1047.62" y="-483.12" font-family="Helvetica,sans-Serif" font-size="10.00">_to_RangeList</text>
</a>
</g>
</g>
<!-- Node20&#45;&gt;Node22 -->
<g id="edge25_Node000020_Node000022" class="edge">
<title>Node20&#45;&gt;Node22</title>
<g id="a_edge25_Node000020_Node000022"><a xlink:title=" ">
<path fill="none" stroke="#63b8ff" d="M919.77,-397.95C925.67,-400.59 931.34,-403.67 936.5,-407.25 958.4,-422.47 952.57,-437.54 972.5,-455.25 978.91,-460.95 986.2,-466.26 993.63,-471.07"/>
<polygon fill="#63b8ff" stroke="#63b8ff" points="991.44,-473.83 1001.79,-476.1 995.11,-467.87 991.44,-473.83"/>
</a>
</g>
</g>
<!-- Node26&#45;&gt;Node18 -->
<g id="edge30_Node000026_Node000018" class="edge">
<title>Node26&#45;&gt;Node18</title>
<g id="a_edge30_Node000026_Node000018"><a xlink:title=" ">
<path fill="none" stroke="#63b8ff" d="M707.27,-195.6C714.77,-192.8 722.3,-189.66 729.25,-186.25 746.51,-177.77 747.83,-170.4 765.25,-162.25 769.27,-160.37 773.47,-158.59 777.75,-156.92"/>
<polygon fill="#63b8ff" stroke="#63b8ff" points="778.89,-160.23 787.08,-153.51 776.49,-153.66 778.89,-160.23"/>
</a>
</g>
</g>
<!-- Node27&#45;&gt;Node21 -->
<g id="edge33_Node000027_Node000021" class="edge">
<title>Node27&#45;&gt;Node21</title>
<g id="a_edge33_Node000027_Node000021"><a xlink:title=" ">
<path fill="none" stroke="#63b8ff" d="M926.34,-431.25C937.61,-431.25 949.32,-431.25 960.81,-431.25"/>
<polygon fill="#63b8ff" stroke="#63b8ff" points="960.69,-434.75 970.69,-431.25 960.69,-427.75 960.69,-434.75"/>
</a>
</g>
</g>
<!-- Node28&#45;&gt;Node18 -->
<g id="edge35_Node000028_Node000018" class="edge">
<title>Node28&#45;&gt;Node18</title>
<g id="a_edge35_Node000028_Node000018"><a xlink:title=" ">
<path fill="none" stroke="#63b8ff" d="M715.66,-244.53C720.54,-241.9 725.16,-238.83 729.25,-235.25 756.47,-211.42 737.58,-185.55 765.25,-162.25 766.74,-160.99 768.29,-159.8 769.89,-158.67"/>
<polygon fill="#63b8ff" stroke="#63b8ff" points="771.52,-161.77 778.27,-153.6 767.9,-155.79 771.52,-161.77"/>
</a>
</g>
</g>
<!-- Node28&#45;&gt;Node19 -->
<g id="edge36_Node000028_Node000019" class="edge">
<title>Node28&#45;&gt;Node19</title>
<g id="a_edge36_Node000028_Node000019"><a xlink:title=" ">
<path fill="none" stroke="#63b8ff" d="M707.27,-244.6C714.77,-241.8 722.3,-238.66 729.25,-235.25 746.51,-226.77 747.83,-219.4 765.25,-211.25 769.27,-209.37 773.47,-207.59 777.75,-205.92"/>
<polygon fill="#63b8ff" stroke="#63b8ff" points="778.89,-209.23 787.08,-202.51 776.49,-202.66 778.89,-209.23"/>
</a>
</g>
</g>
<!-- Node30&#45;&gt;Node11 -->
<g id="edge43_Node000030_Node000011" class="edge">
<title>Node30&#45;&gt;Node11</title>
<g id="a_edge43_Node000030_Node000011"><a xlink:title=" ">
<path fill="none" stroke="#63b8ff" d="M675.96,-527.79C697.33,-543.02 732.05,-565.85 765.25,-579.25 770.75,-581.47 776.56,-583.46 782.45,-585.23"/>
<polygon fill="#63b8ff" stroke="#63b8ff" points="781.07,-588.48 791.64,-587.79 782.95,-581.73 781.07,-588.48"/>
</a>
</g>
</g>
<!-- Node30&#45;&gt;Node21 -->
<g id="edge41_Node000030_Node000021" class="edge">
<title>Node30&#45;&gt;Node21</title>
<g id="a_edge41_Node000030_Node000021"><a xlink:title=" ">
<path fill="none" stroke="#63b8ff" d="M729.54,-497.49C786.29,-486.15 866.38,-469.99 936.5,-455.25 945.52,-453.35 954.94,-451.34 964.32,-449.33"/>
<polygon fill="#63b8ff" stroke="#63b8ff" points="964.76,-452.81 973.8,-447.28 963.28,-445.97 964.76,-452.81"/>
</a>
</g>
</g>
<!-- Node30&#45;&gt;Node22 -->
<g id="edge42_Node000030_Node000022" class="edge">
<title>Node30&#45;&gt;Node22</title>
<g id="a_edge42_Node000030_Node000022"><a xlink:title=" ">
<path fill="none" stroke="#63b8ff" d="M729.68,-509.58C795.57,-507.23 891.65,-503.79 960.73,-501.32"/>
<polygon fill="#63b8ff" stroke="#63b8ff" points="960.63,-504.83 970.5,-500.97 960.38,-497.83 960.63,-504.83"/>
</a>
</g>
</g>
<!-- Node31 -->
<g id="Node000031" class="node">
<title>Node31</title>
<g id="a_Node000031"><a xlink:href="class_big_data_stat_meth_1_1hdf5_dataset_internal.html#a0453f8502bee6dd35be2ec196e9edc55" target="_top" xlink:title="Close the dataset.">
<polygon fill="white" stroke="#666666" points="926,-570.5 775.75,-570.5 775.75,-540 926,-540 926,-570.5"/>
<text xml:space="preserve" text-anchor="start" x="783.75" y="-557" font-family="Helvetica,sans-Serif" font-size="10.00">BigDataStatMeth::hdf5Dataset</text>
<text xml:space="preserve" text-anchor="middle" x="850.88" y="-545.75" font-family="Helvetica,sans-Serif" font-size="10.00">Internal::close_dataset</text>
</a>
</g>
</g>
<!-- Node30&#45;&gt;Node31 -->
<g id="edge40_Node000030_Node000031" class="edge">
<title>Node30&#45;&gt;Node31</title>
<g id="a_edge40_Node000030_Node000031"><a xlink:title=" ">
<path fill="none" stroke="#63b8ff" d="M726.26,-527.96C739.72,-530.93 753.91,-534.06 767.67,-537.1"/>
<polygon fill="#63b8ff" stroke="#63b8ff" points="766.61,-540.45 777.13,-539.19 768.12,-533.61 766.61,-540.45"/>
</a>
</g>
</g>
</g>
</svg>

<g id="navigator" transform="translate(0 0)" fill="#404254">
  <rect fill="#f2f5e9" fill-opacity="0.5" stroke="#606060" stroke-width=".5" x="0" y="0" width="60" height="60"/>
  <use id="zoomplus" xlink:href="#zoomPlus" x="17" y="9" onmousedown="handleZoom(evt,'in')"/>
  <use id="zoomminus" xlink:href="#zoomMin" x="42" y="9" onmousedown="handleZoom(evt,'out')"/>
  <use id="reset" xlink:href="#resetDef" x="30" y="36" onmousedown="handleReset()"/>
   <use id="arrowup" xlink:href="#arrowUp" x="0" y="0" onmousedown="handlePan(0,-1)"/>
  <use id="arrowright" xlink:href="#arrowRight" x="0" y="0" onmousedown="handlePan(1,0)"/>
  <use id="arrowdown" xlink:href="#arrowDown" x="0" y="0" onmousedown="handlePan(0,1)"/>
  <use id="arrowleft" xlink:href="#arrowLeft" x="0" y="0" onmousedown="handlePan(-1,0)"/>
</g>
<svg viewBox="0 0 15 15" width="100%" height="30px" preserveAspectRatio="xMaxYMin meet">
 <g id="arrow_out" transform="scale(0.3 0.3)">
  <a xlink:href="namespace_big_data_stat_meth_ae8d25f004dda1092024887ac00e3cadb_cgraph_org.svg" target="_base">
   <rect id="button" ry="5" rx="5" y="6" x="6" height="38" width="38"
        fill="#f2f5e9" fill-opacity="0.5" stroke="#606060" stroke-width="1.0"/>
   <path id="arrow"
     d="M 11.500037,31.436501 C 11.940474,20.09759 22.043105,11.32322 32.158766,21.979434 L 37.068811,17.246167 C 37.068811,17.246167 37.088388,32 37.088388,32 L 22.160133,31.978069 C 22.160133,31.978069 26.997745,27.140456 26.997745,27.140456 C 18.528582,18.264221 13.291696,25.230495 11.500037,31.436501 z"
     style="fill:#404040;"/>
  </a>
 </g>
</svg>

<style type='text/css'>
<![CDATA[
[data-mouse-over-selected='false'] { opacity: 0.7; }
[data-mouse-over-selected='true']  { opacity: 1.0; }
]]>
</style>
<script type="application/ecmascript"><![CDATA[
document.addEventListener('DOMContentLoaded', (event) => {
  highlightEdges();
  highlightAdjacentNodes();
});
]]></script>
</svg>
