<?xml version="1.0" encoding="UTF-8" standalone="no"?>
<!DOCTYPE svg PUBLIC "-//W3C//DTD SVG 1.1//EN"
 "http://www.w3.org/Graphics/SVG/1.1/DTD/svg11.dtd">
<!-- Generated by graphviz version 14.0.0 (20250921.2048)
 -->
<!-- Title: BigDataStatMeth::getOptimBlockSize Pages: 1 -->
<!--zoomable 719 -->

<svg id="main" version="1.1" xmlns="http://www.w3.org/2000/svg" xmlns:xlink="http://www.w3.org/1999/xlink" xml:space="preserve" onload="init(evt)">

<style type="text/css"><![CDATA[
.node, .edge {opacity: 0.7;}
.node.selected, .edge.selected {opacity: 1;}
.edge:hover path { stroke: red; }
.edge:hover polygon { stroke: red; fill: red; }
]]></style>

<defs>
  <circle id="rim" cx="0" cy="0" r="7"/>
  <circle id="rim2" cx="0" cy="0" r="3.5"/>
  <g id="zoomPlus">
    <use xlink:href="#rim" fill="#404040"><set attributeName="fill" to="#808080" begin="zoomplus.mouseover" end="zoomplus.mouseout"/></use>
    <path d="M-4,0h8M0,-4v8" fill="none" stroke="white" stroke-width="1.5" pointer-events="none"/>
  </g>
  <g id="zoomMin">
    <use xlink:href="#rim" fill="#404040"><set attributeName="fill" to="#808080" begin="zoomminus.mouseover" end="zoomminus.mouseout"/></use>
    <path d="M-4,0h8" fill="none" stroke="white" stroke-width="1.5" pointer-events="none"/>
  </g>
  <g id="arrowUp" transform="translate(30 24)">
    <use xlink:href="#rim"/>
    <path pointer-events="none" fill="none" stroke="white" stroke-width="1.5" d="M0,-3.0v7 M-2.5,-0.5L0,-3.0L2.5,-0.5"/>
  </g>
  <g id="arrowRight" transform="rotate(90) translate(36 -43)">
    <use xlink:href="#rim"/>
    <path pointer-events="none" fill="none" stroke="white" stroke-width="1.5" d="M0,-3.0v7 M-2.5,-0.5L0,-3.0L2.5,-0.5"/>
  </g>
  <g id="arrowDown" transform="rotate(180) translate(-30 -48)">
    <use xlink:href="#rim"/>
    <path pointer-events="none" fill="none" stroke="white" stroke-width="1.5" d="M0,-3.0v7 M-2.5,-0.5L0,-3.0L2.5,-0.5"/>
  </g>
  <g id="arrowLeft" transform="rotate(270) translate(-36 17)">
    <use xlink:href="#rim"/>
    <path pointer-events="none" fill="none" stroke="white" stroke-width="1.5" d="M0,-3.0v7 M-2.5,-0.5L0,-3.0L2.5,-0.5"/>
  </g>
  <g id="resetDef">
    <use xlink:href="#rim2" fill="#404040"><set attributeName="fill" to="#808080" begin="reset.mouseover" end="reset.mouseout"/></use>
  </g>
</defs>
<script type="application/ecmascript">
var viewWidth = 1325;
var viewHeight = 719;
var sectionId = 'dynsection-55';
</script>
<script type="application/ecmascript" xlink:href="../../../../assets/svg.min.js"/>
<svg id="graph" class="graph">
<g id="viewport">
<title>BigDataStatMeth::getOptimBlockSize</title>
<!-- Node1 -->
<g id="Node000001" class="node">
<title>Node1</title>
<g id="a_Node000001"><a xlink:title="Optimizes block size for edge cases.">
<polygon fill="#999999" stroke="#666666" points="1317.25,-226.88 1180.5,-226.88 1180.5,-196.38 1317.25,-196.38 1317.25,-226.88"/>
<text xml:space="preserve" text-anchor="start" x="1188.5" y="-213.38" font-family="Helvetica,sans-Serif" font-size="10.00">BigDataStatMeth::getOptim</text>
<text xml:space="preserve" text-anchor="middle" x="1248.88" y="-202.12" font-family="Helvetica,sans-Serif" font-size="10.00">BlockSize</text>
</a>
</g>
</g>
<!-- Node2 -->
<g id="Node000002" class="node">
<title>Node2</title>
<g id="a_Node000002"><a xlink:href="namespace_big_data_stat_meth.html#ae7e4660ebbdf221a371a7bcabce9e69c" target="_top" xlink:title="Computes the cross&#45;product of two matrices stored in HDF5 format.">
<polygon fill="white" stroke="#666666" points="1144.5,-387.25 1004.75,-387.25 1004.75,-368 1144.5,-368 1144.5,-387.25"/>
<text xml:space="preserve" text-anchor="middle" x="1074.62" y="-373.75" font-family="Helvetica,sans-Serif" font-size="10.00">BigDataStatMeth::crossprod</text>
</a>
</g>
</g>
<!-- Node1&#45;&gt;Node2 -->
<g id="edge1_Node000001_Node000002" class="edge">
<title>Node1&#45;&gt;Node2</title>
<g id="a_edge1_Node000001_Node000002"><a xlink:title=" ">
<path fill="none" stroke="#63b8ff" d="M1236.59,-237.42C1220.8,-270.5 1188.96,-327.32 1144.5,-358.62 1139.33,-362.27 1133.48,-365.21 1127.44,-367.59"/>
<polygon fill="#63b8ff" stroke="#63b8ff" points="1239.67,-239.1 1240.69,-228.56 1233.32,-236.16 1239.67,-239.1"/>
</a>
</g>
</g>
<!-- Node3 -->
<g id="Node000003" class="node">
<title>Node3</title>
<g id="a_Node000003"><a xlink:href="namespace_big_data_stat_meth.html#af64ef9879e2404a9490e6a93f7bc8807" target="_top" xlink:title="Calculate block positions and sizes for matrix operations.">
<polygon fill="white" stroke="#666666" points="1142.25,-349.88 1007,-349.88 1007,-319.38 1142.25,-319.38 1142.25,-349.88"/>
<text xml:space="preserve" text-anchor="start" x="1015" y="-336.38" font-family="Helvetica,sans-Serif" font-size="10.00">BigDataStatMeth::getBlock</text>
<text xml:space="preserve" text-anchor="middle" x="1074.62" y="-325.12" font-family="Helvetica,sans-Serif" font-size="10.00">PositionsSizes</text>
</a>
</g>
</g>
<!-- Node1&#45;&gt;Node3 -->
<g id="edge2_Node000001_Node000003" class="edge">
<title>Node1&#45;&gt;Node3</title>
<g id="a_edge2_Node000001_Node000003"><a xlink:title=" ">
<path fill="none" stroke="#63b8ff" d="M1216.93,-233.72C1182.51,-258.3 1127.79,-297.38 1097.53,-318.98"/>
<polygon fill="#63b8ff" stroke="#63b8ff" points="1218.72,-236.74 1224.83,-228.08 1214.66,-231.05 1218.72,-236.74"/>
</a>
</g>
</g>
<!-- Node21 -->
<g id="Node000021" class="node">
<title>Node21</title>
<g id="a_Node000021"><a xlink:href="namespace_big_data_stat_meth.html#a4532de3ac207a552febd7174eaa5e58f" target="_top" xlink:title="Calculate block positions and sizes for HDF5 matrix operations.">
<polygon fill="white" stroke="#666666" points="1142.25,-104.88 1007,-104.88 1007,-74.38 1142.25,-74.38 1142.25,-104.88"/>
<text xml:space="preserve" text-anchor="start" x="1015" y="-91.38" font-family="Helvetica,sans-Serif" font-size="10.00">BigDataStatMeth::getBlock</text>
<text xml:space="preserve" text-anchor="middle" x="1074.62" y="-80.12" font-family="Helvetica,sans-Serif" font-size="10.00">PositionsSizes_hdf5</text>
</a>
</g>
</g>
<!-- Node1&#45;&gt;Node21 -->
<g id="edge22_Node000001_Node000021" class="edge">
<title>Node1&#45;&gt;Node21</title>
<g id="a_edge22_Node000001_Node000021"><a xlink:title=" ">
<path fill="none" stroke="#63b8ff" d="M1216.58,-189.46C1182.21,-165.12 1127.89,-126.64 1097.71,-105.26"/>
<polygon fill="#63b8ff" stroke="#63b8ff" points="1214.29,-192.13 1224.47,-195.05 1218.34,-186.41 1214.29,-192.13"/>
</a>
</g>
</g>
<!-- Node25 -->
<g id="Node000025" class="node">
<title>Node25</title>
<g id="a_Node000025"><a xlink:href="namespace_big_data_stat_meth.html#ad906566c91fca82f6ff5e76098d9d098" target="_top" xlink:title="Calculate block positions and sizes for matrix operations.">
<polygon fill="white" stroke="#666666" points="1142.25,-55.88 1007,-55.88 1007,-25.38 1142.25,-25.38 1142.25,-55.88"/>
<text xml:space="preserve" text-anchor="start" x="1015" y="-42.38" font-family="Helvetica,sans-Serif" font-size="10.00">BigDataStatMeth::getBlock</text>
<text xml:space="preserve" text-anchor="middle" x="1074.62" y="-31.12" font-family="Helvetica,sans-Serif" font-size="10.00">PositionsSizes_mat</text>
</a>
</g>
</g>
<!-- Node1&#45;&gt;Node25 -->
<g id="edge26_Node000001_Node000025" class="edge">
<title>Node1&#45;&gt;Node25</title>
<g id="a_edge26_Node000001_Node000025"><a xlink:title=" ">
<path fill="none" stroke="#63b8ff" d="M1235.91,-186.03C1219.56,-153.68 1187.32,-98.28 1144.5,-65.62 1139.85,-62.08 1134.64,-59 1129.23,-56.33"/>
<polygon fill="#63b8ff" stroke="#63b8ff" points="1232.61,-187.27 1240.17,-194.7 1238.9,-184.18 1232.61,-187.27"/>
</a>
</g>
</g>
<!-- Node4 -->
<g id="Node000004" class="node">
<title>Node4</title>
<g id="a_Node000004"><a xlink:href="namespace_big_data_stat_meth.html#a180c07885da3c3a9e7e218e82e14e81e" target="_top" xlink:title="Block&#45;based matrix multiplication.">
<polygon fill="white" stroke="#666666" points="951.88,-664.88 831.62,-664.88 831.62,-634.38 951.88,-634.38 951.88,-664.88"/>
<text xml:space="preserve" text-anchor="start" x="839.62" y="-651.38" font-family="Helvetica,sans-Serif" font-size="10.00">BigDataStatMeth::Rcpp</text>
<text xml:space="preserve" text-anchor="middle" x="891.75" y="-640.12" font-family="Helvetica,sans-Serif" font-size="10.00">_block_matrix_mul</text>
</a>
</g>
</g>
<!-- Node3&#45;&gt;Node4 -->
<g id="edge3_Node000003_Node000004" class="edge">
<title>Node3&#45;&gt;Node4</title>
<g id="a_edge3_Node000003_Node000004"><a xlink:title=" ">
<path fill="none" stroke="#63b8ff" d="M1005.51,-357.73C1005.25,-358.02 1005,-358.32 1004.75,-358.62 929.27,-451.01 1045.03,-532.9 968.75,-624.62 964.22,-630.07 958.48,-634.34 952.19,-637.68"/>
<polygon fill="#63b8ff" stroke="#63b8ff" points="1007.69,-360.47 1012.78,-351.18 1003.01,-355.27 1007.69,-360.47"/>
</a>
</g>
</g>
<!-- Node10 -->
<g id="Node000010" class="node">
<title>Node10</title>
<g id="a_Node000010"><a xlink:href="namespace_big_data_stat_meth.html#a9597ad045ffee7645878c00c579a7139" target="_top" xlink:title="Parallel block&#45;based matrix multiplication.">
<polygon fill="white" stroke="#666666" points="958.62,-615.88 824.88,-615.88 824.88,-585.38 958.62,-585.38 958.62,-615.88"/>
<text xml:space="preserve" text-anchor="start" x="832.88" y="-602.38" font-family="Helvetica,sans-Serif" font-size="10.00">BigDataStatMeth::Rcpp</text>
<text xml:space="preserve" text-anchor="middle" x="891.75" y="-591.12" font-family="Helvetica,sans-Serif" font-size="10.00">_block_matrix_mul_parallel</text>
</a>
</g>
</g>
<!-- Node3&#45;&gt;Node10 -->
<g id="edge10_Node000003_Node000010" class="edge">
<title>Node3&#45;&gt;Node10</title>
<g id="a_edge10_Node000003_Node000010"><a xlink:title=" ">
<path fill="none" stroke="#63b8ff" d="M1005.52,-357.74C1005.26,-358.03 1005,-358.33 1004.75,-358.62 941.77,-433.4 1032.38,-501.4 968.75,-575.62 965.68,-579.21 962.08,-582.28 958.15,-584.92"/>
<polygon fill="#63b8ff" stroke="#63b8ff" points="1007.69,-360.49 1012.88,-351.26 1003.06,-355.24 1007.69,-360.49"/>
</a>
</g>
</g>
<!-- Node12 -->
<g id="Node000012" class="node">
<title>Node12</title>
<g id="a_Node000012"><a xlink:href="namespace_big_data_stat_meth.html#add3e7c6e17615743bebb831769594bb7" target="_top" xlink:title="Block&#45;based matrix subtraction for HDF5 matrices.">
<polygon fill="white" stroke="#666666" points="965,-566.88 818.5,-566.88 818.5,-536.38 965,-536.38 965,-566.88"/>
<text xml:space="preserve" text-anchor="start" x="826.5" y="-553.38" font-family="Helvetica,sans-Serif" font-size="10.00">BigDataStatMeth::Rcpp</text>
<text xml:space="preserve" text-anchor="middle" x="891.75" y="-542.12" font-family="Helvetica,sans-Serif" font-size="10.00">_block_matrix_substract_hdf5</text>
</a>
</g>
</g>
<!-- Node3&#45;&gt;Node12 -->
<g id="edge13_Node000003_Node000012" class="edge">
<title>Node3&#45;&gt;Node12</title>
<g id="a_edge13_Node000003_Node000012"><a xlink:title=" ">
<path fill="none" stroke="#63b8ff" d="M1005.84,-357.43C1005.47,-357.82 1005.11,-358.22 1004.75,-358.62 954.21,-415.87 1019.79,-469.83 968.75,-526.62 965.5,-530.24 961.72,-533.34 957.61,-535.98"/>
<polygon fill="#63b8ff" stroke="#63b8ff" points="1007.92,-360.26 1013.34,-351.16 1003.42,-354.89 1007.92,-360.26"/>
</a>
</g>
</g>
<!-- Node13 -->
<g id="Node000013" class="node">
<title>Node13</title>
<g id="a_Node000013"><a xlink:href="namespace_big_data_stat_meth.html#adca1fe834710ee0e3307197c31b6c76a" target="_top" xlink:title="Block&#45;based matrix addition for HDF5 matrices.">
<polygon fill="white" stroke="#666666" points="954.12,-517.88 829.38,-517.88 829.38,-487.38 954.12,-487.38 954.12,-517.88"/>
<text xml:space="preserve" text-anchor="start" x="837.38" y="-504.38" font-family="Helvetica,sans-Serif" font-size="10.00">BigDataStatMeth::Rcpp</text>
<text xml:space="preserve" text-anchor="middle" x="891.75" y="-493.12" font-family="Helvetica,sans-Serif" font-size="10.00">_block_matrix_sum_hdf5</text>
</a>
</g>
</g>
<!-- Node3&#45;&gt;Node13 -->
<g id="edge14_Node000003_Node000013" class="edge">
<title>Node3&#45;&gt;Node13</title>
<g id="a_edge14_Node000003_Node000013"><a xlink:title=" ">
<path fill="none" stroke="#63b8ff" d="M1006.22,-357.16C1005.72,-357.63 1005.23,-358.12 1004.75,-358.62 966.25,-398.85 1007.84,-438.97 968.75,-478.62 964.57,-482.86 959.66,-486.35 954.36,-489.23"/>
<polygon fill="#63b8ff" stroke="#63b8ff" points="1008.17,-360.07 1013.92,-351.17 1003.87,-354.55 1008.17,-360.07"/>
</a>
</g>
</g>
<!-- Node14 -->
<g id="Node000014" class="node">
<title>Node14</title>
<g id="a_Node000014"><a xlink:href="namespace_big_data_stat_meth.html#a42258f236bbc70f0e637f3883915d772" target="_top" xlink:title="Block&#45;based matrix&#45;vector subtraction for HDF5 matrices.">
<polygon fill="white" stroke="#666666" points="951.88,-469.5 831.62,-469.5 831.62,-427.75 951.88,-427.75 951.88,-469.5"/>
<text xml:space="preserve" text-anchor="start" x="839.62" y="-456" font-family="Helvetica,sans-Serif" font-size="10.00">BigDataStatMeth::Rcpp</text>
<text xml:space="preserve" text-anchor="start" x="839.62" y="-444.75" font-family="Helvetica,sans-Serif" font-size="10.00">_block_matrix_vector</text>
<text xml:space="preserve" text-anchor="middle" x="891.75" y="-433.5" font-family="Helvetica,sans-Serif" font-size="10.00">_substract_hdf5</text>
</a>
</g>
</g>
<!-- Node3&#45;&gt;Node14 -->
<g id="edge15_Node000003_Node000014" class="edge">
<title>Node3&#45;&gt;Node14</title>
<g id="a_edge15_Node000003_Node000014"><a xlink:title=" ">
<path fill="none" stroke="#63b8ff" d="M1008.17,-356.03C1007,-356.86 1005.86,-357.73 1004.75,-358.62 980.62,-378.25 992.47,-398.52 968.75,-418.62 963.77,-422.84 958.13,-426.52 952.22,-429.7"/>
<polygon fill="#63b8ff" stroke="#63b8ff" points="1009.66,-359.21 1016.37,-351.01 1006.01,-353.24 1009.66,-359.21"/>
</a>
</g>
</g>
<!-- Node15 -->
<g id="Node000015" class="node">
<title>Node15</title>
<g id="a_Node000015"><a xlink:href="namespace_big_data_stat_meth.html#aefec6235cbdf8698782ef6040cda64ac" target="_top" xlink:title="Block&#45;based matrix&#45;vector addition for HDF5 matrices.">
<polygon fill="white" stroke="#666666" points="951.88,-409.5 831.62,-409.5 831.62,-367.75 951.88,-367.75 951.88,-409.5"/>
<text xml:space="preserve" text-anchor="start" x="839.62" y="-396" font-family="Helvetica,sans-Serif" font-size="10.00">BigDataStatMeth::Rcpp</text>
<text xml:space="preserve" text-anchor="start" x="839.62" y="-384.75" font-family="Helvetica,sans-Serif" font-size="10.00">_block_matrix_vector</text>
<text xml:space="preserve" text-anchor="middle" x="891.75" y="-373.5" font-family="Helvetica,sans-Serif" font-size="10.00">_sum_hdf5</text>
</a>
</g>
</g>
<!-- Node3&#45;&gt;Node15 -->
<g id="edge16_Node000003_Node000015" class="edge">
<title>Node3&#45;&gt;Node15</title>
<g id="a_edge16_Node000003_Node000015"><a xlink:title=" ">
<path fill="none" stroke="#63b8ff" d="M1010.42,-353.49C991.54,-359.13 970.91,-365.29 952.27,-370.86"/>
<polygon fill="#63b8ff" stroke="#63b8ff" points="1011.28,-356.89 1019.86,-350.68 1009.27,-350.18 1011.28,-356.89"/>
</a>
</g>
</g>
<!-- Node16 -->
<g id="Node000016" class="node">
<title>Node16</title>
<g id="a_Node000016"><a xlink:href="namespace_big_data_stat_meth.html#a74c883fbeaa1a64e7f3153d99b49331d" target="_top" xlink:title="Block&#45;based matrix subtraction.">
<polygon fill="white" stroke="#666666" points="951.88,-349.88 831.62,-349.88 831.62,-319.38 951.88,-319.38 951.88,-349.88"/>
<text xml:space="preserve" text-anchor="start" x="839.62" y="-336.38" font-family="Helvetica,sans-Serif" font-size="10.00">BigDataStatMeth::Rcpp</text>
<text xml:space="preserve" text-anchor="middle" x="891.75" y="-325.12" font-family="Helvetica,sans-Serif" font-size="10.00">_matrix_blockSubstract</text>
</a>
</g>
</g>
<!-- Node3&#45;&gt;Node16 -->
<g id="edge17_Node000003_Node000016" class="edge">
<title>Node3&#45;&gt;Node16</title>
<g id="a_edge17_Node000003_Node000016"><a xlink:title=" ">
<path fill="none" stroke="#63b8ff" d="M995.13,-334.62C980.76,-334.62 965.98,-334.62 952.28,-334.62"/>
<polygon fill="#63b8ff" stroke="#63b8ff" points="995.02,-338.13 1005.02,-334.63 995.02,-331.13 995.02,-338.13"/>
</a>
</g>
</g>
<!-- Node17 -->
<g id="Node000017" class="node">
<title>Node17</title>
<g id="a_Node000017"><a xlink:href="namespace_big_data_stat_meth.html#a976fa99d75a6c57b1bbd1df4e67f235c" target="_top" xlink:title="Block&#45;based matrix addition implementation.">
<polygon fill="white" stroke="#666666" points="951.88,-300.88 831.62,-300.88 831.62,-270.38 951.88,-270.38 951.88,-300.88"/>
<text xml:space="preserve" text-anchor="start" x="839.62" y="-287.38" font-family="Helvetica,sans-Serif" font-size="10.00">BigDataStatMeth::Rcpp</text>
<text xml:space="preserve" text-anchor="middle" x="891.75" y="-276.12" font-family="Helvetica,sans-Serif" font-size="10.00">_matrix_blockSum</text>
</a>
</g>
</g>
<!-- Node3&#45;&gt;Node17 -->
<g id="edge18_Node000003_Node000017" class="edge">
<title>Node3&#45;&gt;Node17</title>
<g id="a_edge18_Node000003_Node000017"><a xlink:title=" ">
<path fill="none" stroke="#63b8ff" d="M1004.97,-316.03C987.14,-311.19 968.1,-306.04 950.86,-301.37"/>
<polygon fill="#63b8ff" stroke="#63b8ff" points="1003.87,-319.35 1014.44,-318.59 1005.7,-312.6 1003.87,-319.35"/>
</a>
</g>
</g>
<!-- Node18 -->
<g id="Node000018" class="node">
<title>Node18</title>
<g id="a_Node000018"><a xlink:href="namespace_big_data_stat_meth.html#adb11d884528cecbc7cc403848680b101" target="_top" xlink:title="Block&#45;based matrix&#45;vector multiplication.">
<polygon fill="white" stroke="#666666" points="955.62,-251.88 827.88,-251.88 827.88,-221.38 955.62,-221.38 955.62,-251.88"/>
<text xml:space="preserve" text-anchor="start" x="835.88" y="-238.38" font-family="Helvetica,sans-Serif" font-size="10.00">BigDataStatMeth::Rcpp</text>
<text xml:space="preserve" text-anchor="middle" x="891.75" y="-227.12" font-family="Helvetica,sans-Serif" font-size="10.00">_matrix_vector_blockMult</text>
</a>
</g>
</g>
<!-- Node3&#45;&gt;Node18 -->
<g id="edge19_Node000003_Node000018" class="edge">
<title>Node3&#45;&gt;Node18</title>
<g id="a_edge19_Node000003_Node000018"><a xlink:title=" ">
<path fill="none" stroke="#63b8ff" d="M1045.97,-312.03C1025.59,-296.24 996.68,-275.57 968.75,-261.62 961.91,-258.21 954.51,-255.11 947.09,-252.35"/>
<polygon fill="#63b8ff" stroke="#63b8ff" points="1043.76,-314.74 1053.78,-318.18 1048.09,-309.24 1043.76,-314.74"/>
</a>
</g>
</g>
<!-- Node19 -->
<g id="Node000019" class="node">
<title>Node19</title>
<g id="a_Node000019"><a xlink:href="namespace_big_data_stat_meth.html#adf046c6253bc868ddc74e25467bad8d9" target="_top" xlink:title="Block&#45;based matrix&#45;vector subtraction.">
<polygon fill="white" stroke="#666666" points="967.25,-202.88 816.25,-202.88 816.25,-172.38 967.25,-172.38 967.25,-202.88"/>
<text xml:space="preserve" text-anchor="start" x="824.25" y="-189.38" font-family="Helvetica,sans-Serif" font-size="10.00">BigDataStatMeth::Rcpp</text>
<text xml:space="preserve" text-anchor="middle" x="891.75" y="-178.12" font-family="Helvetica,sans-Serif" font-size="10.00">_matrix_vector_blockSubstract</text>
</a>
</g>
</g>
<!-- Node3&#45;&gt;Node19 -->
<g id="edge20_Node000003_Node000019" class="edge">
<title>Node3&#45;&gt;Node19</title>
<g id="a_edge20_Node000003_Node000019"><a xlink:title=" ">
<path fill="none" stroke="#63b8ff" d="M1058.32,-309.82C1040.16,-282.33 1007.42,-238.48 968.75,-212.62 963.44,-209.07 957.58,-205.99 951.55,-203.33"/>
<polygon fill="#63b8ff" stroke="#63b8ff" points="1055.16,-311.36 1063.52,-317.87 1061.04,-307.57 1055.16,-311.36"/>
</a>
</g>
</g>
<!-- Node20 -->
<g id="Node000020" class="node">
<title>Node20</title>
<g id="a_Node000020"><a xlink:href="namespace_big_data_stat_meth.html#a2fb9cee8a6e5ad95884c7d9760e014d9" target="_top" xlink:title="Block&#45;based matrix&#45;vector addition with parallel processing.">
<polygon fill="white" stroke="#666666" points="956.38,-153.88 827.12,-153.88 827.12,-123.38 956.38,-123.38 956.38,-153.88"/>
<text xml:space="preserve" text-anchor="start" x="835.12" y="-140.38" font-family="Helvetica,sans-Serif" font-size="10.00">BigDataStatMeth::Rcpp</text>
<text xml:space="preserve" text-anchor="middle" x="891.75" y="-129.12" font-family="Helvetica,sans-Serif" font-size="10.00">_matrix_vector_blockSum</text>
</a>
</g>
</g>
<!-- Node3&#45;&gt;Node20 -->
<g id="edge21_Node000003_Node000020" class="edge">
<title>Node3&#45;&gt;Node20</title>
<g id="a_edge21_Node000003_Node000020"><a xlink:title=" ">
<path fill="none" stroke="#63b8ff" d="M1064.36,-308.57C1049.75,-271.17 1017.89,-202.49 968.75,-163.62 964.17,-160.01 959.05,-156.9 953.69,-154.24"/>
<polygon fill="#63b8ff" stroke="#63b8ff" points="1060.99,-309.58 1067.8,-317.69 1067.54,-307.1 1060.99,-309.58"/>
</a>
</g>
</g>
<!-- Node5 -->
<g id="Node000005" class="node">
<title>Node5</title>
<g id="a_Node000005"><a xlink:href="namespace_big_data_stat_meth.html#a8230fb3b686276464c16ed444be03d22" target="_top" xlink:title=" ">
<polygon fill="white" stroke="#666666" points="778.75,-710.88 597.75,-710.88 597.75,-680.38 778.75,-680.38 778.75,-710.88"/>
<text xml:space="preserve" text-anchor="start" x="605.75" y="-697.38" font-family="Helvetica,sans-Serif" font-size="10.00">BigDataStatMeth::First</text>
<text xml:space="preserve" text-anchor="middle" x="688.25" y="-686.12" font-family="Helvetica,sans-Serif" font-size="10.00">_level_SvdBlock_decomposition_hdf5</text>
</a>
</g>
</g>
<!-- Node4&#45;&gt;Node5 -->
<g id="edge4_Node000004_Node000005" class="edge">
<title>Node4&#45;&gt;Node5</title>
<g id="a_edge4_Node000004_Node000005"><a xlink:title=" ">
<path fill="none" stroke="#63b8ff" d="M820.38,-665.69C800.19,-670.3 778.21,-675.32 758.12,-679.9"/>
<polygon fill="#63b8ff" stroke="#63b8ff" points="820.94,-669.15 829.91,-663.51 819.38,-662.33 820.94,-669.15"/>
</a>
</g>
</g>
<!-- Node9 -->
<g id="Node000009" class="node">
<title>Node9</title>
<g id="a_Node000009"><a xlink:href="namespace_big_data_stat_meth.html#aba547c198a44e235965333df9d1dc146" target="_top" xlink:title=" ">
<polygon fill="white" stroke="#666666" points="778.75,-661.88 597.75,-661.88 597.75,-631.38 778.75,-631.38 778.75,-661.88"/>
<text xml:space="preserve" text-anchor="start" x="605.75" y="-648.38" font-family="Helvetica,sans-Serif" font-size="10.00">BigDataStatMeth::Next</text>
<text xml:space="preserve" text-anchor="middle" x="688.25" y="-637.12" font-family="Helvetica,sans-Serif" font-size="10.00">_level_SvdBlock_decomposition_hdf5</text>
</a>
</g>
</g>
<!-- Node4&#45;&gt;Node9 -->
<g id="edge8_Node000004_Node000009" class="edge">
<title>Node4&#45;&gt;Node9</title>
<g id="a_edge8_Node000004_Node000009"><a xlink:title=" ">
<path fill="none" stroke="#63b8ff" d="M820.01,-648.57C806.82,-648.38 792.88,-648.17 779.2,-647.96"/>
<polygon fill="#63b8ff" stroke="#63b8ff" points="819.82,-652.07 829.87,-648.72 819.92,-645.07 819.82,-652.07"/>
</a>
</g>
</g>
<!-- Node6 -->
<g id="Node000006" class="node">
<title>Node6</title>
<g id="a_Node000006"><a xlink:href="namespace_big_data_stat_meth.html#afbf517649a66c749830f33e4273857a7" target="_top" xlink:title="Block&#45;wise SVD decomposition for large HDF5 matrices.">
<polygon fill="white" stroke="#666666" points="561.75,-661.88 410,-661.88 410,-631.38 561.75,-631.38 561.75,-661.88"/>
<text xml:space="preserve" text-anchor="start" x="418" y="-648.38" font-family="Helvetica,sans-Serif" font-size="10.00">BigDataStatMeth::RcppbdSVD</text>
<text xml:space="preserve" text-anchor="middle" x="485.88" y="-637.12" font-family="Helvetica,sans-Serif" font-size="10.00">_hdf5_Block</text>
</a>
</g>
</g>
<!-- Node5&#45;&gt;Node6 -->
<g id="edge5_Node000005_Node000006" class="edge">
<title>Node5&#45;&gt;Node6</title>
<g id="a_edge5_Node000005_Node000006"><a xlink:title=" ">
<path fill="none" stroke="#63b8ff" d="M612.05,-677.23C591.98,-672.33 570.49,-667.07 551.08,-662.33"/>
<polygon fill="#63b8ff" stroke="#63b8ff" points="611.01,-680.58 621.55,-679.56 612.67,-673.78 611.01,-680.58"/>
</a>
</g>
</g>
<!-- Node7 -->
<g id="Node000007" class="node">
<title>Node7</title>
<g id="a_Node000007"><a xlink:href="namespace_big_data_stat_meth.html#a05d2196df8a68f19b986fd06d8812e84" target="_top" xlink:title="Main SVD computation function for HDF5 matrices.">
<polygon fill="white" stroke="#666666" points="374,-656.25 198.25,-656.25 198.25,-637 374,-637 374,-656.25"/>
<text xml:space="preserve" text-anchor="middle" x="286.12" y="-642.75" font-family="Helvetica,sans-Serif" font-size="10.00">BigDataStatMeth::RcppbdSVD_hdf5</text>
</a>
</g>
</g>
<!-- Node6&#45;&gt;Node7 -->
<g id="edge6_Node000006_Node000007" class="edge">
<title>Node6&#45;&gt;Node7</title>
<g id="a_edge6_Node000006_Node000007"><a xlink:title=" ">
<path fill="none" stroke="#63b8ff" d="M398.15,-646.62C390.3,-646.62 382.34,-646.62 374.49,-646.62"/>
<polygon fill="#63b8ff" stroke="#63b8ff" points="398.04,-650.13 408.04,-646.63 398.04,-643.13 398.04,-650.13"/>
</a>
</g>
</g>
<!-- Node8 -->
<g id="Node000008" class="node">
<title>Node8</title>
<g id="a_Node000008"><a xlink:href="namespace_big_data_stat_meth.html#ad6b05b5b52e05bd7801b03ba6008980d" target="_top" xlink:title="Perform Principal Component Analysis.">
<polygon fill="white" stroke="#666666" points="162.25,-656.25 0,-656.25 0,-637 162.25,-637 162.25,-656.25"/>
<text xml:space="preserve" text-anchor="middle" x="81.12" y="-642.75" font-family="Helvetica,sans-Serif" font-size="10.00">BigDataStatMeth::RcppPCAHdf5</text>
</a>
</g>
</g>
<!-- Node7&#45;&gt;Node8 -->
<g id="edge7_Node000007_Node000008" class="edge">
<title>Node7&#45;&gt;Node8</title>
<g id="a_edge7_Node000007_Node000008"><a xlink:title=" ">
<path fill="none" stroke="#63b8ff" d="M186.54,-646.62C178.51,-646.62 170.46,-646.62 162.58,-646.62"/>
<polygon fill="#63b8ff" stroke="#63b8ff" points="186.34,-650.13 196.34,-646.63 186.34,-643.13 186.34,-650.13"/>
</a>
</g>
</g>
<!-- Node9&#45;&gt;Node6 -->
<g id="edge9_Node000009_Node000006" class="edge">
<title>Node9&#45;&gt;Node6</title>
<g id="a_edge9_Node000009_Node000006"><a xlink:title=" ">
<path fill="none" stroke="#63b8ff" d="M585.99,-646.62C577.96,-646.62 569.94,-646.62 562.14,-646.62"/>
<polygon fill="#63b8ff" stroke="#63b8ff" points="585.81,-650.13 595.81,-646.63 585.81,-643.13 585.81,-650.13"/>
</a>
</g>
</g>
<!-- Node10&#45;&gt;Node6 -->
<g id="edge12_Node000010_Node000006" class="edge">
<title>Node10&#45;&gt;Node6</title>
<g id="a_edge12_Node000010_Node000006"><a xlink:title=" ">
<path fill="none" stroke="#63b8ff" d="M813.28,-603.52C754.03,-606.44 670.43,-612.08 597.75,-622.62 582.94,-624.77 567.15,-627.76 552.27,-630.9"/>
<polygon fill="#63b8ff" stroke="#63b8ff" points="813.09,-607.03 822.91,-603.06 812.76,-600.04 813.09,-607.03"/>
</a>
</g>
</g>
<!-- Node11 -->
<g id="Node000011" class="node">
<title>Node11</title>
<g id="a_Node000011"><a xlink:href="namespace_big_data_stat_meth.html#ab7b48d0904453c785df129d9e538e70a" target="_top" xlink:title="Applies mathematical functions to HDF5 datasets.">
<polygon fill="white" stroke="#666666" points="760.75,-575.88 615.75,-575.88 615.75,-545.38 760.75,-545.38 760.75,-575.88"/>
<text xml:space="preserve" text-anchor="start" x="623.75" y="-562.38" font-family="Helvetica,sans-Serif" font-size="10.00">BigDataStatMeth::RcppApply</text>
<text xml:space="preserve" text-anchor="middle" x="688.25" y="-551.12" font-family="Helvetica,sans-Serif" font-size="10.00">FunctionHdf5</text>
</a>
</g>
</g>
<!-- Node10&#45;&gt;Node11 -->
<g id="edge11_Node000010_Node000011" class="edge">
<title>Node10&#45;&gt;Node11</title>
<g id="a_edge11_Node000010_Node000011"><a xlink:title=" ">
<path fill="none" stroke="#63b8ff" d="M813.36,-585.26C796.19,-581.85 778.05,-578.25 761.1,-574.89"/>
<polygon fill="#63b8ff" stroke="#63b8ff" points="812.52,-588.66 823.01,-587.18 813.88,-581.8 812.52,-588.66"/>
</a>
</g>
</g>
<!-- Node22 -->
<g id="Node000022" class="node">
<title>Node22</title>
<g id="a_Node000022"><a xlink:href="namespace_big_data_stat_meth.html#a2dc57737d2be2ac3e0fea3bb5812df65" target="_top" xlink:title="Parallel block&#45;based matrix multiplication.">
<polygon fill="white" stroke="#666666" points="955.25,-104.88 828.25,-104.88 828.25,-74.38 955.25,-74.38 955.25,-104.88"/>
<text xml:space="preserve" text-anchor="start" x="836.25" y="-91.38" font-family="Helvetica,sans-Serif" font-size="10.00">BigDataStatMeth::Bblock</text>
<text xml:space="preserve" text-anchor="middle" x="891.75" y="-80.12" font-family="Helvetica,sans-Serif" font-size="10.00">_matrix_mul_parallel</text>
</a>
</g>
</g>
<!-- Node21&#45;&gt;Node22 -->
<g id="edge23_Node000021_Node000022" class="edge">
<title>Node21&#45;&gt;Node22</title>
<g id="a_edge23_Node000021_Node000022"><a xlink:title=" ">
<path fill="none" stroke="#63b8ff" d="M995.04,-89.62C981.83,-89.62 968.28,-89.62 955.54,-89.62"/>
<polygon fill="#63b8ff" stroke="#63b8ff" points="995.02,-93.13 1005.02,-89.63 995.02,-86.13 995.02,-93.13"/>
</a>
</g>
</g>
<!-- Node23 -->
<g id="Node000023" class="node">
<title>Node23</title>
<g id="a_Node000023"><a xlink:href="namespace_big_data_stat_meth.html#a0095d1d8bf48833bdd112590ed62db5d" target="_top" xlink:title="Main matrix multiplication function for HDF5 matrices.">
<polygon fill="white" stroke="#666666" points="968.75,-56.25 814.75,-56.25 814.75,-37 968.75,-37 968.75,-56.25"/>
<text xml:space="preserve" text-anchor="middle" x="891.75" y="-42.75" font-family="Helvetica,sans-Serif" font-size="10.00">BigDataStatMeth::multiplication</text>
</a>
</g>
</g>
<!-- Node21&#45;&gt;Node23 -->
<g id="edge24_Node000021_Node000023" class="edge">
<title>Node21&#45;&gt;Node23</title>
<g id="a_edge24_Node000021_Node000023"><a xlink:title=" ">
<path fill="none" stroke="#63b8ff" d="M996.39,-71.26C975.45,-66.28 953.54,-61.08 935.29,-56.74"/>
<polygon fill="#63b8ff" stroke="#63b8ff" points="995.55,-74.66 1006.08,-73.57 997.17,-67.85 995.55,-74.66"/>
</a>
</g>
</g>
<!-- Node24 -->
<g id="Node000024" class="node">
<title>Node24</title>
<g id="a_Node000024"><a xlink:href="namespace_big_data_stat_meth.html#ac14005c662cd14e6c951b7edc0debc74" target="_top" xlink:title="Main matrix multiplication function for HDF5 matrices.">
<polygon fill="white" stroke="#666666" points="968.75,-19.25 814.75,-19.25 814.75,0 968.75,0 968.75,-19.25"/>
<text xml:space="preserve" text-anchor="middle" x="891.75" y="-5.75" font-family="Helvetica,sans-Serif" font-size="10.00">BigDataStatMeth::multiplication</text>
</a>
</g>
</g>
<!-- Node21&#45;&gt;Node24 -->
<g id="edge25_Node000021_Node000024" class="edge">
<title>Node21&#45;&gt;Node24</title>
<g id="a_edge25_Node000021_Node000024"><a xlink:title=" ">
<path fill="none" stroke="#63b8ff" d="M1012.19,-69.01C1009.63,-67.63 1007.13,-66.17 1004.75,-64.62 985.48,-52.17 988.71,-38.94 968.75,-27.62 963.21,-24.48 957.14,-21.89 950.92,-19.74"/>
<polygon fill="#63b8ff" stroke="#63b8ff" points="1010.46,-72.07 1020.98,-73.31 1013.54,-65.78 1010.46,-72.07"/>
</a>
</g>
</g>
</g>
</svg>

<g id="navigator" transform="translate(0 0)" fill="#404254">
  <rect fill="#f2f5e9" fill-opacity="0.5" stroke="#606060" stroke-width=".5" x="0" y="0" width="60" height="60"/>
  <use id="zoomplus" xlink:href="#zoomPlus" x="17" y="9" onmousedown="handleZoom(evt,'in')"/>
  <use id="zoomminus" xlink:href="#zoomMin" x="42" y="9" onmousedown="handleZoom(evt,'out')"/>
  <use id="reset" xlink:href="#resetDef" x="30" y="36" onmousedown="handleReset()"/>
   <use id="arrowup" xlink:href="#arrowUp" x="0" y="0" onmousedown="handlePan(0,-1)"/>
  <use id="arrowright" xlink:href="#arrowRight" x="0" y="0" onmousedown="handlePan(1,0)"/>
  <use id="arrowdown" xlink:href="#arrowDown" x="0" y="0" onmousedown="handlePan(0,1)"/>
  <use id="arrowleft" xlink:href="#arrowLeft" x="0" y="0" onmousedown="handlePan(-1,0)"/>
</g>
<svg viewBox="0 0 15 15" width="100%" height="30px" preserveAspectRatio="xMaxYMin meet">
 <g id="arrow_out" transform="scale(0.3 0.3)">
  <a xlink:href="namespace_big_data_stat_meth_ad6e454f49b5e34a5b657df896eed7502_icgraph_org.svg" target="_base">
   <rect id="button" ry="5" rx="5" y="6" x="6" height="38" width="38"
        fill="#f2f5e9" fill-opacity="0.5" stroke="#606060" stroke-width="1.0"/>
   <path id="arrow"
     d="M 11.500037,31.436501 C 11.940474,20.09759 22.043105,11.32322 32.158766,21.979434 L 37.068811,17.246167 C 37.068811,17.246167 37.088388,32 37.088388,32 L 22.160133,31.978069 C 22.160133,31.978069 26.997745,27.140456 26.997745,27.140456 C 18.528582,18.264221 13.291696,25.230495 11.500037,31.436501 z"
     style="fill:#404040;"/>
  </a>
 </g>
</svg>

<style type='text/css'>
<![CDATA[
[data-mouse-over-selected='false'] { opacity: 0.7; }
[data-mouse-over-selected='true']  { opacity: 1.0; }
]]>
</style>
<script type="application/ecmascript"><![CDATA[
document.addEventListener('DOMContentLoaded', (event) => {
  highlightEdges();
  highlightAdjacentNodes();
});
]]></script>
</svg>
