<?xml version="1.0" encoding="UTF-8" standalone="no"?>
<!DOCTYPE svg PUBLIC "-//W3C//DTD SVG 1.1//EN"
 "http://www.w3.org/Graphics/SVG/1.1/DTD/svg11.dtd">
<!-- Generated by graphviz version 14.0.0 (20250921.2048)
 -->
<!-- Title: BigDataStatMeth::RcppTSQRHdf5 Pages: 1 -->
<!--zoomable 646 -->

<svg id="main" version="1.1" xmlns="http://www.w3.org/2000/svg" xmlns:xlink="http://www.w3.org/1999/xlink" xml:space="preserve" onload="init(evt)">

<style type="text/css"><![CDATA[
.node, .edge {opacity: 0.7;}
.node.selected, .edge.selected {opacity: 1;}
.edge:hover path { stroke: red; }
.edge:hover polygon { stroke: red; fill: red; }
]]></style>

<defs>
  <circle id="rim" cx="0" cy="0" r="7"/>
  <circle id="rim2" cx="0" cy="0" r="3.5"/>
  <g id="zoomPlus">
    <use xlink:href="#rim" fill="#404040"><set attributeName="fill" to="#808080" begin="zoomplus.mouseover" end="zoomplus.mouseout"/></use>
    <path d="M-4,0h8M0,-4v8" fill="none" stroke="white" stroke-width="1.5" pointer-events="none"/>
  </g>
  <g id="zoomMin">
    <use xlink:href="#rim" fill="#404040"><set attributeName="fill" to="#808080" begin="zoomminus.mouseover" end="zoomminus.mouseout"/></use>
    <path d="M-4,0h8" fill="none" stroke="white" stroke-width="1.5" pointer-events="none"/>
  </g>
  <g id="arrowUp" transform="translate(30 24)">
    <use xlink:href="#rim"/>
    <path pointer-events="none" fill="none" stroke="white" stroke-width="1.5" d="M0,-3.0v7 M-2.5,-0.5L0,-3.0L2.5,-0.5"/>
  </g>
  <g id="arrowRight" transform="rotate(90) translate(36 -43)">
    <use xlink:href="#rim"/>
    <path pointer-events="none" fill="none" stroke="white" stroke-width="1.5" d="M0,-3.0v7 M-2.5,-0.5L0,-3.0L2.5,-0.5"/>
  </g>
  <g id="arrowDown" transform="rotate(180) translate(-30 -48)">
    <use xlink:href="#rim"/>
    <path pointer-events="none" fill="none" stroke="white" stroke-width="1.5" d="M0,-3.0v7 M-2.5,-0.5L0,-3.0L2.5,-0.5"/>
  </g>
  <g id="arrowLeft" transform="rotate(270) translate(-36 17)">
    <use xlink:href="#rim"/>
    <path pointer-events="none" fill="none" stroke="white" stroke-width="1.5" d="M0,-3.0v7 M-2.5,-0.5L0,-3.0L2.5,-0.5"/>
  </g>
  <g id="resetDef">
    <use xlink:href="#rim2" fill="#404040"><set attributeName="fill" to="#808080" begin="reset.mouseover" end="reset.mouseout"/></use>
  </g>
</defs>
<script type="application/ecmascript">
var viewWidth = 851;
var viewHeight = 646;
var sectionId = 'dynsection-201';
</script>
<script type="application/ecmascript" xlink:href="../../../../assets/svg.min.js"/>
<svg id="graph" class="graph">
<g id="viewport">
<title>BigDataStatMeth::RcppTSQRHdf5</title>
<!-- Node1 -->
<g id="Node000001" class="node">
<title>Node1</title>
<g id="a_Node000001"><a xlink:title="TSQR (Tall&#45;Skinny QR) decomposition for HDF5 matrices.">
<polygon fill="#999999" stroke="#666666" points="169,-221.25 0,-221.25 0,-202 169,-202 169,-221.25"/>
<text xml:space="preserve" text-anchor="middle" x="84.5" y="-207.75" font-family="Helvetica,sans-Serif" font-size="10.00">BigDataStatMeth::RcppTSQRHdf5</text>
</a>
</g>
</g>
<!-- Node2 -->
<g id="Node000002" class="node">
<title>Node2</title>
<g id="a_Node000002"><a xlink:href="class_big_data_stat_meth_1_1hdf5_dataset.html#a374a6cadcadfc23c1f5df858d31e20df" target="_top" xlink:title="Create a new dataset with optional compression.">
<polygon fill="white" stroke="#666666" points="355.25,-466.88 205,-466.88 205,-436.38 355.25,-436.38 355.25,-466.88"/>
<text xml:space="preserve" text-anchor="start" x="213" y="-453.38" font-family="Helvetica,sans-Serif" font-size="10.00">BigDataStatMeth::hdf5Dataset</text>
<text xml:space="preserve" text-anchor="middle" x="280.12" y="-442.12" font-family="Helvetica,sans-Serif" font-size="10.00">::createDataset</text>
</a>
</g>
</g>
<!-- Node1&#45;&gt;Node2 -->
<g id="edge1_Node000001_Node000002" class="edge">
<title>Node1&#45;&gt;Node2</title>
<g id="a_edge1_Node000001_Node000002"><a xlink:title=" ">
<path fill="none" stroke="#63b8ff" d="M93.57,-221.63C121.94,-256.79 217.57,-375.33 259.34,-427.1"/>
<polygon fill="#63b8ff" stroke="#63b8ff" points="256.53,-429.19 265.53,-434.77 261.97,-424.79 256.53,-429.19"/>
</a>
</g>
</g>
<!-- Node10 -->
<g id="Node000010" class="node">
<title>Node10</title>
<g id="a_Node000010"><a xlink:href="class_big_data_stat_meth_1_1hdf5_dataset.html#acf9843abcb57a0090f1635cc69d95300" target="_top" xlink:title="Write data to the dataset.">
<polygon fill="white" stroke="#666666" points="541.5,-343.88 391.25,-343.88 391.25,-313.38 541.5,-313.38 541.5,-343.88"/>
<text xml:space="preserve" text-anchor="start" x="399.25" y="-330.38" font-family="Helvetica,sans-Serif" font-size="10.00">BigDataStatMeth::hdf5Dataset</text>
<text xml:space="preserve" text-anchor="middle" x="466.38" y="-319.12" font-family="Helvetica,sans-Serif" font-size="10.00">::writeDataset</text>
</a>
</g>
</g>
<!-- Node1&#45;&gt;Node10 -->
<g id="edge25_Node000001_Node000010" class="edge">
<title>Node1&#45;&gt;Node10</title>
<g id="a_edge25_Node000001_Node000010"><a xlink:title=" ">
<path fill="none" stroke="#63b8ff" d="M93.79,-221.72C111.61,-242.56 155.91,-290.03 205,-309.62 260.29,-331.7 327.4,-336.12 379.64,-335.2"/>
<polygon fill="#63b8ff" stroke="#63b8ff" points="379.46,-338.7 389.37,-334.95 379.28,-331.71 379.46,-338.7"/>
</a>
</g>
</g>
<!-- Node13 -->
<g id="Node000013" class="node">
<title>Node13</title>
<g id="a_Node000013"><a xlink:href="openme-utils_8hpp.html#a172daf6d039501f511eff563e5de2ae7" target="_top" xlink:title=" ">
<polygon fill="white" stroke="#666666" points="332.38,-56.25 227.88,-56.25 227.88,-37 332.38,-37 332.38,-56.25"/>
<text xml:space="preserve" text-anchor="middle" x="280.12" y="-42.75" font-family="Helvetica,sans-Serif" font-size="10.00">get_number_threads</text>
</a>
</g>
</g>
<!-- Node1&#45;&gt;Node13 -->
<g id="edge13_Node000001_Node000013" class="edge">
<title>Node1&#45;&gt;Node13</title>
<g id="a_edge13_Node000001_Node000013"><a xlink:title=" ">
<path fill="none" stroke="#63b8ff" d="M90.68,-201.63C104.99,-175.04 147.84,-102.09 205,-65.62 208.74,-63.24 212.76,-61.16 216.93,-59.33"/>
<polygon fill="#63b8ff" stroke="#63b8ff" points="217.99,-62.67 226.1,-55.85 215.51,-56.13 217.99,-62.67"/>
</a>
</g>
</g>
<!-- Node19 -->
<g id="Node000019" class="node">
<title>Node19</title>
<g id="a_Node000019"><a xlink:href="class_big_data_stat_meth_1_1hdf5_dataset.html#af3ab7117b94164ab629673cacd896dd9" target="_top" xlink:title="Get the current compression level for this dataset instance.">
<polygon fill="white" stroke="#666666" points="355.25,-251.88 205,-251.88 205,-221.38 355.25,-221.38 355.25,-251.88"/>
<text xml:space="preserve" text-anchor="start" x="213" y="-238.38" font-family="Helvetica,sans-Serif" font-size="10.00">BigDataStatMeth::hdf5Dataset</text>
<text xml:space="preserve" text-anchor="middle" x="280.12" y="-227.12" font-family="Helvetica,sans-Serif" font-size="10.00">::getCompressionLevel</text>
</a>
</g>
</g>
<!-- Node1&#45;&gt;Node19 -->
<g id="edge19_Node000001_Node000019" class="edge">
<title>Node1&#45;&gt;Node19</title>
<g id="a_edge19_Node000001_Node000019"><a xlink:title=" ">
<path fill="none" stroke="#63b8ff" d="M163.7,-221.72C173.53,-222.99 183.64,-224.3 193.58,-225.58"/>
<polygon fill="#63b8ff" stroke="#63b8ff" points="192.85,-229.01 203.21,-226.82 193.75,-222.07 192.85,-229.01"/>
</a>
</g>
</g>
<!-- Node20 -->
<g id="Node000020" class="node">
<title>Node20</title>
<g id="a_Node000020"><a xlink:href="class_big_data_stat_meth_1_1hdf5_dataset.html#a8cce59e2884ad1ee3b67f281566780af" target="_top" xlink:title="Inherit the compression level from an input dataset if not already set.">
<polygon fill="white" stroke="#666666" points="355.25,-202.88 205,-202.88 205,-172.38 355.25,-172.38 355.25,-202.88"/>
<text xml:space="preserve" text-anchor="start" x="213" y="-189.38" font-family="Helvetica,sans-Serif" font-size="10.00">BigDataStatMeth::hdf5Dataset</text>
<text xml:space="preserve" text-anchor="middle" x="280.12" y="-178.12" font-family="Helvetica,sans-Serif" font-size="10.00">::inheritCompressionLevel</text>
</a>
</g>
</g>
<!-- Node1&#45;&gt;Node20 -->
<g id="edge20_Node000001_Node000020" class="edge">
<title>Node1&#45;&gt;Node20</title>
<g id="a_edge20_Node000001_Node000020"><a xlink:title=" ">
<path fill="none" stroke="#63b8ff" d="M167.05,-201.52C175.75,-200.44 184.61,-199.34 193.35,-198.26"/>
<polygon fill="#63b8ff" stroke="#63b8ff" points="193.76,-201.73 203.25,-197.03 192.9,-194.79 193.76,-201.73"/>
</a>
</g>
</g>
<!-- Node21 -->
<g id="Node000021" class="node">
<title>Node21</title>
<g id="a_Node000021"><a xlink:href="class_big_data_stat_meth_1_1hdf5_dataset.html#aa743c8c46d7ff3bb2f894145dd07fd8a" target="_top" xlink:title="Get number of columns in internal format.">
<polygon fill="white" stroke="#666666" points="355.25,-153.88 205,-153.88 205,-123.38 355.25,-123.38 355.25,-153.88"/>
<text xml:space="preserve" text-anchor="start" x="213" y="-140.38" font-family="Helvetica,sans-Serif" font-size="10.00">BigDataStatMeth::hdf5Dataset</text>
<text xml:space="preserve" text-anchor="middle" x="280.12" y="-129.12" font-family="Helvetica,sans-Serif" font-size="10.00">::ncols</text>
</a>
</g>
</g>
<!-- Node1&#45;&gt;Node21 -->
<g id="edge21_Node000001_Node000021" class="edge">
<title>Node1&#45;&gt;Node21</title>
<g id="a_edge21_Node000001_Node000021"><a xlink:title=" ">
<path fill="none" stroke="#63b8ff" d="M109.15,-201.66C133.15,-191.67 171.44,-176.01 205,-163.62 209.99,-161.78 215.19,-159.92 220.42,-158.08"/>
<polygon fill="#63b8ff" stroke="#63b8ff" points="221.4,-161.45 229.71,-154.86 219.11,-154.83 221.4,-161.45"/>
</a>
</g>
</g>
<!-- Node22 -->
<g id="Node000022" class="node">
<title>Node22</title>
<g id="a_Node000022"><a xlink:href="class_big_data_stat_meth_1_1hdf5_dataset.html#a6cbce676967d0cc4b50e2cc5282c322b" target="_top" xlink:title="Get number of rows in internal format.">
<polygon fill="white" stroke="#666666" points="355.25,-104.88 205,-104.88 205,-74.38 355.25,-74.38 355.25,-104.88"/>
<text xml:space="preserve" text-anchor="start" x="213" y="-91.38" font-family="Helvetica,sans-Serif" font-size="10.00">BigDataStatMeth::hdf5Dataset</text>
<text xml:space="preserve" text-anchor="middle" x="280.12" y="-80.12" font-family="Helvetica,sans-Serif" font-size="10.00">::nrows</text>
</a>
</g>
</g>
<!-- Node1&#45;&gt;Node22 -->
<g id="edge22_Node000001_Node000022" class="edge">
<title>Node1&#45;&gt;Node22</title>
<g id="a_edge22_Node000001_Node000022"><a xlink:title=" ">
<path fill="none" stroke="#63b8ff" d="M95.14,-201.71C114.38,-182.45 159.6,-139.64 205,-114.62 208.15,-112.89 211.45,-111.24 214.82,-109.69"/>
<polygon fill="#63b8ff" stroke="#63b8ff" points="215.89,-113.04 223.72,-105.9 213.14,-106.6 215.89,-113.04"/>
</a>
</g>
</g>
<!-- Node23 -->
<g id="Node000023" class="node">
<title>Node23</title>
<g id="a_Node000023"><a xlink:href="class_big_data_stat_meth_1_1hdf5_dataset.html#a23bea87165b8ef6b944709c5b2cbd0cf" target="_top" xlink:title=" ">
<polygon fill="white" stroke="#666666" points="355.25,-300.88 205,-300.88 205,-270.38 355.25,-270.38 355.25,-300.88"/>
<text xml:space="preserve" text-anchor="start" x="213" y="-287.38" font-family="Helvetica,sans-Serif" font-size="10.00">BigDataStatMeth::hdf5Dataset</text>
<text xml:space="preserve" text-anchor="middle" x="280.12" y="-276.12" font-family="Helvetica,sans-Serif" font-size="10.00">::readDatasetBlock</text>
</a>
</g>
</g>
<!-- Node1&#45;&gt;Node23 -->
<g id="edge23_Node000001_Node000023" class="edge">
<title>Node1&#45;&gt;Node23</title>
<g id="a_edge23_Node000001_Node000023"><a xlink:title=" ">
<path fill="none" stroke="#63b8ff" d="M108.68,-221.65C132.63,-231.88 171.18,-248 205,-260.62 209.99,-262.49 215.18,-264.36 220.41,-266.21"/>
<polygon fill="#63b8ff" stroke="#63b8ff" points="219.09,-269.46 229.69,-269.44 221.39,-262.84 219.09,-269.46"/>
</a>
</g>
</g>
<!-- Node3 -->
<g id="Node000003" class="node">
<title>Node3</title>
<g id="a_Node000003"><a xlink:href="class_big_data_stat_meth_1_1hdf5_dataset.html#ac7a7f23b7e22c9b56ca6ad86592f2d52" target="_top" xlink:title="Add an attribute to the dataset.">
<polygon fill="white" stroke="#666666" points="541.5,-490.88 391.25,-490.88 391.25,-460.38 541.5,-460.38 541.5,-490.88"/>
<text xml:space="preserve" text-anchor="start" x="399.25" y="-477.38" font-family="Helvetica,sans-Serif" font-size="10.00">BigDataStatMeth::hdf5Dataset</text>
<text xml:space="preserve" text-anchor="middle" x="466.38" y="-466.12" font-family="Helvetica,sans-Serif" font-size="10.00">::addAttribute</text>
</a>
</g>
</g>
<!-- Node2&#45;&gt;Node3 -->
<g id="edge2_Node000002_Node000003" class="edge">
<title>Node2&#45;&gt;Node3</title>
<g id="a_edge2_Node000002_Node000003"><a xlink:title=" ">
<path fill="none" stroke="#63b8ff" d="M355.54,-461.32C363.48,-462.35 371.6,-463.41 379.66,-464.46"/>
<polygon fill="#63b8ff" stroke="#63b8ff" points="379.12,-467.92 389.49,-465.74 380.02,-460.98 379.12,-467.92"/>
</a>
</g>
</g>
<!-- Node4 -->
<g id="Node000004" class="node">
<title>Node4</title>
<g id="a_Node000004"><a xlink:href="class_big_data_stat_meth_1_1hdf5_file.html#abfb73b5f1eb25ee00489485c8dc56a2a" target="_top" xlink:title="Close file and cleanup resources.">
<polygon fill="white" stroke="#666666" points="532.12,-441.88 400.62,-441.88 400.62,-411.38 532.12,-411.38 532.12,-441.88"/>
<text xml:space="preserve" text-anchor="start" x="408.62" y="-428.38" font-family="Helvetica,sans-Serif" font-size="10.00">BigDataStatMeth::hdf5File</text>
<text xml:space="preserve" text-anchor="middle" x="466.38" y="-417.12" font-family="Helvetica,sans-Serif" font-size="10.00">::close_file</text>
</a>
</g>
</g>
<!-- Node2&#45;&gt;Node4 -->
<g id="edge3_Node000002_Node000004" class="edge">
<title>Node2&#45;&gt;Node4</title>
<g id="a_edge3_Node000002_Node000004"><a xlink:title=" ">
<path fill="none" stroke="#63b8ff" d="M355.54,-441.53C366.51,-440.04 377.83,-438.5 388.84,-437.01"/>
<polygon fill="#63b8ff" stroke="#63b8ff" points="389.24,-440.49 398.68,-435.68 388.3,-433.55 389.24,-440.49"/>
</a>
</g>
</g>
<!-- Node5 -->
<g id="Node000005" class="node">
<title>Node5</title>
<g id="a_Node000005"><a xlink:href="class_big_data_stat_meth_1_1hdf5_group.html#a27cef4d33e46c72bfd792aa49fa621a3" target="_top" xlink:title="Create multiple nested groups.">
<polygon fill="white" stroke="#666666" points="537.38,-637.88 395.38,-637.88 395.38,-607.38 537.38,-607.38 537.38,-637.88"/>
<text xml:space="preserve" text-anchor="start" x="403.38" y="-624.38" font-family="Helvetica,sans-Serif" font-size="10.00">BigDataStatMeth::hdf5Group</text>
<text xml:space="preserve" text-anchor="middle" x="466.38" y="-613.12" font-family="Helvetica,sans-Serif" font-size="10.00">::create_HDF5_groups</text>
</a>
</g>
</g>
<!-- Node2&#45;&gt;Node5 -->
<g id="edge4_Node000002_Node000005" class="edge">
<title>Node2&#45;&gt;Node5</title>
<g id="a_edge4_Node000002_Node000005"><a xlink:title=" ">
<path fill="none" stroke="#63b8ff" d="M288.82,-467.29C304.2,-497 341.55,-561.78 391.25,-597.62 393.19,-599.02 395.21,-600.34 397.29,-601.6"/>
<polygon fill="#63b8ff" stroke="#63b8ff" points="395.6,-604.67 406.08,-606.25 398.88,-598.48 395.6,-604.67"/>
</a>
</g>
</g>
<!-- Node7 -->
<g id="Node000007" class="node">
<title>Node7</title>
<g id="a_Node000007"><a xlink:href="namespace_big_data_stat_meth.html#a89d901ab4b5e01771f4e3fc7dc84e50e" target="_top" xlink:title="Checks if an HDF5 element (group or dataset) exists.">
<polygon fill="white" stroke="#666666" points="528,-392.88 404.75,-392.88 404.75,-362.38 528,-362.38 528,-392.88"/>
<text xml:space="preserve" text-anchor="start" x="412.75" y="-379.38" font-family="Helvetica,sans-Serif" font-size="10.00">BigDataStatMeth::exists</text>
<text xml:space="preserve" text-anchor="middle" x="466.38" y="-368.12" font-family="Helvetica,sans-Serif" font-size="10.00">_HDF5_element</text>
</a>
</g>
</g>
<!-- Node2&#45;&gt;Node7 -->
<g id="edge6_Node000002_Node000007" class="edge">
<title>Node2&#45;&gt;Node7</title>
<g id="a_edge6_Node000002_Node000007"><a xlink:title=" ">
<path fill="none" stroke="#63b8ff" d="M314.04,-436.01C335.75,-425.96 364.93,-412.89 391.25,-402.62 396.13,-400.72 401.23,-398.82 406.36,-396.97"/>
<polygon fill="#63b8ff" stroke="#63b8ff" points="407.2,-400.38 415.47,-393.75 404.87,-393.78 407.2,-400.38"/>
</a>
</g>
</g>
<!-- Node8 -->
<g id="Node000008" class="node">
<title>Node8</title>
<g id="a_Node000008"><a xlink:href="class_big_data_stat_meth_1_1hdf5_group.html#a59995412538627e6c80f64b552c286f5" target="_top" xlink:title=" ">
<polygon fill="white" stroke="#666666" points="537.38,-588.88 395.38,-588.88 395.38,-558.38 537.38,-558.38 537.38,-588.88"/>
<text xml:space="preserve" text-anchor="start" x="403.38" y="-575.38" font-family="Helvetica,sans-Serif" font-size="10.00">BigDataStatMeth::hdf5Group</text>
<text xml:space="preserve" text-anchor="middle" x="466.38" y="-564.12" font-family="Helvetica,sans-Serif" font-size="10.00">::getGroupName</text>
</a>
</g>
</g>
<!-- Node2&#45;&gt;Node8 -->
<g id="edge8_Node000002_Node000008" class="edge">
<title>Node2&#45;&gt;Node8</title>
<g id="a_edge8_Node000002_Node000008"><a xlink:title=" ">
<path fill="none" stroke="#63b8ff" d="M294.96,-467.19C314.5,-488.34 352.2,-526.07 391.25,-548.62 394.21,-550.34 397.31,-551.95 400.49,-553.48"/>
<polygon fill="#63b8ff" stroke="#63b8ff" points="398.89,-556.59 409.45,-557.42 401.7,-550.19 398.89,-556.59"/>
</a>
</g>
</g>
<!-- Node9 -->
<g id="Node000009" class="node">
<title>Node9</title>
<g id="a_Node000009"><a xlink:href="namespace_big_data_stat_meth.html#a3d06783149029f1df2853c472d401380" target="_top" xlink:title="Removes multiple elements from an HDF5 file.">
<polygon fill="white" stroke="#666666" points="531,-539.88 401.75,-539.88 401.75,-509.38 531,-509.38 531,-539.88"/>
<text xml:space="preserve" text-anchor="start" x="409.75" y="-526.38" font-family="Helvetica,sans-Serif" font-size="10.00">BigDataStatMeth::remove</text>
<text xml:space="preserve" text-anchor="middle" x="466.38" y="-515.12" font-family="Helvetica,sans-Serif" font-size="10.00">_elements</text>
</a>
</g>
</g>
<!-- Node2&#45;&gt;Node9 -->
<g id="edge9_Node000002_Node000009" class="edge">
<title>Node2&#45;&gt;Node9</title>
<g id="a_edge9_Node000002_Node000009"><a xlink:title=" ">
<path fill="none" stroke="#63b8ff" d="M315.04,-467.31C336.66,-477.08 365.37,-489.64 391.25,-499.62 396.14,-501.51 401.24,-503.4 406.38,-505.24"/>
<polygon fill="#63b8ff" stroke="#63b8ff" points="404.89,-508.43 415.49,-508.44 407.21,-501.82 404.89,-508.43"/>
</a>
</g>
</g>
<!-- Node2&#45;&gt;Node10 -->
<g id="edge10_Node000002_Node000010" class="edge">
<title>Node2&#45;&gt;Node10</title>
<g id="a_edge10_Node000002_Node000010"><a xlink:title=" ">
<path fill="none" stroke="#63b8ff" d="M294.92,-435.89C314.43,-414.52 352.08,-376.38 391.25,-353.62 394.06,-351.99 396.99,-350.45 399.99,-348.99"/>
<polygon fill="#63b8ff" stroke="#63b8ff" points="401.33,-352.23 409.04,-344.97 398.48,-345.83 401.33,-352.23"/>
</a>
</g>
</g>
<!-- Node6 -->
<g id="Node000006" class="node">
<title>Node6</title>
<g id="a_Node000006"><a xlink:href="namespace_big_data_stat_meth.html#abcaa4216cd52f03ebac42e4855ef846b" target="_top" xlink:title="Checks if a path exists in an HDF5 file.">
<polygon fill="white" stroke="#666666" points="734.88,-509.25 591.38,-509.25 591.38,-490 734.88,-490 734.88,-509.25"/>
<text xml:space="preserve" text-anchor="middle" x="663.12" y="-495.75" font-family="Helvetica,sans-Serif" font-size="10.00">BigDataStatMeth::pathExists</text>
</a>
</g>
</g>
<!-- Node5&#45;&gt;Node6 -->
<g id="edge5_Node000005_Node000006" class="edge">
<title>Node5&#45;&gt;Node6</title>
<g id="a_edge5_Node000005_Node000006"><a xlink:title=" ">
<path fill="none" stroke="#63b8ff" d="M521.39,-606.95C528.33,-604.21 535.2,-601.1 541.5,-597.62 581.79,-575.42 621.92,-539.32 644.23,-517.68"/>
<polygon fill="#63b8ff" stroke="#63b8ff" points="646.65,-520.21 651.32,-510.7 641.74,-515.23 646.65,-520.21"/>
</a>
</g>
</g>
<!-- Node7&#45;&gt;Node6 -->
<g id="edge7_Node000007_Node000006" class="edge">
<title>Node7&#45;&gt;Node6</title>
<g id="a_edge7_Node000007_Node000006"><a xlink:title=" ">
<path fill="none" stroke="#63b8ff" d="M521.38,-393.33C528.31,-396.07 535.19,-399.17 541.5,-402.62 581.68,-424.64 621.85,-460.36 644.2,-481.76"/>
<polygon fill="#63b8ff" stroke="#63b8ff" points="641.68,-484.2 651.29,-488.66 646.56,-479.18 641.68,-484.2"/>
</a>
</g>
</g>
<!-- Node11 -->
<g id="Node000011" class="node">
<title>Node11</title>
<g id="a_Node000011"><a xlink:href="class_big_data_stat_meth_1_1hdf5_dataset.html#aba39e56a580d3b1fa7f1619fc72efa3e" target="_top" xlink:title="Close dataset and file.">
<polygon fill="white" stroke="#666666" points="738.25,-300.88 588,-300.88 588,-270.38 738.25,-270.38 738.25,-300.88"/>
<text xml:space="preserve" text-anchor="start" x="596" y="-287.38" font-family="Helvetica,sans-Serif" font-size="10.00">BigDataStatMeth::hdf5Dataset</text>
<text xml:space="preserve" text-anchor="middle" x="663.12" y="-276.12" font-family="Helvetica,sans-Serif" font-size="10.00">::close_dataset_file</text>
</a>
</g>
</g>
<!-- Node10&#45;&gt;Node11 -->
<g id="edge11_Node000010_Node000011" class="edge">
<title>Node10&#45;&gt;Node11</title>
<g id="a_edge11_Node000010_Node000011"><a xlink:title=" ">
<path fill="none" stroke="#63b8ff" d="M538.51,-312.92C551.97,-309.95 566.16,-306.81 579.92,-303.77"/>
<polygon fill="#63b8ff" stroke="#63b8ff" points="580.37,-307.26 589.38,-301.69 578.86,-300.43 580.37,-307.26"/>
</a>
</g>
</g>
<!-- Node12 -->
<g id="Node000012" class="node">
<title>Node12</title>
<g id="a_Node000012"><a xlink:href="class_big_data_stat_meth_1_1hdf5_dataset.html#a94d81b72e92cb0230b4e64f37ea7d2e3" target="_top" xlink:title="Convert DataFrame to range list.">
<polygon fill="white" stroke="#666666" points="748.75,-349.88 577.5,-349.88 577.5,-319.38 748.75,-319.38 748.75,-349.88"/>
<text xml:space="preserve" text-anchor="start" x="585.5" y="-336.38" font-family="Helvetica,sans-Serif" font-size="10.00">BigDataStatMeth::hdf5Dataset</text>
<text xml:space="preserve" text-anchor="middle" x="663.12" y="-325.12" font-family="Helvetica,sans-Serif" font-size="10.00">::convert_DataFrame_to_RangeList</text>
</a>
</g>
</g>
<!-- Node10&#45;&gt;Node12 -->
<g id="edge12_Node000010_Node000012" class="edge">
<title>Node10&#45;&gt;Node12</title>
<g id="a_edge12_Node000010_Node000012"><a xlink:title=" ">
<path fill="none" stroke="#63b8ff" d="M541.84,-330.92C549.72,-331.16 557.81,-331.41 565.9,-331.66"/>
<polygon fill="#63b8ff" stroke="#63b8ff" points="565.68,-335.16 575.78,-331.96 565.9,-328.16 565.68,-335.16"/>
</a>
</g>
</g>
<!-- Node14 -->
<g id="Node000014" class="node">
<title>Node14</title>
<g id="a_Node000014"><a xlink:href="openme-utils_8hpp.html#a7d6263da9da6b46b945746e3abdea4ca" target="_top" xlink:title="Determines number of threads for parallel operations.">
<polygon fill="white" stroke="#666666" points="504,-56.25 428.75,-56.25 428.75,-37 504,-37 504,-56.25"/>
<text xml:space="preserve" text-anchor="middle" x="466.38" y="-42.75" font-family="Helvetica,sans-Serif" font-size="10.00">getDTthreads</text>
</a>
</g>
</g>
<!-- Node13&#45;&gt;Node14 -->
<g id="edge14_Node000013_Node000014" class="edge">
<title>Node13&#45;&gt;Node14</title>
<g id="a_edge14_Node000013_Node000014"><a xlink:title=" ">
<path fill="none" stroke="#63b8ff" d="M332.45,-46.62C358.86,-46.62 390.87,-46.62 416.86,-46.62"/>
<polygon fill="#63b8ff" stroke="#63b8ff" points="416.83,-50.13 426.83,-46.63 416.83,-43.13 416.83,-50.13"/>
</a>
</g>
</g>
<!-- Node15 -->
<g id="Node000015" class="node">
<title>Node15</title>
<g id="a_Node000015"><a xlink:href="openme-utils_8hpp.html#a32e65a19d36ceec1952e48362e4153b8" target="_top" xlink:title="Initializes thread configuration based on environment and system state.">
<polygon fill="white" stroke="#666666" points="700.38,-56.25 625.88,-56.25 625.88,-37 700.38,-37 700.38,-56.25"/>
<text xml:space="preserve" text-anchor="middle" x="663.12" y="-42.75" font-family="Helvetica,sans-Serif" font-size="10.00">initDTthreads</text>
</a>
</g>
</g>
<!-- Node14&#45;&gt;Node15 -->
<g id="edge15_Node000014_Node000015" class="edge">
<title>Node14&#45;&gt;Node15</title>
<g id="a_edge15_Node000014_Node000015"><a xlink:title=" ">
<path fill="none" stroke="#63b8ff" d="M504.46,-46.62C535.56,-46.62 580.18,-46.62 614.02,-46.62"/>
<polygon fill="#63b8ff" stroke="#63b8ff" points="613.99,-50.13 623.99,-46.63 613.99,-43.13 613.99,-50.13"/>
</a>
</g>
</g>
<!-- Node16 -->
<g id="Node000016" class="node">
<title>Node16</title>
<g id="a_Node000016"><a xlink:href="openme-utils_8hpp.html#a62643b5f3a2b3d36929fed3c368c2cfc" target="_top" xlink:title="Retrieves integer value from environment variable.">
<polygon fill="white" stroke="#666666" points="842.75,-93.25 784.75,-93.25 784.75,-74 842.75,-74 842.75,-93.25"/>
<text xml:space="preserve" text-anchor="middle" x="813.75" y="-79.75" font-family="Helvetica,sans-Serif" font-size="10.00">getIntEnv</text>
</a>
</g>
</g>
<!-- Node15&#45;&gt;Node16 -->
<g id="edge16_Node000015_Node000016" class="edge">
<title>Node15&#45;&gt;Node16</title>
<g id="a_edge16_Node000015_Node000016"><a xlink:title=" ">
<path fill="none" stroke="#63b8ff" d="M700.86,-55.77C722.92,-61.26 750.98,-68.25 773.48,-73.85"/>
<polygon fill="#63b8ff" stroke="#63b8ff" points="772.33,-77.17 782.88,-76.19 774.02,-70.38 772.33,-77.17"/>
</a>
</g>
</g>
<!-- Node17 -->
<g id="Node000017" class="node">
<title>Node17</title>
<g id="a_Node000017"><a xlink:href="openme-utils_8hpp.html#afca01a231aef5cdbcbb5c23a7134e9d4" target="_top" xlink:title="Maximum of two integers.">
<polygon fill="white" stroke="#666666" points="832.25,-56.25 795.25,-56.25 795.25,-37 832.25,-37 832.25,-56.25"/>
<text xml:space="preserve" text-anchor="middle" x="813.75" y="-42.75" font-family="Helvetica,sans-Serif" font-size="10.00">imax</text>
</a>
</g>
</g>
<!-- Node15&#45;&gt;Node17 -->
<g id="edge17_Node000015_Node000017" class="edge">
<title>Node15&#45;&gt;Node17</title>
<g id="a_edge17_Node000015_Node000017"><a xlink:title=" ">
<path fill="none" stroke="#63b8ff" d="M700.86,-46.62C726.34,-46.62 759.81,-46.62 783.48,-46.62"/>
<polygon fill="#63b8ff" stroke="#63b8ff" points="783.36,-50.13 793.36,-46.63 783.36,-43.13 783.36,-50.13"/>
</a>
</g>
</g>
<!-- Node18 -->
<g id="Node000018" class="node">
<title>Node18</title>
<g id="a_Node000018"><a xlink:href="openme-utils_8hpp.html#aa011f843a2a959cc6f8c226f60e96224" target="_top" xlink:title="Minimum of two integers.">
<polygon fill="white" stroke="#666666" points="830.75,-19.25 796.75,-19.25 796.75,0 830.75,0 830.75,-19.25"/>
<text xml:space="preserve" text-anchor="middle" x="813.75" y="-5.75" font-family="Helvetica,sans-Serif" font-size="10.00">imin</text>
</a>
</g>
</g>
<!-- Node15&#45;&gt;Node18 -->
<g id="edge18_Node000015_Node000018" class="edge">
<title>Node15&#45;&gt;Node18</title>
<g id="a_edge18_Node000015_Node000018"><a xlink:title=" ">
<path fill="none" stroke="#63b8ff" d="M700.86,-37.48C727.04,-30.96 761.66,-22.34 785.42,-16.43"/>
<polygon fill="#63b8ff" stroke="#63b8ff" points="786.11,-19.86 794.97,-14.05 784.42,-13.07 786.11,-19.86"/>
</a>
</g>
</g>
<!-- Node23&#45;&gt;Node11 -->
<g id="edge24_Node000023_Node000011" class="edge">
<title>Node23&#45;&gt;Node11</title>
<g id="a_edge24_Node000023_Node000011"><a xlink:title=" ">
<path fill="none" stroke="#63b8ff" d="M355.49,-285.62C418.85,-285.62 509.93,-285.62 576.35,-285.62"/>
<polygon fill="#63b8ff" stroke="#63b8ff" points="576.11,-289.13 586.11,-285.63 576.11,-282.13 576.11,-289.13"/>
</a>
</g>
</g>
</g>
</svg>

<g id="navigator" transform="translate(0 0)" fill="#404254">
  <rect fill="#f2f5e9" fill-opacity="0.5" stroke="#606060" stroke-width=".5" x="0" y="0" width="60" height="60"/>
  <use id="zoomplus" xlink:href="#zoomPlus" x="17" y="9" onmousedown="handleZoom(evt,'in')"/>
  <use id="zoomminus" xlink:href="#zoomMin" x="42" y="9" onmousedown="handleZoom(evt,'out')"/>
  <use id="reset" xlink:href="#resetDef" x="30" y="36" onmousedown="handleReset()"/>
   <use id="arrowup" xlink:href="#arrowUp" x="0" y="0" onmousedown="handlePan(0,-1)"/>
  <use id="arrowright" xlink:href="#arrowRight" x="0" y="0" onmousedown="handlePan(1,0)"/>
  <use id="arrowdown" xlink:href="#arrowDown" x="0" y="0" onmousedown="handlePan(0,1)"/>
  <use id="arrowleft" xlink:href="#arrowLeft" x="0" y="0" onmousedown="handlePan(-1,0)"/>
</g>
<svg viewBox="0 0 15 15" width="100%" height="30px" preserveAspectRatio="xMaxYMin meet">
 <g id="arrow_out" transform="scale(0.3 0.3)">
  <a xlink:href="namespace_big_data_stat_meth_a9782a58cbfdaeb0648cd0f4aafbb648c_cgraph_org.svg" target="_base">
   <rect id="button" ry="5" rx="5" y="6" x="6" height="38" width="38"
        fill="#f2f5e9" fill-opacity="0.5" stroke="#606060" stroke-width="1.0"/>
   <path id="arrow"
     d="M 11.500037,31.436501 C 11.940474,20.09759 22.043105,11.32322 32.158766,21.979434 L 37.068811,17.246167 C 37.068811,17.246167 37.088388,32 37.088388,32 L 22.160133,31.978069 C 22.160133,31.978069 26.997745,27.140456 26.997745,27.140456 C 18.528582,18.264221 13.291696,25.230495 11.500037,31.436501 z"
     style="fill:#404040;"/>
  </a>
 </g>
</svg>

<style type='text/css'>
<![CDATA[
[data-mouse-over-selected='false'] { opacity: 0.7; }
[data-mouse-over-selected='true']  { opacity: 1.0; }
]]>
</style>
<script type="application/ecmascript"><![CDATA[
document.addEventListener('DOMContentLoaded', (event) => {
  highlightEdges();
  highlightAdjacentNodes();
});
]]></script>
</svg>
