<?xml version="1.0" encoding="UTF-8" standalone="no"?>
<!DOCTYPE svg PUBLIC "-//W3C//DTD SVG 1.1//EN"
 "http://www.w3.org/Graphics/SVG/1.1/DTD/svg11.dtd">
<!-- Generated by graphviz version 14.0.0 (20250921.2048)
 -->
<!-- Title: BigDataStatMeth::Inverse_Matrix_Cholesky_intermediate_hdf5 Pages: 1 -->
<!--zoomable 268 -->

<svg id="main" version="1.1" xmlns="http://www.w3.org/2000/svg" xmlns:xlink="http://www.w3.org/1999/xlink" xml:space="preserve" onload="init(evt)">

<style type="text/css"><![CDATA[
.node, .edge {opacity: 0.7;}
.node.selected, .edge.selected {opacity: 1;}
.edge:hover path { stroke: red; }
.edge:hover polygon { stroke: red; fill: red; }
]]></style>

<defs>
  <circle id="rim" cx="0" cy="0" r="7"/>
  <circle id="rim2" cx="0" cy="0" r="3.5"/>
  <g id="zoomPlus">
    <use xlink:href="#rim" fill="#404040"><set attributeName="fill" to="#808080" begin="zoomplus.mouseover" end="zoomplus.mouseout"/></use>
    <path d="M-4,0h8M0,-4v8" fill="none" stroke="white" stroke-width="1.5" pointer-events="none"/>
  </g>
  <g id="zoomMin">
    <use xlink:href="#rim" fill="#404040"><set attributeName="fill" to="#808080" begin="zoomminus.mouseover" end="zoomminus.mouseout"/></use>
    <path d="M-4,0h8" fill="none" stroke="white" stroke-width="1.5" pointer-events="none"/>
  </g>
  <g id="arrowUp" transform="translate(30 24)">
    <use xlink:href="#rim"/>
    <path pointer-events="none" fill="none" stroke="white" stroke-width="1.5" d="M0,-3.0v7 M-2.5,-0.5L0,-3.0L2.5,-0.5"/>
  </g>
  <g id="arrowRight" transform="rotate(90) translate(36 -43)">
    <use xlink:href="#rim"/>
    <path pointer-events="none" fill="none" stroke="white" stroke-width="1.5" d="M0,-3.0v7 M-2.5,-0.5L0,-3.0L2.5,-0.5"/>
  </g>
  <g id="arrowDown" transform="rotate(180) translate(-30 -48)">
    <use xlink:href="#rim"/>
    <path pointer-events="none" fill="none" stroke="white" stroke-width="1.5" d="M0,-3.0v7 M-2.5,-0.5L0,-3.0L2.5,-0.5"/>
  </g>
  <g id="arrowLeft" transform="rotate(270) translate(-36 17)">
    <use xlink:href="#rim"/>
    <path pointer-events="none" fill="none" stroke="white" stroke-width="1.5" d="M0,-3.0v7 M-2.5,-0.5L0,-3.0L2.5,-0.5"/>
  </g>
  <g id="resetDef">
    <use xlink:href="#rim2" fill="#404040"><set attributeName="fill" to="#808080" begin="reset.mouseover" end="reset.mouseout"/></use>
  </g>
</defs>
<script type="application/ecmascript">
var viewWidth = 782;
var viewHeight = 268;
var sectionId = 'dynsection-61';
</script>
<script type="application/ecmascript" xlink:href="../../../../assets/svg.min.js"/>
<svg id="graph" class="graph">
<g id="viewport">
<title>BigDataStatMeth::Inverse_Matrix_Cholesky_intermediate_hdf5</title>
<!-- Node1 -->
<g id="Node000001" class="node">
<title>Node1</title>
<g id="a_Node000001"><a xlink:title="Computes final matrix inverse using inverted Cholesky factors.">
<polygon fill="#999999" stroke="#666666" points="177.25,-179.88 0,-179.88 0,-149.38 177.25,-149.38 177.25,-179.88"/>
<text xml:space="preserve" text-anchor="start" x="8" y="-166.38" font-family="Helvetica,sans-Serif" font-size="10.00">BigDataStatMeth::Inverse</text>
<text xml:space="preserve" text-anchor="middle" x="88.62" y="-155.12" font-family="Helvetica,sans-Serif" font-size="10.00">_Matrix_Cholesky_intermediate_hdf5</text>
</a>
</g>
</g>
<!-- Node2 -->
<g id="Node000002" class="node">
<title>Node2</title>
<g id="a_Node000002"><a xlink:href="namespace_big_data_stat_meth.html#a304b42b14ec87d4acc6f34ff0231529d" target="_top" xlink:title="Safely close any number of dataset handles (C++17).">
<polygon fill="white" stroke="#666666" points="380,-260.25 213.25,-260.25 213.25,-241 380,-241 380,-260.25"/>
<text xml:space="preserve" text-anchor="middle" x="296.62" y="-246.75" font-family="Helvetica,sans-Serif" font-size="10.00">BigDataStatMeth::checkClose_file</text>
</a>
</g>
</g>
<!-- Node1&#45;&gt;Node2 -->
<g id="edge1_Node000001_Node000002" class="edge">
<title>Node1&#45;&gt;Node2</title>
<g id="a_edge1_Node000001_Node000002"><a xlink:title=" ">
<path fill="none" stroke="#63b8ff" d="M113.78,-180.28C138.05,-195.37 176.95,-217.89 213.25,-231.62 219,-233.8 225.07,-235.77 231.21,-237.55"/>
<polygon fill="#63b8ff" stroke="#63b8ff" points="230.23,-240.91 240.8,-240.14 232.06,-234.15 230.23,-240.91"/>
</a>
</g>
</g>
<!-- Node3 -->
<g id="Node000003" class="node">
<title>Node3</title>
<g id="a_Node000003"><a xlink:href="namespace_big_data_stat_meth.html#abcd544ed5db12dd03f79bca0a8f31ca5" target="_top" xlink:title="Calculates optimal block size for memory&#45;efficient matrix operations.">
<polygon fill="white" stroke="#666666" points="368.75,-222.88 224.5,-222.88 224.5,-192.38 368.75,-192.38 368.75,-222.88"/>
<text xml:space="preserve" text-anchor="start" x="232.5" y="-209.38" font-family="Helvetica,sans-Serif" font-size="10.00">BigDataStatMeth::getOptimal</text>
<text xml:space="preserve" text-anchor="middle" x="296.62" y="-198.12" font-family="Helvetica,sans-Serif" font-size="10.00">BlockElements</text>
</a>
</g>
</g>
<!-- Node1&#45;&gt;Node3 -->
<g id="edge2_Node000001_Node000003" class="edge">
<title>Node1&#45;&gt;Node3</title>
<g id="a_edge2_Node000001_Node000003"><a xlink:title=" ">
<path fill="none" stroke="#63b8ff" d="M164.87,-180.33C180.56,-183.61 197.18,-187.07 213.11,-190.4"/>
<polygon fill="#63b8ff" stroke="#63b8ff" points="212.03,-193.75 222.53,-192.37 213.46,-186.9 212.03,-193.75"/>
</a>
</g>
</g>
<!-- Node5 -->
<g id="Node000005" class="node">
<title>Node5</title>
<g id="a_Node000005"><a xlink:href="class_big_data_stat_meth_1_1hdf5_dataset.html#a23bea87165b8ef6b944709c5b2cbd0cf" target="_top" xlink:title=" ">
<polygon fill="white" stroke="#666666" points="566.25,-165.88 416,-165.88 416,-135.38 566.25,-135.38 566.25,-165.88"/>
<text xml:space="preserve" text-anchor="start" x="424" y="-152.38" font-family="Helvetica,sans-Serif" font-size="10.00">BigDataStatMeth::hdf5Dataset</text>
<text xml:space="preserve" text-anchor="middle" x="491.12" y="-141.12" font-family="Helvetica,sans-Serif" font-size="10.00">::readDatasetBlock</text>
</a>
</g>
</g>
<!-- Node1&#45;&gt;Node5 -->
<g id="edge4_Node000001_Node000005" class="edge">
<title>Node1&#45;&gt;Node5</title>
<g id="a_edge4_Node000001_Node000005"><a xlink:title=" ">
<path fill="none" stroke="#63b8ff" d="M177.52,-161.55C244.88,-159.2 337.34,-155.97 404.21,-153.63"/>
<polygon fill="#63b8ff" stroke="#63b8ff" points="404.16,-157.13 414.04,-153.28 403.92,-150.14 404.16,-157.13"/>
</a>
</g>
</g>
<!-- Node7 -->
<g id="Node000007" class="node">
<title>Node7</title>
<g id="a_Node000007"><a xlink:href="namespace_big_data_stat_meth.html#ab5429d9d25ff38d72d77e6dca59947b0" target="_top" xlink:title="Sets the diagonal elements of a matrix stored in HDF5 format.">
<polygon fill="white" stroke="#666666" points="371,-136.88 222.25,-136.88 222.25,-106.38 371,-106.38 371,-136.88"/>
<text xml:space="preserve" text-anchor="start" x="230.25" y="-123.38" font-family="Helvetica,sans-Serif" font-size="10.00">BigDataStatMeth::setDiagonal</text>
<text xml:space="preserve" text-anchor="middle" x="296.62" y="-112.12" font-family="Helvetica,sans-Serif" font-size="10.00">Matrix</text>
</a>
</g>
</g>
<!-- Node1&#45;&gt;Node7 -->
<g id="edge6_Node000001_Node000007" class="edge">
<title>Node1&#45;&gt;Node7</title>
<g id="a_edge6_Node000001_Node000007"><a xlink:title=" ">
<path fill="none" stroke="#63b8ff" d="M164.87,-148.92C179.85,-145.79 195.68,-142.49 210.96,-139.3"/>
<polygon fill="#63b8ff" stroke="#63b8ff" points="211.4,-142.78 220.48,-137.31 209.97,-135.93 211.4,-142.78"/>
</a>
</g>
</g>
<!-- Node8 -->
<g id="Node000008" class="node">
<title>Node8</title>
<g id="a_Node000008"><a xlink:href="class_big_data_stat_meth_1_1hdf5_dataset.html#af606176d84a63561b65702b6fde3a583" target="_top" xlink:title="Write block of data with optional transposition.">
<polygon fill="white" stroke="#666666" points="566.25,-108.88 416,-108.88 416,-78.38 566.25,-78.38 566.25,-108.88"/>
<text xml:space="preserve" text-anchor="start" x="424" y="-95.38" font-family="Helvetica,sans-Serif" font-size="10.00">BigDataStatMeth::hdf5Dataset</text>
<text xml:space="preserve" text-anchor="middle" x="491.12" y="-84.12" font-family="Helvetica,sans-Serif" font-size="10.00">::writeDatasetBlock</text>
</a>
</g>
</g>
<!-- Node1&#45;&gt;Node8 -->
<g id="edge13_Node000001_Node000008" class="edge">
<title>Node1&#45;&gt;Node8</title>
<g id="a_edge13_Node000001_Node000008"><a xlink:title=" ">
<path fill="none" stroke="#63b8ff" d="M110.61,-149.11C134.19,-132.7 174.28,-107.81 213.25,-97.62 275.8,-81.28 349.04,-81.01 404.48,-84.43"/>
<polygon fill="#63b8ff" stroke="#63b8ff" points="403.95,-87.9 414.16,-85.08 404.42,-80.91 403.95,-87.9"/>
</a>
</g>
</g>
<!-- Node4 -->
<g id="Node000004" class="node">
<title>Node4</title>
<g id="a_Node000004"><a xlink:href="namespace_big_data_stat_meth.html#a8a3d5e267930c906cce28346886f07bc" target="_top" xlink:title="Detects available system memory using R&#45;compatible methods.">
<polygon fill="white" stroke="#666666" points="566.25,-222.88 416,-222.88 416,-192.38 566.25,-192.38 566.25,-222.88"/>
<text xml:space="preserve" text-anchor="start" x="424" y="-209.38" font-family="Helvetica,sans-Serif" font-size="10.00">BigDataStatMeth::getAvailable</text>
<text xml:space="preserve" text-anchor="middle" x="491.12" y="-198.12" font-family="Helvetica,sans-Serif" font-size="10.00">MemoryMB</text>
</a>
</g>
</g>
<!-- Node3&#45;&gt;Node4 -->
<g id="edge3_Node000003_Node000004" class="edge">
<title>Node3&#45;&gt;Node4</title>
<g id="a_edge3_Node000003_Node000004"><a xlink:title=" ">
<path fill="none" stroke="#63b8ff" d="M369.03,-207.62C380.55,-207.62 392.57,-207.62 404.38,-207.62"/>
<polygon fill="#63b8ff" stroke="#63b8ff" points="404.1,-211.13 414.1,-207.63 404.1,-204.13 404.1,-211.13"/>
</a>
</g>
</g>
<!-- Node6 -->
<g id="Node000006" class="node">
<title>Node6</title>
<g id="a_Node000006"><a xlink:href="class_big_data_stat_meth_1_1hdf5_dataset.html#aba39e56a580d3b1fa7f1619fc72efa3e" target="_top" xlink:title="Close dataset and file.">
<polygon fill="white" stroke="#666666" points="763,-165.88 612.75,-165.88 612.75,-135.38 763,-135.38 763,-165.88"/>
<text xml:space="preserve" text-anchor="start" x="620.75" y="-152.38" font-family="Helvetica,sans-Serif" font-size="10.00">BigDataStatMeth::hdf5Dataset</text>
<text xml:space="preserve" text-anchor="middle" x="687.88" y="-141.12" font-family="Helvetica,sans-Serif" font-size="10.00">::close_dataset_file</text>
</a>
</g>
</g>
<!-- Node5&#45;&gt;Node6 -->
<g id="edge5_Node000005_Node000006" class="edge">
<title>Node5&#45;&gt;Node6</title>
<g id="a_edge5_Node000005_Node000006"><a xlink:title=" ">
<path fill="none" stroke="#63b8ff" d="M566.59,-150.62C577.86,-150.62 589.57,-150.62 601.06,-150.62"/>
<polygon fill="#63b8ff" stroke="#63b8ff" points="600.94,-154.13 610.94,-150.63 600.94,-147.13 600.94,-154.13"/>
</a>
</g>
</g>
<!-- Node7&#45;&gt;Node5 -->
<g id="edge7_Node000007_Node000005" class="edge">
<title>Node7&#45;&gt;Node5</title>
<g id="a_edge7_Node000007_Node000005"><a xlink:title=" ">
<path fill="none" stroke="#63b8ff" d="M371.5,-132.75C382.28,-134.38 393.46,-136.06 404.45,-137.72"/>
<polygon fill="#63b8ff" stroke="#63b8ff" points="403.9,-141.18 414.31,-139.2 404.95,-134.25 403.9,-141.18"/>
</a>
</g>
</g>
<!-- Node7&#45;&gt;Node8 -->
<g id="edge8_Node000007_Node000008" class="edge">
<title>Node7&#45;&gt;Node8</title>
<g id="a_edge8_Node000007_Node000008"><a xlink:title=" ">
<path fill="none" stroke="#63b8ff" d="M371.5,-110.88C382.28,-109.31 393.46,-107.69 404.45,-106.09"/>
<polygon fill="#63b8ff" stroke="#63b8ff" points="404.92,-109.56 414.31,-104.65 403.91,-102.63 404.92,-109.56"/>
</a>
</g>
</g>
<!-- Node8&#45;&gt;Node6 -->
<g id="edge10_Node000008_Node000006" class="edge">
<title>Node8&#45;&gt;Node6</title>
<g id="a_edge10_Node000008_Node000006"><a xlink:title=" ">
<path fill="none" stroke="#63b8ff" d="M545.86,-109.35C569.59,-116.3 597.69,-124.52 622.53,-131.79"/>
<polygon fill="#63b8ff" stroke="#63b8ff" points="621.29,-135.07 631.87,-134.52 623.25,-128.36 621.29,-135.07"/>
</a>
</g>
</g>
<!-- Node9 -->
<g id="Node000009" class="node">
<title>Node9</title>
<g id="a_Node000009"><a xlink:href="class_big_data_stat_meth_1_1hdf5_dataset.html#a64177ae924792ea9e557febaa95ed400" target="_top" xlink:title="Close the dataset.">
<polygon fill="white" stroke="#666666" points="763,-116.88 612.75,-116.88 612.75,-86.38 763,-86.38 763,-116.88"/>
<text xml:space="preserve" text-anchor="start" x="620.75" y="-103.38" font-family="Helvetica,sans-Serif" font-size="10.00">BigDataStatMeth::hdf5Dataset</text>
<text xml:space="preserve" text-anchor="middle" x="687.88" y="-92.12" font-family="Helvetica,sans-Serif" font-size="10.00">::close_dataset</text>
</a>
</g>
</g>
<!-- Node8&#45;&gt;Node9 -->
<g id="edge9_Node000008_Node000009" class="edge">
<title>Node8&#45;&gt;Node9</title>
<g id="a_edge9_Node000008_Node000009"><a xlink:title=" ">
<path fill="none" stroke="#63b8ff" d="M566.59,-96.68C577.86,-97.15 589.57,-97.63 601.06,-98.1"/>
<polygon fill="#63b8ff" stroke="#63b8ff" points="600.81,-101.59 610.94,-98.51 601.1,-94.6 600.81,-101.59"/>
</a>
</g>
</g>
<!-- Node10 -->
<g id="Node000010" class="node">
<title>Node10</title>
<g id="a_Node000010"><a xlink:href="class_big_data_stat_meth_1_1hdf5_dataset.html#a94d81b72e92cb0230b4e64f37ea7d2e3" target="_top" xlink:title="Convert DataFrame to range list.">
<polygon fill="white" stroke="#666666" points="773.5,-67.88 602.25,-67.88 602.25,-37.38 773.5,-37.38 773.5,-67.88"/>
<text xml:space="preserve" text-anchor="start" x="610.25" y="-54.38" font-family="Helvetica,sans-Serif" font-size="10.00">BigDataStatMeth::hdf5Dataset</text>
<text xml:space="preserve" text-anchor="middle" x="687.88" y="-43.12" font-family="Helvetica,sans-Serif" font-size="10.00">::convert_DataFrame_to_RangeList</text>
</a>
</g>
</g>
<!-- Node8&#45;&gt;Node10 -->
<g id="edge11_Node000008_Node000010" class="edge">
<title>Node8&#45;&gt;Node10</title>
<g id="a_edge11_Node000008_Node000010"><a xlink:title=" ">
<path fill="none" stroke="#63b8ff" d="M566.59,-77.95C577.9,-75.57 589.64,-73.09 601.17,-70.67"/>
<polygon fill="#63b8ff" stroke="#63b8ff" points="601.59,-74.16 610.65,-68.67 600.15,-67.31 601.59,-74.16"/>
</a>
</g>
</g>
<!-- Node11 -->
<g id="Node000011" class="node">
<title>Node11</title>
<g id="a_Node000011"><a xlink:href="namespace_big_data_stat_meth.html#a2692707b3ea4aaafa09d07afaf632437" target="_top" xlink:title="Transposes a 2D matrix.">
<polygon fill="white" stroke="#666666" points="757.75,-19.25 618,-19.25 618,0 757.75,0 757.75,-19.25"/>
<text xml:space="preserve" text-anchor="middle" x="687.88" y="-5.75" font-family="Helvetica,sans-Serif" font-size="10.00">BigDataStatMeth::transpose</text>
</a>
</g>
</g>
<!-- Node8&#45;&gt;Node11 -->
<g id="edge12_Node000008_Node000011" class="edge">
<title>Node8&#45;&gt;Node11</title>
<g id="a_edge12_Node000008_Node000011"><a xlink:title=" ">
<path fill="none" stroke="#63b8ff" d="M513.85,-78.02C535.33,-63.27 569.64,-41.54 602.25,-28.62 607.85,-26.41 613.77,-24.42 619.76,-22.64"/>
<polygon fill="#63b8ff" stroke="#63b8ff" points="620.42,-26.09 629.13,-20.07 618.56,-19.34 620.42,-26.09"/>
</a>
</g>
</g>
</g>
</svg>

<g id="navigator" transform="translate(0 0)" fill="#404254">
  <rect fill="#f2f5e9" fill-opacity="0.5" stroke="#606060" stroke-width=".5" x="0" y="0" width="60" height="60"/>
  <use id="zoomplus" xlink:href="#zoomPlus" x="17" y="9" onmousedown="handleZoom(evt,'in')"/>
  <use id="zoomminus" xlink:href="#zoomMin" x="42" y="9" onmousedown="handleZoom(evt,'out')"/>
  <use id="reset" xlink:href="#resetDef" x="30" y="36" onmousedown="handleReset()"/>
   <use id="arrowup" xlink:href="#arrowUp" x="0" y="0" onmousedown="handlePan(0,-1)"/>
  <use id="arrowright" xlink:href="#arrowRight" x="0" y="0" onmousedown="handlePan(1,0)"/>
  <use id="arrowdown" xlink:href="#arrowDown" x="0" y="0" onmousedown="handlePan(0,1)"/>
  <use id="arrowleft" xlink:href="#arrowLeft" x="0" y="0" onmousedown="handlePan(-1,0)"/>
</g>
<svg viewBox="0 0 15 15" width="100%" height="30px" preserveAspectRatio="xMaxYMin meet">
 <g id="arrow_out" transform="scale(0.3 0.3)">
  <a xlink:href="namespace_big_data_stat_meth_a0f2b52e15661ecc7c19b233f152d09dc_cgraph_org.svg" target="_base">
   <rect id="button" ry="5" rx="5" y="6" x="6" height="38" width="38"
        fill="#f2f5e9" fill-opacity="0.5" stroke="#606060" stroke-width="1.0"/>
   <path id="arrow"
     d="M 11.500037,31.436501 C 11.940474,20.09759 22.043105,11.32322 32.158766,21.979434 L 37.068811,17.246167 C 37.068811,17.246167 37.088388,32 37.088388,32 L 22.160133,31.978069 C 22.160133,31.978069 26.997745,27.140456 26.997745,27.140456 C 18.528582,18.264221 13.291696,25.230495 11.500037,31.436501 z"
     style="fill:#404040;"/>
  </a>
 </g>
</svg>

<style type='text/css'>
<![CDATA[
[data-mouse-over-selected='false'] { opacity: 0.7; }
[data-mouse-over-selected='true']  { opacity: 1.0; }
]]>
</style>
<script type="application/ecmascript"><![CDATA[
document.addEventListener('DOMContentLoaded', (event) => {
  highlightEdges();
  highlightAdjacentNodes();
});
]]></script>
</svg>
