<?xml version="1.0" encoding="UTF-8" standalone="no"?>
<!DOCTYPE svg PUBLIC "-//W3C//DTD SVG 1.1//EN"
 "http://www.w3.org/Graphics/SVG/1.1/DTD/svg11.dtd">
<!-- Generated by graphviz version 14.0.0 (20250921.2048)
 -->
<!-- Title: BigDataStatMeth::RcppBind_datasets_hdf5 Pages: 1 -->
<!--zoomable 595 -->

<svg id="main" version="1.1" xmlns="http://www.w3.org/2000/svg" xmlns:xlink="http://www.w3.org/1999/xlink" xml:space="preserve" onload="init(evt)">

<style type="text/css"><![CDATA[
.node, .edge {opacity: 0.7;}
.node.selected, .edge.selected {opacity: 1;}
.edge:hover path { stroke: red; }
.edge:hover polygon { stroke: red; fill: red; }
]]></style>

<defs>
  <circle id="rim" cx="0" cy="0" r="7"/>
  <circle id="rim2" cx="0" cy="0" r="3.5"/>
  <g id="zoomPlus">
    <use xlink:href="#rim" fill="#404040"><set attributeName="fill" to="#808080" begin="zoomplus.mouseover" end="zoomplus.mouseout"/></use>
    <path d="M-4,0h8M0,-4v8" fill="none" stroke="white" stroke-width="1.5" pointer-events="none"/>
  </g>
  <g id="zoomMin">
    <use xlink:href="#rim" fill="#404040"><set attributeName="fill" to="#808080" begin="zoomminus.mouseover" end="zoomminus.mouseout"/></use>
    <path d="M-4,0h8" fill="none" stroke="white" stroke-width="1.5" pointer-events="none"/>
  </g>
  <g id="arrowUp" transform="translate(30 24)">
    <use xlink:href="#rim"/>
    <path pointer-events="none" fill="none" stroke="white" stroke-width="1.5" d="M0,-3.0v7 M-2.5,-0.5L0,-3.0L2.5,-0.5"/>
  </g>
  <g id="arrowRight" transform="rotate(90) translate(36 -43)">
    <use xlink:href="#rim"/>
    <path pointer-events="none" fill="none" stroke="white" stroke-width="1.5" d="M0,-3.0v7 M-2.5,-0.5L0,-3.0L2.5,-0.5"/>
  </g>
  <g id="arrowDown" transform="rotate(180) translate(-30 -48)">
    <use xlink:href="#rim"/>
    <path pointer-events="none" fill="none" stroke="white" stroke-width="1.5" d="M0,-3.0v7 M-2.5,-0.5L0,-3.0L2.5,-0.5"/>
  </g>
  <g id="arrowLeft" transform="rotate(270) translate(-36 17)">
    <use xlink:href="#rim"/>
    <path pointer-events="none" fill="none" stroke="white" stroke-width="1.5" d="M0,-3.0v7 M-2.5,-0.5L0,-3.0L2.5,-0.5"/>
  </g>
  <g id="resetDef">
    <use xlink:href="#rim2" fill="#404040"><set attributeName="fill" to="#808080" begin="reset.mouseover" end="reset.mouseout"/></use>
  </g>
</defs>
<script type="application/ecmascript">
var viewWidth = 1105;
var viewHeight = 595;
var sectionId = 'dynsection-148';
</script>
<script type="application/ecmascript" xlink:href="../../../../assets/svg.min.js"/>
<svg id="graph" class="graph">
<g id="viewport">
<title>BigDataStatMeth::RcppBind_datasets_hdf5</title>
<!-- Node1 -->
<g id="Node000001" class="node">
<title>Node1</title>
<g id="a_Node000001"><a xlink:title="High&#45;level interface for binding HDF5 datasets.">
<polygon fill="#999999" stroke="#666666" points="139.75,-323.88 0,-323.88 0,-293.38 139.75,-293.38 139.75,-323.88"/>
<text xml:space="preserve" text-anchor="start" x="8" y="-310.38" font-family="Helvetica,sans-Serif" font-size="10.00">BigDataStatMeth::RcppBind</text>
<text xml:space="preserve" text-anchor="middle" x="69.88" y="-299.12" font-family="Helvetica,sans-Serif" font-size="10.00">_datasets_hdf5</text>
</a>
</g>
</g>
<!-- Node2 -->
<g id="Node000002" class="node">
<title>Node2</title>
<g id="a_Node000002"><a xlink:href="namespace_big_data_stat_meth.html#a304b42b14ec87d4acc6f34ff0231529d" target="_top" xlink:title="Safely close any number of dataset handles (C++17).">
<polygon fill="white" stroke="#666666" points="520.88,-475.25 354.12,-475.25 354.12,-456 520.88,-456 520.88,-475.25"/>
<text xml:space="preserve" text-anchor="middle" x="437.5" y="-461.75" font-family="Helvetica,sans-Serif" font-size="10.00">BigDataStatMeth::checkClose_file</text>
</a>
</g>
</g>
<!-- Node1&#45;&gt;Node2 -->
<g id="edge1_Node000001_Node000002" class="edge">
<title>Node1&#45;&gt;Node2</title>
<g id="a_edge1_Node000001_Node000002"><a xlink:title=" ">
<path fill="none" stroke="#63b8ff" d="M97.43,-324.36C146.18,-352.63 253.94,-412.28 351.5,-446.62 357.96,-448.9 364.79,-450.96 371.66,-452.82"/>
<polygon fill="#63b8ff" stroke="#63b8ff" points="370.43,-456.12 380.98,-455.19 372.16,-449.33 370.43,-456.12"/>
</a>
</g>
</g>
<!-- Node3 -->
<g id="Node000003" class="node">
<title>Node3</title>
<g id="a_Node000003"><a xlink:href="namespace_big_data_stat_meth.html#ad802cb8b34efe38289c580d5c7042289" target="_top" xlink:title="Binds multiple HDF5 datasets together.">
<polygon fill="white" stroke="#666666" points="315.5,-302.88 175.75,-302.88 175.75,-272.38 315.5,-272.38 315.5,-302.88"/>
<text xml:space="preserve" text-anchor="start" x="183.75" y="-289.38" font-family="Helvetica,sans-Serif" font-size="10.00">BigDataStatMeth::RcppBind</text>
<text xml:space="preserve" text-anchor="middle" x="245.62" y="-278.12" font-family="Helvetica,sans-Serif" font-size="10.00">_datasets_hdf5</text>
</a>
</g>
</g>
<!-- Node1&#45;&gt;Node3 -->
<g id="edge2_Node000001_Node000003" class="edge">
<title>Node1&#45;&gt;Node3</title>
<g id="a_edge2_Node000001_Node000003"><a xlink:title=" ">
<path fill="none" stroke="#63b8ff" d="M140.04,-300.26C147.96,-299.31 156.07,-298.33 164.12,-297.36"/>
<polygon fill="#63b8ff" stroke="#63b8ff" points="164.4,-300.85 173.91,-296.17 163.56,-293.9 164.4,-300.85"/>
</a>
</g>
</g>
<!-- Node3&#45;&gt;Node2 -->
<g id="edge3_Node000003_Node000002" class="edge">
<title>Node3&#45;&gt;Node2</title>
<g id="a_edge3_Node000003_Node000002"><a xlink:title=" ">
<path fill="none" stroke="#63b8ff" d="M260.3,-303.15C274.96,-320.22 298.42,-348.78 315.5,-375.62 334.49,-405.47 323.57,-424.91 351.5,-446.62 353.25,-447.98 355.07,-449.25 356.96,-450.42"/>
<polygon fill="#63b8ff" stroke="#63b8ff" points="355.03,-453.37 365.51,-454.91 358.28,-447.17 355.03,-453.37"/>
</a>
</g>
</g>
<!-- Node4 -->
<g id="Node000004" class="node">
<title>Node4</title>
<g id="a_Node000004"><a xlink:href="class_big_data_stat_meth_1_1hdf5_dataset.html#a7d4d9784a080f09d3b2f05e2d397a034" target="_top" xlink:title="Create an unlimited dataset with optional compression.">
<polygon fill="white" stroke="#666666" points="512.62,-437.88 362.38,-437.88 362.38,-407.38 512.62,-407.38 512.62,-437.88"/>
<text xml:space="preserve" text-anchor="start" x="370.38" y="-424.38" font-family="Helvetica,sans-Serif" font-size="10.00">BigDataStatMeth::hdf5Dataset</text>
<text xml:space="preserve" text-anchor="middle" x="437.5" y="-413.12" font-family="Helvetica,sans-Serif" font-size="10.00">::createUnlimitedDataset</text>
</a>
</g>
</g>
<!-- Node3&#45;&gt;Node4 -->
<g id="edge4_Node000003_Node000004" class="edge">
<title>Node3&#45;&gt;Node4</title>
<g id="a_edge4_Node000003_Node000004"><a xlink:title=" ">
<path fill="none" stroke="#63b8ff" d="M268.41,-303.11C301.99,-326.99 366.57,-372.9 405.17,-400.35"/>
<polygon fill="#63b8ff" stroke="#63b8ff" points="402.98,-403.08 413.15,-406.03 407.03,-397.38 402.98,-403.08"/>
</a>
</g>
</g>
<!-- Node11 -->
<g id="Node000011" class="node">
<title>Node11</title>
<g id="a_Node000011"><a xlink:href="class_big_data_stat_meth_1_1hdf5_dataset.html#a7b54a6f524581d54102a1614ee44991b" target="_top" xlink:title="Get dataset dimension.">
<polygon fill="white" stroke="#666666" points="523.5,-92.25 351.5,-92.25 351.5,-73 523.5,-73 523.5,-92.25"/>
<text xml:space="preserve" text-anchor="middle" x="437.5" y="-78.75" font-family="Helvetica,sans-Serif" font-size="10.00">BigDataStatMeth::hdf5Dataset::dim</text>
</a>
</g>
</g>
<!-- Node3&#45;&gt;Node11 -->
<g id="edge12_Node000003_Node000011" class="edge">
<title>Node3&#45;&gt;Node11</title>
<g id="a_edge12_Node000003_Node000011"><a xlink:title=" ">
<path fill="none" stroke="#63b8ff" d="M250.71,-271.98C260.99,-235.82 291.52,-146.15 351.5,-101.62 353.32,-100.27 355.22,-99.01 357.18,-97.84"/>
<polygon fill="#63b8ff" stroke="#63b8ff" points="358.74,-100.98 366.1,-93.36 355.59,-94.73 358.74,-100.98"/>
</a>
</g>
</g>
<!-- Node12 -->
<g id="Node000012" class="node">
<title>Node12</title>
<g id="a_Node000012"><a xlink:href="class_big_data_stat_meth_1_1hdf5_dataset.html#a5235fb1fb8b567325b1405bcef9f061d" target="_top" xlink:title="Extend an unlimited dataset.">
<polygon fill="white" stroke="#666666" points="512.62,-270.88 362.38,-270.88 362.38,-240.38 512.62,-240.38 512.62,-270.88"/>
<text xml:space="preserve" text-anchor="start" x="370.38" y="-257.38" font-family="Helvetica,sans-Serif" font-size="10.00">BigDataStatMeth::hdf5Dataset</text>
<text xml:space="preserve" text-anchor="middle" x="437.5" y="-246.12" font-family="Helvetica,sans-Serif" font-size="10.00">::extendUnlimitedDataset</text>
</a>
</g>
</g>
<!-- Node3&#45;&gt;Node12 -->
<g id="edge13_Node000003_Node000012" class="edge">
<title>Node3&#45;&gt;Node12</title>
<g id="a_edge13_Node000003_Node000012"><a xlink:title=" ">
<path fill="none" stroke="#63b8ff" d="M315.98,-275.94C327.3,-274.03 339.14,-272.03 350.8,-270.07"/>
<polygon fill="#63b8ff" stroke="#63b8ff" points="351.12,-273.56 360.4,-268.45 349.96,-266.66 351.12,-273.56"/>
</a>
</g>
</g>
<!-- Node14 -->
<g id="Node000014" class="node">
<title>Node14</title>
<g id="a_Node000014"><a xlink:href="class_big_data_stat_meth_1_1hdf5_dataset.html#ab57cadee5e43a496eb32dbf12d603d76" target="_top" xlink:title=" ">
<polygon fill="white" stroke="#666666" points="512.62,-327.88 362.38,-327.88 362.38,-297.38 512.62,-297.38 512.62,-327.88"/>
<text xml:space="preserve" text-anchor="start" x="370.38" y="-314.38" font-family="Helvetica,sans-Serif" font-size="10.00">BigDataStatMeth::hdf5Dataset</text>
<text xml:space="preserve" text-anchor="middle" x="437.5" y="-303.12" font-family="Helvetica,sans-Serif" font-size="10.00">::openDataset</text>
</a>
</g>
</g>
<!-- Node3&#45;&gt;Node14 -->
<g id="edge15_Node000003_Node000014" class="edge">
<title>Node3&#45;&gt;Node14</title>
<g id="a_edge15_Node000003_Node000014"><a xlink:title=" ">
<path fill="none" stroke="#63b8ff" d="M315.98,-296.76C327.3,-298.25 339.14,-299.81 350.8,-301.34"/>
<polygon fill="#63b8ff" stroke="#63b8ff" points="350.02,-304.77 360.39,-302.6 350.94,-297.83 350.02,-304.77"/>
</a>
</g>
</g>
<!-- Node17 -->
<g id="Node000017" class="node">
<title>Node17</title>
<g id="a_Node000017"><a xlink:href="class_big_data_stat_meth_1_1hdf5_dataset.html#a23bea87165b8ef6b944709c5b2cbd0cf" target="_top" xlink:title=" ">
<polygon fill="white" stroke="#666666" points="512.62,-205.88 362.38,-205.88 362.38,-175.38 512.62,-175.38 512.62,-205.88"/>
<text xml:space="preserve" text-anchor="start" x="370.38" y="-192.38" font-family="Helvetica,sans-Serif" font-size="10.00">BigDataStatMeth::hdf5Dataset</text>
<text xml:space="preserve" text-anchor="middle" x="437.5" y="-181.12" font-family="Helvetica,sans-Serif" font-size="10.00">::readDatasetBlock</text>
</a>
</g>
</g>
<!-- Node3&#45;&gt;Node17 -->
<g id="edge22_Node000003_Node000017" class="edge">
<title>Node3&#45;&gt;Node17</title>
<g id="a_edge22_Node000003_Node000017"><a xlink:title=" ">
<path fill="none" stroke="#63b8ff" d="M274.95,-272.1C295.96,-260.68 325.37,-244.9 351.5,-231.62 364.87,-224.83 379.55,-217.66 392.88,-211.24"/>
<polygon fill="#63b8ff" stroke="#63b8ff" points="394.37,-214.41 401.88,-206.93 391.35,-208.1 394.37,-214.41"/>
</a>
</g>
</g>
<!-- Node18 -->
<g id="Node000018" class="node">
<title>Node18</title>
<g id="a_Node000018"><a xlink:href="class_big_data_stat_meth_1_1hdf5_dataset.html#af606176d84a63561b65702b6fde3a583" target="_top" xlink:title="Write block of data with optional transposition.">
<polygon fill="white" stroke="#666666" points="512.62,-140.88 362.38,-140.88 362.38,-110.38 512.62,-110.38 512.62,-140.88"/>
<text xml:space="preserve" text-anchor="start" x="370.38" y="-127.38" font-family="Helvetica,sans-Serif" font-size="10.00">BigDataStatMeth::hdf5Dataset</text>
<text xml:space="preserve" text-anchor="middle" x="437.5" y="-116.12" font-family="Helvetica,sans-Serif" font-size="10.00">::writeDatasetBlock</text>
</a>
</g>
</g>
<!-- Node3&#45;&gt;Node18 -->
<g id="edge24_Node000003_Node000018" class="edge">
<title>Node3&#45;&gt;Node18</title>
<g id="a_edge24_Node000003_Node000018"><a xlink:title=" ">
<path fill="none" stroke="#63b8ff" d="M256.93,-272.08C274.07,-247.15 310.65,-197.87 351.5,-166.62 361.77,-158.77 373.78,-151.86 385.48,-146.07"/>
<polygon fill="#63b8ff" stroke="#63b8ff" points="386.73,-149.35 394.27,-141.91 383.73,-143.02 386.73,-149.35"/>
</a>
</g>
</g>
<!-- Node5 -->
<g id="Node000005" class="node">
<title>Node5</title>
<g id="a_Node000005"><a xlink:href="class_big_data_stat_meth_1_1hdf5_dataset.html#ac7a7f23b7e22c9b56ca6ad86592f2d52" target="_top" xlink:title="Add an attribute to the dataset.">
<polygon fill="white" stroke="#666666" points="720.25,-586.88 570,-586.88 570,-556.38 720.25,-556.38 720.25,-586.88"/>
<text xml:space="preserve" text-anchor="start" x="578" y="-573.38" font-family="Helvetica,sans-Serif" font-size="10.00">BigDataStatMeth::hdf5Dataset</text>
<text xml:space="preserve" text-anchor="middle" x="645.12" y="-562.12" font-family="Helvetica,sans-Serif" font-size="10.00">::addAttribute</text>
</a>
</g>
</g>
<!-- Node4&#45;&gt;Node5 -->
<g id="edge5_Node000004_Node000005" class="edge">
<title>Node4&#45;&gt;Node5</title>
<g id="a_edge5_Node000004_Node000005"><a xlink:title=" ">
<path fill="none" stroke="#63b8ff" d="M511.95,-438.2C516.1,-440.62 520,-443.41 523.5,-446.62 557.04,-477.47 526.82,-510.87 559.5,-542.62 562.37,-545.42 565.52,-547.94 568.87,-550.22"/>
<polygon fill="#63b8ff" stroke="#63b8ff" points="567.04,-553.2 577.44,-555.26 570.59,-547.17 567.04,-553.2"/>
</a>
</g>
</g>
<!-- Node6 -->
<g id="Node000006" class="node">
<title>Node6</title>
<g id="a_Node000006"><a xlink:href="class_big_data_stat_meth_1_1hdf5_file.html#abfb73b5f1eb25ee00489485c8dc56a2a" target="_top" xlink:title="Close file and cleanup resources.">
<polygon fill="white" stroke="#666666" points="710.88,-413.88 579.38,-413.88 579.38,-383.38 710.88,-383.38 710.88,-413.88"/>
<text xml:space="preserve" text-anchor="start" x="587.38" y="-400.38" font-family="Helvetica,sans-Serif" font-size="10.00">BigDataStatMeth::hdf5File</text>
<text xml:space="preserve" text-anchor="middle" x="645.12" y="-389.12" font-family="Helvetica,sans-Serif" font-size="10.00">::close_file</text>
</a>
</g>
</g>
<!-- Node4&#45;&gt;Node6 -->
<g id="edge6_Node000004_Node000006" class="edge">
<title>Node4&#45;&gt;Node6</title>
<g id="a_edge6_Node000004_Node000006"><a xlink:title=" ">
<path fill="none" stroke="#63b8ff" d="M513.03,-413.93C530.84,-411.85 549.87,-409.63 567.76,-407.54"/>
<polygon fill="#63b8ff" stroke="#63b8ff" points="568,-411.03 577.53,-406.4 567.19,-404.08 568,-411.03"/>
</a>
</g>
</g>
<!-- Node7 -->
<g id="Node000007" class="node">
<title>Node7</title>
<g id="a_Node000007"><a xlink:href="class_big_data_stat_meth_1_1hdf5_group.html#a27cef4d33e46c72bfd792aa49fa621a3" target="_top" xlink:title="Create multiple nested groups.">
<polygon fill="white" stroke="#666666" points="912.88,-512.88 770.88,-512.88 770.88,-482.38 912.88,-482.38 912.88,-512.88"/>
<text xml:space="preserve" text-anchor="start" x="778.88" y="-499.38" font-family="Helvetica,sans-Serif" font-size="10.00">BigDataStatMeth::hdf5Group</text>
<text xml:space="preserve" text-anchor="middle" x="841.88" y="-488.12" font-family="Helvetica,sans-Serif" font-size="10.00">::create_HDF5_groups</text>
</a>
</g>
</g>
<!-- Node4&#45;&gt;Node7 -->
<g id="edge7_Node000004_Node000007" class="edge">
<title>Node4&#45;&gt;Node7</title>
<g id="a_edge7_Node000004_Node000007"><a xlink:title=" ">
<path fill="none" stroke="#63b8ff" d="M508.41,-438.22C513.72,-440.63 518.82,-443.42 523.5,-446.62 545.49,-461.71 535.71,-482.57 559.5,-494.62 621.32,-525.95 701.03,-523.48 759.81,-515.05"/>
<polygon fill="#63b8ff" stroke="#63b8ff" points="760.06,-518.55 769.41,-513.58 759,-511.63 760.06,-518.55"/>
</a>
</g>
</g>
<!-- Node9 -->
<g id="Node000009" class="node">
<title>Node9</title>
<g id="a_Node000009"><a xlink:href="namespace_big_data_stat_meth.html#a89d901ab4b5e01771f4e3fc7dc84e50e" target="_top" xlink:title="Checks if an HDF5 element (group or dataset) exists.">
<polygon fill="white" stroke="#666666" points="903.5,-401.88 780.25,-401.88 780.25,-371.38 903.5,-371.38 903.5,-401.88"/>
<text xml:space="preserve" text-anchor="start" x="788.25" y="-388.38" font-family="Helvetica,sans-Serif" font-size="10.00">BigDataStatMeth::exists</text>
<text xml:space="preserve" text-anchor="middle" x="841.88" y="-377.12" font-family="Helvetica,sans-Serif" font-size="10.00">_HDF5_element</text>
</a>
</g>
</g>
<!-- Node4&#45;&gt;Node9 -->
<g id="edge9_Node000004_Node000009" class="edge">
<title>Node4&#45;&gt;Node9</title>
<g id="a_edge9_Node000004_Node000009"><a xlink:title=" ">
<path fill="none" stroke="#63b8ff" d="M502.93,-438.34C509.99,-440.79 516.98,-443.55 523.5,-446.62 541.12,-454.94 540.91,-465.8 559.5,-471.62 632.13,-494.37 658.71,-496.19 730.75,-471.62 766.11,-459.57 798.95,-431.05 819.4,-410.36"/>
<polygon fill="#63b8ff" stroke="#63b8ff" points="821.67,-413.05 826.07,-403.41 816.62,-408.2 821.67,-413.05"/>
</a>
</g>
</g>
<!-- Node10 -->
<g id="Node000010" class="node">
<title>Node10</title>
<g id="a_Node000010"><a xlink:href="namespace_big_data_stat_meth.html#a3d06783149029f1df2853c472d401380" target="_top" xlink:title="Removes multiple elements from an HDF5 file.">
<polygon fill="white" stroke="#666666" points="709.75,-462.88 580.5,-462.88 580.5,-432.38 709.75,-432.38 709.75,-462.88"/>
<text xml:space="preserve" text-anchor="start" x="588.5" y="-449.38" font-family="Helvetica,sans-Serif" font-size="10.00">BigDataStatMeth::remove</text>
<text xml:space="preserve" text-anchor="middle" x="645.12" y="-438.12" font-family="Helvetica,sans-Serif" font-size="10.00">_elements</text>
</a>
</g>
</g>
<!-- Node4&#45;&gt;Node10 -->
<g id="edge11_Node000004_Node000010" class="edge">
<title>Node4&#45;&gt;Node10</title>
<g id="a_edge11_Node000004_Node000010"><a xlink:title=" ">
<path fill="none" stroke="#63b8ff" d="M513.03,-431.69C531.12,-433.89 550.48,-436.24 568.62,-438.44"/>
<polygon fill="#63b8ff" stroke="#63b8ff" points="568.18,-441.92 578.53,-439.65 569.03,-434.97 568.18,-441.92"/>
</a>
</g>
</g>
<!-- Node8 -->
<g id="Node000008" class="node">
<title>Node8</title>
<g id="a_Node000008"><a xlink:href="namespace_big_data_stat_meth.html#abcaa4216cd52f03ebac42e4855ef846b" target="_top" xlink:title="Checks if a path exists in an HDF5 file.">
<polygon fill="white" stroke="#666666" points="1096.5,-451.25 953,-451.25 953,-432 1096.5,-432 1096.5,-451.25"/>
<text xml:space="preserve" text-anchor="middle" x="1024.75" y="-437.75" font-family="Helvetica,sans-Serif" font-size="10.00">BigDataStatMeth::pathExists</text>
</a>
</g>
</g>
<!-- Node7&#45;&gt;Node8 -->
<g id="edge8_Node000007_Node000008" class="edge">
<title>Node7&#45;&gt;Node8</title>
<g id="a_edge8_Node000007_Node000008"><a xlink:title=" ">
<path fill="none" stroke="#63b8ff" d="M893.74,-481.88C921.08,-473.41 954.42,-463.09 980.5,-455.02"/>
<polygon fill="#63b8ff" stroke="#63b8ff" points="981.23,-458.45 989.74,-452.15 979.16,-451.77 981.23,-458.45"/>
</a>
</g>
</g>
<!-- Node9&#45;&gt;Node8 -->
<g id="edge10_Node000009_Node000008" class="edge">
<title>Node9&#45;&gt;Node8</title>
<g id="a_edge10_Node000009_Node000008"><a xlink:title=" ">
<path fill="none" stroke="#63b8ff" d="M894.22,-402.24C921.15,-410.43 953.81,-420.36 979.59,-428.2"/>
<polygon fill="#63b8ff" stroke="#63b8ff" points="978.51,-431.53 989.1,-431.09 980.55,-424.83 978.51,-431.53"/>
</a>
</g>
</g>
<!-- Node13 -->
<g id="Node000013" class="node">
<title>Node13</title>
<g id="a_Node000013"><a xlink:href="class_big_data_stat_meth_1_1hdf5_dataset.html#aba39e56a580d3b1fa7f1619fc72efa3e" target="_top" xlink:title="Close dataset and file.">
<polygon fill="white" stroke="#666666" points="917,-216.88 766.75,-216.88 766.75,-186.38 917,-186.38 917,-216.88"/>
<text xml:space="preserve" text-anchor="start" x="774.75" y="-203.38" font-family="Helvetica,sans-Serif" font-size="10.00">BigDataStatMeth::hdf5Dataset</text>
<text xml:space="preserve" text-anchor="middle" x="841.88" y="-192.12" font-family="Helvetica,sans-Serif" font-size="10.00">::close_dataset_file</text>
</a>
</g>
</g>
<!-- Node12&#45;&gt;Node13 -->
<g id="edge14_Node000012_Node000013" class="edge">
<title>Node12&#45;&gt;Node13</title>
<g id="a_edge14_Node000012_Node000013"><a xlink:title=" ">
<path fill="none" stroke="#63b8ff" d="M512.77,-245.66C581.31,-236.46 683.08,-222.8 755.07,-213.14"/>
<polygon fill="#63b8ff" stroke="#63b8ff" points="755.41,-216.63 764.86,-211.83 754.48,-209.69 755.41,-216.63"/>
</a>
</g>
</g>
<!-- Node14&#45;&gt;Node6 -->
<g id="edge16_Node000014_Node000006" class="edge">
<title>Node14&#45;&gt;Node6</title>
<g id="a_edge16_Node000014_Node000006"><a xlink:title=" ">
<path fill="none" stroke="#63b8ff" d="M469.42,-328.35C493.62,-340.37 528.3,-356.97 559.5,-369.62 567.6,-372.91 576.22,-376.15 584.75,-379.21"/>
<polygon fill="#63b8ff" stroke="#63b8ff" points="583.43,-382.45 594.03,-382.47 585.75,-375.85 583.43,-382.45"/>
</a>
</g>
</g>
<!-- Node14&#45;&gt;Node9 -->
<g id="edge17_Node000014_Node000009" class="edge">
<title>Node14&#45;&gt;Node9</title>
<g id="a_edge17_Node000014_Node000009"><a xlink:title=" ">
<path fill="none" stroke="#63b8ff" d="M513.01,-327.65C528.37,-330.67 544.45,-333.8 559.5,-336.62 630.58,-349.99 711.95,-364.35 768.84,-374.23"/>
<polygon fill="#63b8ff" stroke="#63b8ff" points="767.94,-377.63 778.39,-375.89 769.14,-370.73 767.94,-377.63"/>
</a>
</g>
</g>
<!-- Node15 -->
<g id="Node000015" class="node">
<title>Node15</title>
<g id="a_Node000015"><a xlink:href="class_big_data_stat_meth_1_1hdf5_dataset.html#a1ebc27e1f730bc4e611b844dbbb08e34" target="_top" xlink:title="Get an attribute from the dataset.">
<polygon fill="white" stroke="#666666" points="720.25,-327.88 570,-327.88 570,-297.38 720.25,-297.38 720.25,-327.88"/>
<text xml:space="preserve" text-anchor="start" x="578" y="-314.38" font-family="Helvetica,sans-Serif" font-size="10.00">BigDataStatMeth::hdf5Dataset</text>
<text xml:space="preserve" text-anchor="middle" x="645.12" y="-303.12" font-family="Helvetica,sans-Serif" font-size="10.00">::getAttribute</text>
</a>
</g>
</g>
<!-- Node14&#45;&gt;Node15 -->
<g id="edge18_Node000014_Node000015" class="edge">
<title>Node14&#45;&gt;Node15</title>
<g id="a_edge18_Node000014_Node000015"><a xlink:title=" ">
<path fill="none" stroke="#63b8ff" d="M513.03,-312.62C527.68,-312.62 543.17,-312.62 558.16,-312.62"/>
<polygon fill="#63b8ff" stroke="#63b8ff" points="557.99,-316.13 567.99,-312.63 557.99,-309.13 557.99,-316.13"/>
</a>
</g>
</g>
<!-- Node16 -->
<g id="Node000016" class="node">
<title>Node16</title>
<g id="a_Node000016"><a xlink:href="class_big_data_stat_meth_1_1hdf5_dataset.html#a945dd1d6f3db102a962d239045792f61" target="_top" xlink:title="Get dimensions of existing dataset.">
<polygon fill="white" stroke="#666666" points="720.25,-278.88 570,-278.88 570,-248.38 720.25,-248.38 720.25,-278.88"/>
<text xml:space="preserve" text-anchor="start" x="578" y="-265.38" font-family="Helvetica,sans-Serif" font-size="10.00">BigDataStatMeth::hdf5Dataset</text>
<text xml:space="preserve" text-anchor="middle" x="645.12" y="-254.12" font-family="Helvetica,sans-Serif" font-size="10.00">::getDimensExistingDataset</text>
</a>
</g>
</g>
<!-- Node14&#45;&gt;Node16 -->
<g id="edge21_Node000014_Node000016" class="edge">
<title>Node14&#45;&gt;Node16</title>
<g id="a_edge21_Node000014_Node000016"><a xlink:title=" ">
<path fill="none" stroke="#63b8ff" d="M504.41,-296.92C524.42,-292.15 546.59,-286.87 567.26,-281.94"/>
<polygon fill="#63b8ff" stroke="#63b8ff" points="567.85,-285.4 576.76,-279.68 566.22,-278.59 567.85,-285.4"/>
</a>
</g>
</g>
<!-- Node15&#45;&gt;Node9 -->
<g id="edge20_Node000015_Node000009" class="edge">
<title>Node15&#45;&gt;Node9</title>
<g id="a_edge20_Node000015_Node000009"><a xlink:title=" ">
<path fill="none" stroke="#63b8ff" d="M693.3,-328.25C705.54,-332.45 718.68,-337.1 730.75,-341.62 751.47,-349.4 774.14,-358.55 793.5,-366.56"/>
<polygon fill="#63b8ff" stroke="#63b8ff" points="791.9,-369.69 802.48,-370.3 794.59,-363.23 791.9,-369.69"/>
</a>
</g>
</g>
<!-- Node15&#45;&gt;Node13 -->
<g id="edge19_Node000015_Node000013" class="edge">
<title>Node15&#45;&gt;Node13</title>
<g id="a_edge19_Node000015_Node000013"><a xlink:title=" ">
<path fill="none" stroke="#63b8ff" d="M709.09,-296.92C716.56,-294.22 723.94,-291.13 730.75,-287.62 763.21,-270.92 795.57,-244.14 816.72,-224.89"/>
<polygon fill="#63b8ff" stroke="#63b8ff" points="819,-227.55 823.96,-218.19 814.25,-222.42 819,-227.55"/>
</a>
</g>
</g>
<!-- Node17&#45;&gt;Node13 -->
<g id="edge23_Node000017_Node000013" class="edge">
<title>Node17&#45;&gt;Node13</title>
<g id="a_edge23_Node000017_Node000013"><a xlink:title=" ">
<path fill="none" stroke="#63b8ff" d="M512.77,-192.66C581.31,-194.53 683.08,-197.31 755.07,-199.28"/>
<polygon fill="#63b8ff" stroke="#63b8ff" points="754.75,-202.77 764.84,-199.55 754.94,-195.77 754.75,-202.77"/>
</a>
</g>
</g>
<!-- Node18&#45;&gt;Node13 -->
<g id="edge26_Node000018_Node000013" class="edge">
<title>Node18&#45;&gt;Node13</title>
<g id="a_edge26_Node000018_Node000013"><a xlink:title=" ">
<path fill="none" stroke="#63b8ff" d="M512.77,-139.65C581.31,-152.6 683.08,-171.82 755.07,-185.42"/>
<polygon fill="#63b8ff" stroke="#63b8ff" points="754.39,-188.85 764.87,-187.27 755.69,-181.97 754.39,-188.85"/>
</a>
</g>
</g>
<!-- Node19 -->
<g id="Node000019" class="node">
<title>Node19</title>
<g id="a_Node000019"><a xlink:href="class_big_data_stat_meth_1_1hdf5_dataset.html#a64177ae924792ea9e557febaa95ed400" target="_top" xlink:title="Close the dataset.">
<polygon fill="white" stroke="#666666" points="720.25,-116.88 570,-116.88 570,-86.38 720.25,-86.38 720.25,-116.88"/>
<text xml:space="preserve" text-anchor="start" x="578" y="-103.38" font-family="Helvetica,sans-Serif" font-size="10.00">BigDataStatMeth::hdf5Dataset</text>
<text xml:space="preserve" text-anchor="middle" x="645.12" y="-92.12" font-family="Helvetica,sans-Serif" font-size="10.00">::close_dataset</text>
</a>
</g>
</g>
<!-- Node18&#45;&gt;Node19 -->
<g id="edge25_Node000018_Node000019" class="edge">
<title>Node18&#45;&gt;Node19</title>
<g id="a_edge25_Node000018_Node000019"><a xlink:title=" ">
<path fill="none" stroke="#63b8ff" d="M513.03,-116.93C527.68,-115.22 543.17,-113.41 558.16,-111.66"/>
<polygon fill="#63b8ff" stroke="#63b8ff" points="558.48,-115.15 568,-110.51 557.67,-108.19 558.48,-115.15"/>
</a>
</g>
</g>
<!-- Node20 -->
<g id="Node000020" class="node">
<title>Node20</title>
<g id="a_Node000020"><a xlink:href="class_big_data_stat_meth_1_1hdf5_dataset.html#a94d81b72e92cb0230b4e64f37ea7d2e3" target="_top" xlink:title="Convert DataFrame to range list.">
<polygon fill="white" stroke="#666666" points="730.75,-67.88 559.5,-67.88 559.5,-37.38 730.75,-37.38 730.75,-67.88"/>
<text xml:space="preserve" text-anchor="start" x="567.5" y="-54.38" font-family="Helvetica,sans-Serif" font-size="10.00">BigDataStatMeth::hdf5Dataset</text>
<text xml:space="preserve" text-anchor="middle" x="645.12" y="-43.12" font-family="Helvetica,sans-Serif" font-size="10.00">::convert_DataFrame_to_RangeList</text>
</a>
</g>
</g>
<!-- Node18&#45;&gt;Node20 -->
<g id="edge27_Node000018_Node000020" class="edge">
<title>Node18&#45;&gt;Node20</title>
<g id="a_edge27_Node000018_Node000020"><a xlink:title=" ">
<path fill="none" stroke="#63b8ff" d="M502.42,-109.94C509.65,-107.47 516.81,-104.7 523.5,-101.62 540.97,-93.58 542.08,-85.77 559.5,-77.62 563.52,-75.74 567.72,-73.97 572,-72.3"/>
<polygon fill="#63b8ff" stroke="#63b8ff" points="573.14,-75.6 581.33,-68.88 570.74,-69.03 573.14,-75.6"/>
</a>
</g>
</g>
<!-- Node21 -->
<g id="Node000021" class="node">
<title>Node21</title>
<g id="a_Node000021"><a xlink:href="namespace_big_data_stat_meth.html#a2692707b3ea4aaafa09d07afaf632437" target="_top" xlink:title="Transposes a 2D matrix.">
<polygon fill="white" stroke="#666666" points="715,-19.25 575.25,-19.25 575.25,0 715,0 715,-19.25"/>
<text xml:space="preserve" text-anchor="middle" x="645.12" y="-5.75" font-family="Helvetica,sans-Serif" font-size="10.00">BigDataStatMeth::transpose</text>
</a>
</g>
</g>
<!-- Node18&#45;&gt;Node21 -->
<g id="edge28_Node000018_Node000021" class="edge">
<title>Node18&#45;&gt;Node21</title>
<g id="a_edge28_Node000018_Node000021"><a xlink:title=" ">
<path fill="none" stroke="#63b8ff" d="M510.77,-110.09C515.31,-107.66 519.61,-104.86 523.5,-101.62 551.31,-78.49 531.07,-51 559.5,-28.62 561.27,-27.23 563.13,-25.93 565.06,-24.72"/>
<polygon fill="#63b8ff" stroke="#63b8ff" points="566.59,-27.87 573.82,-20.13 563.34,-21.67 566.59,-27.87"/>
</a>
</g>
</g>
</g>
</svg>

<g id="navigator" transform="translate(0 0)" fill="#404254">
  <rect fill="#f2f5e9" fill-opacity="0.5" stroke="#606060" stroke-width=".5" x="0" y="0" width="60" height="60"/>
  <use id="zoomplus" xlink:href="#zoomPlus" x="17" y="9" onmousedown="handleZoom(evt,'in')"/>
  <use id="zoomminus" xlink:href="#zoomMin" x="42" y="9" onmousedown="handleZoom(evt,'out')"/>
  <use id="reset" xlink:href="#resetDef" x="30" y="36" onmousedown="handleReset()"/>
   <use id="arrowup" xlink:href="#arrowUp" x="0" y="0" onmousedown="handlePan(0,-1)"/>
  <use id="arrowright" xlink:href="#arrowRight" x="0" y="0" onmousedown="handlePan(1,0)"/>
  <use id="arrowdown" xlink:href="#arrowDown" x="0" y="0" onmousedown="handlePan(0,1)"/>
  <use id="arrowleft" xlink:href="#arrowLeft" x="0" y="0" onmousedown="handlePan(-1,0)"/>
</g>
<svg viewBox="0 0 15 15" width="100%" height="30px" preserveAspectRatio="xMaxYMin meet">
 <g id="arrow_out" transform="scale(0.3 0.3)">
  <a xlink:href="namespace_big_data_stat_meth_a0bd6be89ee8fce729768fa4643b5943b_cgraph_org.svg" target="_base">
   <rect id="button" ry="5" rx="5" y="6" x="6" height="38" width="38"
        fill="#f2f5e9" fill-opacity="0.5" stroke="#606060" stroke-width="1.0"/>
   <path id="arrow"
     d="M 11.500037,31.436501 C 11.940474,20.09759 22.043105,11.32322 32.158766,21.979434 L 37.068811,17.246167 C 37.068811,17.246167 37.088388,32 37.088388,32 L 22.160133,31.978069 C 22.160133,31.978069 26.997745,27.140456 26.997745,27.140456 C 18.528582,18.264221 13.291696,25.230495 11.500037,31.436501 z"
     style="fill:#404040;"/>
  </a>
 </g>
</svg>

<style type='text/css'>
<![CDATA[
[data-mouse-over-selected='false'] { opacity: 0.7; }
[data-mouse-over-selected='true']  { opacity: 1.0; }
]]>
</style>
<script type="application/ecmascript"><![CDATA[
document.addEventListener('DOMContentLoaded', (event) => {
  highlightEdges();
  highlightAdjacentNodes();
});
]]></script>
</svg>
