<?xml version="1.0" encoding="UTF-8" standalone="no"?>
<!DOCTYPE svg PUBLIC "-//W3C//DTD SVG 1.1//EN"
 "http://www.w3.org/Graphics/SVG/1.1/DTD/svg11.dtd">
<!-- Generated by graphviz version 14.0.0 (20250921.2048)
 -->
<!-- Title: BigDataStatMeth::RcppbdCorr_hdf5_single Pages: 1 -->
<!--zoomable 622 -->

<svg id="main" version="1.1" xmlns="http://www.w3.org/2000/svg" xmlns:xlink="http://www.w3.org/1999/xlink" xml:space="preserve" onload="init(evt)">

<style type="text/css"><![CDATA[
.node, .edge {opacity: 0.7;}
.node.selected, .edge.selected {opacity: 1;}
.edge:hover path { stroke: red; }
.edge:hover polygon { stroke: red; fill: red; }
]]></style>

<defs>
  <circle id="rim" cx="0" cy="0" r="7"/>
  <circle id="rim2" cx="0" cy="0" r="3.5"/>
  <g id="zoomPlus">
    <use xlink:href="#rim" fill="#404040"><set attributeName="fill" to="#808080" begin="zoomplus.mouseover" end="zoomplus.mouseout"/></use>
    <path d="M-4,0h8M0,-4v8" fill="none" stroke="white" stroke-width="1.5" pointer-events="none"/>
  </g>
  <g id="zoomMin">
    <use xlink:href="#rim" fill="#404040"><set attributeName="fill" to="#808080" begin="zoomminus.mouseover" end="zoomminus.mouseout"/></use>
    <path d="M-4,0h8" fill="none" stroke="white" stroke-width="1.5" pointer-events="none"/>
  </g>
  <g id="arrowUp" transform="translate(30 24)">
    <use xlink:href="#rim"/>
    <path pointer-events="none" fill="none" stroke="white" stroke-width="1.5" d="M0,-3.0v7 M-2.5,-0.5L0,-3.0L2.5,-0.5"/>
  </g>
  <g id="arrowRight" transform="rotate(90) translate(36 -43)">
    <use xlink:href="#rim"/>
    <path pointer-events="none" fill="none" stroke="white" stroke-width="1.5" d="M0,-3.0v7 M-2.5,-0.5L0,-3.0L2.5,-0.5"/>
  </g>
  <g id="arrowDown" transform="rotate(180) translate(-30 -48)">
    <use xlink:href="#rim"/>
    <path pointer-events="none" fill="none" stroke="white" stroke-width="1.5" d="M0,-3.0v7 M-2.5,-0.5L0,-3.0L2.5,-0.5"/>
  </g>
  <g id="arrowLeft" transform="rotate(270) translate(-36 17)">
    <use xlink:href="#rim"/>
    <path pointer-events="none" fill="none" stroke="white" stroke-width="1.5" d="M0,-3.0v7 M-2.5,-0.5L0,-3.0L2.5,-0.5"/>
  </g>
  <g id="resetDef">
    <use xlink:href="#rim2" fill="#404040"><set attributeName="fill" to="#808080" begin="reset.mouseover" end="reset.mouseout"/></use>
  </g>
</defs>
<script type="application/ecmascript">
var viewWidth = 940;
var viewHeight = 622;
var sectionId = 'dynsection-129';
</script>
<script type="application/ecmascript" xlink:href="../../../../assets/svg.min.js"/>
<svg id="graph" class="graph">
<g id="viewport">
<title>BigDataStatMeth::RcppbdCorr_hdf5_single</title>
<!-- Node1 -->
<g id="Node000001" class="node">
<title>Node1</title>
<g id="a_Node000001"><a xlink:title="Implementation of single matrix correlation computation for HDF5 matrices &#45; OPTIMIZED.">
<polygon fill="#999999" stroke="#666666" points="149.5,-235.5 0,-235.5 0,-205 149.5,-205 149.5,-235.5"/>
<text xml:space="preserve" text-anchor="start" x="8" y="-222" font-family="Helvetica,sans-Serif" font-size="10.00">BigDataStatMeth::RcppbdCorr</text>
<text xml:space="preserve" text-anchor="middle" x="74.75" y="-210.75" font-family="Helvetica,sans-Serif" font-size="10.00">_hdf5_single</text>
</a>
</g>
</g>
<!-- Node2 -->
<g id="Node000002" class="node">
<title>Node2</title>
<g id="a_Node000002"><a xlink:href="namespace_big_data_stat_meth.html#a304b42b14ec87d4acc6f34ff0231529d" target="_top" xlink:title="Safely close any number of dataset handles (C++17).">
<polygon fill="white" stroke="#666666" points="538.5,-337.88 371.75,-337.88 371.75,-318.62 538.5,-318.62 538.5,-337.88"/>
<text xml:space="preserve" text-anchor="middle" x="455.12" y="-324.38" font-family="Helvetica,sans-Serif" font-size="10.00">BigDataStatMeth::checkClose_file</text>
</a>
</g>
</g>
<!-- Node1&#45;&gt;Node2 -->
<g id="edge1_Node000001_Node000002" class="edge">
<title>Node1&#45;&gt;Node2</title>
<g id="a_edge1_Node000001_Node000002"><a xlink:title=" ">
<path fill="none" stroke="#63b8ff" d="M98.65,-235.98C120.13,-249.99 153.65,-269.97 185.5,-281.25 241.74,-301.16 307.69,-312.86 360.17,-319.6"/>
<polygon fill="#63b8ff" stroke="#63b8ff" points="359.64,-323.06 370,-320.82 360.51,-316.12 359.64,-323.06"/>
</a>
</g>
</g>
<!-- Node3 -->
<g id="Node000003" class="node">
<title>Node3</title>
<g id="a_Node000003"><a xlink:href="class_big_data_stat_meth_1_1hdf5_dataset.html#ab19bac9a31efe4a733294c1c23ff5ef7" target="_top" xlink:title="Create a new dataset with optional compression.">
<polygon fill="white" stroke="#666666" points="530.25,-300.5 380,-300.5 380,-270 530.25,-270 530.25,-300.5"/>
<text xml:space="preserve" text-anchor="start" x="388" y="-287" font-family="Helvetica,sans-Serif" font-size="10.00">BigDataStatMeth::hdf5Dataset</text>
<text xml:space="preserve" text-anchor="middle" x="455.12" y="-275.75" font-family="Helvetica,sans-Serif" font-size="10.00">::createDataset</text>
</a>
</g>
</g>
<!-- Node1&#45;&gt;Node3 -->
<g id="edge2_Node000001_Node000003" class="edge">
<title>Node1&#45;&gt;Node3</title>
<g id="a_edge2_Node000001_Node000003"><a xlink:title=" ">
<path fill="none" stroke="#63b8ff" d="M116.62,-235.92C137.03,-243.16 162.27,-251.24 185.5,-256.25 245.84,-269.25 315.13,-276.55 368.22,-280.57"/>
<polygon fill="#63b8ff" stroke="#63b8ff" points="367.9,-284.06 378.12,-281.3 368.41,-277.08 367.9,-284.06"/>
</a>
</g>
</g>
<!-- Node11 -->
<g id="Node000011" class="node">
<title>Node11</title>
<g id="a_Node000011"><a xlink:href="class_big_data_stat_meth_1_1hdf5_dataset.html#acf9843abcb57a0090f1635cc69d95300" target="_top" xlink:title="Write data to the dataset.">
<polygon fill="white" stroke="#666666" points="724.75,-221.5 574.5,-221.5 574.5,-191 724.75,-191 724.75,-221.5"/>
<text xml:space="preserve" text-anchor="start" x="582.5" y="-208" font-family="Helvetica,sans-Serif" font-size="10.00">BigDataStatMeth::hdf5Dataset</text>
<text xml:space="preserve" text-anchor="middle" x="649.62" y="-196.75" font-family="Helvetica,sans-Serif" font-size="10.00">::writeDataset</text>
</a>
</g>
</g>
<!-- Node1&#45;&gt;Node11 -->
<g id="edge40_Node000001_Node000011" class="edge">
<title>Node1&#45;&gt;Node11</title>
<g id="a_edge40_Node000001_Node000011"><a xlink:title=" ">
<path fill="none" stroke="#63b8ff" d="M149.83,-222.55C161.76,-222.84 173.97,-223.09 185.5,-223.25 342.4,-225.39 381.92,-227.37 538.5,-217.25 546.41,-216.74 554.63,-216.11 562.85,-215.41"/>
<polygon fill="#63b8ff" stroke="#63b8ff" points="562.88,-218.92 572.54,-214.55 562.27,-211.94 562.88,-218.92"/>
</a>
</g>
</g>
<!-- Node14 -->
<g id="Node000014" class="node">
<title>Node14</title>
<g id="a_Node000014"><a xlink:href="class_big_data_stat_meth_1_1hdf5_dataset.html#a00ef08e5d548410faaea7892c87c343a" target="_top" xlink:title="Get dataset pointer.">
<polygon fill="white" stroke="#666666" points="335.75,-128.5 185.5,-128.5 185.5,-98 335.75,-98 335.75,-128.5"/>
<text xml:space="preserve" text-anchor="start" x="193.5" y="-115" font-family="Helvetica,sans-Serif" font-size="10.00">BigDataStatMeth::hdf5Dataset</text>
<text xml:space="preserve" text-anchor="middle" x="260.62" y="-103.75" font-family="Helvetica,sans-Serif" font-size="10.00">::getDatasetptr</text>
</a>
</g>
</g>
<!-- Node1&#45;&gt;Node14 -->
<g id="edge14_Node000001_Node000014" class="edge">
<title>Node1&#45;&gt;Node14</title>
<g id="a_edge14_Node000001_Node000014"><a xlink:title=" ">
<path fill="none" stroke="#63b8ff" d="M94.63,-204.64C115.78,-187.69 151.57,-160.59 185.5,-142.25 191.48,-139.02 197.91,-135.95 204.38,-133.12"/>
<polygon fill="#63b8ff" stroke="#63b8ff" points="205.27,-136.54 213.14,-129.44 202.56,-130.08 205.27,-136.54"/>
</a>
</g>
</g>
<!-- Node15 -->
<g id="Node000015" class="node">
<title>Node15</title>
<g id="a_Node000015"><a xlink:href="class_big_data_stat_meth_1_1hdf5_dataset.html#aa743c8c46d7ff3bb2f894145dd07fd8a" target="_top" xlink:title="Get number of columns in internal format.">
<polygon fill="white" stroke="#666666" points="335.75,-79.5 185.5,-79.5 185.5,-49 335.75,-49 335.75,-79.5"/>
<text xml:space="preserve" text-anchor="start" x="193.5" y="-66" font-family="Helvetica,sans-Serif" font-size="10.00">BigDataStatMeth::hdf5Dataset</text>
<text xml:space="preserve" text-anchor="middle" x="260.62" y="-54.75" font-family="Helvetica,sans-Serif" font-size="10.00">::ncols</text>
</a>
</g>
</g>
<!-- Node1&#45;&gt;Node15 -->
<g id="edge15_Node000001_Node000015" class="edge">
<title>Node1&#45;&gt;Node15</title>
<g id="a_edge15_Node000001_Node000015"><a xlink:title=" ">
<path fill="none" stroke="#63b8ff" d="M84.85,-204.53C101.44,-177.21 139.2,-120.88 185.5,-89.25 187.72,-87.73 190.05,-86.3 192.44,-84.94"/>
<polygon fill="#63b8ff" stroke="#63b8ff" points="193.9,-88.13 201.26,-80.51 190.76,-81.87 193.9,-88.13"/>
</a>
</g>
</g>
<!-- Node16 -->
<g id="Node000016" class="node">
<title>Node16</title>
<g id="a_Node000016"><a xlink:href="class_big_data_stat_meth_1_1hdf5_dataset.html#a6cbce676967d0cc4b50e2cc5282c322b" target="_top" xlink:title="Get number of rows in internal format.">
<polygon fill="white" stroke="#666666" points="335.75,-30.5 185.5,-30.5 185.5,0 335.75,0 335.75,-30.5"/>
<text xml:space="preserve" text-anchor="start" x="193.5" y="-17" font-family="Helvetica,sans-Serif" font-size="10.00">BigDataStatMeth::hdf5Dataset</text>
<text xml:space="preserve" text-anchor="middle" x="260.62" y="-5.75" font-family="Helvetica,sans-Serif" font-size="10.00">::nrows</text>
</a>
</g>
</g>
<!-- Node1&#45;&gt;Node16 -->
<g id="edge16_Node000001_Node000016" class="edge">
<title>Node1&#45;&gt;Node16</title>
<g id="a_edge16_Node000001_Node000016"><a xlink:title=" ">
<path fill="none" stroke="#63b8ff" d="M81,-204.74C93.5,-170.11 128.32,-85.95 185.5,-40.25 187.03,-39.03 188.63,-37.86 190.27,-36.75"/>
<polygon fill="#63b8ff" stroke="#63b8ff" points="191.98,-39.8 198.86,-31.75 188.46,-33.75 191.98,-39.8"/>
</a>
</g>
</g>
<!-- Node17 -->
<g id="Node000017" class="node">
<title>Node17</title>
<g id="a_Node000017"><a xlink:href="class_big_data_stat_meth_1_1hdf5_dataset.html#ab57cadee5e43a496eb32dbf12d603d76" target="_top" xlink:title=" ">
<polygon fill="white" stroke="#666666" points="335.75,-472.5 185.5,-472.5 185.5,-442 335.75,-442 335.75,-472.5"/>
<text xml:space="preserve" text-anchor="start" x="193.5" y="-459" font-family="Helvetica,sans-Serif" font-size="10.00">BigDataStatMeth::hdf5Dataset</text>
<text xml:space="preserve" text-anchor="middle" x="260.62" y="-447.75" font-family="Helvetica,sans-Serif" font-size="10.00">::openDataset</text>
</a>
</g>
</g>
<!-- Node1&#45;&gt;Node17 -->
<g id="edge17_Node000001_Node000017" class="edge">
<title>Node1&#45;&gt;Node17</title>
<g id="a_edge17_Node000001_Node000017"><a xlink:title=" ">
<path fill="none" stroke="#63b8ff" d="M87.81,-235.8C119.05,-276.06 202.75,-383.95 240.59,-432.71"/>
<polygon fill="#63b8ff" stroke="#63b8ff" points="237.69,-434.69 246.59,-440.45 243.22,-430.4 237.69,-434.69"/>
</a>
</g>
</g>
<!-- Node20 -->
<g id="Node000020" class="node">
<title>Node20</title>
<g id="a_Node000020"><a xlink:href="namespace_big_data_stat_meth.html#a11cc183caa903c10f78ffdb7969d0266" target="_top" xlink:title=" ">
<polygon fill="white" stroke="#666666" points="335.38,-214.5 185.88,-214.5 185.88,-184 335.38,-184 335.38,-214.5"/>
<text xml:space="preserve" text-anchor="start" x="193.88" y="-201" font-family="Helvetica,sans-Serif" font-size="10.00">BigDataStatMeth::RcppbdCorr</text>
<text xml:space="preserve" text-anchor="middle" x="260.62" y="-189.75" font-family="Helvetica,sans-Serif" font-size="10.00">_hdf5_Block_single</text>
</a>
</g>
</g>
<!-- Node1&#45;&gt;Node20 -->
<g id="edge24_Node000001_Node000020" class="edge">
<title>Node1&#45;&gt;Node20</title>
<g id="a_edge24_Node000001_Node000020"><a xlink:title=" ">
<path fill="none" stroke="#63b8ff" d="M149.74,-211.8C157.75,-210.89 165.94,-209.95 174.07,-209.02"/>
<polygon fill="#63b8ff" stroke="#63b8ff" points="174.44,-212.5 183.98,-207.89 173.65,-205.55 174.44,-212.5"/>
</a>
</g>
</g>
<!-- Node24 -->
<g id="Node000024" class="node">
<title>Node24</title>
<g id="a_Node000024"><a xlink:href="namespace_big_data_stat_meth.html#aa890111706f3d0e5cc011df4d78689f0" target="_top" xlink:title=" ">
<polygon fill="white" stroke="#666666" points="529.88,-52.5 380.38,-52.5 380.38,-22 529.88,-22 529.88,-52.5"/>
<text xml:space="preserve" text-anchor="start" x="388.38" y="-39" font-family="Helvetica,sans-Serif" font-size="10.00">BigDataStatMeth::RcppbdCorr</text>
<text xml:space="preserve" text-anchor="middle" x="455.12" y="-27.75" font-family="Helvetica,sans-Serif" font-size="10.00">_matrix_single</text>
</a>
</g>
</g>
<!-- Node1&#45;&gt;Node24 -->
<g id="edge37_Node000001_Node000024" class="edge">
<title>Node1&#45;&gt;Node24</title>
<g id="a_edge37_Node000001_Node000024"><a xlink:title=" ">
<path fill="none" stroke="#63b8ff" d="M110.37,-204.58C131.74,-195.28 159.88,-183.7 185.5,-175.25 250.92,-153.69 282.87,-181.38 335.75,-137.25 362.94,-114.56 345.6,-87.81 371.93,-59.88"/>
<polygon fill="#63b8ff" stroke="#63b8ff" points="374,-62.73 378.98,-53.39 369.25,-57.58 374,-62.73"/>
</a>
</g>
</g>
<!-- Node26 -->
<g id="Node000026" class="node">
<title>Node26</title>
<g id="a_Node000026"><a xlink:href="class_big_data_stat_meth_1_1hdf5_dataset.html#a23bea87165b8ef6b944709c5b2cbd0cf" target="_top" xlink:title=" ">
<polygon fill="white" stroke="#666666" points="530.25,-613.5 380,-613.5 380,-583 530.25,-583 530.25,-613.5"/>
<text xml:space="preserve" text-anchor="start" x="388" y="-600" font-family="Helvetica,sans-Serif" font-size="10.00">BigDataStatMeth::hdf5Dataset</text>
<text xml:space="preserve" text-anchor="middle" x="455.12" y="-588.75" font-family="Helvetica,sans-Serif" font-size="10.00">::readDatasetBlock</text>
</a>
</g>
</g>
<!-- Node1&#45;&gt;Node26 -->
<g id="edge38_Node000001_Node000026" class="edge">
<title>Node1&#45;&gt;Node26</title>
<g id="a_edge38_Node000001_Node000026"><a xlink:title=" ">
<path fill="none" stroke="#63b8ff" d="M78.37,-235.85C86.5,-279.82 115.1,-406.43 185.5,-481.25 234.4,-533.21 310.36,-563.36 369.04,-579.99"/>
<polygon fill="#63b8ff" stroke="#63b8ff" points="367.76,-583.27 378.33,-582.54 369.62,-576.52 367.76,-583.27"/>
</a>
</g>
</g>
<!-- Node4 -->
<g id="Node000004" class="node">
<title>Node4</title>
<g id="a_Node000004"><a xlink:href="class_big_data_stat_meth_1_1hdf5_dataset.html#ac7a7f23b7e22c9b56ca6ad86592f2d52" target="_top" xlink:title="Add an attribute to the dataset.">
<polygon fill="white" stroke="#666666" points="724.75,-368.5 574.5,-368.5 574.5,-338 724.75,-338 724.75,-368.5"/>
<text xml:space="preserve" text-anchor="start" x="582.5" y="-355" font-family="Helvetica,sans-Serif" font-size="10.00">BigDataStatMeth::hdf5Dataset</text>
<text xml:space="preserve" text-anchor="middle" x="649.62" y="-343.75" font-family="Helvetica,sans-Serif" font-size="10.00">::addAttribute</text>
</a>
</g>
</g>
<!-- Node3&#45;&gt;Node4 -->
<g id="edge3_Node000003_Node000004" class="edge">
<title>Node3&#45;&gt;Node4</title>
<g id="a_edge3_Node000003_Node000004"><a xlink:title=" ">
<path fill="none" stroke="#63b8ff" d="M515.12,-300.86C523.07,-303.42 531.04,-306.23 538.5,-309.25 555.27,-316.04 557.88,-321.11 574.5,-328.25 578.78,-330.09 583.25,-331.88 587.77,-333.61"/>
<polygon fill="#63b8ff" stroke="#63b8ff" points="586.36,-336.82 596.95,-337 588.78,-330.25 586.36,-336.82"/>
</a>
</g>
</g>
<!-- Node5 -->
<g id="Node000005" class="node">
<title>Node5</title>
<g id="a_Node000005"><a xlink:href="class_big_data_stat_meth_1_1hdf5_file.html#abfb73b5f1eb25ee00489485c8dc56a2a" target="_top" xlink:title="Close file and cleanup resources.">
<polygon fill="white" stroke="#666666" points="715.38,-466.5 583.88,-466.5 583.88,-436 715.38,-436 715.38,-466.5"/>
<text xml:space="preserve" text-anchor="start" x="591.88" y="-453" font-family="Helvetica,sans-Serif" font-size="10.00">BigDataStatMeth::hdf5File</text>
<text xml:space="preserve" text-anchor="middle" x="649.62" y="-441.75" font-family="Helvetica,sans-Serif" font-size="10.00">::close_file</text>
</a>
</g>
</g>
<!-- Node3&#45;&gt;Node5 -->
<g id="edge4_Node000003_Node000005" class="edge">
<title>Node3&#45;&gt;Node5</title>
<g id="a_edge4_Node000003_Node000005"><a xlink:title=" ">
<path fill="none" stroke="#63b8ff" d="M527.55,-300.77C531.51,-303.2 535.21,-306.01 538.5,-309.25 577.26,-347.43 536.55,-387.27 574.5,-426.25 575.38,-427.15 576.29,-428.02 577.23,-428.85"/>
<polygon fill="#63b8ff" stroke="#63b8ff" points="575.04,-431.59 585.17,-434.68 579.17,-425.94 575.04,-431.59"/>
</a>
</g>
</g>
<!-- Node6 -->
<g id="Node000006" class="node">
<title>Node6</title>
<g id="a_Node000006"><a xlink:href="class_big_data_stat_meth_1_1hdf5_group.html#a27cef4d33e46c72bfd792aa49fa621a3" target="_top" xlink:title="Create multiple nested groups.">
<polygon fill="white" stroke="#666666" points="720.62,-270.5 578.62,-270.5 578.62,-240 720.62,-240 720.62,-270.5"/>
<text xml:space="preserve" text-anchor="start" x="586.62" y="-257" font-family="Helvetica,sans-Serif" font-size="10.00">BigDataStatMeth::hdf5Group</text>
<text xml:space="preserve" text-anchor="middle" x="649.62" y="-245.75" font-family="Helvetica,sans-Serif" font-size="10.00">::create_HDF5_groups</text>
</a>
</g>
</g>
<!-- Node3&#45;&gt;Node6 -->
<g id="edge5_Node000003_Node000006" class="edge">
<title>Node3&#45;&gt;Node6</title>
<g id="a_edge5_Node000003_Node000006"><a xlink:title=" ">
<path fill="none" stroke="#63b8ff" d="M530.55,-273.65C542.54,-271.78 555,-269.84 567.15,-267.95"/>
<polygon fill="#63b8ff" stroke="#63b8ff" points="567.35,-271.46 576.69,-266.46 566.27,-264.54 567.35,-271.46"/>
</a>
</g>
</g>
<!-- Node8 -->
<g id="Node000008" class="node">
<title>Node8</title>
<g id="a_Node000008"><a xlink:href="namespace_big_data_stat_meth.html#a89d901ab4b5e01771f4e3fc7dc84e50e" target="_top" xlink:title="Checks if an HDF5 element (group or dataset) exists.">
<polygon fill="white" stroke="#666666" points="711.25,-515.5 588,-515.5 588,-485 711.25,-485 711.25,-515.5"/>
<text xml:space="preserve" text-anchor="start" x="596" y="-502" font-family="Helvetica,sans-Serif" font-size="10.00">BigDataStatMeth::exists</text>
<text xml:space="preserve" text-anchor="middle" x="649.62" y="-490.75" font-family="Helvetica,sans-Serif" font-size="10.00">_HDF5_element</text>
</a>
</g>
</g>
<!-- Node3&#45;&gt;Node8 -->
<g id="edge7_Node000003_Node000008" class="edge">
<title>Node3&#45;&gt;Node8</title>
<g id="a_edge7_Node000003_Node000008"><a xlink:title=" ">
<path fill="none" stroke="#63b8ff" d="M528.62,-300.94C532.22,-303.34 535.55,-306.09 538.5,-309.25 589.98,-364.47 524.18,-418.97 574.5,-475.25 575.81,-476.71 577.2,-478.09 578.67,-479.38"/>
<polygon fill="#63b8ff" stroke="#63b8ff" points="576.41,-482.07 586.57,-485.08 580.51,-476.39 576.41,-482.07"/>
</a>
</g>
</g>
<!-- Node9 -->
<g id="Node000009" class="node">
<title>Node9</title>
<g id="a_Node000009"><a xlink:href="class_big_data_stat_meth_1_1hdf5_group.html#a59995412538627e6c80f64b552c286f5" target="_top" xlink:title=" ">
<polygon fill="white" stroke="#666666" points="720.62,-319.5 578.62,-319.5 578.62,-289 720.62,-289 720.62,-319.5"/>
<text xml:space="preserve" text-anchor="start" x="586.62" y="-306" font-family="Helvetica,sans-Serif" font-size="10.00">BigDataStatMeth::hdf5Group</text>
<text xml:space="preserve" text-anchor="middle" x="649.62" y="-294.75" font-family="Helvetica,sans-Serif" font-size="10.00">::getGroupName</text>
</a>
</g>
</g>
<!-- Node3&#45;&gt;Node9 -->
<g id="edge9_Node000003_Node000009" class="edge">
<title>Node3&#45;&gt;Node9</title>
<g id="a_edge9_Node000003_Node000009"><a xlink:title=" ">
<path fill="none" stroke="#63b8ff" d="M530.55,-292.6C542.42,-293.77 554.75,-294.98 566.78,-296.17"/>
<polygon fill="#63b8ff" stroke="#63b8ff" points="566.39,-299.65 576.68,-297.15 567.07,-292.68 566.39,-299.65"/>
</a>
</g>
</g>
<!-- Node10 -->
<g id="Node000010" class="node">
<title>Node10</title>
<g id="a_Node000010"><a xlink:href="namespace_big_data_stat_meth.html#a3d06783149029f1df2853c472d401380" target="_top" xlink:title="Removes multiple elements from an HDF5 file.">
<polygon fill="white" stroke="#666666" points="714.25,-417.5 585,-417.5 585,-387 714.25,-387 714.25,-417.5"/>
<text xml:space="preserve" text-anchor="start" x="593" y="-404" font-family="Helvetica,sans-Serif" font-size="10.00">BigDataStatMeth::remove</text>
<text xml:space="preserve" text-anchor="middle" x="649.62" y="-392.75" font-family="Helvetica,sans-Serif" font-size="10.00">_elements</text>
</a>
</g>
</g>
<!-- Node3&#45;&gt;Node10 -->
<g id="edge10_Node000003_Node000010" class="edge">
<title>Node3&#45;&gt;Node10</title>
<g id="a_edge10_Node000003_Node000010"><a xlink:title=" ">
<path fill="none" stroke="#63b8ff" d="M525.67,-300.88C530.24,-303.28 534.57,-306.05 538.5,-309.25 565.01,-330.85 548.45,-355.1 574.5,-377.25 575.96,-378.49 577.48,-379.67 579.06,-380.79"/>
<polygon fill="#63b8ff" stroke="#63b8ff" points="576.92,-383.59 587.28,-385.81 580.57,-377.61 576.92,-383.59"/>
</a>
</g>
</g>
<!-- Node3&#45;&gt;Node11 -->
<g id="edge11_Node000003_Node000011" class="edge">
<title>Node3&#45;&gt;Node11</title>
<g id="a_edge11_Node000003_Node000011"><a xlink:title=" ">
<path fill="none" stroke="#63b8ff" d="M507.55,-269.54C518.01,-265.69 528.78,-261.22 538.5,-256.25 555.84,-247.38 557.1,-240 574.5,-231.25 578,-229.49 581.66,-227.8 585.39,-226.21"/>
<polygon fill="#63b8ff" stroke="#63b8ff" points="586.65,-229.47 594.63,-222.49 584.04,-222.98 586.65,-229.47"/>
</a>
</g>
</g>
<!-- Node7 -->
<g id="Node000007" class="node">
<title>Node7</title>
<g id="a_Node000007"><a xlink:href="namespace_big_data_stat_meth.html#abcaa4216cd52f03ebac42e4855ef846b" target="_top" xlink:title="Checks if a path exists in an HDF5 file.">
<polygon fill="white" stroke="#666666" points="918.12,-386.88 774.62,-386.88 774.62,-367.62 918.12,-367.62 918.12,-386.88"/>
<text xml:space="preserve" text-anchor="middle" x="846.38" y="-373.38" font-family="Helvetica,sans-Serif" font-size="10.00">BigDataStatMeth::pathExists</text>
</a>
</g>
</g>
<!-- Node6&#45;&gt;Node7 -->
<g id="edge6_Node000006_Node000007" class="edge">
<title>Node6&#45;&gt;Node7</title>
<g id="a_edge6_Node000006_Node000007"><a xlink:title=" ">
<path fill="none" stroke="#63b8ff" d="M704.63,-270.95C711.56,-273.69 718.44,-276.79 724.75,-280.25 764.93,-302.27 805.1,-337.99 827.45,-359.39"/>
<polygon fill="#63b8ff" stroke="#63b8ff" points="824.93,-361.82 834.54,-366.29 829.81,-356.81 824.93,-361.82"/>
</a>
</g>
</g>
<!-- Node8&#45;&gt;Node7 -->
<g id="edge8_Node000008_Node000007" class="edge">
<title>Node8&#45;&gt;Node7</title>
<g id="a_edge8_Node000008_Node000007"><a xlink:title=" ">
<path fill="none" stroke="#63b8ff" d="M704.64,-484.58C711.58,-481.83 718.45,-478.72 724.75,-475.25 765.04,-453.04 805.17,-416.94 827.48,-395.31"/>
<polygon fill="#63b8ff" stroke="#63b8ff" points="829.9,-397.84 834.57,-388.33 824.99,-392.85 829.9,-397.84"/>
</a>
</g>
</g>
<!-- Node12 -->
<g id="Node000012" class="node">
<title>Node12</title>
<g id="a_Node000012"><a xlink:href="class_big_data_stat_meth_1_1hdf5_dataset.html#aba39e56a580d3b1fa7f1619fc72efa3e" target="_top" xlink:title="Close dataset and file.">
<polygon fill="white" stroke="#666666" points="921.5,-558.5 771.25,-558.5 771.25,-528 921.5,-528 921.5,-558.5"/>
<text xml:space="preserve" text-anchor="start" x="779.25" y="-545" font-family="Helvetica,sans-Serif" font-size="10.00">BigDataStatMeth::hdf5Dataset</text>
<text xml:space="preserve" text-anchor="middle" x="846.38" y="-533.75" font-family="Helvetica,sans-Serif" font-size="10.00">::close_dataset_file</text>
</a>
</g>
</g>
<!-- Node11&#45;&gt;Node12 -->
<g id="edge12_Node000011_Node000012" class="edge">
<title>Node11&#45;&gt;Node12</title>
<g id="a_edge12_Node000011_Node000012"><a xlink:title=" ">
<path fill="none" stroke="#63b8ff" d="M713.54,-221.84C717.68,-224.49 721.49,-227.61 724.75,-231.25 774.81,-287.17 733.71,-326.23 760.75,-396.25 778.4,-441.96 808.86,-490.34 828.01,-518.62"/>
<polygon fill="#63b8ff" stroke="#63b8ff" points="824.88,-520.24 833.42,-526.5 830.65,-516.28 824.88,-520.24"/>
</a>
</g>
</g>
<!-- Node13 -->
<g id="Node000013" class="node">
<title>Node13</title>
<g id="a_Node000013"><a xlink:href="class_big_data_stat_meth_1_1hdf5_dataset.html#a94d81b72e92cb0230b4e64f37ea7d2e3" target="_top" xlink:title="Convert DataFrame to range list.">
<polygon fill="white" stroke="#666666" points="932,-221.5 760.75,-221.5 760.75,-191 932,-191 932,-221.5"/>
<text xml:space="preserve" text-anchor="start" x="768.75" y="-208" font-family="Helvetica,sans-Serif" font-size="10.00">BigDataStatMeth::hdf5Dataset</text>
<text xml:space="preserve" text-anchor="middle" x="846.38" y="-196.75" font-family="Helvetica,sans-Serif" font-size="10.00">::convert_DataFrame_to_RangeList</text>
</a>
</g>
</g>
<!-- Node11&#45;&gt;Node13 -->
<g id="edge13_Node000011_Node000013" class="edge">
<title>Node11&#45;&gt;Node13</title>
<g id="a_edge13_Node000011_Node000013"><a xlink:title=" ">
<path fill="none" stroke="#63b8ff" d="M725.09,-206.25C732.97,-206.25 741.06,-206.25 749.15,-206.25"/>
<polygon fill="#63b8ff" stroke="#63b8ff" points="749.03,-209.75 759.03,-206.25 749.03,-202.75 749.03,-209.75"/>
</a>
</g>
</g>
<!-- Node17&#45;&gt;Node5 -->
<g id="edge18_Node000017_Node000005" class="edge">
<title>Node17&#45;&gt;Node5</title>
<g id="a_edge18_Node000017_Node000005"><a xlink:title=" ">
<path fill="none" stroke="#63b8ff" d="M336.14,-446.48C348.03,-445.14 360.21,-443.98 371.75,-443.25 445.71,-438.57 464.44,-440.56 538.5,-443.25 549.42,-443.65 560.94,-444.26 572.24,-444.98"/>
<polygon fill="#63b8ff" stroke="#63b8ff" points="571.73,-448.45 581.94,-445.63 572.19,-441.47 571.73,-448.45"/>
</a>
</g>
</g>
<!-- Node17&#45;&gt;Node8 -->
<g id="edge19_Node000017_Node000008" class="edge">
<title>Node17&#45;&gt;Node8</title>
<g id="a_edge19_Node000017_Node000008"><a xlink:title=" ">
<path fill="none" stroke="#63b8ff" d="M335.97,-459.41C391.89,-461.74 470.29,-466.53 538.5,-476.25 550.94,-478.02 564.06,-480.41 576.74,-483"/>
<polygon fill="#63b8ff" stroke="#63b8ff" points="575.76,-486.37 586.27,-485.01 577.2,-479.53 575.76,-486.37"/>
</a>
</g>
</g>
<!-- Node18 -->
<g id="Node000018" class="node">
<title>Node18</title>
<g id="a_Node000018"><a xlink:href="class_big_data_stat_meth_1_1hdf5_dataset.html#a1ebc27e1f730bc4e611b844dbbb08e34" target="_top" xlink:title="Get an attribute from the dataset.">
<polygon fill="white" stroke="#666666" points="530.25,-515.5 380,-515.5 380,-485 530.25,-485 530.25,-515.5"/>
<text xml:space="preserve" text-anchor="start" x="388" y="-502" font-family="Helvetica,sans-Serif" font-size="10.00">BigDataStatMeth::hdf5Dataset</text>
<text xml:space="preserve" text-anchor="middle" x="455.12" y="-490.75" font-family="Helvetica,sans-Serif" font-size="10.00">::getAttribute</text>
</a>
</g>
</g>
<!-- Node17&#45;&gt;Node18 -->
<g id="edge20_Node000017_Node000018" class="edge">
<title>Node17&#45;&gt;Node18</title>
<g id="a_edge20_Node000017_Node000018"><a xlink:title=" ">
<path fill="none" stroke="#63b8ff" d="M331.94,-472.96C345.11,-475.9 358.99,-479 372.47,-482.01"/>
<polygon fill="#63b8ff" stroke="#63b8ff" points="371.68,-485.42 382.2,-484.18 373.21,-478.59 371.68,-485.42"/>
</a>
</g>
</g>
<!-- Node19 -->
<g id="Node000019" class="node">
<title>Node19</title>
<g id="a_Node000019"><a xlink:href="class_big_data_stat_meth_1_1hdf5_dataset.html#a945dd1d6f3db102a962d239045792f61" target="_top" xlink:title="Get dimensions of existing dataset.">
<polygon fill="white" stroke="#666666" points="530.25,-564.5 380,-564.5 380,-534 530.25,-534 530.25,-564.5"/>
<text xml:space="preserve" text-anchor="start" x="388" y="-551" font-family="Helvetica,sans-Serif" font-size="10.00">BigDataStatMeth::hdf5Dataset</text>
<text xml:space="preserve" text-anchor="middle" x="455.12" y="-539.75" font-family="Helvetica,sans-Serif" font-size="10.00">::getDimensExistingDataset</text>
</a>
</g>
</g>
<!-- Node17&#45;&gt;Node19 -->
<g id="edge23_Node000017_Node000019" class="edge">
<title>Node17&#45;&gt;Node19</title>
<g id="a_edge23_Node000017_Node000019"><a xlink:title=" ">
<path fill="none" stroke="#63b8ff" d="M283.49,-472.84C305.09,-487.67 339.47,-509.81 371.75,-524.25 376.05,-526.17 380.53,-528 385.1,-529.73"/>
<polygon fill="#63b8ff" stroke="#63b8ff" points="383.82,-532.99 394.41,-533.06 386.18,-526.4 383.82,-532.99"/>
</a>
</g>
</g>
<!-- Node18&#45;&gt;Node8 -->
<g id="edge22_Node000018_Node000008" class="edge">
<title>Node18&#45;&gt;Node8</title>
<g id="a_edge22_Node000018_Node000008"><a xlink:title=" ">
<path fill="none" stroke="#63b8ff" d="M530.55,-500.25C545.64,-500.25 561.49,-500.25 576.5,-500.25"/>
<polygon fill="#63b8ff" stroke="#63b8ff" points="576.27,-503.75 586.27,-500.25 576.27,-496.75 576.27,-503.75"/>
</a>
</g>
</g>
<!-- Node18&#45;&gt;Node12 -->
<g id="edge21_Node000018_Node000012" class="edge">
<title>Node18&#45;&gt;Node12</title>
<g id="a_edge21_Node000018_Node000012"><a xlink:title=" ">
<path fill="none" stroke="#63b8ff" d="M525.97,-515.98C541.86,-519.12 558.71,-522.1 574.5,-524.25 636.08,-532.62 706.07,-537.4 759.48,-540.08"/>
<polygon fill="#63b8ff" stroke="#63b8ff" points="759.28,-543.58 769.44,-540.56 759.62,-536.58 759.28,-543.58"/>
</a>
</g>
</g>
<!-- Node20&#45;&gt;Node2 -->
<g id="edge25_Node000020_Node000002" class="edge">
<title>Node20&#45;&gt;Node2</title>
<g id="a_edge25_Node000020_Node000002"><a xlink:title=" ">
<path fill="none" stroke="#63b8ff" d="M272.54,-214.74C290.39,-238.87 328.25,-285.16 371.75,-309.25 375.13,-311.12 378.68,-312.81 382.33,-314.33"/>
<polygon fill="#63b8ff" stroke="#63b8ff" points="380.84,-317.51 391.43,-317.67 383.25,-310.93 380.84,-317.51"/>
</a>
</g>
</g>
<!-- Node20&#45;&gt;Node3 -->
<g id="edge28_Node000020_Node000003" class="edge">
<title>Node20&#45;&gt;Node3</title>
<g id="a_edge28_Node000020_Node000003"><a xlink:title=" ">
<path fill="none" stroke="#63b8ff" d="M296.49,-214.82C327.91,-228.86 374.31,-249.59 408.64,-264.93"/>
<polygon fill="#63b8ff" stroke="#63b8ff" points="406.93,-268 417.49,-268.88 409.79,-261.61 406.93,-268"/>
</a>
</g>
</g>
<!-- Node20&#45;&gt;Node11 -->
<g id="edge36_Node000020_Node000011" class="edge">
<title>Node20&#45;&gt;Node11</title>
<g id="a_edge36_Node000020_Node000011"><a xlink:title=" ">
<path fill="none" stroke="#63b8ff" d="M335.78,-200.59C400.65,-201.76 494.87,-203.47 562.94,-204.7"/>
<polygon fill="#63b8ff" stroke="#63b8ff" points="562.48,-208.19 572.54,-204.87 562.61,-201.19 562.48,-208.19"/>
</a>
</g>
</g>
<!-- Node21 -->
<g id="Node000021" class="node">
<title>Node21</title>
<g id="a_Node000021"><a xlink:href="namespace_big_data_stat_meth.html#a548baec51dfdb0481a3632cc50faed4c" target="_top" xlink:title="Optimized p&#45;value computation for correlation matrices using Eigen.">
<polygon fill="white" stroke="#666666" points="716.88,-172.5 582.38,-172.5 582.38,-142 716.88,-142 716.88,-172.5"/>
<text xml:space="preserve" text-anchor="start" x="590.38" y="-159" font-family="Helvetica,sans-Serif" font-size="10.00">BigDataStatMeth::compute</text>
<text xml:space="preserve" text-anchor="middle" x="649.62" y="-147.75" font-family="Helvetica,sans-Serif" font-size="10.00">_pvalues_optimized</text>
</a>
</g>
</g>
<!-- Node20&#45;&gt;Node21 -->
<g id="edge26_Node000020_Node000021" class="edge">
<title>Node20&#45;&gt;Node21</title>
<g id="a_edge26_Node000020_Node000021"><a xlink:title=" ">
<path fill="none" stroke="#63b8ff" d="M335.78,-191.2C403.25,-183.88 502.47,-173.11 570.99,-165.68"/>
<polygon fill="#63b8ff" stroke="#63b8ff" points="571.07,-169.19 580.64,-164.63 570.32,-162.23 571.07,-169.19"/>
</a>
</g>
</g>
<!-- Node23 -->
<g id="Node000023" class="node">
<title>Node23</title>
<g id="a_Node000023"><a xlink:href="namespace_big_data_stat_meth.html#a69e49b89327966eb689525e63dea8656" target="_top" xlink:title=" ">
<polygon fill="white" stroke="#666666" points="912.12,-86.5 780.62,-86.5 780.62,-56 912.12,-56 912.12,-86.5"/>
<text xml:space="preserve" text-anchor="start" x="788.62" y="-73" font-family="Helvetica,sans-Serif" font-size="10.00">BigDataStatMeth::pearson</text>
<text xml:space="preserve" text-anchor="middle" x="846.38" y="-61.75" font-family="Helvetica,sans-Serif" font-size="10.00">_correlation</text>
</a>
</g>
</g>
<!-- Node20&#45;&gt;Node23 -->
<g id="edge29_Node000020_Node000023" class="edge">
<title>Node20&#45;&gt;Node23</title>
<g id="a_edge29_Node000020_Node000023"><a xlink:title=" ">
<path fill="none" stroke="#63b8ff" d="M308.75,-183.52C328.14,-177.36 350.9,-170.52 371.75,-165.25 526.82,-126.05 567.87,-126.41 724.75,-95.25 739.1,-92.4 754.42,-89.35 769.15,-86.42"/>
<polygon fill="#63b8ff" stroke="#63b8ff" points="769.66,-89.89 778.79,-84.51 768.3,-83.03 769.66,-89.89"/>
</a>
</g>
</g>
<!-- Node20&#45;&gt;Node24 -->
<g id="edge30_Node000020_Node000024" class="edge">
<title>Node20&#45;&gt;Node24</title>
<g id="a_edge30_Node000020_Node000024"><a xlink:title=" ">
<path fill="none" stroke="#63b8ff" d="M317.59,-183.63C324.29,-180.03 330.58,-175.63 335.75,-170.25 369.64,-134.98 337.25,-100.93 371.75,-66.25 374.51,-63.48 377.54,-60.97 380.78,-58.7"/>
<polygon fill="#63b8ff" stroke="#63b8ff" points="382.29,-61.88 389.04,-53.71 378.67,-55.89 382.29,-61.88"/>
</a>
</g>
</g>
<!-- Node25 -->
<g id="Node000025" class="node">
<title>Node25</title>
<g id="a_Node000025"><a xlink:href="namespace_big_data_stat_meth.html#a73e0308254294ed4603750e0595b9802" target="_top" xlink:title=" ">
<polygon fill="white" stroke="#666666" points="719.5,-86.5 579.75,-86.5 579.75,-56 719.5,-56 719.5,-86.5"/>
<text xml:space="preserve" text-anchor="start" x="587.75" y="-73" font-family="Helvetica,sans-Serif" font-size="10.00">BigDataStatMeth::spearman</text>
<text xml:space="preserve" text-anchor="middle" x="649.62" y="-61.75" font-family="Helvetica,sans-Serif" font-size="10.00">_correlation</text>
</a>
</g>
</g>
<!-- Node20&#45;&gt;Node25 -->
<g id="edge35_Node000020_Node000025" class="edge">
<title>Node20&#45;&gt;Node25</title>
<g id="a_edge35_Node000020_Node000025"><a xlink:title=" ">
<path fill="none" stroke="#63b8ff" d="M315.27,-183.55C322.64,-179.93 329.74,-175.55 335.75,-170.25 360.82,-148.16 344.08,-122.98 371.75,-104.25 429.18,-65.37 509.05,-59.68 568.25,-62.2"/>
<polygon fill="#63b8ff" stroke="#63b8ff" points="567.75,-65.67 577.92,-62.7 568.11,-58.68 567.75,-65.67"/>
</a>
</g>
</g>
<!-- Node22 -->
<g id="Node000022" class="node">
<title>Node22</title>
<g id="a_Node000022"><a xlink:href="namespace_big_data_stat_meth.html#a58690697a1eec1b3feefdc089d056905" target="_top" xlink:title="Compute p&#45;value for correlation coefficient using t&#45;distribution.">
<polygon fill="white" stroke="#666666" points="896.38,-172.5 796.38,-172.5 796.38,-142 896.38,-142 896.38,-172.5"/>
<text xml:space="preserve" text-anchor="start" x="804.38" y="-159" font-family="Helvetica,sans-Serif" font-size="10.00">BigDataStatMeth::t</text>
<text xml:space="preserve" text-anchor="middle" x="846.38" y="-147.75" font-family="Helvetica,sans-Serif" font-size="10.00">_distribution_cdf</text>
</a>
</g>
</g>
<!-- Node21&#45;&gt;Node22 -->
<g id="edge27_Node000021_Node000022" class="edge">
<title>Node21&#45;&gt;Node22</title>
<g id="a_edge27_Node000021_Node000022"><a xlink:title=" ">
<path fill="none" stroke="#63b8ff" d="M717.37,-157.25C739.21,-157.25 763.34,-157.25 784.71,-157.25"/>
<polygon fill="#63b8ff" stroke="#63b8ff" points="784.42,-160.75 794.42,-157.25 784.42,-153.75 784.42,-160.75"/>
</a>
</g>
</g>
<!-- Node24&#45;&gt;Node21 -->
<g id="edge31_Node000024_Node000021" class="edge">
<title>Node24&#45;&gt;Node21</title>
<g id="a_edge31_Node000024_Node000021"><a xlink:title=" ">
<path fill="none" stroke="#63b8ff" d="M481.29,-52.94C515.16,-74.05 575.55,-111.7 613.77,-135.52"/>
<polygon fill="#63b8ff" stroke="#63b8ff" points="611.83,-138.44 622.17,-140.76 615.53,-132.5 611.83,-138.44"/>
</a>
</g>
</g>
<!-- Node24&#45;&gt;Node23 -->
<g id="edge32_Node000024_Node000023" class="edge">
<title>Node24&#45;&gt;Node23</title>
<g id="a_edge32_Node000024_Node000023"><a xlink:title=" ">
<path fill="none" stroke="#63b8ff" d="M530.19,-36.85C584.28,-37.32 659.28,-39.57 724.75,-47.25 739.2,-48.95 754.5,-51.44 769.18,-54.18"/>
<polygon fill="#63b8ff" stroke="#63b8ff" points="768.29,-57.58 778.77,-56.04 769.62,-50.7 768.29,-57.58"/>
</a>
</g>
</g>
<!-- Node24&#45;&gt;Node25 -->
<g id="edge33_Node000024_Node000025" class="edge">
<title>Node24&#45;&gt;Node25</title>
<g id="a_edge33_Node000024_Node000025"><a xlink:title=" ">
<path fill="none" stroke="#63b8ff" d="M530.28,-50.35C542.6,-52.52 555.44,-54.79 567.92,-57"/>
<polygon fill="#63b8ff" stroke="#63b8ff" points="567.3,-60.44 577.76,-58.73 568.52,-53.55 567.3,-60.44"/>
</a>
</g>
</g>
<!-- Node25&#45;&gt;Node23 -->
<g id="edge34_Node000025_Node000023" class="edge">
<title>Node25&#45;&gt;Node23</title>
<g id="a_edge34_Node000025_Node000023"><a xlink:title=" ">
<path fill="none" stroke="#63b8ff" d="M719.83,-71.25C735.82,-71.25 752.92,-71.25 769.19,-71.25"/>
<polygon fill="#63b8ff" stroke="#63b8ff" points="768.78,-74.75 778.78,-71.25 768.78,-67.75 768.78,-74.75"/>
</a>
</g>
</g>
<!-- Node26&#45;&gt;Node12 -->
<g id="edge39_Node000026_Node000012" class="edge">
<title>Node26&#45;&gt;Node12</title>
<g id="a_edge39_Node000026_Node000012"><a xlink:title=" ">
<path fill="none" stroke="#63b8ff" d="M530.72,-587.71C596.17,-578.46 691.33,-565.02 759.85,-555.33"/>
<polygon fill="#63b8ff" stroke="#63b8ff" points="760.13,-558.83 769.54,-553.97 759.15,-551.9 760.13,-558.83"/>
</a>
</g>
</g>
</g>
</svg>

<g id="navigator" transform="translate(0 0)" fill="#404254">
  <rect fill="#f2f5e9" fill-opacity="0.5" stroke="#606060" stroke-width=".5" x="0" y="0" width="60" height="60"/>
  <use id="zoomplus" xlink:href="#zoomPlus" x="17" y="9" onmousedown="handleZoom(evt,'in')"/>
  <use id="zoomminus" xlink:href="#zoomMin" x="42" y="9" onmousedown="handleZoom(evt,'out')"/>
  <use id="reset" xlink:href="#resetDef" x="30" y="36" onmousedown="handleReset()"/>
   <use id="arrowup" xlink:href="#arrowUp" x="0" y="0" onmousedown="handlePan(0,-1)"/>
  <use id="arrowright" xlink:href="#arrowRight" x="0" y="0" onmousedown="handlePan(1,0)"/>
  <use id="arrowdown" xlink:href="#arrowDown" x="0" y="0" onmousedown="handlePan(0,1)"/>
  <use id="arrowleft" xlink:href="#arrowLeft" x="0" y="0" onmousedown="handlePan(-1,0)"/>
</g>
<svg viewBox="0 0 15 15" width="100%" height="30px" preserveAspectRatio="xMaxYMin meet">
 <g id="arrow_out" transform="scale(0.3 0.3)">
  <a xlink:href="namespace_big_data_stat_meth_ae21b46d571f53416eedeb2d80f9b83ac_cgraph_org.svg" target="_base">
   <rect id="button" ry="5" rx="5" y="6" x="6" height="38" width="38"
        fill="#f2f5e9" fill-opacity="0.5" stroke="#606060" stroke-width="1.0"/>
   <path id="arrow"
     d="M 11.500037,31.436501 C 11.940474,20.09759 22.043105,11.32322 32.158766,21.979434 L 37.068811,17.246167 C 37.068811,17.246167 37.088388,32 37.088388,32 L 22.160133,31.978069 C 22.160133,31.978069 26.997745,27.140456 26.997745,27.140456 C 18.528582,18.264221 13.291696,25.230495 11.500037,31.436501 z"
     style="fill:#404040;"/>
  </a>
 </g>
</svg>

<style type='text/css'>
<![CDATA[
[data-mouse-over-selected='false'] { opacity: 0.7; }
[data-mouse-over-selected='true']  { opacity: 1.0; }
]]>
</style>
<script type="application/ecmascript"><![CDATA[
document.addEventListener('DOMContentLoaded', (event) => {
  highlightEdges();
  highlightAdjacentNodes();
});
]]></script>
</svg>
