<?xml version="1.0" encoding="UTF-8" standalone="no"?>
<!DOCTYPE svg PUBLIC "-//W3C//DTD SVG 1.1//EN"
 "http://www.w3.org/Graphics/SVG/1.1/DTD/svg11.dtd">
<!-- Generated by graphviz version 14.0.0 (20250921.2048)
 -->
<!-- Title: BigDataStatMeth::Rcpp_block_matrix_substract_hdf5 Pages: 1 -->
<!--zoomable 560 -->

<svg id="main" version="1.1" xmlns="http://www.w3.org/2000/svg" xmlns:xlink="http://www.w3.org/1999/xlink" xml:space="preserve" onload="init(evt)">

<style type="text/css"><![CDATA[
.node, .edge {opacity: 0.7;}
.node.selected, .edge.selected {opacity: 1;}
.edge:hover path { stroke: red; }
.edge:hover polygon { stroke: red; fill: red; }
]]></style>

<defs>
  <circle id="rim" cx="0" cy="0" r="7"/>
  <circle id="rim2" cx="0" cy="0" r="3.5"/>
  <g id="zoomPlus">
    <use xlink:href="#rim" fill="#404040"><set attributeName="fill" to="#808080" begin="zoomplus.mouseover" end="zoomplus.mouseout"/></use>
    <path d="M-4,0h8M0,-4v8" fill="none" stroke="white" stroke-width="1.5" pointer-events="none"/>
  </g>
  <g id="zoomMin">
    <use xlink:href="#rim" fill="#404040"><set attributeName="fill" to="#808080" begin="zoomminus.mouseover" end="zoomminus.mouseout"/></use>
    <path d="M-4,0h8" fill="none" stroke="white" stroke-width="1.5" pointer-events="none"/>
  </g>
  <g id="arrowUp" transform="translate(30 24)">
    <use xlink:href="#rim"/>
    <path pointer-events="none" fill="none" stroke="white" stroke-width="1.5" d="M0,-3.0v7 M-2.5,-0.5L0,-3.0L2.5,-0.5"/>
  </g>
  <g id="arrowRight" transform="rotate(90) translate(36 -43)">
    <use xlink:href="#rim"/>
    <path pointer-events="none" fill="none" stroke="white" stroke-width="1.5" d="M0,-3.0v7 M-2.5,-0.5L0,-3.0L2.5,-0.5"/>
  </g>
  <g id="arrowDown" transform="rotate(180) translate(-30 -48)">
    <use xlink:href="#rim"/>
    <path pointer-events="none" fill="none" stroke="white" stroke-width="1.5" d="M0,-3.0v7 M-2.5,-0.5L0,-3.0L2.5,-0.5"/>
  </g>
  <g id="arrowLeft" transform="rotate(270) translate(-36 17)">
    <use xlink:href="#rim"/>
    <path pointer-events="none" fill="none" stroke="white" stroke-width="1.5" d="M0,-3.0v7 M-2.5,-0.5L0,-3.0L2.5,-0.5"/>
  </g>
  <g id="resetDef">
    <use xlink:href="#rim2" fill="#404040"><set attributeName="fill" to="#808080" begin="reset.mouseover" end="reset.mouseout"/></use>
  </g>
</defs>
<script type="application/ecmascript">
var viewWidth = 751;
var viewHeight = 560;
var sectionId = 'dynsection-87';
</script>
<script type="application/ecmascript" xlink:href="../../../../assets/svg.min.js"/>
<svg id="graph" class="graph">
<g id="viewport">
<title>BigDataStatMeth::Rcpp_block_matrix_substract_hdf5</title>
<!-- Node1 -->
<g id="Node000001" class="node">
<title>Node1</title>
<g id="a_Node000001"><a xlink:title="Block&#45;based matrix subtraction for HDF5 matrices.">
<polygon fill="#999999" stroke="#666666" points="146.5,-171.5 0,-171.5 0,-141 146.5,-141 146.5,-171.5"/>
<text xml:space="preserve" text-anchor="start" x="8" y="-158" font-family="Helvetica,sans-Serif" font-size="10.00">BigDataStatMeth::Rcpp</text>
<text xml:space="preserve" text-anchor="middle" x="73.25" y="-146.75" font-family="Helvetica,sans-Serif" font-size="10.00">_block_matrix_substract_hdf5</text>
</a>
</g>
</g>
<!-- Node2 -->
<g id="Node000002" class="node">
<title>Node2</title>
<g id="a_Node000002"><a xlink:href="namespace_big_data_stat_meth.html#a304b42b14ec87d4acc6f34ff0231529d" target="_top" xlink:title="Safely close any number of dataset handles (C++17).">
<polygon fill="white" stroke="#666666" points="349.25,-392.88 182.5,-392.88 182.5,-373.62 349.25,-373.62 349.25,-392.88"/>
<text xml:space="preserve" text-anchor="middle" x="265.88" y="-379.38" font-family="Helvetica,sans-Serif" font-size="10.00">BigDataStatMeth::checkClose_file</text>
</a>
</g>
</g>
<!-- Node1&#45;&gt;Node2 -->
<g id="edge1_Node000001_Node000002" class="edge">
<title>Node1&#45;&gt;Node2</title>
<g id="a_edge1_Node000001_Node000002"><a xlink:title=" ">
<path fill="none" stroke="#63b8ff" d="M77.64,-171.93C86.94,-211.01 116.67,-313.29 182.5,-364.25 184.24,-365.6 186.06,-366.85 187.94,-368.02"/>
<polygon fill="#63b8ff" stroke="#63b8ff" points="185.99,-370.95 196.48,-372.47 189.23,-364.74 185.99,-370.95"/>
</a>
</g>
</g>
<!-- Node3 -->
<g id="Node000003" class="node">
<title>Node3</title>
<g id="a_Node000003"><a xlink:href="class_big_data_stat_meth_1_1hdf5_dataset.html#ab19bac9a31efe4a733294c1c23ff5ef7" target="_top" xlink:title="Create a new dataset with optional compression.">
<polygon fill="white" stroke="#666666" points="341,-355.5 190.75,-355.5 190.75,-325 341,-325 341,-355.5"/>
<text xml:space="preserve" text-anchor="start" x="198.75" y="-342" font-family="Helvetica,sans-Serif" font-size="10.00">BigDataStatMeth::hdf5Dataset</text>
<text xml:space="preserve" text-anchor="middle" x="265.88" y="-330.75" font-family="Helvetica,sans-Serif" font-size="10.00">::createDataset</text>
</a>
</g>
</g>
<!-- Node1&#45;&gt;Node3 -->
<g id="edge2_Node000001_Node000003" class="edge">
<title>Node1&#45;&gt;Node3</title>
<g id="a_edge2_Node000001_Node000003"><a xlink:title=" ">
<path fill="none" stroke="#63b8ff" d="M90.5,-171.94C124.13,-204.39 201.46,-279.04 240.86,-317.07"/>
<polygon fill="#63b8ff" stroke="#63b8ff" points="237.95,-319.12 247.57,-323.55 242.81,-314.09 237.95,-319.12"/>
</a>
</g>
</g>
<!-- Node14 -->
<g id="Node000014" class="node">
<title>Node14</title>
<g id="a_Node000014"><a xlink:href="namespace_big_data_stat_meth.html#af64ef9879e2404a9490e6a93f7bc8807" target="_top" xlink:title="Calculate block positions and sizes for matrix operations.">
<polygon fill="white" stroke="#666666" points="333.5,-128.5 198.25,-128.5 198.25,-98 333.5,-98 333.5,-128.5"/>
<text xml:space="preserve" text-anchor="start" x="206.25" y="-115" font-family="Helvetica,sans-Serif" font-size="10.00">BigDataStatMeth::getBlock</text>
<text xml:space="preserve" text-anchor="middle" x="265.88" y="-103.75" font-family="Helvetica,sans-Serif" font-size="10.00">PositionsSizes</text>
</a>
</g>
</g>
<!-- Node1&#45;&gt;Node14 -->
<g id="edge14_Node000001_Node000014" class="edge">
<title>Node1&#45;&gt;Node14</title>
<g id="a_edge14_Node000001_Node000014"><a xlink:title=" ">
<path fill="none" stroke="#63b8ff" d="M143.88,-140.54C157.95,-137.37 172.82,-134.01 187.15,-130.78"/>
<polygon fill="#63b8ff" stroke="#63b8ff" points="187.52,-134.29 196.5,-128.67 185.98,-127.46 187.52,-134.29"/>
</a>
</g>
</g>
<!-- Node16 -->
<g id="Node000016" class="node">
<title>Node16</title>
<g id="a_Node000016"><a xlink:href="class_big_data_stat_meth_1_1hdf5_dataset.html#aa743c8c46d7ff3bb2f894145dd07fd8a" target="_top" xlink:title="Get number of columns in internal format.">
<polygon fill="white" stroke="#666666" points="341,-79.5 190.75,-79.5 190.75,-49 341,-49 341,-79.5"/>
<text xml:space="preserve" text-anchor="start" x="198.75" y="-66" font-family="Helvetica,sans-Serif" font-size="10.00">BigDataStatMeth::hdf5Dataset</text>
<text xml:space="preserve" text-anchor="middle" x="265.88" y="-54.75" font-family="Helvetica,sans-Serif" font-size="10.00">::ncols</text>
</a>
</g>
</g>
<!-- Node1&#45;&gt;Node16 -->
<g id="edge16_Node000001_Node000016" class="edge">
<title>Node1&#45;&gt;Node16</title>
<g id="a_edge16_Node000001_Node000016"><a xlink:title=" ">
<path fill="none" stroke="#63b8ff" d="M95.7,-140.63C116.9,-125.78 150.68,-103.63 182.5,-89.25 186.79,-87.31 191.27,-85.47 195.83,-83.73"/>
<polygon fill="#63b8ff" stroke="#63b8ff" points="196.92,-87.06 205.14,-80.39 194.55,-80.48 196.92,-87.06"/>
</a>
</g>
</g>
<!-- Node17 -->
<g id="Node000017" class="node">
<title>Node17</title>
<g id="a_Node000017"><a xlink:href="class_big_data_stat_meth_1_1hdf5_dataset.html#a6cbce676967d0cc4b50e2cc5282c322b" target="_top" xlink:title="Get number of rows in internal format.">
<polygon fill="white" stroke="#666666" points="341,-30.5 190.75,-30.5 190.75,0 341,0 341,-30.5"/>
<text xml:space="preserve" text-anchor="start" x="198.75" y="-17" font-family="Helvetica,sans-Serif" font-size="10.00">BigDataStatMeth::hdf5Dataset</text>
<text xml:space="preserve" text-anchor="middle" x="265.88" y="-5.75" font-family="Helvetica,sans-Serif" font-size="10.00">::nrows</text>
</a>
</g>
</g>
<!-- Node1&#45;&gt;Node17 -->
<g id="edge17_Node000001_Node000017" class="edge">
<title>Node1&#45;&gt;Node17</title>
<g id="a_edge17_Node000001_Node000017"><a xlink:title=" ">
<path fill="none" stroke="#63b8ff" d="M84.63,-140.65C101.98,-115.78 139.25,-67.2 182.5,-40.25 185.09,-38.64 187.78,-37.12 190.56,-35.7"/>
<polygon fill="#63b8ff" stroke="#63b8ff" points="191.88,-38.95 199.5,-31.59 188.95,-32.59 191.88,-38.95"/>
</a>
</g>
</g>
<!-- Node18 -->
<g id="Node000018" class="node">
<title>Node18</title>
<g id="a_Node000018"><a xlink:href="class_big_data_stat_meth_1_1hdf5_dataset.html#a23bea87165b8ef6b944709c5b2cbd0cf" target="_top" xlink:title=" ">
<polygon fill="white" stroke="#666666" points="341,-214.5 190.75,-214.5 190.75,-184 341,-184 341,-214.5"/>
<text xml:space="preserve" text-anchor="start" x="198.75" y="-201" font-family="Helvetica,sans-Serif" font-size="10.00">BigDataStatMeth::hdf5Dataset</text>
<text xml:space="preserve" text-anchor="middle" x="265.88" y="-189.75" font-family="Helvetica,sans-Serif" font-size="10.00">::readDatasetBlock</text>
</a>
</g>
</g>
<!-- Node1&#45;&gt;Node18 -->
<g id="edge18_Node000001_Node000018" class="edge">
<title>Node1&#45;&gt;Node18</title>
<g id="a_edge18_Node000001_Node000018"><a xlink:title=" ">
<path fill="none" stroke="#63b8ff" d="M143.88,-171.96C156.92,-174.9 170.66,-178 184.02,-181.01"/>
<polygon fill="#63b8ff" stroke="#63b8ff" points="183.11,-184.39 193.64,-183.18 184.65,-177.57 183.11,-184.39"/>
</a>
</g>
</g>
<!-- Node19 -->
<g id="Node000019" class="node">
<title>Node19</title>
<g id="a_Node000019"><a xlink:href="class_big_data_stat_meth_1_1hdf5_dataset.html#af606176d84a63561b65702b6fde3a583" target="_top" xlink:title="Write block of data with optional transposition.">
<polygon fill="white" stroke="#666666" points="535.5,-171.5 385.25,-171.5 385.25,-141 535.5,-141 535.5,-171.5"/>
<text xml:space="preserve" text-anchor="start" x="393.25" y="-158" font-family="Helvetica,sans-Serif" font-size="10.00">BigDataStatMeth::hdf5Dataset</text>
<text xml:space="preserve" text-anchor="middle" x="460.38" y="-146.75" font-family="Helvetica,sans-Serif" font-size="10.00">::writeDatasetBlock</text>
</a>
</g>
</g>
<!-- Node1&#45;&gt;Node19 -->
<g id="edge20_Node000001_Node000019" class="edge">
<title>Node1&#45;&gt;Node19</title>
<g id="a_edge20_Node000001_Node000019"><a xlink:title=" ">
<path fill="none" stroke="#63b8ff" d="M146.69,-156.25C211.19,-156.25 305.63,-156.25 373.83,-156.25"/>
<polygon fill="#63b8ff" stroke="#63b8ff" points="373.45,-159.75 383.45,-156.25 373.45,-152.75 373.45,-159.75"/>
</a>
</g>
</g>
<!-- Node4 -->
<g id="Node000004" class="node">
<title>Node4</title>
<g id="a_Node000004"><a xlink:href="class_big_data_stat_meth_1_1hdf5_dataset.html#ac7a7f23b7e22c9b56ca6ad86592f2d52" target="_top" xlink:title="Add an attribute to the dataset.">
<polygon fill="white" stroke="#666666" points="535.5,-502.5 385.25,-502.5 385.25,-472 535.5,-472 535.5,-502.5"/>
<text xml:space="preserve" text-anchor="start" x="393.25" y="-489" font-family="Helvetica,sans-Serif" font-size="10.00">BigDataStatMeth::hdf5Dataset</text>
<text xml:space="preserve" text-anchor="middle" x="460.38" y="-477.75" font-family="Helvetica,sans-Serif" font-size="10.00">::addAttribute</text>
</a>
</g>
</g>
<!-- Node3&#45;&gt;Node4 -->
<g id="edge3_Node000003_Node000004" class="edge">
<title>Node3&#45;&gt;Node4</title>
<g id="a_edge3_Node000003_Node000004"><a xlink:title=" ">
<path fill="none" stroke="#63b8ff" d="M338.1,-355.98C342.11,-358.36 345.87,-361.1 349.25,-364.25 383.17,-395.92 352,-429.88 385.25,-462.25 386.29,-463.26 387.37,-464.23 388.49,-465.17"/>
<polygon fill="#63b8ff" stroke="#63b8ff" points="386.26,-467.88 396.47,-470.71 390.25,-462.13 386.26,-467.88"/>
</a>
</g>
</g>
<!-- Node5 -->
<g id="Node000005" class="node">
<title>Node5</title>
<g id="a_Node000005"><a xlink:href="class_big_data_stat_meth_1_1hdf5_file.html#abfb73b5f1eb25ee00489485c8dc56a2a" target="_top" xlink:title="Close file and cleanup resources.">
<polygon fill="white" stroke="#666666" points="526.12,-404.5 394.62,-404.5 394.62,-374 526.12,-374 526.12,-404.5"/>
<text xml:space="preserve" text-anchor="start" x="402.62" y="-391" font-family="Helvetica,sans-Serif" font-size="10.00">BigDataStatMeth::hdf5File</text>
<text xml:space="preserve" text-anchor="middle" x="460.38" y="-379.75" font-family="Helvetica,sans-Serif" font-size="10.00">::close_file</text>
</a>
</g>
</g>
<!-- Node3&#45;&gt;Node5 -->
<g id="edge4_Node000003_Node000005" class="edge">
<title>Node3&#45;&gt;Node5</title>
<g id="a_edge4_Node000003_Node000005"><a xlink:title=" ">
<path fill="none" stroke="#63b8ff" d="M328.58,-355.96C347.06,-360.66 367.49,-365.86 386.61,-370.73"/>
<polygon fill="#63b8ff" stroke="#63b8ff" points="385.67,-374.1 396.22,-373.18 387.4,-367.32 385.67,-374.1"/>
</a>
</g>
</g>
<!-- Node6 -->
<g id="Node000006" class="node">
<title>Node6</title>
<g id="a_Node000006"><a xlink:href="class_big_data_stat_meth_1_1hdf5_group.html#a27cef4d33e46c72bfd792aa49fa621a3" target="_top" xlink:title="Create multiple nested groups.">
<polygon fill="white" stroke="#666666" points="531.38,-453.5 389.38,-453.5 389.38,-423 531.38,-423 531.38,-453.5"/>
<text xml:space="preserve" text-anchor="start" x="397.38" y="-440" font-family="Helvetica,sans-Serif" font-size="10.00">BigDataStatMeth::hdf5Group</text>
<text xml:space="preserve" text-anchor="middle" x="460.38" y="-428.75" font-family="Helvetica,sans-Serif" font-size="10.00">::create_HDF5_groups</text>
</a>
</g>
</g>
<!-- Node3&#45;&gt;Node6 -->
<g id="edge5_Node000003_Node000006" class="edge">
<title>Node3&#45;&gt;Node6</title>
<g id="a_edge5_Node000003_Node000006"><a xlink:title=" ">
<path fill="none" stroke="#63b8ff" d="M334.67,-355.96C339.8,-358.34 344.73,-361.09 349.25,-364.25 371.39,-379.74 363.43,-397.3 385.25,-413.25 387.18,-414.66 389.19,-415.99 391.27,-417.25"/>
<polygon fill="#63b8ff" stroke="#63b8ff" points="389.57,-420.31 400.04,-421.93 392.86,-414.14 389.57,-420.31"/>
</a>
</g>
</g>
<!-- Node8 -->
<g id="Node000008" class="node">
<title>Node8</title>
<g id="a_Node000008"><a xlink:href="namespace_big_data_stat_meth.html#a89d901ab4b5e01771f4e3fc7dc84e50e" target="_top" xlink:title="Checks if an HDF5 element (group or dataset) exists.">
<polygon fill="white" stroke="#666666" points="522,-355.5 398.75,-355.5 398.75,-325 522,-325 522,-355.5"/>
<text xml:space="preserve" text-anchor="start" x="406.75" y="-342" font-family="Helvetica,sans-Serif" font-size="10.00">BigDataStatMeth::exists</text>
<text xml:space="preserve" text-anchor="middle" x="460.38" y="-330.75" font-family="Helvetica,sans-Serif" font-size="10.00">_HDF5_element</text>
</a>
</g>
</g>
<!-- Node3&#45;&gt;Node8 -->
<g id="edge7_Node000003_Node000008" class="edge">
<title>Node3&#45;&gt;Node8</title>
<g id="a_edge7_Node000003_Node000008"><a xlink:title=" ">
<path fill="none" stroke="#63b8ff" d="M341.3,-340.25C356.39,-340.25 372.24,-340.25 387.25,-340.25"/>
<polygon fill="#63b8ff" stroke="#63b8ff" points="387.02,-343.75 397.02,-340.25 387.02,-336.75 387.02,-343.75"/>
</a>
</g>
</g>
<!-- Node9 -->
<g id="Node000009" class="node">
<title>Node9</title>
<g id="a_Node000009"><a xlink:href="class_big_data_stat_meth_1_1hdf5_group.html#a59995412538627e6c80f64b552c286f5" target="_top" xlink:title=" ">
<polygon fill="white" stroke="#666666" points="531.38,-306.5 389.38,-306.5 389.38,-276 531.38,-276 531.38,-306.5"/>
<text xml:space="preserve" text-anchor="start" x="397.38" y="-293" font-family="Helvetica,sans-Serif" font-size="10.00">BigDataStatMeth::hdf5Group</text>
<text xml:space="preserve" text-anchor="middle" x="460.38" y="-281.75" font-family="Helvetica,sans-Serif" font-size="10.00">::getGroupName</text>
</a>
</g>
</g>
<!-- Node3&#45;&gt;Node9 -->
<g id="edge9_Node000003_Node000009" class="edge">
<title>Node3&#45;&gt;Node9</title>
<g id="a_edge9_Node000003_Node000009"><a xlink:title=" ">
<path fill="none" stroke="#63b8ff" d="M328.58,-324.54C347.06,-319.84 367.49,-314.64 386.61,-309.77"/>
<polygon fill="#63b8ff" stroke="#63b8ff" points="387.4,-313.18 396.22,-307.32 385.67,-306.4 387.4,-313.18"/>
</a>
</g>
</g>
<!-- Node10 -->
<g id="Node000010" class="node">
<title>Node10</title>
<g id="a_Node000010"><a xlink:href="namespace_big_data_stat_meth.html#a3d06783149029f1df2853c472d401380" target="_top" xlink:title="Removes multiple elements from an HDF5 file.">
<polygon fill="white" stroke="#666666" points="525,-551.5 395.75,-551.5 395.75,-521 525,-521 525,-551.5"/>
<text xml:space="preserve" text-anchor="start" x="403.75" y="-538" font-family="Helvetica,sans-Serif" font-size="10.00">BigDataStatMeth::remove</text>
<text xml:space="preserve" text-anchor="middle" x="460.38" y="-526.75" font-family="Helvetica,sans-Serif" font-size="10.00">_elements</text>
</a>
</g>
</g>
<!-- Node3&#45;&gt;Node10 -->
<g id="edge10_Node000003_Node000010" class="edge">
<title>Node3&#45;&gt;Node10</title>
<g id="a_edge10_Node000003_Node000010"><a xlink:title=" ">
<path fill="none" stroke="#63b8ff" d="M338.9,-355.79C342.66,-358.22 346.16,-361.02 349.25,-364.25 395.77,-412.83 339.75,-461.71 385.25,-511.25 385.97,-512.04 386.72,-512.8 387.49,-513.54"/>
<polygon fill="#63b8ff" stroke="#63b8ff" points="385.32,-516.28 395.37,-519.65 389.61,-510.75 385.32,-516.28"/>
</a>
</g>
</g>
<!-- Node11 -->
<g id="Node000011" class="node">
<title>Node11</title>
<g id="a_Node000011"><a xlink:href="class_big_data_stat_meth_1_1hdf5_dataset.html#acf9843abcb57a0090f1635cc69d95300" target="_top" xlink:title="Write data to the dataset.">
<polygon fill="white" stroke="#666666" points="535.5,-257.5 385.25,-257.5 385.25,-227 535.5,-227 535.5,-257.5"/>
<text xml:space="preserve" text-anchor="start" x="393.25" y="-244" font-family="Helvetica,sans-Serif" font-size="10.00">BigDataStatMeth::hdf5Dataset</text>
<text xml:space="preserve" text-anchor="middle" x="460.38" y="-232.75" font-family="Helvetica,sans-Serif" font-size="10.00">::writeDataset</text>
</a>
</g>
</g>
<!-- Node3&#45;&gt;Node11 -->
<g id="edge11_Node000003_Node000011" class="edge">
<title>Node3&#45;&gt;Node11</title>
<g id="a_edge11_Node000003_Node000011"><a xlink:title=" ">
<path fill="none" stroke="#63b8ff" d="M288.71,-324.67C311.84,-308.69 349.84,-283.87 385.25,-267.25 389.04,-265.47 392.99,-263.76 397.01,-262.12"/>
<polygon fill="#63b8ff" stroke="#63b8ff" points="398.26,-265.39 406.33,-258.52 395.74,-258.86 398.26,-265.39"/>
</a>
</g>
</g>
<!-- Node7 -->
<g id="Node000007" class="node">
<title>Node7</title>
<g id="a_Node000007"><a xlink:href="namespace_big_data_stat_meth.html#abcaa4216cd52f03ebac42e4855ef846b" target="_top" xlink:title="Checks if a path exists in an HDF5 file.">
<polygon fill="white" stroke="#666666" points="728.88,-398.88 585.38,-398.88 585.38,-379.62 728.88,-379.62 728.88,-398.88"/>
<text xml:space="preserve" text-anchor="middle" x="657.12" y="-385.38" font-family="Helvetica,sans-Serif" font-size="10.00">BigDataStatMeth::pathExists</text>
</a>
</g>
</g>
<!-- Node6&#45;&gt;Node7 -->
<g id="edge6_Node000006_Node000007" class="edge">
<title>Node6&#45;&gt;Node7</title>
<g id="a_edge6_Node000006_Node000007"><a xlink:title=" ">
<path fill="none" stroke="#63b8ff" d="M523.8,-422.54C550.04,-415.94 580.19,-408.36 605.07,-402.09"/>
<polygon fill="#63b8ff" stroke="#63b8ff" points="605.79,-405.52 614.64,-399.69 604.09,-398.73 605.79,-405.52"/>
</a>
</g>
</g>
<!-- Node8&#45;&gt;Node7 -->
<g id="edge8_Node000008_Node000007" class="edge">
<title>Node8&#45;&gt;Node7</title>
<g id="a_edge8_Node000008_Node000007"><a xlink:title=" ">
<path fill="none" stroke="#63b8ff" d="M522.46,-355.62C549.09,-362.32 579.93,-370.08 605.28,-376.46"/>
<polygon fill="#63b8ff" stroke="#63b8ff" points="604.12,-379.78 614.68,-378.82 605.83,-372.99 604.12,-379.78"/>
</a>
</g>
</g>
<!-- Node12 -->
<g id="Node000012" class="node">
<title>Node12</title>
<g id="a_Node000012"><a xlink:href="class_big_data_stat_meth_1_1hdf5_dataset.html#aba39e56a580d3b1fa7f1619fc72efa3e" target="_top" xlink:title="Close dataset and file.">
<polygon fill="white" stroke="#666666" points="732.25,-214.5 582,-214.5 582,-184 732.25,-184 732.25,-214.5"/>
<text xml:space="preserve" text-anchor="start" x="590" y="-201" font-family="Helvetica,sans-Serif" font-size="10.00">BigDataStatMeth::hdf5Dataset</text>
<text xml:space="preserve" text-anchor="middle" x="657.12" y="-189.75" font-family="Helvetica,sans-Serif" font-size="10.00">::close_dataset_file</text>
</a>
</g>
</g>
<!-- Node11&#45;&gt;Node12 -->
<g id="edge12_Node000011_Node000012" class="edge">
<title>Node11&#45;&gt;Node12</title>
<g id="a_edge12_Node000011_Node000012"><a xlink:title=" ">
<path fill="none" stroke="#63b8ff" d="M532.51,-226.54C545.97,-223.57 560.16,-220.44 573.92,-217.4"/>
<polygon fill="#63b8ff" stroke="#63b8ff" points="574.37,-220.89 583.38,-215.31 572.86,-214.05 574.37,-220.89"/>
</a>
</g>
</g>
<!-- Node13 -->
<g id="Node000013" class="node">
<title>Node13</title>
<g id="a_Node000013"><a xlink:href="class_big_data_stat_meth_1_1hdf5_dataset.html#a94d81b72e92cb0230b4e64f37ea7d2e3" target="_top" xlink:title="Convert DataFrame to range list.">
<polygon fill="white" stroke="#666666" points="742.75,-263.5 571.5,-263.5 571.5,-233 742.75,-233 742.75,-263.5"/>
<text xml:space="preserve" text-anchor="start" x="579.5" y="-250" font-family="Helvetica,sans-Serif" font-size="10.00">BigDataStatMeth::hdf5Dataset</text>
<text xml:space="preserve" text-anchor="middle" x="657.12" y="-238.75" font-family="Helvetica,sans-Serif" font-size="10.00">::convert_DataFrame_to_RangeList</text>
</a>
</g>
</g>
<!-- Node11&#45;&gt;Node13 -->
<g id="edge13_Node000011_Node000013" class="edge">
<title>Node11&#45;&gt;Node13</title>
<g id="a_edge13_Node000011_Node000013"><a xlink:title=" ">
<path fill="none" stroke="#63b8ff" d="M535.84,-244.54C543.72,-244.79 551.81,-245.04 559.9,-245.29"/>
<polygon fill="#63b8ff" stroke="#63b8ff" points="559.68,-248.78 569.78,-245.59 559.9,-241.78 559.68,-248.78"/>
</a>
</g>
</g>
<!-- Node15 -->
<g id="Node000015" class="node">
<title>Node15</title>
<g id="a_Node000015"><a xlink:href="namespace_big_data_stat_meth.html#ad6e454f49b5e34a5b657df896eed7502" target="_top" xlink:title="Optimizes block size for edge cases.">
<polygon fill="white" stroke="#666666" points="528.75,-122.5 392,-122.5 392,-92 528.75,-92 528.75,-122.5"/>
<text xml:space="preserve" text-anchor="start" x="400" y="-109" font-family="Helvetica,sans-Serif" font-size="10.00">BigDataStatMeth::getOptim</text>
<text xml:space="preserve" text-anchor="middle" x="460.38" y="-97.75" font-family="Helvetica,sans-Serif" font-size="10.00">BlockSize</text>
</a>
</g>
</g>
<!-- Node14&#45;&gt;Node15 -->
<g id="edge15_Node000014_Node000015" class="edge">
<title>Node14&#45;&gt;Node15</title>
<g id="a_edge15_Node000014_Node000015"><a xlink:title=" ">
<path fill="none" stroke="#63b8ff" d="M333.93,-111.16C348.95,-110.69 365.02,-110.19 380.46,-109.71"/>
<polygon fill="#63b8ff" stroke="#63b8ff" points="380.18,-113.22 390.07,-109.41 379.96,-106.22 380.18,-113.22"/>
</a>
</g>
</g>
<!-- Node18&#45;&gt;Node12 -->
<g id="edge19_Node000018_Node000012" class="edge">
<title>Node18&#45;&gt;Node12</title>
<g id="a_edge19_Node000018_Node000012"><a xlink:title=" ">
<path fill="none" stroke="#63b8ff" d="M341.47,-199.25C406.92,-199.25 502.08,-199.25 570.6,-199.25"/>
<polygon fill="#63b8ff" stroke="#63b8ff" points="570.27,-202.75 580.27,-199.25 570.27,-195.75 570.27,-202.75"/>
</a>
</g>
</g>
<!-- Node19&#45;&gt;Node12 -->
<g id="edge22_Node000019_Node000012" class="edge">
<title>Node19&#45;&gt;Node12</title>
<g id="a_edge22_Node000019_Node000012"><a xlink:title=" ">
<path fill="none" stroke="#63b8ff" d="M532.51,-171.96C545.97,-174.93 560.16,-178.06 573.92,-181.1"/>
<polygon fill="#63b8ff" stroke="#63b8ff" points="572.86,-184.45 583.38,-183.19 574.37,-177.61 572.86,-184.45"/>
</a>
</g>
</g>
<!-- Node19&#45;&gt;Node13 -->
<g id="edge23_Node000019_Node000013" class="edge">
<title>Node19&#45;&gt;Node13</title>
<g id="a_edge23_Node000019_Node000013"><a xlink:title=" ">
<path fill="none" stroke="#63b8ff" d="M483.22,-171.89C504.8,-186.77 539.17,-208.93 571.5,-223.25 575.83,-225.17 580.36,-226.99 584.96,-228.71"/>
<polygon fill="#63b8ff" stroke="#63b8ff" points="583.77,-232 594.36,-232.02 586.09,-225.4 583.77,-232"/>
</a>
</g>
</g>
<!-- Node20 -->
<g id="Node000020" class="node">
<title>Node20</title>
<g id="a_Node000020"><a xlink:href="class_big_data_stat_meth_1_1hdf5_dataset.html#a64177ae924792ea9e557febaa95ed400" target="_top" xlink:title="Close the dataset.">
<polygon fill="white" stroke="#666666" points="732.25,-128.5 582,-128.5 582,-98 732.25,-98 732.25,-128.5"/>
<text xml:space="preserve" text-anchor="start" x="590" y="-115" font-family="Helvetica,sans-Serif" font-size="10.00">BigDataStatMeth::hdf5Dataset</text>
<text xml:space="preserve" text-anchor="middle" x="657.12" y="-103.75" font-family="Helvetica,sans-Serif" font-size="10.00">::close_dataset</text>
</a>
</g>
</g>
<!-- Node19&#45;&gt;Node20 -->
<g id="edge21_Node000019_Node000020" class="edge">
<title>Node19&#45;&gt;Node20</title>
<g id="a_edge21_Node000019_Node000020"><a xlink:title=" ">
<path fill="none" stroke="#63b8ff" d="M532.51,-140.54C545.97,-137.57 560.16,-134.44 573.92,-131.4"/>
<polygon fill="#63b8ff" stroke="#63b8ff" points="574.37,-134.89 583.38,-129.31 572.86,-128.05 574.37,-134.89"/>
</a>
</g>
</g>
<!-- Node21 -->
<g id="Node000021" class="node">
<title>Node21</title>
<g id="a_Node000021"><a xlink:href="namespace_big_data_stat_meth.html#a2692707b3ea4aaafa09d07afaf632437" target="_top" xlink:title="Transposes a 2D matrix.">
<polygon fill="white" stroke="#666666" points="727,-165.88 587.25,-165.88 587.25,-146.62 727,-146.62 727,-165.88"/>
<text xml:space="preserve" text-anchor="middle" x="657.12" y="-152.38" font-family="Helvetica,sans-Serif" font-size="10.00">BigDataStatMeth::transpose</text>
</a>
</g>
</g>
<!-- Node19&#45;&gt;Node21 -->
<g id="edge24_Node000019_Node000021" class="edge">
<title>Node19&#45;&gt;Node21</title>
<g id="a_edge24_Node000019_Node000021"><a xlink:title=" ">
<path fill="none" stroke="#63b8ff" d="M535.84,-156.25C548.79,-156.25 562.32,-156.25 575.43,-156.25"/>
<polygon fill="#63b8ff" stroke="#63b8ff" points="575.31,-159.75 585.31,-156.25 575.31,-152.75 575.31,-159.75"/>
</a>
</g>
</g>
</g>
</svg>

<g id="navigator" transform="translate(0 0)" fill="#404254">
  <rect fill="#f2f5e9" fill-opacity="0.5" stroke="#606060" stroke-width=".5" x="0" y="0" width="60" height="60"/>
  <use id="zoomplus" xlink:href="#zoomPlus" x="17" y="9" onmousedown="handleZoom(evt,'in')"/>
  <use id="zoomminus" xlink:href="#zoomMin" x="42" y="9" onmousedown="handleZoom(evt,'out')"/>
  <use id="reset" xlink:href="#resetDef" x="30" y="36" onmousedown="handleReset()"/>
   <use id="arrowup" xlink:href="#arrowUp" x="0" y="0" onmousedown="handlePan(0,-1)"/>
  <use id="arrowright" xlink:href="#arrowRight" x="0" y="0" onmousedown="handlePan(1,0)"/>
  <use id="arrowdown" xlink:href="#arrowDown" x="0" y="0" onmousedown="handlePan(0,1)"/>
  <use id="arrowleft" xlink:href="#arrowLeft" x="0" y="0" onmousedown="handlePan(-1,0)"/>
</g>
<svg viewBox="0 0 15 15" width="100%" height="30px" preserveAspectRatio="xMaxYMin meet">
 <g id="arrow_out" transform="scale(0.3 0.3)">
  <a xlink:href="namespace_big_data_stat_meth_add3e7c6e17615743bebb831769594bb7_cgraph_org.svg" target="_base">
   <rect id="button" ry="5" rx="5" y="6" x="6" height="38" width="38"
        fill="#f2f5e9" fill-opacity="0.5" stroke="#606060" stroke-width="1.0"/>
   <path id="arrow"
     d="M 11.500037,31.436501 C 11.940474,20.09759 22.043105,11.32322 32.158766,21.979434 L 37.068811,17.246167 C 37.068811,17.246167 37.088388,32 37.088388,32 L 22.160133,31.978069 C 22.160133,31.978069 26.997745,27.140456 26.997745,27.140456 C 18.528582,18.264221 13.291696,25.230495 11.500037,31.436501 z"
     style="fill:#404040;"/>
  </a>
 </g>
</svg>

<style type='text/css'>
<![CDATA[
[data-mouse-over-selected='false'] { opacity: 0.7; }
[data-mouse-over-selected='true']  { opacity: 1.0; }
]]>
</style>
<script type="application/ecmascript"><![CDATA[
document.addEventListener('DOMContentLoaded', (event) => {
  highlightEdges();
  highlightAdjacentNodes();
});
]]></script>
</svg>
