<?xml version="1.0" encoding="UTF-8" standalone="no"?>
<!DOCTYPE svg PUBLIC "-//W3C//DTD SVG 1.1//EN"
 "http://www.w3.org/Graphics/SVG/1.1/DTD/svg11.dtd">
<!-- Generated by graphviz version 14.0.0 (20250921.2048)
 -->
<!-- Title: BigDataStatMeth::RcppReduce_dataset_hdf5 Pages: 1 -->
<!--zoomable 675 -->

<svg id="main" version="1.1" xmlns="http://www.w3.org/2000/svg" xmlns:xlink="http://www.w3.org/1999/xlink" xml:space="preserve" onload="init(evt)">

<style type="text/css"><![CDATA[
.node, .edge {opacity: 0.7;}
.node.selected, .edge.selected {opacity: 1;}
.edge:hover path { stroke: red; }
.edge:hover polygon { stroke: red; fill: red; }
]]></style>

<defs>
  <circle id="rim" cx="0" cy="0" r="7"/>
  <circle id="rim2" cx="0" cy="0" r="3.5"/>
  <g id="zoomPlus">
    <use xlink:href="#rim" fill="#404040"><set attributeName="fill" to="#808080" begin="zoomplus.mouseover" end="zoomplus.mouseout"/></use>
    <path d="M-4,0h8M0,-4v8" fill="none" stroke="white" stroke-width="1.5" pointer-events="none"/>
  </g>
  <g id="zoomMin">
    <use xlink:href="#rim" fill="#404040"><set attributeName="fill" to="#808080" begin="zoomminus.mouseover" end="zoomminus.mouseout"/></use>
    <path d="M-4,0h8" fill="none" stroke="white" stroke-width="1.5" pointer-events="none"/>
  </g>
  <g id="arrowUp" transform="translate(30 24)">
    <use xlink:href="#rim"/>
    <path pointer-events="none" fill="none" stroke="white" stroke-width="1.5" d="M0,-3.0v7 M-2.5,-0.5L0,-3.0L2.5,-0.5"/>
  </g>
  <g id="arrowRight" transform="rotate(90) translate(36 -43)">
    <use xlink:href="#rim"/>
    <path pointer-events="none" fill="none" stroke="white" stroke-width="1.5" d="M0,-3.0v7 M-2.5,-0.5L0,-3.0L2.5,-0.5"/>
  </g>
  <g id="arrowDown" transform="rotate(180) translate(-30 -48)">
    <use xlink:href="#rim"/>
    <path pointer-events="none" fill="none" stroke="white" stroke-width="1.5" d="M0,-3.0v7 M-2.5,-0.5L0,-3.0L2.5,-0.5"/>
  </g>
  <g id="arrowLeft" transform="rotate(270) translate(-36 17)">
    <use xlink:href="#rim"/>
    <path pointer-events="none" fill="none" stroke="white" stroke-width="1.5" d="M0,-3.0v7 M-2.5,-0.5L0,-3.0L2.5,-0.5"/>
  </g>
  <g id="resetDef">
    <use xlink:href="#rim2" fill="#404040"><set attributeName="fill" to="#808080" begin="reset.mouseover" end="reset.mouseout"/></use>
  </g>
</defs>
<script type="application/ecmascript">
var viewWidth = 954;
var viewHeight = 675;
var sectionId = 'dynsection-167';
</script>
<script type="application/ecmascript" xlink:href="../../../../assets/svg.min.js"/>
<svg id="graph" class="graph">
<g id="viewport">
<title>BigDataStatMeth::RcppReduce_dataset_hdf5</title>
<!-- Node1 -->
<g id="Node000001" class="node">
<title>Node1</title>
<g id="a_Node000001"><a xlink:title="Reduces multiple HDF5 datasets into a single dataset using specified operation.">
<polygon fill="#999999" stroke="#666666" points="154,-279.5 0,-279.5 0,-249 154,-249 154,-279.5"/>
<text xml:space="preserve" text-anchor="start" x="8" y="-266" font-family="Helvetica,sans-Serif" font-size="10.00">BigDataStatMeth::RcppReduce</text>
<text xml:space="preserve" text-anchor="middle" x="77" y="-254.75" font-family="Helvetica,sans-Serif" font-size="10.00">_dataset_hdf5</text>
</a>
</g>
</g>
<!-- Node2 -->
<g id="Node000002" class="node">
<title>Node2</title>
<g id="a_Node000002"><a xlink:href="namespace_big_data_stat_meth.html#a304b42b14ec87d4acc6f34ff0231529d" target="_top" xlink:title="Safely close any number of dataset handles (C++17).">
<polygon fill="white" stroke="#666666" points="359.38,-592.88 192.62,-592.88 192.62,-573.62 359.38,-573.62 359.38,-592.88"/>
<text xml:space="preserve" text-anchor="middle" x="276" y="-579.38" font-family="Helvetica,sans-Serif" font-size="10.00">BigDataStatMeth::checkClose_file</text>
</a>
</g>
</g>
<!-- Node1&#45;&gt;Node2 -->
<g id="edge1_Node000001_Node000002" class="edge">
<title>Node1&#45;&gt;Node2</title>
<g id="a_edge1_Node000001_Node000002"><a xlink:title=" ">
<path fill="none" stroke="#63b8ff" d="M78.84,-279.86C82.39,-329.7 100.51,-486.28 190,-564.25 191.28,-565.37 192.62,-566.42 194,-567.42"/>
<polygon fill="#63b8ff" stroke="#63b8ff" points="191.98,-570.3 202.36,-572.42 195.57,-564.29 191.98,-570.3"/>
</a>
</g>
</g>
<!-- Node3 -->
<g id="Node000003" class="node">
<title>Node3</title>
<g id="a_Node000003"><a xlink:href="class_big_data_stat_meth_1_1hdf5_dataset.html#ab19bac9a31efe4a733294c1c23ff5ef7" target="_top" xlink:title="Create a new dataset with optional compression.">
<polygon fill="white" stroke="#666666" points="351.12,-401.5 200.88,-401.5 200.88,-371 351.12,-371 351.12,-401.5"/>
<text xml:space="preserve" text-anchor="start" x="208.88" y="-388" font-family="Helvetica,sans-Serif" font-size="10.00">BigDataStatMeth::hdf5Dataset</text>
<text xml:space="preserve" text-anchor="middle" x="276" y="-376.75" font-family="Helvetica,sans-Serif" font-size="10.00">::createDataset</text>
</a>
</g>
</g>
<!-- Node1&#45;&gt;Node3 -->
<g id="edge2_Node000001_Node000003" class="edge">
<title>Node1&#45;&gt;Node3</title>
<g id="a_edge2_Node000001_Node000003"><a xlink:title=" ">
<path fill="none" stroke="#63b8ff" d="M92.47,-279.92C112.52,-300.77 150.74,-337.52 190,-359.25 194.67,-361.83 199.61,-364.21 204.68,-366.39"/>
<polygon fill="#63b8ff" stroke="#63b8ff" points="203.22,-369.57 213.81,-370.02 205.81,-363.07 203.22,-369.57"/>
</a>
</g>
</g>
<!-- Node11 -->
<g id="Node000011" class="node">
<title>Node11</title>
<g id="a_Node000011"><a xlink:href="class_big_data_stat_meth_1_1hdf5_dataset.html#acf9843abcb57a0090f1635cc69d95300" target="_top" xlink:title="Write data to the dataset.">
<polygon fill="white" stroke="#666666" points="553.88,-224.5 403.62,-224.5 403.62,-194 553.88,-194 553.88,-224.5"/>
<text xml:space="preserve" text-anchor="start" x="411.62" y="-211" font-family="Helvetica,sans-Serif" font-size="10.00">BigDataStatMeth::hdf5Dataset</text>
<text xml:space="preserve" text-anchor="middle" x="478.75" y="-199.75" font-family="Helvetica,sans-Serif" font-size="10.00">::writeDataset</text>
</a>
</g>
</g>
<!-- Node1&#45;&gt;Node11 -->
<g id="edge36_Node000001_Node000011" class="edge">
<title>Node1&#45;&gt;Node11</title>
<g id="a_edge36_Node000001_Node000011"><a xlink:title=" ">
<path fill="none" stroke="#63b8ff" d="M154.13,-253.78C222.08,-244.43 321.48,-230.75 392.17,-221.02"/>
<polygon fill="#63b8ff" stroke="#63b8ff" points="392.33,-224.54 401.76,-219.71 391.37,-217.6 392.33,-224.54"/>
</a>
</g>
</g>
<!-- Node14 -->
<g id="Node000014" class="node">
<title>Node14</title>
<g id="a_Node000014"><a xlink:href="class_big_data_stat_meth_1_1hdf5_dataset.html#a7b54a6f524581d54102a1614ee44991b" target="_top" xlink:title="Get dataset dimension.">
<polygon fill="white" stroke="#666666" points="362,-214.88 190,-214.88 190,-195.62 362,-195.62 362,-214.88"/>
<text xml:space="preserve" text-anchor="middle" x="276" y="-201.38" font-family="Helvetica,sans-Serif" font-size="10.00">BigDataStatMeth::hdf5Dataset::dim</text>
</a>
</g>
</g>
<!-- Node1&#45;&gt;Node14 -->
<g id="edge14_Node000001_Node000014" class="edge">
<title>Node1&#45;&gt;Node14</title>
<g id="a_edge14_Node000001_Node000014"><a xlink:title=" ">
<path fill="none" stroke="#63b8ff" d="M127.25,-248.53C146.76,-242.4 169.4,-235.38 190,-229.25 202.15,-225.64 215.32,-221.85 227.59,-218.39"/>
<polygon fill="#63b8ff" stroke="#63b8ff" points="228.4,-221.79 237.08,-215.72 226.51,-215.05 228.4,-221.79"/>
</a>
</g>
</g>
<!-- Node15 -->
<g id="Node000015" class="node">
<title>Node15</title>
<g id="a_Node000015"><a xlink:href="class_big_data_stat_meth_1_1hdf5_file.html#a489d726eb99c15def40628d033d3726e" target="_top" xlink:title="Get list of dataset names.">
<polygon fill="white" stroke="#666666" points="341.75,-177.5 210.25,-177.5 210.25,-147 341.75,-147 341.75,-177.5"/>
<text xml:space="preserve" text-anchor="start" x="218.25" y="-164" font-family="Helvetica,sans-Serif" font-size="10.00">BigDataStatMeth::hdf5File</text>
<text xml:space="preserve" text-anchor="middle" x="276" y="-152.75" font-family="Helvetica,sans-Serif" font-size="10.00">::getDatasetNames</text>
</a>
</g>
</g>
<!-- Node1&#45;&gt;Node15 -->
<g id="edge15_Node000001_Node000015" class="edge">
<title>Node1&#45;&gt;Node15</title>
<g id="a_edge15_Node000001_Node000015"><a xlink:title=" ">
<path fill="none" stroke="#63b8ff" d="M96.23,-248.66C117.47,-231.21 154.23,-203.17 190,-186.25 193.26,-184.71 196.63,-183.25 200.08,-181.87"/>
<polygon fill="#63b8ff" stroke="#63b8ff" points="201,-185.26 209.15,-178.49 198.56,-178.7 201,-185.26"/>
</a>
</g>
</g>
<!-- Node17 -->
<g id="Node000017" class="node">
<title>Node17</title>
<g id="a_Node000017"><a xlink:href="class_big_data_stat_meth_1_1hdf5_dataset.html#a00ef08e5d548410faaea7892c87c343a" target="_top" xlink:title="Get dataset pointer.">
<polygon fill="white" stroke="#666666" points="351.12,-128.5 200.88,-128.5 200.88,-98 351.12,-98 351.12,-128.5"/>
<text xml:space="preserve" text-anchor="start" x="208.88" y="-115" font-family="Helvetica,sans-Serif" font-size="10.00">BigDataStatMeth::hdf5Dataset</text>
<text xml:space="preserve" text-anchor="middle" x="276" y="-103.75" font-family="Helvetica,sans-Serif" font-size="10.00">::getDatasetptr</text>
</a>
</g>
</g>
<!-- Node1&#45;&gt;Node17 -->
<g id="edge17_Node000001_Node000017" class="edge">
<title>Node1&#45;&gt;Node17</title>
<g id="a_edge17_Node000001_Node000017"><a xlink:title=" ">
<path fill="none" stroke="#63b8ff" d="M87.67,-248.54C104.91,-221.86 143.53,-167.72 190,-138.25 192.59,-136.61 195.29,-135.07 198.07,-133.63"/>
<polygon fill="#63b8ff" stroke="#63b8ff" points="199.45,-136.85 207.06,-129.47 196.51,-130.5 199.45,-136.85"/>
</a>
</g>
</g>
<!-- Node18 -->
<g id="Node000018" class="node">
<title>Node18</title>
<g id="a_Node000018"><a xlink:href="class_big_data_stat_meth_1_1hdf5_dataset.html#ab57cadee5e43a496eb32dbf12d603d76" target="_top" xlink:title=" ">
<polygon fill="white" stroke="#666666" points="351.12,-555.5 200.88,-555.5 200.88,-525 351.12,-525 351.12,-555.5"/>
<text xml:space="preserve" text-anchor="start" x="208.88" y="-542" font-family="Helvetica,sans-Serif" font-size="10.00">BigDataStatMeth::hdf5Dataset</text>
<text xml:space="preserve" text-anchor="middle" x="276" y="-530.75" font-family="Helvetica,sans-Serif" font-size="10.00">::openDataset</text>
</a>
</g>
</g>
<!-- Node1&#45;&gt;Node18 -->
<g id="edge18_Node000001_Node000018" class="edge">
<title>Node1&#45;&gt;Node18</title>
<g id="a_edge18_Node000001_Node000018"><a xlink:title=" ">
<path fill="none" stroke="#63b8ff" d="M89.16,-279.88C121.87,-325.71 217.72,-460 257.44,-515.65"/>
<polygon fill="#63b8ff" stroke="#63b8ff" points="254.43,-517.45 263.09,-523.56 260.13,-513.39 254.43,-517.45"/>
</a>
</g>
</g>
<!-- Node21 -->
<g id="Node000021" class="node">
<title>Node21</title>
<g id="a_Node000021"><a xlink:href="class_big_data_stat_meth_1_1hdf5_file.html#a1f873c3d0509dc41d78468904a202375" target="_top" xlink:title="Open an existing HDF5 file.">
<polygon fill="white" stroke="#666666" points="341.75,-79.5 210.25,-79.5 210.25,-49 341.75,-49 341.75,-79.5"/>
<text xml:space="preserve" text-anchor="start" x="218.25" y="-66" font-family="Helvetica,sans-Serif" font-size="10.00">BigDataStatMeth::hdf5File</text>
<text xml:space="preserve" text-anchor="middle" x="276" y="-54.75" font-family="Helvetica,sans-Serif" font-size="10.00">::openFile</text>
</a>
</g>
</g>
<!-- Node1&#45;&gt;Node21 -->
<g id="edge25_Node000001_Node000021" class="edge">
<title>Node1&#45;&gt;Node21</title>
<g id="a_edge25_Node000001_Node000021"><a xlink:title=" ">
<path fill="none" stroke="#63b8ff" d="M83.55,-248.75C96.58,-214.59 132.44,-132.44 190,-89.25 193.11,-86.92 196.43,-84.8 199.9,-82.88"/>
<polygon fill="#63b8ff" stroke="#63b8ff" points="201.15,-86.16 208.61,-78.64 198.09,-79.87 201.15,-86.16"/>
</a>
</g>
</g>
<!-- Node26 -->
<g id="Node000026" class="node">
<title>Node26</title>
<g id="a_Node000026"><a xlink:href="class_big_data_stat_meth_1_1hdf5_dataset.html#a23bea87165b8ef6b944709c5b2cbd0cf" target="_top" xlink:title=" ">
<polygon fill="white" stroke="#666666" points="351.12,-301.5 200.88,-301.5 200.88,-271 351.12,-271 351.12,-301.5"/>
<text xml:space="preserve" text-anchor="start" x="208.88" y="-288" font-family="Helvetica,sans-Serif" font-size="10.00">BigDataStatMeth::hdf5Dataset</text>
<text xml:space="preserve" text-anchor="middle" x="276" y="-276.75" font-family="Helvetica,sans-Serif" font-size="10.00">::readDatasetBlock</text>
</a>
</g>
</g>
<!-- Node1&#45;&gt;Node26 -->
<g id="edge31_Node000001_Node000026" class="edge">
<title>Node1&#45;&gt;Node26</title>
<g id="a_edge31_Node000001_Node000026"><a xlink:title=" ">
<path fill="none" stroke="#63b8ff" d="M154.45,-272.79C165.8,-274.06 177.57,-275.37 189.11,-276.66"/>
<polygon fill="#63b8ff" stroke="#63b8ff" points="188.71,-280.13 199.03,-277.77 189.48,-273.18 188.71,-280.13"/>
</a>
</g>
</g>
<!-- Node27 -->
<g id="Node000027" class="node">
<title>Node27</title>
<g id="a_Node000027"><a xlink:href="class_big_data_stat_meth_1_1hdf5_dataset.html#a248d5e9f269b92ef906ab3f78b3e42d8" target="_top" xlink:title="Remove the dataset.">
<polygon fill="white" stroke="#666666" points="351.12,-350.5 200.88,-350.5 200.88,-320 351.12,-320 351.12,-350.5"/>
<text xml:space="preserve" text-anchor="start" x="208.88" y="-337" font-family="Helvetica,sans-Serif" font-size="10.00">BigDataStatMeth::hdf5Dataset</text>
<text xml:space="preserve" text-anchor="middle" x="276" y="-325.75" font-family="Helvetica,sans-Serif" font-size="10.00">::remove</text>
</a>
</g>
</g>
<!-- Node1&#45;&gt;Node27 -->
<g id="edge33_Node000001_Node000027" class="edge">
<title>Node1&#45;&gt;Node27</title>
<g id="a_edge33_Node000001_Node000027"><a xlink:title=" ">
<path fill="none" stroke="#63b8ff" d="M113.45,-279.91C135.3,-289.29 164.02,-301.12 190,-310.25 195.71,-312.26 201.68,-314.24 207.69,-316.16"/>
<polygon fill="#63b8ff" stroke="#63b8ff" points="206.47,-319.44 217.05,-319.07 208.55,-312.76 206.47,-319.44"/>
</a>
</g>
</g>
<!-- Node4 -->
<g id="Node000004" class="node">
<title>Node4</title>
<g id="a_Node000004"><a xlink:href="class_big_data_stat_meth_1_1hdf5_dataset.html#ac7a7f23b7e22c9b56ca6ad86592f2d52" target="_top" xlink:title="Add an attribute to the dataset.">
<polygon fill="white" stroke="#666666" points="553.88,-445.5 403.62,-445.5 403.62,-415 553.88,-415 553.88,-445.5"/>
<text xml:space="preserve" text-anchor="start" x="411.62" y="-432" font-family="Helvetica,sans-Serif" font-size="10.00">BigDataStatMeth::hdf5Dataset</text>
<text xml:space="preserve" text-anchor="middle" x="478.75" y="-420.75" font-family="Helvetica,sans-Serif" font-size="10.00">::addAttribute</text>
</a>
</g>
</g>
<!-- Node3&#45;&gt;Node4 -->
<g id="edge3_Node000003_Node000004" class="edge">
<title>Node3&#45;&gt;Node4</title>
<g id="a_edge3_Node000003_Node000004"><a xlink:title=" ">
<path fill="none" stroke="#63b8ff" d="M348.63,-401.95C363.67,-405.25 379.65,-408.75 395.06,-412.13"/>
<polygon fill="#63b8ff" stroke="#63b8ff" points="394.16,-415.51 404.67,-414.23 395.66,-408.67 394.16,-415.51"/>
</a>
</g>
</g>
<!-- Node5 -->
<g id="Node000005" class="node">
<title>Node5</title>
<g id="a_Node000005"><a xlink:href="class_big_data_stat_meth_1_1hdf5_file.html#abfb73b5f1eb25ee00489485c8dc56a2a" target="_top" xlink:title="Close file and cleanup resources.">
<polygon fill="white" stroke="#666666" points="544.5,-531.5 413,-531.5 413,-501 544.5,-501 544.5,-531.5"/>
<text xml:space="preserve" text-anchor="start" x="421" y="-518" font-family="Helvetica,sans-Serif" font-size="10.00">BigDataStatMeth::hdf5File</text>
<text xml:space="preserve" text-anchor="middle" x="478.75" y="-506.75" font-family="Helvetica,sans-Serif" font-size="10.00">::close_file</text>
</a>
</g>
</g>
<!-- Node3&#45;&gt;Node5 -->
<g id="edge4_Node000003_Node000005" class="edge">
<title>Node3&#45;&gt;Node5</title>
<g id="a_edge4_Node000003_Node000005"><a xlink:title=" ">
<path fill="none" stroke="#63b8ff" d="M292.1,-401.9C313.78,-423.62 355.78,-462.96 398,-487.25 403.64,-490.5 409.72,-493.49 415.9,-496.21"/>
<polygon fill="#63b8ff" stroke="#63b8ff" points="414.39,-499.37 424.96,-499.97 417.07,-492.91 414.39,-499.37"/>
</a>
</g>
</g>
<!-- Node6 -->
<g id="Node000006" class="node">
<title>Node6</title>
<g id="a_Node000006"><a xlink:href="class_big_data_stat_meth_1_1hdf5_group.html#a27cef4d33e46c72bfd792aa49fa621a3" target="_top" xlink:title="Create multiple nested groups.">
<polygon fill="white" stroke="#666666" points="752.12,-420.5 610.12,-420.5 610.12,-390 752.12,-390 752.12,-420.5"/>
<text xml:space="preserve" text-anchor="start" x="618.12" y="-407" font-family="Helvetica,sans-Serif" font-size="10.00">BigDataStatMeth::hdf5Group</text>
<text xml:space="preserve" text-anchor="middle" x="681.12" y="-395.75" font-family="Helvetica,sans-Serif" font-size="10.00">::create_HDF5_groups</text>
</a>
</g>
</g>
<!-- Node3&#45;&gt;Node6 -->
<g id="edge5_Node000003_Node000006" class="edge">
<title>Node3&#45;&gt;Node6</title>
<g id="a_edge5_Node000003_Node000006"><a xlink:title=" ">
<path fill="none" stroke="#63b8ff" d="M351.41,-389.76C421.48,-393.06 526.22,-398 598.54,-401.4"/>
<polygon fill="#63b8ff" stroke="#63b8ff" points="598.2,-404.89 608.35,-401.87 598.53,-397.9 598.2,-404.89"/>
</a>
</g>
</g>
<!-- Node8 -->
<g id="Node000008" class="node">
<title>Node8</title>
<g id="a_Node000008"><a xlink:href="namespace_big_data_stat_meth.html#a89d901ab4b5e01771f4e3fc7dc84e50e" target="_top" xlink:title="Checks if an HDF5 element (group or dataset) exists.">
<polygon fill="white" stroke="#666666" points="742.75,-534.5 619.5,-534.5 619.5,-504 742.75,-504 742.75,-534.5"/>
<text xml:space="preserve" text-anchor="start" x="627.5" y="-521" font-family="Helvetica,sans-Serif" font-size="10.00">BigDataStatMeth::exists</text>
<text xml:space="preserve" text-anchor="middle" x="681.12" y="-509.75" font-family="Helvetica,sans-Serif" font-size="10.00">_HDF5_element</text>
</a>
</g>
</g>
<!-- Node3&#45;&gt;Node8 -->
<g id="edge7_Node000003_Node000008" class="edge">
<title>Node3&#45;&gt;Node8</title>
<g id="a_edge7_Node000003_Node000008"><a xlink:title=" ">
<path fill="none" stroke="#63b8ff" d="M300.12,-401.9C323.77,-417.25 362.04,-440.34 398,-454.25 402.99,-456.18 526.36,-484.35 608.29,-502.96"/>
<polygon fill="#63b8ff" stroke="#63b8ff" points="607.3,-506.33 617.83,-505.13 608.86,-499.5 607.3,-506.33"/>
</a>
</g>
</g>
<!-- Node9 -->
<g id="Node000009" class="node">
<title>Node9</title>
<g id="a_Node000009"><a xlink:href="class_big_data_stat_meth_1_1hdf5_group.html#a59995412538627e6c80f64b552c286f5" target="_top" xlink:title=" ">
<polygon fill="white" stroke="#666666" points="549.75,-359.5 407.75,-359.5 407.75,-329 549.75,-329 549.75,-359.5"/>
<text xml:space="preserve" text-anchor="start" x="415.75" y="-346" font-family="Helvetica,sans-Serif" font-size="10.00">BigDataStatMeth::hdf5Group</text>
<text xml:space="preserve" text-anchor="middle" x="478.75" y="-334.75" font-family="Helvetica,sans-Serif" font-size="10.00">::getGroupName</text>
</a>
</g>
</g>
<!-- Node3&#45;&gt;Node9 -->
<g id="edge9_Node000003_Node000009" class="edge">
<title>Node3&#45;&gt;Node9</title>
<g id="a_edge9_Node000003_Node000009"><a xlink:title=" ">
<path fill="none" stroke="#63b8ff" d="M351.47,-370.67C366.05,-367.62 381.42,-364.4 396.21,-361.31"/>
<polygon fill="#63b8ff" stroke="#63b8ff" points="396.85,-364.75 405.92,-359.28 395.41,-357.9 396.85,-364.75"/>
</a>
</g>
</g>
<!-- Node10 -->
<g id="Node000010" class="node">
<title>Node10</title>
<g id="a_Node000010"><a xlink:href="namespace_big_data_stat_meth.html#a3d06783149029f1df2853c472d401380" target="_top" xlink:title="Removes multiple elements from an HDF5 file.">
<polygon fill="white" stroke="#666666" points="543.38,-310.5 414.12,-310.5 414.12,-280 543.38,-280 543.38,-310.5"/>
<text xml:space="preserve" text-anchor="start" x="422.12" y="-297" font-family="Helvetica,sans-Serif" font-size="10.00">BigDataStatMeth::remove</text>
<text xml:space="preserve" text-anchor="middle" x="478.75" y="-285.75" font-family="Helvetica,sans-Serif" font-size="10.00">_elements</text>
</a>
</g>
</g>
<!-- Node3&#45;&gt;Node10 -->
<g id="edge10_Node000003_Node000010" class="edge">
<title>Node3&#45;&gt;Node10</title>
<g id="a_edge10_Node000003_Node000010"><a xlink:title=" ">
<path fill="none" stroke="#63b8ff" d="M339.52,-370.55C347.37,-367.39 355.08,-363.65 362,-359.25 381.9,-346.59 378.07,-332.87 398,-320.25 400.56,-318.63 403.22,-317.11 405.97,-315.68"/>
<polygon fill="#63b8ff" stroke="#63b8ff" points="407.23,-318.96 414.81,-311.55 404.27,-312.61 407.23,-318.96"/>
</a>
</g>
</g>
<!-- Node3&#45;&gt;Node11 -->
<g id="edge11_Node000003_Node000011" class="edge">
<title>Node3&#45;&gt;Node11</title>
<g id="a_edge11_Node000003_Node000011"><a xlink:title=" ">
<path fill="none" stroke="#63b8ff" d="M345.45,-370.65C351.46,-367.52 357.11,-363.76 362,-359.25 393.06,-330.6 372.46,-304.91 398,-271.25 409.94,-255.52 426.81,-241.63 441.96,-231"/>
<polygon fill="#63b8ff" stroke="#63b8ff" points="443.53,-234.17 449.86,-225.67 439.61,-228.37 443.53,-234.17"/>
</a>
</g>
</g>
<!-- Node7 -->
<g id="Node000007" class="node">
<title>Node7</title>
<g id="a_Node000007"><a xlink:href="namespace_big_data_stat_meth.html#abcaa4216cd52f03ebac42e4855ef846b" target="_top" xlink:title="Checks if a path exists in an HDF5 file.">
<polygon fill="white" stroke="#666666" points="946.25,-457.88 802.75,-457.88 802.75,-438.62 946.25,-438.62 946.25,-457.88"/>
<text xml:space="preserve" text-anchor="middle" x="874.5" y="-444.38" font-family="Helvetica,sans-Serif" font-size="10.00">BigDataStatMeth::pathExists</text>
</a>
</g>
</g>
<!-- Node6&#45;&gt;Node7 -->
<g id="edge6_Node000006_Node000007" class="edge">
<title>Node6&#45;&gt;Node7</title>
<g id="a_edge6_Node000006_Node000007"><a xlink:title=" ">
<path fill="none" stroke="#63b8ff" d="M752.03,-420.96C773.56,-425.79 796.97,-431.06 817.45,-435.66"/>
<polygon fill="#63b8ff" stroke="#63b8ff" points="816.49,-439.03 827.01,-437.8 818.02,-432.2 816.49,-439.03"/>
</a>
</g>
</g>
<!-- Node8&#45;&gt;Node7 -->
<g id="edge8_Node000008_Node000007" class="edge">
<title>Node8&#45;&gt;Node7</title>
<g id="a_edge8_Node000008_Node000007"><a xlink:title=" ">
<path fill="none" stroke="#63b8ff" d="M724.12,-503.67C757.39,-491.33 803.46,-474.24 835.61,-462.31"/>
<polygon fill="#63b8ff" stroke="#63b8ff" points="836.78,-465.61 844.94,-458.85 834.34,-459.04 836.78,-465.61"/>
</a>
</g>
</g>
<!-- Node12 -->
<g id="Node000012" class="node">
<title>Node12</title>
<g id="a_Node000012"><a xlink:href="class_big_data_stat_meth_1_1hdf5_dataset.html#aba39e56a580d3b1fa7f1619fc72efa3e" target="_top" xlink:title="Close dataset and file.">
<polygon fill="white" stroke="#666666" points="756.25,-270.5 606,-270.5 606,-240 756.25,-240 756.25,-270.5"/>
<text xml:space="preserve" text-anchor="start" x="614" y="-257" font-family="Helvetica,sans-Serif" font-size="10.00">BigDataStatMeth::hdf5Dataset</text>
<text xml:space="preserve" text-anchor="middle" x="681.12" y="-245.75" font-family="Helvetica,sans-Serif" font-size="10.00">::close_dataset_file</text>
</a>
</g>
</g>
<!-- Node11&#45;&gt;Node12 -->
<g id="edge12_Node000011_Node000012" class="edge">
<title>Node11&#45;&gt;Node12</title>
<g id="a_edge12_Node000011_Node000012"><a xlink:title=" ">
<path fill="none" stroke="#63b8ff" d="M548.15,-224.95C565.14,-228.85 583.5,-233.07 600.96,-237.08"/>
<polygon fill="#63b8ff" stroke="#63b8ff" points="599.69,-240.38 610.22,-239.2 601.26,-233.55 599.69,-240.38"/>
</a>
</g>
</g>
<!-- Node13 -->
<g id="Node000013" class="node">
<title>Node13</title>
<g id="a_Node000013"><a xlink:href="class_big_data_stat_meth_1_1hdf5_dataset.html#a94d81b72e92cb0230b4e64f37ea7d2e3" target="_top" xlink:title="Convert DataFrame to range list.">
<polygon fill="white" stroke="#666666" points="766.75,-221.5 595.5,-221.5 595.5,-191 766.75,-191 766.75,-221.5"/>
<text xml:space="preserve" text-anchor="start" x="603.5" y="-208" font-family="Helvetica,sans-Serif" font-size="10.00">BigDataStatMeth::hdf5Dataset</text>
<text xml:space="preserve" text-anchor="middle" x="681.12" y="-196.75" font-family="Helvetica,sans-Serif" font-size="10.00">::convert_DataFrame_to_RangeList</text>
</a>
</g>
</g>
<!-- Node11&#45;&gt;Node13 -->
<g id="edge13_Node000011_Node000013" class="edge">
<title>Node11&#45;&gt;Node13</title>
<g id="a_edge13_Node000011_Node000013"><a xlink:title=" ">
<path fill="none" stroke="#63b8ff" d="M554.36,-208.13C564.06,-207.99 574.11,-207.84 584.1,-207.69"/>
<polygon fill="#63b8ff" stroke="#63b8ff" points="583.87,-211.19 593.82,-207.54 583.76,-204.19 583.87,-211.19"/>
</a>
</g>
</g>
<!-- Node16 -->
<g id="Node000016" class="node">
<title>Node16</title>
<g id="a_Node000016"><a xlink:href="class_big_data_stat_meth_1_1hdf5_file.html#a56acc9ccdba8932313647ca072191f6b" target="_top" xlink:title="Get dataset names from group.">
<polygon fill="white" stroke="#666666" points="559.5,-175.5 398,-175.5 398,-145 559.5,-145 559.5,-175.5"/>
<text xml:space="preserve" text-anchor="start" x="406" y="-162" font-family="Helvetica,sans-Serif" font-size="10.00">BigDataStatMeth::hdf5File</text>
<text xml:space="preserve" text-anchor="middle" x="478.75" y="-150.75" font-family="Helvetica,sans-Serif" font-size="10.00">::get_dataset_names_from_group</text>
</a>
</g>
</g>
<!-- Node15&#45;&gt;Node16 -->
<g id="edge16_Node000015_Node000016" class="edge">
<title>Node15&#45;&gt;Node16</title>
<g id="a_edge16_Node000015_Node000016"><a xlink:title=" ">
<path fill="none" stroke="#63b8ff" d="M342.18,-161.6C356.32,-161.46 371.53,-161.31 386.46,-161.16"/>
<polygon fill="#63b8ff" stroke="#63b8ff" points="386.33,-164.66 396.3,-161.06 386.26,-157.66 386.33,-164.66"/>
</a>
</g>
</g>
<!-- Node18&#45;&gt;Node5 -->
<g id="edge19_Node000018_Node000005" class="edge">
<title>Node18&#45;&gt;Node5</title>
<g id="a_edge19_Node000018_Node000005"><a xlink:title=" ">
<path fill="none" stroke="#63b8ff" d="M351.47,-531.35C367.79,-529.4 385.09,-527.33 401.47,-525.37"/>
<polygon fill="#63b8ff" stroke="#63b8ff" points="401.64,-528.87 411.15,-524.21 400.8,-521.92 401.64,-528.87"/>
</a>
</g>
</g>
<!-- Node18&#45;&gt;Node8 -->
<g id="edge20_Node000018_Node000008" class="edge">
<title>Node18&#45;&gt;Node8</title>
<g id="a_edge20_Node000018_Node000008"><a xlink:title=" ">
<path fill="none" stroke="#63b8ff" d="M341.43,-555.97C348.49,-558.42 355.48,-561.17 362,-564.25 379.62,-572.57 379.41,-583.43 398,-589.25 466.5,-610.7 490.19,-607.9 559.5,-589.25 593.82,-580.01 628.44,-558.36 651.73,-541.56"/>
<polygon fill="#63b8ff" stroke="#63b8ff" points="653.51,-544.6 659.47,-535.84 649.34,-538.97 653.51,-544.6"/>
</a>
</g>
</g>
<!-- Node19 -->
<g id="Node000019" class="node">
<title>Node19</title>
<g id="a_Node000019"><a xlink:href="class_big_data_stat_meth_1_1hdf5_dataset.html#a1ebc27e1f730bc4e611b844dbbb08e34" target="_top" xlink:title="Get an attribute from the dataset.">
<polygon fill="white" stroke="#666666" points="553.88,-580.5 403.62,-580.5 403.62,-550 553.88,-550 553.88,-580.5"/>
<text xml:space="preserve" text-anchor="start" x="411.62" y="-567" font-family="Helvetica,sans-Serif" font-size="10.00">BigDataStatMeth::hdf5Dataset</text>
<text xml:space="preserve" text-anchor="middle" x="478.75" y="-555.75" font-family="Helvetica,sans-Serif" font-size="10.00">::getAttribute</text>
</a>
</g>
</g>
<!-- Node18&#45;&gt;Node19 -->
<g id="edge21_Node000018_Node000019" class="edge">
<title>Node18&#45;&gt;Node19</title>
<g id="a_edge21_Node000018_Node000019"><a xlink:title=" ">
<path fill="none" stroke="#63b8ff" d="M351.47,-549.52C364.72,-551.17 378.61,-552.9 392.15,-554.59"/>
<polygon fill="#63b8ff" stroke="#63b8ff" points="391.55,-558.04 401.9,-555.8 392.41,-551.1 391.55,-558.04"/>
</a>
</g>
</g>
<!-- Node20 -->
<g id="Node000020" class="node">
<title>Node20</title>
<g id="a_Node000020"><a xlink:href="class_big_data_stat_meth_1_1hdf5_dataset.html#a945dd1d6f3db102a962d239045792f61" target="_top" xlink:title="Get dimensions of existing dataset.">
<polygon fill="white" stroke="#666666" points="553.88,-666.5 403.62,-666.5 403.62,-636 553.88,-636 553.88,-666.5"/>
<text xml:space="preserve" text-anchor="start" x="411.62" y="-653" font-family="Helvetica,sans-Serif" font-size="10.00">BigDataStatMeth::hdf5Dataset</text>
<text xml:space="preserve" text-anchor="middle" x="478.75" y="-641.75" font-family="Helvetica,sans-Serif" font-size="10.00">::getDimensExistingDataset</text>
</a>
</g>
</g>
<!-- Node18&#45;&gt;Node20 -->
<g id="edge24_Node000018_Node000020" class="edge">
<title>Node18&#45;&gt;Node20</title>
<g id="a_edge24_Node000018_Node000020"><a xlink:title=" ">
<path fill="none" stroke="#63b8ff" d="M348.08,-555.81C353.01,-558.23 357.71,-561.02 362,-564.25 386.24,-582.5 374.45,-603.12 398,-622.25 401.67,-625.23 405.67,-627.91 409.86,-630.34"/>
<polygon fill="#63b8ff" stroke="#63b8ff" points="408.08,-633.36 418.57,-634.83 411.29,-627.13 408.08,-633.36"/>
</a>
</g>
</g>
<!-- Node19&#45;&gt;Node8 -->
<g id="edge23_Node000019_Node000008" class="edge">
<title>Node19&#45;&gt;Node8</title>
<g id="a_edge23_Node000019_Node000008"><a xlink:title=" ">
<path fill="none" stroke="#63b8ff" d="M548.15,-549.55C567.48,-545.11 588.57,-540.27 608.1,-535.78"/>
<polygon fill="#63b8ff" stroke="#63b8ff" points="608.65,-539.25 617.61,-533.6 607.08,-532.43 608.65,-539.25"/>
</a>
</g>
</g>
<!-- Node19&#45;&gt;Node12 -->
<g id="edge22_Node000019_Node000012" class="edge">
<title>Node19&#45;&gt;Node12</title>
<g id="a_edge22_Node000019_Node000012"><a xlink:title=" ">
<path fill="none" stroke="#63b8ff" d="M548.11,-549.64C552.29,-546.98 556.16,-543.88 559.5,-540.25 608.61,-486.98 566.82,-447.79 595.5,-381.25 611.99,-343.01 640.36,-303.97 659.67,-279.69"/>
<polygon fill="#63b8ff" stroke="#63b8ff" points="662.31,-281.99 665.88,-272.01 656.87,-277.59 662.31,-281.99"/>
</a>
</g>
</g>
<!-- Node22 -->
<g id="Node000022" class="node">
<title>Node22</title>
<g id="a_Node000022"><a xlink:href="class_big_data_stat_meth_1_1hdf5_file.html#adb9b0e6f3099361c6085fdcd7e690a09" target="_top" xlink:title="Check if file is corrupt, open, accessible or has_valid_structure.">
<polygon fill="white" stroke="#666666" points="544.5,-122.5 413,-122.5 413,-92 544.5,-92 544.5,-122.5"/>
<text xml:space="preserve" text-anchor="start" x="421" y="-109" font-family="Helvetica,sans-Serif" font-size="10.00">BigDataStatMeth::hdf5File</text>
<text xml:space="preserve" text-anchor="middle" x="478.75" y="-97.75" font-family="Helvetica,sans-Serif" font-size="10.00">::checkHDF5File</text>
</a>
</g>
</g>
<!-- Node21&#45;&gt;Node22 -->
<g id="edge26_Node000021_Node000022" class="edge">
<title>Node21&#45;&gt;Node22</title>
<g id="a_edge26_Node000021_Node000022"><a xlink:title=" ">
<path fill="none" stroke="#63b8ff" d="M342.18,-78.21C361.12,-82.27 381.98,-86.74 401.53,-90.92"/>
<polygon fill="#63b8ff" stroke="#63b8ff" points="400.56,-94.3 411.08,-92.97 402.03,-87.45 400.56,-94.3"/>
</a>
</g>
</g>
<!-- Node23 -->
<g id="Node000023" class="node">
<title>Node23</title>
<g id="a_Node000023"><a xlink:href="class_big_data_stat_meth_1_1hdf5_file.html#ae8464c5d367bcd1085206e74b8b55a9e" target="_top" xlink:title=" ">
<polygon fill="white" stroke="#666666" points="749.5,-79.5 612.75,-79.5 612.75,-49 749.5,-49 749.5,-79.5"/>
<text xml:space="preserve" text-anchor="start" x="620.75" y="-66" font-family="Helvetica,sans-Serif" font-size="10.00">BigDataStatMeth::hdf5File</text>
<text xml:space="preserve" text-anchor="middle" x="681.12" y="-54.75" font-family="Helvetica,sans-Serif" font-size="10.00">::enable_hdf5_locking_once</text>
</a>
</g>
</g>
<!-- Node21&#45;&gt;Node23 -->
<g id="edge27_Node000021_Node000023" class="edge">
<title>Node21&#45;&gt;Node23</title>
<g id="a_edge27_Node000021_Node000023"><a xlink:title=" ">
<path fill="none" stroke="#63b8ff" d="M342.22,-64.25C412.8,-64.25 525.37,-64.25 600.97,-64.25"/>
<polygon fill="#63b8ff" stroke="#63b8ff" points="600.8,-67.75 610.8,-64.25 600.8,-60.75 600.8,-67.75"/>
</a>
</g>
</g>
<!-- Node24 -->
<g id="Node000024" class="node">
<title>Node24</title>
<g id="a_Node000024"><a xlink:href="class_big_data_stat_meth_1_1hdf5_file.html#a724347e245a0a7e096c462a531d71719" target="_top" xlink:title="Return true if existing HDF5 file appears locked/busy.">
<polygon fill="white" stroke="#666666" points="544.5,-36.5 413,-36.5 413,-6 544.5,-6 544.5,-36.5"/>
<text xml:space="preserve" text-anchor="start" x="421" y="-23" font-family="Helvetica,sans-Serif" font-size="10.00">BigDataStatMeth::hdf5File</text>
<text xml:space="preserve" text-anchor="middle" x="478.75" y="-11.75" font-family="Helvetica,sans-Serif" font-size="10.00">::lockedByOtherProcess</text>
</a>
</g>
</g>
<!-- Node21&#45;&gt;Node24 -->
<g id="edge28_Node000021_Node000024" class="edge">
<title>Node21&#45;&gt;Node24</title>
<g id="a_edge28_Node000021_Node000024"><a xlink:title=" ">
<path fill="none" stroke="#63b8ff" d="M342.18,-50.29C361.12,-46.23 381.98,-41.76 401.53,-37.58"/>
<polygon fill="#63b8ff" stroke="#63b8ff" points="402.03,-41.05 411.08,-35.53 400.56,-34.2 402.03,-41.05"/>
</a>
</g>
</g>
<!-- Node24&#45;&gt;Node23 -->
<g id="edge29_Node000024_Node000023" class="edge">
<title>Node24&#45;&gt;Node23</title>
<g id="a_edge29_Node000024_Node000023"><a xlink:title=" ">
<path fill="none" stroke="#63b8ff" d="M544.81,-35.21C562.78,-39.07 582.47,-43.29 601.14,-47.3"/>
<polygon fill="#63b8ff" stroke="#63b8ff" points="600.31,-50.7 610.82,-49.38 601.77,-43.86 600.31,-50.7"/>
</a>
</g>
</g>
<!-- Node25 -->
<g id="Node000025" class="node">
<title>Node25</title>
<g id="a_Node000025"><a xlink:href="class_big_data_stat_meth_1_1hdf5_file.html#a859f404005f3f9b854bce3f122111eb8" target="_top" xlink:title="Check if file exists using file stream.">
<polygon fill="white" stroke="#666666" points="746.88,-30.5 615.38,-30.5 615.38,0 746.88,0 746.88,-30.5"/>
<text xml:space="preserve" text-anchor="start" x="623.38" y="-17" font-family="Helvetica,sans-Serif" font-size="10.00">BigDataStatMeth::hdf5File</text>
<text xml:space="preserve" text-anchor="middle" x="681.12" y="-5.75" font-family="Helvetica,sans-Serif" font-size="10.00">::ResFileExist_filestream</text>
</a>
</g>
</g>
<!-- Node24&#45;&gt;Node25 -->
<g id="edge30_Node000024_Node000025" class="edge">
<title>Node24&#45;&gt;Node25</title>
<g id="a_edge30_Node000024_Node000025"><a xlink:title=" ">
<path fill="none" stroke="#63b8ff" d="M544.81,-19.3C563.62,-18.74 584.34,-18.12 603.78,-17.54"/>
<polygon fill="#63b8ff" stroke="#63b8ff" points="603.65,-21.04 613.54,-17.24 603.44,-14.04 603.65,-21.04"/>
</a>
</g>
</g>
<!-- Node26&#45;&gt;Node12 -->
<g id="edge32_Node000026_Node000012" class="edge">
<title>Node26&#45;&gt;Node12</title>
<g id="a_edge32_Node000026_Node000012"><a xlink:title=" ">
<path fill="none" stroke="#63b8ff" d="M351.47,-276.23C366.83,-274.38 382.93,-272.61 398,-271.25 463.82,-265.31 538.5,-261.19 594.48,-258.62"/>
<polygon fill="#63b8ff" stroke="#63b8ff" points="594.43,-262.13 604.26,-258.18 594.12,-255.13 594.43,-262.13"/>
</a>
</g>
</g>
<!-- Node27&#45;&gt;Node9 -->
<g id="edge34_Node000027_Node000009" class="edge">
<title>Node27&#45;&gt;Node9</title>
<g id="a_edge34_Node000027_Node000009"><a xlink:title=" ">
<path fill="none" stroke="#63b8ff" d="M351.47,-338.59C366.05,-339.24 381.42,-339.93 396.21,-340.59"/>
<polygon fill="#63b8ff" stroke="#63b8ff" points="395.74,-344.08 405.89,-341.03 396.05,-337.08 395.74,-344.08"/>
</a>
</g>
</g>
<!-- Node27&#45;&gt;Node10 -->
<g id="edge35_Node000027_Node000010" class="edge">
<title>Node27&#45;&gt;Node10</title>
<g id="a_edge35_Node000027_Node000010"><a xlink:title=" ">
<path fill="none" stroke="#63b8ff" d="M351.47,-320.41C368.22,-317.07 386,-313.53 402.77,-310.19"/>
<polygon fill="#63b8ff" stroke="#63b8ff" points="403.02,-313.71 412.14,-308.32 401.65,-306.84 403.02,-313.71"/>
</a>
</g>
</g>
</g>
</svg>

<g id="navigator" transform="translate(0 0)" fill="#404254">
  <rect fill="#f2f5e9" fill-opacity="0.5" stroke="#606060" stroke-width=".5" x="0" y="0" width="60" height="60"/>
  <use id="zoomplus" xlink:href="#zoomPlus" x="17" y="9" onmousedown="handleZoom(evt,'in')"/>
  <use id="zoomminus" xlink:href="#zoomMin" x="42" y="9" onmousedown="handleZoom(evt,'out')"/>
  <use id="reset" xlink:href="#resetDef" x="30" y="36" onmousedown="handleReset()"/>
   <use id="arrowup" xlink:href="#arrowUp" x="0" y="0" onmousedown="handlePan(0,-1)"/>
  <use id="arrowright" xlink:href="#arrowRight" x="0" y="0" onmousedown="handlePan(1,0)"/>
  <use id="arrowdown" xlink:href="#arrowDown" x="0" y="0" onmousedown="handlePan(0,1)"/>
  <use id="arrowleft" xlink:href="#arrowLeft" x="0" y="0" onmousedown="handlePan(-1,0)"/>
</g>
<svg viewBox="0 0 15 15" width="100%" height="30px" preserveAspectRatio="xMaxYMin meet">
 <g id="arrow_out" transform="scale(0.3 0.3)">
  <a xlink:href="namespace_big_data_stat_meth_af0ce572c8d3c3c4abf9092be4aef20e3_cgraph_org.svg" target="_base">
   <rect id="button" ry="5" rx="5" y="6" x="6" height="38" width="38"
        fill="#f2f5e9" fill-opacity="0.5" stroke="#606060" stroke-width="1.0"/>
   <path id="arrow"
     d="M 11.500037,31.436501 C 11.940474,20.09759 22.043105,11.32322 32.158766,21.979434 L 37.068811,17.246167 C 37.068811,17.246167 37.088388,32 37.088388,32 L 22.160133,31.978069 C 22.160133,31.978069 26.997745,27.140456 26.997745,27.140456 C 18.528582,18.264221 13.291696,25.230495 11.500037,31.436501 z"
     style="fill:#404040;"/>
  </a>
 </g>
</svg>

<style type='text/css'>
<![CDATA[
[data-mouse-over-selected='false'] { opacity: 0.7; }
[data-mouse-over-selected='true']  { opacity: 1.0; }
]]>
</style>
<script type="application/ecmascript"><![CDATA[
document.addEventListener('DOMContentLoaded', (event) => {
  highlightEdges();
  highlightAdjacentNodes();
});
]]></script>
</svg>
