<?xml version="1.0" encoding="UTF-8" standalone="no"?>
<!DOCTYPE svg PUBLIC "-//W3C//DTD SVG 1.1//EN"
 "http://www.w3.org/Graphics/SVG/1.1/DTD/svg11.dtd">
<!-- Generated by graphviz version 14.0.0 (20250921.2048)
 -->
<!-- Title: BigDataStatMeth::hdf5_matrixVector_calculus Pages: 1 -->
<!--zoomable 950 -->

<svg id="main" version="1.1" xmlns="http://www.w3.org/2000/svg" xmlns:xlink="http://www.w3.org/1999/xlink" xml:space="preserve" onload="init(evt)">

<style type="text/css"><![CDATA[
.node, .edge {opacity: 0.7;}
.node.selected, .edge.selected {opacity: 1;}
.edge:hover path { stroke: red; }
.edge:hover polygon { stroke: red; fill: red; }
]]></style>

<defs>
  <circle id="rim" cx="0" cy="0" r="7"/>
  <circle id="rim2" cx="0" cy="0" r="3.5"/>
  <g id="zoomPlus">
    <use xlink:href="#rim" fill="#404040"><set attributeName="fill" to="#808080" begin="zoomplus.mouseover" end="zoomplus.mouseout"/></use>
    <path d="M-4,0h8M0,-4v8" fill="none" stroke="white" stroke-width="1.5" pointer-events="none"/>
  </g>
  <g id="zoomMin">
    <use xlink:href="#rim" fill="#404040"><set attributeName="fill" to="#808080" begin="zoomminus.mouseover" end="zoomminus.mouseout"/></use>
    <path d="M-4,0h8" fill="none" stroke="white" stroke-width="1.5" pointer-events="none"/>
  </g>
  <g id="arrowUp" transform="translate(30 24)">
    <use xlink:href="#rim"/>
    <path pointer-events="none" fill="none" stroke="white" stroke-width="1.5" d="M0,-3.0v7 M-2.5,-0.5L0,-3.0L2.5,-0.5"/>
  </g>
  <g id="arrowRight" transform="rotate(90) translate(36 -43)">
    <use xlink:href="#rim"/>
    <path pointer-events="none" fill="none" stroke="white" stroke-width="1.5" d="M0,-3.0v7 M-2.5,-0.5L0,-3.0L2.5,-0.5"/>
  </g>
  <g id="arrowDown" transform="rotate(180) translate(-30 -48)">
    <use xlink:href="#rim"/>
    <path pointer-events="none" fill="none" stroke="white" stroke-width="1.5" d="M0,-3.0v7 M-2.5,-0.5L0,-3.0L2.5,-0.5"/>
  </g>
  <g id="arrowLeft" transform="rotate(270) translate(-36 17)">
    <use xlink:href="#rim"/>
    <path pointer-events="none" fill="none" stroke="white" stroke-width="1.5" d="M0,-3.0v7 M-2.5,-0.5L0,-3.0L2.5,-0.5"/>
  </g>
  <g id="resetDef">
    <use xlink:href="#rim2" fill="#404040"><set attributeName="fill" to="#808080" begin="reset.mouseover" end="reset.mouseout"/></use>
  </g>
</defs>
<script type="application/ecmascript">
var viewWidth = 725;
var viewHeight = 950;
var sectionId = 'dynsection-58';
</script>
<script type="application/ecmascript" xlink:href="../../../../assets/svg.min.js"/>
<svg id="graph" class="graph">
<g id="viewport">
<title>BigDataStatMeth::hdf5_matrixVector_calculus</title>
<!-- Node1 -->
<g id="Node000001" class="node">
<title>Node1</title>
<g id="a_Node000001"><a xlink:title="Vector&#45;matrix operations for HDF5 matrices.">
<polygon fill="#999999" stroke="#666666" points="118,-397.5 0,-397.5 0,-367 118,-367 118,-397.5"/>
<text xml:space="preserve" text-anchor="start" x="8" y="-384" font-family="Helvetica,sans-Serif" font-size="10.00">BigDataStatMeth::hdf5</text>
<text xml:space="preserve" text-anchor="middle" x="59" y="-372.75" font-family="Helvetica,sans-Serif" font-size="10.00">_matrixVector_calculus</text>
</a>
</g>
</g>
<!-- Node2 -->
<g id="Node000002" class="node">
<title>Node2</title>
<g id="a_Node000002"><a xlink:href="namespace_big_data_stat_meth.html#a304b42b14ec87d4acc6f34ff0231529d" target="_top" xlink:title="Safely close any number of dataset handles (C++17).">
<polygon fill="white" stroke="#666666" points="322.25,-782.88 155.5,-782.88 155.5,-763.62 322.25,-763.62 322.25,-782.88"/>
<text xml:space="preserve" text-anchor="middle" x="238.88" y="-769.38" font-family="Helvetica,sans-Serif" font-size="10.00">BigDataStatMeth::checkClose_file</text>
</a>
</g>
</g>
<!-- Node1&#45;&gt;Node2 -->
<g id="edge1_Node000001_Node000002" class="edge">
<title>Node1&#45;&gt;Node2</title>
<g id="a_edge1_Node000001_Node000002"><a xlink:title=" ">
<path fill="none" stroke="#63b8ff" d="M61.78,-397.89C69.4,-461.87 101.19,-702.73 154,-754.25 154.91,-755.14 155.85,-755.98 156.82,-756.8"/>
<polygon fill="#63b8ff" stroke="#63b8ff" points="154.74,-759.62 164.99,-762.32 158.66,-753.82 154.74,-759.62"/>
</a>
</g>
</g>
<!-- Node3 -->
<g id="Node000003" class="node">
<title>Node3</title>
<g id="a_Node000003"><a xlink:href="class_big_data_stat_meth_1_1hdf5_dataset.html#ab19bac9a31efe4a733294c1c23ff5ef7" target="_top" xlink:title="Create a new dataset with optional compression.">
<polygon fill="white" stroke="#666666" points="314,-745.5 163.75,-745.5 163.75,-715 314,-715 314,-745.5"/>
<text xml:space="preserve" text-anchor="start" x="171.75" y="-732" font-family="Helvetica,sans-Serif" font-size="10.00">BigDataStatMeth::hdf5Dataset</text>
<text xml:space="preserve" text-anchor="middle" x="238.88" y="-720.75" font-family="Helvetica,sans-Serif" font-size="10.00">::createDataset</text>
</a>
</g>
</g>
<!-- Node1&#45;&gt;Node3 -->
<g id="edge2_Node000001_Node000003" class="edge">
<title>Node1&#45;&gt;Node3</title>
<g id="a_edge2_Node000001_Node000003"><a xlink:title=" ">
<path fill="none" stroke="#63b8ff" d="M62.85,-397.82C71.24,-440.73 98.78,-563.23 154,-649.25 168.43,-671.74 190.28,-692.57 208.06,-707.47"/>
<polygon fill="#63b8ff" stroke="#63b8ff" points="205.79,-710.14 215.75,-713.75 210.22,-704.71 205.79,-710.14"/>
</a>
</g>
</g>
<!-- Node14 -->
<g id="Node000014" class="node">
<title>Node14</title>
<g id="a_Node000014"><a xlink:href="class_big_data_stat_meth_1_1hdf5_dataset.html#aa743c8c46d7ff3bb2f894145dd07fd8a" target="_top" xlink:title="Get number of columns in internal format.">
<polygon fill="white" stroke="#666666" points="314,-569.5 163.75,-569.5 163.75,-539 314,-539 314,-569.5"/>
<text xml:space="preserve" text-anchor="start" x="171.75" y="-556" font-family="Helvetica,sans-Serif" font-size="10.00">BigDataStatMeth::hdf5Dataset</text>
<text xml:space="preserve" text-anchor="middle" x="238.88" y="-544.75" font-family="Helvetica,sans-Serif" font-size="10.00">::ncols</text>
</a>
</g>
</g>
<!-- Node1&#45;&gt;Node14 -->
<g id="edge14_Node000001_Node000014" class="edge">
<title>Node1&#45;&gt;Node14</title>
<g id="a_edge14_Node000001_Node000014"><a xlink:title=" ">
<path fill="none" stroke="#63b8ff" d="M65.61,-397.72C77.28,-427.7 107.07,-493.88 154,-529.25 155.77,-530.59 157.62,-531.85 159.52,-533.05"/>
<polygon fill="#63b8ff" stroke="#63b8ff" points="157.67,-536.03 168.12,-537.77 161.04,-529.89 157.67,-536.03"/>
</a>
</g>
</g>
<!-- Node15 -->
<g id="Node000015" class="node">
<title>Node15</title>
<g id="a_Node000015"><a xlink:href="class_big_data_stat_meth_1_1hdf5_dataset.html#a6cbce676967d0cc4b50e2cc5282c322b" target="_top" xlink:title="Get number of rows in internal format.">
<polygon fill="white" stroke="#666666" points="314,-520.5 163.75,-520.5 163.75,-490 314,-490 314,-520.5"/>
<text xml:space="preserve" text-anchor="start" x="171.75" y="-507" font-family="Helvetica,sans-Serif" font-size="10.00">BigDataStatMeth::hdf5Dataset</text>
<text xml:space="preserve" text-anchor="middle" x="238.88" y="-495.75" font-family="Helvetica,sans-Serif" font-size="10.00">::nrows</text>
</a>
</g>
</g>
<!-- Node1&#45;&gt;Node15 -->
<g id="edge15_Node000001_Node000015" class="edge">
<title>Node1&#45;&gt;Node15</title>
<g id="a_edge15_Node000001_Node000015"><a xlink:title=" ">
<path fill="none" stroke="#63b8ff" d="M70.89,-397.91C86.73,-419.55 118.18,-458.39 154,-480.25 156.74,-481.92 159.59,-483.48 162.53,-484.95"/>
<polygon fill="#63b8ff" stroke="#63b8ff" points="160.82,-488.02 171.38,-488.93 163.7,-481.64 160.82,-488.02"/>
</a>
</g>
</g>
<!-- Node16 -->
<g id="Node000016" class="node">
<title>Node16</title>
<g id="a_Node000016"><a xlink:href="namespace_big_data_stat_meth.html#a3fe744554430007ecc64a2ff82981a1e" target="_top" xlink:title="Matrix&#45;vector division by columns.">
<polygon fill="white" stroke="#666666" points="310.25,-471.5 167.5,-471.5 167.5,-441 310.25,-441 310.25,-471.5"/>
<text xml:space="preserve" text-anchor="start" x="175.5" y="-458" font-family="Helvetica,sans-Serif" font-size="10.00">BigDataStatMeth::Rcpp</text>
<text xml:space="preserve" text-anchor="middle" x="238.88" y="-446.75" font-family="Helvetica,sans-Serif" font-size="10.00">_matrixVectorDivision_byCol</text>
</a>
</g>
</g>
<!-- Node1&#45;&gt;Node16 -->
<g id="edge16_Node000001_Node000016" class="edge">
<title>Node1&#45;&gt;Node16</title>
<g id="a_edge16_Node000001_Node000016"><a xlink:title=" ">
<path fill="none" stroke="#63b8ff" d="M86.5,-397.8C104.99,-408.22 130.46,-421.71 154,-431.25 158.93,-433.25 164.09,-435.17 169.31,-437"/>
<polygon fill="#63b8ff" stroke="#63b8ff" points="168.04,-440.26 178.64,-440.12 170.27,-433.63 168.04,-440.26"/>
</a>
</g>
</g>
<!-- Node17 -->
<g id="Node000017" class="node">
<title>Node17</title>
<g id="a_Node000017"><a xlink:href="namespace_big_data_stat_meth.html#ad9988857d0a76311eab3417cb0ddf847" target="_top" xlink:title="Matrix&#45;vector division by rows.">
<polygon fill="white" stroke="#666666" points="312.88,-422.5 164.88,-422.5 164.88,-392 312.88,-392 312.88,-422.5"/>
<text xml:space="preserve" text-anchor="start" x="172.88" y="-409" font-family="Helvetica,sans-Serif" font-size="10.00">BigDataStatMeth::Rcpp</text>
<text xml:space="preserve" text-anchor="middle" x="238.88" y="-397.75" font-family="Helvetica,sans-Serif" font-size="10.00">_matrixVectorDivision_byRow</text>
</a>
</g>
</g>
<!-- Node1&#45;&gt;Node17 -->
<g id="edge17_Node000001_Node000017" class="edge">
<title>Node1&#45;&gt;Node17</title>
<g id="a_edge17_Node000001_Node000017"><a xlink:title=" ">
<path fill="none" stroke="#63b8ff" d="M118.24,-390.44C129.45,-392.01 141.4,-393.69 153.25,-395.36"/>
<polygon fill="#63b8ff" stroke="#63b8ff" points="152.67,-398.81 163.06,-396.73 153.64,-391.88 152.67,-398.81"/>
</a>
</g>
</g>
<!-- Node18 -->
<g id="Node000018" class="node">
<title>Node18</title>
<g id="a_Node000018"><a xlink:href="namespace_big_data_stat_meth.html#ac767afbcae7ea9b90fe7ffa805badf06" target="_top" xlink:title="Matrix&#45;vector multiplication by columns.">
<polygon fill="white" stroke="#666666" points="321.12,-373.5 156.62,-373.5 156.62,-343 321.12,-343 321.12,-373.5"/>
<text xml:space="preserve" text-anchor="start" x="164.62" y="-360" font-family="Helvetica,sans-Serif" font-size="10.00">BigDataStatMeth::Rcpp</text>
<text xml:space="preserve" text-anchor="middle" x="238.88" y="-348.75" font-family="Helvetica,sans-Serif" font-size="10.00">_matrixVectorMultiplication_byCol</text>
</a>
</g>
</g>
<!-- Node1&#45;&gt;Node18 -->
<g id="edge18_Node000001_Node000018" class="edge">
<title>Node1&#45;&gt;Node18</title>
<g id="a_edge18_Node000001_Node000018"><a xlink:title=" ">
<path fill="none" stroke="#63b8ff" d="M118.24,-374.39C126.89,-373.23 135.97,-372 145.11,-370.77"/>
<polygon fill="#63b8ff" stroke="#63b8ff" points="145.32,-374.27 154.76,-369.46 144.38,-367.33 145.32,-374.27"/>
</a>
</g>
</g>
<!-- Node19 -->
<g id="Node000019" class="node">
<title>Node19</title>
<g id="a_Node000019"><a xlink:href="namespace_big_data_stat_meth.html#a08552ace2edb3a4129cad9f77d1a8bb1" target="_top" xlink:title="Matrix&#45;vector multiplication by rows.">
<polygon fill="white" stroke="#666666" points="323.75,-324.5 154,-324.5 154,-294 323.75,-294 323.75,-324.5"/>
<text xml:space="preserve" text-anchor="start" x="162" y="-311" font-family="Helvetica,sans-Serif" font-size="10.00">BigDataStatMeth::Rcpp</text>
<text xml:space="preserve" text-anchor="middle" x="238.88" y="-299.75" font-family="Helvetica,sans-Serif" font-size="10.00">_matrixVectorMultiplication_byRow</text>
</a>
</g>
</g>
<!-- Node1&#45;&gt;Node19 -->
<g id="edge19_Node000001_Node000019" class="edge">
<title>Node1&#45;&gt;Node19</title>
<g id="a_edge19_Node000001_Node000019"><a xlink:title=" ">
<path fill="none" stroke="#63b8ff" d="M87.35,-366.6C105.78,-356.48 130.87,-343.51 154,-334.25 158.94,-332.27 164.1,-330.37 169.33,-328.55"/>
<polygon fill="#63b8ff" stroke="#63b8ff" points="170.28,-331.92 178.66,-325.44 168.07,-325.28 170.28,-331.92"/>
</a>
</g>
</g>
<!-- Node20 -->
<g id="Node000020" class="node">
<title>Node20</title>
<g id="a_Node000020"><a xlink:href="namespace_big_data_stat_meth.html#ae25c7bc45e1fdf9ff7c7f472f98157f4" target="_top" xlink:title="Matrix&#45;vector power by rows.">
<polygon fill="white" stroke="#666666" points="305,-275.5 172.75,-275.5 172.75,-245 305,-245 305,-275.5"/>
<text xml:space="preserve" text-anchor="start" x="180.75" y="-262" font-family="Helvetica,sans-Serif" font-size="10.00">BigDataStatMeth::Rcpp</text>
<text xml:space="preserve" text-anchor="middle" x="238.88" y="-250.75" font-family="Helvetica,sans-Serif" font-size="10.00">_matrixVectorPow_byRow</text>
</a>
</g>
</g>
<!-- Node1&#45;&gt;Node20 -->
<g id="edge20_Node000001_Node000020" class="edge">
<title>Node1&#45;&gt;Node20</title>
<g id="a_edge20_Node000001_Node000020"><a xlink:title=" ">
<path fill="none" stroke="#63b8ff" d="M70.92,-366.75C86.81,-345.34 118.31,-306.9 154,-285.25 156.74,-283.59 159.6,-282.03 162.54,-280.57"/>
<polygon fill="#63b8ff" stroke="#63b8ff" points="163.7,-283.88 171.4,-276.59 160.84,-277.49 163.7,-283.88"/>
</a>
</g>
</g>
<!-- Node21 -->
<g id="Node000021" class="node">
<title>Node21</title>
<g id="a_Node000021"><a xlink:href="namespace_big_data_stat_meth.html#a217a35808432b0e15b63fe4aaca064cd" target="_top" xlink:title="Matrix&#45;vector power by columns.">
<polygon fill="white" stroke="#666666" points="306.5,-226.5 171.25,-226.5 171.25,-196 306.5,-196 306.5,-226.5"/>
<text xml:space="preserve" text-anchor="start" x="179.25" y="-213" font-family="Helvetica,sans-Serif" font-size="10.00">BigDataStatMeth::Rcpp</text>
<text xml:space="preserve" text-anchor="middle" x="238.88" y="-201.75" font-family="Helvetica,sans-Serif" font-size="10.00">_matrixVectorPower_byCol</text>
</a>
</g>
</g>
<!-- Node1&#45;&gt;Node21 -->
<g id="edge21_Node000001_Node000021" class="edge">
<title>Node1&#45;&gt;Node21</title>
<g id="a_edge21_Node000001_Node000021"><a xlink:title=" ">
<path fill="none" stroke="#63b8ff" d="M65.64,-366.89C77.37,-337.11 107.24,-271.37 154,-236.25 156.29,-234.53 158.69,-232.93 161.18,-231.44"/>
<polygon fill="#63b8ff" stroke="#63b8ff" points="162.58,-234.66 169.81,-226.92 159.33,-228.46 162.58,-234.66"/>
</a>
</g>
</g>
<!-- Node22 -->
<g id="Node000022" class="node">
<title>Node22</title>
<g id="a_Node000022"><a xlink:href="namespace_big_data_stat_meth.html#ad5e2b4467fc95783ba9993258c138c5b" target="_top" xlink:title="Matrix&#45;vector subtraction by columns.">
<polygon fill="white" stroke="#666666" points="313.62,-177.5 164.12,-177.5 164.12,-147 313.62,-147 313.62,-177.5"/>
<text xml:space="preserve" text-anchor="start" x="172.12" y="-164" font-family="Helvetica,sans-Serif" font-size="10.00">BigDataStatMeth::Rcpp</text>
<text xml:space="preserve" text-anchor="middle" x="238.88" y="-152.75" font-family="Helvetica,sans-Serif" font-size="10.00">_matrixVectorSubstract_byCol</text>
</a>
</g>
</g>
<!-- Node1&#45;&gt;Node22 -->
<g id="edge22_Node000001_Node000022" class="edge">
<title>Node1&#45;&gt;Node22</title>
<g id="a_edge22_Node000001_Node000022"><a xlink:title=" ">
<path fill="none" stroke="#63b8ff" d="M63.01,-366.73C70.97,-329.89 96.07,-236.61 154,-187.25 155.47,-186 157,-184.81 158.59,-183.68"/>
<polygon fill="#63b8ff" stroke="#63b8ff" points="160.15,-186.82 166.85,-178.62 156.5,-180.85 160.15,-186.82"/>
</a>
</g>
</g>
<!-- Node23 -->
<g id="Node000023" class="node">
<title>Node23</title>
<g id="a_Node000023"><a xlink:href="namespace_big_data_stat_meth.html#a7aff8e3455f1e41dad53136d5c42e362" target="_top" xlink:title="Matrix&#45;vector subtraction by rows.">
<polygon fill="white" stroke="#666666" points="316.25,-128.5 161.5,-128.5 161.5,-98 316.25,-98 316.25,-128.5"/>
<text xml:space="preserve" text-anchor="start" x="169.5" y="-115" font-family="Helvetica,sans-Serif" font-size="10.00">BigDataStatMeth::Rcpp</text>
<text xml:space="preserve" text-anchor="middle" x="238.88" y="-103.75" font-family="Helvetica,sans-Serif" font-size="10.00">_matrixVectorSubstract_byRow</text>
</a>
</g>
</g>
<!-- Node1&#45;&gt;Node23 -->
<g id="edge23_Node000001_Node000023" class="edge">
<title>Node1&#45;&gt;Node23</title>
<g id="a_edge23_Node000001_Node000023"><a xlink:title=" ">
<path fill="none" stroke="#63b8ff" d="M61.33,-366.8C65.86,-323.95 84.51,-202.52 154,-138.25 155.22,-137.12 156.49,-136.04 157.8,-135.01"/>
<polygon fill="#63b8ff" stroke="#63b8ff" points="159.35,-138.19 165.74,-129.74 155.48,-132.36 159.35,-138.19"/>
</a>
</g>
</g>
<!-- Node24 -->
<g id="Node000024" class="node">
<title>Node24</title>
<g id="a_Node000024"><a xlink:href="namespace_big_data_stat_meth.html#a3ee1f8f71bc48460ebce4e8850dc325d" target="_top" xlink:title="Matrix&#45;vector addition by columns.">
<polygon fill="white" stroke="#666666" points="302.75,-79.5 175,-79.5 175,-49 302.75,-49 302.75,-79.5"/>
<text xml:space="preserve" text-anchor="start" x="183" y="-66" font-family="Helvetica,sans-Serif" font-size="10.00">BigDataStatMeth::Rcpp</text>
<text xml:space="preserve" text-anchor="middle" x="238.88" y="-54.75" font-family="Helvetica,sans-Serif" font-size="10.00">_matrixVectorSum_byCol</text>
</a>
</g>
</g>
<!-- Node1&#45;&gt;Node24 -->
<g id="edge24_Node000001_Node000024" class="edge">
<title>Node1&#45;&gt;Node24</title>
<g id="a_edge24_Node000001_Node000024"><a xlink:title=" ">
<path fill="none" stroke="#63b8ff" d="M60.19,-366.63C61.67,-318.13 72.9,-168.68 154,-89.25 157.21,-86.11 160.79,-83.36 164.62,-80.96"/>
<polygon fill="#63b8ff" stroke="#63b8ff" points="166.05,-84.16 173.23,-76.37 162.76,-77.98 166.05,-84.16"/>
</a>
</g>
</g>
<!-- Node25 -->
<g id="Node000025" class="node">
<title>Node25</title>
<g id="a_Node000025"><a xlink:href="namespace_big_data_stat_meth.html#a231abc3d3f97f0f9a95aa812ca41cf50" target="_top" xlink:title="Matrix&#45;vector addition by rows.">
<polygon fill="white" stroke="#666666" points="305.38,-30.5 172.38,-30.5 172.38,0 305.38,0 305.38,-30.5"/>
<text xml:space="preserve" text-anchor="start" x="180.38" y="-17" font-family="Helvetica,sans-Serif" font-size="10.00">BigDataStatMeth::Rcpp</text>
<text xml:space="preserve" text-anchor="middle" x="238.88" y="-5.75" font-family="Helvetica,sans-Serif" font-size="10.00">_matrixVectorSum_byRow</text>
</a>
</g>
</g>
<!-- Node1&#45;&gt;Node25 -->
<g id="edge25_Node000001_Node000025" class="edge">
<title>Node1&#45;&gt;Node25</title>
<g id="a_edge25_Node000001_Node000025"><a xlink:title=" ">
<path fill="none" stroke="#63b8ff" d="M59.35,-366.77C58.01,-313.43 60.96,-135.3 154,-40.25 156.6,-37.59 159.48,-35.21 162.55,-33.08"/>
<polygon fill="#63b8ff" stroke="#63b8ff" points="164.08,-36.24 170.95,-28.18 160.55,-30.19 164.08,-36.24"/>
</a>
</g>
</g>
<!-- Node26 -->
<g id="Node000026" class="node">
<title>Node26</title>
<g id="a_Node000026"><a xlink:href="class_big_data_stat_meth_1_1hdf5_dataset.html#a23bea87165b8ef6b944709c5b2cbd0cf" target="_top" xlink:title=" ">
<polygon fill="white" stroke="#666666" points="510,-598.5 359.75,-598.5 359.75,-568 510,-568 510,-598.5"/>
<text xml:space="preserve" text-anchor="start" x="367.75" y="-585" font-family="Helvetica,sans-Serif" font-size="10.00">BigDataStatMeth::hdf5Dataset</text>
<text xml:space="preserve" text-anchor="middle" x="434.88" y="-573.75" font-family="Helvetica,sans-Serif" font-size="10.00">::readDatasetBlock</text>
</a>
</g>
</g>
<!-- Node1&#45;&gt;Node26 -->
<g id="edge26_Node000001_Node000026" class="edge">
<title>Node1&#45;&gt;Node26</title>
<g id="a_edge26_Node000001_Node000026"><a xlink:title=" ">
<path fill="none" stroke="#63b8ff" d="M61.07,-397.9C64.9,-439.97 81.84,-555.52 154,-603.25 184.9,-623.69 277.89,-612.78 348.28,-600.55"/>
<polygon fill="#63b8ff" stroke="#63b8ff" points="348.64,-604.05 357.88,-598.85 347.42,-597.15 348.64,-604.05"/>
</a>
</g>
</g>
<!-- Node27 -->
<g id="Node000027" class="node">
<title>Node27</title>
<g id="a_Node000027"><a xlink:href="class_big_data_stat_meth_1_1hdf5_dataset.html#af606176d84a63561b65702b6fde3a583" target="_top" xlink:title="Write block of data with optional transposition.">
<polygon fill="white" stroke="#666666" points="510,-549.5 359.75,-549.5 359.75,-519 510,-519 510,-549.5"/>
<text xml:space="preserve" text-anchor="start" x="367.75" y="-536" font-family="Helvetica,sans-Serif" font-size="10.00">BigDataStatMeth::hdf5Dataset</text>
<text xml:space="preserve" text-anchor="middle" x="434.88" y="-524.75" font-family="Helvetica,sans-Serif" font-size="10.00">::writeDatasetBlock</text>
</a>
</g>
</g>
<!-- Node1&#45;&gt;Node27 -->
<g id="edge28_Node000001_Node000027" class="edge">
<title>Node1&#45;&gt;Node27</title>
<g id="a_edge28_Node000001_Node000027"><a xlink:title=" ">
<path fill="none" stroke="#63b8ff" d="M61.95,-397.86C67.74,-436.64 88.69,-537.14 154,-578.25 217.85,-618.44 250.52,-596.39 323.75,-578.25 341.31,-573.9 343.13,-566.39 359.75,-559.25 364.03,-557.41 368.5,-555.62 373.02,-553.89"/>
<polygon fill="#63b8ff" stroke="#63b8ff" points="374.03,-557.25 382.2,-550.5 371.61,-550.68 374.03,-557.25"/>
</a>
</g>
</g>
<!-- Node4 -->
<g id="Node000004" class="node">
<title>Node4</title>
<g id="a_Node000004"><a xlink:href="class_big_data_stat_meth_1_1hdf5_dataset.html#ac7a7f23b7e22c9b56ca6ad86592f2d52" target="_top" xlink:title="Add an attribute to the dataset.">
<polygon fill="white" stroke="#666666" points="510,-696.5 359.75,-696.5 359.75,-666 510,-666 510,-696.5"/>
<text xml:space="preserve" text-anchor="start" x="367.75" y="-683" font-family="Helvetica,sans-Serif" font-size="10.00">BigDataStatMeth::hdf5Dataset</text>
<text xml:space="preserve" text-anchor="middle" x="434.88" y="-671.75" font-family="Helvetica,sans-Serif" font-size="10.00">::addAttribute</text>
</a>
</g>
</g>
<!-- Node3&#45;&gt;Node4 -->
<g id="edge3_Node000003_Node000004" class="edge">
<title>Node3&#45;&gt;Node4</title>
<g id="a_edge3_Node000003_Node000004"><a xlink:title=" ">
<path fill="none" stroke="#63b8ff" d="M302.06,-714.54C320.77,-709.82 341.47,-704.59 360.81,-699.7"/>
<polygon fill="#63b8ff" stroke="#63b8ff" points="361.41,-703.16 370.24,-697.32 359.69,-696.38 361.41,-703.16"/>
</a>
</g>
</g>
<!-- Node5 -->
<g id="Node000005" class="node">
<title>Node5</title>
<g id="a_Node000005"><a xlink:href="class_big_data_stat_meth_1_1hdf5_file.html#abfb73b5f1eb25ee00489485c8dc56a2a" target="_top" xlink:title="Close file and cleanup resources.">
<polygon fill="white" stroke="#666666" points="500.62,-941.5 369.12,-941.5 369.12,-911 500.62,-911 500.62,-941.5"/>
<text xml:space="preserve" text-anchor="start" x="377.12" y="-928" font-family="Helvetica,sans-Serif" font-size="10.00">BigDataStatMeth::hdf5File</text>
<text xml:space="preserve" text-anchor="middle" x="434.88" y="-916.75" font-family="Helvetica,sans-Serif" font-size="10.00">::close_file</text>
</a>
</g>
</g>
<!-- Node3&#45;&gt;Node5 -->
<g id="edge4_Node000003_Node000005" class="edge">
<title>Node3&#45;&gt;Node5</title>
<g id="a_edge4_Node000003_Node000005"><a xlink:title=" ">
<path fill="none" stroke="#63b8ff" d="M313.58,-745.93C317.27,-748.33 320.7,-751.08 323.75,-754.25 370.39,-802.72 314.25,-851.71 359.75,-901.25 360.47,-902.04 361.22,-902.8 361.99,-903.54"/>
<polygon fill="#63b8ff" stroke="#63b8ff" points="359.82,-906.28 369.87,-909.65 364.11,-900.75 359.82,-906.28"/>
</a>
</g>
</g>
<!-- Node6 -->
<g id="Node000006" class="node">
<title>Node6</title>
<g id="a_Node000006"><a xlink:href="class_big_data_stat_meth_1_1hdf5_group.html#a27cef4d33e46c72bfd792aa49fa621a3" target="_top" xlink:title="Create multiple nested groups.">
<polygon fill="white" stroke="#666666" points="505.88,-843.5 363.88,-843.5 363.88,-813 505.88,-813 505.88,-843.5"/>
<text xml:space="preserve" text-anchor="start" x="371.88" y="-830" font-family="Helvetica,sans-Serif" font-size="10.00">BigDataStatMeth::hdf5Group</text>
<text xml:space="preserve" text-anchor="middle" x="434.88" y="-818.75" font-family="Helvetica,sans-Serif" font-size="10.00">::create_HDF5_groups</text>
</a>
</g>
</g>
<!-- Node3&#45;&gt;Node6 -->
<g id="edge5_Node000003_Node000006" class="edge">
<title>Node3&#45;&gt;Node6</title>
<g id="a_edge5_Node000003_Node000006"><a xlink:title=" ">
<path fill="none" stroke="#63b8ff" d="M308.9,-745.86C314.13,-748.27 319.15,-751.05 323.75,-754.25 345.93,-769.68 337.93,-787.3 359.75,-803.25 361.68,-804.66 363.69,-805.99 365.77,-807.25"/>
<polygon fill="#63b8ff" stroke="#63b8ff" points="364.07,-810.31 374.54,-811.93 367.36,-804.14 364.07,-810.31"/>
</a>
</g>
</g>
<!-- Node8 -->
<g id="Node000008" class="node">
<title>Node8</title>
<g id="a_Node000008"><a xlink:href="namespace_big_data_stat_meth.html#a89d901ab4b5e01771f4e3fc7dc84e50e" target="_top" xlink:title="Checks if an HDF5 element (group or dataset) exists.">
<polygon fill="white" stroke="#666666" points="496.5,-892.5 373.25,-892.5 373.25,-862 496.5,-862 496.5,-892.5"/>
<text xml:space="preserve" text-anchor="start" x="381.25" y="-879" font-family="Helvetica,sans-Serif" font-size="10.00">BigDataStatMeth::exists</text>
<text xml:space="preserve" text-anchor="middle" x="434.88" y="-867.75" font-family="Helvetica,sans-Serif" font-size="10.00">_HDF5_element</text>
</a>
</g>
</g>
<!-- Node3&#45;&gt;Node8 -->
<g id="edge7_Node000003_Node000008" class="edge">
<title>Node3&#45;&gt;Node8</title>
<g id="a_edge7_Node000003_Node000008"><a xlink:title=" ">
<path fill="none" stroke="#63b8ff" d="M312.39,-745.87C316.47,-748.28 320.31,-751.05 323.75,-754.25 357.74,-785.84 326.5,-819.88 359.75,-852.25 360.97,-853.43 362.24,-854.56 363.56,-855.64"/>
<polygon fill="#63b8ff" stroke="#63b8ff" points="361.43,-858.42 371.67,-861.13 365.36,-852.63 361.43,-858.42"/>
</a>
</g>
</g>
<!-- Node9 -->
<g id="Node000009" class="node">
<title>Node9</title>
<g id="a_Node000009"><a xlink:href="class_big_data_stat_meth_1_1hdf5_group.html#a59995412538627e6c80f64b552c286f5" target="_top" xlink:title=" ">
<polygon fill="white" stroke="#666666" points="505.88,-794.5 363.88,-794.5 363.88,-764 505.88,-764 505.88,-794.5"/>
<text xml:space="preserve" text-anchor="start" x="371.88" y="-781" font-family="Helvetica,sans-Serif" font-size="10.00">BigDataStatMeth::hdf5Group</text>
<text xml:space="preserve" text-anchor="middle" x="434.88" y="-769.75" font-family="Helvetica,sans-Serif" font-size="10.00">::getGroupName</text>
</a>
</g>
</g>
<!-- Node3&#45;&gt;Node9 -->
<g id="edge9_Node000003_Node000009" class="edge">
<title>Node3&#45;&gt;Node9</title>
<g id="a_edge9_Node000003_Node000009"><a xlink:title=" ">
<path fill="none" stroke="#63b8ff" d="M302.06,-745.96C320.77,-750.68 341.47,-755.91 360.81,-760.8"/>
<polygon fill="#63b8ff" stroke="#63b8ff" points="359.69,-764.12 370.24,-763.18 361.41,-757.34 359.69,-764.12"/>
</a>
</g>
</g>
<!-- Node10 -->
<g id="Node000010" class="node">
<title>Node10</title>
<g id="a_Node000010"><a xlink:href="namespace_big_data_stat_meth.html#a3d06783149029f1df2853c472d401380" target="_top" xlink:title="Removes multiple elements from an HDF5 file.">
<polygon fill="white" stroke="#666666" points="499.5,-745.5 370.25,-745.5 370.25,-715 499.5,-715 499.5,-745.5"/>
<text xml:space="preserve" text-anchor="start" x="378.25" y="-732" font-family="Helvetica,sans-Serif" font-size="10.00">BigDataStatMeth::remove</text>
<text xml:space="preserve" text-anchor="middle" x="434.88" y="-720.75" font-family="Helvetica,sans-Serif" font-size="10.00">_elements</text>
</a>
</g>
</g>
<!-- Node3&#45;&gt;Node10 -->
<g id="edge10_Node000003_Node000010" class="edge">
<title>Node3&#45;&gt;Node10</title>
<g id="a_edge10_Node000003_Node000010"><a xlink:title=" ">
<path fill="none" stroke="#63b8ff" d="M314.33,-730.25C328.83,-730.25 344.04,-730.25 358.57,-730.25"/>
<polygon fill="#63b8ff" stroke="#63b8ff" points="358.54,-733.75 368.54,-730.25 358.54,-726.75 358.54,-733.75"/>
</a>
</g>
</g>
<!-- Node11 -->
<g id="Node000011" class="node">
<title>Node11</title>
<g id="a_Node000011"><a xlink:href="class_big_data_stat_meth_1_1hdf5_dataset.html#acf9843abcb57a0090f1635cc69d95300" target="_top" xlink:title="Write data to the dataset.">
<polygon fill="white" stroke="#666666" points="510,-647.5 359.75,-647.5 359.75,-617 510,-617 510,-647.5"/>
<text xml:space="preserve" text-anchor="start" x="367.75" y="-634" font-family="Helvetica,sans-Serif" font-size="10.00">BigDataStatMeth::hdf5Dataset</text>
<text xml:space="preserve" text-anchor="middle" x="434.88" y="-622.75" font-family="Helvetica,sans-Serif" font-size="10.00">::writeDataset</text>
</a>
</g>
</g>
<!-- Node3&#45;&gt;Node11 -->
<g id="edge11_Node000003_Node000011" class="edge">
<title>Node3&#45;&gt;Node11</title>
<g id="a_edge11_Node000003_Node000011"><a xlink:title=" ">
<path fill="none" stroke="#63b8ff" d="M262.02,-714.7C285.47,-698.73 323.97,-673.93 359.75,-657.25 363.72,-655.4 367.87,-653.62 372.09,-651.92"/>
<polygon fill="#63b8ff" stroke="#63b8ff" points="373.15,-655.26 381.24,-648.41 370.65,-648.72 373.15,-655.26"/>
</a>
</g>
</g>
<!-- Node7 -->
<g id="Node000007" class="node">
<title>Node7</title>
<g id="a_Node000007"><a xlink:href="namespace_big_data_stat_meth.html#abcaa4216cd52f03ebac42e4855ef846b" target="_top" xlink:title="Checks if a path exists in an HDF5 file.">
<polygon fill="white" stroke="#666666" points="703.38,-861.88 559.88,-861.88 559.88,-842.62 703.38,-842.62 703.38,-861.88"/>
<text xml:space="preserve" text-anchor="middle" x="631.62" y="-848.38" font-family="Helvetica,sans-Serif" font-size="10.00">BigDataStatMeth::pathExists</text>
</a>
</g>
</g>
<!-- Node6&#45;&gt;Node7 -->
<g id="edge6_Node000006_Node000007" class="edge">
<title>Node6&#45;&gt;Node7</title>
<g id="a_edge6_Node000006_Node000007"><a xlink:title=" ">
<path fill="none" stroke="#63b8ff" d="M506.18,-836.91C519.85,-838.6 534.3,-840.38 548.31,-842.11"/>
<polygon fill="#63b8ff" stroke="#63b8ff" points="547.58,-845.54 557.94,-843.29 548.44,-838.6 547.58,-845.54"/>
</a>
</g>
</g>
<!-- Node8&#45;&gt;Node7 -->
<g id="edge8_Node000008_Node000007" class="edge">
<title>Node8&#45;&gt;Node7</title>
<g id="a_edge8_Node000008_Node000007"><a xlink:title=" ">
<path fill="none" stroke="#63b8ff" d="M496.96,-869.41C513.25,-867.32 531.12,-865.02 548.34,-862.81"/>
<polygon fill="#63b8ff" stroke="#63b8ff" points="548.57,-866.31 558.04,-861.57 547.68,-859.37 548.57,-866.31"/>
</a>
</g>
</g>
<!-- Node12 -->
<g id="Node000012" class="node">
<title>Node12</title>
<g id="a_Node000012"><a xlink:href="class_big_data_stat_meth_1_1hdf5_dataset.html#aba39e56a580d3b1fa7f1619fc72efa3e" target="_top" xlink:title="Close dataset and file.">
<polygon fill="white" stroke="#666666" points="706.75,-598.5 556.5,-598.5 556.5,-568 706.75,-568 706.75,-598.5"/>
<text xml:space="preserve" text-anchor="start" x="564.5" y="-585" font-family="Helvetica,sans-Serif" font-size="10.00">BigDataStatMeth::hdf5Dataset</text>
<text xml:space="preserve" text-anchor="middle" x="631.62" y="-573.75" font-family="Helvetica,sans-Serif" font-size="10.00">::close_dataset_file</text>
</a>
</g>
</g>
<!-- Node11&#45;&gt;Node12 -->
<g id="edge12_Node000011_Node000012" class="edge">
<title>Node11&#45;&gt;Node12</title>
<g id="a_edge12_Node000011_Node000012"><a xlink:title=" ">
<path fill="none" stroke="#63b8ff" d="M498.3,-616.54C517.08,-611.82 537.86,-606.59 557.28,-601.7"/>
<polygon fill="#63b8ff" stroke="#63b8ff" points="557.91,-605.15 566.75,-599.32 556.2,-598.37 557.91,-605.15"/>
</a>
</g>
</g>
<!-- Node13 -->
<g id="Node000013" class="node">
<title>Node13</title>
<g id="a_Node000013"><a xlink:href="class_big_data_stat_meth_1_1hdf5_dataset.html#a94d81b72e92cb0230b4e64f37ea7d2e3" target="_top" xlink:title="Convert DataFrame to range list.">
<polygon fill="white" stroke="#666666" points="717.25,-647.5 546,-647.5 546,-617 717.25,-617 717.25,-647.5"/>
<text xml:space="preserve" text-anchor="start" x="554" y="-634" font-family="Helvetica,sans-Serif" font-size="10.00">BigDataStatMeth::hdf5Dataset</text>
<text xml:space="preserve" text-anchor="middle" x="631.62" y="-622.75" font-family="Helvetica,sans-Serif" font-size="10.00">::convert_DataFrame_to_RangeList</text>
</a>
</g>
</g>
<!-- Node11&#45;&gt;Node13 -->
<g id="edge13_Node000011_Node000013" class="edge">
<title>Node11&#45;&gt;Node13</title>
<g id="a_edge13_Node000011_Node000013"><a xlink:title=" ">
<path fill="none" stroke="#63b8ff" d="M510.34,-632.25C518.22,-632.25 526.31,-632.25 534.4,-632.25"/>
<polygon fill="#63b8ff" stroke="#63b8ff" points="534.28,-635.75 544.28,-632.25 534.28,-628.75 534.28,-635.75"/>
</a>
</g>
</g>
<!-- Node26&#45;&gt;Node12 -->
<g id="edge27_Node000026_Node000012" class="edge">
<title>Node26&#45;&gt;Node12</title>
<g id="a_edge27_Node000026_Node000012"><a xlink:title=" ">
<path fill="none" stroke="#63b8ff" d="M510.34,-583.25C521.61,-583.25 533.32,-583.25 544.81,-583.25"/>
<polygon fill="#63b8ff" stroke="#63b8ff" points="544.69,-586.75 554.69,-583.25 544.69,-579.75 544.69,-586.75"/>
</a>
</g>
</g>
<!-- Node27&#45;&gt;Node12 -->
<g id="edge30_Node000027_Node000012" class="edge">
<title>Node27&#45;&gt;Node12</title>
<g id="a_edge30_Node000027_Node000012"><a xlink:title=" ">
<path fill="none" stroke="#63b8ff" d="M498.3,-549.96C517.08,-554.68 537.86,-559.91 557.28,-564.8"/>
<polygon fill="#63b8ff" stroke="#63b8ff" points="556.2,-568.13 566.75,-567.18 557.91,-561.35 556.2,-568.13"/>
</a>
</g>
</g>
<!-- Node27&#45;&gt;Node13 -->
<g id="edge31_Node000027_Node000013" class="edge">
<title>Node27&#45;&gt;Node13</title>
<g id="a_edge31_Node000027_Node000013"><a xlink:title=" ">
<path fill="none" stroke="#63b8ff" d="M493.84,-549.9C499.55,-552.57 505.05,-555.67 510,-559.25 531.61,-574.88 524.1,-592.03 546,-607.25 548.1,-608.71 550.28,-610.08 552.52,-611.37"/>
<polygon fill="#63b8ff" stroke="#63b8ff" points="550.88,-614.46 561.38,-615.87 554.05,-608.22 550.88,-614.46"/>
</a>
</g>
</g>
<!-- Node28 -->
<g id="Node000028" class="node">
<title>Node28</title>
<g id="a_Node000028"><a xlink:href="class_big_data_stat_meth_1_1hdf5_dataset.html#a64177ae924792ea9e557febaa95ed400" target="_top" xlink:title="Close the dataset.">
<polygon fill="white" stroke="#666666" points="706.75,-509.5 556.5,-509.5 556.5,-479 706.75,-479 706.75,-509.5"/>
<text xml:space="preserve" text-anchor="start" x="564.5" y="-496" font-family="Helvetica,sans-Serif" font-size="10.00">BigDataStatMeth::hdf5Dataset</text>
<text xml:space="preserve" text-anchor="middle" x="631.62" y="-484.75" font-family="Helvetica,sans-Serif" font-size="10.00">::close_dataset</text>
</a>
</g>
</g>
<!-- Node27&#45;&gt;Node28 -->
<g id="edge29_Node000027_Node000028" class="edge">
<title>Node27&#45;&gt;Node28</title>
<g id="a_edge29_Node000027_Node000028"><a xlink:title=" ">
<path fill="none" stroke="#63b8ff" d="M510.34,-518.96C521.73,-516.62 533.56,-514.19 545.17,-511.8"/>
<polygon fill="#63b8ff" stroke="#63b8ff" points="545.63,-515.28 554.72,-509.84 544.22,-508.42 545.63,-515.28"/>
</a>
</g>
</g>
<!-- Node29 -->
<g id="Node000029" class="node">
<title>Node29</title>
<g id="a_Node000029"><a xlink:href="namespace_big_data_stat_meth.html#a2692707b3ea4aaafa09d07afaf632437" target="_top" xlink:title="Transposes a 2D matrix.">
<polygon fill="white" stroke="#666666" points="701.5,-546.88 561.75,-546.88 561.75,-527.62 701.5,-527.62 701.5,-546.88"/>
<text xml:space="preserve" text-anchor="middle" x="631.62" y="-533.38" font-family="Helvetica,sans-Serif" font-size="10.00">BigDataStatMeth::transpose</text>
</a>
</g>
</g>
<!-- Node27&#45;&gt;Node29 -->
<g id="edge32_Node000027_Node000029" class="edge">
<title>Node27&#45;&gt;Node29</title>
<g id="a_edge32_Node000027_Node000029"><a xlink:title=" ">
<path fill="none" stroke="#63b8ff" d="M510.34,-535.4C523.29,-535.6 536.82,-535.81 549.93,-536.01"/>
<polygon fill="#63b8ff" stroke="#63b8ff" points="549.76,-539.5 559.81,-536.16 549.87,-532.51 549.76,-539.5"/>
</a>
</g>
</g>
</g>
</svg>

<g id="navigator" transform="translate(0 0)" fill="#404254">
  <rect fill="#f2f5e9" fill-opacity="0.5" stroke="#606060" stroke-width=".5" x="0" y="0" width="60" height="60"/>
  <use id="zoomplus" xlink:href="#zoomPlus" x="17" y="9" onmousedown="handleZoom(evt,'in')"/>
  <use id="zoomminus" xlink:href="#zoomMin" x="42" y="9" onmousedown="handleZoom(evt,'out')"/>
  <use id="reset" xlink:href="#resetDef" x="30" y="36" onmousedown="handleReset()"/>
   <use id="arrowup" xlink:href="#arrowUp" x="0" y="0" onmousedown="handlePan(0,-1)"/>
  <use id="arrowright" xlink:href="#arrowRight" x="0" y="0" onmousedown="handlePan(1,0)"/>
  <use id="arrowdown" xlink:href="#arrowDown" x="0" y="0" onmousedown="handlePan(0,1)"/>
  <use id="arrowleft" xlink:href="#arrowLeft" x="0" y="0" onmousedown="handlePan(-1,0)"/>
</g>
<svg viewBox="0 0 15 15" width="100%" height="30px" preserveAspectRatio="xMaxYMin meet">
 <g id="arrow_out" transform="scale(0.3 0.3)">
  <a xlink:href="namespace_big_data_stat_meth_a1bb4d2e3ebfcdcbe7739366846b9453e_cgraph_org.svg" target="_base">
   <rect id="button" ry="5" rx="5" y="6" x="6" height="38" width="38"
        fill="#f2f5e9" fill-opacity="0.5" stroke="#606060" stroke-width="1.0"/>
   <path id="arrow"
     d="M 11.500037,31.436501 C 11.940474,20.09759 22.043105,11.32322 32.158766,21.979434 L 37.068811,17.246167 C 37.068811,17.246167 37.088388,32 37.088388,32 L 22.160133,31.978069 C 22.160133,31.978069 26.997745,27.140456 26.997745,27.140456 C 18.528582,18.264221 13.291696,25.230495 11.500037,31.436501 z"
     style="fill:#404040;"/>
  </a>
 </g>
</svg>

<style type='text/css'>
<![CDATA[
[data-mouse-over-selected='false'] { opacity: 0.7; }
[data-mouse-over-selected='true']  { opacity: 1.0; }
]]>
</style>
<script type="application/ecmascript"><![CDATA[
document.addEventListener('DOMContentLoaded', (event) => {
  highlightEdges();
  highlightAdjacentNodes();
});
]]></script>
</svg>
