<?xml version="1.0" encoding="UTF-8" standalone="no"?>
<!DOCTYPE svg PUBLIC "-//W3C//DTD SVG 1.1//EN"
 "http://www.w3.org/Graphics/SVG/1.1/DTD/svg11.dtd">
<!-- Generated by graphviz version 14.0.0 (20250921.2048)
 -->
<!-- Title: BigDataStatMeth::DiagonalOps::scalarOperation Pages: 1 -->
<!--zoomable 891 -->

<svg id="main" version="1.1" xmlns="http://www.w3.org/2000/svg" xmlns:xlink="http://www.w3.org/1999/xlink" xml:space="preserve" onload="init(evt)">

<style type="text/css"><![CDATA[
.node, .edge {opacity: 0.7;}
.node.selected, .edge.selected {opacity: 1;}
.edge:hover path { stroke: red; }
.edge:hover polygon { stroke: red; fill: red; }
]]></style>

<defs>
  <circle id="rim" cx="0" cy="0" r="7"/>
  <circle id="rim2" cx="0" cy="0" r="3.5"/>
  <g id="zoomPlus">
    <use xlink:href="#rim" fill="#404040"><set attributeName="fill" to="#808080" begin="zoomplus.mouseover" end="zoomplus.mouseout"/></use>
    <path d="M-4,0h8M0,-4v8" fill="none" stroke="white" stroke-width="1.5" pointer-events="none"/>
  </g>
  <g id="zoomMin">
    <use xlink:href="#rim" fill="#404040"><set attributeName="fill" to="#808080" begin="zoomminus.mouseover" end="zoomminus.mouseout"/></use>
    <path d="M-4,0h8" fill="none" stroke="white" stroke-width="1.5" pointer-events="none"/>
  </g>
  <g id="arrowUp" transform="translate(30 24)">
    <use xlink:href="#rim"/>
    <path pointer-events="none" fill="none" stroke="white" stroke-width="1.5" d="M0,-3.0v7 M-2.5,-0.5L0,-3.0L2.5,-0.5"/>
  </g>
  <g id="arrowRight" transform="rotate(90) translate(36 -43)">
    <use xlink:href="#rim"/>
    <path pointer-events="none" fill="none" stroke="white" stroke-width="1.5" d="M0,-3.0v7 M-2.5,-0.5L0,-3.0L2.5,-0.5"/>
  </g>
  <g id="arrowDown" transform="rotate(180) translate(-30 -48)">
    <use xlink:href="#rim"/>
    <path pointer-events="none" fill="none" stroke="white" stroke-width="1.5" d="M0,-3.0v7 M-2.5,-0.5L0,-3.0L2.5,-0.5"/>
  </g>
  <g id="arrowLeft" transform="rotate(270) translate(-36 17)">
    <use xlink:href="#rim"/>
    <path pointer-events="none" fill="none" stroke="white" stroke-width="1.5" d="M0,-3.0v7 M-2.5,-0.5L0,-3.0L2.5,-0.5"/>
  </g>
  <g id="resetDef">
    <use xlink:href="#rim2" fill="#404040"><set attributeName="fill" to="#808080" begin="reset.mouseover" end="reset.mouseout"/></use>
  </g>
</defs>
<script type="application/ecmascript">
var viewWidth = 927;
var viewHeight = 891;
var sectionId = 'dynsection-11';
</script>
<script type="application/ecmascript" xlink:href="../../../../assets/svg.min.js"/>
<svg id="graph" class="graph">
<g id="viewport">
<title>BigDataStatMeth::DiagonalOps::scalarOperation</title>
<!-- Node1 -->
<g id="Node000001" class="node">
<title>Node1</title>
<g id="a_Node000001"><a xlink:title="Perform scalar operations on diagonal elements.">
<polygon fill="#999999" stroke="#666666" points="135.25,-371.5 0,-371.5 0,-341 135.25,-341 135.25,-371.5"/>
<text xml:space="preserve" text-anchor="start" x="8" y="-358" font-family="Helvetica,sans-Serif" font-size="10.00">BigDataStatMeth::Diagonal</text>
<text xml:space="preserve" text-anchor="middle" x="67.62" y="-346.75" font-family="Helvetica,sans-Serif" font-size="10.00">Ops::scalarOperation</text>
</a>
</g>
</g>
<!-- Node2 -->
<g id="Node000002" class="node">
<title>Node2</title>
<g id="a_Node000002"><a xlink:href="namespace_big_data_stat_meth_1_1_diagonal_ops.html#ab6a3f0b0e0c03b86ddd3f86cc56895af" target="_top" xlink:title="Clean up temporary datasets created during operations.">
<polygon fill="white" stroke="#666666" points="318.12,-777.5 174.62,-777.5 174.62,-747 318.12,-747 318.12,-777.5"/>
<text xml:space="preserve" text-anchor="start" x="182.62" y="-764" font-family="Helvetica,sans-Serif" font-size="10.00">BigDataStatMeth::Diagonal</text>
<text xml:space="preserve" text-anchor="middle" x="246.38" y="-752.75" font-family="Helvetica,sans-Serif" font-size="10.00">Ops::cleanup_temp_datasets</text>
</a>
</g>
</g>
<!-- Node1&#45;&gt;Node2 -->
<g id="edge1_Node000001_Node000002" class="edge">
<title>Node1&#45;&gt;Node2</title>
<g id="a_edge1_Node000001_Node000002"><a xlink:title=" ">
<path fill="none" stroke="#63b8ff" d="M68.2,-371.82C67.52,-428.1 72.66,-623.49 171.25,-733.25 173.58,-735.84 176.16,-738.2 178.93,-740.35"/>
<polygon fill="#63b8ff" stroke="#63b8ff" points="176.79,-743.13 187.07,-745.71 180.64,-737.28 176.79,-743.13"/>
</a>
</g>
</g>
<!-- Node3 -->
<g id="Node000003" class="node">
<title>Node3</title>
<g id="a_Node000003"><a xlink:href="class_big_data_stat_meth_1_1hdf5_dataset.html#ab19bac9a31efe4a733294c1c23ff5ef7" target="_top" xlink:title="Create a new dataset with optional compression.">
<polygon fill="white" stroke="#666666" points="516.75,-701.5 366.5,-701.5 366.5,-671 516.75,-671 516.75,-701.5"/>
<text xml:space="preserve" text-anchor="start" x="374.5" y="-688" font-family="Helvetica,sans-Serif" font-size="10.00">BigDataStatMeth::hdf5Dataset</text>
<text xml:space="preserve" text-anchor="middle" x="441.62" y="-676.75" font-family="Helvetica,sans-Serif" font-size="10.00">::createDataset</text>
</a>
</g>
</g>
<!-- Node1&#45;&gt;Node3 -->
<g id="edge2_Node000001_Node000003" class="edge">
<title>Node1&#45;&gt;Node3</title>
<g id="a_edge2_Node000001_Node000003"><a xlink:title=" ">
<path fill="none" stroke="#63b8ff" d="M68.56,-371.94C69.26,-422.7 78.99,-583.44 171.25,-657.25 222.21,-698.02 297.06,-703.11 354.94,-699.23"/>
<polygon fill="#63b8ff" stroke="#63b8ff" points="355.07,-702.73 364.76,-698.46 354.52,-695.75 355.07,-702.73"/>
</a>
</g>
</g>
<!-- Node14 -->
<g id="Node000014" class="node">
<title>Node14</title>
<g id="a_Node000014"><a xlink:href="namespace_big_data_stat_meth_1_1_diagonal_ops.html#abb768c416a49a397ddea8ff728203d1a" target="_top" xlink:title="Extract diagonal from matrix and save as vector dataset.">
<polygon fill="white" stroke="#666666" points="320,-468.5 172.75,-468.5 172.75,-438 320,-438 320,-468.5"/>
<text xml:space="preserve" text-anchor="start" x="180.75" y="-455" font-family="Helvetica,sans-Serif" font-size="10.00">BigDataStatMeth::Diagonal</text>
<text xml:space="preserve" text-anchor="middle" x="246.38" y="-443.75" font-family="Helvetica,sans-Serif" font-size="10.00">Ops::extractDiagonalToVector</text>
</a>
</g>
</g>
<!-- Node1&#45;&gt;Node14 -->
<g id="edge14_Node000001_Node000014" class="edge">
<title>Node1&#45;&gt;Node14</title>
<g id="a_edge14_Node000001_Node000014"><a xlink:title=" ">
<path fill="none" stroke="#63b8ff" d="M97.02,-371.83C126.83,-388.19 173.86,-414 206.96,-432.17"/>
<polygon fill="#63b8ff" stroke="#63b8ff" points="204.98,-435.07 215.43,-436.81 208.34,-428.94 204.98,-435.07"/>
</a>
</g>
</g>
<!-- Node16 -->
<g id="Node000016" class="node">
<title>Node16</title>
<g id="a_Node000016"><a xlink:href="class_big_data_stat_meth_1_1hdf5_dataset.html#a6cbce676967d0cc4b50e2cc5282c322b" target="_top" xlink:title="Get number of rows in internal format.">
<polygon fill="white" stroke="#666666" points="712,-333.5 561.75,-333.5 561.75,-303 712,-303 712,-333.5"/>
<text xml:space="preserve" text-anchor="start" x="569.75" y="-320" font-family="Helvetica,sans-Serif" font-size="10.00">BigDataStatMeth::hdf5Dataset</text>
<text xml:space="preserve" text-anchor="middle" x="636.88" y="-308.75" font-family="Helvetica,sans-Serif" font-size="10.00">::nrows</text>
</a>
</g>
</g>
<!-- Node1&#45;&gt;Node16 -->
<g id="edge35_Node000001_Node000016" class="edge">
<title>Node1&#45;&gt;Node16</title>
<g id="a_edge35_Node000001_Node000016"><a xlink:title=" ">
<path fill="none" stroke="#63b8ff" d="M135.64,-351.76C238.81,-344.85 436.48,-331.61 550,-324"/>
<polygon fill="#63b8ff" stroke="#63b8ff" points="550.14,-327.5 559.89,-323.34 549.67,-320.52 550.14,-327.5"/>
</a>
</g>
</g>
<!-- Node17 -->
<g id="Node000017" class="node">
<title>Node17</title>
<g id="a_Node000017"><a xlink:href="class_big_data_stat_meth_1_1hdf5_dataset.html#a23bea87165b8ef6b944709c5b2cbd0cf" target="_top" xlink:title=" ">
<polygon fill="white" stroke="#666666" points="712,-490.5 561.75,-490.5 561.75,-460 712,-460 712,-490.5"/>
<text xml:space="preserve" text-anchor="start" x="569.75" y="-477" font-family="Helvetica,sans-Serif" font-size="10.00">BigDataStatMeth::hdf5Dataset</text>
<text xml:space="preserve" text-anchor="middle" x="636.88" y="-465.75" font-family="Helvetica,sans-Serif" font-size="10.00">::readDatasetBlock</text>
</a>
</g>
</g>
<!-- Node1&#45;&gt;Node17 -->
<g id="edge36_Node000001_Node000017" class="edge">
<title>Node1&#45;&gt;Node17</title>
<g id="a_edge36_Node000001_Node000017"><a xlink:title=" ">
<path fill="none" stroke="#63b8ff" d="M78.07,-371.81C94.2,-397.19 129.43,-447.66 171.25,-477.25 243.57,-528.42 270.38,-532.21 357.5,-548.25 431.04,-561.79 458.87,-581.69 525.75,-548.25 549.6,-536.32 540.14,-515.88 561.75,-500.25 563.68,-498.85 565.7,-497.53 567.78,-496.27"/>
<polygon fill="#63b8ff" stroke="#63b8ff" points="569.37,-499.39 576.57,-491.61 566.1,-493.2 569.37,-499.39"/>
</a>
</g>
</g>
<!-- Node18 -->
<g id="Node000018" class="node">
<title>Node18</title>
<g id="a_Node000018"><a xlink:href="class_big_data_stat_meth_1_1hdf5_dataset.html#aa743c8c46d7ff3bb2f894145dd07fd8a" target="_top" xlink:title="Get number of columns in internal format.">
<polygon fill="white" stroke="#666666" points="712,-214.5 561.75,-214.5 561.75,-184 712,-184 712,-214.5"/>
<text xml:space="preserve" text-anchor="start" x="569.75" y="-201" font-family="Helvetica,sans-Serif" font-size="10.00">BigDataStatMeth::hdf5Dataset</text>
<text xml:space="preserve" text-anchor="middle" x="636.88" y="-189.75" font-family="Helvetica,sans-Serif" font-size="10.00">::ncols</text>
</a>
</g>
</g>
<!-- Node1&#45;&gt;Node18 -->
<g id="edge34_Node000001_Node000018" class="edge">
<title>Node1&#45;&gt;Node18</title>
<g id="a_edge34_Node000001_Node000018"><a xlink:title=" ">
<path fill="none" stroke="#63b8ff" d="M71.97,-340.57C80.85,-302.97 108.78,-207.38 171.25,-161.25 298.61,-67.2 374.16,-80.57 525.75,-126.25 558.08,-135.99 589.65,-158.67 610.63,-176.19"/>
<polygon fill="#63b8ff" stroke="#63b8ff" points="608.21,-178.72 618.08,-182.58 612.77,-173.41 608.21,-178.72"/>
</a>
</g>
</g>
<!-- Node19 -->
<g id="Node000019" class="node">
<title>Node19</title>
<g id="a_Node000019"><a xlink:href="class_big_data_stat_meth_1_1hdf5_dataset.html#af606176d84a63561b65702b6fde3a583" target="_top" xlink:title="Write block of data with optional transposition.">
<polygon fill="white" stroke="#666666" points="712,-539.5 561.75,-539.5 561.75,-509 712,-509 712,-539.5"/>
<text xml:space="preserve" text-anchor="start" x="569.75" y="-526" font-family="Helvetica,sans-Serif" font-size="10.00">BigDataStatMeth::hdf5Dataset</text>
<text xml:space="preserve" text-anchor="middle" x="636.88" y="-514.75" font-family="Helvetica,sans-Serif" font-size="10.00">::writeDatasetBlock</text>
</a>
</g>
</g>
<!-- Node1&#45;&gt;Node19 -->
<g id="edge40_Node000001_Node000019" class="edge">
<title>Node1&#45;&gt;Node19</title>
<g id="a_edge40_Node000001_Node000019"><a xlink:title=" ">
<path fill="none" stroke="#63b8ff" d="M73.66,-371.96C85.21,-405.34 116.84,-483.5 171.25,-523.25 299.54,-616.97 371.95,-609.1 525.75,-569.25 543.47,-564.66 545.01,-556.65 561.75,-549.25 565.83,-547.45 570.07,-545.7 574.39,-544.02"/>
<polygon fill="#63b8ff" stroke="#63b8ff" points="575.61,-547.29 583.75,-540.51 573.15,-540.74 575.61,-547.29"/>
</a>
</g>
</g>
<!-- Node22 -->
<g id="Node000022" class="node">
<title>Node22</title>
<g id="a_Node000022"><a xlink:href="class_big_data_stat_meth_1_1hdf5_dataset.html#ac979eba40078c7c5974b64b2ce6347a3" target="_top" xlink:title="Get dataset name.">
<polygon fill="white" stroke="#666666" points="321.5,-79.5 171.25,-79.5 171.25,-49 321.5,-49 321.5,-79.5"/>
<text xml:space="preserve" text-anchor="start" x="179.25" y="-66" font-family="Helvetica,sans-Serif" font-size="10.00">BigDataStatMeth::hdf5Dataset</text>
<text xml:space="preserve" text-anchor="middle" x="246.38" y="-54.75" font-family="Helvetica,sans-Serif" font-size="10.00">::getDatasetName</text>
</a>
</g>
</g>
<!-- Node1&#45;&gt;Node22 -->
<g id="edge27_Node000001_Node000022" class="edge">
<title>Node1&#45;&gt;Node22</title>
<g id="a_edge27_Node000001_Node000022"><a xlink:title=" ">
<path fill="none" stroke="#63b8ff" d="M70.37,-340.56C76.16,-295.77 98.68,-165.89 171.25,-93.25 174.02,-90.48 177.09,-87.96 180.35,-85.68"/>
<polygon fill="#63b8ff" stroke="#63b8ff" points="181.93,-88.82 188.68,-80.65 178.31,-82.82 181.93,-88.82"/>
</a>
</g>
</g>
<!-- Node23 -->
<g id="Node000023" class="node">
<title>Node23</title>
<g id="a_Node000023"><a xlink:href="class_big_data_stat_meth_1_1hdf5_file.html#a679b85a0e0fae4bb50b219fba8aa050d" target="_top" xlink:title="Get file pointer.">
<polygon fill="white" stroke="#666666" points="312.12,-30.5 180.62,-30.5 180.62,0 312.12,0 312.12,-30.5"/>
<text xml:space="preserve" text-anchor="start" x="188.62" y="-17" font-family="Helvetica,sans-Serif" font-size="10.00">BigDataStatMeth::hdf5File</text>
<text xml:space="preserve" text-anchor="middle" x="246.38" y="-5.75" font-family="Helvetica,sans-Serif" font-size="10.00">::getFileptr</text>
</a>
</g>
</g>
<!-- Node1&#45;&gt;Node23 -->
<g id="edge28_Node000001_Node000023" class="edge">
<title>Node1&#45;&gt;Node23</title>
<g id="a_edge28_Node000001_Node000023"><a xlink:title=" ">
<path fill="none" stroke="#63b8ff" d="M69,-340.61C71.06,-289.87 84.46,-128.02 171.25,-40.25 172.13,-39.36 173.05,-38.5 174,-37.66"/>
<polygon fill="#63b8ff" stroke="#63b8ff" points="175.94,-40.58 181.98,-31.88 171.83,-34.91 175.94,-40.58"/>
</a>
</g>
</g>
<!-- Node24 -->
<g id="Node000024" class="node">
<title>Node24</title>
<g id="a_Node000024"><a xlink:href="class_big_data_stat_meth_1_1hdf5_dataset.html#af4869e54b1d4c01ab4caacf1939e1907" target="_top" xlink:title="Get group name.">
<polygon fill="white" stroke="#666666" points="516.75,-816.5 366.5,-816.5 366.5,-786 516.75,-786 516.75,-816.5"/>
<text xml:space="preserve" text-anchor="start" x="374.5" y="-803" font-family="Helvetica,sans-Serif" font-size="10.00">BigDataStatMeth::hdf5Dataset</text>
<text xml:space="preserve" text-anchor="middle" x="441.62" y="-791.75" font-family="Helvetica,sans-Serif" font-size="10.00">::getGroup</text>
</a>
</g>
</g>
<!-- Node1&#45;&gt;Node24 -->
<g id="edge29_Node000001_Node000024" class="edge">
<title>Node1&#45;&gt;Node24</title>
<g id="a_edge29_Node000001_Node000024"><a xlink:title=" ">
<path fill="none" stroke="#63b8ff" d="M68.5,-371.9C68.97,-425.02 77.84,-600.27 171.25,-693.25 220.65,-742.43 256.99,-711.83 321.5,-738.25 350.54,-750.15 381.86,-766.87 405.09,-780.1"/>
<polygon fill="#63b8ff" stroke="#63b8ff" points="403.12,-783 413.53,-784.96 406.61,-776.94 403.12,-783"/>
</a>
</g>
</g>
<!-- Node25 -->
<g id="Node000025" class="node">
<title>Node25</title>
<g id="a_Node000025"><a xlink:href="namespace_big_data_stat_meth_1_1_diagonal_ops.html#aa5491d5533b53de425cd4cf57da15a1a" target="_top" xlink:title="Check if dataset represents a diagonal vector.">
<polygon fill="white" stroke="#666666" points="509.25,-165.5 374,-165.5 374,-135 509.25,-135 509.25,-165.5"/>
<text xml:space="preserve" text-anchor="start" x="382" y="-152" font-family="Helvetica,sans-Serif" font-size="10.00">BigDataStatMeth::Diagonal</text>
<text xml:space="preserve" text-anchor="middle" x="441.62" y="-140.75" font-family="Helvetica,sans-Serif" font-size="10.00">Ops::isDiagonalVector</text>
</a>
</g>
</g>
<!-- Node1&#45;&gt;Node25 -->
<g id="edge31_Node000001_Node000025" class="edge">
<title>Node1&#45;&gt;Node25</title>
<g id="a_edge31_Node000001_Node000025"><a xlink:title=" ">
<path fill="none" stroke="#63b8ff" d="M76.07,-340.6C90.38,-312.27 124.5,-252.5 171.25,-221.25 228.55,-182.95 305.52,-165.29 362.51,-157.16"/>
<polygon fill="#63b8ff" stroke="#63b8ff" points="362.69,-160.67 372.13,-155.86 361.76,-153.73 362.69,-160.67"/>
</a>
</g>
</g>
<!-- Node26 -->
<g id="Node000026" class="node">
<title>Node26</title>
<g id="a_Node000026"><a xlink:href="namespace_big_data_stat_meth_1_1_diagonal_ops.html#a10f2d060060fb8e195ebdc69bfaab39b" target="_top" xlink:title="Validate vector dataset and return its size.">
<polygon fill="white" stroke="#666666" points="510,-214.5 373.25,-214.5 373.25,-184 510,-184 510,-214.5"/>
<text xml:space="preserve" text-anchor="start" x="381.25" y="-201" font-family="Helvetica,sans-Serif" font-size="10.00">BigDataStatMeth::Diagonal</text>
<text xml:space="preserve" text-anchor="middle" x="441.62" y="-189.75" font-family="Helvetica,sans-Serif" font-size="10.00">Ops::validateVectorDataset</text>
</a>
</g>
</g>
<!-- Node1&#45;&gt;Node26 -->
<g id="edge37_Node000001_Node000026" class="edge">
<title>Node1&#45;&gt;Node26</title>
<g id="a_edge37_Node000001_Node000026"><a xlink:title=" ">
<path fill="none" stroke="#63b8ff" d="M85.51,-340.55C104.88,-323.31 138.22,-295.87 171.25,-279.25 232,-248.68 306.46,-227.68 361.69,-214.9"/>
<polygon fill="#63b8ff" stroke="#63b8ff" points="362.36,-218.33 371.34,-212.71 360.81,-211.51 362.36,-218.33"/>
</a>
</g>
</g>
<!-- Node27 -->
<g id="Node000027" class="node">
<title>Node27</title>
<g id="a_Node000027"><a xlink:href="namespace_big_data_stat_meth_1_1_diagonal_ops.html#a65334bcbb3c95f1aabebbc88963793b5" target="_top" xlink:title="Write diagonal vector to matrix diagonal.">
<polygon fill="white" stroke="#666666" points="321.5,-318.5 171.25,-318.5 171.25,-288 321.5,-288 321.5,-318.5"/>
<text xml:space="preserve" text-anchor="start" x="179.25" y="-305" font-family="Helvetica,sans-Serif" font-size="10.00">BigDataStatMeth::Diagonal</text>
<text xml:space="preserve" text-anchor="middle" x="246.38" y="-293.75" font-family="Helvetica,sans-Serif" font-size="10.00">Ops::writeDiagonalFromVector</text>
</a>
</g>
</g>
<!-- Node1&#45;&gt;Node27 -->
<g id="edge41_Node000001_Node000027" class="edge">
<title>Node1&#45;&gt;Node27</title>
<g id="a_edge41_Node000001_Node000027"><a xlink:title=" ">
<path fill="none" stroke="#63b8ff" d="M120.7,-340.63C139.95,-334.86 161.97,-328.26 182.1,-322.22"/>
<polygon fill="#63b8ff" stroke="#63b8ff" points="183.04,-325.6 191.61,-319.37 181.03,-318.89 183.04,-325.6"/>
</a>
</g>
</g>
<!-- Node4 -->
<g id="Node000004" class="node">
<title>Node4</title>
<g id="a_Node000004"><a xlink:href="class_big_data_stat_meth_1_1hdf5_dataset.html#ac7a7f23b7e22c9b56ca6ad86592f2d52" target="_top" xlink:title="Add an attribute to the dataset.">
<polygon fill="white" stroke="#666666" points="712,-735.5 561.75,-735.5 561.75,-705 712,-705 712,-735.5"/>
<text xml:space="preserve" text-anchor="start" x="569.75" y="-722" font-family="Helvetica,sans-Serif" font-size="10.00">BigDataStatMeth::hdf5Dataset</text>
<text xml:space="preserve" text-anchor="middle" x="636.88" y="-710.75" font-family="Helvetica,sans-Serif" font-size="10.00">::addAttribute</text>
</a>
</g>
</g>
<!-- Node3&#45;&gt;Node4 -->
<g id="edge3_Node000003_Node000004" class="edge">
<title>Node3&#45;&gt;Node4</title>
<g id="a_edge3_Node000003_Node000004"><a xlink:title=" ">
<path fill="none" stroke="#63b8ff" d="M517.06,-699.35C527.99,-701.27 539.31,-703.26 550.44,-705.22"/>
<polygon fill="#63b8ff" stroke="#63b8ff" points="549.53,-708.61 559.98,-706.9 550.74,-701.72 549.53,-708.61"/>
</a>
</g>
</g>
<!-- Node5 -->
<g id="Node000005" class="node">
<title>Node5</title>
<g id="a_Node000005"><a xlink:href="class_big_data_stat_meth_1_1hdf5_file.html#abfb73b5f1eb25ee00489485c8dc56a2a" target="_top" xlink:title="Close file and cleanup resources.">
<polygon fill="white" stroke="#666666" points="702.62,-686.5 571.12,-686.5 571.12,-656 702.62,-656 702.62,-686.5"/>
<text xml:space="preserve" text-anchor="start" x="579.12" y="-673" font-family="Helvetica,sans-Serif" font-size="10.00">BigDataStatMeth::hdf5File</text>
<text xml:space="preserve" text-anchor="middle" x="636.88" y="-661.75" font-family="Helvetica,sans-Serif" font-size="10.00">::close_file</text>
</a>
</g>
</g>
<!-- Node3&#45;&gt;Node5 -->
<g id="edge4_Node000003_Node000005" class="edge">
<title>Node3&#45;&gt;Node5</title>
<g id="a_edge4_Node000003_Node000005"><a xlink:title=" ">
<path fill="none" stroke="#63b8ff" d="M517.06,-680.47C531.08,-679.38 545.74,-678.25 559.8,-677.15"/>
<polygon fill="#63b8ff" stroke="#63b8ff" points="559.72,-680.67 569.42,-676.41 559.18,-673.69 559.72,-680.67"/>
</a>
</g>
</g>
<!-- Node6 -->
<g id="Node000006" class="node">
<title>Node6</title>
<g id="a_Node000006"><a xlink:href="class_big_data_stat_meth_1_1hdf5_group.html#a27cef4d33e46c72bfd792aa49fa621a3" target="_top" xlink:title="Create multiple nested groups.">
<polygon fill="white" stroke="#666666" points="707.88,-637.5 565.88,-637.5 565.88,-607 707.88,-607 707.88,-637.5"/>
<text xml:space="preserve" text-anchor="start" x="573.88" y="-624" font-family="Helvetica,sans-Serif" font-size="10.00">BigDataStatMeth::hdf5Group</text>
<text xml:space="preserve" text-anchor="middle" x="636.88" y="-612.75" font-family="Helvetica,sans-Serif" font-size="10.00">::create_HDF5_groups</text>
</a>
</g>
</g>
<!-- Node3&#45;&gt;Node6 -->
<g id="edge5_Node000003_Node000006" class="edge">
<title>Node3&#45;&gt;Node6</title>
<g id="a_edge5_Node000003_Node000006"><a xlink:title=" ">
<path fill="none" stroke="#63b8ff" d="M489.9,-670.59C516.34,-661.84 549.51,-650.85 577.55,-641.57"/>
<polygon fill="#63b8ff" stroke="#63b8ff" points="578.59,-644.91 586.98,-638.44 576.39,-638.26 578.59,-644.91"/>
</a>
</g>
</g>
<!-- Node8 -->
<g id="Node000008" class="node">
<title>Node8</title>
<g id="a_Node000008"><a xlink:href="namespace_big_data_stat_meth.html#a89d901ab4b5e01771f4e3fc7dc84e50e" target="_top" xlink:title="Checks if an HDF5 element (group or dataset) exists.">
<polygon fill="white" stroke="#666666" points="698.5,-784.5 575.25,-784.5 575.25,-754 698.5,-754 698.5,-784.5"/>
<text xml:space="preserve" text-anchor="start" x="583.25" y="-771" font-family="Helvetica,sans-Serif" font-size="10.00">BigDataStatMeth::exists</text>
<text xml:space="preserve" text-anchor="middle" x="636.88" y="-759.75" font-family="Helvetica,sans-Serif" font-size="10.00">_HDF5_element</text>
</a>
</g>
</g>
<!-- Node3&#45;&gt;Node8 -->
<g id="edge7_Node000003_Node000008" class="edge">
<title>Node3&#45;&gt;Node8</title>
<g id="a_edge7_Node000003_Node000008"><a xlink:title=" ">
<path fill="none" stroke="#63b8ff" d="M472.01,-701.86C495.83,-714.2 530.47,-731.42 561.75,-744.25 566.33,-746.13 571.1,-747.98 575.93,-749.77"/>
<polygon fill="#63b8ff" stroke="#63b8ff" points="574.49,-752.97 585.08,-753.07 576.86,-746.38 574.49,-752.97"/>
</a>
</g>
</g>
<!-- Node9 -->
<g id="Node000009" class="node">
<title>Node9</title>
<g id="a_Node000009"><a xlink:href="class_big_data_stat_meth_1_1hdf5_group.html#a59995412538627e6c80f64b552c286f5" target="_top" xlink:title=" ">
<polygon fill="white" stroke="#666666" points="707.88,-882.5 565.88,-882.5 565.88,-852 707.88,-852 707.88,-882.5"/>
<text xml:space="preserve" text-anchor="start" x="573.88" y="-869" font-family="Helvetica,sans-Serif" font-size="10.00">BigDataStatMeth::hdf5Group</text>
<text xml:space="preserve" text-anchor="middle" x="636.88" y="-857.75" font-family="Helvetica,sans-Serif" font-size="10.00">::getGroupName</text>
</a>
</g>
</g>
<!-- Node3&#45;&gt;Node9 -->
<g id="edge9_Node000003_Node000009" class="edge">
<title>Node3&#45;&gt;Node9</title>
<g id="a_edge9_Node000003_Node000009"><a xlink:title=" ">
<path fill="none" stroke="#63b8ff" d="M458.86,-701.7C476.57,-719.06 505.15,-748.58 525.75,-777.25 545.02,-804.07 536.39,-821.1 561.75,-842.25 563.22,-843.48 564.75,-844.64 566.34,-845.75"/>
<polygon fill="#63b8ff" stroke="#63b8ff" points="564.23,-848.57 574.6,-850.73 567.84,-842.57 564.23,-848.57"/>
</a>
</g>
</g>
<!-- Node10 -->
<g id="Node000010" class="node">
<title>Node10</title>
<g id="a_Node000010"><a xlink:href="namespace_big_data_stat_meth.html#a3d06783149029f1df2853c472d401380" target="_top" xlink:title="Removes multiple elements from an HDF5 file.">
<polygon fill="white" stroke="#666666" points="701.5,-833.5 572.25,-833.5 572.25,-803 701.5,-803 701.5,-833.5"/>
<text xml:space="preserve" text-anchor="start" x="580.25" y="-820" font-family="Helvetica,sans-Serif" font-size="10.00">BigDataStatMeth::remove</text>
<text xml:space="preserve" text-anchor="middle" x="636.88" y="-808.75" font-family="Helvetica,sans-Serif" font-size="10.00">_elements</text>
</a>
</g>
</g>
<!-- Node3&#45;&gt;Node10 -->
<g id="edge10_Node000003_Node000010" class="edge">
<title>Node3&#45;&gt;Node10</title>
<g id="a_edge10_Node000003_Node000010"><a xlink:title=" ">
<path fill="none" stroke="#63b8ff" d="M456.12,-701.89C476.74,-724.89 518.3,-767.88 561.75,-793.25 564.55,-794.89 567.48,-796.44 570.48,-797.9"/>
<polygon fill="#63b8ff" stroke="#63b8ff" points="568.97,-801.06 579.53,-801.93 571.82,-794.66 568.97,-801.06"/>
</a>
</g>
</g>
<!-- Node11 -->
<g id="Node000011" class="node">
<title>Node11</title>
<g id="a_Node000011"><a xlink:href="class_big_data_stat_meth_1_1hdf5_dataset.html#acf9843abcb57a0090f1635cc69d95300" target="_top" xlink:title="Write data to the dataset.">
<polygon fill="white" stroke="#666666" points="712,-588.5 561.75,-588.5 561.75,-558 712,-558 712,-588.5"/>
<text xml:space="preserve" text-anchor="start" x="569.75" y="-575" font-family="Helvetica,sans-Serif" font-size="10.00">BigDataStatMeth::hdf5Dataset</text>
<text xml:space="preserve" text-anchor="middle" x="636.88" y="-563.75" font-family="Helvetica,sans-Serif" font-size="10.00">::writeDataset</text>
</a>
</g>
</g>
<!-- Node3&#45;&gt;Node11 -->
<g id="edge11_Node000003_Node000011" class="edge">
<title>Node3&#45;&gt;Node11</title>
<g id="a_edge11_Node000003_Node000011"><a xlink:title=" ">
<path fill="none" stroke="#63b8ff" d="M503.36,-670.65C511.37,-667.04 519.09,-662.63 525.75,-657.25 549.65,-637.95 537.75,-617.42 561.75,-598.25 563.28,-597.03 564.88,-595.86 566.52,-594.75"/>
<polygon fill="#63b8ff" stroke="#63b8ff" points="568.23,-597.81 575.12,-589.75 564.71,-591.76 568.23,-597.81"/>
</a>
</g>
</g>
<!-- Node7 -->
<g id="Node000007" class="node">
<title>Node7</title>
<g id="a_Node000007"><a xlink:href="namespace_big_data_stat_meth.html#abcaa4216cd52f03ebac42e4855ef846b" target="_top" xlink:title="Checks if a path exists in an HDF5 file.">
<polygon fill="white" stroke="#666666" points="905.38,-704.88 761.88,-704.88 761.88,-685.62 905.38,-685.62 905.38,-704.88"/>
<text xml:space="preserve" text-anchor="middle" x="833.62" y="-691.38" font-family="Helvetica,sans-Serif" font-size="10.00">BigDataStatMeth::pathExists</text>
</a>
</g>
</g>
<!-- Node6&#45;&gt;Node7 -->
<g id="edge6_Node000006_Node000007" class="edge">
<title>Node6&#45;&gt;Node7</title>
<g id="a_edge6_Node000006_Node000007"><a xlink:title=" ">
<path fill="none" stroke="#63b8ff" d="M685.46,-637.88C694.31,-640.91 703.46,-644.11 712,-647.25 741.36,-658.03 774.32,-671.23 798.37,-681.05"/>
<polygon fill="#63b8ff" stroke="#63b8ff" points="796.76,-684.18 807.34,-684.73 799.42,-677.7 796.76,-684.18"/>
</a>
</g>
</g>
<!-- Node8&#45;&gt;Node7 -->
<g id="edge8_Node000008_Node000007" class="edge">
<title>Node8&#45;&gt;Node7</title>
<g id="a_edge8_Node000008_Node000007"><a xlink:title=" ">
<path fill="none" stroke="#63b8ff" d="M685.87,-753.53C694.6,-750.54 703.6,-747.37 712,-744.25 741.58,-733.26 774.78,-719.69 798.84,-709.61"/>
<polygon fill="#63b8ff" stroke="#63b8ff" points="799.96,-712.94 807.82,-705.84 797.24,-706.49 799.96,-712.94"/>
</a>
</g>
</g>
<!-- Node12 -->
<g id="Node000012" class="node">
<title>Node12</title>
<g id="a_Node000012"><a xlink:href="class_big_data_stat_meth_1_1hdf5_dataset.html#aba39e56a580d3b1fa7f1619fc72efa3e" target="_top" xlink:title="Close dataset and file.">
<polygon fill="white" stroke="#666666" points="908.75,-539.5 758.5,-539.5 758.5,-509 908.75,-509 908.75,-539.5"/>
<text xml:space="preserve" text-anchor="start" x="766.5" y="-526" font-family="Helvetica,sans-Serif" font-size="10.00">BigDataStatMeth::hdf5Dataset</text>
<text xml:space="preserve" text-anchor="middle" x="833.62" y="-514.75" font-family="Helvetica,sans-Serif" font-size="10.00">::close_dataset_file</text>
</a>
</g>
</g>
<!-- Node11&#45;&gt;Node12 -->
<g id="edge12_Node000011_Node000012" class="edge">
<title>Node11&#45;&gt;Node12</title>
<g id="a_edge12_Node000011_Node000012"><a xlink:title=" ">
<path fill="none" stroke="#63b8ff" d="M700.3,-557.54C719.08,-552.82 739.86,-547.59 759.28,-542.7"/>
<polygon fill="#63b8ff" stroke="#63b8ff" points="759.91,-546.15 768.75,-540.32 758.2,-539.37 759.91,-546.15"/>
</a>
</g>
</g>
<!-- Node13 -->
<g id="Node000013" class="node">
<title>Node13</title>
<g id="a_Node000013"><a xlink:href="class_big_data_stat_meth_1_1hdf5_dataset.html#a94d81b72e92cb0230b4e64f37ea7d2e3" target="_top" xlink:title="Convert DataFrame to range list.">
<polygon fill="white" stroke="#666666" points="919.25,-588.5 748,-588.5 748,-558 919.25,-558 919.25,-588.5"/>
<text xml:space="preserve" text-anchor="start" x="756" y="-575" font-family="Helvetica,sans-Serif" font-size="10.00">BigDataStatMeth::hdf5Dataset</text>
<text xml:space="preserve" text-anchor="middle" x="833.62" y="-563.75" font-family="Helvetica,sans-Serif" font-size="10.00">::convert_DataFrame_to_RangeList</text>
</a>
</g>
</g>
<!-- Node11&#45;&gt;Node13 -->
<g id="edge13_Node000011_Node000013" class="edge">
<title>Node11&#45;&gt;Node13</title>
<g id="a_edge13_Node000011_Node000013"><a xlink:title=" ">
<path fill="none" stroke="#63b8ff" d="M712.34,-573.25C720.22,-573.25 728.31,-573.25 736.4,-573.25"/>
<polygon fill="#63b8ff" stroke="#63b8ff" points="736.28,-576.75 746.28,-573.25 736.28,-569.75 736.28,-576.75"/>
</a>
</g>
</g>
<!-- Node14&#45;&gt;Node3 -->
<g id="edge15_Node000014_Node000003" class="edge">
<title>Node14&#45;&gt;Node3</title>
<g id="a_edge15_Node000014_Node000003"><a xlink:title=" ">
<path fill="none" stroke="#63b8ff" d="M255.42,-468.54C271.95,-499.18 312.07,-569.41 357.5,-619.25 372.63,-635.86 392.07,-651.76 408.35,-663.9"/>
<polygon fill="#63b8ff" stroke="#63b8ff" points="406.14,-666.62 416.28,-669.7 410.27,-660.97 406.14,-666.62"/>
</a>
</g>
</g>
<!-- Node15 -->
<g id="Node000015" class="node">
<title>Node15</title>
<g id="a_Node000015"><a xlink:href="namespace_big_data_stat_meth.html#aa11cdd9bdca5cff2819a45c2900506c7" target="_top" xlink:title="Extracts the diagonal elements from a matrix stored in HDF5 format.">
<polygon fill="white" stroke="#666666" points="525.75,-490.5 357.5,-490.5 357.5,-460 525.75,-460 525.75,-490.5"/>
<text xml:space="preserve" text-anchor="start" x="365.5" y="-477" font-family="Helvetica,sans-Serif" font-size="10.00">BigDataStatMeth::getDiagonalfrom</text>
<text xml:space="preserve" text-anchor="middle" x="441.62" y="-465.75" font-family="Helvetica,sans-Serif" font-size="10.00">Matrix</text>
</a>
</g>
</g>
<!-- Node14&#45;&gt;Node15 -->
<g id="edge16_Node000014_Node000015" class="edge">
<title>Node14&#45;&gt;Node15</title>
<g id="a_edge16_Node000014_Node000015"><a xlink:title=" ">
<path fill="none" stroke="#63b8ff" d="M320.43,-461.57C328.76,-462.51 337.33,-463.49 345.88,-464.46"/>
<polygon fill="#63b8ff" stroke="#63b8ff" points="345.26,-467.92 355.59,-465.57 346.05,-460.96 345.26,-467.92"/>
</a>
</g>
</g>
<!-- Node14&#45;&gt;Node16 -->
<g id="edge21_Node000014_Node000016" class="edge">
<title>Node14&#45;&gt;Node16</title>
<g id="a_edge21_Node000014_Node000016"><a xlink:title=" ">
<path fill="none" stroke="#63b8ff" d="M309.91,-437.51C366.93,-422.48 453.1,-398.05 525.75,-370.25 549.46,-361.18 575.15,-349.18 595.76,-338.99"/>
<polygon fill="#63b8ff" stroke="#63b8ff" points="597.3,-342.13 604.67,-334.53 594.16,-335.87 597.3,-342.13"/>
</a>
</g>
</g>
<!-- Node14&#45;&gt;Node18 -->
<g id="edge20_Node000014_Node000018" class="edge">
<title>Node14&#45;&gt;Node18</title>
<g id="a_edge20_Node000014_Node000018"><a xlink:title=" ">
<path fill="none" stroke="#63b8ff" d="M265.53,-437.72C286.92,-419.71 323.82,-389.51 357.5,-366.25 358.94,-365.26 525.65,-265.31 600.36,-220.53"/>
<polygon fill="#63b8ff" stroke="#63b8ff" points="601.77,-223.77 608.55,-215.63 598.17,-217.77 601.77,-223.77"/>
</a>
</g>
</g>
<!-- Node14&#45;&gt;Node19 -->
<g id="edge22_Node000014_Node000019" class="edge">
<title>Node14&#45;&gt;Node19</title>
<g id="a_edge22_Node000014_Node000019"><a xlink:title=" ">
<path fill="none" stroke="#63b8ff" d="M259.16,-468.83C277.35,-491.43 314.66,-532.33 357.5,-548.25 430.54,-575.4 521.53,-559.03 579.18,-543.06"/>
<polygon fill="#63b8ff" stroke="#63b8ff" points="579.8,-546.53 588.45,-540.41 577.87,-539.8 579.8,-546.53"/>
</a>
</g>
</g>
<!-- Node15&#45;&gt;Node16 -->
<g id="edge17_Node000015_Node000016" class="edge">
<title>Node15&#45;&gt;Node16</title>
<g id="a_edge17_Node000015_Node000016"><a xlink:title=" ">
<path fill="none" stroke="#63b8ff" d="M500.43,-459.54C509.29,-455.89 518.04,-451.5 525.75,-446.25 566.49,-418.5 601.23,-371.97 620.27,-343.31"/>
<polygon fill="#63b8ff" stroke="#63b8ff" points="623,-345.54 625.51,-335.25 617.13,-341.73 623,-345.54"/>
</a>
</g>
</g>
<!-- Node15&#45;&gt;Node17 -->
<g id="edge18_Node000015_Node000017" class="edge">
<title>Node15&#45;&gt;Node17</title>
<g id="a_edge18_Node000015_Node000017"><a xlink:title=" ">
<path fill="none" stroke="#63b8ff" d="M525.98,-475.25C533.88,-475.25 541.89,-475.25 549.81,-475.25"/>
<polygon fill="#63b8ff" stroke="#63b8ff" points="549.8,-478.75 559.8,-475.25 549.8,-471.75 549.8,-478.75"/>
</a>
</g>
</g>
<!-- Node17&#45;&gt;Node12 -->
<g id="edge19_Node000017_Node000012" class="edge">
<title>Node17&#45;&gt;Node12</title>
<g id="a_edge19_Node000017_Node000012"><a xlink:title=" ">
<path fill="none" stroke="#63b8ff" d="M700.3,-490.96C719.08,-495.68 739.86,-500.91 759.28,-505.8"/>
<polygon fill="#63b8ff" stroke="#63b8ff" points="758.2,-509.13 768.75,-508.18 759.91,-502.35 758.2,-509.13"/>
</a>
</g>
</g>
<!-- Node19&#45;&gt;Node12 -->
<g id="edge24_Node000019_Node000012" class="edge">
<title>Node19&#45;&gt;Node12</title>
<g id="a_edge24_Node000019_Node000012"><a xlink:title=" ">
<path fill="none" stroke="#63b8ff" d="M712.34,-524.25C723.61,-524.25 735.32,-524.25 746.81,-524.25"/>
<polygon fill="#63b8ff" stroke="#63b8ff" points="746.69,-527.75 756.69,-524.25 746.69,-520.75 746.69,-527.75"/>
</a>
</g>
</g>
<!-- Node19&#45;&gt;Node13 -->
<g id="edge25_Node000019_Node000013" class="edge">
<title>Node19&#45;&gt;Node13</title>
<g id="a_edge25_Node000019_Node000013"><a xlink:title=" ">
<path fill="none" stroke="#63b8ff" d="M700.3,-539.96C719.08,-544.68 739.86,-549.91 759.28,-554.8"/>
<polygon fill="#63b8ff" stroke="#63b8ff" points="758.2,-558.13 768.75,-557.18 759.91,-551.35 758.2,-558.13"/>
</a>
</g>
</g>
<!-- Node20 -->
<g id="Node000020" class="node">
<title>Node20</title>
<g id="a_Node000020"><a xlink:href="class_big_data_stat_meth_1_1hdf5_dataset.html#a64177ae924792ea9e557febaa95ed400" target="_top" xlink:title="Close the dataset.">
<polygon fill="white" stroke="#666666" points="908.75,-453.5 758.5,-453.5 758.5,-423 908.75,-423 908.75,-453.5"/>
<text xml:space="preserve" text-anchor="start" x="766.5" y="-440" font-family="Helvetica,sans-Serif" font-size="10.00">BigDataStatMeth::hdf5Dataset</text>
<text xml:space="preserve" text-anchor="middle" x="833.62" y="-428.75" font-family="Helvetica,sans-Serif" font-size="10.00">::close_dataset</text>
</a>
</g>
</g>
<!-- Node19&#45;&gt;Node20 -->
<g id="edge23_Node000019_Node000020" class="edge">
<title>Node19&#45;&gt;Node20</title>
<g id="a_edge23_Node000019_Node000020"><a xlink:title=" ">
<path fill="none" stroke="#63b8ff" d="M693.85,-508.6C700.18,-505.9 706.37,-502.8 712,-499.25 731.41,-487.02 728.29,-474 748,-462.25 750.05,-461.03 752.16,-459.87 754.33,-458.76"/>
<polygon fill="#63b8ff" stroke="#63b8ff" points="755.74,-461.96 763.38,-454.62 752.83,-455.6 755.74,-461.96"/>
</a>
</g>
</g>
<!-- Node21 -->
<g id="Node000021" class="node">
<title>Node21</title>
<g id="a_Node000021"><a xlink:href="namespace_big_data_stat_meth.html#a2692707b3ea4aaafa09d07afaf632437" target="_top" xlink:title="Transposes a 2D matrix.">
<polygon fill="white" stroke="#666666" points="903.5,-490.88 763.75,-490.88 763.75,-471.62 903.5,-471.62 903.5,-490.88"/>
<text xml:space="preserve" text-anchor="middle" x="833.62" y="-477.38" font-family="Helvetica,sans-Serif" font-size="10.00">BigDataStatMeth::transpose</text>
</a>
</g>
</g>
<!-- Node19&#45;&gt;Node21 -->
<g id="edge26_Node000019_Node000021" class="edge">
<title>Node19&#45;&gt;Node21</title>
<g id="a_edge26_Node000019_Node000021"><a xlink:title=" ">
<path fill="none" stroke="#63b8ff" d="M709.01,-508.54C730.92,-503.71 754.75,-498.44 775.58,-493.84"/>
<polygon fill="#63b8ff" stroke="#63b8ff" points="776.33,-497.26 785.34,-491.69 774.82,-490.43 776.33,-497.26"/>
</a>
</g>
</g>
<!-- Node24&#45;&gt;Node9 -->
<g id="edge30_Node000024_Node000009" class="edge">
<title>Node24&#45;&gt;Node9</title>
<g id="a_edge30_Node000024_Node000009"><a xlink:title=" ">
<path fill="none" stroke="#63b8ff" d="M488.14,-816.99C510.33,-824.64 537.42,-833.96 561.75,-842.25 567.16,-844.09 572.78,-846 578.42,-847.91"/>
<polygon fill="#63b8ff" stroke="#63b8ff" points="577.17,-851.18 587.77,-851.07 579.42,-844.55 577.17,-851.18"/>
</a>
</g>
</g>
<!-- Node25&#45;&gt;Node16 -->
<g id="edge33_Node000025_Node000016" class="edge">
<title>Node25&#45;&gt;Node16</title>
<g id="a_edge33_Node000025_Node000016"><a xlink:title=" ">
<path fill="none" stroke="#63b8ff" d="M508.89,-165.85C514.84,-168.52 520.56,-171.63 525.75,-175.25 547.61,-190.52 545.55,-202.07 561.75,-223.25 580.13,-247.27 601.39,-274.46 616.42,-293.58"/>
<polygon fill="#63b8ff" stroke="#63b8ff" points="613.58,-295.64 622.52,-301.33 619.08,-291.31 613.58,-295.64"/>
</a>
</g>
</g>
<!-- Node25&#45;&gt;Node18 -->
<g id="edge32_Node000025_Node000018" class="edge">
<title>Node25&#45;&gt;Node18</title>
<g id="a_edge32_Node000025_Node000018"><a xlink:title=" ">
<path fill="none" stroke="#63b8ff" d="M504.57,-165.96C523.12,-170.66 543.63,-175.86 562.83,-180.73"/>
<polygon fill="#63b8ff" stroke="#63b8ff" points="561.93,-184.11 572.48,-183.18 563.65,-177.33 561.93,-184.11"/>
</a>
</g>
</g>
<!-- Node26&#45;&gt;Node16 -->
<g id="edge39_Node000026_Node000016" class="edge">
<title>Node26&#45;&gt;Node16</title>
<g id="a_edge39_Node000026_Node000016"><a xlink:title=" ">
<path fill="none" stroke="#63b8ff" d="M467.89,-214.81C501.89,-235.74 562.52,-273.08 600.89,-296.7"/>
<polygon fill="#63b8ff" stroke="#63b8ff" points="598.97,-299.63 609.32,-301.9 602.64,-293.67 598.97,-299.63"/>
</a>
</g>
</g>
<!-- Node26&#45;&gt;Node18 -->
<g id="edge38_Node000026_Node000018" class="edge">
<title>Node26&#45;&gt;Node18</title>
<g id="a_edge38_Node000026_Node000018"><a xlink:title=" ">
<path fill="none" stroke="#63b8ff" d="M510.49,-199.25C523.19,-199.25 536.62,-199.25 549.79,-199.25"/>
<polygon fill="#63b8ff" stroke="#63b8ff" points="549.75,-202.75 559.75,-199.25 549.75,-195.75 549.75,-202.75"/>
</a>
</g>
</g>
<!-- Node27&#45;&gt;Node16 -->
<g id="edge43_Node000027_Node000016" class="edge">
<title>Node27&#45;&gt;Node16</title>
<g id="a_edge43_Node000027_Node000016"><a xlink:title=" ">
<path fill="none" stroke="#63b8ff" d="M321.82,-306.12C387.04,-308.64 481.83,-312.3 550.19,-314.94"/>
<polygon fill="#63b8ff" stroke="#63b8ff" points="549.71,-318.43 559.84,-315.31 549.98,-311.43 549.71,-318.43"/>
</a>
</g>
</g>
<!-- Node27&#45;&gt;Node17 -->
<g id="edge44_Node000027_Node000017" class="edge">
<title>Node27&#45;&gt;Node17</title>
<g id="a_edge44_Node000027_Node000017"><a xlink:title=" ">
<path fill="none" stroke="#63b8ff" d="M282.88,-318.97C353.46,-350.22 511.32,-420.11 589.78,-454.84"/>
<polygon fill="#63b8ff" stroke="#63b8ff" points="588.37,-458.04 598.93,-458.89 591.2,-451.64 588.37,-458.04"/>
</a>
</g>
</g>
<!-- Node27&#45;&gt;Node18 -->
<g id="edge42_Node000027_Node000018" class="edge">
<title>Node27&#45;&gt;Node18</title>
<g id="a_edge42_Node000027_Node000018"><a xlink:title=" ">
<path fill="none" stroke="#63b8ff" d="M305.96,-287.57C375.62,-268.92 491.77,-237.83 566.04,-217.94"/>
<polygon fill="#63b8ff" stroke="#63b8ff" points="566.92,-221.33 575.67,-215.37 565.11,-214.57 566.92,-221.33"/>
</a>
</g>
</g>
<!-- Node27&#45;&gt;Node26 -->
<g id="edge48_Node000027_Node000026" class="edge">
<title>Node27&#45;&gt;Node26</title>
<g id="a_edge48_Node000027_Node000026"><a xlink:title=" ">
<path fill="none" stroke="#63b8ff" d="M271.58,-287.61C286.15,-278.11 305,-265.65 321.5,-254.25 337.74,-243.03 340,-237.37 357.5,-228.25 363.97,-224.88 370.91,-221.76 377.92,-218.91"/>
<polygon fill="#63b8ff" stroke="#63b8ff" points="378.73,-222.35 386.8,-215.48 376.21,-215.82 378.73,-222.35"/>
</a>
</g>
</g>
<!-- Node28 -->
<g id="Node000028" class="node">
<title>Node28</title>
<g id="a_Node000028"><a xlink:href="namespace_big_data_stat_meth.html#ab5429d9d25ff38d72d77e6dca59947b0" target="_top" xlink:title="Sets the diagonal elements of a matrix stored in HDF5 format.">
<polygon fill="white" stroke="#666666" points="516,-539.5 367.25,-539.5 367.25,-509 516,-509 516,-539.5"/>
<text xml:space="preserve" text-anchor="start" x="375.25" y="-526" font-family="Helvetica,sans-Serif" font-size="10.00">BigDataStatMeth::setDiagonal</text>
<text xml:space="preserve" text-anchor="middle" x="441.62" y="-514.75" font-family="Helvetica,sans-Serif" font-size="10.00">Matrix</text>
</a>
</g>
</g>
<!-- Node27&#45;&gt;Node28 -->
<g id="edge45_Node000027_Node000028" class="edge">
<title>Node27&#45;&gt;Node28</title>
<g id="a_edge45_Node000027_Node000028"><a xlink:title=" ">
<path fill="none" stroke="#63b8ff" d="M257.03,-319C271.46,-342.69 299.34,-389.01 321.5,-429.25 338.38,-459.89 330.61,-476.87 357.5,-499.25 359.01,-500.51 360.59,-501.7 362.22,-502.84"/>
<polygon fill="#63b8ff" stroke="#63b8ff" points="360.35,-505.8 370.73,-507.93 363.94,-499.79 360.35,-505.8"/>
</a>
</g>
</g>
<!-- Node28&#45;&gt;Node17 -->
<g id="edge46_Node000028_Node000017" class="edge">
<title>Node28&#45;&gt;Node17</title>
<g id="a_edge46_Node000028_Node000017"><a xlink:title=" ">
<path fill="none" stroke="#63b8ff" d="M504.57,-508.54C523.12,-503.84 543.63,-498.64 562.83,-493.77"/>
<polygon fill="#63b8ff" stroke="#63b8ff" points="563.65,-497.17 572.48,-491.32 561.93,-490.39 563.65,-497.17"/>
</a>
</g>
</g>
<!-- Node28&#45;&gt;Node19 -->
<g id="edge47_Node000028_Node000019" class="edge">
<title>Node28&#45;&gt;Node19</title>
<g id="a_edge47_Node000028_Node000019"><a xlink:title=" ">
<path fill="none" stroke="#63b8ff" d="M516.24,-524.25C527.36,-524.25 538.91,-524.25 550.25,-524.25"/>
<polygon fill="#63b8ff" stroke="#63b8ff" points="549.99,-527.75 559.99,-524.25 549.99,-520.75 549.99,-527.75"/>
</a>
</g>
</g>
</g>
</svg>

<g id="navigator" transform="translate(0 0)" fill="#404254">
  <rect fill="#f2f5e9" fill-opacity="0.5" stroke="#606060" stroke-width=".5" x="0" y="0" width="60" height="60"/>
  <use id="zoomplus" xlink:href="#zoomPlus" x="17" y="9" onmousedown="handleZoom(evt,'in')"/>
  <use id="zoomminus" xlink:href="#zoomMin" x="42" y="9" onmousedown="handleZoom(evt,'out')"/>
  <use id="reset" xlink:href="#resetDef" x="30" y="36" onmousedown="handleReset()"/>
   <use id="arrowup" xlink:href="#arrowUp" x="0" y="0" onmousedown="handlePan(0,-1)"/>
  <use id="arrowright" xlink:href="#arrowRight" x="0" y="0" onmousedown="handlePan(1,0)"/>
  <use id="arrowdown" xlink:href="#arrowDown" x="0" y="0" onmousedown="handlePan(0,1)"/>
  <use id="arrowleft" xlink:href="#arrowLeft" x="0" y="0" onmousedown="handlePan(-1,0)"/>
</g>
<svg viewBox="0 0 15 15" width="100%" height="30px" preserveAspectRatio="xMaxYMin meet">
 <g id="arrow_out" transform="scale(0.3 0.3)">
  <a xlink:href="namespace_big_data_stat_meth_1_1_diagonal_ops_a23571e72810e038637b95738d3e7b3fe_cgraph_org.svg" target="_base">
   <rect id="button" ry="5" rx="5" y="6" x="6" height="38" width="38"
        fill="#f2f5e9" fill-opacity="0.5" stroke="#606060" stroke-width="1.0"/>
   <path id="arrow"
     d="M 11.500037,31.436501 C 11.940474,20.09759 22.043105,11.32322 32.158766,21.979434 L 37.068811,17.246167 C 37.068811,17.246167 37.088388,32 37.088388,32 L 22.160133,31.978069 C 22.160133,31.978069 26.997745,27.140456 26.997745,27.140456 C 18.528582,18.264221 13.291696,25.230495 11.500037,31.436501 z"
     style="fill:#404040;"/>
  </a>
 </g>
</svg>

<style type='text/css'>
<![CDATA[
[data-mouse-over-selected='false'] { opacity: 0.7; }
[data-mouse-over-selected='true']  { opacity: 1.0; }
]]>
</style>
<script type="application/ecmascript"><![CDATA[
document.addEventListener('DOMContentLoaded', (event) => {
  highlightEdges();
  highlightAdjacentNodes();
});
]]></script>
</svg>
