<?xml version="1.0" encoding="UTF-8" standalone="no"?>
<!DOCTYPE svg PUBLIC "-//W3C//DTD SVG 1.1//EN"
 "http://www.w3.org/Graphics/SVG/1.1/DTD/svg11.dtd">
<!-- Generated by graphviz version 14.0.0 (20250921.2048)
 -->
<!-- Title: BigDataStatMeth::DiagonalOps::scalarOperation Pages: 1 -->
<!--zoomable 812 -->

<svg id="main" version="1.1" xmlns="http://www.w3.org/2000/svg" xmlns:xlink="http://www.w3.org/1999/xlink" xml:space="preserve" onload="init(evt)">

<style type="text/css"><![CDATA[
.node, .edge {opacity: 0.7;}
.node.selected, .edge.selected {opacity: 1;}
.edge:hover path { stroke: red; }
.edge:hover polygon { stroke: red; fill: red; }
]]></style>

<defs>
  <circle id="rim" cx="0" cy="0" r="7"/>
  <circle id="rim2" cx="0" cy="0" r="3.5"/>
  <g id="zoomPlus">
    <use xlink:href="#rim" fill="#404040"><set attributeName="fill" to="#808080" begin="zoomplus.mouseover" end="zoomplus.mouseout"/></use>
    <path d="M-4,0h8M0,-4v8" fill="none" stroke="white" stroke-width="1.5" pointer-events="none"/>
  </g>
  <g id="zoomMin">
    <use xlink:href="#rim" fill="#404040"><set attributeName="fill" to="#808080" begin="zoomminus.mouseover" end="zoomminus.mouseout"/></use>
    <path d="M-4,0h8" fill="none" stroke="white" stroke-width="1.5" pointer-events="none"/>
  </g>
  <g id="arrowUp" transform="translate(30 24)">
    <use xlink:href="#rim"/>
    <path pointer-events="none" fill="none" stroke="white" stroke-width="1.5" d="M0,-3.0v7 M-2.5,-0.5L0,-3.0L2.5,-0.5"/>
  </g>
  <g id="arrowRight" transform="rotate(90) translate(36 -43)">
    <use xlink:href="#rim"/>
    <path pointer-events="none" fill="none" stroke="white" stroke-width="1.5" d="M0,-3.0v7 M-2.5,-0.5L0,-3.0L2.5,-0.5"/>
  </g>
  <g id="arrowDown" transform="rotate(180) translate(-30 -48)">
    <use xlink:href="#rim"/>
    <path pointer-events="none" fill="none" stroke="white" stroke-width="1.5" d="M0,-3.0v7 M-2.5,-0.5L0,-3.0L2.5,-0.5"/>
  </g>
  <g id="arrowLeft" transform="rotate(270) translate(-36 17)">
    <use xlink:href="#rim"/>
    <path pointer-events="none" fill="none" stroke="white" stroke-width="1.5" d="M0,-3.0v7 M-2.5,-0.5L0,-3.0L2.5,-0.5"/>
  </g>
  <g id="resetDef">
    <use xlink:href="#rim2" fill="#404040"><set attributeName="fill" to="#808080" begin="reset.mouseover" end="reset.mouseout"/></use>
  </g>
</defs>
<script type="application/ecmascript">
var viewWidth = 927;
var viewHeight = 812;
var sectionId = 'dynsection-10';
</script>
<script type="application/ecmascript" xlink:href="../../../../assets/svg.min.js"/>
<svg id="graph" class="graph">
<g id="viewport">
<title>BigDataStatMeth::DiagonalOps::scalarOperation</title>
<!-- Node1 -->
<g id="Node000001" class="node">
<title>Node1</title>
<g id="a_Node000001"><a xlink:title="Perform scalar operations on diagonal elements.">
<polygon fill="#999999" stroke="#666666" points="135.25,-410.54 0,-410.54 0,-380.04 135.25,-380.04 135.25,-410.54"/>
<text xml:space="preserve" text-anchor="start" x="8" y="-397.04" font-family="Helvetica,sans-Serif" font-size="10.00">BigDataStatMeth::Diagonal</text>
<text xml:space="preserve" text-anchor="middle" x="67.62" y="-385.79" font-family="Helvetica,sans-Serif" font-size="10.00">Ops::scalarOperation</text>
</a>
</g>
</g>
<!-- Node2 -->
<g id="Node000002" class="node">
<title>Node2</title>
<g id="a_Node000002"><a xlink:href="class_big_data_stat_meth_1_1hdf5_dataset.html#a374a6cadcadfc23c1f5df858d31e20df" target="_top" xlink:title="Create a new dataset with optional compression.">
<polygon fill="white" stroke="#666666" points="516.75,-693.54 366.5,-693.54 366.5,-663.04 516.75,-663.04 516.75,-693.54"/>
<text xml:space="preserve" text-anchor="start" x="374.5" y="-680.04" font-family="Helvetica,sans-Serif" font-size="10.00">BigDataStatMeth::hdf5Dataset</text>
<text xml:space="preserve" text-anchor="middle" x="441.62" y="-668.79" font-family="Helvetica,sans-Serif" font-size="10.00">::createDataset</text>
</a>
</g>
</g>
<!-- Node1&#45;&gt;Node2 -->
<g id="edge1_Node000001_Node000002" class="edge">
<title>Node1&#45;&gt;Node2</title>
<g id="a_edge1_Node000001_Node000002"><a xlink:title=" ">
<path fill="none" stroke="#63b8ff" d="M69.63,-410.79C73.47,-456.1 91.37,-588.93 171.25,-649.29 223.06,-688.43 297.32,-693.79 354.76,-690.42"/>
<polygon fill="#63b8ff" stroke="#63b8ff" points="354.77,-693.93 364.5,-689.74 354.28,-686.94 354.77,-693.93"/>
</a>
</g>
</g>
<!-- Node13 -->
<g id="Node000013" class="node">
<title>Node13</title>
<g id="a_Node000013"><a xlink:href="namespace_big_data_stat_meth_1_1_diagonal_ops.html#abb768c416a49a397ddea8ff728203d1a" target="_top" xlink:title="Extract diagonal from matrix and save as vector dataset.">
<polygon fill="white" stroke="#666666" points="320,-472.54 172.75,-472.54 172.75,-442.04 320,-442.04 320,-472.54"/>
<text xml:space="preserve" text-anchor="start" x="180.75" y="-459.04" font-family="Helvetica,sans-Serif" font-size="10.00">BigDataStatMeth::Diagonal</text>
<text xml:space="preserve" text-anchor="middle" x="246.38" y="-447.79" font-family="Helvetica,sans-Serif" font-size="10.00">Ops::extractDiagonalToVector</text>
</a>
</g>
</g>
<!-- Node1&#45;&gt;Node13 -->
<g id="edge13_Node000001_Node000013" class="edge">
<title>Node1&#45;&gt;Node13</title>
<g id="a_edge13_Node000001_Node000013"><a xlink:title=" ">
<path fill="none" stroke="#63b8ff" d="M113.23,-410.93C136.48,-419.09 165.14,-429.14 189.82,-437.8"/>
<polygon fill="#63b8ff" stroke="#63b8ff" points="188.46,-441.03 199.05,-441.04 190.77,-434.42 188.46,-441.03"/>
</a>
</g>
</g>
<!-- Node14 -->
<g id="Node000014" class="node">
<title>Node14</title>
<g id="a_Node000014"><a xlink:href="class_big_data_stat_meth_1_1hdf5_dataset.html#af3ab7117b94164ab629673cacd896dd9" target="_top" xlink:title="Get the current compression level for this dataset instance.">
<polygon fill="white" stroke="#666666" points="516.75,-558.54 366.5,-558.54 366.5,-528.04 516.75,-528.04 516.75,-558.54"/>
<text xml:space="preserve" text-anchor="start" x="374.5" y="-545.04" font-family="Helvetica,sans-Serif" font-size="10.00">BigDataStatMeth::hdf5Dataset</text>
<text xml:space="preserve" text-anchor="middle" x="441.62" y="-533.79" font-family="Helvetica,sans-Serif" font-size="10.00">::getCompressionLevel</text>
</a>
</g>
</g>
<!-- Node1&#45;&gt;Node14 -->
<g id="edge28_Node000001_Node000014" class="edge">
<title>Node1&#45;&gt;Node14</title>
<g id="a_edge28_Node000001_Node000014"><a xlink:title=" ">
<path fill="none" stroke="#63b8ff" d="M82.64,-410.89C101.04,-430.39 135.25,-463.37 171.25,-481.29 229.03,-510.04 300.44,-525.7 355.22,-534.08"/>
<polygon fill="#63b8ff" stroke="#63b8ff" points="354.39,-537.49 364.79,-535.49 355.41,-530.57 354.39,-537.49"/>
</a>
</g>
</g>
<!-- Node16 -->
<g id="Node000016" class="node">
<title>Node16</title>
<g id="a_Node000016"><a xlink:href="class_big_data_stat_meth_1_1hdf5_dataset.html#a6cbce676967d0cc4b50e2cc5282c322b" target="_top" xlink:title="Get number of rows in internal format.">
<polygon fill="white" stroke="#666666" points="712,-460.54 561.75,-460.54 561.75,-430.04 712,-430.04 712,-460.54"/>
<text xml:space="preserve" text-anchor="start" x="569.75" y="-447.04" font-family="Helvetica,sans-Serif" font-size="10.00">BigDataStatMeth::hdf5Dataset</text>
<text xml:space="preserve" text-anchor="middle" x="636.88" y="-435.79" font-family="Helvetica,sans-Serif" font-size="10.00">::nrows</text>
</a>
</g>
</g>
<!-- Node1&#45;&gt;Node16 -->
<g id="edge38_Node000001_Node000016" class="edge">
<title>Node1&#45;&gt;Node16</title>
<g id="a_edge38_Node000001_Node000016"><a xlink:title=" ">
<path fill="none" stroke="#63b8ff" d="M73.87,-410.61C85.82,-443.19 118.21,-519.69 171.25,-560.29 239.89,-612.82 271.98,-603.71 357.5,-616.29 431.48,-627.17 466.88,-662.4 525.75,-616.29 578.36,-575.07 516.51,-519.48 561.75,-470.29 562.47,-469.5 563.22,-468.74 564,-468"/>
<polygon fill="#63b8ff" stroke="#63b8ff" points="566.11,-470.79 571.87,-461.9 561.82,-465.25 566.11,-470.79"/>
</a>
</g>
</g>
<!-- Node17 -->
<g id="Node000017" class="node">
<title>Node17</title>
<g id="a_Node000017"><a xlink:href="class_big_data_stat_meth_1_1hdf5_dataset.html#a23bea87165b8ef6b944709c5b2cbd0cf" target="_top" xlink:title=" ">
<polygon fill="white" stroke="#666666" points="712,-148.54 561.75,-148.54 561.75,-118.04 712,-118.04 712,-148.54"/>
<text xml:space="preserve" text-anchor="start" x="569.75" y="-135.04" font-family="Helvetica,sans-Serif" font-size="10.00">BigDataStatMeth::hdf5Dataset</text>
<text xml:space="preserve" text-anchor="middle" x="636.88" y="-123.79" font-family="Helvetica,sans-Serif" font-size="10.00">::readDatasetBlock</text>
</a>
</g>
</g>
<!-- Node1&#45;&gt;Node17 -->
<g id="edge39_Node000001_Node000017" class="edge">
<title>Node1&#45;&gt;Node17</title>
<g id="a_edge39_Node000001_Node000017"><a xlink:title=" ">
<path fill="none" stroke="#63b8ff" d="M71.56,-379.67C80.01,-338.46 107.99,-225.34 171.25,-157.29 234.79,-88.93 266.85,-82.48 357.5,-60.29 430.13,-42.51 458.87,-26.84 525.75,-60.29 549.6,-72.21 540.14,-92.66 561.75,-108.29 563.68,-109.69 565.7,-111.01 567.78,-112.26"/>
<polygon fill="#63b8ff" stroke="#63b8ff" points="566.1,-115.33 576.57,-116.92 569.37,-109.15 566.1,-115.33"/>
</a>
</g>
</g>
<!-- Node18 -->
<g id="Node000018" class="node">
<title>Node18</title>
<g id="a_Node000018"><a xlink:href="class_big_data_stat_meth_1_1hdf5_dataset.html#a8cce59e2884ad1ee3b67f281566780af" target="_top" xlink:title="Inherit the compression level from an input dataset if not already set.">
<polygon fill="white" stroke="#666666" points="516.75,-348.54 366.5,-348.54 366.5,-318.04 516.75,-318.04 516.75,-348.54"/>
<text xml:space="preserve" text-anchor="start" x="374.5" y="-335.04" font-family="Helvetica,sans-Serif" font-size="10.00">BigDataStatMeth::hdf5Dataset</text>
<text xml:space="preserve" text-anchor="middle" x="441.62" y="-323.79" font-family="Helvetica,sans-Serif" font-size="10.00">::inheritCompressionLevel</text>
</a>
</g>
</g>
<!-- Node1&#45;&gt;Node18 -->
<g id="edge33_Node000001_Node000018" class="edge">
<title>Node1&#45;&gt;Node18</title>
<g id="a_edge33_Node000001_Node000018"><a xlink:title=" ">
<path fill="none" stroke="#63b8ff" d="M135.63,-405.22C187.82,-410.32 261.28,-411.62 321.5,-390.29 340.61,-383.52 339.7,-371.97 357.5,-362.29 363.58,-358.98 370.11,-355.93 376.74,-353.16"/>
<polygon fill="#63b8ff" stroke="#63b8ff" points="377.77,-356.52 385.78,-349.59 375.2,-350.01 377.77,-356.52"/>
</a>
</g>
</g>
<!-- Node19 -->
<g id="Node000019" class="node">
<title>Node19</title>
<g id="a_Node000019"><a xlink:href="class_big_data_stat_meth_1_1hdf5_dataset.html#aa743c8c46d7ff3bb2f894145dd07fd8a" target="_top" xlink:title="Get number of columns in internal format.">
<polygon fill="white" stroke="#666666" points="712,-299.54 561.75,-299.54 561.75,-269.04 712,-269.04 712,-299.54"/>
<text xml:space="preserve" text-anchor="start" x="569.75" y="-286.04" font-family="Helvetica,sans-Serif" font-size="10.00">BigDataStatMeth::hdf5Dataset</text>
<text xml:space="preserve" text-anchor="middle" x="636.88" y="-274.79" font-family="Helvetica,sans-Serif" font-size="10.00">::ncols</text>
</a>
</g>
</g>
<!-- Node1&#45;&gt;Node19 -->
<g id="edge37_Node000001_Node000019" class="edge">
<title>Node1&#45;&gt;Node19</title>
<g id="a_edge37_Node000001_Node000019"><a xlink:title=" ">
<path fill="none" stroke="#63b8ff" d="M74.76,-379.83C87.53,-350.11 120.08,-285.66 171.25,-260.29 306.18,-193.37 491.06,-236.67 581.53,-265.13"/>
<polygon fill="#63b8ff" stroke="#63b8ff" points="580.32,-268.41 590.91,-268.14 582.46,-261.75 580.32,-268.41"/>
</a>
</g>
</g>
<!-- Node20 -->
<g id="Node000020" class="node">
<title>Node20</title>
<g id="a_Node000020"><a xlink:href="class_big_data_stat_meth_1_1hdf5_dataset.html#af606176d84a63561b65702b6fde3a583" target="_top" xlink:title="Write block of data with optional transposition.">
<polygon fill="white" stroke="#666666" points="712,-99.54 561.75,-99.54 561.75,-69.04 712,-69.04 712,-99.54"/>
<text xml:space="preserve" text-anchor="start" x="569.75" y="-86.04" font-family="Helvetica,sans-Serif" font-size="10.00">BigDataStatMeth::hdf5Dataset</text>
<text xml:space="preserve" text-anchor="middle" x="636.88" y="-74.79" font-family="Helvetica,sans-Serif" font-size="10.00">::writeDatasetBlock</text>
</a>
</g>
</g>
<!-- Node1&#45;&gt;Node20 -->
<g id="edge43_Node000001_Node000020" class="edge">
<title>Node1&#45;&gt;Node20</title>
<g id="a_edge43_Node000001_Node000020"><a xlink:title=" ">
<path fill="none" stroke="#63b8ff" d="M68.21,-379.9C67.67,-326.96 73.58,-150.93 171.25,-66.29 290.74,37.27 370.96,-4.02 525.75,-36.29 551.25,-41.6 578.08,-53.16 598.88,-63.6"/>
<polygon fill="#63b8ff" stroke="#63b8ff" points="597.03,-66.58 607.52,-68.06 600.24,-60.36 597.03,-66.58"/>
</a>
</g>
</g>
<!-- Node23 -->
<g id="Node000023" class="node">
<title>Node23</title>
<g id="a_Node000023"><a xlink:href="class_big_data_stat_meth_1_1hdf5_dataset.html#ac979eba40078c7c5974b64b2ce6347a3" target="_top" xlink:title="Get dataset name.">
<polygon fill="white" stroke="#666666" points="321.5,-348.54 171.25,-348.54 171.25,-318.04 321.5,-318.04 321.5,-348.54"/>
<text xml:space="preserve" text-anchor="start" x="179.25" y="-335.04" font-family="Helvetica,sans-Serif" font-size="10.00">BigDataStatMeth::hdf5Dataset</text>
<text xml:space="preserve" text-anchor="middle" x="246.38" y="-323.79" font-family="Helvetica,sans-Serif" font-size="10.00">::getDatasetName</text>
</a>
</g>
</g>
<!-- Node1&#45;&gt;Node23 -->
<g id="edge29_Node000001_Node000023" class="edge">
<title>Node1&#45;&gt;Node23</title>
<g id="a_edge29_Node000001_Node000023"><a xlink:title=" ">
<path fill="none" stroke="#63b8ff" d="M113.23,-379.64C136.48,-371.48 165.14,-361.43 189.82,-352.77"/>
<polygon fill="#63b8ff" stroke="#63b8ff" points="190.77,-356.15 199.05,-349.53 188.46,-349.54 190.77,-356.15"/>
</a>
</g>
</g>
<!-- Node24 -->
<g id="Node000024" class="node">
<title>Node24</title>
<g id="a_Node000024"><a xlink:href="class_big_data_stat_meth_1_1hdf5_file.html#a679b85a0e0fae4bb50b219fba8aa050d" target="_top" xlink:title="Get file pointer.">
<polygon fill="white" stroke="#666666" points="312.12,-299.54 180.62,-299.54 180.62,-269.04 312.12,-269.04 312.12,-299.54"/>
<text xml:space="preserve" text-anchor="start" x="188.62" y="-286.04" font-family="Helvetica,sans-Serif" font-size="10.00">BigDataStatMeth::hdf5File</text>
<text xml:space="preserve" text-anchor="middle" x="246.38" y="-274.79" font-family="Helvetica,sans-Serif" font-size="10.00">::getFileptr</text>
</a>
</g>
</g>
<!-- Node1&#45;&gt;Node24 -->
<g id="edge30_Node000001_Node000024" class="edge">
<title>Node1&#45;&gt;Node24</title>
<g id="a_edge30_Node000001_Node000024"><a xlink:title=" ">
<path fill="none" stroke="#63b8ff" d="M83.59,-379.57C102.44,-360.58 136.59,-328.74 171.25,-309.29 174.23,-307.61 177.35,-306.03 180.54,-304.53"/>
<polygon fill="#63b8ff" stroke="#63b8ff" points="181.74,-307.82 189.53,-300.63 178.96,-301.39 181.74,-307.82"/>
</a>
</g>
</g>
<!-- Node25 -->
<g id="Node000025" class="node">
<title>Node25</title>
<g id="a_Node000025"><a xlink:href="class_big_data_stat_meth_1_1hdf5_dataset.html#af4869e54b1d4c01ab4caacf1939e1907" target="_top" xlink:title="Get group name.">
<polygon fill="white" stroke="#666666" points="321.5,-762.54 171.25,-762.54 171.25,-732.04 321.5,-732.04 321.5,-762.54"/>
<text xml:space="preserve" text-anchor="start" x="179.25" y="-749.04" font-family="Helvetica,sans-Serif" font-size="10.00">BigDataStatMeth::hdf5Dataset</text>
<text xml:space="preserve" text-anchor="middle" x="246.38" y="-737.79" font-family="Helvetica,sans-Serif" font-size="10.00">::getGroup</text>
</a>
</g>
</g>
<!-- Node1&#45;&gt;Node25 -->
<g id="edge31_Node000001_Node000025" class="edge">
<title>Node1&#45;&gt;Node25</title>
<g id="a_edge31_Node000001_Node000025"><a xlink:title=" ">
<path fill="none" stroke="#63b8ff" d="M70.87,-410.75C78.19,-456.95 104.85,-596.54 171.25,-689.29 181.37,-703.43 195.89,-715.84 209.4,-725.51"/>
<polygon fill="#63b8ff" stroke="#63b8ff" points="207.05,-728.14 217.28,-730.9 211,-722.36 207.05,-728.14"/>
</a>
</g>
</g>
<!-- Node26 -->
<g id="Node000026" class="node">
<title>Node26</title>
<g id="a_Node000026"><a xlink:href="namespace_big_data_stat_meth_1_1_diagonal_ops.html#aa5491d5533b53de425cd4cf57da15a1a" target="_top" xlink:title="Check if dataset represents a diagonal vector.">
<polygon fill="white" stroke="#666666" points="509.25,-607.54 374,-607.54 374,-577.04 509.25,-577.04 509.25,-607.54"/>
<text xml:space="preserve" text-anchor="start" x="382" y="-594.04" font-family="Helvetica,sans-Serif" font-size="10.00">BigDataStatMeth::Diagonal</text>
<text xml:space="preserve" text-anchor="middle" x="441.62" y="-582.79" font-family="Helvetica,sans-Serif" font-size="10.00">Ops::isDiagonalVector</text>
</a>
</g>
</g>
<!-- Node1&#45;&gt;Node26 -->
<g id="edge34_Node000001_Node000026" class="edge">
<title>Node1&#45;&gt;Node26</title>
<g id="a_edge34_Node000001_Node000026"><a xlink:title=" ">
<path fill="none" stroke="#63b8ff" d="M77.19,-410.72C92.55,-436.92 127.28,-489.99 171.25,-518.29 229.18,-555.56 305.74,-574.25 362.44,-583.51"/>
<polygon fill="#63b8ff" stroke="#63b8ff" points="361.58,-586.92 372,-585 362.66,-580 361.58,-586.92"/>
</a>
</g>
</g>
<!-- Node27 -->
<g id="Node000027" class="node">
<title>Node27</title>
<g id="a_Node000027"><a xlink:href="namespace_big_data_stat_meth_1_1_diagonal_ops.html#a10f2d060060fb8e195ebdc69bfaab39b" target="_top" xlink:title="Validate vector dataset and return its size.">
<polygon fill="white" stroke="#666666" points="510,-299.54 373.25,-299.54 373.25,-269.04 510,-269.04 510,-299.54"/>
<text xml:space="preserve" text-anchor="start" x="381.25" y="-286.04" font-family="Helvetica,sans-Serif" font-size="10.00">BigDataStatMeth::Diagonal</text>
<text xml:space="preserve" text-anchor="middle" x="441.62" y="-274.79" font-family="Helvetica,sans-Serif" font-size="10.00">Ops::validateVectorDataset</text>
</a>
</g>
</g>
<!-- Node1&#45;&gt;Node27 -->
<g id="edge40_Node000001_Node000027" class="edge">
<title>Node1&#45;&gt;Node27</title>
<g id="a_edge40_Node000001_Node000027"><a xlink:title=" ">
<path fill="none" stroke="#63b8ff" d="M135.47,-390.97C199.56,-385.82 290.96,-375.52 321.5,-357.29 344.4,-343.62 335.64,-324.56 357.5,-309.29 359.69,-307.76 361.97,-306.32 364.33,-304.97"/>
<polygon fill="#63b8ff" stroke="#63b8ff" points="365.67,-308.22 373.01,-300.57 362.5,-301.97 365.67,-308.22"/>
</a>
</g>
</g>
<!-- Node28 -->
<g id="Node000028" class="node">
<title>Node28</title>
<g id="a_Node000028"><a xlink:href="namespace_big_data_stat_meth_1_1_diagonal_ops.html#a65334bcbb3c95f1aabebbc88963793b5" target="_top" xlink:title="Write diagonal vector to matrix diagonal.">
<polygon fill="white" stroke="#666666" points="321.5,-196.54 171.25,-196.54 171.25,-166.04 321.5,-166.04 321.5,-196.54"/>
<text xml:space="preserve" text-anchor="start" x="179.25" y="-183.04" font-family="Helvetica,sans-Serif" font-size="10.00">BigDataStatMeth::Diagonal</text>
<text xml:space="preserve" text-anchor="middle" x="246.38" y="-171.79" font-family="Helvetica,sans-Serif" font-size="10.00">Ops::writeDiagonalFromVector</text>
</a>
</g>
</g>
<!-- Node1&#45;&gt;Node28 -->
<g id="edge44_Node000001_Node000028" class="edge">
<title>Node1&#45;&gt;Node28</title>
<g id="a_edge44_Node000001_Node000028"><a xlink:title=" ">
<path fill="none" stroke="#63b8ff" d="M75.12,-379.76C88.97,-348.05 124.05,-274.82 171.25,-227.29 180.58,-217.89 192.18,-209.55 203.41,-202.64"/>
<polygon fill="#63b8ff" stroke="#63b8ff" points="204.96,-205.79 211.81,-197.71 201.41,-199.75 204.96,-205.79"/>
</a>
</g>
</g>
<!-- Node3 -->
<g id="Node000003" class="node">
<title>Node3</title>
<g id="a_Node000003"><a xlink:href="class_big_data_stat_meth_1_1hdf5_dataset.html#ac7a7f23b7e22c9b56ca6ad86592f2d52" target="_top" xlink:title="Add an attribute to the dataset.">
<polygon fill="white" stroke="#666666" points="712,-607.54 561.75,-607.54 561.75,-577.04 712,-577.04 712,-607.54"/>
<text xml:space="preserve" text-anchor="start" x="569.75" y="-594.04" font-family="Helvetica,sans-Serif" font-size="10.00">BigDataStatMeth::hdf5Dataset</text>
<text xml:space="preserve" text-anchor="middle" x="636.88" y="-582.79" font-family="Helvetica,sans-Serif" font-size="10.00">::addAttribute</text>
</a>
</g>
</g>
<!-- Node2&#45;&gt;Node3 -->
<g id="edge2_Node000002_Node000003" class="edge">
<title>Node2&#45;&gt;Node3</title>
<g id="a_edge2_Node000002_Node000003"><a xlink:title=" ">
<path fill="none" stroke="#63b8ff" d="M497.21,-662.69C507.02,-658.93 516.92,-654.47 525.75,-649.29 544.21,-638.44 543.24,-628.03 561.75,-617.29 564.56,-615.66 567.49,-614.11 570.49,-612.65"/>
<polygon fill="#63b8ff" stroke="#63b8ff" points="571.83,-615.89 579.54,-608.63 568.98,-609.49 571.83,-615.89"/>
</a>
</g>
</g>
<!-- Node4 -->
<g id="Node000004" class="node">
<title>Node4</title>
<g id="a_Node000004"><a xlink:href="class_big_data_stat_meth_1_1hdf5_file.html#abfb73b5f1eb25ee00489485c8dc56a2a" target="_top" xlink:title="Close file and cleanup resources.">
<polygon fill="white" stroke="#666666" points="702.62,-558.54 571.12,-558.54 571.12,-528.04 702.62,-528.04 702.62,-558.54"/>
<text xml:space="preserve" text-anchor="start" x="579.12" y="-545.04" font-family="Helvetica,sans-Serif" font-size="10.00">BigDataStatMeth::hdf5File</text>
<text xml:space="preserve" text-anchor="middle" x="636.88" y="-533.79" font-family="Helvetica,sans-Serif" font-size="10.00">::close_file</text>
</a>
</g>
</g>
<!-- Node2&#45;&gt;Node4 -->
<g id="edge3_Node000002_Node000004" class="edge">
<title>Node2&#45;&gt;Node4</title>
<g id="a_edge3_Node000002_Node000004"><a xlink:title=" ">
<path fill="none" stroke="#63b8ff" d="M505.72,-662.64C513,-659.06 519.9,-654.67 525.75,-649.29 554.73,-622.6 532.63,-594.82 561.75,-568.29 562.97,-567.17 564.25,-566.11 565.57,-565.09"/>
<polygon fill="#63b8ff" stroke="#63b8ff" points="567.11,-568.26 573.56,-559.86 563.27,-562.41 567.11,-568.26"/>
</a>
</g>
</g>
<!-- Node5 -->
<g id="Node000005" class="node">
<title>Node5</title>
<g id="a_Node000005"><a xlink:href="class_big_data_stat_meth_1_1hdf5_group.html#a27cef4d33e46c72bfd792aa49fa621a3" target="_top" xlink:title="Create multiple nested groups.">
<polygon fill="white" stroke="#666666" points="707.88,-656.54 565.88,-656.54 565.88,-626.04 707.88,-626.04 707.88,-656.54"/>
<text xml:space="preserve" text-anchor="start" x="573.88" y="-643.04" font-family="Helvetica,sans-Serif" font-size="10.00">BigDataStatMeth::hdf5Group</text>
<text xml:space="preserve" text-anchor="middle" x="636.88" y="-631.79" font-family="Helvetica,sans-Serif" font-size="10.00">::create_HDF5_groups</text>
</a>
</g>
</g>
<!-- Node2&#45;&gt;Node5 -->
<g id="edge4_Node000002_Node000005" class="edge">
<title>Node2&#45;&gt;Node5</title>
<g id="a_edge4_Node000002_Node000005"><a xlink:title=" ">
<path fill="none" stroke="#63b8ff" d="M517.06,-664.03C529.28,-661.7 541.99,-659.26 554.36,-656.89"/>
<polygon fill="#63b8ff" stroke="#63b8ff" points="554.95,-660.34 564.11,-655.03 553.63,-653.47 554.95,-660.34"/>
</a>
</g>
</g>
<!-- Node7 -->
<g id="Node000007" class="node">
<title>Node7</title>
<g id="a_Node000007"><a xlink:href="namespace_big_data_stat_meth.html#a89d901ab4b5e01771f4e3fc7dc84e50e" target="_top" xlink:title="Checks if an HDF5 element (group or dataset) exists.">
<polygon fill="white" stroke="#666666" points="698.5,-754.54 575.25,-754.54 575.25,-724.04 698.5,-724.04 698.5,-754.54"/>
<text xml:space="preserve" text-anchor="start" x="583.25" y="-741.04" font-family="Helvetica,sans-Serif" font-size="10.00">BigDataStatMeth::exists</text>
<text xml:space="preserve" text-anchor="middle" x="636.88" y="-729.79" font-family="Helvetica,sans-Serif" font-size="10.00">_HDF5_element</text>
</a>
</g>
</g>
<!-- Node2&#45;&gt;Node7 -->
<g id="edge6_Node000002_Node000007" class="edge">
<title>Node2&#45;&gt;Node7</title>
<g id="a_edge6_Node000002_Node000007"><a xlink:title=" ">
<path fill="none" stroke="#63b8ff" d="M492.39,-694C517.75,-702 548.79,-711.8 575.51,-720.23"/>
<polygon fill="#63b8ff" stroke="#63b8ff" points="574.24,-723.5 584.83,-723.17 576.35,-716.83 574.24,-723.5"/>
</a>
</g>
</g>
<!-- Node8 -->
<g id="Node000008" class="node">
<title>Node8</title>
<g id="a_Node000008"><a xlink:href="class_big_data_stat_meth_1_1hdf5_group.html#a59995412538627e6c80f64b552c286f5" target="_top" xlink:title=" ">
<polygon fill="white" stroke="#666666" points="707.88,-803.54 565.88,-803.54 565.88,-773.04 707.88,-773.04 707.88,-803.54"/>
<text xml:space="preserve" text-anchor="start" x="573.88" y="-790.04" font-family="Helvetica,sans-Serif" font-size="10.00">BigDataStatMeth::hdf5Group</text>
<text xml:space="preserve" text-anchor="middle" x="636.88" y="-778.79" font-family="Helvetica,sans-Serif" font-size="10.00">::getGroupName</text>
</a>
</g>
</g>
<!-- Node2&#45;&gt;Node8 -->
<g id="edge8_Node000002_Node000008" class="edge">
<title>Node2&#45;&gt;Node8</title>
<g id="a_edge8_Node000002_Node000008"><a xlink:title=" ">
<path fill="none" stroke="#63b8ff" d="M460.9,-693.96C483.38,-712.6 523.29,-743.63 561.75,-763.29 565.18,-765.04 568.76,-766.71 572.41,-768.3"/>
<polygon fill="#63b8ff" stroke="#63b8ff" points="570.86,-771.44 581.44,-771.97 573.5,-764.96 570.86,-771.44"/>
</a>
</g>
</g>
<!-- Node9 -->
<g id="Node000009" class="node">
<title>Node9</title>
<g id="a_Node000009"><a xlink:href="namespace_big_data_stat_meth.html#a3d06783149029f1df2853c472d401380" target="_top" xlink:title="Removes multiple elements from an HDF5 file.">
<polygon fill="white" stroke="#666666" points="701.5,-705.54 572.25,-705.54 572.25,-675.04 701.5,-675.04 701.5,-705.54"/>
<text xml:space="preserve" text-anchor="start" x="580.25" y="-692.04" font-family="Helvetica,sans-Serif" font-size="10.00">BigDataStatMeth::remove</text>
<text xml:space="preserve" text-anchor="middle" x="636.88" y="-680.79" font-family="Helvetica,sans-Serif" font-size="10.00">_elements</text>
</a>
</g>
</g>
<!-- Node2&#45;&gt;Node9 -->
<g id="edge9_Node000002_Node000009" class="edge">
<title>Node2&#45;&gt;Node9</title>
<g id="a_edge9_Node000002_Node000009"><a xlink:title=" ">
<path fill="none" stroke="#63b8ff" d="M517.06,-682.91C531.33,-683.79 546.27,-684.72 560.56,-685.61"/>
<polygon fill="#63b8ff" stroke="#63b8ff" points="560.15,-689.09 570.35,-686.22 560.58,-682.1 560.15,-689.09"/>
</a>
</g>
</g>
<!-- Node10 -->
<g id="Node000010" class="node">
<title>Node10</title>
<g id="a_Node000010"><a xlink:href="class_big_data_stat_meth_1_1hdf5_dataset.html#acf9843abcb57a0090f1635cc69d95300" target="_top" xlink:title="Write data to the dataset.">
<polygon fill="white" stroke="#666666" points="712,-509.54 561.75,-509.54 561.75,-479.04 712,-479.04 712,-509.54"/>
<text xml:space="preserve" text-anchor="start" x="569.75" y="-496.04" font-family="Helvetica,sans-Serif" font-size="10.00">BigDataStatMeth::hdf5Dataset</text>
<text xml:space="preserve" text-anchor="middle" x="636.88" y="-484.79" font-family="Helvetica,sans-Serif" font-size="10.00">::writeDataset</text>
</a>
</g>
</g>
<!-- Node2&#45;&gt;Node10 -->
<g id="edge10_Node000002_Node000010" class="edge">
<title>Node2&#45;&gt;Node10</title>
<g id="a_edge10_Node000002_Node000010"><a xlink:title=" ">
<path fill="none" stroke="#63b8ff" d="M508.15,-662.57C514.68,-659.01 520.73,-654.64 525.75,-649.29 566.73,-605.53 520.54,-562.83 561.75,-519.29 562.61,-518.37 563.51,-517.49 564.44,-516.65"/>
<polygon fill="#63b8ff" stroke="#63b8ff" points="566.4,-519.55 572.32,-510.76 562.21,-513.94 566.4,-519.55"/>
</a>
</g>
</g>
<!-- Node6 -->
<g id="Node000006" class="node">
<title>Node6</title>
<g id="a_Node000006"><a xlink:href="namespace_big_data_stat_meth.html#abcaa4216cd52f03ebac42e4855ef846b" target="_top" xlink:title="Checks if a path exists in an HDF5 file.">
<polygon fill="white" stroke="#666666" points="905.38,-699.91 761.88,-699.91 761.88,-680.66 905.38,-680.66 905.38,-699.91"/>
<text xml:space="preserve" text-anchor="middle" x="833.62" y="-686.41" font-family="Helvetica,sans-Serif" font-size="10.00">BigDataStatMeth::pathExists</text>
</a>
</g>
</g>
<!-- Node5&#45;&gt;Node6 -->
<g id="edge5_Node000005_Node000006" class="edge">
<title>Node5&#45;&gt;Node6</title>
<g id="a_edge5_Node000005_Node000006"><a xlink:title=" ">
<path fill="none" stroke="#63b8ff" d="M700.3,-656.99C726.54,-663.59 756.69,-671.18 781.57,-677.44"/>
<polygon fill="#63b8ff" stroke="#63b8ff" points="780.59,-680.8 791.14,-679.85 782.29,-674.01 780.59,-680.8"/>
</a>
</g>
</g>
<!-- Node7&#45;&gt;Node6 -->
<g id="edge7_Node000007_Node000006" class="edge">
<title>Node7&#45;&gt;Node6</title>
<g id="a_edge7_Node000007_Node000006"><a xlink:title=" ">
<path fill="none" stroke="#63b8ff" d="M698.96,-723.92C725.59,-717.22 756.43,-709.46 781.78,-703.08"/>
<polygon fill="#63b8ff" stroke="#63b8ff" points="782.33,-706.55 791.18,-700.71 780.62,-699.76 782.33,-706.55"/>
</a>
</g>
</g>
<!-- Node11 -->
<g id="Node000011" class="node">
<title>Node11</title>
<g id="a_Node000011"><a xlink:href="class_big_data_stat_meth_1_1hdf5_dataset.html#aba39e56a580d3b1fa7f1619fc72efa3e" target="_top" xlink:title="Close dataset and file.">
<polygon fill="white" stroke="#666666" points="908.75,-148.54 758.5,-148.54 758.5,-118.04 908.75,-118.04 908.75,-148.54"/>
<text xml:space="preserve" text-anchor="start" x="766.5" y="-135.04" font-family="Helvetica,sans-Serif" font-size="10.00">BigDataStatMeth::hdf5Dataset</text>
<text xml:space="preserve" text-anchor="middle" x="833.62" y="-123.79" font-family="Helvetica,sans-Serif" font-size="10.00">::close_dataset_file</text>
</a>
</g>
</g>
<!-- Node10&#45;&gt;Node11 -->
<g id="edge11_Node000010_Node000011" class="edge">
<title>Node10&#45;&gt;Node11</title>
<g id="a_edge11_Node000010_Node000011"><a xlink:title=" ">
<path fill="none" stroke="#63b8ff" d="M700.7,-478.62C704.86,-475.98 708.7,-472.89 712,-469.29 758,-419.04 725.86,-384.72 748,-320.29 768.47,-260.73 801,-194.29 819.19,-158.85"/>
<polygon fill="#63b8ff" stroke="#63b8ff" points="822.16,-160.72 823.65,-150.23 815.95,-157.5 822.16,-160.72"/>
</a>
</g>
</g>
<!-- Node12 -->
<g id="Node000012" class="node">
<title>Node12</title>
<g id="a_Node000012"><a xlink:href="class_big_data_stat_meth_1_1hdf5_dataset.html#a94d81b72e92cb0230b4e64f37ea7d2e3" target="_top" xlink:title="Convert DataFrame to range list.">
<polygon fill="white" stroke="#666666" points="919.25,-359.54 748,-359.54 748,-329.04 919.25,-329.04 919.25,-359.54"/>
<text xml:space="preserve" text-anchor="start" x="756" y="-346.04" font-family="Helvetica,sans-Serif" font-size="10.00">BigDataStatMeth::hdf5Dataset</text>
<text xml:space="preserve" text-anchor="middle" x="833.62" y="-334.79" font-family="Helvetica,sans-Serif" font-size="10.00">::convert_DataFrame_to_RangeList</text>
</a>
</g>
</g>
<!-- Node10&#45;&gt;Node12 -->
<g id="edge12_Node000010_Node000012" class="edge">
<title>Node10&#45;&gt;Node12</title>
<g id="a_edge12_Node000010_Node000012"><a xlink:title=" ">
<path fill="none" stroke="#63b8ff" d="M693.86,-478.66C700.19,-475.96 706.38,-472.84 712,-469.29 754.86,-442.16 793.46,-396.73 814.91,-368.75"/>
<polygon fill="#63b8ff" stroke="#63b8ff" points="817.63,-370.95 820.85,-360.85 812.04,-366.74 817.63,-370.95"/>
</a>
</g>
</g>
<!-- Node13&#45;&gt;Node2 -->
<g id="edge14_Node000013_Node000002" class="edge">
<title>Node13&#45;&gt;Node2</title>
<g id="a_edge14_Node000013_Node000002"><a xlink:title=" ">
<path fill="none" stroke="#63b8ff" d="M255.92,-472.96C272.75,-502.97 312.49,-569.66 357.5,-616.29 371.89,-631.19 390.15,-645.23 405.89,-656.17"/>
<polygon fill="#63b8ff" stroke="#63b8ff" points="403.81,-658.99 414.05,-661.7 407.74,-653.19 403.81,-658.99"/>
</a>
</g>
</g>
<!-- Node13&#45;&gt;Node14 -->
<g id="edge15_Node000013_Node000014" class="edge">
<title>Node13&#45;&gt;Node14</title>
<g id="a_edge15_Node000013_Node000014"><a xlink:title=" ">
<path fill="none" stroke="#63b8ff" d="M274.91,-472.93C296.87,-485.06 328.63,-501.85 357.5,-514.29 365.03,-517.53 373.05,-520.68 381.03,-523.65"/>
<polygon fill="#63b8ff" stroke="#63b8ff" points="379.81,-526.93 390.41,-527.05 382.2,-520.35 379.81,-526.93"/>
</a>
</g>
</g>
<!-- Node15 -->
<g id="Node000015" class="node">
<title>Node15</title>
<g id="a_Node000015"><a xlink:href="namespace_big_data_stat_meth.html#aa11cdd9bdca5cff2819a45c2900506c7" target="_top" xlink:title="Extracts the diagonal elements from a matrix stored in HDF5 format.">
<polygon fill="white" stroke="#666666" points="525.75,-472.54 357.5,-472.54 357.5,-442.04 525.75,-442.04 525.75,-472.54"/>
<text xml:space="preserve" text-anchor="start" x="365.5" y="-459.04" font-family="Helvetica,sans-Serif" font-size="10.00">BigDataStatMeth::getDiagonalfrom</text>
<text xml:space="preserve" text-anchor="middle" x="441.62" y="-447.79" font-family="Helvetica,sans-Serif" font-size="10.00">Matrix</text>
</a>
</g>
</g>
<!-- Node13&#45;&gt;Node15 -->
<g id="edge16_Node000013_Node000015" class="edge">
<title>Node13&#45;&gt;Node15</title>
<g id="a_edge16_Node000013_Node000015"><a xlink:title=" ">
<path fill="none" stroke="#63b8ff" d="M320.43,-457.29C328.66,-457.29 337.14,-457.29 345.59,-457.29"/>
<polygon fill="#63b8ff" stroke="#63b8ff" points="345.58,-460.79 355.58,-457.29 345.58,-453.79 345.58,-460.79"/>
</a>
</g>
</g>
<!-- Node13&#45;&gt;Node16 -->
<g id="edge22_Node000013_Node000016" class="edge">
<title>Node13&#45;&gt;Node16</title>
<g id="a_edge22_Node000013_Node000016"><a xlink:title=" ">
<path fill="none" stroke="#63b8ff" d="M308.44,-473.03C324.31,-476.45 341.45,-479.56 357.5,-481.29 431.85,-489.29 451.9,-493.05 525.75,-481.29 528.74,-480.81 553.24,-472.83 578.38,-464.5"/>
<polygon fill="#63b8ff" stroke="#63b8ff" points="579.3,-467.89 587.69,-461.41 577.1,-461.24 579.3,-467.89"/>
</a>
</g>
</g>
<!-- Node13&#45;&gt;Node18 -->
<g id="edge20_Node000013_Node000018" class="edge">
<title>Node13&#45;&gt;Node18</title>
<g id="a_edge20_Node000013_Node000018"><a xlink:title=" ">
<path fill="none" stroke="#63b8ff" d="M301.02,-441.59C308.39,-437.97 315.49,-433.58 321.5,-428.29 346.57,-406.2 332.02,-383.9 357.5,-362.29 360.94,-359.37 364.7,-356.73 368.64,-354.36"/>
<polygon fill="#63b8ff" stroke="#63b8ff" points="370.26,-357.47 377.45,-349.69 366.98,-351.28 370.26,-357.47"/>
</a>
</g>
</g>
<!-- Node13&#45;&gt;Node19 -->
<g id="edge21_Node000013_Node000019" class="edge">
<title>Node13&#45;&gt;Node19</title>
<g id="a_edge21_Node000013_Node000019"><a xlink:title=" ">
<path fill="none" stroke="#63b8ff" d="M316.68,-441.56C396.06,-423.41 516.46,-395.38 525.75,-390.29 563.31,-369.71 597.28,-332.95 617.26,-308.59"/>
<polygon fill="#63b8ff" stroke="#63b8ff" points="619.74,-311.09 623.26,-301.1 614.27,-306.71 619.74,-311.09"/>
</a>
</g>
</g>
<!-- Node13&#45;&gt;Node20 -->
<g id="edge23_Node000013_Node000020" class="edge">
<title>Node13&#45;&gt;Node20</title>
<g id="a_edge23_Node000013_Node000020"><a xlink:title=" ">
<path fill="none" stroke="#63b8ff" d="M274.26,-441.61C288.39,-433.3 305.96,-422.86 321.5,-413.29 337.67,-403.33 339.88,-397.35 357.5,-390.29 428.24,-361.94 473.22,-412.49 525.75,-357.29 602.53,-276.6 490.44,-194.84 561.75,-109.29 562.42,-108.49 563.11,-107.71 563.82,-106.97"/>
<polygon fill="#63b8ff" stroke="#63b8ff" points="565.75,-109.92 571.17,-100.82 561.26,-104.55 565.75,-109.92"/>
</a>
</g>
</g>
<!-- Node15&#45;&gt;Node16 -->
<g id="edge17_Node000015_Node000016" class="edge">
<title>Node15&#45;&gt;Node16</title>
<g id="a_edge17_Node000015_Node000016"><a xlink:title=" ">
<path fill="none" stroke="#63b8ff" d="M525.98,-452.11C533.97,-451.61 542.08,-451.11 550.08,-450.61"/>
<polygon fill="#63b8ff" stroke="#63b8ff" points="550.04,-454.12 559.8,-450.01 549.61,-447.14 550.04,-454.12"/>
</a>
</g>
</g>
<!-- Node15&#45;&gt;Node17 -->
<g id="edge18_Node000015_Node000017" class="edge">
<title>Node15&#45;&gt;Node17</title>
<g id="a_edge18_Node000015_Node000017"><a xlink:title=" ">
<path fill="none" stroke="#63b8ff" d="M469.98,-441.59C488.31,-429.72 511.6,-411.82 525.75,-390.29 558.67,-340.18 538.45,-315.52 561.75,-260.29 577.45,-223.07 602.05,-183.35 618.56,-158.44"/>
<polygon fill="#63b8ff" stroke="#63b8ff" points="621.37,-160.53 624.03,-150.28 615.55,-156.63 621.37,-160.53"/>
</a>
</g>
</g>
<!-- Node17&#45;&gt;Node11 -->
<g id="edge19_Node000017_Node000011" class="edge">
<title>Node17&#45;&gt;Node11</title>
<g id="a_edge19_Node000017_Node000011"><a xlink:title=" ">
<path fill="none" stroke="#63b8ff" d="M712.34,-133.29C723.61,-133.29 735.32,-133.29 746.81,-133.29"/>
<polygon fill="#63b8ff" stroke="#63b8ff" points="746.69,-136.79 756.69,-133.29 746.69,-129.79 746.69,-136.79"/>
</a>
</g>
</g>
<!-- Node20&#45;&gt;Node11 -->
<g id="edge25_Node000020_Node000011" class="edge">
<title>Node20&#45;&gt;Node11</title>
<g id="a_edge25_Node000020_Node000011"><a xlink:title=" ">
<path fill="none" stroke="#63b8ff" d="M700.3,-99.99C719.08,-104.72 739.86,-109.95 759.28,-114.83"/>
<polygon fill="#63b8ff" stroke="#63b8ff" points="758.2,-118.17 768.75,-117.22 759.91,-111.38 758.2,-118.17"/>
</a>
</g>
</g>
<!-- Node20&#45;&gt;Node12 -->
<g id="edge26_Node000020_Node000012" class="edge">
<title>Node20&#45;&gt;Node12</title>
<g id="a_edge26_Node000020_Node000012"><a xlink:title=" ">
<path fill="none" stroke="#63b8ff" d="M697.98,-99.88C703.01,-102.54 707.78,-105.65 712,-109.29 746.39,-138.9 799.71,-263.19 822.13,-318.06"/>
<polygon fill="#63b8ff" stroke="#63b8ff" points="818.85,-319.3 825.86,-327.25 825.34,-316.67 818.85,-319.3"/>
</a>
</g>
</g>
<!-- Node21 -->
<g id="Node000021" class="node">
<title>Node21</title>
<g id="a_Node000021"><a xlink:href="class_big_data_stat_meth_1_1hdf5_dataset.html#a64177ae924792ea9e557febaa95ed400" target="_top" xlink:title="Close the dataset.">
<polygon fill="white" stroke="#666666" points="908.75,-99.54 758.5,-99.54 758.5,-69.04 908.75,-69.04 908.75,-99.54"/>
<text xml:space="preserve" text-anchor="start" x="766.5" y="-86.04" font-family="Helvetica,sans-Serif" font-size="10.00">BigDataStatMeth::hdf5Dataset</text>
<text xml:space="preserve" text-anchor="middle" x="833.62" y="-74.79" font-family="Helvetica,sans-Serif" font-size="10.00">::close_dataset</text>
</a>
</g>
</g>
<!-- Node20&#45;&gt;Node21 -->
<g id="edge24_Node000020_Node000021" class="edge">
<title>Node20&#45;&gt;Node21</title>
<g id="a_edge24_Node000020_Node000021"><a xlink:title=" ">
<path fill="none" stroke="#63b8ff" d="M712.34,-84.29C723.61,-84.29 735.32,-84.29 746.81,-84.29"/>
<polygon fill="#63b8ff" stroke="#63b8ff" points="746.69,-87.79 756.69,-84.29 746.69,-80.79 746.69,-87.79"/>
</a>
</g>
</g>
<!-- Node22 -->
<g id="Node000022" class="node">
<title>Node22</title>
<g id="a_Node000022"><a xlink:href="namespace_big_data_stat_meth.html#a2692707b3ea4aaafa09d07afaf632437" target="_top" xlink:title="Transposes a 2D matrix.">
<polygon fill="white" stroke="#666666" points="903.5,-50.91 763.75,-50.91 763.75,-31.66 903.5,-31.66 903.5,-50.91"/>
<text xml:space="preserve" text-anchor="middle" x="833.62" y="-37.41" font-family="Helvetica,sans-Serif" font-size="10.00">BigDataStatMeth::transpose</text>
</a>
</g>
</g>
<!-- Node20&#45;&gt;Node22 -->
<g id="edge27_Node000020_Node000022" class="edge">
<title>Node20&#45;&gt;Node22</title>
<g id="a_edge27_Node000020_Node000022"><a xlink:title=" ">
<path fill="none" stroke="#63b8ff" d="M709.01,-68.58C730.92,-63.74 754.75,-58.48 775.58,-53.88"/>
<polygon fill="#63b8ff" stroke="#63b8ff" points="776.33,-57.3 785.34,-51.73 774.82,-50.46 776.33,-57.3"/>
</a>
</g>
</g>
<!-- Node25&#45;&gt;Node8 -->
<g id="edge32_Node000025_Node000008" class="edge">
<title>Node25&#45;&gt;Node8</title>
<g id="a_edge32_Node000025_Node000008"><a xlink:title=" ">
<path fill="none" stroke="#63b8ff" d="M321.82,-755.14C388.4,-762.17 485.78,-772.45 554.42,-779.69"/>
<polygon fill="#63b8ff" stroke="#63b8ff" points="553.79,-783.14 564.1,-780.71 554.52,-776.18 553.79,-783.14"/>
</a>
</g>
</g>
<!-- Node26&#45;&gt;Node16 -->
<g id="edge36_Node000026_Node000016" class="edge">
<title>Node26&#45;&gt;Node16</title>
<g id="a_edge36_Node000026_Node000016"><a xlink:title=" ">
<path fill="none" stroke="#63b8ff" d="M509.69,-578.38C515.54,-575.37 521.03,-571.72 525.75,-567.29 559.28,-535.81 528.75,-502.31 561.75,-470.29 562.79,-469.28 563.88,-468.31 565,-467.37"/>
<polygon fill="#63b8ff" stroke="#63b8ff" points="566.75,-470.41 572.98,-461.84 562.77,-464.66 566.75,-470.41"/>
</a>
</g>
</g>
<!-- Node26&#45;&gt;Node19 -->
<g id="edge35_Node000026_Node000019" class="edge">
<title>Node26&#45;&gt;Node19</title>
<g id="a_edge35_Node000026_Node000019"><a xlink:title=" ">
<path fill="none" stroke="#63b8ff" d="M509.42,-579.35C515.48,-576.16 521.08,-572.2 525.75,-567.29 571.8,-518.85 537.65,-483.62 561.75,-421.29 577.59,-380.31 603.17,-336.18 619.76,-309.39"/>
<polygon fill="#63b8ff" stroke="#63b8ff" points="622.69,-311.3 625.04,-300.97 616.76,-307.58 622.69,-311.3"/>
</a>
</g>
</g>
<!-- Node27&#45;&gt;Node16 -->
<g id="edge42_Node000027_Node000016" class="edge">
<title>Node27&#45;&gt;Node16</title>
<g id="a_edge42_Node000027_Node000016"><a xlink:title=" ">
<path fill="none" stroke="#63b8ff" d="M508.33,-299.91C514.45,-302.57 520.37,-305.67 525.75,-309.29 568.85,-338.21 603.47,-389.11 621.74,-419.76"/>
<polygon fill="#63b8ff" stroke="#63b8ff" points="618.69,-421.49 626.74,-428.38 624.75,-417.98 618.69,-421.49"/>
</a>
</g>
</g>
<!-- Node27&#45;&gt;Node19 -->
<g id="edge41_Node000027_Node000019" class="edge">
<title>Node27&#45;&gt;Node19</title>
<g id="a_edge41_Node000027_Node000019"><a xlink:title=" ">
<path fill="none" stroke="#63b8ff" d="M510.49,-284.29C523.19,-284.29 536.62,-284.29 549.79,-284.29"/>
<polygon fill="#63b8ff" stroke="#63b8ff" points="549.75,-287.79 559.75,-284.29 549.75,-280.79 549.75,-287.79"/>
</a>
</g>
</g>
<!-- Node28&#45;&gt;Node16 -->
<g id="edge46_Node000028_Node000016" class="edge">
<title>Node28&#45;&gt;Node16</title>
<g id="a_edge46_Node000028_Node000016"><a xlink:title=" ">
<path fill="none" stroke="#63b8ff" d="M321.81,-187.29C382.12,-195.46 466.5,-214.75 525.75,-260.29 540.11,-271.32 595.86,-371.71 622.09,-419.81"/>
<polygon fill="#63b8ff" stroke="#63b8ff" points="618.93,-421.33 626.78,-428.44 625.08,-417.98 618.93,-421.33"/>
</a>
</g>
</g>
<!-- Node28&#45;&gt;Node17 -->
<g id="edge47_Node000028_Node000017" class="edge">
<title>Node28&#45;&gt;Node17</title>
<g id="a_edge47_Node000028_Node000017"><a xlink:title=" ">
<path fill="none" stroke="#63b8ff" d="M296.79,-165.55C315.61,-160.16 337.37,-154.64 357.5,-151.29 421.52,-140.61 494.8,-136.18 550.1,-134.38"/>
<polygon fill="#63b8ff" stroke="#63b8ff" points="549.86,-137.89 559.75,-134.09 549.65,-130.89 549.86,-137.89"/>
</a>
</g>
</g>
<!-- Node28&#45;&gt;Node19 -->
<g id="edge45_Node000028_Node000019" class="edge">
<title>Node28&#45;&gt;Node19</title>
<g id="a_edge45_Node000028_Node000019"><a xlink:title=" ">
<path fill="none" stroke="#63b8ff" d="M321.84,-170.21C379.49,-164.72 460.28,-163.87 525.75,-189.29 563.36,-203.89 596.93,-237.27 616.84,-260.3"/>
<polygon fill="#63b8ff" stroke="#63b8ff" points="613.94,-262.3 623.05,-267.7 619.3,-257.79 613.94,-262.3"/>
</a>
</g>
</g>
<!-- Node28&#45;&gt;Node27 -->
<g id="edge51_Node000028_Node000027" class="edge">
<title>Node28&#45;&gt;Node27</title>
<g id="a_edge51_Node000028_Node000027"><a xlink:title=" ">
<path fill="none" stroke="#63b8ff" d="M276.73,-196.93C310.02,-214.68 364.48,-243.7 401.4,-263.38"/>
<polygon fill="#63b8ff" stroke="#63b8ff" points="399.51,-266.34 409.98,-267.95 402.8,-260.16 399.51,-266.34"/>
</a>
</g>
</g>
<!-- Node29 -->
<g id="Node000029" class="node">
<title>Node29</title>
<g id="a_Node000029"><a xlink:href="namespace_big_data_stat_meth.html#ab5429d9d25ff38d72d77e6dca59947b0" target="_top" xlink:title="Sets the diagonal elements of a matrix stored in HDF5 format.">
<polygon fill="white" stroke="#666666" points="516,-99.54 367.25,-99.54 367.25,-69.04 516,-69.04 516,-99.54"/>
<text xml:space="preserve" text-anchor="start" x="375.25" y="-86.04" font-family="Helvetica,sans-Serif" font-size="10.00">BigDataStatMeth::setDiagonal</text>
<text xml:space="preserve" text-anchor="middle" x="441.62" y="-74.79" font-family="Helvetica,sans-Serif" font-size="10.00">Matrix</text>
</a>
</g>
</g>
<!-- Node28&#45;&gt;Node29 -->
<g id="edge48_Node000028_Node000029" class="edge">
<title>Node28&#45;&gt;Node29</title>
<g id="a_edge48_Node000028_Node000029"><a xlink:title=" ">
<path fill="none" stroke="#63b8ff" d="M269.34,-165.73C291.01,-150.87 325.45,-128.55 357.5,-113.29 364.53,-109.94 372.06,-106.77 379.61,-103.85"/>
<polygon fill="#63b8ff" stroke="#63b8ff" points="380.68,-107.19 388.83,-100.41 378.23,-100.63 380.68,-107.19"/>
</a>
</g>
</g>
<!-- Node29&#45;&gt;Node17 -->
<g id="edge49_Node000029_Node000017" class="edge">
<title>Node29&#45;&gt;Node17</title>
<g id="a_edge49_Node000029_Node000017"><a xlink:title=" ">
<path fill="none" stroke="#63b8ff" d="M504.57,-99.99C523.12,-104.7 543.63,-109.9 562.83,-114.76"/>
<polygon fill="#63b8ff" stroke="#63b8ff" points="561.93,-118.15 572.48,-117.21 563.65,-111.36 561.93,-118.15"/>
</a>
</g>
</g>
<!-- Node29&#45;&gt;Node20 -->
<g id="edge50_Node000029_Node000020" class="edge">
<title>Node29&#45;&gt;Node20</title>
<g id="a_edge50_Node000029_Node000020"><a xlink:title=" ">
<path fill="none" stroke="#63b8ff" d="M516.24,-84.29C527.36,-84.29 538.91,-84.29 550.25,-84.29"/>
<polygon fill="#63b8ff" stroke="#63b8ff" points="549.99,-87.79 559.99,-84.29 549.99,-80.79 549.99,-87.79"/>
</a>
</g>
</g>
</g>
</svg>

<g id="navigator" transform="translate(0 0)" fill="#404254">
  <rect fill="#f2f5e9" fill-opacity="0.5" stroke="#606060" stroke-width=".5" x="0" y="0" width="60" height="60"/>
  <use id="zoomplus" xlink:href="#zoomPlus" x="17" y="9" onmousedown="handleZoom(evt,'in')"/>
  <use id="zoomminus" xlink:href="#zoomMin" x="42" y="9" onmousedown="handleZoom(evt,'out')"/>
  <use id="reset" xlink:href="#resetDef" x="30" y="36" onmousedown="handleReset()"/>
   <use id="arrowup" xlink:href="#arrowUp" x="0" y="0" onmousedown="handlePan(0,-1)"/>
  <use id="arrowright" xlink:href="#arrowRight" x="0" y="0" onmousedown="handlePan(1,0)"/>
  <use id="arrowdown" xlink:href="#arrowDown" x="0" y="0" onmousedown="handlePan(0,1)"/>
  <use id="arrowleft" xlink:href="#arrowLeft" x="0" y="0" onmousedown="handlePan(-1,0)"/>
</g>
<svg viewBox="0 0 15 15" width="100%" height="30px" preserveAspectRatio="xMaxYMin meet">
 <g id="arrow_out" transform="scale(0.3 0.3)">
  <a xlink:href="namespace_big_data_stat_meth_1_1_diagonal_ops_a23571e72810e038637b95738d3e7b3fe_cgraph_org.svg" target="_base">
   <rect id="button" ry="5" rx="5" y="6" x="6" height="38" width="38"
        fill="#f2f5e9" fill-opacity="0.5" stroke="#606060" stroke-width="1.0"/>
   <path id="arrow"
     d="M 11.500037,31.436501 C 11.940474,20.09759 22.043105,11.32322 32.158766,21.979434 L 37.068811,17.246167 C 37.068811,17.246167 37.088388,32 37.088388,32 L 22.160133,31.978069 C 22.160133,31.978069 26.997745,27.140456 26.997745,27.140456 C 18.528582,18.264221 13.291696,25.230495 11.500037,31.436501 z"
     style="fill:#404040;"/>
  </a>
 </g>
</svg>

<style type='text/css'>
<![CDATA[
[data-mouse-over-selected='false'] { opacity: 0.7; }
[data-mouse-over-selected='true']  { opacity: 1.0; }
]]>
</style>
<script type="application/ecmascript"><![CDATA[
document.addEventListener('DOMContentLoaded', (event) => {
  highlightEdges();
  highlightAdjacentNodes();
});
]]></script>
</svg>
