<?xml version="1.0" encoding="UTF-8" standalone="no"?>
<!DOCTYPE svg PUBLIC "-//W3C//DTD SVG 1.1//EN"
 "http://www.w3.org/Graphics/SVG/1.1/DTD/svg11.dtd">
<!-- Generated by graphviz version 14.0.0 (20250921.2048)
 -->
<!-- Title: BigDataStatMeth::Next_level_SvdBlock_decomposition_hdf5 Pages: 1 -->
<!--zoomable 792 -->

<svg id="main" version="1.1" xmlns="http://www.w3.org/2000/svg" xmlns:xlink="http://www.w3.org/1999/xlink" xml:space="preserve" onload="init(evt)">

<style type="text/css"><![CDATA[
.node, .edge {opacity: 0.7;}
.node.selected, .edge.selected {opacity: 1;}
.edge:hover path { stroke: red; }
.edge:hover polygon { stroke: red; fill: red; }
]]></style>

<defs>
  <circle id="rim" cx="0" cy="0" r="7"/>
  <circle id="rim2" cx="0" cy="0" r="3.5"/>
  <g id="zoomPlus">
    <use xlink:href="#rim" fill="#404040"><set attributeName="fill" to="#808080" begin="zoomplus.mouseover" end="zoomplus.mouseout"/></use>
    <path d="M-4,0h8M0,-4v8" fill="none" stroke="white" stroke-width="1.5" pointer-events="none"/>
  </g>
  <g id="zoomMin">
    <use xlink:href="#rim" fill="#404040"><set attributeName="fill" to="#808080" begin="zoomminus.mouseover" end="zoomminus.mouseout"/></use>
    <path d="M-4,0h8" fill="none" stroke="white" stroke-width="1.5" pointer-events="none"/>
  </g>
  <g id="arrowUp" transform="translate(30 24)">
    <use xlink:href="#rim"/>
    <path pointer-events="none" fill="none" stroke="white" stroke-width="1.5" d="M0,-3.0v7 M-2.5,-0.5L0,-3.0L2.5,-0.5"/>
  </g>
  <g id="arrowRight" transform="rotate(90) translate(36 -43)">
    <use xlink:href="#rim"/>
    <path pointer-events="none" fill="none" stroke="white" stroke-width="1.5" d="M0,-3.0v7 M-2.5,-0.5L0,-3.0L2.5,-0.5"/>
  </g>
  <g id="arrowDown" transform="rotate(180) translate(-30 -48)">
    <use xlink:href="#rim"/>
    <path pointer-events="none" fill="none" stroke="white" stroke-width="1.5" d="M0,-3.0v7 M-2.5,-0.5L0,-3.0L2.5,-0.5"/>
  </g>
  <g id="arrowLeft" transform="rotate(270) translate(-36 17)">
    <use xlink:href="#rim"/>
    <path pointer-events="none" fill="none" stroke="white" stroke-width="1.5" d="M0,-3.0v7 M-2.5,-0.5L0,-3.0L2.5,-0.5"/>
  </g>
  <g id="resetDef">
    <use xlink:href="#rim2" fill="#404040"><set attributeName="fill" to="#808080" begin="reset.mouseover" end="reset.mouseout"/></use>
  </g>
</defs>
<script type="application/ecmascript">
var viewWidth = 1004;
var viewHeight = 792;
var sectionId = 'dynsection-77';
</script>
<script type="application/ecmascript" xlink:href="../../../../assets/svg.min.js"/>
<svg id="graph" class="graph">
<g id="viewport">
<title>BigDataStatMeth::Next_level_SvdBlock_decomposition_hdf5</title>
<!-- Node1 -->
<g id="Node000001" class="node">
<title>Node1</title>
<g id="a_Node000001"><a xlink:title=" ">
<polygon fill="#999999" stroke="#666666" points="181,-377.5 0,-377.5 0,-347 181,-347 181,-377.5"/>
<text xml:space="preserve" text-anchor="start" x="8" y="-364" font-family="Helvetica,sans-Serif" font-size="10.00">BigDataStatMeth::Next</text>
<text xml:space="preserve" text-anchor="middle" x="90.5" y="-352.75" font-family="Helvetica,sans-Serif" font-size="10.00">_level_SvdBlock_decomposition_hdf5</text>
</a>
</g>
</g>
<!-- Node2 -->
<g id="Node000002" class="node">
<title>Node2</title>
<g id="a_Node000002"><a xlink:href="namespace_big_data_stat_meth.html#a304b42b14ec87d4acc6f34ff0231529d" target="_top" xlink:title="Safely close any number of dataset handles (C++17).">
<polygon fill="white" stroke="#666666" points="386.38,-693.88 219.62,-693.88 219.62,-674.62 386.38,-674.62 386.38,-693.88"/>
<text xml:space="preserve" text-anchor="middle" x="303" y="-680.38" font-family="Helvetica,sans-Serif" font-size="10.00">BigDataStatMeth::checkClose_file</text>
</a>
</g>
</g>
<!-- Node1&#45;&gt;Node2 -->
<g id="edge1_Node000001_Node000002" class="edge">
<title>Node1&#45;&gt;Node2</title>
<g id="a_edge1_Node000001_Node000002"><a xlink:title=" ">
<path fill="none" stroke="#63b8ff" d="M92.99,-377.71C98.7,-427.79 123.73,-586.85 217,-665.25 218.47,-666.49 220.01,-667.65 221.6,-668.74"/>
<polygon fill="#63b8ff" stroke="#63b8ff" points="219.48,-671.56 229.9,-673.48 222.95,-665.48 219.48,-671.56"/>
</a>
</g>
</g>
<!-- Node3 -->
<g id="Node000003" class="node">
<title>Node3</title>
<g id="a_Node000003"><a xlink:href="class_big_data_stat_meth_1_1hdf5_dataset.html#a7d4d9784a080f09d3b2f05e2d397a034" target="_top" xlink:title="Create an unlimited dataset with optional compression.">
<polygon fill="white" stroke="#666666" points="378.12,-656.5 227.88,-656.5 227.88,-626 378.12,-626 378.12,-656.5"/>
<text xml:space="preserve" text-anchor="start" x="235.88" y="-643" font-family="Helvetica,sans-Serif" font-size="10.00">BigDataStatMeth::hdf5Dataset</text>
<text xml:space="preserve" text-anchor="middle" x="303" y="-631.75" font-family="Helvetica,sans-Serif" font-size="10.00">::createUnlimitedDataset</text>
</a>
</g>
</g>
<!-- Node1&#45;&gt;Node3 -->
<g id="edge2_Node000001_Node000003" class="edge">
<title>Node1&#45;&gt;Node3</title>
<g id="a_edge2_Node000001_Node000003"><a xlink:title=" ">
<path fill="none" stroke="#63b8ff" d="M98.8,-377.91C116.07,-414.03 162.16,-505 217,-569.25 232.78,-587.74 253.56,-605.44 270.63,-618.66"/>
<polygon fill="#63b8ff" stroke="#63b8ff" points="268.38,-621.35 278.46,-624.6 272.61,-615.77 268.38,-621.35"/>
</a>
</g>
</g>
<!-- Node8 -->
<g id="Node000008" class="node">
<title>Node8</title>
<g id="a_Node000008"><a xlink:href="namespace_big_data_stat_meth.html#a89d901ab4b5e01771f4e3fc7dc84e50e" target="_top" xlink:title="Checks if an HDF5 element (group or dataset) exists.">
<polygon fill="white" stroke="#666666" points="795.62,-570.5 672.38,-570.5 672.38,-540 795.62,-540 795.62,-570.5"/>
<text xml:space="preserve" text-anchor="start" x="680.38" y="-557" font-family="Helvetica,sans-Serif" font-size="10.00">BigDataStatMeth::exists</text>
<text xml:space="preserve" text-anchor="middle" x="734" y="-545.75" font-family="Helvetica,sans-Serif" font-size="10.00">_HDF5_element</text>
</a>
</g>
</g>
<!-- Node1&#45;&gt;Node8 -->
<g id="edge11_Node000001_Node000008" class="edge">
<title>Node1&#45;&gt;Node8</title>
<g id="a_edge11_Node000001_Node000008"><a xlink:title=" ">
<path fill="none" stroke="#63b8ff" d="M100.62,-377.61C118.73,-406.61 162.26,-469.12 217,-498.25 359.83,-574.27 556.08,-571.7 660.6,-563.38"/>
<polygon fill="#63b8ff" stroke="#63b8ff" points="660.78,-566.88 670.45,-562.55 660.19,-559.9 660.78,-566.88"/>
</a>
</g>
</g>
<!-- Node10 -->
<g id="Node000010" class="node">
<title>Node10</title>
<g id="a_Node000010"><a xlink:href="class_big_data_stat_meth_1_1hdf5_dataset.html#a7b54a6f524581d54102a1614ee44991b" target="_top" xlink:title="Get dataset dimension.">
<polygon fill="white" stroke="#666666" points="389,-242.88 217,-242.88 217,-223.62 389,-223.62 389,-242.88"/>
<text xml:space="preserve" text-anchor="middle" x="303" y="-229.38" font-family="Helvetica,sans-Serif" font-size="10.00">BigDataStatMeth::hdf5Dataset::dim</text>
</a>
</g>
</g>
<!-- Node1&#45;&gt;Node10 -->
<g id="edge10_Node000001_Node000010" class="edge">
<title>Node1&#45;&gt;Node10</title>
<g id="a_edge10_Node000001_Node000010"><a xlink:title=" ">
<path fill="none" stroke="#63b8ff" d="M104.42,-346.77C125.43,-322.65 169.47,-276.38 217,-252.25 220.91,-250.27 225.02,-248.49 229.24,-246.89"/>
<polygon fill="#63b8ff" stroke="#63b8ff" points="230.11,-250.29 238.47,-243.78 227.87,-243.66 230.11,-250.29"/>
</a>
</g>
</g>
<!-- Node11 -->
<g id="Node000011" class="node">
<title>Node11</title>
<g id="a_Node000011"><a xlink:href="class_big_data_stat_meth_1_1hdf5_dataset.html#a5235fb1fb8b567325b1405bcef9f061d" target="_top" xlink:title="Extend an unlimited dataset.">
<polygon fill="white" stroke="#666666" points="378.12,-402.5 227.88,-402.5 227.88,-372 378.12,-372 378.12,-402.5"/>
<text xml:space="preserve" text-anchor="start" x="235.88" y="-389" font-family="Helvetica,sans-Serif" font-size="10.00">BigDataStatMeth::hdf5Dataset</text>
<text xml:space="preserve" text-anchor="middle" x="303" y="-377.75" font-family="Helvetica,sans-Serif" font-size="10.00">::extendUnlimitedDataset</text>
</a>
</g>
</g>
<!-- Node1&#45;&gt;Node11 -->
<g id="edge12_Node000001_Node000011" class="edge">
<title>Node1&#45;&gt;Node11</title>
<g id="a_edge12_Node000001_Node000011"><a xlink:title=" ">
<path fill="none" stroke="#63b8ff" d="M181.38,-372.92C192.95,-374.3 204.77,-375.7 216.26,-377.07"/>
<polygon fill="#63b8ff" stroke="#63b8ff" points="215.78,-380.54 226.13,-378.24 216.61,-373.58 215.78,-380.54"/>
</a>
</g>
</g>
<!-- Node13 -->
<g id="Node000013" class="node">
<title>Node13</title>
<g id="a_Node000013"><a xlink:href="class_big_data_stat_meth_1_1hdf5_dataset.html#ab57cadee5e43a496eb32dbf12d603d76" target="_top" xlink:title=" ">
<polygon fill="white" stroke="#666666" points="378.12,-489.5 227.88,-489.5 227.88,-459 378.12,-459 378.12,-489.5"/>
<text xml:space="preserve" text-anchor="start" x="235.88" y="-476" font-family="Helvetica,sans-Serif" font-size="10.00">BigDataStatMeth::hdf5Dataset</text>
<text xml:space="preserve" text-anchor="middle" x="303" y="-464.75" font-family="Helvetica,sans-Serif" font-size="10.00">::openDataset</text>
</a>
</g>
</g>
<!-- Node1&#45;&gt;Node13 -->
<g id="edge14_Node000001_Node000013" class="edge">
<title>Node1&#45;&gt;Node13</title>
<g id="a_edge14_Node000001_Node000013"><a xlink:title=" ">
<path fill="none" stroke="#63b8ff" d="M120.77,-377.82C157.74,-397.49 221.49,-431.41 262.68,-453.33"/>
<polygon fill="#63b8ff" stroke="#63b8ff" points="260.83,-456.31 271.3,-457.92 264.12,-450.13 260.83,-456.31"/>
</a>
</g>
</g>
<!-- Node16 -->
<g id="Node000016" class="node">
<title>Node16</title>
<g id="a_Node000016"><a xlink:href="namespace_big_data_stat_meth.html#a180c07885da3c3a9e7e218e82e14e81e" target="_top" xlink:title="Block&#45;based matrix multiplication.">
<polygon fill="white" stroke="#666666" points="363.12,-173.5 242.88,-173.5 242.88,-143 363.12,-143 363.12,-173.5"/>
<text xml:space="preserve" text-anchor="start" x="250.88" y="-160" font-family="Helvetica,sans-Serif" font-size="10.00">BigDataStatMeth::Rcpp</text>
<text xml:space="preserve" text-anchor="middle" x="303" y="-148.75" font-family="Helvetica,sans-Serif" font-size="10.00">_block_matrix_mul</text>
</a>
</g>
</g>
<!-- Node1&#45;&gt;Node16 -->
<g id="edge21_Node000001_Node000016" class="edge">
<title>Node1&#45;&gt;Node16</title>
<g id="a_edge21_Node000001_Node000016"><a xlink:title=" ">
<path fill="none" stroke="#63b8ff" d="M102.35,-346.72C122.68,-318.3 168.84,-256.92 217,-214.25 231.43,-201.46 249,-189.41 264.41,-179.78"/>
<polygon fill="#63b8ff" stroke="#63b8ff" points="266.17,-182.8 272.88,-174.6 262.52,-176.83 266.17,-182.8"/>
</a>
</g>
</g>
<!-- Node19 -->
<g id="Node000019" class="node">
<title>Node19</title>
<g id="a_Node000019"><a xlink:href="namespace_big_data_stat_meth.html#a818fb4dbac351735a7272343c3ad5f23" target="_top" xlink:title=" ">
<polygon fill="white" stroke="#666666" points="378.88,-100.5 227.12,-100.5 227.12,-70 378.88,-70 378.88,-100.5"/>
<text xml:space="preserve" text-anchor="start" x="235.12" y="-87" font-family="Helvetica,sans-Serif" font-size="10.00">BigDataStatMeth::RcppbdSVD</text>
<text xml:space="preserve" text-anchor="middle" x="303" y="-75.75" font-family="Helvetica,sans-Serif" font-size="10.00">_lapack</text>
</a>
</g>
</g>
<!-- Node1&#45;&gt;Node19 -->
<g id="edge24_Node000001_Node000019" class="edge">
<title>Node1&#45;&gt;Node19</title>
<g id="a_edge24_Node000001_Node000019"><a xlink:title=" ">
<path fill="none" stroke="#63b8ff" d="M96.74,-346.58C110.69,-306.81 152.15,-200.39 217,-134.25 227.83,-123.2 241.68,-113.82 255.04,-106.32"/>
<polygon fill="#63b8ff" stroke="#63b8ff" points="256.59,-109.46 263.77,-101.67 253.3,-103.29 256.59,-109.46"/>
</a>
</g>
</g>
<!-- Node24 -->
<g id="Node000024" class="node">
<title>Node24</title>
<g id="a_Node000024"><a xlink:href="class_big_data_stat_meth_1_1hdf5_dataset.html#a23bea87165b8ef6b944709c5b2cbd0cf" target="_top" xlink:title=" ">
<polygon fill="white" stroke="#666666" points="378.12,-353.5 227.88,-353.5 227.88,-323 378.12,-323 378.12,-353.5"/>
<text xml:space="preserve" text-anchor="start" x="235.88" y="-340" font-family="Helvetica,sans-Serif" font-size="10.00">BigDataStatMeth::hdf5Dataset</text>
<text xml:space="preserve" text-anchor="middle" x="303" y="-328.75" font-family="Helvetica,sans-Serif" font-size="10.00">::readDatasetBlock</text>
</a>
</g>
</g>
<!-- Node1&#45;&gt;Node24 -->
<g id="edge29_Node000001_Node000024" class="edge">
<title>Node1&#45;&gt;Node24</title>
<g id="a_edge29_Node000001_Node000024"><a xlink:title=" ">
<path fill="none" stroke="#63b8ff" d="M181.38,-352C192.95,-350.68 204.77,-349.34 216.26,-348.03"/>
<polygon fill="#63b8ff" stroke="#63b8ff" points="216.59,-351.51 226.13,-346.9 215.79,-344.56 216.59,-351.51"/>
</a>
</g>
</g>
<!-- Node25 -->
<g id="Node000025" class="node">
<title>Node25</title>
<g id="a_Node000025"><a xlink:href="class_big_data_stat_meth_1_1hdf5_dataset.html#af606176d84a63561b65702b6fde3a583" target="_top" xlink:title="Write block of data with optional transposition.">
<polygon fill="white" stroke="#666666" points="378.12,-291.5 227.88,-291.5 227.88,-261 378.12,-261 378.12,-291.5"/>
<text xml:space="preserve" text-anchor="start" x="235.88" y="-278" font-family="Helvetica,sans-Serif" font-size="10.00">BigDataStatMeth::hdf5Dataset</text>
<text xml:space="preserve" text-anchor="middle" x="303" y="-266.75" font-family="Helvetica,sans-Serif" font-size="10.00">::writeDatasetBlock</text>
</a>
</g>
</g>
<!-- Node1&#45;&gt;Node25 -->
<g id="edge31_Node000001_Node000025" class="edge">
<title>Node1&#45;&gt;Node25</title>
<g id="a_edge31_Node000001_Node000025"><a xlink:title=" ">
<path fill="none" stroke="#63b8ff" d="M129.62,-346.68C164.27,-332.52 215.59,-311.55 253.23,-296.18"/>
<polygon fill="#63b8ff" stroke="#63b8ff" points="254.12,-299.59 262.05,-292.57 251.47,-293.11 254.12,-299.59"/>
</a>
</g>
</g>
<!-- Node4 -->
<g id="Node000004" class="node">
<title>Node4</title>
<g id="a_Node000004"><a xlink:href="class_big_data_stat_meth_1_1hdf5_dataset.html#ac7a7f23b7e22c9b56ca6ad86592f2d52" target="_top" xlink:title="Add an attribute to the dataset.">
<polygon fill="white" stroke="#666666" points="595.5,-699.5 445.25,-699.5 445.25,-669 595.5,-669 595.5,-699.5"/>
<text xml:space="preserve" text-anchor="start" x="453.25" y="-686" font-family="Helvetica,sans-Serif" font-size="10.00">BigDataStatMeth::hdf5Dataset</text>
<text xml:space="preserve" text-anchor="middle" x="520.38" y="-674.75" font-family="Helvetica,sans-Serif" font-size="10.00">::addAttribute</text>
</a>
</g>
</g>
<!-- Node3&#45;&gt;Node4 -->
<g id="edge3_Node000003_Node000004" class="edge">
<title>Node3&#45;&gt;Node4</title>
<g id="a_edge3_Node000003_Node000004"><a xlink:title=" ">
<path fill="none" stroke="#63b8ff" d="M378.42,-656.11C396.24,-659.67 415.41,-663.49 433.7,-667.14"/>
<polygon fill="#63b8ff" stroke="#63b8ff" points="432.97,-670.57 443.47,-669.09 434.35,-663.7 432.97,-670.57"/>
</a>
</g>
</g>
<!-- Node5 -->
<g id="Node000005" class="node">
<title>Node5</title>
<g id="a_Node000005"><a xlink:href="class_big_data_stat_meth_1_1hdf5_file.html#abfb73b5f1eb25ee00489485c8dc56a2a" target="_top" xlink:title="Close file and cleanup resources.">
<polygon fill="white" stroke="#666666" points="586.12,-613.5 454.62,-613.5 454.62,-583 586.12,-583 586.12,-613.5"/>
<text xml:space="preserve" text-anchor="start" x="462.62" y="-600" font-family="Helvetica,sans-Serif" font-size="10.00">BigDataStatMeth::hdf5File</text>
<text xml:space="preserve" text-anchor="middle" x="520.38" y="-588.75" font-family="Helvetica,sans-Serif" font-size="10.00">::close_file</text>
</a>
</g>
</g>
<!-- Node3&#45;&gt;Node5 -->
<g id="edge4_Node000003_Node000005" class="edge">
<title>Node3&#45;&gt;Node5</title>
<g id="a_edge4_Node000003_Node000005"><a xlink:title=" ">
<path fill="none" stroke="#63b8ff" d="M378.42,-626.39C399.34,-622.21 422.12,-617.67 443.15,-613.47"/>
<polygon fill="#63b8ff" stroke="#63b8ff" points="443.69,-616.93 452.81,-611.54 442.32,-610.07 443.69,-616.93"/>
</a>
</g>
</g>
<!-- Node6 -->
<g id="Node000006" class="node">
<title>Node6</title>
<g id="a_Node000006"><a xlink:href="class_big_data_stat_meth_1_1hdf5_group.html#a27cef4d33e46c72bfd792aa49fa621a3" target="_top" xlink:title="Create multiple nested groups.">
<polygon fill="white" stroke="#666666" points="805,-705.5 663,-705.5 663,-675 805,-675 805,-705.5"/>
<text xml:space="preserve" text-anchor="start" x="671" y="-692" font-family="Helvetica,sans-Serif" font-size="10.00">BigDataStatMeth::hdf5Group</text>
<text xml:space="preserve" text-anchor="middle" x="734" y="-680.75" font-family="Helvetica,sans-Serif" font-size="10.00">::create_HDF5_groups</text>
</a>
</g>
</g>
<!-- Node3&#45;&gt;Node6 -->
<g id="edge5_Node000003_Node000006" class="edge">
<title>Node3&#45;&gt;Node6</title>
<g id="a_edge5_Node000003_Node000006"><a xlink:title=" ">
<path fill="none" stroke="#63b8ff" d="M377.4,-656.88C381.56,-659.29 385.48,-662.06 389,-665.25 421.53,-694.74 388.73,-732.5 425,-757.25 495.02,-805.04 533.81,-779.01 615.75,-757.25 648.46,-748.56 681.57,-728.36 704.22,-712.4"/>
<polygon fill="#63b8ff" stroke="#63b8ff" points="705.98,-715.45 712.03,-706.75 701.88,-709.78 705.98,-715.45"/>
</a>
</g>
</g>
<!-- Node3&#45;&gt;Node8 -->
<g id="edge7_Node000003_Node000008" class="edge">
<title>Node3&#45;&gt;Node8</title>
<g id="a_edge7_Node000003_Node000008"><a xlink:title=" ">
<path fill="none" stroke="#63b8ff" d="M378.4,-646.09C442.61,-648.07 537.16,-645.7 615.75,-622.25 647.84,-612.67 680.63,-592.92 703.34,-577.33"/>
<polygon fill="#63b8ff" stroke="#63b8ff" points="705.33,-580.22 711.49,-571.6 701.3,-574.49 705.33,-580.22"/>
</a>
</g>
</g>
<!-- Node9 -->
<g id="Node000009" class="node">
<title>Node9</title>
<g id="a_Node000009"><a xlink:href="namespace_big_data_stat_meth.html#a3d06783149029f1df2853c472d401380" target="_top" xlink:title="Removes multiple elements from an HDF5 file.">
<polygon fill="white" stroke="#666666" points="585,-748.5 455.75,-748.5 455.75,-718 585,-718 585,-748.5"/>
<text xml:space="preserve" text-anchor="start" x="463.75" y="-735" font-family="Helvetica,sans-Serif" font-size="10.00">BigDataStatMeth::remove</text>
<text xml:space="preserve" text-anchor="middle" x="520.38" y="-723.75" font-family="Helvetica,sans-Serif" font-size="10.00">_elements</text>
</a>
</g>
</g>
<!-- Node3&#45;&gt;Node9 -->
<g id="edge9_Node000003_Node000009" class="edge">
<title>Node3&#45;&gt;Node9</title>
<g id="a_edge9_Node000003_Node000009"><a xlink:title=" ">
<path fill="none" stroke="#63b8ff" d="M373.3,-656.93C378.8,-659.33 384.11,-662.08 389,-665.25 409.92,-678.79 403.97,-694.88 425,-708.25 431.25,-712.22 438.11,-715.57 445.19,-718.38"/>
<polygon fill="#63b8ff" stroke="#63b8ff" points="443.67,-721.55 454.26,-721.63 446.03,-714.96 443.67,-721.55"/>
</a>
</g>
</g>
<!-- Node7 -->
<g id="Node000007" class="node">
<title>Node7</title>
<g id="a_Node000007"><a xlink:href="namespace_big_data_stat_meth.html#abcaa4216cd52f03ebac42e4855ef846b" target="_top" xlink:title="Checks if a path exists in an HDF5 file.">
<polygon fill="white" stroke="#666666" points="995.75,-631.88 852.25,-631.88 852.25,-612.62 995.75,-612.62 995.75,-631.88"/>
<text xml:space="preserve" text-anchor="middle" x="924" y="-618.38" font-family="Helvetica,sans-Serif" font-size="10.00">BigDataStatMeth::pathExists</text>
</a>
</g>
</g>
<!-- Node6&#45;&gt;Node7 -->
<g id="edge6_Node000006_Node000007" class="edge">
<title>Node6&#45;&gt;Node7</title>
<g id="a_edge6_Node000006_Node000007"><a xlink:title=" ">
<path fill="none" stroke="#63b8ff" d="M778.13,-674.65C810.19,-663.06 853.53,-647.38 884.44,-636.2"/>
<polygon fill="#63b8ff" stroke="#63b8ff" points="885.58,-639.51 893.8,-632.81 883.2,-632.92 885.58,-639.51"/>
</a>
</g>
</g>
<!-- Node8&#45;&gt;Node7 -->
<g id="edge8_Node000008_Node000007" class="edge">
<title>Node8&#45;&gt;Node7</title>
<g id="a_edge8_Node000008_Node000007"><a xlink:title=" ">
<path fill="none" stroke="#63b8ff" d="M779.08,-570.96C810.88,-582.29 853.42,-597.45 883.99,-608.35"/>
<polygon fill="#63b8ff" stroke="#63b8ff" points="882.65,-611.59 893.24,-611.65 885,-604.99 882.65,-611.59"/>
</a>
</g>
</g>
<!-- Node12 -->
<g id="Node000012" class="node">
<title>Node12</title>
<g id="a_Node000012"><a xlink:href="class_big_data_stat_meth_1_1hdf5_dataset.html#aba39e56a580d3b1fa7f1619fc72efa3e" target="_top" xlink:title="Close dataset and file.">
<polygon fill="white" stroke="#666666" points="809.12,-378.5 658.88,-378.5 658.88,-348 809.12,-348 809.12,-378.5"/>
<text xml:space="preserve" text-anchor="start" x="666.88" y="-365" font-family="Helvetica,sans-Serif" font-size="10.00">BigDataStatMeth::hdf5Dataset</text>
<text xml:space="preserve" text-anchor="middle" x="734" y="-353.75" font-family="Helvetica,sans-Serif" font-size="10.00">::close_dataset_file</text>
</a>
</g>
</g>
<!-- Node11&#45;&gt;Node12 -->
<g id="edge13_Node000011_Node000012" class="edge">
<title>Node11&#45;&gt;Node12</title>
<g id="a_edge13_Node000011_Node000012"><a xlink:title=" ">
<path fill="none" stroke="#63b8ff" d="M378.24,-383.1C453.09,-378.91 568.54,-372.45 647.26,-368.05"/>
<polygon fill="#63b8ff" stroke="#63b8ff" points="647.29,-371.55 657.08,-367.5 646.9,-364.56 647.29,-371.55"/>
</a>
</g>
</g>
<!-- Node13&#45;&gt;Node5 -->
<g id="edge15_Node000013_Node000005" class="edge">
<title>Node13&#45;&gt;Node5</title>
<g id="a_edge15_Node000013_Node000005"><a xlink:title=" ">
<path fill="none" stroke="#63b8ff" d="M331.28,-489.95C369.63,-512.04 439.6,-552.32 482.54,-577.04"/>
<polygon fill="#63b8ff" stroke="#63b8ff" points="480.59,-579.96 491.01,-581.92 484.09,-573.89 480.59,-579.96"/>
</a>
</g>
</g>
<!-- Node13&#45;&gt;Node8 -->
<g id="edge16_Node000013_Node000008" class="edge">
<title>Node13&#45;&gt;Node8</title>
<g id="a_edge16_Node000013_Node000008"><a xlink:title=" ">
<path fill="none" stroke="#63b8ff" d="M378.52,-489.19C393.88,-492.22 409.96,-495.37 425,-498.25 505.57,-513.7 598.14,-530.73 660.59,-542.12"/>
<polygon fill="#63b8ff" stroke="#63b8ff" points="659.93,-545.56 670.4,-543.91 661.19,-538.67 659.93,-545.56"/>
</a>
</g>
</g>
<!-- Node14 -->
<g id="Node000014" class="node">
<title>Node14</title>
<g id="a_Node000014"><a xlink:href="class_big_data_stat_meth_1_1hdf5_dataset.html#a1ebc27e1f730bc4e611b844dbbb08e34" target="_top" xlink:title="Get an attribute from the dataset.">
<polygon fill="white" stroke="#666666" points="595.5,-489.5 445.25,-489.5 445.25,-459 595.5,-459 595.5,-489.5"/>
<text xml:space="preserve" text-anchor="start" x="453.25" y="-476" font-family="Helvetica,sans-Serif" font-size="10.00">BigDataStatMeth::hdf5Dataset</text>
<text xml:space="preserve" text-anchor="middle" x="520.38" y="-464.75" font-family="Helvetica,sans-Serif" font-size="10.00">::getAttribute</text>
</a>
</g>
</g>
<!-- Node13&#45;&gt;Node14 -->
<g id="edge17_Node000013_Node000014" class="edge">
<title>Node13&#45;&gt;Node14</title>
<g id="a_edge17_Node000013_Node000014"><a xlink:title=" ">
<path fill="none" stroke="#63b8ff" d="M378.42,-474.25C396.16,-474.25 415.23,-474.25 433.44,-474.25"/>
<polygon fill="#63b8ff" stroke="#63b8ff" points="433.44,-477.75 443.44,-474.25 433.44,-470.75 433.44,-477.75"/>
</a>
</g>
</g>
<!-- Node15 -->
<g id="Node000015" class="node">
<title>Node15</title>
<g id="a_Node000015"><a xlink:href="class_big_data_stat_meth_1_1hdf5_dataset.html#a945dd1d6f3db102a962d239045792f61" target="_top" xlink:title="Get dimensions of existing dataset.">
<polygon fill="white" stroke="#666666" points="595.5,-440.5 445.25,-440.5 445.25,-410 595.5,-410 595.5,-440.5"/>
<text xml:space="preserve" text-anchor="start" x="453.25" y="-427" font-family="Helvetica,sans-Serif" font-size="10.00">BigDataStatMeth::hdf5Dataset</text>
<text xml:space="preserve" text-anchor="middle" x="520.38" y="-415.75" font-family="Helvetica,sans-Serif" font-size="10.00">::getDimensExistingDataset</text>
</a>
</g>
</g>
<!-- Node13&#45;&gt;Node15 -->
<g id="edge20_Node000013_Node000015" class="edge">
<title>Node13&#45;&gt;Node15</title>
<g id="a_edge20_Node000013_Node000015"><a xlink:title=" ">
<path fill="none" stroke="#63b8ff" d="M373.03,-458.54C394.09,-453.75 417.43,-448.44 439.16,-443.5"/>
<polygon fill="#63b8ff" stroke="#63b8ff" points="439.91,-446.92 448.89,-441.29 438.36,-440.09 439.91,-446.92"/>
</a>
</g>
</g>
<!-- Node14&#45;&gt;Node8 -->
<g id="edge19_Node000014_Node000008" class="edge">
<title>Node14&#45;&gt;Node8</title>
<g id="a_edge19_Node000014_Node000008"><a xlink:title=" ">
<path fill="none" stroke="#63b8ff" d="M576.14,-489.87C589.22,-493.93 603.07,-498.51 615.75,-503.25 640.76,-512.6 668.05,-524.59 690.01,-534.71"/>
<polygon fill="#63b8ff" stroke="#63b8ff" points="688.42,-537.83 698.96,-538.87 691.37,-531.48 688.42,-537.83"/>
</a>
</g>
</g>
<!-- Node14&#45;&gt;Node12 -->
<g id="edge18_Node000014_Node000012" class="edge">
<title>Node14&#45;&gt;Node12</title>
<g id="a_edge18_Node000014_Node000012"><a xlink:title=" ">
<path fill="none" stroke="#63b8ff" d="M592.5,-458.51C600.5,-455.83 608.41,-452.76 615.75,-449.25 650.18,-432.79 684.83,-405.78 707.44,-386.42"/>
<polygon fill="#63b8ff" stroke="#63b8ff" points="709.69,-389.11 714.93,-379.9 705.09,-383.83 709.69,-389.11"/>
</a>
</g>
</g>
<!-- Node17 -->
<g id="Node000017" class="node">
<title>Node17</title>
<g id="a_Node000017"><a xlink:href="namespace_big_data_stat_meth.html#af64ef9879e2404a9490e6a93f7bc8807" target="_top" xlink:title="Calculate block positions and sizes for matrix operations.">
<polygon fill="white" stroke="#666666" points="588,-143.5 452.75,-143.5 452.75,-113 588,-113 588,-143.5"/>
<text xml:space="preserve" text-anchor="start" x="460.75" y="-130" font-family="Helvetica,sans-Serif" font-size="10.00">BigDataStatMeth::getBlock</text>
<text xml:space="preserve" text-anchor="middle" x="520.38" y="-118.75" font-family="Helvetica,sans-Serif" font-size="10.00">PositionsSizes</text>
</a>
</g>
</g>
<!-- Node16&#45;&gt;Node17 -->
<g id="edge22_Node000016_Node000017" class="edge">
<title>Node16&#45;&gt;Node17</title>
<g id="a_edge22_Node000016_Node000017"><a xlink:title=" ">
<path fill="none" stroke="#63b8ff" d="M363.42,-149.97C387.5,-146.62 415.64,-142.7 441.33,-139.12"/>
<polygon fill="#63b8ff" stroke="#63b8ff" points="441.64,-142.61 451.06,-137.77 440.67,-135.68 441.64,-142.61"/>
</a>
</g>
</g>
<!-- Node18 -->
<g id="Node000018" class="node">
<title>Node18</title>
<g id="a_Node000018"><a xlink:href="namespace_big_data_stat_meth.html#ad6e454f49b5e34a5b657df896eed7502" target="_top" xlink:title="Optimizes block size for edge cases.">
<polygon fill="white" stroke="#666666" points="802.38,-143.5 665.62,-143.5 665.62,-113 802.38,-113 802.38,-143.5"/>
<text xml:space="preserve" text-anchor="start" x="673.62" y="-130" font-family="Helvetica,sans-Serif" font-size="10.00">BigDataStatMeth::getOptim</text>
<text xml:space="preserve" text-anchor="middle" x="734" y="-118.75" font-family="Helvetica,sans-Serif" font-size="10.00">BlockSize</text>
</a>
</g>
</g>
<!-- Node17&#45;&gt;Node18 -->
<g id="edge23_Node000017_Node000018" class="edge">
<title>Node17&#45;&gt;Node18</title>
<g id="a_edge23_Node000017_Node000018"><a xlink:title=" ">
<path fill="none" stroke="#63b8ff" d="M588.33,-128.25C609.17,-128.25 632.34,-128.25 653.93,-128.25"/>
<polygon fill="#63b8ff" stroke="#63b8ff" points="653.87,-131.75 663.87,-128.25 653.87,-124.75 653.87,-131.75"/>
</a>
</g>
</g>
<!-- Node20 -->
<g id="Node000020" class="node">
<title>Node20</title>
<g id="a_Node000020"><a xlink:href="namespace_big_data_stat_meth.html#a8770383761cbd66c88453c0cfe18ad7f" target="_top" xlink:title=" ">
<polygon fill="white" stroke="#666666" points="587.25,-94.88 453.5,-94.88 453.5,-75.62 587.25,-75.62 587.25,-94.88"/>
<text xml:space="preserve" text-anchor="middle" x="520.38" y="-81.38" font-family="Helvetica,sans-Serif" font-size="10.00">BigDataStatMeth::dgesdd_</text>
</a>
</g>
</g>
<!-- Node19&#45;&gt;Node20 -->
<g id="edge25_Node000019_Node000020" class="edge">
<title>Node19&#45;&gt;Node20</title>
<g id="a_edge25_Node000019_Node000020"><a xlink:title=" ">
<path fill="none" stroke="#63b8ff" d="M379.33,-85.25C399.5,-85.25 421.34,-85.25 441.64,-85.25"/>
<polygon fill="#63b8ff" stroke="#63b8ff" points="441.55,-88.75 451.55,-85.25 441.55,-81.75 441.55,-88.75"/>
</a>
</g>
</g>
<!-- Node21 -->
<g id="Node000021" class="node">
<title>Node21</title>
<g id="a_Node000021"><a xlink:href="namespace_big_data_stat_meth.html#a1cd3f5cf856a0d1bff9e1cf956f368fd" target="_top" xlink:title="Template function for normalizing data with pre&#45;computed statistics.">
<polygon fill="white" stroke="#666666" points="615.75,-57.88 425,-57.88 425,-38.62 615.75,-38.62 615.75,-57.88"/>
<text xml:space="preserve" text-anchor="middle" x="520.38" y="-44.38" font-family="Helvetica,sans-Serif" font-size="10.00">BigDataStatMeth::RcppNormalize_Data</text>
</a>
</g>
</g>
<!-- Node19&#45;&gt;Node21 -->
<g id="edge26_Node000019_Node000021" class="edge">
<title>Node19&#45;&gt;Node21</title>
<g id="a_edge26_Node000019_Node000021"><a xlink:title=" ">
<path fill="none" stroke="#63b8ff" d="M379.33,-72.31C402.16,-68.39 427.13,-64.1 449.58,-60.24"/>
<polygon fill="#63b8ff" stroke="#63b8ff" points="449.96,-63.73 459.23,-58.58 448.78,-56.83 449.96,-63.73"/>
</a>
</g>
</g>
<!-- Node22 -->
<g id="Node000022" class="node">
<title>Node22</title>
<g id="a_Node000022"><a xlink:href="namespace_big_data_stat_meth.html#aaac3a1d91c92fdf91f7bbc256672b68e" target="_top" xlink:title="Column&#45;wise normalization with pre&#45;computed statistics.">
<polygon fill="white" stroke="#666666" points="816.25,-79.5 651.75,-79.5 651.75,-49 816.25,-49 816.25,-79.5"/>
<text xml:space="preserve" text-anchor="start" x="659.75" y="-66" font-family="Helvetica,sans-Serif" font-size="10.00">BigDataStatMeth::RcppNormalize</text>
<text xml:space="preserve" text-anchor="middle" x="734" y="-54.75" font-family="Helvetica,sans-Serif" font-size="10.00">Colwise</text>
</a>
</g>
</g>
<!-- Node21&#45;&gt;Node22 -->
<g id="edge27_Node000021_Node000022" class="edge">
<title>Node21&#45;&gt;Node22</title>
<g id="a_edge27_Node000021_Node000022"><a xlink:title=" ">
<path fill="none" stroke="#63b8ff" d="M616.05,-55.41C624.05,-56.01 632.14,-56.62 640.13,-57.23"/>
<polygon fill="#63b8ff" stroke="#63b8ff" points="639.59,-60.7 649.83,-57.96 640.12,-53.72 639.59,-60.7"/>
</a>
</g>
</g>
<!-- Node23 -->
<g id="Node000023" class="node">
<title>Node23</title>
<g id="a_Node000023"><a xlink:href="namespace_big_data_stat_meth.html#a44b65a910276a5b61d0c3877b810eaeb" target="_top" xlink:title=" ">
<polygon fill="white" stroke="#666666" points="816.25,-30.5 651.75,-30.5 651.75,0 816.25,0 816.25,-30.5"/>
<text xml:space="preserve" text-anchor="start" x="659.75" y="-17" font-family="Helvetica,sans-Serif" font-size="10.00">BigDataStatMeth::RcppNormalize</text>
<text xml:space="preserve" text-anchor="middle" x="734" y="-5.75" font-family="Helvetica,sans-Serif" font-size="10.00">Rowwise</text>
</a>
</g>
</g>
<!-- Node21&#45;&gt;Node23 -->
<g id="edge28_Node000021_Node000023" class="edge">
<title>Node21&#45;&gt;Node23</title>
<g id="a_edge28_Node000021_Node000023"><a xlink:title=" ">
<path fill="none" stroke="#63b8ff" d="M586.02,-38.17C603.13,-35.5 621.95,-32.57 640.23,-29.72"/>
<polygon fill="#63b8ff" stroke="#63b8ff" points="640.69,-33.19 650.03,-28.19 639.61,-26.27 640.69,-33.19"/>
</a>
</g>
</g>
<!-- Node24&#45;&gt;Node12 -->
<g id="edge30_Node000024_Node000012" class="edge">
<title>Node24&#45;&gt;Node12</title>
<g id="a_edge30_Node000024_Node000012"><a xlink:title=" ">
<path fill="none" stroke="#63b8ff" d="M378.24,-342.58C453.09,-346.94 568.54,-353.67 647.26,-358.25"/>
<polygon fill="#63b8ff" stroke="#63b8ff" points="646.9,-361.74 657.08,-358.83 647.3,-354.75 646.9,-361.74"/>
</a>
</g>
</g>
<!-- Node25&#45;&gt;Node12 -->
<g id="edge33_Node000025_Node000012" class="edge">
<title>Node25&#45;&gt;Node12</title>
<g id="a_edge33_Node000025_Node000012"><a xlink:title=" ">
<path fill="none" stroke="#63b8ff" d="M361.78,-260.54C370.92,-257.88 380.24,-255.06 389,-252.25 405.2,-247.05 408.24,-242.18 425,-239.25 508.51,-224.63 537.89,-205.71 615.75,-239.25 662.45,-259.36 699.22,-308.23 718.4,-338.26"/>
<polygon fill="#63b8ff" stroke="#63b8ff" points="715.18,-339.71 723.42,-346.37 721.13,-336.02 715.18,-339.71"/>
</a>
</g>
</g>
<!-- Node26 -->
<g id="Node000026" class="node">
<title>Node26</title>
<g id="a_Node000026"><a xlink:href="class_big_data_stat_meth_1_1hdf5_dataset.html#a64177ae924792ea9e557febaa95ed400" target="_top" xlink:title="Close the dataset.">
<polygon fill="white" stroke="#666666" points="595.5,-192.5 445.25,-192.5 445.25,-162 595.5,-162 595.5,-192.5"/>
<text xml:space="preserve" text-anchor="start" x="453.25" y="-179" font-family="Helvetica,sans-Serif" font-size="10.00">BigDataStatMeth::hdf5Dataset</text>
<text xml:space="preserve" text-anchor="middle" x="520.38" y="-167.75" font-family="Helvetica,sans-Serif" font-size="10.00">::close_dataset</text>
</a>
</g>
</g>
<!-- Node25&#45;&gt;Node26 -->
<g id="edge32_Node000025_Node000026" class="edge">
<title>Node25&#45;&gt;Node26</title>
<g id="a_edge32_Node000025_Node000026"><a xlink:title=" ">
<path fill="none" stroke="#63b8ff" d="M373.84,-260.55C379.16,-258.16 384.29,-255.41 389,-252.25 410.56,-237.79 403.61,-220.96 425,-206.25 429.73,-202.99 434.85,-200.09 440.15,-197.51"/>
<polygon fill="#63b8ff" stroke="#63b8ff" points="441.44,-200.77 449.18,-193.54 438.61,-194.37 441.44,-200.77"/>
</a>
</g>
</g>
<!-- Node27 -->
<g id="Node000027" class="node">
<title>Node27</title>
<g id="a_Node000027"><a xlink:href="class_big_data_stat_meth_1_1hdf5_dataset.html#a94d81b72e92cb0230b4e64f37ea7d2e3" target="_top" xlink:title="Convert DataFrame to range list.">
<polygon fill="white" stroke="#666666" points="606,-316.5 434.75,-316.5 434.75,-286 606,-286 606,-316.5"/>
<text xml:space="preserve" text-anchor="start" x="442.75" y="-303" font-family="Helvetica,sans-Serif" font-size="10.00">BigDataStatMeth::hdf5Dataset</text>
<text xml:space="preserve" text-anchor="middle" x="520.38" y="-291.75" font-family="Helvetica,sans-Serif" font-size="10.00">::convert_DataFrame_to_RangeList</text>
</a>
</g>
</g>
<!-- Node25&#45;&gt;Node27 -->
<g id="edge34_Node000025_Node000027" class="edge">
<title>Node25&#45;&gt;Node27</title>
<g id="a_edge34_Node000025_Node000027"><a xlink:title=" ">
<path fill="none" stroke="#63b8ff" d="M378.42,-284.89C392.86,-286.56 408.18,-288.34 423.2,-290.09"/>
<polygon fill="#63b8ff" stroke="#63b8ff" points="422.76,-293.56 433.1,-291.24 423.57,-286.61 422.76,-293.56"/>
</a>
</g>
</g>
<!-- Node28 -->
<g id="Node000028" class="node">
<title>Node28</title>
<g id="a_Node000028"><a xlink:href="namespace_big_data_stat_meth.html#a2692707b3ea4aaafa09d07afaf632437" target="_top" xlink:title="Transposes a 2D matrix.">
<polygon fill="white" stroke="#666666" points="590.25,-267.88 450.5,-267.88 450.5,-248.62 590.25,-248.62 590.25,-267.88"/>
<text xml:space="preserve" text-anchor="middle" x="520.38" y="-254.38" font-family="Helvetica,sans-Serif" font-size="10.00">BigDataStatMeth::transpose</text>
</a>
</g>
</g>
<!-- Node25&#45;&gt;Node28 -->
<g id="edge35_Node000025_Node000028" class="edge">
<title>Node25&#45;&gt;Node28</title>
<g id="a_edge35_Node000025_Node000028"><a xlink:title=" ">
<path fill="none" stroke="#63b8ff" d="M378.42,-270.03C397.83,-268.41 418.85,-266.65 438.57,-265"/>
<polygon fill="#63b8ff" stroke="#63b8ff" points="438.84,-268.49 448.51,-264.17 438.25,-261.52 438.84,-268.49"/>
</a>
</g>
</g>
</g>
</svg>

<g id="navigator" transform="translate(0 0)" fill="#404254">
  <rect fill="#f2f5e9" fill-opacity="0.5" stroke="#606060" stroke-width=".5" x="0" y="0" width="60" height="60"/>
  <use id="zoomplus" xlink:href="#zoomPlus" x="17" y="9" onmousedown="handleZoom(evt,'in')"/>
  <use id="zoomminus" xlink:href="#zoomMin" x="42" y="9" onmousedown="handleZoom(evt,'out')"/>
  <use id="reset" xlink:href="#resetDef" x="30" y="36" onmousedown="handleReset()"/>
   <use id="arrowup" xlink:href="#arrowUp" x="0" y="0" onmousedown="handlePan(0,-1)"/>
  <use id="arrowright" xlink:href="#arrowRight" x="0" y="0" onmousedown="handlePan(1,0)"/>
  <use id="arrowdown" xlink:href="#arrowDown" x="0" y="0" onmousedown="handlePan(0,1)"/>
  <use id="arrowleft" xlink:href="#arrowLeft" x="0" y="0" onmousedown="handlePan(-1,0)"/>
</g>
<svg viewBox="0 0 15 15" width="100%" height="30px" preserveAspectRatio="xMaxYMin meet">
 <g id="arrow_out" transform="scale(0.3 0.3)">
  <a xlink:href="namespace_big_data_stat_meth_aba547c198a44e235965333df9d1dc146_cgraph_org.svg" target="_base">
   <rect id="button" ry="5" rx="5" y="6" x="6" height="38" width="38"
        fill="#f2f5e9" fill-opacity="0.5" stroke="#606060" stroke-width="1.0"/>
   <path id="arrow"
     d="M 11.500037,31.436501 C 11.940474,20.09759 22.043105,11.32322 32.158766,21.979434 L 37.068811,17.246167 C 37.068811,17.246167 37.088388,32 37.088388,32 L 22.160133,31.978069 C 22.160133,31.978069 26.997745,27.140456 26.997745,27.140456 C 18.528582,18.264221 13.291696,25.230495 11.500037,31.436501 z"
     style="fill:#404040;"/>
  </a>
 </g>
</svg>

<style type='text/css'>
<![CDATA[
[data-mouse-over-selected='false'] { opacity: 0.7; }
[data-mouse-over-selected='true']  { opacity: 1.0; }
]]>
</style>
<script type="application/ecmascript"><![CDATA[
document.addEventListener('DOMContentLoaded', (event) => {
  highlightEdges();
  highlightAdjacentNodes();
});
]]></script>
</svg>
