<?xml version="1.0" encoding="UTF-8" standalone="no"?>
<!DOCTYPE svg PUBLIC "-//W3C//DTD SVG 1.1//EN"
 "http://www.w3.org/Graphics/SVG/1.1/DTD/svg11.dtd">
<!-- Generated by graphviz version 14.0.0 (20250921.2048)
 -->
<!-- Title: BigDataStatMeth::getInitialPosition Pages: 1 -->
<!--zoomable 39 -->

<svg id="main" version="1.1" xmlns="http://www.w3.org/2000/svg" xmlns:xlink="http://www.w3.org/1999/xlink" xml:space="preserve" onload="init(evt)">

<style type="text/css"><![CDATA[
.node, .edge {opacity: 0.7;}
.node.selected, .edge.selected {opacity: 1;}
.edge:hover path { stroke: red; }
.edge:hover polygon { stroke: red; fill: red; }
]]></style>

<defs>
  <circle id="rim" cx="0" cy="0" r="7"/>
  <circle id="rim2" cx="0" cy="0" r="3.5"/>
  <g id="zoomPlus">
    <use xlink:href="#rim" fill="#404040"><set attributeName="fill" to="#808080" begin="zoomplus.mouseover" end="zoomplus.mouseout"/></use>
    <path d="M-4,0h8M0,-4v8" fill="none" stroke="white" stroke-width="1.5" pointer-events="none"/>
  </g>
  <g id="zoomMin">
    <use xlink:href="#rim" fill="#404040"><set attributeName="fill" to="#808080" begin="zoomminus.mouseover" end="zoomminus.mouseout"/></use>
    <path d="M-4,0h8" fill="none" stroke="white" stroke-width="1.5" pointer-events="none"/>
  </g>
  <g id="arrowUp" transform="translate(30 24)">
    <use xlink:href="#rim"/>
    <path pointer-events="none" fill="none" stroke="white" stroke-width="1.5" d="M0,-3.0v7 M-2.5,-0.5L0,-3.0L2.5,-0.5"/>
  </g>
  <g id="arrowRight" transform="rotate(90) translate(36 -43)">
    <use xlink:href="#rim"/>
    <path pointer-events="none" fill="none" stroke="white" stroke-width="1.5" d="M0,-3.0v7 M-2.5,-0.5L0,-3.0L2.5,-0.5"/>
  </g>
  <g id="arrowDown" transform="rotate(180) translate(-30 -48)">
    <use xlink:href="#rim"/>
    <path pointer-events="none" fill="none" stroke="white" stroke-width="1.5" d="M0,-3.0v7 M-2.5,-0.5L0,-3.0L2.5,-0.5"/>
  </g>
  <g id="arrowLeft" transform="rotate(270) translate(-36 17)">
    <use xlink:href="#rim"/>
    <path pointer-events="none" fill="none" stroke="white" stroke-width="1.5" d="M0,-3.0v7 M-2.5,-0.5L0,-3.0L2.5,-0.5"/>
  </g>
  <g id="resetDef">
    <use xlink:href="#rim2" fill="#404040"><set attributeName="fill" to="#808080" begin="reset.mouseover" end="reset.mouseout"/></use>
  </g>
</defs>
<script type="application/ecmascript">
var viewWidth = 1122;
var viewHeight = 39;
var sectionId = 'dynsection-49';
</script>
<script type="application/ecmascript" xlink:href="../../../../assets/svg.min.js"/>
<svg id="graph" class="graph">
<g id="viewport">
<title>BigDataStatMeth::getInitialPosition</title>
<!-- Node1 -->
<g id="Node000001" class="node">
<title>Node1</title>
<g id="a_Node000001"><a xlink:title="Determines initial position for matrix operations.">
<polygon fill="#999999" stroke="#666666" points="1113.75,-30.5 980,-30.5 980,0 1113.75,0 1113.75,-30.5"/>
<text xml:space="preserve" text-anchor="start" x="988" y="-17" font-family="Helvetica,sans-Serif" font-size="10.00">BigDataStatMeth::getInitial</text>
<text xml:space="preserve" text-anchor="middle" x="1046.88" y="-5.75" font-family="Helvetica,sans-Serif" font-size="10.00">Position</text>
</a>
</g>
</g>
<!-- Node2 -->
<g id="Node000002" class="node">
<title>Node2</title>
<g id="a_Node000002"><a xlink:href="namespace_big_data_stat_meth.html#a3d9621d5cfca7c8611f9bdd915fb24e5" target="_top" xlink:title=" ">
<polygon fill="white" stroke="#666666" points="944,-30.5 814.75,-30.5 814.75,0 944,0 944,-30.5"/>
<text xml:space="preserve" text-anchor="start" x="822.75" y="-17" font-family="Helvetica,sans-Serif" font-size="10.00">BigDataStatMeth::prepare</text>
<text xml:space="preserve" text-anchor="middle" x="879.38" y="-5.75" font-family="Helvetica,sans-Serif" font-size="10.00">ForParallelization</text>
</a>
</g>
</g>
<!-- Node1&#45;&gt;Node2 -->
<g id="edge1_Node000001_Node000002" class="edge">
<title>Node1&#45;&gt;Node2</title>
<g id="a_edge1_Node000001_Node000002"><a xlink:title=" ">
<path fill="none" stroke="#63b8ff" d="M968.26,-15.25C960.25,-15.25 952.17,-15.25 944.33,-15.25"/>
<polygon fill="#63b8ff" stroke="#63b8ff" points="968,-18.75 978,-15.25 968,-11.75 968,-18.75"/>
</a>
</g>
</g>
<!-- Node3 -->
<g id="Node000003" class="node">
<title>Node3</title>
<g id="a_Node000003"><a xlink:href="namespace_big_data_stat_meth.html#a8230fb3b686276464c16ed444be03d22" target="_top" xlink:title=" ">
<polygon fill="white" stroke="#666666" points="778.75,-30.5 597.75,-30.5 597.75,0 778.75,0 778.75,-30.5"/>
<text xml:space="preserve" text-anchor="start" x="605.75" y="-17" font-family="Helvetica,sans-Serif" font-size="10.00">BigDataStatMeth::First</text>
<text xml:space="preserve" text-anchor="middle" x="688.25" y="-5.75" font-family="Helvetica,sans-Serif" font-size="10.00">_level_SvdBlock_decomposition_hdf5</text>
</a>
</g>
</g>
<!-- Node2&#45;&gt;Node3 -->
<g id="edge2_Node000002_Node000003" class="edge">
<title>Node2&#45;&gt;Node3</title>
<g id="a_edge2_Node000002_Node000003"><a xlink:title=" ">
<path fill="none" stroke="#63b8ff" d="M802.98,-15.25C795.11,-15.25 787.06,-15.25 779.05,-15.25"/>
<polygon fill="#63b8ff" stroke="#63b8ff" points="802.83,-18.75 812.83,-15.25 802.83,-11.75 802.83,-18.75"/>
</a>
</g>
</g>
<!-- Node4 -->
<g id="Node000004" class="node">
<title>Node4</title>
<g id="a_Node000004"><a xlink:href="namespace_big_data_stat_meth.html#afbf517649a66c749830f33e4273857a7" target="_top" xlink:title="Block&#45;wise SVD decomposition for large HDF5 matrices.">
<polygon fill="white" stroke="#666666" points="561.75,-30.5 410,-30.5 410,0 561.75,0 561.75,-30.5"/>
<text xml:space="preserve" text-anchor="start" x="418" y="-17" font-family="Helvetica,sans-Serif" font-size="10.00">BigDataStatMeth::RcppbdSVD</text>
<text xml:space="preserve" text-anchor="middle" x="485.88" y="-5.75" font-family="Helvetica,sans-Serif" font-size="10.00">_hdf5_Block</text>
</a>
</g>
</g>
<!-- Node3&#45;&gt;Node4 -->
<g id="edge3_Node000003_Node000004" class="edge">
<title>Node3&#45;&gt;Node4</title>
<g id="a_edge3_Node000003_Node000004"><a xlink:title=" ">
<path fill="none" stroke="#63b8ff" d="M585.99,-15.25C577.96,-15.25 569.94,-15.25 562.14,-15.25"/>
<polygon fill="#63b8ff" stroke="#63b8ff" points="585.81,-18.75 595.81,-15.25 585.81,-11.75 585.81,-18.75"/>
</a>
</g>
</g>
<!-- Node5 -->
<g id="Node000005" class="node">
<title>Node5</title>
<g id="a_Node000005"><a xlink:href="namespace_big_data_stat_meth.html#a05d2196df8a68f19b986fd06d8812e84" target="_top" xlink:title="Main SVD computation function for HDF5 matrices.">
<polygon fill="white" stroke="#666666" points="374,-24.88 198.25,-24.88 198.25,-5.63 374,-5.63 374,-24.88"/>
<text xml:space="preserve" text-anchor="middle" x="286.12" y="-11.38" font-family="Helvetica,sans-Serif" font-size="10.00">BigDataStatMeth::RcppbdSVD_hdf5</text>
</a>
</g>
</g>
<!-- Node4&#45;&gt;Node5 -->
<g id="edge4_Node000004_Node000005" class="edge">
<title>Node4&#45;&gt;Node5</title>
<g id="a_edge4_Node000004_Node000005"><a xlink:title=" ">
<path fill="none" stroke="#63b8ff" d="M398.15,-15.25C390.3,-15.25 382.34,-15.25 374.49,-15.25"/>
<polygon fill="#63b8ff" stroke="#63b8ff" points="398.04,-18.75 408.04,-15.25 398.04,-11.75 398.04,-18.75"/>
</a>
</g>
</g>
<!-- Node6 -->
<g id="Node000006" class="node">
<title>Node6</title>
<g id="a_Node000006"><a xlink:href="namespace_big_data_stat_meth.html#ad6b05b5b52e05bd7801b03ba6008980d" target="_top" xlink:title="Perform Principal Component Analysis.">
<polygon fill="white" stroke="#666666" points="162.25,-24.88 0,-24.88 0,-5.63 162.25,-5.63 162.25,-24.88"/>
<text xml:space="preserve" text-anchor="middle" x="81.12" y="-11.38" font-family="Helvetica,sans-Serif" font-size="10.00">BigDataStatMeth::RcppPCAHdf5</text>
</a>
</g>
</g>
<!-- Node5&#45;&gt;Node6 -->
<g id="edge5_Node000005_Node000006" class="edge">
<title>Node5&#45;&gt;Node6</title>
<g id="a_edge5_Node000005_Node000006"><a xlink:title=" ">
<path fill="none" stroke="#63b8ff" d="M186.54,-15.25C178.51,-15.25 170.46,-15.25 162.58,-15.25"/>
<polygon fill="#63b8ff" stroke="#63b8ff" points="186.34,-18.75 196.34,-15.25 186.34,-11.75 186.34,-18.75"/>
</a>
</g>
</g>
</g>
</svg>

<g id="navigator" transform="translate(0 0)" fill="#404254">
  <rect fill="#f2f5e9" fill-opacity="0.5" stroke="#606060" stroke-width=".5" x="0" y="0" width="60" height="60"/>
  <use id="zoomplus" xlink:href="#zoomPlus" x="17" y="9" onmousedown="handleZoom(evt,'in')"/>
  <use id="zoomminus" xlink:href="#zoomMin" x="42" y="9" onmousedown="handleZoom(evt,'out')"/>
  <use id="reset" xlink:href="#resetDef" x="30" y="36" onmousedown="handleReset()"/>
   <use id="arrowup" xlink:href="#arrowUp" x="0" y="0" onmousedown="handlePan(0,-1)"/>
  <use id="arrowright" xlink:href="#arrowRight" x="0" y="0" onmousedown="handlePan(1,0)"/>
  <use id="arrowdown" xlink:href="#arrowDown" x="0" y="0" onmousedown="handlePan(0,1)"/>
  <use id="arrowleft" xlink:href="#arrowLeft" x="0" y="0" onmousedown="handlePan(-1,0)"/>
</g>
<svg viewBox="0 0 15 15" width="100%" height="30px" preserveAspectRatio="xMaxYMin meet">
 <g id="arrow_out" transform="scale(0.3 0.3)">
  <a xlink:href="namespace_big_data_stat_meth_a435006924343304fe972a3beabee62a9_icgraph_org.svg" target="_base">
   <rect id="button" ry="5" rx="5" y="6" x="6" height="38" width="38"
        fill="#f2f5e9" fill-opacity="0.5" stroke="#606060" stroke-width="1.0"/>
   <path id="arrow"
     d="M 11.500037,31.436501 C 11.940474,20.09759 22.043105,11.32322 32.158766,21.979434 L 37.068811,17.246167 C 37.068811,17.246167 37.088388,32 37.088388,32 L 22.160133,31.978069 C 22.160133,31.978069 26.997745,27.140456 26.997745,27.140456 C 18.528582,18.264221 13.291696,25.230495 11.500037,31.436501 z"
     style="fill:#404040;"/>
  </a>
 </g>
</svg>

<style type='text/css'>
<![CDATA[
[data-mouse-over-selected='false'] { opacity: 0.7; }
[data-mouse-over-selected='true']  { opacity: 1.0; }
]]>
</style>
<script type="application/ecmascript"><![CDATA[
document.addEventListener('DOMContentLoaded', (event) => {
  highlightEdges();
  highlightAdjacentNodes();
});
]]></script>
</svg>
