<?xml version="1.0" encoding="UTF-8" standalone="no"?>
<!DOCTYPE svg PUBLIC "-//W3C//DTD SVG 1.1//EN"
 "http://www.w3.org/Graphics/SVG/1.1/DTD/svg11.dtd">
<!-- Generated by graphviz version 14.0.0 (20250921.2048)
 -->
<!-- Title: BigDataStatMeth::RcppPseudoinvHdf5 Pages: 1 -->
<!--zoomable 482 -->

<svg id="main" version="1.1" xmlns="http://www.w3.org/2000/svg" xmlns:xlink="http://www.w3.org/1999/xlink" xml:space="preserve" onload="init(evt)">

<style type="text/css"><![CDATA[
.node, .edge {opacity: 0.7;}
.node.selected, .edge.selected {opacity: 1;}
.edge:hover path { stroke: red; }
.edge:hover polygon { stroke: red; fill: red; }
]]></style>

<defs>
  <circle id="rim" cx="0" cy="0" r="7"/>
  <circle id="rim2" cx="0" cy="0" r="3.5"/>
  <g id="zoomPlus">
    <use xlink:href="#rim" fill="#404040"><set attributeName="fill" to="#808080" begin="zoomplus.mouseover" end="zoomplus.mouseout"/></use>
    <path d="M-4,0h8M0,-4v8" fill="none" stroke="white" stroke-width="1.5" pointer-events="none"/>
  </g>
  <g id="zoomMin">
    <use xlink:href="#rim" fill="#404040"><set attributeName="fill" to="#808080" begin="zoomminus.mouseover" end="zoomminus.mouseout"/></use>
    <path d="M-4,0h8" fill="none" stroke="white" stroke-width="1.5" pointer-events="none"/>
  </g>
  <g id="arrowUp" transform="translate(30 24)">
    <use xlink:href="#rim"/>
    <path pointer-events="none" fill="none" stroke="white" stroke-width="1.5" d="M0,-3.0v7 M-2.5,-0.5L0,-3.0L2.5,-0.5"/>
  </g>
  <g id="arrowRight" transform="rotate(90) translate(36 -43)">
    <use xlink:href="#rim"/>
    <path pointer-events="none" fill="none" stroke="white" stroke-width="1.5" d="M0,-3.0v7 M-2.5,-0.5L0,-3.0L2.5,-0.5"/>
  </g>
  <g id="arrowDown" transform="rotate(180) translate(-30 -48)">
    <use xlink:href="#rim"/>
    <path pointer-events="none" fill="none" stroke="white" stroke-width="1.5" d="M0,-3.0v7 M-2.5,-0.5L0,-3.0L2.5,-0.5"/>
  </g>
  <g id="arrowLeft" transform="rotate(270) translate(-36 17)">
    <use xlink:href="#rim"/>
    <path pointer-events="none" fill="none" stroke="white" stroke-width="1.5" d="M0,-3.0v7 M-2.5,-0.5L0,-3.0L2.5,-0.5"/>
  </g>
  <g id="resetDef">
    <use xlink:href="#rim2" fill="#404040"><set attributeName="fill" to="#808080" begin="reset.mouseover" end="reset.mouseout"/></use>
  </g>
</defs>
<script type="application/ecmascript">
var viewWidth = 775;
var viewHeight = 482;
var sectionId = 'dynsection-164';
</script>
<script type="application/ecmascript" xlink:href="../../../../assets/svg.min.js"/>
<svg id="graph" class="graph">
<g id="viewport">
<title>BigDataStatMeth::RcppPseudoinvHdf5</title>
<!-- Node1 -->
<g id="Node000001" class="node">
<title>Node1</title>
<g id="a_Node000001"><a xlink:title="Compute pseudoinverse of HDF5 matrix.">
<polygon fill="#999999" stroke="#666666" points="187,-183.88 0,-183.88 0,-164.62 187,-164.62 187,-183.88"/>
<text xml:space="preserve" text-anchor="middle" x="93.5" y="-170.38" font-family="Helvetica,sans-Serif" font-size="10.00">BigDataStatMeth::RcppPseudoinvHdf5</text>
</a>
</g>
</g>
<!-- Node2 -->
<g id="Node000002" class="node">
<title>Node2</title>
<g id="a_Node000002"><a xlink:href="class_big_data_stat_meth_1_1hdf5_dataset.html#ab19bac9a31efe4a733294c1c23ff5ef7" target="_top" xlink:title="Create a new dataset with optional compression.">
<polygon fill="white" stroke="#666666" points="373.25,-326.5 223,-326.5 223,-296 373.25,-296 373.25,-326.5"/>
<text xml:space="preserve" text-anchor="start" x="231" y="-313" font-family="Helvetica,sans-Serif" font-size="10.00">BigDataStatMeth::hdf5Dataset</text>
<text xml:space="preserve" text-anchor="middle" x="298.12" y="-301.75" font-family="Helvetica,sans-Serif" font-size="10.00">::createDataset</text>
</a>
</g>
</g>
<!-- Node1&#45;&gt;Node2 -->
<g id="edge1_Node000001_Node000002" class="edge">
<title>Node1&#45;&gt;Node2</title>
<g id="a_edge1_Node000001_Node000002"><a xlink:title=" ">
<path fill="none" stroke="#63b8ff" d="M103.96,-184.14C124.15,-204.78 173.64,-252.93 223,-282.25 228.27,-285.38 233.94,-288.3 239.72,-290.98"/>
<polygon fill="#63b8ff" stroke="#63b8ff" points="238.21,-294.14 248.77,-294.95 241.02,-287.73 238.21,-294.14"/>
</a>
</g>
</g>
<!-- Node10 -->
<g id="Node000010" class="node">
<title>Node10</title>
<g id="a_Node000010"><a xlink:href="class_big_data_stat_meth_1_1hdf5_dataset.html#acf9843abcb57a0090f1635cc69d95300" target="_top" xlink:title="Write data to the dataset.">
<polygon fill="white" stroke="#666666" points="559.5,-179.5 409.25,-179.5 409.25,-149 559.5,-149 559.5,-179.5"/>
<text xml:space="preserve" text-anchor="start" x="417.25" y="-166" font-family="Helvetica,sans-Serif" font-size="10.00">BigDataStatMeth::hdf5Dataset</text>
<text xml:space="preserve" text-anchor="middle" x="484.38" y="-154.75" font-family="Helvetica,sans-Serif" font-size="10.00">::writeDataset</text>
</a>
</g>
</g>
<!-- Node1&#45;&gt;Node10 -->
<g id="edge20_Node000001_Node000010" class="edge">
<title>Node1&#45;&gt;Node10</title>
<g id="a_edge20_Node000001_Node000010"><a xlink:title=" ">
<path fill="none" stroke="#63b8ff" d="M106.61,-184.35C128.29,-201.7 175.87,-236.5 223,-249.25 287.46,-266.69 315.14,-282.15 373.25,-249.25 400.31,-233.93 385.03,-208.75 409.25,-189.25 410.78,-188.02 412.37,-186.85 414.01,-185.74"/>
<polygon fill="#63b8ff" stroke="#63b8ff" points="415.72,-188.79 422.59,-180.72 412.19,-182.75 415.72,-188.79"/>
</a>
</g>
</g>
<!-- Node13 -->
<g id="Node000013" class="node">
<title>Node13</title>
<g id="a_Node000013"><a xlink:href="namespace_big_data_stat_meth.html#ae0532bb6f183db85d0b2728832ecc849" target="_top" xlink:title="LAPACK DGEMM matrix multiplication.">
<polygon fill="white" stroke="#666666" points="365.38,-239.88 230.88,-239.88 230.88,-220.62 365.38,-220.62 365.38,-239.88"/>
<text xml:space="preserve" text-anchor="middle" x="298.12" y="-226.38" font-family="Helvetica,sans-Serif" font-size="10.00">BigDataStatMeth::dgemm_</text>
</a>
</g>
</g>
<!-- Node1&#45;&gt;Node13 -->
<g id="edge13_Node000001_Node000013" class="edge">
<title>Node1&#45;&gt;Node13</title>
<g id="a_edge13_Node000001_Node000013"><a xlink:title=" ">
<path fill="none" stroke="#63b8ff" d="M126.85,-184.3C152.76,-192.23 190.09,-203.39 223,-212.25 229.39,-213.97 236.11,-215.7 242.79,-217.38"/>
<polygon fill="#63b8ff" stroke="#63b8ff" points="241.9,-220.77 252.45,-219.77 243.58,-213.97 241.9,-220.77"/>
</a>
</g>
</g>
<!-- Node14 -->
<g id="Node000014" class="node">
<title>Node14</title>
<g id="a_Node000014"><a xlink:href="namespace_big_data_stat_meth.html#a8c238ff05f32d5412d99d88c7d1a6329" target="_top" xlink:title="LAPACK DGESVD singular value decomposition.">
<polygon fill="white" stroke="#666666" points="365,-202.88 231.25,-202.88 231.25,-183.62 365,-183.62 365,-202.88"/>
<text xml:space="preserve" text-anchor="middle" x="298.12" y="-189.38" font-family="Helvetica,sans-Serif" font-size="10.00">BigDataStatMeth::dgesvd_</text>
</a>
</g>
</g>
<!-- Node1&#45;&gt;Node14 -->
<g id="edge14_Node000001_Node000014" class="edge">
<title>Node1&#45;&gt;Node14</title>
<g id="a_edge14_Node000001_Node000014"><a xlink:title=" ">
<path fill="none" stroke="#63b8ff" d="M187.21,-182.94C198,-183.96 208.93,-184.98 219.48,-185.97"/>
<polygon fill="#63b8ff" stroke="#63b8ff" points="218.98,-189.44 229.27,-186.89 219.64,-182.47 218.98,-189.44"/>
</a>
</g>
</g>
<!-- Node15 -->
<g id="Node000015" class="node">
<title>Node15</title>
<g id="a_Node000015"><a xlink:href="namespace_big_data_stat_meth.html#af5bf1f625cec4266d6861e2ddaec15b7" target="_top" xlink:title="LAPACK DSCAL vector scaling.">
<polygon fill="white" stroke="#666666" points="360.88,-165.88 235.38,-165.88 235.38,-146.62 360.88,-146.62 360.88,-165.88"/>
<text xml:space="preserve" text-anchor="middle" x="298.12" y="-152.38" font-family="Helvetica,sans-Serif" font-size="10.00">BigDataStatMeth::dscal_</text>
</a>
</g>
</g>
<!-- Node1&#45;&gt;Node15 -->
<g id="edge15_Node000001_Node000015" class="edge">
<title>Node1&#45;&gt;Node15</title>
<g id="a_edge15_Node000001_Node000015"><a xlink:title=" ">
<path fill="none" stroke="#63b8ff" d="M187.21,-166.01C199.45,-164.93 211.86,-163.82 223.72,-162.77"/>
<polygon fill="#63b8ff" stroke="#63b8ff" points="223.73,-166.28 233.39,-161.91 223.11,-159.31 223.73,-166.28"/>
</a>
</g>
</g>
<!-- Node16 -->
<g id="Node000016" class="node">
<title>Node16</title>
<g id="a_Node000016"><a xlink:href="class_big_data_stat_meth_1_1hdf5_dataset.html#aa743c8c46d7ff3bb2f894145dd07fd8a" target="_top" xlink:title="Get number of columns in internal format.">
<polygon fill="white" stroke="#666666" points="373.25,-128.5 223,-128.5 223,-98 373.25,-98 373.25,-128.5"/>
<text xml:space="preserve" text-anchor="start" x="231" y="-115" font-family="Helvetica,sans-Serif" font-size="10.00">BigDataStatMeth::hdf5Dataset</text>
<text xml:space="preserve" text-anchor="middle" x="298.12" y="-103.75" font-family="Helvetica,sans-Serif" font-size="10.00">::ncols</text>
</a>
</g>
</g>
<!-- Node1&#45;&gt;Node16 -->
<g id="edge16_Node000001_Node000016" class="edge">
<title>Node1&#45;&gt;Node16</title>
<g id="a_edge16_Node000001_Node000016"><a xlink:title=" ">
<path fill="none" stroke="#63b8ff" d="M127.96,-164.18C156.79,-155.5 199.18,-142.74 234.32,-132.16"/>
<polygon fill="#63b8ff" stroke="#63b8ff" points="234.95,-135.62 243.52,-129.39 232.93,-128.92 234.95,-135.62"/>
</a>
</g>
</g>
<!-- Node17 -->
<g id="Node000017" class="node">
<title>Node17</title>
<g id="a_Node000017"><a xlink:href="class_big_data_stat_meth_1_1hdf5_dataset.html#a6cbce676967d0cc4b50e2cc5282c322b" target="_top" xlink:title="Get number of rows in internal format.">
<polygon fill="white" stroke="#666666" points="373.25,-79.5 223,-79.5 223,-49 373.25,-49 373.25,-79.5"/>
<text xml:space="preserve" text-anchor="start" x="231" y="-66" font-family="Helvetica,sans-Serif" font-size="10.00">BigDataStatMeth::hdf5Dataset</text>
<text xml:space="preserve" text-anchor="middle" x="298.12" y="-54.75" font-family="Helvetica,sans-Serif" font-size="10.00">::nrows</text>
</a>
</g>
</g>
<!-- Node1&#45;&gt;Node17 -->
<g id="edge17_Node000001_Node000017" class="edge">
<title>Node1&#45;&gt;Node17</title>
<g id="a_edge17_Node000001_Node000017"><a xlink:title=" ">
<path fill="none" stroke="#63b8ff" d="M106.97,-164.39C129.19,-147.21 177.59,-111.46 223,-89.25 226.69,-87.44 230.55,-85.71 234.48,-84.07"/>
<polygon fill="#63b8ff" stroke="#63b8ff" points="235.57,-87.4 243.59,-80.47 233,-80.89 235.57,-87.4"/>
</a>
</g>
</g>
<!-- Node18 -->
<g id="Node000018" class="node">
<title>Node18</title>
<g id="a_Node000018"><a xlink:href="class_big_data_stat_meth_1_1hdf5_dataset.html#a23bea87165b8ef6b944709c5b2cbd0cf" target="_top" xlink:title=" ">
<polygon fill="white" stroke="#666666" points="373.25,-30.5 223,-30.5 223,0 373.25,0 373.25,-30.5"/>
<text xml:space="preserve" text-anchor="start" x="231" y="-17" font-family="Helvetica,sans-Serif" font-size="10.00">BigDataStatMeth::hdf5Dataset</text>
<text xml:space="preserve" text-anchor="middle" x="298.12" y="-5.75" font-family="Helvetica,sans-Serif" font-size="10.00">::readDatasetBlock</text>
</a>
</g>
</g>
<!-- Node1&#45;&gt;Node18 -->
<g id="edge18_Node000001_Node000018" class="edge">
<title>Node1&#45;&gt;Node18</title>
<g id="a_edge18_Node000001_Node000018"><a xlink:title=" ">
<path fill="none" stroke="#63b8ff" d="M101.38,-164.27C118.85,-139.66 167.49,-75.5 223,-40.25 225.55,-38.63 228.21,-37.11 230.95,-35.67"/>
<polygon fill="#63b8ff" stroke="#63b8ff" points="232.22,-38.94 239.76,-31.5 229.22,-32.62 232.22,-38.94"/>
</a>
</g>
</g>
<!-- Node3 -->
<g id="Node000003" class="node">
<title>Node3</title>
<g id="a_Node000003"><a xlink:href="class_big_data_stat_meth_1_1hdf5_dataset.html#ac7a7f23b7e22c9b56ca6ad86592f2d52" target="_top" xlink:title="Add an attribute to the dataset.">
<polygon fill="white" stroke="#666666" points="559.5,-473.5 409.25,-473.5 409.25,-443 559.5,-443 559.5,-473.5"/>
<text xml:space="preserve" text-anchor="start" x="417.25" y="-460" font-family="Helvetica,sans-Serif" font-size="10.00">BigDataStatMeth::hdf5Dataset</text>
<text xml:space="preserve" text-anchor="middle" x="484.38" y="-448.75" font-family="Helvetica,sans-Serif" font-size="10.00">::addAttribute</text>
</a>
</g>
</g>
<!-- Node2&#45;&gt;Node3 -->
<g id="edge2_Node000002_Node000003" class="edge">
<title>Node2&#45;&gt;Node3</title>
<g id="a_edge2_Node000002_Node000003"><a xlink:title=" ">
<path fill="none" stroke="#63b8ff" d="M309.09,-326.68C326.44,-352.37 364.64,-403.97 409.25,-433.25 411.63,-434.82 414.13,-436.29 416.69,-437.68"/>
<polygon fill="#63b8ff" stroke="#63b8ff" points="415,-440.75 425.52,-441.98 418.06,-434.46 415,-440.75"/>
</a>
</g>
</g>
<!-- Node4 -->
<g id="Node000004" class="node">
<title>Node4</title>
<g id="a_Node000004"><a xlink:href="class_big_data_stat_meth_1_1hdf5_file.html#abfb73b5f1eb25ee00489485c8dc56a2a" target="_top" xlink:title="Close file and cleanup resources.">
<polygon fill="white" stroke="#666666" points="550.12,-424.5 418.62,-424.5 418.62,-394 550.12,-394 550.12,-424.5"/>
<text xml:space="preserve" text-anchor="start" x="426.62" y="-411" font-family="Helvetica,sans-Serif" font-size="10.00">BigDataStatMeth::hdf5File</text>
<text xml:space="preserve" text-anchor="middle" x="484.38" y="-399.75" font-family="Helvetica,sans-Serif" font-size="10.00">::close_file</text>
</a>
</g>
</g>
<!-- Node2&#45;&gt;Node4 -->
<g id="edge3_Node000002_Node000004" class="edge">
<title>Node2&#45;&gt;Node4</title>
<g id="a_edge3_Node000002_Node000004"><a xlink:title=" ">
<path fill="none" stroke="#63b8ff" d="M319.27,-326.94C340.64,-343.02 375.88,-367.91 409.25,-384.25 412.94,-386.06 416.8,-387.79 420.73,-389.43"/>
<polygon fill="#63b8ff" stroke="#63b8ff" points="419.25,-392.61 429.83,-393.03 421.82,-386.1 419.25,-392.61"/>
</a>
</g>
</g>
<!-- Node5 -->
<g id="Node000005" class="node">
<title>Node5</title>
<g id="a_Node000005"><a xlink:href="class_big_data_stat_meth_1_1hdf5_group.html#a27cef4d33e46c72bfd792aa49fa621a3" target="_top" xlink:title="Create multiple nested groups.">
<polygon fill="white" stroke="#666666" points="555.38,-375.5 413.38,-375.5 413.38,-345 555.38,-345 555.38,-375.5"/>
<text xml:space="preserve" text-anchor="start" x="421.38" y="-362" font-family="Helvetica,sans-Serif" font-size="10.00">BigDataStatMeth::hdf5Group</text>
<text xml:space="preserve" text-anchor="middle" x="484.38" y="-350.75" font-family="Helvetica,sans-Serif" font-size="10.00">::create_HDF5_groups</text>
</a>
</g>
</g>
<!-- Node2&#45;&gt;Node5 -->
<g id="edge4_Node000002_Node000005" class="edge">
<title>Node2&#45;&gt;Node5</title>
<g id="a_edge4_Node000002_Node000005"><a xlink:title=" ">
<path fill="none" stroke="#63b8ff" d="M358.18,-326.96C375.7,-331.62 395.06,-336.76 413.22,-341.59"/>
<polygon fill="#63b8ff" stroke="#63b8ff" points="412.31,-344.97 422.87,-344.16 414.11,-338.21 412.31,-344.97"/>
</a>
</g>
</g>
<!-- Node7 -->
<g id="Node000007" class="node">
<title>Node7</title>
<g id="a_Node000007"><a xlink:href="namespace_big_data_stat_meth.html#a89d901ab4b5e01771f4e3fc7dc84e50e" target="_top" xlink:title="Checks if an HDF5 element (group or dataset) exists.">
<polygon fill="white" stroke="#666666" points="546,-326.5 422.75,-326.5 422.75,-296 546,-296 546,-326.5"/>
<text xml:space="preserve" text-anchor="start" x="430.75" y="-313" font-family="Helvetica,sans-Serif" font-size="10.00">BigDataStatMeth::exists</text>
<text xml:space="preserve" text-anchor="middle" x="484.38" y="-301.75" font-family="Helvetica,sans-Serif" font-size="10.00">_HDF5_element</text>
</a>
</g>
</g>
<!-- Node2&#45;&gt;Node7 -->
<g id="edge6_Node000002_Node000007" class="edge">
<title>Node2&#45;&gt;Node7</title>
<g id="a_edge6_Node000002_Node000007"><a xlink:title=" ">
<path fill="none" stroke="#63b8ff" d="M373.54,-311.25C386,-311.25 398.91,-311.25 411.32,-311.25"/>
<polygon fill="#63b8ff" stroke="#63b8ff" points="411.02,-314.75 421.02,-311.25 411.02,-307.75 411.02,-314.75"/>
</a>
</g>
</g>
<!-- Node8 -->
<g id="Node000008" class="node">
<title>Node8</title>
<g id="a_Node000008"><a xlink:href="class_big_data_stat_meth_1_1hdf5_group.html#a59995412538627e6c80f64b552c286f5" target="_top" xlink:title=" ">
<polygon fill="white" stroke="#666666" points="555.38,-277.5 413.38,-277.5 413.38,-247 555.38,-247 555.38,-277.5"/>
<text xml:space="preserve" text-anchor="start" x="421.38" y="-264" font-family="Helvetica,sans-Serif" font-size="10.00">BigDataStatMeth::hdf5Group</text>
<text xml:space="preserve" text-anchor="middle" x="484.38" y="-252.75" font-family="Helvetica,sans-Serif" font-size="10.00">::getGroupName</text>
</a>
</g>
</g>
<!-- Node2&#45;&gt;Node8 -->
<g id="edge8_Node000002_Node000008" class="edge">
<title>Node2&#45;&gt;Node8</title>
<g id="a_edge8_Node000002_Node000008"><a xlink:title=" ">
<path fill="none" stroke="#63b8ff" d="M358.18,-295.54C375.7,-290.88 395.06,-285.74 413.22,-280.91"/>
<polygon fill="#63b8ff" stroke="#63b8ff" points="414.11,-284.29 422.87,-278.34 412.31,-277.53 414.11,-284.29"/>
</a>
</g>
</g>
<!-- Node9 -->
<g id="Node000009" class="node">
<title>Node9</title>
<g id="a_Node000009"><a xlink:href="namespace_big_data_stat_meth.html#a3d06783149029f1df2853c472d401380" target="_top" xlink:title="Removes multiple elements from an HDF5 file.">
<polygon fill="white" stroke="#666666" points="549,-228.5 419.75,-228.5 419.75,-198 549,-198 549,-228.5"/>
<text xml:space="preserve" text-anchor="start" x="427.75" y="-215" font-family="Helvetica,sans-Serif" font-size="10.00">BigDataStatMeth::remove</text>
<text xml:space="preserve" text-anchor="middle" x="484.38" y="-203.75" font-family="Helvetica,sans-Serif" font-size="10.00">_elements</text>
</a>
</g>
</g>
<!-- Node2&#45;&gt;Node9 -->
<g id="edge9_Node000002_Node000009" class="edge">
<title>Node2&#45;&gt;Node9</title>
<g id="a_edge9_Node000002_Node000009"><a xlink:title=" ">
<path fill="none" stroke="#63b8ff" d="M349.6,-295.56C357.89,-291.87 366.1,-287.45 373.25,-282.25 393.68,-267.38 388.47,-252.62 409.25,-238.25 411.34,-236.81 413.51,-235.44 415.76,-234.15"/>
<polygon fill="#63b8ff" stroke="#63b8ff" points="417.28,-237.3 424.59,-229.63 414.1,-231.07 417.28,-237.3"/>
</a>
</g>
</g>
<!-- Node2&#45;&gt;Node10 -->
<g id="edge10_Node000002_Node000010" class="edge">
<title>Node2&#45;&gt;Node10</title>
<g id="a_edge10_Node000002_Node000010"><a xlink:title=" ">
<path fill="none" stroke="#63b8ff" d="M354.53,-295.65C361.4,-292.04 367.89,-287.63 373.25,-282.25 404.53,-250.85 377.23,-219.89 409.25,-189.25 410.3,-188.25 411.39,-187.28 412.52,-186.36"/>
<polygon fill="#63b8ff" stroke="#63b8ff" points="414.27,-189.4 420.53,-180.86 410.3,-183.63 414.27,-189.4"/>
</a>
</g>
</g>
<!-- Node6 -->
<g id="Node000006" class="node">
<title>Node6</title>
<g id="a_Node000006"><a xlink:href="namespace_big_data_stat_meth.html#abcaa4216cd52f03ebac42e4855ef846b" target="_top" xlink:title="Checks if a path exists in an HDF5 file.">
<polygon fill="white" stroke="#666666" points="752.88,-344.88 609.38,-344.88 609.38,-325.62 752.88,-325.62 752.88,-344.88"/>
<text xml:space="preserve" text-anchor="middle" x="681.12" y="-331.38" font-family="Helvetica,sans-Serif" font-size="10.00">BigDataStatMeth::pathExists</text>
</a>
</g>
</g>
<!-- Node5&#45;&gt;Node6 -->
<g id="edge5_Node000005_Node000006" class="edge">
<title>Node5&#45;&gt;Node6</title>
<g id="a_edge5_Node000005_Node000006"><a xlink:title=" ">
<path fill="none" stroke="#63b8ff" d="M555.68,-351.22C569.35,-349.47 583.8,-347.62 597.81,-345.82"/>
<polygon fill="#63b8ff" stroke="#63b8ff" points="597.96,-349.33 607.44,-344.58 597.07,-342.38 597.96,-349.33"/>
</a>
</g>
</g>
<!-- Node7&#45;&gt;Node6 -->
<g id="edge7_Node000007_Node000006" class="edge">
<title>Node7&#45;&gt;Node6</title>
<g id="a_edge7_Node000007_Node000006"><a xlink:title=" ">
<path fill="none" stroke="#63b8ff" d="M546.46,-318.78C562.75,-320.79 580.62,-322.99 597.84,-325.11"/>
<polygon fill="#63b8ff" stroke="#63b8ff" points="597.19,-328.56 607.54,-326.31 598.04,-321.61 597.19,-328.56"/>
</a>
</g>
</g>
<!-- Node11 -->
<g id="Node000011" class="node">
<title>Node11</title>
<g id="a_Node000011"><a xlink:href="class_big_data_stat_meth_1_1hdf5_dataset.html#aba39e56a580d3b1fa7f1619fc72efa3e" target="_top" xlink:title="Close dataset and file.">
<polygon fill="white" stroke="#666666" points="756.25,-105.5 606,-105.5 606,-75 756.25,-75 756.25,-105.5"/>
<text xml:space="preserve" text-anchor="start" x="614" y="-92" font-family="Helvetica,sans-Serif" font-size="10.00">BigDataStatMeth::hdf5Dataset</text>
<text xml:space="preserve" text-anchor="middle" x="681.12" y="-80.75" font-family="Helvetica,sans-Serif" font-size="10.00">::close_dataset_file</text>
</a>
</g>
</g>
<!-- Node10&#45;&gt;Node11 -->
<g id="edge11_Node000010_Node000011" class="edge">
<title>Node10&#45;&gt;Node11</title>
<g id="a_edge11_Node000010_Node000011"><a xlink:title=" ">
<path fill="none" stroke="#63b8ff" d="M526.68,-148.56C556.37,-137.27 596.62,-121.98 628.44,-109.89"/>
<polygon fill="#63b8ff" stroke="#63b8ff" points="629.36,-113.28 637.47,-106.46 626.88,-106.74 629.36,-113.28"/>
</a>
</g>
</g>
<!-- Node12 -->
<g id="Node000012" class="node">
<title>Node12</title>
<g id="a_Node000012"><a xlink:href="class_big_data_stat_meth_1_1hdf5_dataset.html#a94d81b72e92cb0230b4e64f37ea7d2e3" target="_top" xlink:title="Convert DataFrame to range list.">
<polygon fill="white" stroke="#666666" points="766.75,-179.5 595.5,-179.5 595.5,-149 766.75,-149 766.75,-179.5"/>
<text xml:space="preserve" text-anchor="start" x="603.5" y="-166" font-family="Helvetica,sans-Serif" font-size="10.00">BigDataStatMeth::hdf5Dataset</text>
<text xml:space="preserve" text-anchor="middle" x="681.12" y="-154.75" font-family="Helvetica,sans-Serif" font-size="10.00">::convert_DataFrame_to_RangeList</text>
</a>
</g>
</g>
<!-- Node10&#45;&gt;Node12 -->
<g id="edge12_Node000010_Node000012" class="edge">
<title>Node10&#45;&gt;Node12</title>
<g id="a_edge12_Node000010_Node000012"><a xlink:title=" ">
<path fill="none" stroke="#63b8ff" d="M559.84,-164.25C567.72,-164.25 575.81,-164.25 583.9,-164.25"/>
<polygon fill="#63b8ff" stroke="#63b8ff" points="583.78,-167.75 593.78,-164.25 583.78,-160.75 583.78,-167.75"/>
</a>
</g>
</g>
<!-- Node18&#45;&gt;Node11 -->
<g id="edge19_Node000018_Node000011" class="edge">
<title>Node18&#45;&gt;Node11</title>
<g id="a_edge19_Node000018_Node000011"><a xlink:title=" ">
<path fill="none" stroke="#63b8ff" d="M373.49,-29.89C436.85,-42.36 527.93,-60.29 594.35,-73.37"/>
<polygon fill="#63b8ff" stroke="#63b8ff" points="593.65,-76.79 604.14,-75.29 595,-69.93 593.65,-76.79"/>
</a>
</g>
</g>
</g>
</svg>

<g id="navigator" transform="translate(0 0)" fill="#404254">
  <rect fill="#f2f5e9" fill-opacity="0.5" stroke="#606060" stroke-width=".5" x="0" y="0" width="60" height="60"/>
  <use id="zoomplus" xlink:href="#zoomPlus" x="17" y="9" onmousedown="handleZoom(evt,'in')"/>
  <use id="zoomminus" xlink:href="#zoomMin" x="42" y="9" onmousedown="handleZoom(evt,'out')"/>
  <use id="reset" xlink:href="#resetDef" x="30" y="36" onmousedown="handleReset()"/>
   <use id="arrowup" xlink:href="#arrowUp" x="0" y="0" onmousedown="handlePan(0,-1)"/>
  <use id="arrowright" xlink:href="#arrowRight" x="0" y="0" onmousedown="handlePan(1,0)"/>
  <use id="arrowdown" xlink:href="#arrowDown" x="0" y="0" onmousedown="handlePan(0,1)"/>
  <use id="arrowleft" xlink:href="#arrowLeft" x="0" y="0" onmousedown="handlePan(-1,0)"/>
</g>
<svg viewBox="0 0 15 15" width="100%" height="30px" preserveAspectRatio="xMaxYMin meet">
 <g id="arrow_out" transform="scale(0.3 0.3)">
  <a xlink:href="namespace_big_data_stat_meth_aa8f71e627a1f440a2d4b225d9d41c8de_cgraph_org.svg" target="_base">
   <rect id="button" ry="5" rx="5" y="6" x="6" height="38" width="38"
        fill="#f2f5e9" fill-opacity="0.5" stroke="#606060" stroke-width="1.0"/>
   <path id="arrow"
     d="M 11.500037,31.436501 C 11.940474,20.09759 22.043105,11.32322 32.158766,21.979434 L 37.068811,17.246167 C 37.068811,17.246167 37.088388,32 37.088388,32 L 22.160133,31.978069 C 22.160133,31.978069 26.997745,27.140456 26.997745,27.140456 C 18.528582,18.264221 13.291696,25.230495 11.500037,31.436501 z"
     style="fill:#404040;"/>
  </a>
 </g>
</svg>

<style type='text/css'>
<![CDATA[
[data-mouse-over-selected='false'] { opacity: 0.7; }
[data-mouse-over-selected='true']  { opacity: 1.0; }
]]>
</style>
<script type="application/ecmascript"><![CDATA[
document.addEventListener('DOMContentLoaded', (event) => {
  highlightEdges();
  highlightAdjacentNodes();
});
]]></script>
</svg>
