<?xml version="1.0" encoding="UTF-8" standalone="no"?>
<!DOCTYPE svg PUBLIC "-//W3C//DTD SVG 1.1//EN"
 "http://www.w3.org/Graphics/SVG/1.1/DTD/svg11.dtd">
<!-- Generated by graphviz version 14.0.0 (20250921.2048)
 -->
<!-- Title: BigDataStatMeth::Rcpp_Remove_MAF_hdf5 Pages: 1 -->
<!--zoomable 604 -->

<svg id="main" version="1.1" xmlns="http://www.w3.org/2000/svg" xmlns:xlink="http://www.w3.org/1999/xlink" xml:space="preserve" onload="init(evt)">

<style type="text/css"><![CDATA[
.node, .edge {opacity: 0.7;}
.node.selected, .edge.selected {opacity: 1;}
.edge:hover path { stroke: red; }
.edge:hover polygon { stroke: red; fill: red; }
]]></style>

<defs>
  <circle id="rim" cx="0" cy="0" r="7"/>
  <circle id="rim2" cx="0" cy="0" r="3.5"/>
  <g id="zoomPlus">
    <use xlink:href="#rim" fill="#404040"><set attributeName="fill" to="#808080" begin="zoomplus.mouseover" end="zoomplus.mouseout"/></use>
    <path d="M-4,0h8M0,-4v8" fill="none" stroke="white" stroke-width="1.5" pointer-events="none"/>
  </g>
  <g id="zoomMin">
    <use xlink:href="#rim" fill="#404040"><set attributeName="fill" to="#808080" begin="zoomminus.mouseover" end="zoomminus.mouseout"/></use>
    <path d="M-4,0h8" fill="none" stroke="white" stroke-width="1.5" pointer-events="none"/>
  </g>
  <g id="arrowUp" transform="translate(30 24)">
    <use xlink:href="#rim"/>
    <path pointer-events="none" fill="none" stroke="white" stroke-width="1.5" d="M0,-3.0v7 M-2.5,-0.5L0,-3.0L2.5,-0.5"/>
  </g>
  <g id="arrowRight" transform="rotate(90) translate(36 -43)">
    <use xlink:href="#rim"/>
    <path pointer-events="none" fill="none" stroke="white" stroke-width="1.5" d="M0,-3.0v7 M-2.5,-0.5L0,-3.0L2.5,-0.5"/>
  </g>
  <g id="arrowDown" transform="rotate(180) translate(-30 -48)">
    <use xlink:href="#rim"/>
    <path pointer-events="none" fill="none" stroke="white" stroke-width="1.5" d="M0,-3.0v7 M-2.5,-0.5L0,-3.0L2.5,-0.5"/>
  </g>
  <g id="arrowLeft" transform="rotate(270) translate(-36 17)">
    <use xlink:href="#rim"/>
    <path pointer-events="none" fill="none" stroke="white" stroke-width="1.5" d="M0,-3.0v7 M-2.5,-0.5L0,-3.0L2.5,-0.5"/>
  </g>
  <g id="resetDef">
    <use xlink:href="#rim2" fill="#404040"><set attributeName="fill" to="#808080" begin="reset.mouseover" end="reset.mouseout"/></use>
  </g>
</defs>
<script type="application/ecmascript">
var viewWidth = 909;
var viewHeight = 604;
var sectionId = 'dynsection-112';
</script>
<script type="application/ecmascript" xlink:href="../../../../assets/svg.min.js"/>
<svg id="graph" class="graph">
<g id="viewport">
<title>BigDataStatMeth::Rcpp_Remove_MAF_hdf5</title>
<!-- Node1 -->
<g id="Node000001" class="node">
<title>Node1</title>
<g id="a_Node000001"><a xlink:title="Removes rows or columns from a dataset based on MAF threshold.">
<polygon fill="#999999" stroke="#666666" points="120.25,-326.5 0,-326.5 0,-296 120.25,-296 120.25,-326.5"/>
<text xml:space="preserve" text-anchor="start" x="8" y="-313" font-family="Helvetica,sans-Serif" font-size="10.00">BigDataStatMeth::Rcpp</text>
<text xml:space="preserve" text-anchor="middle" x="60.12" y="-301.75" font-family="Helvetica,sans-Serif" font-size="10.00">_Remove_MAF_hdf5</text>
</a>
</g>
</g>
<!-- Node2 -->
<g id="Node000002" class="node">
<title>Node2</title>
<g id="a_Node000002"><a xlink:href="namespace_big_data_stat_meth.html#a25ba80eaa6ebd8750a2a417176fd2a33" target="_top" xlink:title="Calculates the Minor Allele Frequency (MAF) from binary genotype data.">
<polygon fill="white" stroke="#666666" points="310.62,-519.88 173.88,-519.88 173.88,-500.62 310.62,-500.62 310.62,-519.88"/>
<text xml:space="preserve" text-anchor="middle" x="242.25" y="-506.38" font-family="Helvetica,sans-Serif" font-size="10.00">BigDataStatMeth::calc_freq</text>
</a>
</g>
</g>
<!-- Node1&#45;&gt;Node2 -->
<g id="edge1_Node000001_Node000002" class="edge">
<title>Node1&#45;&gt;Node2</title>
<g id="a_edge1_Node000001_Node000002"><a xlink:title=" ">
<path fill="none" stroke="#63b8ff" d="M64.53,-326.76C73.16,-362.17 99.35,-449.19 156.25,-492.25 158.43,-493.9 160.73,-495.41 163.12,-496.78"/>
<polygon fill="#63b8ff" stroke="#63b8ff" points="161.49,-499.88 172.02,-501.07 164.53,-493.58 161.49,-499.88"/>
</a>
</g>
</g>
<!-- Node3 -->
<g id="Node000003" class="node">
<title>Node3</title>
<g id="a_Node000003"><a xlink:href="namespace_big_data_stat_meth.html#a304b42b14ec87d4acc6f34ff0231529d" target="_top" xlink:title="Safely close any number of dataset handles (C++17).">
<polygon fill="white" stroke="#666666" points="325.62,-482.88 158.88,-482.88 158.88,-463.62 325.62,-463.62 325.62,-482.88"/>
<text xml:space="preserve" text-anchor="middle" x="242.25" y="-469.38" font-family="Helvetica,sans-Serif" font-size="10.00">BigDataStatMeth::checkClose_file</text>
</a>
</g>
</g>
<!-- Node1&#45;&gt;Node3 -->
<g id="edge2_Node000001_Node000003" class="edge">
<title>Node1&#45;&gt;Node3</title>
<g id="a_edge2_Node000001_Node000003"><a xlink:title=" ">
<path fill="none" stroke="#63b8ff" d="M66.77,-326.59C78.53,-356.26 108.57,-421.5 156.25,-454.25 158.46,-455.77 160.77,-457.16 163.16,-458.45"/>
<polygon fill="#63b8ff" stroke="#63b8ff" points="161.42,-461.51 171.96,-462.52 164.35,-455.15 161.42,-461.51"/>
</a>
</g>
</g>
<!-- Node4 -->
<g id="Node000004" class="node">
<title>Node4</title>
<g id="a_Node000004"><a xlink:href="class_big_data_stat_meth_1_1hdf5_dataset.html#a7d4d9784a080f09d3b2f05e2d397a034" target="_top" xlink:title="Create an unlimited dataset with optional compression.">
<polygon fill="white" stroke="#666666" points="317.38,-445.5 167.12,-445.5 167.12,-415 317.38,-415 317.38,-445.5"/>
<text xml:space="preserve" text-anchor="start" x="175.12" y="-432" font-family="Helvetica,sans-Serif" font-size="10.00">BigDataStatMeth::hdf5Dataset</text>
<text xml:space="preserve" text-anchor="middle" x="242.25" y="-420.75" font-family="Helvetica,sans-Serif" font-size="10.00">::createUnlimitedDataset</text>
</a>
</g>
</g>
<!-- Node1&#45;&gt;Node4 -->
<g id="edge3_Node000001_Node000004" class="edge">
<title>Node1&#45;&gt;Node4</title>
<g id="a_edge3_Node000001_Node000004"><a xlink:title=" ">
<path fill="none" stroke="#63b8ff" d="M75.67,-326.94C93.31,-345.26 124.64,-375.57 156.25,-395.25 165.1,-400.76 174.98,-405.74 184.77,-410.1"/>
<polygon fill="#63b8ff" stroke="#63b8ff" points="183.35,-413.3 193.93,-413.99 186.09,-406.86 183.35,-413.3"/>
</a>
</g>
</g>
<!-- Node11 -->
<g id="Node000011" class="node">
<title>Node11</title>
<g id="a_Node000011"><a xlink:href="class_big_data_stat_meth_1_1hdf5_dataset.html#a7b54a6f524581d54102a1614ee44991b" target="_top" xlink:title="Get dataset dimension.">
<polygon fill="white" stroke="#666666" points="328.25,-385.88 156.25,-385.88 156.25,-366.62 328.25,-366.62 328.25,-385.88"/>
<text xml:space="preserve" text-anchor="middle" x="242.25" y="-372.38" font-family="Helvetica,sans-Serif" font-size="10.00">BigDataStatMeth::hdf5Dataset::dim</text>
</a>
</g>
</g>
<!-- Node1&#45;&gt;Node11 -->
<g id="edge11_Node000001_Node000011" class="edge">
<title>Node1&#45;&gt;Node11</title>
<g id="a_edge11_Node000001_Node000011"><a xlink:title=" ">
<path fill="none" stroke="#63b8ff" d="M89.12,-326.91C107.69,-336.76 132.86,-349.1 156.25,-357.25 162.72,-359.5 169.55,-361.55 176.43,-363.4"/>
<polygon fill="#63b8ff" stroke="#63b8ff" points="175.2,-366.7 185.75,-365.77 176.92,-359.91 175.2,-366.7"/>
</a>
</g>
</g>
<!-- Node12 -->
<g id="Node000012" class="node">
<title>Node12</title>
<g id="a_Node000012"><a xlink:href="class_big_data_stat_meth_1_1hdf5_dataset.html#a5235fb1fb8b567325b1405bcef9f061d" target="_top" xlink:title="Extend an unlimited dataset.">
<polygon fill="white" stroke="#666666" points="525,-240.5 374.75,-240.5 374.75,-210 525,-210 525,-240.5"/>
<text xml:space="preserve" text-anchor="start" x="382.75" y="-227" font-family="Helvetica,sans-Serif" font-size="10.00">BigDataStatMeth::hdf5Dataset</text>
<text xml:space="preserve" text-anchor="middle" x="449.88" y="-215.75" font-family="Helvetica,sans-Serif" font-size="10.00">::extendUnlimitedDataset</text>
</a>
</g>
</g>
<!-- Node1&#45;&gt;Node12 -->
<g id="edge12_Node000001_Node000012" class="edge">
<title>Node1&#45;&gt;Node12</title>
<g id="a_edge12_Node000001_Node000012"><a xlink:title=" ">
<path fill="none" stroke="#63b8ff" d="M120.5,-308.79C175.68,-305.01 259.47,-295.45 328.25,-271.25 345.72,-265.1 347.24,-257.59 364.25,-250.25 368.8,-248.28 373.56,-246.41 378.39,-244.65"/>
<polygon fill="#63b8ff" stroke="#63b8ff" points="379.32,-248.03 387.62,-241.45 377.02,-241.42 379.32,-248.03"/>
</a>
</g>
</g>
<!-- Node14 -->
<g id="Node000014" class="node">
<title>Node14</title>
<g id="a_Node000014"><a xlink:href="class_big_data_stat_meth_1_1hdf5_dataset.html#ab57cadee5e43a496eb32dbf12d603d76" target="_top" xlink:title=" ">
<polygon fill="white" stroke="#666666" points="317.38,-348.5 167.12,-348.5 167.12,-318 317.38,-318 317.38,-348.5"/>
<text xml:space="preserve" text-anchor="start" x="175.12" y="-335" font-family="Helvetica,sans-Serif" font-size="10.00">BigDataStatMeth::hdf5Dataset</text>
<text xml:space="preserve" text-anchor="middle" x="242.25" y="-323.75" font-family="Helvetica,sans-Serif" font-size="10.00">::openDataset</text>
</a>
</g>
</g>
<!-- Node1&#45;&gt;Node14 -->
<g id="edge14_Node000001_Node000014" class="edge">
<title>Node1&#45;&gt;Node14</title>
<g id="a_edge14_Node000001_Node000014"><a xlink:title=" ">
<path fill="none" stroke="#63b8ff" d="M120.6,-318.51C131.79,-319.88 143.68,-321.33 155.48,-322.77"/>
<polygon fill="#63b8ff" stroke="#63b8ff" points="154.88,-326.23 165.23,-323.97 155.73,-319.28 154.88,-326.23"/>
</a>
</g>
</g>
<!-- Node17 -->
<g id="Node000017" class="node">
<title>Node17</title>
<g id="a_Node000017"><a xlink:href="class_big_data_stat_meth_1_1hdf5_dataset.html#a23bea87165b8ef6b944709c5b2cbd0cf" target="_top" xlink:title=" ">
<polygon fill="white" stroke="#666666" points="317.38,-262.5 167.12,-262.5 167.12,-232 317.38,-232 317.38,-262.5"/>
<text xml:space="preserve" text-anchor="start" x="175.12" y="-249" font-family="Helvetica,sans-Serif" font-size="10.00">BigDataStatMeth::hdf5Dataset</text>
<text xml:space="preserve" text-anchor="middle" x="242.25" y="-237.75" font-family="Helvetica,sans-Serif" font-size="10.00">::readDatasetBlock</text>
</a>
</g>
</g>
<!-- Node1&#45;&gt;Node17 -->
<g id="edge21_Node000001_Node000017" class="edge">
<title>Node1&#45;&gt;Node17</title>
<g id="a_edge21_Node000001_Node000017"><a xlink:title=" ">
<path fill="none" stroke="#63b8ff" d="M103.19,-295.53C119.7,-289.42 138.83,-282.42 156.25,-276.25 165.23,-273.07 174.76,-269.75 184.08,-266.55"/>
<polygon fill="#63b8ff" stroke="#63b8ff" points="185.1,-269.9 193.43,-263.34 182.83,-263.27 185.1,-269.9"/>
</a>
</g>
</g>
<!-- Node18 -->
<g id="Node000018" class="node">
<title>Node18</title>
<g id="a_Node000018"><a xlink:href="namespace_big_data_stat_meth.html#a962551a78d986ff03e179f2d6df2af52" target="_top" xlink:title="Removes a column from an Eigen matrix.">
<polygon fill="white" stroke="#666666" points="323.75,-213.88 160.75,-213.88 160.75,-194.62 323.75,-194.62 323.75,-213.88"/>
<text xml:space="preserve" text-anchor="middle" x="242.25" y="-200.38" font-family="Helvetica,sans-Serif" font-size="10.00">BigDataStatMeth::removeColumn</text>
</a>
</g>
</g>
<!-- Node1&#45;&gt;Node18 -->
<g id="edge23_Node000001_Node000018" class="edge">
<title>Node1&#45;&gt;Node18</title>
<g id="a_edge23_Node000001_Node000018"><a xlink:title=" ">
<path fill="none" stroke="#63b8ff" d="M73.48,-295.55C90.1,-275.56 121.59,-241.44 156.25,-223.25 159.95,-221.31 163.84,-219.57 167.84,-218"/>
<polygon fill="#63b8ff" stroke="#63b8ff" points="168.88,-221.34 177.18,-214.75 166.59,-214.73 168.88,-221.34"/>
</a>
</g>
</g>
<!-- Node19 -->
<g id="Node000019" class="node">
<title>Node19</title>
<g id="a_Node000019"><a xlink:href="namespace_big_data_stat_meth.html#a5e29fef215232998153a651719685521" target="_top" xlink:title="Removes a row from an Eigen matrix.">
<polygon fill="white" stroke="#666666" points="317,-176.88 167.5,-176.88 167.5,-157.62 317,-157.62 317,-176.88"/>
<text xml:space="preserve" text-anchor="middle" x="242.25" y="-163.38" font-family="Helvetica,sans-Serif" font-size="10.00">BigDataStatMeth::removeRow</text>
</a>
</g>
</g>
<!-- Node1&#45;&gt;Node19 -->
<g id="edge24_Node000001_Node000019" class="edge">
<title>Node1&#45;&gt;Node19</title>
<g id="a_edge24_Node000001_Node000019"><a xlink:title=" ">
<path fill="none" stroke="#63b8ff" d="M68.28,-295.59C81.52,-268.48 112.54,-213.05 156.25,-185.25 158.11,-184.07 160.04,-182.96 162.02,-181.92"/>
<polygon fill="#63b8ff" stroke="#63b8ff" points="163.2,-185.23 170.89,-177.94 160.33,-178.84 163.2,-185.23"/>
</a>
</g>
</g>
<!-- Node20 -->
<g id="Node000020" class="node">
<title>Node20</title>
<g id="a_Node000020"><a xlink:href="class_big_data_stat_meth_1_1hdf5_dataset.html#af606176d84a63561b65702b6fde3a583" target="_top" xlink:title="Write block of data with optional transposition.">
<polygon fill="white" stroke="#666666" points="317.38,-111.5 167.12,-111.5 167.12,-81 317.38,-81 317.38,-111.5"/>
<text xml:space="preserve" text-anchor="start" x="175.12" y="-98" font-family="Helvetica,sans-Serif" font-size="10.00">BigDataStatMeth::hdf5Dataset</text>
<text xml:space="preserve" text-anchor="middle" x="242.25" y="-86.75" font-family="Helvetica,sans-Serif" font-size="10.00">::writeDatasetBlock</text>
</a>
</g>
</g>
<!-- Node1&#45;&gt;Node20 -->
<g id="edge25_Node000001_Node000020" class="edge">
<title>Node1&#45;&gt;Node20</title>
<g id="a_edge25_Node000001_Node000020"><a xlink:title=" ">
<path fill="none" stroke="#63b8ff" d="M67.14,-295.67C79.75,-264.58 111.54,-193.89 156.25,-148.25 168.15,-136.1 183.45,-125.61 197.78,-117.3"/>
<polygon fill="#63b8ff" stroke="#63b8ff" points="199.12,-120.56 206.16,-112.64 195.72,-114.44 199.12,-120.56"/>
</a>
</g>
</g>
<!-- Node5 -->
<g id="Node000005" class="node">
<title>Node5</title>
<g id="a_Node000005"><a xlink:href="class_big_data_stat_meth_1_1hdf5_dataset.html#ac7a7f23b7e22c9b56ca6ad86592f2d52" target="_top" xlink:title="Add an attribute to the dataset.">
<polygon fill="white" stroke="#666666" points="525,-510.5 374.75,-510.5 374.75,-480 525,-480 525,-510.5"/>
<text xml:space="preserve" text-anchor="start" x="382.75" y="-497" font-family="Helvetica,sans-Serif" font-size="10.00">BigDataStatMeth::hdf5Dataset</text>
<text xml:space="preserve" text-anchor="middle" x="449.88" y="-485.75" font-family="Helvetica,sans-Serif" font-size="10.00">::addAttribute</text>
</a>
</g>
</g>
<!-- Node4&#45;&gt;Node5 -->
<g id="edge4_Node000004_Node000005" class="edge">
<title>Node4&#45;&gt;Node5</title>
<g id="a_edge4_Node000004_Node000005"><a xlink:title=" ">
<path fill="none" stroke="#63b8ff" d="M300.52,-445.98C309.82,-448.66 319.32,-451.47 328.25,-454.25 334.92,-456.32 364.39,-466.34 392.53,-475.95"/>
<polygon fill="#63b8ff" stroke="#63b8ff" points="391.18,-479.19 401.77,-479.11 393.44,-472.56 391.18,-479.19"/>
</a>
</g>
</g>
<!-- Node6 -->
<g id="Node000006" class="node">
<title>Node6</title>
<g id="a_Node000006"><a xlink:href="class_big_data_stat_meth_1_1hdf5_file.html#abfb73b5f1eb25ee00489485c8dc56a2a" target="_top" xlink:title="Close file and cleanup resources.">
<polygon fill="white" stroke="#666666" points="515.62,-424.5 384.12,-424.5 384.12,-394 515.62,-394 515.62,-424.5"/>
<text xml:space="preserve" text-anchor="start" x="392.12" y="-411" font-family="Helvetica,sans-Serif" font-size="10.00">BigDataStatMeth::hdf5File</text>
<text xml:space="preserve" text-anchor="middle" x="449.88" y="-399.75" font-family="Helvetica,sans-Serif" font-size="10.00">::close_file</text>
</a>
</g>
</g>
<!-- Node4&#45;&gt;Node6 -->
<g id="edge5_Node000004_Node000006" class="edge">
<title>Node4&#45;&gt;Node6</title>
<g id="a_edge5_Node000004_Node000006"><a xlink:title=" ">
<path fill="none" stroke="#63b8ff" d="M317.78,-422.64C335.59,-420.82 354.62,-418.88 372.51,-417.05"/>
<polygon fill="#63b8ff" stroke="#63b8ff" points="372.68,-420.55 382.28,-416.05 371.97,-413.59 372.68,-420.55"/>
</a>
</g>
</g>
<!-- Node7 -->
<g id="Node000007" class="node">
<title>Node7</title>
<g id="a_Node000007"><a xlink:href="class_big_data_stat_meth_1_1hdf5_group.html#a27cef4d33e46c72bfd792aa49fa621a3" target="_top" xlink:title="Create multiple nested groups.">
<polygon fill="white" stroke="#666666" points="717.62,-559.5 575.62,-559.5 575.62,-529 717.62,-529 717.62,-559.5"/>
<text xml:space="preserve" text-anchor="start" x="583.62" y="-546" font-family="Helvetica,sans-Serif" font-size="10.00">BigDataStatMeth::hdf5Group</text>
<text xml:space="preserve" text-anchor="middle" x="646.62" y="-534.75" font-family="Helvetica,sans-Serif" font-size="10.00">::create_HDF5_groups</text>
</a>
</g>
</g>
<!-- Node4&#45;&gt;Node7 -->
<g id="edge6_Node000004_Node000007" class="edge">
<title>Node4&#45;&gt;Node7</title>
<g id="a_edge6_Node000004_Node000007"><a xlink:title=" ">
<path fill="none" stroke="#63b8ff" d="M317.3,-445.85C321.25,-448.27 324.95,-451.05 328.25,-454.25 366.39,-491.24 321.39,-536.84 364.25,-568.25 434.24,-619.54 541.94,-588.44 601.76,-564.36"/>
<polygon fill="#63b8ff" stroke="#63b8ff" points="603.06,-567.61 610.95,-560.54 600.37,-561.14 603.06,-567.61"/>
</a>
</g>
</g>
<!-- Node9 -->
<g id="Node000009" class="node">
<title>Node9</title>
<g id="a_Node000009"><a xlink:href="namespace_big_data_stat_meth.html#a89d901ab4b5e01771f4e3fc7dc84e50e" target="_top" xlink:title="Checks if an HDF5 element (group or dataset) exists.">
<polygon fill="white" stroke="#666666" points="708.25,-424.5 585,-424.5 585,-394 708.25,-394 708.25,-424.5"/>
<text xml:space="preserve" text-anchor="start" x="593" y="-411" font-family="Helvetica,sans-Serif" font-size="10.00">BigDataStatMeth::exists</text>
<text xml:space="preserve" text-anchor="middle" x="646.62" y="-399.75" font-family="Helvetica,sans-Serif" font-size="10.00">_HDF5_element</text>
</a>
</g>
</g>
<!-- Node4&#45;&gt;Node9 -->
<g id="edge8_Node000004_Node000009" class="edge">
<title>Node4&#45;&gt;Node9</title>
<g id="a_edge8_Node000004_Node000009"><a xlink:title=" ">
<path fill="none" stroke="#63b8ff" d="M317.65,-435.81C376.86,-439.08 461.72,-441.2 535.5,-433.25 547.91,-431.91 560.98,-429.75 573.61,-427.26"/>
<polygon fill="#63b8ff" stroke="#63b8ff" points="573.99,-430.75 583.07,-425.3 572.57,-423.9 573.99,-430.75"/>
</a>
</g>
</g>
<!-- Node10 -->
<g id="Node000010" class="node">
<title>Node10</title>
<g id="a_Node000010"><a xlink:href="namespace_big_data_stat_meth.html#a3d06783149029f1df2853c472d401380" target="_top" xlink:title="Removes multiple elements from an HDF5 file.">
<polygon fill="white" stroke="#666666" points="514.5,-559.5 385.25,-559.5 385.25,-529 514.5,-529 514.5,-559.5"/>
<text xml:space="preserve" text-anchor="start" x="393.25" y="-546" font-family="Helvetica,sans-Serif" font-size="10.00">BigDataStatMeth::remove</text>
<text xml:space="preserve" text-anchor="middle" x="449.88" y="-534.75" font-family="Helvetica,sans-Serif" font-size="10.00">_elements</text>
</a>
</g>
</g>
<!-- Node4&#45;&gt;Node10 -->
<g id="edge10_Node000004_Node000010" class="edge">
<title>Node4&#45;&gt;Node10</title>
<g id="a_edge10_Node000004_Node000010"><a xlink:title=" ">
<path fill="none" stroke="#63b8ff" d="M314.93,-445.79C319.66,-448.21 324.16,-451.01 328.25,-454.25 354.13,-474.76 338.49,-498.58 364.25,-519.25 367.55,-521.9 371.12,-524.27 374.87,-526.38"/>
<polygon fill="#63b8ff" stroke="#63b8ff" points="373.27,-529.49 383.78,-530.76 376.35,-523.21 373.27,-529.49"/>
</a>
</g>
</g>
<!-- Node8 -->
<g id="Node000008" class="node">
<title>Node8</title>
<g id="a_Node000008"><a xlink:href="namespace_big_data_stat_meth.html#abcaa4216cd52f03ebac42e4855ef846b" target="_top" xlink:title="Checks if a path exists in an HDF5 file.">
<polygon fill="white" stroke="#666666" points="901.25,-485.88 757.75,-485.88 757.75,-466.62 901.25,-466.62 901.25,-485.88"/>
<text xml:space="preserve" text-anchor="middle" x="829.5" y="-472.38" font-family="Helvetica,sans-Serif" font-size="10.00">BigDataStatMeth::pathExists</text>
</a>
</g>
</g>
<!-- Node7&#45;&gt;Node8 -->
<g id="edge7_Node000007_Node000008" class="edge">
<title>Node7&#45;&gt;Node8</title>
<g id="a_edge7_Node000007_Node000008"><a xlink:title=" ">
<path fill="none" stroke="#63b8ff" d="M689.12,-528.65C719.83,-517.11 761.3,-501.51 791.01,-490.34"/>
<polygon fill="#63b8ff" stroke="#63b8ff" points="792.23,-493.63 800.36,-486.83 789.76,-487.07 792.23,-493.63"/>
</a>
</g>
</g>
<!-- Node9&#45;&gt;Node8 -->
<g id="edge9_Node000009_Node000008" class="edge">
<title>Node9&#45;&gt;Node8</title>
<g id="a_edge9_Node000009_Node000008"><a xlink:title=" ">
<path fill="none" stroke="#63b8ff" d="M690.03,-424.96C720.49,-436.24 761.2,-451.32 790.58,-462.2"/>
<polygon fill="#63b8ff" stroke="#63b8ff" points="789.23,-465.44 799.82,-465.63 791.66,-458.87 789.23,-465.44"/>
</a>
</g>
</g>
<!-- Node13 -->
<g id="Node000013" class="node">
<title>Node13</title>
<g id="a_Node000013"><a xlink:href="class_big_data_stat_meth_1_1hdf5_dataset.html#aba39e56a580d3b1fa7f1619fc72efa3e" target="_top" xlink:title="Close dataset and file.">
<polygon fill="white" stroke="#666666" points="721.75,-219.5 571.5,-219.5 571.5,-189 721.75,-189 721.75,-219.5"/>
<text xml:space="preserve" text-anchor="start" x="579.5" y="-206" font-family="Helvetica,sans-Serif" font-size="10.00">BigDataStatMeth::hdf5Dataset</text>
<text xml:space="preserve" text-anchor="middle" x="646.62" y="-194.75" font-family="Helvetica,sans-Serif" font-size="10.00">::close_dataset_file</text>
</a>
</g>
</g>
<!-- Node12&#45;&gt;Node13 -->
<g id="edge13_Node000012_Node000013" class="edge">
<title>Node12&#45;&gt;Node13</title>
<g id="a_edge13_Node000012_Node000013"><a xlink:title=" ">
<path fill="none" stroke="#63b8ff" d="M525.34,-217.22C536.61,-216.01 548.32,-214.74 559.81,-213.5"/>
<polygon fill="#63b8ff" stroke="#63b8ff" points="560.13,-216.99 569.7,-212.44 559.38,-210.03 560.13,-216.99"/>
</a>
</g>
</g>
<!-- Node14&#45;&gt;Node6 -->
<g id="edge15_Node000014_Node000006" class="edge">
<title>Node14&#45;&gt;Node6</title>
<g id="a_edge15_Node000014_Node000006"><a xlink:title=" ">
<path fill="none" stroke="#63b8ff" d="M306.65,-348.91C314.05,-351.4 321.4,-354.17 328.25,-357.25 345.57,-365.02 347.15,-372 364.25,-380.25 371.11,-383.56 378.45,-386.66 385.83,-389.52"/>
<polygon fill="#63b8ff" stroke="#63b8ff" points="384.61,-392.8 395.21,-393 387.05,-386.24 384.61,-392.8"/>
</a>
</g>
</g>
<!-- Node14&#45;&gt;Node9 -->
<g id="edge16_Node000014_Node000009" class="edge">
<title>Node14&#45;&gt;Node9</title>
<g id="a_edge16_Node000014_Node000009"><a xlink:title=" ">
<path fill="none" stroke="#63b8ff" d="M317.87,-345.71C377.01,-355.79 461.69,-370.65 535.5,-385.25 547.82,-387.69 560.89,-390.41 573.55,-393.13"/>
<polygon fill="#63b8ff" stroke="#63b8ff" points="572.56,-396.49 583.07,-395.18 574.03,-389.65 572.56,-396.49"/>
</a>
</g>
</g>
<!-- Node15 -->
<g id="Node000015" class="node">
<title>Node15</title>
<g id="a_Node000015"><a xlink:href="class_big_data_stat_meth_1_1hdf5_dataset.html#a1ebc27e1f730bc4e611b844dbbb08e34" target="_top" xlink:title="Get an attribute from the dataset.">
<polygon fill="white" stroke="#666666" points="525,-338.5 374.75,-338.5 374.75,-308 525,-308 525,-338.5"/>
<text xml:space="preserve" text-anchor="start" x="382.75" y="-325" font-family="Helvetica,sans-Serif" font-size="10.00">BigDataStatMeth::hdf5Dataset</text>
<text xml:space="preserve" text-anchor="middle" x="449.88" y="-313.75" font-family="Helvetica,sans-Serif" font-size="10.00">::getAttribute</text>
</a>
</g>
</g>
<!-- Node14&#45;&gt;Node15 -->
<g id="edge17_Node000014_Node000015" class="edge">
<title>Node14&#45;&gt;Node15</title>
<g id="a_edge17_Node000014_Node000015"><a xlink:title=" ">
<path fill="none" stroke="#63b8ff" d="M317.78,-329.63C332.43,-328.91 347.92,-328.16 362.91,-327.43"/>
<polygon fill="#63b8ff" stroke="#63b8ff" points="362.93,-330.93 372.75,-326.95 362.59,-323.94 362.93,-330.93"/>
</a>
</g>
</g>
<!-- Node16 -->
<g id="Node000016" class="node">
<title>Node16</title>
<g id="a_Node000016"><a xlink:href="class_big_data_stat_meth_1_1hdf5_dataset.html#a945dd1d6f3db102a962d239045792f61" target="_top" xlink:title="Get dimensions of existing dataset.">
<polygon fill="white" stroke="#666666" points="525,-289.5 374.75,-289.5 374.75,-259 525,-259 525,-289.5"/>
<text xml:space="preserve" text-anchor="start" x="382.75" y="-276" font-family="Helvetica,sans-Serif" font-size="10.00">BigDataStatMeth::hdf5Dataset</text>
<text xml:space="preserve" text-anchor="middle" x="449.88" y="-264.75" font-family="Helvetica,sans-Serif" font-size="10.00">::getDimensExistingDataset</text>
</a>
</g>
</g>
<!-- Node14&#45;&gt;Node16 -->
<g id="edge20_Node000014_Node000016" class="edge">
<title>Node14&#45;&gt;Node16</title>
<g id="a_edge20_Node000014_Node000016"><a xlink:title=" ">
<path fill="none" stroke="#63b8ff" d="M298.08,-317.52C324.34,-309.98 355.98,-300.9 383.48,-293.01"/>
<polygon fill="#63b8ff" stroke="#63b8ff" points="384.09,-296.48 392.74,-290.36 382.16,-289.75 384.09,-296.48"/>
</a>
</g>
</g>
<!-- Node15&#45;&gt;Node9 -->
<g id="edge19_Node000015_Node000009" class="edge">
<title>Node15&#45;&gt;Node9</title>
<g id="a_edge19_Node000015_Node000009"><a xlink:title=" ">
<path fill="none" stroke="#63b8ff" d="M500.56,-338.91C512.15,-342.94 524.36,-347.49 535.5,-352.25 560.22,-362.82 587.04,-376.64 608.01,-388.03"/>
<polygon fill="#63b8ff" stroke="#63b8ff" points="606.33,-391.1 616.78,-392.84 609.7,-384.96 606.33,-391.1"/>
</a>
</g>
</g>
<!-- Node15&#45;&gt;Node13 -->
<g id="edge18_Node000015_Node000013" class="edge">
<title>Node15&#45;&gt;Node13</title>
<g id="a_edge18_Node000015_Node000013"><a xlink:title=" ">
<path fill="none" stroke="#63b8ff" d="M514.44,-307.67C521.73,-304.95 528.9,-301.83 535.5,-298.25 569.68,-279.71 602.76,-249.26 623.59,-228.05"/>
<polygon fill="#63b8ff" stroke="#63b8ff" points="626.01,-230.59 630.43,-220.96 620.97,-225.74 626.01,-230.59"/>
</a>
</g>
</g>
<!-- Node17&#45;&gt;Node13 -->
<g id="edge22_Node000017_Node000013" class="edge">
<title>Node17&#45;&gt;Node13</title>
<g id="a_edge22_Node000017_Node000013"><a xlink:title=" ">
<path fill="none" stroke="#63b8ff" d="M306.14,-231.6C313.7,-229.11 321.22,-226.32 328.25,-223.25 345.43,-215.74 346.2,-206.33 364.25,-201.25 428.04,-183.3 503.24,-185.22 559.84,-190.98"/>
<polygon fill="#63b8ff" stroke="#63b8ff" points="559.43,-194.46 569.75,-192.06 560.19,-187.5 559.43,-194.46"/>
</a>
</g>
</g>
<!-- Node20&#45;&gt;Node13 -->
<g id="edge27_Node000020_Node000013" class="edge">
<title>Node20&#45;&gt;Node13</title>
<g id="a_edge27_Node000020_Node000013"><a xlink:title=" ">
<path fill="none" stroke="#63b8ff" d="M288.45,-80.57C348.01,-62.68 454.67,-40.35 535.5,-77.25 581.1,-98.06 615.08,-148.11 632.51,-178.8"/>
<polygon fill="#63b8ff" stroke="#63b8ff" points="629.37,-180.36 637.25,-187.44 635.51,-176.99 629.37,-180.36"/>
</a>
</g>
</g>
<!-- Node21 -->
<g id="Node000021" class="node">
<title>Node21</title>
<g id="a_Node000021"><a xlink:href="class_big_data_stat_meth_1_1hdf5_dataset.html#a64177ae924792ea9e557febaa95ed400" target="_top" xlink:title="Close the dataset.">
<polygon fill="white" stroke="#666666" points="525,-30.5 374.75,-30.5 374.75,0 525,0 525,-30.5"/>
<text xml:space="preserve" text-anchor="start" x="382.75" y="-17" font-family="Helvetica,sans-Serif" font-size="10.00">BigDataStatMeth::hdf5Dataset</text>
<text xml:space="preserve" text-anchor="middle" x="449.88" y="-5.75" font-family="Helvetica,sans-Serif" font-size="10.00">::close_dataset</text>
</a>
</g>
</g>
<!-- Node20&#45;&gt;Node21 -->
<g id="edge26_Node000020_Node000021" class="edge">
<title>Node20&#45;&gt;Node21</title>
<g id="a_edge26_Node000020_Node000021"><a xlink:title=" ">
<path fill="none" stroke="#63b8ff" d="M277.91,-80.53C301.95,-69.83 334.81,-55.6 364.25,-44.25 372.7,-40.99 381.69,-37.72 390.53,-34.6"/>
<polygon fill="#63b8ff" stroke="#63b8ff" points="391.48,-37.97 399.77,-31.38 389.18,-31.36 391.48,-37.97"/>
</a>
</g>
</g>
<!-- Node22 -->
<g id="Node000022" class="node">
<title>Node22</title>
<g id="a_Node000022"><a xlink:href="class_big_data_stat_meth_1_1hdf5_dataset.html#a94d81b72e92cb0230b4e64f37ea7d2e3" target="_top" xlink:title="Convert DataFrame to range list.">
<polygon fill="white" stroke="#666666" points="535.5,-154.5 364.25,-154.5 364.25,-124 535.5,-124 535.5,-154.5"/>
<text xml:space="preserve" text-anchor="start" x="372.25" y="-141" font-family="Helvetica,sans-Serif" font-size="10.00">BigDataStatMeth::hdf5Dataset</text>
<text xml:space="preserve" text-anchor="middle" x="449.88" y="-129.75" font-family="Helvetica,sans-Serif" font-size="10.00">::convert_DataFrame_to_RangeList</text>
</a>
</g>
</g>
<!-- Node20&#45;&gt;Node22 -->
<g id="edge28_Node000020_Node000022" class="edge">
<title>Node20&#45;&gt;Node22</title>
<g id="a_edge28_Node000020_Node000022"><a xlink:title=" ">
<path fill="none" stroke="#63b8ff" d="M317.78,-111.83C332.25,-114.86 347.53,-118.06 362.35,-121.16"/>
<polygon fill="#63b8ff" stroke="#63b8ff" points="361.58,-124.57 372.09,-123.19 363.01,-117.72 361.58,-124.57"/>
</a>
</g>
</g>
<!-- Node23 -->
<g id="Node000023" class="node">
<title>Node23</title>
<g id="a_Node000023"><a xlink:href="namespace_big_data_stat_meth.html#a2692707b3ea4aaafa09d07afaf632437" target="_top" xlink:title="Transposes a 2D matrix.">
<polygon fill="white" stroke="#666666" points="519.75,-105.88 380,-105.88 380,-86.62 519.75,-86.62 519.75,-105.88"/>
<text xml:space="preserve" text-anchor="middle" x="449.88" y="-92.38" font-family="Helvetica,sans-Serif" font-size="10.00">BigDataStatMeth::transpose</text>
</a>
</g>
</g>
<!-- Node20&#45;&gt;Node23 -->
<g id="edge29_Node000020_Node000023" class="edge">
<title>Node20&#45;&gt;Node23</title>
<g id="a_edge29_Node000020_Node000023"><a xlink:title=" ">
<path fill="none" stroke="#63b8ff" d="M317.78,-96.25C334.21,-96.25 351.69,-96.25 368.35,-96.25"/>
<polygon fill="#63b8ff" stroke="#63b8ff" points="368.22,-99.75 378.22,-96.25 368.22,-92.75 368.22,-99.75"/>
</a>
</g>
</g>
</g>
</svg>

<g id="navigator" transform="translate(0 0)" fill="#404254">
  <rect fill="#f2f5e9" fill-opacity="0.5" stroke="#606060" stroke-width=".5" x="0" y="0" width="60" height="60"/>
  <use id="zoomplus" xlink:href="#zoomPlus" x="17" y="9" onmousedown="handleZoom(evt,'in')"/>
  <use id="zoomminus" xlink:href="#zoomMin" x="42" y="9" onmousedown="handleZoom(evt,'out')"/>
  <use id="reset" xlink:href="#resetDef" x="30" y="36" onmousedown="handleReset()"/>
   <use id="arrowup" xlink:href="#arrowUp" x="0" y="0" onmousedown="handlePan(0,-1)"/>
  <use id="arrowright" xlink:href="#arrowRight" x="0" y="0" onmousedown="handlePan(1,0)"/>
  <use id="arrowdown" xlink:href="#arrowDown" x="0" y="0" onmousedown="handlePan(0,1)"/>
  <use id="arrowleft" xlink:href="#arrowLeft" x="0" y="0" onmousedown="handlePan(-1,0)"/>
</g>
<svg viewBox="0 0 15 15" width="100%" height="30px" preserveAspectRatio="xMaxYMin meet">
 <g id="arrow_out" transform="scale(0.3 0.3)">
  <a xlink:href="namespace_big_data_stat_meth_a03a8786966faa491d4f359d52ea059e4_cgraph_org.svg" target="_base">
   <rect id="button" ry="5" rx="5" y="6" x="6" height="38" width="38"
        fill="#f2f5e9" fill-opacity="0.5" stroke="#606060" stroke-width="1.0"/>
   <path id="arrow"
     d="M 11.500037,31.436501 C 11.940474,20.09759 22.043105,11.32322 32.158766,21.979434 L 37.068811,17.246167 C 37.068811,17.246167 37.088388,32 37.088388,32 L 22.160133,31.978069 C 22.160133,31.978069 26.997745,27.140456 26.997745,27.140456 C 18.528582,18.264221 13.291696,25.230495 11.500037,31.436501 z"
     style="fill:#404040;"/>
  </a>
 </g>
</svg>

<style type='text/css'>
<![CDATA[
[data-mouse-over-selected='false'] { opacity: 0.7; }
[data-mouse-over-selected='true']  { opacity: 1.0; }
]]>
</style>
<script type="application/ecmascript"><![CDATA[
document.addEventListener('DOMContentLoaded', (event) => {
  highlightEdges();
  highlightAdjacentNodes();
});
]]></script>
</svg>
