<?xml version="1.0" encoding="UTF-8" standalone="no"?>
<!DOCTYPE svg PUBLIC "-//W3C//DTD SVG 1.1//EN"
 "http://www.w3.org/Graphics/SVG/1.1/DTD/svg11.dtd">
<!-- Generated by graphviz version 14.0.0 (20250921.2048)
 -->
<!-- Title: BigDataStatMeth::RcppTypifyNormalizeHdf5 Pages: 1 -->
<!--zoomable 513 -->

<svg id="main" version="1.1" xmlns="http://www.w3.org/2000/svg" xmlns:xlink="http://www.w3.org/1999/xlink" xml:space="preserve" onload="init(evt)">

<style type="text/css"><![CDATA[
.node, .edge {opacity: 0.7;}
.node.selected, .edge.selected {opacity: 1;}
.edge:hover path { stroke: red; }
.edge:hover polygon { stroke: red; fill: red; }
]]></style>

<defs>
  <circle id="rim" cx="0" cy="0" r="7"/>
  <circle id="rim2" cx="0" cy="0" r="3.5"/>
  <g id="zoomPlus">
    <use xlink:href="#rim" fill="#404040"><set attributeName="fill" to="#808080" begin="zoomplus.mouseover" end="zoomplus.mouseout"/></use>
    <path d="M-4,0h8M0,-4v8" fill="none" stroke="white" stroke-width="1.5" pointer-events="none"/>
  </g>
  <g id="zoomMin">
    <use xlink:href="#rim" fill="#404040"><set attributeName="fill" to="#808080" begin="zoomminus.mouseover" end="zoomminus.mouseout"/></use>
    <path d="M-4,0h8" fill="none" stroke="white" stroke-width="1.5" pointer-events="none"/>
  </g>
  <g id="arrowUp" transform="translate(30 24)">
    <use xlink:href="#rim"/>
    <path pointer-events="none" fill="none" stroke="white" stroke-width="1.5" d="M0,-3.0v7 M-2.5,-0.5L0,-3.0L2.5,-0.5"/>
  </g>
  <g id="arrowRight" transform="rotate(90) translate(36 -43)">
    <use xlink:href="#rim"/>
    <path pointer-events="none" fill="none" stroke="white" stroke-width="1.5" d="M0,-3.0v7 M-2.5,-0.5L0,-3.0L2.5,-0.5"/>
  </g>
  <g id="arrowDown" transform="rotate(180) translate(-30 -48)">
    <use xlink:href="#rim"/>
    <path pointer-events="none" fill="none" stroke="white" stroke-width="1.5" d="M0,-3.0v7 M-2.5,-0.5L0,-3.0L2.5,-0.5"/>
  </g>
  <g id="arrowLeft" transform="rotate(270) translate(-36 17)">
    <use xlink:href="#rim"/>
    <path pointer-events="none" fill="none" stroke="white" stroke-width="1.5" d="M0,-3.0v7 M-2.5,-0.5L0,-3.0L2.5,-0.5"/>
  </g>
  <g id="resetDef">
    <use xlink:href="#rim2" fill="#404040"><set attributeName="fill" to="#808080" begin="reset.mouseover" end="reset.mouseout"/></use>
  </g>
</defs>
<script type="application/ecmascript">
var viewWidth = 770;
var viewHeight = 513;
var sectionId = 'dynsection-203';
</script>
<script type="application/ecmascript" xlink:href="../../../../assets/svg.min.js"/>
<svg id="graph" class="graph">
<g id="viewport">
<title>BigDataStatMeth::RcppTypifyNormalizeHdf5</title>
<!-- Node1 -->
<g id="Node000001" class="node">
<title>Node1</title>
<g id="a_Node000001"><a xlink:title=" ">
<polygon fill="#999999" stroke="#666666" points="146.5,-247.5 0,-247.5 0,-217 146.5,-217 146.5,-247.5"/>
<text xml:space="preserve" text-anchor="start" x="8" y="-234" font-family="Helvetica,sans-Serif" font-size="10.00">BigDataStatMeth::RcppTypify</text>
<text xml:space="preserve" text-anchor="middle" x="73.25" y="-222.75" font-family="Helvetica,sans-Serif" font-size="10.00">NormalizeHdf5</text>
</a>
</g>
</g>
<!-- Node2 -->
<g id="Node000002" class="node">
<title>Node2</title>
<g id="a_Node000002"><a xlink:href="namespace_big_data_stat_meth.html#a74ce60b67b2d8eb66be38b96cc7b3ff5" target="_top" xlink:title="Calculate column&#45;wise mean and standard deviation.">
<polygon fill="white" stroke="#666666" points="347.75,-467.5 202.75,-467.5 202.75,-437 347.75,-437 347.75,-467.5"/>
<text xml:space="preserve" text-anchor="start" x="210.75" y="-454" font-family="Helvetica,sans-Serif" font-size="10.00">BigDataStatMeth::get</text>
<text xml:space="preserve" text-anchor="middle" x="275.25" y="-442.75" font-family="Helvetica,sans-Serif" font-size="10.00">_HDF5_mean_sd_by_column</text>
</a>
</g>
</g>
<!-- Node1&#45;&gt;Node2 -->
<g id="edge1_Node000001_Node000002" class="edge">
<title>Node1&#45;&gt;Node2</title>
<g id="a_edge1_Node000001_Node000002"><a xlink:title=" ">
<path fill="none" stroke="#63b8ff" d="M78.37,-247.9C88.98,-285.01 120.8,-378.87 182.5,-427.25 185.58,-429.67 188.88,-431.85 192.33,-433.82"/>
<polygon fill="#63b8ff" stroke="#63b8ff" points="190.52,-436.83 201.03,-438.17 193.65,-430.57 190.52,-436.83"/>
</a>
</g>
</g>
<!-- Node7 -->
<g id="Node000007" class="node">
<title>Node7</title>
<g id="a_Node000007"><a xlink:href="namespace_big_data_stat_meth.html#a7cab0fb0e96ea7e4710923626e6095e6" target="_top" xlink:title="Calculate row&#45;wise mean and standard deviation.">
<polygon fill="white" stroke="#666666" points="339.88,-418.5 210.62,-418.5 210.62,-388 339.88,-388 339.88,-418.5"/>
<text xml:space="preserve" text-anchor="start" x="218.62" y="-405" font-family="Helvetica,sans-Serif" font-size="10.00">BigDataStatMeth::get</text>
<text xml:space="preserve" text-anchor="middle" x="275.25" y="-393.75" font-family="Helvetica,sans-Serif" font-size="10.00">_HDF5_mean_sd_by_row</text>
</a>
</g>
</g>
<!-- Node1&#45;&gt;Node7 -->
<g id="edge6_Node000001_Node000007" class="edge">
<title>Node1&#45;&gt;Node7</title>
<g id="a_edge6_Node000001_Node000007"><a xlink:title=" ">
<path fill="none" stroke="#63b8ff" d="M86.02,-247.62C104.69,-271.35 143.06,-317.48 182.5,-349.25 197.88,-361.64 216.4,-373.09 232.76,-382.23"/>
<polygon fill="#63b8ff" stroke="#63b8ff" points="230.84,-385.17 241.29,-386.88 234.19,-379.02 230.84,-385.17"/>
</a>
</g>
</g>
<!-- Node8 -->
<g id="Node000008" class="node">
<title>Node8</title>
<g id="a_Node000008"><a xlink:href="class_big_data_stat_meth_1_1hdf5_dataset.html#af3ab7117b94164ab629673cacd896dd9" target="_top" xlink:title="Get the current compression level for this dataset instance.">
<polygon fill="white" stroke="#666666" points="350.38,-226.5 200.12,-226.5 200.12,-196 350.38,-196 350.38,-226.5"/>
<text xml:space="preserve" text-anchor="start" x="208.12" y="-213" font-family="Helvetica,sans-Serif" font-size="10.00">BigDataStatMeth::hdf5Dataset</text>
<text xml:space="preserve" text-anchor="middle" x="275.25" y="-201.75" font-family="Helvetica,sans-Serif" font-size="10.00">::getCompressionLevel</text>
</a>
</g>
</g>
<!-- Node1&#45;&gt;Node8 -->
<g id="edge10_Node000001_Node000008" class="edge">
<title>Node1&#45;&gt;Node8</title>
<g id="a_edge10_Node000001_Node000008"><a xlink:title=" ">
<path fill="none" stroke="#63b8ff" d="M146.74,-224.64C160.32,-223.21 174.64,-221.71 188.58,-220.25"/>
<polygon fill="#63b8ff" stroke="#63b8ff" points="188.57,-223.77 198.15,-219.24 187.84,-216.8 188.57,-223.77"/>
</a>
</g>
</g>
<!-- Node9 -->
<g id="Node000009" class="node">
<title>Node9</title>
<g id="a_Node000009"><a xlink:href="class_big_data_stat_meth_1_1hdf5_dataset.html#ac979eba40078c7c5974b64b2ce6347a3" target="_top" xlink:title="Get dataset name.">
<polygon fill="white" stroke="#666666" points="350.38,-177.5 200.12,-177.5 200.12,-147 350.38,-147 350.38,-177.5"/>
<text xml:space="preserve" text-anchor="start" x="208.12" y="-164" font-family="Helvetica,sans-Serif" font-size="10.00">BigDataStatMeth::hdf5Dataset</text>
<text xml:space="preserve" text-anchor="middle" x="275.25" y="-152.75" font-family="Helvetica,sans-Serif" font-size="10.00">::getDatasetName</text>
</a>
</g>
</g>
<!-- Node1&#45;&gt;Node9 -->
<g id="edge11_Node000001_Node000009" class="edge">
<title>Node1&#45;&gt;Node9</title>
<g id="a_edge11_Node000001_Node000009"><a xlink:title=" ">
<path fill="none" stroke="#63b8ff" d="M108.92,-216.51C129.95,-207.29 157.47,-195.82 182.5,-187.25 188.6,-185.16 194.98,-183.12 201.41,-181.18"/>
<polygon fill="#63b8ff" stroke="#63b8ff" points="202.18,-184.6 210.78,-178.42 200.2,-177.89 202.18,-184.6"/>
</a>
</g>
</g>
<!-- Node10 -->
<g id="Node000010" class="node">
<title>Node10</title>
<g id="a_Node000010"><a xlink:href="class_big_data_stat_meth_1_1hdf5_dataset.html#a00ef08e5d548410faaea7892c87c343a" target="_top" xlink:title="Get dataset pointer.">
<polygon fill="white" stroke="#666666" points="350.38,-128.5 200.12,-128.5 200.12,-98 350.38,-98 350.38,-128.5"/>
<text xml:space="preserve" text-anchor="start" x="208.12" y="-115" font-family="Helvetica,sans-Serif" font-size="10.00">BigDataStatMeth::hdf5Dataset</text>
<text xml:space="preserve" text-anchor="middle" x="275.25" y="-103.75" font-family="Helvetica,sans-Serif" font-size="10.00">::getDatasetptr</text>
</a>
</g>
</g>
<!-- Node1&#45;&gt;Node10 -->
<g id="edge12_Node000001_Node000010" class="edge">
<title>Node1&#45;&gt;Node10</title>
<g id="a_edge12_Node000001_Node000010"><a xlink:title=" ">
<path fill="none" stroke="#63b8ff" d="M87.71,-216.85C106.77,-196 143.64,-159 182.5,-138.25 185.95,-136.41 189.56,-134.69 193.25,-133.09"/>
<polygon fill="#63b8ff" stroke="#63b8ff" points="194.43,-136.39 202.44,-129.45 191.85,-129.88 194.43,-136.39"/>
</a>
</g>
</g>
<!-- Node11 -->
<g id="Node000011" class="node">
<title>Node11</title>
<g id="a_Node000011"><a xlink:href="class_big_data_stat_meth_1_1hdf5_file.html#a2d2bd792aa9c01e459312e6727cde8af" target="_top" xlink:title="Get full file path.">
<polygon fill="white" stroke="#666666" points="341,-79.5 209.5,-79.5 209.5,-49 341,-49 341,-79.5"/>
<text xml:space="preserve" text-anchor="start" x="217.5" y="-66" font-family="Helvetica,sans-Serif" font-size="10.00">BigDataStatMeth::hdf5File</text>
<text xml:space="preserve" text-anchor="middle" x="275.25" y="-54.75" font-family="Helvetica,sans-Serif" font-size="10.00">::getFullPath</text>
</a>
</g>
</g>
<!-- Node1&#45;&gt;Node11 -->
<g id="edge13_Node000001_Node000011" class="edge">
<title>Node1&#45;&gt;Node11</title>
<g id="a_edge13_Node000001_Node000011"><a xlink:title=" ">
<path fill="none" stroke="#63b8ff" d="M81.65,-216.65C96.47,-187.09 132.71,-122.91 182.5,-89.25 187.54,-85.84 193.04,-82.89 198.75,-80.35"/>
<polygon fill="#63b8ff" stroke="#63b8ff" points="199.81,-83.7 207.8,-76.75 197.22,-77.19 199.81,-83.7"/>
</a>
</g>
</g>
<!-- Node12 -->
<g id="Node000012" class="node">
<title>Node12</title>
<g id="a_Node000012"><a xlink:href="class_big_data_stat_meth_1_1hdf5_group.html#a59995412538627e6c80f64b552c286f5" target="_top" xlink:title=" ">
<polygon fill="white" stroke="#666666" points="346.25,-30.5 204.25,-30.5 204.25,0 346.25,0 346.25,-30.5"/>
<text xml:space="preserve" text-anchor="start" x="212.25" y="-17" font-family="Helvetica,sans-Serif" font-size="10.00">BigDataStatMeth::hdf5Group</text>
<text xml:space="preserve" text-anchor="middle" x="275.25" y="-5.75" font-family="Helvetica,sans-Serif" font-size="10.00">::getGroupName</text>
</a>
</g>
</g>
<!-- Node1&#45;&gt;Node12 -->
<g id="edge14_Node000001_Node000012" class="edge">
<title>Node1&#45;&gt;Node12</title>
<g id="a_edge14_Node000001_Node000012"><a xlink:title=" ">
<path fill="none" stroke="#63b8ff" d="M78.53,-216.57C89.37,-179.83 121.52,-87.75 182.5,-40.25 185.99,-37.53 189.76,-35.11 193.7,-32.95"/>
<polygon fill="#63b8ff" stroke="#63b8ff" points="194.94,-36.23 202.45,-28.76 191.92,-29.92 194.94,-36.23"/>
</a>
</g>
</g>
<!-- Node13 -->
<g id="Node000013" class="node">
<title>Node13</title>
<g id="a_Node000013"><a xlink:href="class_big_data_stat_meth_1_1hdf5_dataset.html#aa743c8c46d7ff3bb2f894145dd07fd8a" target="_top" xlink:title="Get number of columns in internal format.">
<polygon fill="white" stroke="#666666" points="565.12,-271.5 414.88,-271.5 414.88,-241 565.12,-241 565.12,-271.5"/>
<text xml:space="preserve" text-anchor="start" x="422.88" y="-258" font-family="Helvetica,sans-Serif" font-size="10.00">BigDataStatMeth::hdf5Dataset</text>
<text xml:space="preserve" text-anchor="middle" x="490" y="-246.75" font-family="Helvetica,sans-Serif" font-size="10.00">::ncols</text>
</a>
</g>
</g>
<!-- Node1&#45;&gt;Node13 -->
<g id="edge15_Node000001_Node000013" class="edge">
<title>Node1&#45;&gt;Node13</title>
<g id="a_edge15_Node000001_Node000013"><a xlink:title=" ">
<path fill="none" stroke="#63b8ff" d="M111.57,-247.96C132.1,-255.76 158.26,-264.32 182.5,-268.25 256.36,-280.21 341.47,-275.43 403.24,-268.68"/>
<polygon fill="#63b8ff" stroke="#63b8ff" points="403.45,-272.18 412.99,-267.57 402.65,-265.22 403.45,-272.18"/>
</a>
</g>
</g>
<!-- Node14 -->
<g id="Node000014" class="node">
<title>Node14</title>
<g id="a_Node000014"><a xlink:href="class_big_data_stat_meth_1_1hdf5_dataset.html#a6cbce676967d0cc4b50e2cc5282c322b" target="_top" xlink:title="Get number of rows in internal format.">
<polygon fill="white" stroke="#666666" points="565.12,-222.5 414.88,-222.5 414.88,-192 565.12,-192 565.12,-222.5"/>
<text xml:space="preserve" text-anchor="start" x="422.88" y="-209" font-family="Helvetica,sans-Serif" font-size="10.00">BigDataStatMeth::hdf5Dataset</text>
<text xml:space="preserve" text-anchor="middle" x="490" y="-197.75" font-family="Helvetica,sans-Serif" font-size="10.00">::nrows</text>
</a>
</g>
</g>
<!-- Node1&#45;&gt;Node14 -->
<g id="edge16_Node000001_Node000014" class="edge">
<title>Node1&#45;&gt;Node14</title>
<g id="a_edge16_Node000001_Node000014"><a xlink:title=" ">
<path fill="none" stroke="#63b8ff" d="M146.94,-237.97C206.54,-241.47 293.01,-243.81 368,-235.25 385.83,-233.21 404.85,-229.54 422.41,-225.51"/>
<polygon fill="#63b8ff" stroke="#63b8ff" points="422.74,-229.03 431.66,-223.32 421.12,-222.22 422.74,-229.03"/>
</a>
</g>
</g>
<!-- Node15 -->
<g id="Node000015" class="node">
<title>Node15</title>
<g id="a_Node000015"><a xlink:href="namespace_big_data_stat_meth.html#aa04bdd4175075e124877dda4897c291b" target="_top" xlink:title="HDF5 matrix normalization with pre&#45;computed statistics.">
<polygon fill="white" stroke="#666666" points="368,-339.88 182.5,-339.88 182.5,-320.62 368,-320.62 368,-339.88"/>
<text xml:space="preserve" text-anchor="middle" x="275.25" y="-326.38" font-family="Helvetica,sans-Serif" font-size="10.00">BigDataStatMeth::RcppNormalizeHdf5</text>
</a>
</g>
</g>
<!-- Node1&#45;&gt;Node15 -->
<g id="edge17_Node000001_Node000015" class="edge">
<title>Node1&#45;&gt;Node15</title>
<g id="a_edge17_Node000001_Node000015"><a xlink:title=" ">
<path fill="none" stroke="#63b8ff" d="M92.6,-247.75C113.23,-264.43 148.32,-290.67 182.5,-306.25 191.85,-310.51 202.1,-314.12 212.25,-317.15"/>
<polygon fill="#63b8ff" stroke="#63b8ff" points="211.14,-320.47 221.72,-319.79 213.03,-313.73 211.14,-320.47"/>
</a>
</g>
</g>
<!-- Node3 -->
<g id="Node000003" class="node">
<title>Node3</title>
<g id="a_Node000003"><a xlink:href="class_big_data_stat_meth_1_1hdf5_dataset.html#a7b54a6f524581d54102a1614ee44991b" target="_top" xlink:title="Get dataset dimension.">
<polygon fill="white" stroke="#666666" points="576,-504.88 404,-504.88 404,-485.62 576,-485.62 576,-504.88"/>
<text xml:space="preserve" text-anchor="middle" x="490" y="-491.38" font-family="Helvetica,sans-Serif" font-size="10.00">BigDataStatMeth::hdf5Dataset::dim</text>
</a>
</g>
</g>
<!-- Node2&#45;&gt;Node3 -->
<g id="edge2_Node000002_Node000003" class="edge">
<title>Node2&#45;&gt;Node3</title>
<g id="a_edge2_Node000002_Node000003"><a xlink:title=" ">
<path fill="none" stroke="#63b8ff" d="M347.98,-466.75C373.92,-471.99 402.95,-477.86 427.9,-482.9"/>
<polygon fill="#63b8ff" stroke="#63b8ff" points="427.07,-486.3 437.56,-484.85 428.46,-479.44 427.07,-486.3"/>
</a>
</g>
</g>
<!-- Node4 -->
<g id="Node000004" class="node">
<title>Node4</title>
<g id="a_Node000004"><a xlink:href="namespace_big_data_stat_meth.html#a9c15678544a0304bf01c268623b2d957" target="_top" xlink:title="Calculate optimal block size for processing.">
<polygon fill="white" stroke="#666666" points="545.25,-467.5 434.75,-467.5 434.75,-437 545.25,-437 545.25,-467.5"/>
<text xml:space="preserve" text-anchor="start" x="442.75" y="-454" font-family="Helvetica,sans-Serif" font-size="10.00">BigDataStatMeth::get</text>
<text xml:space="preserve" text-anchor="middle" x="490" y="-442.75" font-family="Helvetica,sans-Serif" font-size="10.00">_block_size</text>
</a>
</g>
</g>
<!-- Node2&#45;&gt;Node4 -->
<g id="edge3_Node000002_Node000004" class="edge">
<title>Node2&#45;&gt;Node4</title>
<g id="a_edge3_Node000002_Node000004"><a xlink:title=" ">
<path fill="none" stroke="#63b8ff" d="M347.98,-452.25C372.24,-452.25 399.2,-452.25 422.99,-452.25"/>
<polygon fill="#63b8ff" stroke="#63b8ff" points="422.88,-455.75 432.88,-452.25 422.88,-448.75 422.88,-455.75"/>
</a>
</g>
</g>
<!-- Node5 -->
<g id="Node000005" class="node">
<title>Node5</title>
<g id="a_Node000005"><a xlink:href="class_big_data_stat_meth_1_1hdf5_dataset.html#a23bea87165b8ef6b944709c5b2cbd0cf" target="_top" xlink:title=" ">
<polygon fill="white" stroke="#666666" points="565.12,-418.5 414.88,-418.5 414.88,-388 565.12,-388 565.12,-418.5"/>
<text xml:space="preserve" text-anchor="start" x="422.88" y="-405" font-family="Helvetica,sans-Serif" font-size="10.00">BigDataStatMeth::hdf5Dataset</text>
<text xml:space="preserve" text-anchor="middle" x="490" y="-393.75" font-family="Helvetica,sans-Serif" font-size="10.00">::readDatasetBlock</text>
</a>
</g>
</g>
<!-- Node2&#45;&gt;Node5 -->
<g id="edge4_Node000002_Node000005" class="edge">
<title>Node2&#45;&gt;Node5</title>
<g id="a_edge4_Node000002_Node000005"><a xlink:title=" ">
<path fill="none" stroke="#63b8ff" d="M344.44,-436.54C365.25,-431.75 388.3,-426.44 409.77,-421.5"/>
<polygon fill="#63b8ff" stroke="#63b8ff" points="410.39,-424.95 419.35,-419.29 408.82,-418.12 410.39,-424.95"/>
</a>
</g>
</g>
<!-- Node6 -->
<g id="Node000006" class="node">
<title>Node6</title>
<g id="a_Node000006"><a xlink:href="class_big_data_stat_meth_1_1hdf5_dataset.html#aba39e56a580d3b1fa7f1619fc72efa3e" target="_top" xlink:title="Close dataset and file.">
<polygon fill="white" stroke="#666666" points="762.25,-393.5 612,-393.5 612,-363 762.25,-363 762.25,-393.5"/>
<text xml:space="preserve" text-anchor="start" x="620" y="-380" font-family="Helvetica,sans-Serif" font-size="10.00">BigDataStatMeth::hdf5Dataset</text>
<text xml:space="preserve" text-anchor="middle" x="687.12" y="-368.75" font-family="Helvetica,sans-Serif" font-size="10.00">::close_dataset_file</text>
</a>
</g>
</g>
<!-- Node5&#45;&gt;Node6 -->
<g id="edge5_Node000005_Node000006" class="edge">
<title>Node5&#45;&gt;Node6</title>
<g id="a_edge5_Node000005_Node000006"><a xlink:title=" ">
<path fill="none" stroke="#63b8ff" d="M565.6,-393.69C576.9,-392.24 588.63,-390.74 600.15,-389.27"/>
<polygon fill="#63b8ff" stroke="#63b8ff" points="600.59,-392.74 610.06,-388 599.7,-385.79 600.59,-392.74"/>
</a>
</g>
</g>
<!-- Node7&#45;&gt;Node3 -->
<g id="edge7_Node000007_Node000003" class="edge">
<title>Node7&#45;&gt;Node3</title>
<g id="a_edge7_Node000007_Node000003"><a xlink:title=" ">
<path fill="none" stroke="#63b8ff" d="M340.35,-414.82C350.1,-418.21 359.67,-422.59 368,-428.25 390.06,-443.23 381.6,-461.78 404,-476.25 406.44,-477.83 409,-479.28 411.64,-480.61"/>
<polygon fill="#63b8ff" stroke="#63b8ff" points="410.21,-483.8 420.78,-484.57 412.99,-477.38 410.21,-483.8"/>
</a>
</g>
</g>
<!-- Node7&#45;&gt;Node4 -->
<g id="edge8_Node000007_Node000004" class="edge">
<title>Node7&#45;&gt;Node4</title>
<g id="a_edge8_Node000007_Node000004"><a xlink:title=" ">
<path fill="none" stroke="#63b8ff" d="M340.37,-418.02C366.6,-424.06 396.92,-431.04 423.31,-437.12"/>
<polygon fill="#63b8ff" stroke="#63b8ff" points="422.35,-440.49 432.88,-439.32 423.92,-433.67 422.35,-440.49"/>
</a>
</g>
</g>
<!-- Node7&#45;&gt;Node5 -->
<g id="edge9_Node000007_Node000005" class="edge">
<title>Node7&#45;&gt;Node5</title>
<g id="a_edge9_Node000007_Node000005"><a xlink:title=" ">
<path fill="none" stroke="#63b8ff" d="M340.37,-403.25C360.09,-403.25 382.12,-403.25 403.05,-403.25"/>
<polygon fill="#63b8ff" stroke="#63b8ff" points="403.03,-406.75 413.03,-403.25 403.03,-399.75 403.03,-406.75"/>
</a>
</g>
</g>
<!-- Node15&#45;&gt;Node4 -->
<g id="edge18_Node000015_Node000004" class="edge">
<title>Node15&#45;&gt;Node4</title>
<g id="a_edge18_Node000015_Node000004"><a xlink:title=" ">
<path fill="none" stroke="#63b8ff" d="M301.83,-340.28C321.33,-348.75 348.12,-362.2 368,-379.25 388.24,-396.61 382.09,-412.05 404,-427.25 410.11,-431.49 416.95,-435.02 424.02,-437.96"/>
<polygon fill="#63b8ff" stroke="#63b8ff" points="422.48,-441.12 433.07,-441.33 424.92,-434.56 422.48,-441.12"/>
</a>
</g>
</g>
<!-- Node15&#45;&gt;Node5 -->
<g id="edge22_Node000015_Node000005" class="edge">
<title>Node15&#45;&gt;Node5</title>
<g id="a_edge22_Node000015_Node000005"><a xlink:title=" ">
<path fill="none" stroke="#63b8ff" d="M301.5,-340.37C327.13,-350.48 368.05,-366.23 404,-378.25 410.07,-380.28 416.42,-382.31 422.79,-384.29"/>
<polygon fill="#63b8ff" stroke="#63b8ff" points="421.46,-387.54 432.04,-387.12 423.5,-380.85 421.46,-387.54"/>
</a>
</g>
</g>
<!-- Node15&#45;&gt;Node13 -->
<g id="edge19_Node000015_Node000013" class="edge">
<title>Node15&#45;&gt;Node13</title>
<g id="a_edge19_Node000015_Node000013"><a xlink:title=" ">
<path fill="none" stroke="#63b8ff" d="M327.83,-320.14C341.24,-316.61 355.44,-312.03 368,-306.25 385.69,-298.1 386.43,-289.66 404,-281.25 407.95,-279.36 412.06,-277.58 416.27,-275.92"/>
<polygon fill="#63b8ff" stroke="#63b8ff" points="417.26,-279.28 425.42,-272.52 414.83,-272.72 417.26,-279.28"/>
</a>
</g>
</g>
<!-- Node15&#45;&gt;Node14 -->
<g id="edge20_Node000015_Node000014" class="edge">
<title>Node15&#45;&gt;Node14</title>
<g id="a_edge20_Node000015_Node000014"><a xlink:title=" ">
<path fill="none" stroke="#63b8ff" d="M293.17,-320.18C312.11,-308.6 343.38,-288.56 368,-268.25 385.45,-253.85 384.54,-243.8 404,-232.25 406.95,-230.5 410.03,-228.87 413.19,-227.34"/>
<polygon fill="#63b8ff" stroke="#63b8ff" points="414.38,-230.64 422.14,-223.43 411.58,-224.22 414.38,-230.64"/>
</a>
</g>
</g>
<!-- Node16 -->
<g id="Node000016" class="node">
<title>Node16</title>
<g id="a_Node000016"><a xlink:href="namespace_big_data_stat_meth.html#aa109a5664920caf79ff04c997a57cc59" target="_top" xlink:title=" ">
<polygon fill="white" stroke="#666666" points="572.25,-320.5 407.75,-320.5 407.75,-290 572.25,-290 572.25,-320.5"/>
<text xml:space="preserve" text-anchor="start" x="415.75" y="-307" font-family="Helvetica,sans-Serif" font-size="10.00">BigDataStatMeth::RcppNormalize</text>
<text xml:space="preserve" text-anchor="middle" x="490" y="-295.75" font-family="Helvetica,sans-Serif" font-size="10.00">_Data_R_hdf5</text>
</a>
</g>
</g>
<!-- Node15&#45;&gt;Node16 -->
<g id="edge21_Node000015_Node000016" class="edge">
<title>Node15&#45;&gt;Node16</title>
<g id="a_edge21_Node000015_Node000016"><a xlink:title=" ">
<path fill="none" stroke="#63b8ff" d="M362.17,-320.15C373.41,-318.83 384.98,-317.47 396.32,-316.14"/>
<polygon fill="#63b8ff" stroke="#63b8ff" points="396.56,-319.64 406.08,-314.99 395.74,-312.68 396.56,-319.64"/>
</a>
</g>
</g>
<!-- Node17 -->
<g id="Node000017" class="node">
<title>Node17</title>
<g id="a_Node000017"><a xlink:href="class_big_data_stat_meth_1_1hdf5_dataset.html#ae135b5c379a5de2fa1a9e6917b624ac3" target="_top" xlink:title="Write block of data in row&#45;major order.">
<polygon fill="white" stroke="#666666" points="565.12,-369.5 414.88,-369.5 414.88,-339 565.12,-339 565.12,-369.5"/>
<text xml:space="preserve" text-anchor="start" x="422.88" y="-356" font-family="Helvetica,sans-Serif" font-size="10.00">BigDataStatMeth::hdf5Dataset</text>
<text xml:space="preserve" text-anchor="middle" x="490" y="-344.75" font-family="Helvetica,sans-Serif" font-size="10.00">::writeRowMajorDatasetBlock</text>
</a>
</g>
</g>
<!-- Node15&#45;&gt;Node17 -->
<g id="edge23_Node000015_Node000017" class="edge">
<title>Node15&#45;&gt;Node17</title>
<g id="a_edge23_Node000015_Node000017"><a xlink:title=" ">
<path fill="none" stroke="#63b8ff" d="M365.86,-340.36C378.29,-341.76 391.04,-343.2 403.4,-344.59"/>
<polygon fill="#63b8ff" stroke="#63b8ff" points="402.78,-348.05 413.11,-345.69 403.57,-341.09 402.78,-348.05"/>
</a>
</g>
</g>
<!-- Node17&#45;&gt;Node6 -->
<g id="edge24_Node000017_Node000006" class="edge">
<title>Node17&#45;&gt;Node6</title>
<g id="a_edge24_Node000017_Node000006"><a xlink:title=" ">
<path fill="none" stroke="#63b8ff" d="M565.6,-363.43C576.9,-364.82 588.63,-366.26 600.15,-367.67"/>
<polygon fill="#63b8ff" stroke="#63b8ff" points="599.71,-371.15 610.06,-368.89 600.56,-364.2 599.71,-371.15"/>
</a>
</g>
</g>
</g>
</svg>

<g id="navigator" transform="translate(0 0)" fill="#404254">
  <rect fill="#f2f5e9" fill-opacity="0.5" stroke="#606060" stroke-width=".5" x="0" y="0" width="60" height="60"/>
  <use id="zoomplus" xlink:href="#zoomPlus" x="17" y="9" onmousedown="handleZoom(evt,'in')"/>
  <use id="zoomminus" xlink:href="#zoomMin" x="42" y="9" onmousedown="handleZoom(evt,'out')"/>
  <use id="reset" xlink:href="#resetDef" x="30" y="36" onmousedown="handleReset()"/>
   <use id="arrowup" xlink:href="#arrowUp" x="0" y="0" onmousedown="handlePan(0,-1)"/>
  <use id="arrowright" xlink:href="#arrowRight" x="0" y="0" onmousedown="handlePan(1,0)"/>
  <use id="arrowdown" xlink:href="#arrowDown" x="0" y="0" onmousedown="handlePan(0,1)"/>
  <use id="arrowleft" xlink:href="#arrowLeft" x="0" y="0" onmousedown="handlePan(-1,0)"/>
</g>
<svg viewBox="0 0 15 15" width="100%" height="30px" preserveAspectRatio="xMaxYMin meet">
 <g id="arrow_out" transform="scale(0.3 0.3)">
  <a xlink:href="namespace_big_data_stat_meth_a92087d3669b3bc07d9973a4f2f56cce0_cgraph_org.svg" target="_base">
   <rect id="button" ry="5" rx="5" y="6" x="6" height="38" width="38"
        fill="#f2f5e9" fill-opacity="0.5" stroke="#606060" stroke-width="1.0"/>
   <path id="arrow"
     d="M 11.500037,31.436501 C 11.940474,20.09759 22.043105,11.32322 32.158766,21.979434 L 37.068811,17.246167 C 37.068811,17.246167 37.088388,32 37.088388,32 L 22.160133,31.978069 C 22.160133,31.978069 26.997745,27.140456 26.997745,27.140456 C 18.528582,18.264221 13.291696,25.230495 11.500037,31.436501 z"
     style="fill:#404040;"/>
  </a>
 </g>
</svg>

<style type='text/css'>
<![CDATA[
[data-mouse-over-selected='false'] { opacity: 0.7; }
[data-mouse-over-selected='true']  { opacity: 1.0; }
]]>
</style>
<script type="application/ecmascript"><![CDATA[
document.addEventListener('DOMContentLoaded', (event) => {
  highlightEdges();
  highlightAdjacentNodes();
});
]]></script>
</svg>
