<?xml version="1.0" encoding="UTF-8" standalone="no"?>
<!DOCTYPE svg PUBLIC "-//W3C//DTD SVG 1.1//EN"
 "http://www.w3.org/Graphics/SVG/1.1/DTD/svg11.dtd">
<!-- Generated by graphviz version 14.0.0 (20250921.2048)
 -->
<!-- Title: BigDataStatMeth::RcppbdCorr_hdf5_Block_cross Pages: 1 -->
<!--zoomable 522 -->

<svg id="main" version="1.1" xmlns="http://www.w3.org/2000/svg" xmlns:xlink="http://www.w3.org/1999/xlink" xml:space="preserve" onload="init(evt)">

<style type="text/css"><![CDATA[
.node, .edge {opacity: 0.7;}
.node.selected, .edge.selected {opacity: 1;}
.edge:hover path { stroke: red; }
.edge:hover polygon { stroke: red; fill: red; }
]]></style>

<defs>
  <circle id="rim" cx="0" cy="0" r="7"/>
  <circle id="rim2" cx="0" cy="0" r="3.5"/>
  <g id="zoomPlus">
    <use xlink:href="#rim" fill="#404040"><set attributeName="fill" to="#808080" begin="zoomplus.mouseover" end="zoomplus.mouseout"/></use>
    <path d="M-4,0h8M0,-4v8" fill="none" stroke="white" stroke-width="1.5" pointer-events="none"/>
  </g>
  <g id="zoomMin">
    <use xlink:href="#rim" fill="#404040"><set attributeName="fill" to="#808080" begin="zoomminus.mouseover" end="zoomminus.mouseout"/></use>
    <path d="M-4,0h8" fill="none" stroke="white" stroke-width="1.5" pointer-events="none"/>
  </g>
  <g id="arrowUp" transform="translate(30 24)">
    <use xlink:href="#rim"/>
    <path pointer-events="none" fill="none" stroke="white" stroke-width="1.5" d="M0,-3.0v7 M-2.5,-0.5L0,-3.0L2.5,-0.5"/>
  </g>
  <g id="arrowRight" transform="rotate(90) translate(36 -43)">
    <use xlink:href="#rim"/>
    <path pointer-events="none" fill="none" stroke="white" stroke-width="1.5" d="M0,-3.0v7 M-2.5,-0.5L0,-3.0L2.5,-0.5"/>
  </g>
  <g id="arrowDown" transform="rotate(180) translate(-30 -48)">
    <use xlink:href="#rim"/>
    <path pointer-events="none" fill="none" stroke="white" stroke-width="1.5" d="M0,-3.0v7 M-2.5,-0.5L0,-3.0L2.5,-0.5"/>
  </g>
  <g id="arrowLeft" transform="rotate(270) translate(-36 17)">
    <use xlink:href="#rim"/>
    <path pointer-events="none" fill="none" stroke="white" stroke-width="1.5" d="M0,-3.0v7 M-2.5,-0.5L0,-3.0L2.5,-0.5"/>
  </g>
  <g id="resetDef">
    <use xlink:href="#rim2" fill="#404040"><set attributeName="fill" to="#808080" begin="reset.mouseover" end="reset.mouseout"/></use>
  </g>
</defs>
<script type="application/ecmascript">
var viewWidth = 737;
var viewHeight = 522;
var sectionId = 'dynsection-150';
</script>
<script type="application/ecmascript" xlink:href="../../../../assets/svg.min.js"/>
<svg id="graph" class="graph">
<g id="viewport">
<title>BigDataStatMeth::RcppbdCorr_hdf5_Block_cross</title>
<!-- Node1 -->
<g id="Node000001" class="node">
<title>Node1</title>
<g id="a_Node000001"><a xlink:title="Enhanced HDF5 cross&#45;correlation with integrated transpose support for big&#45;omics.">
<polygon fill="#999999" stroke="#666666" points="149.5,-148.02 0,-148.02 0,-117.52 149.5,-117.52 149.5,-148.02"/>
<text xml:space="preserve" text-anchor="start" x="8" y="-134.52" font-family="Helvetica,sans-Serif" font-size="10.00">BigDataStatMeth::RcppbdCorr</text>
<text xml:space="preserve" text-anchor="middle" x="74.75" y="-123.27" font-family="Helvetica,sans-Serif" font-size="10.00">_hdf5_Block_cross</text>
</a>
</g>
</g>
<!-- Node2 -->
<g id="Node000002" class="node">
<title>Node2</title>
<g id="a_Node000002"><a xlink:href="namespace_big_data_stat_meth.html#a548baec51dfdb0481a3632cc50faed4c" target="_top" xlink:title="Optimized p&#45;value computation for correlation matrices using Eigen.">
<polygon fill="white" stroke="#666666" points="514.12,-162.02 379.62,-162.02 379.62,-131.52 514.12,-131.52 514.12,-162.02"/>
<text xml:space="preserve" text-anchor="start" x="387.62" y="-148.52" font-family="Helvetica,sans-Serif" font-size="10.00">BigDataStatMeth::compute</text>
<text xml:space="preserve" text-anchor="middle" x="446.88" y="-137.27" font-family="Helvetica,sans-Serif" font-size="10.00">_pvalues_optimized</text>
</a>
</g>
</g>
<!-- Node1&#45;&gt;Node2 -->
<g id="edge1_Node000001_Node000002" class="edge">
<title>Node1&#45;&gt;Node2</title>
<g id="a_edge1_Node000001_Node000002"><a xlink:title=" ">
<path fill="none" stroke="#63b8ff" d="M136.61,-148.52C152.42,-151.93 169.5,-155.04 185.5,-156.77 246.55,-163.37 316.06,-160.16 367.89,-155.69"/>
<polygon fill="#63b8ff" stroke="#63b8ff" points="368.19,-159.17 377.83,-154.79 367.56,-152.2 368.19,-159.17"/>
</a>
</g>
</g>
<!-- Node4 -->
<g id="Node000004" class="node">
<title>Node4</title>
<g id="a_Node000004"><a xlink:href="class_big_data_stat_meth_1_1hdf5_dataset.html#a374a6cadcadfc23c1f5df858d31e20df" target="_top" xlink:title="Create a new dataset with optional compression.">
<polygon fill="white" stroke="#666666" points="335.75,-342.02 185.5,-342.02 185.5,-311.52 335.75,-311.52 335.75,-342.02"/>
<text xml:space="preserve" text-anchor="start" x="193.5" y="-328.52" font-family="Helvetica,sans-Serif" font-size="10.00">BigDataStatMeth::hdf5Dataset</text>
<text xml:space="preserve" text-anchor="middle" x="260.62" y="-317.27" font-family="Helvetica,sans-Serif" font-size="10.00">::createDataset</text>
</a>
</g>
</g>
<!-- Node1&#45;&gt;Node4 -->
<g id="edge3_Node000001_Node000004" class="edge">
<title>Node1&#45;&gt;Node4</title>
<g id="a_edge3_Node000001_Node000004"><a xlink:title=" ">
<path fill="none" stroke="#63b8ff" d="M90.49,-148.32C122.56,-182.16 198.88,-262.68 237.06,-302.97"/>
<polygon fill="#63b8ff" stroke="#63b8ff" points="234.36,-305.2 243.78,-310.05 239.44,-300.38 234.36,-305.2"/>
</a>
</g>
</g>
<!-- Node12 -->
<g id="Node000012" class="node">
<title>Node12</title>
<g id="a_Node000012"><a xlink:href="class_big_data_stat_meth_1_1hdf5_dataset.html#acf9843abcb57a0090f1635cc69d95300" target="_top" xlink:title="Write data to the dataset.">
<polygon fill="white" stroke="#666666" points="522,-220.02 371.75,-220.02 371.75,-189.52 522,-189.52 522,-220.02"/>
<text xml:space="preserve" text-anchor="start" x="379.75" y="-206.52" font-family="Helvetica,sans-Serif" font-size="10.00">BigDataStatMeth::hdf5Dataset</text>
<text xml:space="preserve" text-anchor="middle" x="446.88" y="-195.27" font-family="Helvetica,sans-Serif" font-size="10.00">::writeDataset</text>
</a>
</g>
</g>
<!-- Node1&#45;&gt;Node12 -->
<g id="edge23_Node000001_Node000012" class="edge">
<title>Node1&#45;&gt;Node12</title>
<g id="a_edge23_Node000001_Node000012"><a xlink:title=" ">
<path fill="none" stroke="#63b8ff" d="M112.19,-148.42C133.25,-156.86 160.46,-166.75 185.5,-172.77 242.83,-186.55 308.76,-194.58 359.93,-199.14"/>
<polygon fill="#63b8ff" stroke="#63b8ff" points="359.51,-202.62 369.77,-199.99 360.11,-195.65 359.51,-202.62"/>
</a>
</g>
</g>
<!-- Node15 -->
<g id="Node000015" class="node">
<title>Node15</title>
<g id="a_Node000015"><a xlink:href="class_big_data_stat_meth_1_1hdf5_dataset.html#a8cce59e2884ad1ee3b67f281566780af" target="_top" xlink:title="Inherit the compression level from an input dataset if not already set.">
<polygon fill="white" stroke="#666666" points="335.75,-148.02 185.5,-148.02 185.5,-117.52 335.75,-117.52 335.75,-148.02"/>
<text xml:space="preserve" text-anchor="start" x="193.5" y="-134.52" font-family="Helvetica,sans-Serif" font-size="10.00">BigDataStatMeth::hdf5Dataset</text>
<text xml:space="preserve" text-anchor="middle" x="260.62" y="-123.27" font-family="Helvetica,sans-Serif" font-size="10.00">::inheritCompressionLevel</text>
</a>
</g>
</g>
<!-- Node1&#45;&gt;Node15 -->
<g id="edge15_Node000001_Node000015" class="edge">
<title>Node1&#45;&gt;Node15</title>
<g id="a_edge15_Node000001_Node000015"><a xlink:title=" ">
<path fill="none" stroke="#63b8ff" d="M149.74,-132.77C157.68,-132.77 165.8,-132.77 173.86,-132.77"/>
<polygon fill="#63b8ff" stroke="#63b8ff" points="173.67,-136.27 183.67,-132.77 173.67,-129.27 173.67,-136.27"/>
</a>
</g>
</g>
<!-- Node16 -->
<g id="Node000016" class="node">
<title>Node16</title>
<g id="a_Node000016"><a xlink:href="namespace_big_data_stat_meth.html#a69e49b89327966eb689525e63dea8656" target="_top" xlink:title=" ">
<polygon fill="white" stroke="#666666" points="709.38,-58.02 577.88,-58.02 577.88,-27.52 709.38,-27.52 709.38,-58.02"/>
<text xml:space="preserve" text-anchor="start" x="585.88" y="-44.52" font-family="Helvetica,sans-Serif" font-size="10.00">BigDataStatMeth::pearson</text>
<text xml:space="preserve" text-anchor="middle" x="643.62" y="-33.27" font-family="Helvetica,sans-Serif" font-size="10.00">_correlation</text>
</a>
</g>
</g>
<!-- Node1&#45;&gt;Node16 -->
<g id="edge16_Node000001_Node000016" class="edge">
<title>Node1&#45;&gt;Node16</title>
<g id="a_edge16_Node000001_Node000016"><a xlink:title=" ">
<path fill="none" stroke="#63b8ff" d="M87.21,-117.37C105.24,-94.5 142.62,-52.26 185.5,-33.77 313.72,21.53 481.57,-3.42 574.05,-24.44"/>
<polygon fill="#63b8ff" stroke="#63b8ff" points="573.21,-27.84 583.74,-26.7 574.8,-21.02 573.21,-27.84"/>
</a>
</g>
</g>
<!-- Node17 -->
<g id="Node000017" class="node">
<title>Node17</title>
<g id="a_Node000017"><a xlink:href="namespace_big_data_stat_meth.html#a2b1f04e3acc28ab46d0bc32c12d9f642" target="_top" xlink:title=" ">
<polygon fill="white" stroke="#666666" points="335.38,-99.02 185.88,-99.02 185.88,-68.52 335.38,-68.52 335.38,-99.02"/>
<text xml:space="preserve" text-anchor="start" x="193.88" y="-85.52" font-family="Helvetica,sans-Serif" font-size="10.00">BigDataStatMeth::RcppbdCorr</text>
<text xml:space="preserve" text-anchor="middle" x="260.62" y="-74.27" font-family="Helvetica,sans-Serif" font-size="10.00">_matrix_cross</text>
</a>
</g>
</g>
<!-- Node1&#45;&gt;Node17 -->
<g id="edge17_Node000001_Node000017" class="edge">
<title>Node1&#45;&gt;Node17</title>
<g id="a_edge17_Node000001_Node000017"><a xlink:title=" ">
<path fill="none" stroke="#63b8ff" d="M134.69,-117.06C152.17,-112.4 171.49,-107.26 189.61,-102.43"/>
<polygon fill="#63b8ff" stroke="#63b8ff" points="190.48,-105.82 199.24,-99.86 188.68,-99.05 190.48,-105.82"/>
</a>
</g>
</g>
<!-- Node18 -->
<g id="Node000018" class="node">
<title>Node18</title>
<g id="a_Node000018"><a xlink:href="namespace_big_data_stat_meth.html#a73e0308254294ed4603750e0595b9802" target="_top" xlink:title=" ">
<polygon fill="white" stroke="#666666" points="516.75,-58.02 377,-58.02 377,-27.52 516.75,-27.52 516.75,-58.02"/>
<text xml:space="preserve" text-anchor="start" x="385" y="-44.52" font-family="Helvetica,sans-Serif" font-size="10.00">BigDataStatMeth::spearman</text>
<text xml:space="preserve" text-anchor="middle" x="446.88" y="-33.27" font-family="Helvetica,sans-Serif" font-size="10.00">_correlation</text>
</a>
</g>
</g>
<!-- Node1&#45;&gt;Node18 -->
<g id="edge22_Node000001_Node000018" class="edge">
<title>Node1&#45;&gt;Node18</title>
<g id="a_edge22_Node000001_Node000018"><a xlink:title=" ">
<path fill="none" stroke="#63b8ff" d="M92.83,-117.19C113.2,-99.67 149.08,-72.08 185.5,-59.77 243.47,-40.17 312.76,-36.52 365.29,-37.45"/>
<polygon fill="#63b8ff" stroke="#63b8ff" points="364.97,-40.94 375.05,-37.68 365.14,-33.94 364.97,-40.94"/>
</a>
</g>
</g>
<!-- Node3 -->
<g id="Node000003" class="node">
<title>Node3</title>
<g id="a_Node000003"><a xlink:href="namespace_big_data_stat_meth.html#a58690697a1eec1b3feefdc089d056905" target="_top" xlink:title="Compute p&#45;value for correlation coefficient using t&#45;distribution.">
<polygon fill="white" stroke="#666666" points="693.62,-162.02 593.62,-162.02 593.62,-131.52 693.62,-131.52 693.62,-162.02"/>
<text xml:space="preserve" text-anchor="start" x="601.62" y="-148.52" font-family="Helvetica,sans-Serif" font-size="10.00">BigDataStatMeth::t</text>
<text xml:space="preserve" text-anchor="middle" x="643.62" y="-137.27" font-family="Helvetica,sans-Serif" font-size="10.00">_distribution_cdf</text>
</a>
</g>
</g>
<!-- Node2&#45;&gt;Node3 -->
<g id="edge2_Node000002_Node000003" class="edge">
<title>Node2&#45;&gt;Node3</title>
<g id="a_edge2_Node000002_Node000003"><a xlink:title=" ">
<path fill="none" stroke="#63b8ff" d="M514.62,-146.77C536.46,-146.77 560.59,-146.77 581.96,-146.77"/>
<polygon fill="#63b8ff" stroke="#63b8ff" points="581.67,-150.27 591.67,-146.77 581.67,-143.27 581.67,-150.27"/>
</a>
</g>
</g>
<!-- Node5 -->
<g id="Node000005" class="node">
<title>Node5</title>
<g id="a_Node000005"><a xlink:href="class_big_data_stat_meth_1_1hdf5_dataset.html#ac7a7f23b7e22c9b56ca6ad86592f2d52" target="_top" xlink:title="Add an attribute to the dataset.">
<polygon fill="white" stroke="#666666" points="522,-269.02 371.75,-269.02 371.75,-238.52 522,-238.52 522,-269.02"/>
<text xml:space="preserve" text-anchor="start" x="379.75" y="-255.52" font-family="Helvetica,sans-Serif" font-size="10.00">BigDataStatMeth::hdf5Dataset</text>
<text xml:space="preserve" text-anchor="middle" x="446.88" y="-244.27" font-family="Helvetica,sans-Serif" font-size="10.00">::addAttribute</text>
</a>
</g>
</g>
<!-- Node4&#45;&gt;Node5 -->
<g id="edge4_Node000004_Node000005" class="edge">
<title>Node4&#45;&gt;Node5</title>
<g id="a_edge4_Node000004_Node000005"><a xlink:title=" ">
<path fill="none" stroke="#63b8ff" d="M295.54,-311.09C317.16,-301.32 345.87,-288.75 371.75,-278.77 376.64,-276.88 381.74,-275 386.88,-273.16"/>
<polygon fill="#63b8ff" stroke="#63b8ff" points="387.71,-276.57 395.99,-269.95 385.39,-269.97 387.71,-276.57"/>
</a>
</g>
</g>
<!-- Node6 -->
<g id="Node000006" class="node">
<title>Node6</title>
<g id="a_Node000006"><a xlink:href="class_big_data_stat_meth_1_1hdf5_file.html#abfb73b5f1eb25ee00489485c8dc56a2a" target="_top" xlink:title="Close file and cleanup resources.">
<polygon fill="white" stroke="#666666" points="512.62,-514.02 381.12,-514.02 381.12,-483.52 512.62,-483.52 512.62,-514.02"/>
<text xml:space="preserve" text-anchor="start" x="389.12" y="-500.52" font-family="Helvetica,sans-Serif" font-size="10.00">BigDataStatMeth::hdf5File</text>
<text xml:space="preserve" text-anchor="middle" x="446.88" y="-489.27" font-family="Helvetica,sans-Serif" font-size="10.00">::close_file</text>
</a>
</g>
</g>
<!-- Node4&#45;&gt;Node6 -->
<g id="edge5_Node000004_Node000006" class="edge">
<title>Node4&#45;&gt;Node6</title>
<g id="a_edge5_Node000004_Node000006"><a xlink:title=" ">
<path fill="none" stroke="#63b8ff" d="M269.06,-342.08C284.23,-371.78 321.64,-437.5 371.75,-473.77 373.68,-475.17 375.7,-476.5 377.78,-477.75"/>
<polygon fill="#63b8ff" stroke="#63b8ff" points="376.09,-480.82 386.57,-482.41 379.37,-474.63 376.09,-480.82"/>
</a>
</g>
</g>
<!-- Node7 -->
<g id="Node000007" class="node">
<title>Node7</title>
<g id="a_Node000007"><a xlink:href="class_big_data_stat_meth_1_1hdf5_group.html#a27cef4d33e46c72bfd792aa49fa621a3" target="_top" xlink:title="Create multiple nested groups.">
<polygon fill="white" stroke="#666666" points="517.88,-416.02 375.88,-416.02 375.88,-385.52 517.88,-385.52 517.88,-416.02"/>
<text xml:space="preserve" text-anchor="start" x="383.88" y="-402.52" font-family="Helvetica,sans-Serif" font-size="10.00">BigDataStatMeth::hdf5Group</text>
<text xml:space="preserve" text-anchor="middle" x="446.88" y="-391.27" font-family="Helvetica,sans-Serif" font-size="10.00">::create_HDF5_groups</text>
</a>
</g>
</g>
<!-- Node4&#45;&gt;Node7 -->
<g id="edge6_Node000004_Node000007" class="edge">
<title>Node4&#45;&gt;Node7</title>
<g id="a_edge6_Node000004_Node000007"><a xlink:title=" ">
<path fill="none" stroke="#63b8ff" d="M294.54,-342.38C316.25,-352.44 345.43,-365.5 371.75,-375.77 376.63,-377.67 381.73,-379.57 386.86,-381.42"/>
<polygon fill="#63b8ff" stroke="#63b8ff" points="385.37,-384.61 395.97,-384.64 387.7,-378.01 385.37,-384.61"/>
</a>
</g>
</g>
<!-- Node9 -->
<g id="Node000009" class="node">
<title>Node9</title>
<g id="a_Node000009"><a xlink:href="namespace_big_data_stat_meth.html#a89d901ab4b5e01771f4e3fc7dc84e50e" target="_top" xlink:title="Checks if an HDF5 element (group or dataset) exists.">
<polygon fill="white" stroke="#666666" points="508.5,-465.02 385.25,-465.02 385.25,-434.52 508.5,-434.52 508.5,-465.02"/>
<text xml:space="preserve" text-anchor="start" x="393.25" y="-451.52" font-family="Helvetica,sans-Serif" font-size="10.00">BigDataStatMeth::exists</text>
<text xml:space="preserve" text-anchor="middle" x="446.88" y="-440.27" font-family="Helvetica,sans-Serif" font-size="10.00">_HDF5_element</text>
</a>
</g>
</g>
<!-- Node4&#45;&gt;Node9 -->
<g id="edge8_Node000004_Node000009" class="edge">
<title>Node4&#45;&gt;Node9</title>
<g id="a_edge8_Node000004_Node000009"><a xlink:title=" ">
<path fill="none" stroke="#63b8ff" d="M275.42,-342.51C294.93,-363.88 332.58,-402.02 371.75,-424.77 374.56,-426.4 377.49,-427.95 380.49,-429.4"/>
<polygon fill="#63b8ff" stroke="#63b8ff" points="378.98,-432.56 389.54,-433.43 381.83,-426.17 378.98,-432.56"/>
</a>
</g>
</g>
<!-- Node10 -->
<g id="Node000010" class="node">
<title>Node10</title>
<g id="a_Node000010"><a xlink:href="class_big_data_stat_meth_1_1hdf5_group.html#a59995412538627e6c80f64b552c286f5" target="_top" xlink:title=" ">
<polygon fill="white" stroke="#666666" points="517.88,-367.02 375.88,-367.02 375.88,-336.52 517.88,-336.52 517.88,-367.02"/>
<text xml:space="preserve" text-anchor="start" x="383.88" y="-353.52" font-family="Helvetica,sans-Serif" font-size="10.00">BigDataStatMeth::hdf5Group</text>
<text xml:space="preserve" text-anchor="middle" x="446.88" y="-342.27" font-family="Helvetica,sans-Serif" font-size="10.00">::getGroupName</text>
</a>
</g>
</g>
<!-- Node4&#45;&gt;Node10 -->
<g id="edge10_Node000004_Node000010" class="edge">
<title>Node4&#45;&gt;Node10</title>
<g id="a_edge10_Node000004_Node000010"><a xlink:title=" ">
<path fill="none" stroke="#63b8ff" d="M336.04,-336.87C345.34,-338.13 354.89,-339.42 364.29,-340.7"/>
<polygon fill="#63b8ff" stroke="#63b8ff" points="363.78,-344.16 374.16,-342.04 364.72,-337.23 363.78,-344.16"/>
</a>
</g>
</g>
<!-- Node11 -->
<g id="Node000011" class="node">
<title>Node11</title>
<g id="a_Node000011"><a xlink:href="namespace_big_data_stat_meth.html#a3d06783149029f1df2853c472d401380" target="_top" xlink:title="Removes multiple elements from an HDF5 file.">
<polygon fill="white" stroke="#666666" points="511.5,-318.02 382.25,-318.02 382.25,-287.52 511.5,-287.52 511.5,-318.02"/>
<text xml:space="preserve" text-anchor="start" x="390.25" y="-304.52" font-family="Helvetica,sans-Serif" font-size="10.00">BigDataStatMeth::remove</text>
<text xml:space="preserve" text-anchor="middle" x="446.88" y="-293.27" font-family="Helvetica,sans-Serif" font-size="10.00">_elements</text>
</a>
</g>
</g>
<!-- Node4&#45;&gt;Node11 -->
<g id="edge11_Node000004_Node000011" class="edge">
<title>Node4&#45;&gt;Node11</title>
<g id="a_edge11_Node000004_Node000011"><a xlink:title=" ">
<path fill="none" stroke="#63b8ff" d="M336.04,-317.08C347.42,-315.59 359.18,-314.06 370.59,-312.58"/>
<polygon fill="#63b8ff" stroke="#63b8ff" points="370.88,-316.07 380.34,-311.31 369.98,-309.13 370.88,-316.07"/>
</a>
</g>
</g>
<!-- Node4&#45;&gt;Node12 -->
<g id="edge12_Node000004_Node000012" class="edge">
<title>Node4&#45;&gt;Node12</title>
<g id="a_edge12_Node000004_Node000012"><a xlink:title=" ">
<path fill="none" stroke="#63b8ff" d="M275.46,-311.2C295,-290.06 332.7,-252.32 371.75,-229.77 374.71,-228.06 377.81,-226.44 380.99,-224.92"/>
<polygon fill="#63b8ff" stroke="#63b8ff" points="382.2,-228.21 389.95,-220.98 379.39,-221.8 382.2,-228.21"/>
</a>
</g>
</g>
<!-- Node8 -->
<g id="Node000008" class="node">
<title>Node8</title>
<g id="a_Node000008"><a xlink:href="namespace_big_data_stat_meth.html#abcaa4216cd52f03ebac42e4855ef846b" target="_top" xlink:title="Checks if a path exists in an HDF5 file.">
<polygon fill="white" stroke="#666666" points="715.38,-434.39 571.88,-434.39 571.88,-415.14 715.38,-415.14 715.38,-434.39"/>
<text xml:space="preserve" text-anchor="middle" x="643.62" y="-420.89" font-family="Helvetica,sans-Serif" font-size="10.00">BigDataStatMeth::pathExists</text>
</a>
</g>
</g>
<!-- Node7&#45;&gt;Node8 -->
<g id="edge7_Node000007_Node000008" class="edge">
<title>Node7&#45;&gt;Node8</title>
<g id="a_edge7_Node000007_Node000008"><a xlink:title=" ">
<path fill="none" stroke="#63b8ff" d="M518.18,-409.43C531.85,-411.12 546.3,-412.9 560.31,-414.63"/>
<polygon fill="#63b8ff" stroke="#63b8ff" points="559.58,-418.06 569.94,-415.81 560.44,-411.12 559.58,-418.06"/>
</a>
</g>
</g>
<!-- Node9&#45;&gt;Node8 -->
<g id="edge9_Node000009_Node000008" class="edge">
<title>Node9&#45;&gt;Node8</title>
<g id="a_edge9_Node000009_Node000008"><a xlink:title=" ">
<path fill="none" stroke="#63b8ff" d="M508.96,-441.93C525.25,-439.84 543.12,-437.54 560.34,-435.33"/>
<polygon fill="#63b8ff" stroke="#63b8ff" points="560.57,-438.83 570.04,-434.09 559.68,-431.89 560.57,-438.83"/>
</a>
</g>
</g>
<!-- Node13 -->
<g id="Node000013" class="node">
<title>Node13</title>
<g id="a_Node000013"><a xlink:href="class_big_data_stat_meth_1_1hdf5_dataset.html#aba39e56a580d3b1fa7f1619fc72efa3e" target="_top" xlink:title="Close dataset and file.">
<polygon fill="white" stroke="#666666" points="718.75,-216.02 568.5,-216.02 568.5,-185.52 718.75,-185.52 718.75,-216.02"/>
<text xml:space="preserve" text-anchor="start" x="576.5" y="-202.52" font-family="Helvetica,sans-Serif" font-size="10.00">BigDataStatMeth::hdf5Dataset</text>
<text xml:space="preserve" text-anchor="middle" x="643.62" y="-191.27" font-family="Helvetica,sans-Serif" font-size="10.00">::close_dataset_file</text>
</a>
</g>
</g>
<!-- Node12&#45;&gt;Node13 -->
<g id="edge13_Node000012_Node000013" class="edge">
<title>Node12&#45;&gt;Node13</title>
<g id="a_edge13_Node000012_Node000013"><a xlink:title=" ">
<path fill="none" stroke="#63b8ff" d="M522.34,-203.24C533.61,-203.01 545.32,-202.77 556.81,-202.53"/>
<polygon fill="#63b8ff" stroke="#63b8ff" points="556.77,-206.03 566.69,-202.33 556.62,-199.04 556.77,-206.03"/>
</a>
</g>
</g>
<!-- Node14 -->
<g id="Node000014" class="node">
<title>Node14</title>
<g id="a_Node000014"><a xlink:href="class_big_data_stat_meth_1_1hdf5_dataset.html#a94d81b72e92cb0230b4e64f37ea7d2e3" target="_top" xlink:title="Convert DataFrame to range list.">
<polygon fill="white" stroke="#666666" points="729.25,-265.02 558,-265.02 558,-234.52 729.25,-234.52 729.25,-265.02"/>
<text xml:space="preserve" text-anchor="start" x="566" y="-251.52" font-family="Helvetica,sans-Serif" font-size="10.00">BigDataStatMeth::hdf5Dataset</text>
<text xml:space="preserve" text-anchor="middle" x="643.62" y="-240.27" font-family="Helvetica,sans-Serif" font-size="10.00">::convert_DataFrame_to_RangeList</text>
</a>
</g>
</g>
<!-- Node12&#45;&gt;Node14 -->
<g id="edge14_Node000012_Node000014" class="edge">
<title>Node12&#45;&gt;Node14</title>
<g id="a_edge14_Node000012_Node000014"><a xlink:title=" ">
<path fill="none" stroke="#63b8ff" d="M515.99,-220.51C531.41,-224.07 547.9,-227.88 563.73,-231.54"/>
<polygon fill="#63b8ff" stroke="#63b8ff" points="562.54,-234.86 573.07,-233.7 564.12,-228.04 562.54,-234.86"/>
</a>
</g>
</g>
<!-- Node17&#45;&gt;Node2 -->
<g id="edge18_Node000017_Node000002" class="edge">
<title>Node17&#45;&gt;Node2</title>
<g id="a_edge18_Node000017_Node000002"><a xlink:title=" ">
<path fill="none" stroke="#63b8ff" d="M308.3,-99.46C317.41,-102.53 326.88,-105.74 335.75,-108.77 353.42,-114.8 372.68,-121.42 390.07,-127.43"/>
<polygon fill="#63b8ff" stroke="#63b8ff" points="388.6,-130.62 399.19,-130.58 390.89,-124.01 388.6,-130.62"/>
</a>
</g>
</g>
<!-- Node17&#45;&gt;Node16 -->
<g id="edge19_Node000017_Node000016" class="edge">
<title>Node17&#45;&gt;Node16</title>
<g id="a_edge19_Node000017_Node000016"><a xlink:title=" ">
<path fill="none" stroke="#63b8ff" d="M335.67,-81.52C387.92,-79.3 459.46,-75 522,-66.77 536.42,-64.87 551.71,-62.29 566.39,-59.51"/>
<polygon fill="#63b8ff" stroke="#63b8ff" points="566.83,-62.99 575.98,-57.65 565.49,-56.12 566.83,-62.99"/>
</a>
</g>
</g>
<!-- Node17&#45;&gt;Node18 -->
<g id="edge20_Node000017_Node000018" class="edge">
<title>Node17&#45;&gt;Node18</title>
<g id="a_edge20_Node000017_Node000018"><a xlink:title=" ">
<path fill="none" stroke="#63b8ff" d="M332.33,-68.04C343.22,-65.61 354.52,-63.1 365.6,-60.63"/>
<polygon fill="#63b8ff" stroke="#63b8ff" points="366.09,-64.11 375.09,-58.52 364.57,-57.28 366.09,-64.11"/>
</a>
</g>
</g>
<!-- Node18&#45;&gt;Node16 -->
<g id="edge21_Node000018_Node000016" class="edge">
<title>Node18&#45;&gt;Node16</title>
<g id="a_edge21_Node000018_Node000016"><a xlink:title=" ">
<path fill="none" stroke="#63b8ff" d="M517.08,-42.77C533.07,-42.77 550.17,-42.77 566.44,-42.77"/>
<polygon fill="#63b8ff" stroke="#63b8ff" points="566.03,-46.27 576.03,-42.77 566.03,-39.27 566.03,-46.27"/>
</a>
</g>
</g>
</g>
</svg>

<g id="navigator" transform="translate(0 0)" fill="#404254">
  <rect fill="#f2f5e9" fill-opacity="0.5" stroke="#606060" stroke-width=".5" x="0" y="0" width="60" height="60"/>
  <use id="zoomplus" xlink:href="#zoomPlus" x="17" y="9" onmousedown="handleZoom(evt,'in')"/>
  <use id="zoomminus" xlink:href="#zoomMin" x="42" y="9" onmousedown="handleZoom(evt,'out')"/>
  <use id="reset" xlink:href="#resetDef" x="30" y="36" onmousedown="handleReset()"/>
   <use id="arrowup" xlink:href="#arrowUp" x="0" y="0" onmousedown="handlePan(0,-1)"/>
  <use id="arrowright" xlink:href="#arrowRight" x="0" y="0" onmousedown="handlePan(1,0)"/>
  <use id="arrowdown" xlink:href="#arrowDown" x="0" y="0" onmousedown="handlePan(0,1)"/>
  <use id="arrowleft" xlink:href="#arrowLeft" x="0" y="0" onmousedown="handlePan(-1,0)"/>
</g>
<svg viewBox="0 0 15 15" width="100%" height="30px" preserveAspectRatio="xMaxYMin meet">
 <g id="arrow_out" transform="scale(0.3 0.3)">
  <a xlink:href="namespace_big_data_stat_meth_a33749b2e89b9f4dd6a9ccd33740b7998_cgraph_org.svg" target="_base">
   <rect id="button" ry="5" rx="5" y="6" x="6" height="38" width="38"
        fill="#f2f5e9" fill-opacity="0.5" stroke="#606060" stroke-width="1.0"/>
   <path id="arrow"
     d="M 11.500037,31.436501 C 11.940474,20.09759 22.043105,11.32322 32.158766,21.979434 L 37.068811,17.246167 C 37.068811,17.246167 37.088388,32 37.088388,32 L 22.160133,31.978069 C 22.160133,31.978069 26.997745,27.140456 26.997745,27.140456 C 18.528582,18.264221 13.291696,25.230495 11.500037,31.436501 z"
     style="fill:#404040;"/>
  </a>
 </g>
</svg>

<style type='text/css'>
<![CDATA[
[data-mouse-over-selected='false'] { opacity: 0.7; }
[data-mouse-over-selected='true']  { opacity: 1.0; }
]]>
</style>
<script type="application/ecmascript"><![CDATA[
document.addEventListener('DOMContentLoaded', (event) => {
  highlightEdges();
  highlightAdjacentNodes();
});
]]></script>
</svg>
