<?xml version="1.0" encoding="UTF-8" standalone="no"?>
<!DOCTYPE svg PUBLIC "-//W3C//DTD SVG 1.1//EN"
 "http://www.w3.org/Graphics/SVG/1.1/DTD/svg11.dtd">
<!-- Generated by graphviz version 14.0.0 (20250921.2048)
 -->
<!-- Title: BigDataStatMeth::Inverse_Matrix_Cholesky_outofcore_hdf5 Pages: 1 -->
<!--zoomable 682 -->

<svg id="main" version="1.1" xmlns="http://www.w3.org/2000/svg" xmlns:xlink="http://www.w3.org/1999/xlink" xml:space="preserve" onload="init(evt)">

<style type="text/css"><![CDATA[
.node, .edge {opacity: 0.7;}
.node.selected, .edge.selected {opacity: 1;}
.edge:hover path { stroke: red; }
.edge:hover polygon { stroke: red; fill: red; }
]]></style>

<defs>
  <circle id="rim" cx="0" cy="0" r="7"/>
  <circle id="rim2" cx="0" cy="0" r="3.5"/>
  <g id="zoomPlus">
    <use xlink:href="#rim" fill="#404040"><set attributeName="fill" to="#808080" begin="zoomplus.mouseover" end="zoomplus.mouseout"/></use>
    <path d="M-4,0h8M0,-4v8" fill="none" stroke="white" stroke-width="1.5" pointer-events="none"/>
  </g>
  <g id="zoomMin">
    <use xlink:href="#rim" fill="#404040"><set attributeName="fill" to="#808080" begin="zoomminus.mouseover" end="zoomminus.mouseout"/></use>
    <path d="M-4,0h8" fill="none" stroke="white" stroke-width="1.5" pointer-events="none"/>
  </g>
  <g id="arrowUp" transform="translate(30 24)">
    <use xlink:href="#rim"/>
    <path pointer-events="none" fill="none" stroke="white" stroke-width="1.5" d="M0,-3.0v7 M-2.5,-0.5L0,-3.0L2.5,-0.5"/>
  </g>
  <g id="arrowRight" transform="rotate(90) translate(36 -43)">
    <use xlink:href="#rim"/>
    <path pointer-events="none" fill="none" stroke="white" stroke-width="1.5" d="M0,-3.0v7 M-2.5,-0.5L0,-3.0L2.5,-0.5"/>
  </g>
  <g id="arrowDown" transform="rotate(180) translate(-30 -48)">
    <use xlink:href="#rim"/>
    <path pointer-events="none" fill="none" stroke="white" stroke-width="1.5" d="M0,-3.0v7 M-2.5,-0.5L0,-3.0L2.5,-0.5"/>
  </g>
  <g id="arrowLeft" transform="rotate(270) translate(-36 17)">
    <use xlink:href="#rim"/>
    <path pointer-events="none" fill="none" stroke="white" stroke-width="1.5" d="M0,-3.0v7 M-2.5,-0.5L0,-3.0L2.5,-0.5"/>
  </g>
  <g id="resetDef">
    <use xlink:href="#rim2" fill="#404040"><set attributeName="fill" to="#808080" begin="reset.mouseover" end="reset.mouseout"/></use>
  </g>
</defs>
<script type="application/ecmascript">
var viewWidth = 752;
var viewHeight = 682;
var sectionId = 'dynsection-63';
</script>
<script type="application/ecmascript" xlink:href="../../../../assets/svg.min.js"/>
<svg id="graph" class="graph">
<g id="viewport">
<title>BigDataStatMeth::Inverse_Matrix_Cholesky_outofcore_hdf5</title>
<!-- Node1 -->
<g id="Node000001" class="node">
<title>Node1</title>
<g id="a_Node000001"><a xlink:title="Out&#45;of&#45;core computation of A^&#45;1 = L^&#45;T L^&#45;1 using tiles.">
<polygon fill="#999999" stroke="#666666" points="164.5,-379.5 0,-379.5 0,-349 164.5,-349 164.5,-379.5"/>
<text xml:space="preserve" text-anchor="start" x="8" y="-366" font-family="Helvetica,sans-Serif" font-size="10.00">BigDataStatMeth::Inverse</text>
<text xml:space="preserve" text-anchor="middle" x="82.25" y="-354.75" font-family="Helvetica,sans-Serif" font-size="10.00">_Matrix_Cholesky_outofcore_hdf5</text>
</a>
</g>
</g>
<!-- Node2 -->
<g id="Node000002" class="node">
<title>Node2</title>
<g id="a_Node000002"><a xlink:href="class_big_data_stat_meth_1_1hdf5_dataset_internal.html#a910815c29fe20912239251623c5e3251" target="_top" xlink:title="Create a new internal dataset with optional compression.">
<polygon fill="white" stroke="#666666" points="350.75,-575.5 200.5,-575.5 200.5,-545 350.75,-545 350.75,-575.5"/>
<text xml:space="preserve" text-anchor="start" x="208.5" y="-562" font-family="Helvetica,sans-Serif" font-size="10.00">BigDataStatMeth::hdf5Dataset</text>
<text xml:space="preserve" text-anchor="middle" x="275.62" y="-550.75" font-family="Helvetica,sans-Serif" font-size="10.00">Internal::createDataset</text>
</a>
</g>
</g>
<!-- Node1&#45;&gt;Node2 -->
<g id="edge1_Node000001_Node000002" class="edge">
<title>Node1&#45;&gt;Node2</title>
<g id="a_edge1_Node000001_Node000002"><a xlink:title=" ">
<path fill="none" stroke="#63b8ff" d="M89.82,-379.98C104.6,-413.48 143.65,-492.26 200.5,-535.25 202.29,-536.6 204.15,-537.88 206.08,-539.1"/>
<polygon fill="#63b8ff" stroke="#63b8ff" points="204.35,-542.14 214.8,-543.9 207.72,-536.01 204.35,-542.14"/>
</a>
</g>
</g>
<!-- Node12 -->
<g id="Node000012" class="node">
<title>Node12</title>
<g id="a_Node000012"><a xlink:href="class_big_data_stat_meth_1_1hdf5_dataset.html#ac979eba40078c7c5974b64b2ce6347a3" target="_top" xlink:title="Get dataset name.">
<polygon fill="white" stroke="#666666" points="350.75,-526.5 200.5,-526.5 200.5,-496 350.75,-496 350.75,-526.5"/>
<text xml:space="preserve" text-anchor="start" x="208.5" y="-513" font-family="Helvetica,sans-Serif" font-size="10.00">BigDataStatMeth::hdf5Dataset</text>
<text xml:space="preserve" text-anchor="middle" x="275.62" y="-501.75" font-family="Helvetica,sans-Serif" font-size="10.00">::getDatasetName</text>
</a>
</g>
</g>
<!-- Node1&#45;&gt;Node12 -->
<g id="edge12_Node000001_Node000012" class="edge">
<title>Node1&#45;&gt;Node12</title>
<g id="a_edge12_Node000001_Node000012"><a xlink:title=" ">
<path fill="none" stroke="#63b8ff" d="M94.1,-379.65C112.93,-405.29 154.11,-456.82 200.5,-486.25 203.05,-487.87 205.71,-489.39 208.45,-490.82"/>
<polygon fill="#63b8ff" stroke="#63b8ff" points="206.73,-493.88 217.26,-494.99 209.72,-487.55 206.73,-493.88"/>
</a>
</g>
</g>
<!-- Node13 -->
<g id="Node000013" class="node">
<title>Node13</title>
<g id="a_Node000013"><a xlink:href="class_big_data_stat_meth_1_1hdf5_dataset.html#ae7e94f6d05d1a6cff2d24ec3f1b18fca" target="_top" xlink:title="Get file name.">
<polygon fill="white" stroke="#666666" points="350.75,-330.5 200.5,-330.5 200.5,-300 350.75,-300 350.75,-330.5"/>
<text xml:space="preserve" text-anchor="start" x="208.5" y="-317" font-family="Helvetica,sans-Serif" font-size="10.00">BigDataStatMeth::hdf5Dataset</text>
<text xml:space="preserve" text-anchor="middle" x="275.62" y="-305.75" font-family="Helvetica,sans-Serif" font-size="10.00">::getFileName</text>
</a>
</g>
</g>
<!-- Node1&#45;&gt;Node13 -->
<g id="edge13_Node000001_Node000013" class="edge">
<title>Node1&#45;&gt;Node13</title>
<g id="a_edge13_Node000001_Node000013"><a xlink:title=" ">
<path fill="none" stroke="#63b8ff" d="M144.59,-348.54C162.96,-343.84 183.28,-338.64 202.29,-333.77"/>
<polygon fill="#63b8ff" stroke="#63b8ff" points="203.02,-337.2 211.84,-331.33 201.28,-330.42 203.02,-337.2"/>
</a>
</g>
</g>
<!-- Node15 -->
<g id="Node000015" class="node">
<title>Node15</title>
<g id="a_Node000015"><a xlink:href="class_big_data_stat_meth_1_1hdf5_dataset.html#af4869e54b1d4c01ab4caacf1939e1907" target="_top" xlink:title="Get group name.">
<polygon fill="white" stroke="#666666" points="350.75,-428.5 200.5,-428.5 200.5,-398 350.75,-398 350.75,-428.5"/>
<text xml:space="preserve" text-anchor="start" x="208.5" y="-415" font-family="Helvetica,sans-Serif" font-size="10.00">BigDataStatMeth::hdf5Dataset</text>
<text xml:space="preserve" text-anchor="middle" x="275.62" y="-403.75" font-family="Helvetica,sans-Serif" font-size="10.00">::getGroup</text>
</a>
</g>
</g>
<!-- Node1&#45;&gt;Node15 -->
<g id="edge15_Node000001_Node000015" class="edge">
<title>Node1&#45;&gt;Node15</title>
<g id="a_edge15_Node000001_Node000015"><a xlink:title=" ">
<path fill="none" stroke="#63b8ff" d="M144.59,-379.96C162.96,-384.66 183.28,-389.86 202.29,-394.73"/>
<polygon fill="#63b8ff" stroke="#63b8ff" points="201.28,-398.08 211.84,-397.17 203.02,-391.3 201.28,-398.08"/>
</a>
</g>
</g>
<!-- Node16 -->
<g id="Node000016" class="node">
<title>Node16</title>
<g id="a_Node000016"><a xlink:href="class_big_data_stat_meth_1_1hdf5_dataset.html#a23bea87165b8ef6b944709c5b2cbd0cf" target="_top" xlink:title=" ">
<polygon fill="white" stroke="#666666" points="350.75,-281.5 200.5,-281.5 200.5,-251 350.75,-251 350.75,-281.5"/>
<text xml:space="preserve" text-anchor="start" x="208.5" y="-268" font-family="Helvetica,sans-Serif" font-size="10.00">BigDataStatMeth::hdf5Dataset</text>
<text xml:space="preserve" text-anchor="middle" x="275.62" y="-256.75" font-family="Helvetica,sans-Serif" font-size="10.00">::readDatasetBlock</text>
</a>
</g>
</g>
<!-- Node1&#45;&gt;Node16 -->
<g id="edge17_Node000001_Node000016" class="edge">
<title>Node1&#45;&gt;Node16</title>
<g id="a_edge17_Node000001_Node000016"><a xlink:title=" ">
<path fill="none" stroke="#63b8ff" d="M104.86,-348.66C127.75,-332.66 165.37,-307.83 200.5,-291.25 204.28,-289.46 208.23,-287.74 212.25,-286.1"/>
<polygon fill="#63b8ff" stroke="#63b8ff" points="213.5,-289.37 221.56,-282.49 210.97,-282.84 213.5,-289.37"/>
</a>
</g>
</g>
<!-- Node18 -->
<g id="Node000018" class="node">
<title>Node18</title>
<g id="a_Node000018"><a xlink:href="class_big_data_stat_meth_1_1hdf5_dataset_internal.html#ad96e4a35e00a9f908436172d63a125d8" target="_top" xlink:title="Read a block of data from internal dataset.">
<polygon fill="white" stroke="#666666" points="350.75,-379.5 200.5,-379.5 200.5,-349 350.75,-349 350.75,-379.5"/>
<text xml:space="preserve" text-anchor="start" x="208.5" y="-366" font-family="Helvetica,sans-Serif" font-size="10.00">BigDataStatMeth::hdf5Dataset</text>
<text xml:space="preserve" text-anchor="middle" x="275.62" y="-354.75" font-family="Helvetica,sans-Serif" font-size="10.00">Internal::readDatasetBlock</text>
</a>
</g>
</g>
<!-- Node1&#45;&gt;Node18 -->
<g id="edge19_Node000001_Node000018" class="edge">
<title>Node1&#45;&gt;Node18</title>
<g id="a_edge19_Node000001_Node000018"><a xlink:title=" ">
<path fill="none" stroke="#63b8ff" d="M164.97,-364.25C172.81,-364.25 180.79,-364.25 188.68,-364.25"/>
<polygon fill="#63b8ff" stroke="#63b8ff" points="188.64,-367.75 198.64,-364.25 188.64,-360.75 188.64,-367.75"/>
</a>
</g>
</g>
<!-- Node19 -->
<g id="Node000019" class="node">
<title>Node19</title>
<g id="a_Node000019"><a xlink:href="class_big_data_stat_meth_1_1hdf5_dataset.html#a248d5e9f269b92ef906ab3f78b3e42d8" target="_top" xlink:title="Remove the dataset.">
<polygon fill="white" stroke="#666666" points="350.75,-477.5 200.5,-477.5 200.5,-447 350.75,-447 350.75,-477.5"/>
<text xml:space="preserve" text-anchor="start" x="208.5" y="-464" font-family="Helvetica,sans-Serif" font-size="10.00">BigDataStatMeth::hdf5Dataset</text>
<text xml:space="preserve" text-anchor="middle" x="275.62" y="-452.75" font-family="Helvetica,sans-Serif" font-size="10.00">::remove</text>
</a>
</g>
</g>
<!-- Node1&#45;&gt;Node19 -->
<g id="edge21_Node000001_Node000019" class="edge">
<title>Node1&#45;&gt;Node19</title>
<g id="a_edge21_Node000001_Node000019"><a xlink:title=" ">
<path fill="none" stroke="#63b8ff" d="M104.86,-379.84C127.75,-395.84 165.37,-420.67 200.5,-437.25 204.28,-439.04 208.23,-440.76 212.25,-442.4"/>
<polygon fill="#63b8ff" stroke="#63b8ff" points="210.97,-445.66 221.56,-446.01 213.5,-439.13 210.97,-445.66"/>
</a>
</g>
</g>
<!-- Node20 -->
<g id="Node000020" class="node">
<title>Node20</title>
<g id="a_Node000020"><a xlink:href="class_big_data_stat_meth_1_1hdf5_dataset.html#af606176d84a63561b65702b6fde3a583" target="_top" xlink:title="Write block of data with optional transposition.">
<polygon fill="white" stroke="#666666" points="350.75,-232.5 200.5,-232.5 200.5,-202 350.75,-202 350.75,-232.5"/>
<text xml:space="preserve" text-anchor="start" x="208.5" y="-219" font-family="Helvetica,sans-Serif" font-size="10.00">BigDataStatMeth::hdf5Dataset</text>
<text xml:space="preserve" text-anchor="middle" x="275.62" y="-207.75" font-family="Helvetica,sans-Serif" font-size="10.00">::writeDatasetBlock</text>
</a>
</g>
</g>
<!-- Node1&#45;&gt;Node20 -->
<g id="edge24_Node000001_Node000020" class="edge">
<title>Node1&#45;&gt;Node20</title>
<g id="a_edge24_Node000001_Node000020"><a xlink:title=" ">
<path fill="none" stroke="#63b8ff" d="M94.1,-348.85C112.93,-323.21 154.11,-271.68 200.5,-242.25 203.05,-240.63 205.71,-239.11 208.45,-237.68"/>
<polygon fill="#63b8ff" stroke="#63b8ff" points="209.72,-240.95 217.26,-233.51 206.73,-234.62 209.72,-240.95"/>
</a>
</g>
</g>
<!-- Node24 -->
<g id="Node000024" class="node">
<title>Node24</title>
<g id="a_Node000024"><a xlink:href="class_big_data_stat_meth_1_1hdf5_dataset_internal.html#a4f988a5f93c2870e87c14d84f00e441c" target="_top" xlink:title="Write block of data to internal dataset.">
<polygon fill="white" stroke="#666666" points="350.75,-111.5 200.5,-111.5 200.5,-81 350.75,-81 350.75,-111.5"/>
<text xml:space="preserve" text-anchor="start" x="208.5" y="-98" font-family="Helvetica,sans-Serif" font-size="10.00">BigDataStatMeth::hdf5Dataset</text>
<text xml:space="preserve" text-anchor="middle" x="275.62" y="-86.75" font-family="Helvetica,sans-Serif" font-size="10.00">Internal::writeDatasetBlock</text>
</a>
</g>
</g>
<!-- Node1&#45;&gt;Node24 -->
<g id="edge29_Node000001_Node000024" class="edge">
<title>Node1&#45;&gt;Node24</title>
<g id="a_edge29_Node000001_Node000024"><a xlink:title=" ">
<path fill="none" stroke="#63b8ff" d="M93.65,-348.5C113.8,-318.14 159.75,-249.52 200.5,-193.25 218.66,-168.17 240.23,-140.13 255.41,-120.67"/>
<polygon fill="#63b8ff" stroke="#63b8ff" points="257.97,-123.08 261.37,-113.05 252.45,-118.77 257.97,-123.08"/>
</a>
</g>
</g>
<!-- Node3 -->
<g id="Node000003" class="node">
<title>Node3</title>
<g id="a_Node000003"><a xlink:href="class_big_data_stat_meth_1_1hdf5_dataset.html#ac7a7f23b7e22c9b56ca6ad86592f2d52" target="_top" xlink:title="Add an attribute to the dataset.">
<polygon fill="white" stroke="#666666" points="547.5,-673.5 397.25,-673.5 397.25,-643 547.5,-643 547.5,-673.5"/>
<text xml:space="preserve" text-anchor="start" x="405.25" y="-660" font-family="Helvetica,sans-Serif" font-size="10.00">BigDataStatMeth::hdf5Dataset</text>
<text xml:space="preserve" text-anchor="middle" x="472.38" y="-648.75" font-family="Helvetica,sans-Serif" font-size="10.00">::addAttribute</text>
</a>
</g>
</g>
<!-- Node2&#45;&gt;Node3 -->
<g id="edge2_Node000002_Node000003" class="edge">
<title>Node2&#45;&gt;Node3</title>
<g id="a_edge2_Node000002_Node000003"><a xlink:title=" ">
<path fill="none" stroke="#63b8ff" d="M296.25,-575.9C317.48,-592.17 352.86,-617.45 386.75,-633.25 390.97,-635.22 395.38,-637.07 399.87,-638.8"/>
<polygon fill="#63b8ff" stroke="#63b8ff" points="398.44,-642.01 409.04,-642.13 400.83,-635.43 398.44,-642.01"/>
</a>
</g>
</g>
<!-- Node4 -->
<g id="Node000004" class="node">
<title>Node4</title>
<g id="a_Node000004"><a xlink:href="class_big_data_stat_meth_1_1hdf5_group.html#a27cef4d33e46c72bfd792aa49fa621a3" target="_top" xlink:title="Create multiple nested groups.">
<polygon fill="white" stroke="#666666" points="543.38,-575.5 401.38,-575.5 401.38,-545 543.38,-545 543.38,-575.5"/>
<text xml:space="preserve" text-anchor="start" x="409.38" y="-562" font-family="Helvetica,sans-Serif" font-size="10.00">BigDataStatMeth::hdf5Group</text>
<text xml:space="preserve" text-anchor="middle" x="472.38" y="-550.75" font-family="Helvetica,sans-Serif" font-size="10.00">::create_HDF5_groups</text>
</a>
</g>
</g>
<!-- Node2&#45;&gt;Node4 -->
<g id="edge3_Node000002_Node000004" class="edge">
<title>Node2&#45;&gt;Node4</title>
<g id="a_edge3_Node000002_Node000004"><a xlink:title=" ">
<path fill="none" stroke="#63b8ff" d="M351.09,-560.25C363.79,-560.25 377.05,-560.25 389.93,-560.25"/>
<polygon fill="#63b8ff" stroke="#63b8ff" points="389.61,-563.75 399.61,-560.25 389.61,-556.75 389.61,-563.75"/>
</a>
</g>
</g>
<!-- Node6 -->
<g id="Node000006" class="node">
<title>Node6</title>
<g id="a_Node000006"><a xlink:href="namespace_big_data_stat_meth.html#a89d901ab4b5e01771f4e3fc7dc84e50e" target="_top" xlink:title="Checks if an HDF5 element (group or dataset) exists.">
<polygon fill="white" stroke="#666666" points="534,-624.5 410.75,-624.5 410.75,-594 534,-594 534,-624.5"/>
<text xml:space="preserve" text-anchor="start" x="418.75" y="-611" font-family="Helvetica,sans-Serif" font-size="10.00">BigDataStatMeth::exists</text>
<text xml:space="preserve" text-anchor="middle" x="472.38" y="-599.75" font-family="Helvetica,sans-Serif" font-size="10.00">_HDF5_element</text>
</a>
</g>
</g>
<!-- Node2&#45;&gt;Node6 -->
<g id="edge5_Node000002_Node000006" class="edge">
<title>Node2&#45;&gt;Node6</title>
<g id="a_edge5_Node000002_Node000006"><a xlink:title=" ">
<path fill="none" stroke="#63b8ff" d="M339.05,-575.96C358.2,-580.78 379.44,-586.12 399.19,-591.09"/>
<polygon fill="#63b8ff" stroke="#63b8ff" points="398.28,-594.47 408.83,-593.51 399.99,-587.68 398.28,-594.47"/>
</a>
</g>
</g>
<!-- Node7 -->
<g id="Node000007" class="node">
<title>Node7</title>
<g id="a_Node000007"><a xlink:href="class_big_data_stat_meth_1_1hdf5_group.html#a59995412538627e6c80f64b552c286f5" target="_top" xlink:title=" ">
<polygon fill="white" stroke="#666666" points="543.38,-428.5 401.38,-428.5 401.38,-398 543.38,-398 543.38,-428.5"/>
<text xml:space="preserve" text-anchor="start" x="409.38" y="-415" font-family="Helvetica,sans-Serif" font-size="10.00">BigDataStatMeth::hdf5Group</text>
<text xml:space="preserve" text-anchor="middle" x="472.38" y="-403.75" font-family="Helvetica,sans-Serif" font-size="10.00">::getGroupName</text>
</a>
</g>
</g>
<!-- Node2&#45;&gt;Node7 -->
<g id="edge7_Node000002_Node000007" class="edge">
<title>Node2&#45;&gt;Node7</title>
<g id="a_edge7_Node000002_Node000007"><a xlink:title=" ">
<path fill="none" stroke="#63b8ff" d="M338.28,-544.56C342.81,-541.92 347.05,-538.84 350.75,-535.25 383.75,-503.23 353.15,-469.64 386.75,-438.25 388.35,-436.76 390.03,-435.36 391.78,-434.04"/>
<polygon fill="#63b8ff" stroke="#63b8ff" points="393.23,-437.27 399.77,-428.93 389.46,-431.37 393.23,-437.27"/>
</a>
</g>
</g>
<!-- Node8 -->
<g id="Node000008" class="node">
<title>Node8</title>
<g id="a_Node000008"><a xlink:href="namespace_big_data_stat_meth.html#a3d06783149029f1df2853c472d401380" target="_top" xlink:title="Removes multiple elements from an HDF5 file.">
<polygon fill="white" stroke="#666666" points="537,-477.5 407.75,-477.5 407.75,-447 537,-447 537,-477.5"/>
<text xml:space="preserve" text-anchor="start" x="415.75" y="-464" font-family="Helvetica,sans-Serif" font-size="10.00">BigDataStatMeth::remove</text>
<text xml:space="preserve" text-anchor="middle" x="472.38" y="-452.75" font-family="Helvetica,sans-Serif" font-size="10.00">_elements</text>
</a>
</g>
</g>
<!-- Node2&#45;&gt;Node8 -->
<g id="edge8_Node000002_Node000008" class="edge">
<title>Node2&#45;&gt;Node8</title>
<g id="a_edge8_Node000002_Node000008"><a xlink:title=" ">
<path fill="none" stroke="#63b8ff" d="M334.59,-544.6C340.3,-541.93 345.8,-538.83 350.75,-535.25 372.36,-519.62 364.85,-502.47 386.75,-487.25 389.99,-485 393.44,-482.94 397.02,-481.07"/>
<polygon fill="#63b8ff" stroke="#63b8ff" points="398.42,-484.28 406.02,-476.91 395.47,-477.93 398.42,-484.28"/>
</a>
</g>
</g>
<!-- Node9 -->
<g id="Node000009" class="node">
<title>Node9</title>
<g id="a_Node000009"><a xlink:href="class_big_data_stat_meth_1_1hdf5_dataset_internal.html#a349b08ecc0bed2df5283e56fb9e9d178" target="_top" xlink:title="Write data to the internal dataset.">
<polygon fill="white" stroke="#666666" points="547.5,-526.5 397.25,-526.5 397.25,-496 547.5,-496 547.5,-526.5"/>
<text xml:space="preserve" text-anchor="start" x="405.25" y="-513" font-family="Helvetica,sans-Serif" font-size="10.00">BigDataStatMeth::hdf5Dataset</text>
<text xml:space="preserve" text-anchor="middle" x="472.38" y="-501.75" font-family="Helvetica,sans-Serif" font-size="10.00">Internal::writeDataset</text>
</a>
</g>
</g>
<!-- Node2&#45;&gt;Node9 -->
<g id="edge9_Node000002_Node000009" class="edge">
<title>Node2&#45;&gt;Node9</title>
<g id="a_edge9_Node000002_Node000009"><a xlink:title=" ">
<path fill="none" stroke="#63b8ff" d="M339.05,-544.54C357.83,-539.82 378.61,-534.59 398.03,-529.7"/>
<polygon fill="#63b8ff" stroke="#63b8ff" points="398.66,-533.15 407.5,-527.32 396.95,-526.37 398.66,-533.15"/>
</a>
</g>
</g>
<!-- Node5 -->
<g id="Node000005" class="node">
<title>Node5</title>
<g id="a_Node000005"><a xlink:href="namespace_big_data_stat_meth.html#abcaa4216cd52f03ebac42e4855ef846b" target="_top" xlink:title="Checks if a path exists in an HDF5 file.">
<polygon fill="white" stroke="#666666" points="740.88,-593.88 597.38,-593.88 597.38,-574.62 740.88,-574.62 740.88,-593.88"/>
<text xml:space="preserve" text-anchor="middle" x="669.12" y="-580.38" font-family="Helvetica,sans-Serif" font-size="10.00">BigDataStatMeth::pathExists</text>
</a>
</g>
</g>
<!-- Node4&#45;&gt;Node5 -->
<g id="edge4_Node000004_Node000005" class="edge">
<title>Node4&#45;&gt;Node5</title>
<g id="a_edge4_Node000004_Node000005"><a xlink:title=" ">
<path fill="none" stroke="#63b8ff" d="M543.68,-568.91C557.35,-570.6 571.8,-572.38 585.81,-574.11"/>
<polygon fill="#63b8ff" stroke="#63b8ff" points="585.08,-577.54 595.44,-575.29 585.94,-570.6 585.08,-577.54"/>
</a>
</g>
</g>
<!-- Node6&#45;&gt;Node5 -->
<g id="edge6_Node000006_Node000005" class="edge">
<title>Node6&#45;&gt;Node5</title>
<g id="a_edge6_Node000006_Node000005"><a xlink:title=" ">
<path fill="none" stroke="#63b8ff" d="M534.46,-601.41C550.75,-599.32 568.62,-597.02 585.84,-594.81"/>
<polygon fill="#63b8ff" stroke="#63b8ff" points="586.07,-598.31 595.54,-593.57 585.18,-591.37 586.07,-598.31"/>
</a>
</g>
</g>
<!-- Node10 -->
<g id="Node000010" class="node">
<title>Node10</title>
<g id="a_Node000010"><a xlink:href="class_big_data_stat_meth_1_1hdf5_dataset_internal.html#a91d48a0c7186c87eb0af78f426ce6a4d" target="_top" xlink:title="Close dataset and file.">
<polygon fill="white" stroke="#666666" points="744.25,-382.5 594,-382.5 594,-352 744.25,-352 744.25,-382.5"/>
<text xml:space="preserve" text-anchor="start" x="602" y="-369" font-family="Helvetica,sans-Serif" font-size="10.00">BigDataStatMeth::hdf5Dataset</text>
<text xml:space="preserve" text-anchor="middle" x="669.12" y="-357.75" font-family="Helvetica,sans-Serif" font-size="10.00">Internal::close_dataset_file</text>
</a>
</g>
</g>
<!-- Node9&#45;&gt;Node10 -->
<g id="edge10_Node000009_Node000010" class="edge">
<title>Node9&#45;&gt;Node10</title>
<g id="a_edge10_Node000009_Node000010"><a xlink:title=" ">
<path fill="none" stroke="#63b8ff" d="M539.58,-495.53C546.02,-492.88 552.27,-489.81 558,-486.25 597.61,-461.65 632.07,-419.06 651.46,-392.06"/>
<polygon fill="#63b8ff" stroke="#63b8ff" points="654.15,-394.32 657.03,-384.12 648.42,-390.29 654.15,-394.32"/>
</a>
</g>
</g>
<!-- Node11 -->
<g id="Node000011" class="node">
<title>Node11</title>
<g id="a_Node000011"><a xlink:href="class_big_data_stat_meth_1_1hdf5_dataset_internal.html#a152c59a2a409e1883e3834a26170ed59" target="_top" xlink:title="Convert DataFrame to range list.">
<polygon fill="white" stroke="#666666" points="744.25,-207.12 594,-207.12 594,-165.38 744.25,-165.38 744.25,-207.12"/>
<text xml:space="preserve" text-anchor="start" x="602" y="-193.62" font-family="Helvetica,sans-Serif" font-size="10.00">BigDataStatMeth::hdf5Dataset</text>
<text xml:space="preserve" text-anchor="start" x="602" y="-182.38" font-family="Helvetica,sans-Serif" font-size="10.00">Internal::convert_DataFrame</text>
<text xml:space="preserve" text-anchor="middle" x="669.12" y="-171.12" font-family="Helvetica,sans-Serif" font-size="10.00">_to_RangeList</text>
</a>
</g>
</g>
<!-- Node9&#45;&gt;Node11 -->
<g id="edge11_Node000009_Node000011" class="edge">
<title>Node9&#45;&gt;Node11</title>
<g id="a_edge11_Node000009_Node000011"><a xlink:title=" ">
<path fill="none" stroke="#63b8ff" d="M546.17,-495.69C550.49,-493.02 554.5,-489.9 558,-486.25 603.39,-438.98 571.91,-404.95 594,-343.25 610.16,-298.12 634.85,-248.48 651.23,-217.34"/>
<polygon fill="#63b8ff" stroke="#63b8ff" points="654.13,-219.34 655.73,-208.86 647.95,-216.05 654.13,-219.34"/>
</a>
</g>
</g>
<!-- Node14 -->
<g id="Node000014" class="node">
<title>Node14</title>
<g id="a_Node000014"><a xlink:href="class_big_data_stat_meth_1_1hdf5_file.html#abb50d96e6674ac770e4f27f650ad34cb" target="_top" xlink:title="Get filename.">
<polygon fill="white" stroke="#666666" points="538.12,-339.5 406.62,-339.5 406.62,-309 538.12,-309 538.12,-339.5"/>
<text xml:space="preserve" text-anchor="start" x="414.62" y="-326" font-family="Helvetica,sans-Serif" font-size="10.00">BigDataStatMeth::hdf5File</text>
<text xml:space="preserve" text-anchor="middle" x="472.38" y="-314.75" font-family="Helvetica,sans-Serif" font-size="10.00">::getFilename</text>
</a>
</g>
</g>
<!-- Node13&#45;&gt;Node14 -->
<g id="edge14_Node000013_Node000014" class="edge">
<title>Node13&#45;&gt;Node14</title>
<g id="a_edge14_Node000013_Node000014"><a xlink:title=" ">
<path fill="none" stroke="#63b8ff" d="M351.09,-318.69C365.4,-319.35 380.42,-320.05 394.81,-320.71"/>
<polygon fill="#63b8ff" stroke="#63b8ff" points="394.52,-324.2 404.67,-321.17 394.84,-317.21 394.52,-324.2"/>
</a>
</g>
</g>
<!-- Node15&#45;&gt;Node7 -->
<g id="edge16_Node000015_Node000007" class="edge">
<title>Node15&#45;&gt;Node7</title>
<g id="a_edge16_Node000015_Node000007"><a xlink:title=" ">
<path fill="none" stroke="#63b8ff" d="M351.09,-413.25C363.79,-413.25 377.05,-413.25 389.93,-413.25"/>
<polygon fill="#63b8ff" stroke="#63b8ff" points="389.61,-416.75 399.61,-413.25 389.61,-409.75 389.61,-416.75"/>
</a>
</g>
</g>
<!-- Node17 -->
<g id="Node000017" class="node">
<title>Node17</title>
<g id="a_Node000017"><a xlink:href="class_big_data_stat_meth_1_1hdf5_dataset.html#aba39e56a580d3b1fa7f1619fc72efa3e" target="_top" xlink:title="Close dataset and file.">
<polygon fill="white" stroke="#666666" points="547.5,-290.5 397.25,-290.5 397.25,-260 547.5,-260 547.5,-290.5"/>
<text xml:space="preserve" text-anchor="start" x="405.25" y="-277" font-family="Helvetica,sans-Serif" font-size="10.00">BigDataStatMeth::hdf5Dataset</text>
<text xml:space="preserve" text-anchor="middle" x="472.38" y="-265.75" font-family="Helvetica,sans-Serif" font-size="10.00">::close_dataset_file</text>
</a>
</g>
</g>
<!-- Node16&#45;&gt;Node17 -->
<g id="edge18_Node000016_Node000017" class="edge">
<title>Node16&#45;&gt;Node17</title>
<g id="a_edge18_Node000016_Node000017"><a xlink:title=" ">
<path fill="none" stroke="#63b8ff" d="M351.09,-269.69C362.36,-270.21 374.07,-270.75 385.56,-271.28"/>
<polygon fill="#63b8ff" stroke="#63b8ff" points="385.29,-274.78 395.44,-271.74 385.62,-267.78 385.29,-274.78"/>
</a>
</g>
</g>
<!-- Node18&#45;&gt;Node10 -->
<g id="edge20_Node000018_Node000010" class="edge">
<title>Node18&#45;&gt;Node10</title>
<g id="a_edge20_Node000018_Node000010"><a xlink:title=" ">
<path fill="none" stroke="#63b8ff" d="M351.18,-364.82C417.07,-365.33 513.15,-366.06 582.23,-366.59"/>
<polygon fill="#63b8ff" stroke="#63b8ff" points="581.97,-370.09 592,-366.67 582.02,-363.09 581.97,-370.09"/>
</a>
</g>
</g>
<!-- Node19&#45;&gt;Node7 -->
<g id="edge22_Node000019_Node000007" class="edge">
<title>Node19&#45;&gt;Node7</title>
<g id="a_edge22_Node000019_Node000007"><a xlink:title=" ">
<path fill="none" stroke="#63b8ff" d="M339.05,-446.54C357.83,-441.82 378.61,-436.59 398.03,-431.7"/>
<polygon fill="#63b8ff" stroke="#63b8ff" points="398.66,-435.15 407.5,-429.32 396.95,-428.37 398.66,-435.15"/>
</a>
</g>
</g>
<!-- Node19&#45;&gt;Node8 -->
<g id="edge23_Node000019_Node000008" class="edge">
<title>Node19&#45;&gt;Node8</title>
<g id="a_edge23_Node000019_Node000008"><a xlink:title=" ">
<path fill="none" stroke="#63b8ff" d="M351.09,-462.25C365.89,-462.25 381.44,-462.25 396.27,-462.25"/>
<polygon fill="#63b8ff" stroke="#63b8ff" points="395.92,-465.75 405.92,-462.25 395.92,-458.75 395.92,-465.75"/>
</a>
</g>
</g>
<!-- Node20&#45;&gt;Node17 -->
<g id="edge26_Node000020_Node000017" class="edge">
<title>Node20&#45;&gt;Node17</title>
<g id="a_edge26_Node000020_Node000017"><a xlink:title=" ">
<path fill="none" stroke="#63b8ff" d="M328.99,-232.99C347.26,-238.47 367.91,-244.64 386.75,-250.25 393.4,-252.23 400.34,-254.29 407.27,-256.34"/>
<polygon fill="#63b8ff" stroke="#63b8ff" points="406.06,-259.63 416.65,-259.12 408.05,-252.92 406.06,-259.63"/>
</a>
</g>
</g>
<!-- Node21 -->
<g id="Node000021" class="node">
<title>Node21</title>
<g id="a_Node000021"><a xlink:href="class_big_data_stat_meth_1_1hdf5_dataset.html#a64177ae924792ea9e557febaa95ed400" target="_top" xlink:title="Close the dataset.">
<polygon fill="white" stroke="#666666" points="547.5,-192.5 397.25,-192.5 397.25,-162 547.5,-162 547.5,-192.5"/>
<text xml:space="preserve" text-anchor="start" x="405.25" y="-179" font-family="Helvetica,sans-Serif" font-size="10.00">BigDataStatMeth::hdf5Dataset</text>
<text xml:space="preserve" text-anchor="middle" x="472.38" y="-167.75" font-family="Helvetica,sans-Serif" font-size="10.00">::close_dataset</text>
</a>
</g>
</g>
<!-- Node20&#45;&gt;Node21 -->
<g id="edge25_Node000020_Node000021" class="edge">
<title>Node20&#45;&gt;Node21</title>
<g id="a_edge25_Node000020_Node000021"><a xlink:title=" ">
<path fill="none" stroke="#63b8ff" d="M351.09,-201.96C362.48,-199.62 374.31,-197.19 385.92,-194.8"/>
<polygon fill="#63b8ff" stroke="#63b8ff" points="386.38,-198.28 395.47,-192.84 384.97,-191.42 386.38,-198.28"/>
</a>
</g>
</g>
<!-- Node22 -->
<g id="Node000022" class="node">
<title>Node22</title>
<g id="a_Node000022"><a xlink:href="class_big_data_stat_meth_1_1hdf5_dataset.html#a94d81b72e92cb0230b4e64f37ea7d2e3" target="_top" xlink:title="Convert DataFrame to range list.">
<polygon fill="white" stroke="#666666" points="558,-241.5 386.75,-241.5 386.75,-211 558,-211 558,-241.5"/>
<text xml:space="preserve" text-anchor="start" x="394.75" y="-228" font-family="Helvetica,sans-Serif" font-size="10.00">BigDataStatMeth::hdf5Dataset</text>
<text xml:space="preserve" text-anchor="middle" x="472.38" y="-216.75" font-family="Helvetica,sans-Serif" font-size="10.00">::convert_DataFrame_to_RangeList</text>
</a>
</g>
</g>
<!-- Node20&#45;&gt;Node22 -->
<g id="edge27_Node000020_Node000022" class="edge">
<title>Node20&#45;&gt;Node22</title>
<g id="a_edge27_Node000020_Node000022"><a xlink:title=" ">
<path fill="none" stroke="#63b8ff" d="M351.09,-220.69C358.97,-221.06 367.06,-221.43 375.15,-221.8"/>
<polygon fill="#63b8ff" stroke="#63b8ff" points="374.88,-225.29 385.03,-222.26 375.21,-218.3 374.88,-225.29"/>
</a>
</g>
</g>
<!-- Node23 -->
<g id="Node000023" class="node">
<title>Node23</title>
<g id="a_Node000023"><a xlink:href="namespace_big_data_stat_meth.html#a2692707b3ea4aaafa09d07afaf632437" target="_top" xlink:title="Transposes a 2D matrix.">
<polygon fill="white" stroke="#666666" points="542.25,-143.88 402.5,-143.88 402.5,-124.62 542.25,-124.62 542.25,-143.88"/>
<text xml:space="preserve" text-anchor="middle" x="472.38" y="-130.38" font-family="Helvetica,sans-Serif" font-size="10.00">BigDataStatMeth::transpose</text>
</a>
</g>
</g>
<!-- Node20&#45;&gt;Node23 -->
<g id="edge28_Node000020_Node000023" class="edge">
<title>Node20&#45;&gt;Node23</title>
<g id="a_edge28_Node000020_Node000023"><a xlink:title=" ">
<path fill="none" stroke="#63b8ff" d="M298.79,-201.62C320.33,-187.12 354.43,-165.92 386.75,-153.25 392.36,-151.05 398.28,-149.08 404.28,-147.31"/>
<polygon fill="#63b8ff" stroke="#63b8ff" points="404.93,-150.76 413.65,-144.74 403.08,-144.01 404.93,-150.76"/>
</a>
</g>
</g>
<!-- Node24&#45;&gt;Node10 -->
<g id="edge31_Node000024_Node000010" class="edge">
<title>Node24&#45;&gt;Node10</title>
<g id="a_edge31_Node000024_Node000010"><a xlink:title=" ">
<path fill="none" stroke="#63b8ff" d="M351.13,-92.33C423.39,-90.08 526.57,-91.46 558,-115.25 596,-144.01 575.47,-172.34 594,-216.25 613.01,-261.3 638.86,-312.02 654.48,-341.71"/>
<polygon fill="#63b8ff" stroke="#63b8ff" points="651.26,-343.11 659.02,-350.32 657.44,-339.84 651.26,-343.11"/>
</a>
</g>
</g>
<!-- Node24&#45;&gt;Node11 -->
<g id="edge32_Node000024_Node000011" class="edge">
<title>Node24&#45;&gt;Node11</title>
<g id="a_edge32_Node000024_Node000011"><a xlink:title=" ">
<path fill="none" stroke="#63b8ff" d="M331.18,-80.52C389.53,-66.61 483.69,-52.71 558,-82.25 595.05,-96.98 626.85,-130.75 646.61,-155.83"/>
<polygon fill="#63b8ff" stroke="#63b8ff" points="643.82,-157.94 652.67,-163.76 649.38,-153.69 643.82,-157.94"/>
</a>
</g>
</g>
<!-- Node24&#45;&gt;Node23 -->
<g id="edge33_Node000024_Node000023" class="edge">
<title>Node24&#45;&gt;Node23</title>
<g id="a_edge33_Node000024_Node000023"><a xlink:title=" ">
<path fill="none" stroke="#63b8ff" d="M351.09,-110.78C370.03,-114.47 390.19,-118.41 408.49,-121.98"/>
<polygon fill="#63b8ff" stroke="#63b8ff" points="407.65,-125.38 418.13,-123.86 408.99,-118.51 407.65,-125.38"/>
</a>
</g>
</g>
<!-- Node25 -->
<g id="Node000025" class="node">
<title>Node25</title>
<g id="a_Node000025"><a xlink:href="class_big_data_stat_meth_1_1hdf5_dataset_internal.html#a0453f8502bee6dd35be2ec196e9edc55" target="_top" xlink:title="Close the dataset.">
<polygon fill="white" stroke="#666666" points="547.5,-30.5 397.25,-30.5 397.25,0 547.5,0 547.5,-30.5"/>
<text xml:space="preserve" text-anchor="start" x="405.25" y="-17" font-family="Helvetica,sans-Serif" font-size="10.00">BigDataStatMeth::hdf5Dataset</text>
<text xml:space="preserve" text-anchor="middle" x="472.38" y="-5.75" font-family="Helvetica,sans-Serif" font-size="10.00">Internal::close_dataset</text>
</a>
</g>
</g>
<!-- Node24&#45;&gt;Node25 -->
<g id="edge30_Node000024_Node000025" class="edge">
<title>Node24&#45;&gt;Node25</title>
<g id="a_edge30_Node000024_Node000025"><a xlink:title=" ">
<path fill="none" stroke="#63b8ff" d="M307.54,-80.52C329.39,-69.69 359.52,-55.31 386.75,-44.25 394.84,-40.96 403.47,-37.72 412,-34.66"/>
<polygon fill="#63b8ff" stroke="#63b8ff" points="413,-38.02 421.27,-31.4 410.68,-31.42 413,-38.02"/>
</a>
</g>
</g>
</g>
</svg>

<g id="navigator" transform="translate(0 0)" fill="#404254">
  <rect fill="#f2f5e9" fill-opacity="0.5" stroke="#606060" stroke-width=".5" x="0" y="0" width="60" height="60"/>
  <use id="zoomplus" xlink:href="#zoomPlus" x="17" y="9" onmousedown="handleZoom(evt,'in')"/>
  <use id="zoomminus" xlink:href="#zoomMin" x="42" y="9" onmousedown="handleZoom(evt,'out')"/>
  <use id="reset" xlink:href="#resetDef" x="30" y="36" onmousedown="handleReset()"/>
   <use id="arrowup" xlink:href="#arrowUp" x="0" y="0" onmousedown="handlePan(0,-1)"/>
  <use id="arrowright" xlink:href="#arrowRight" x="0" y="0" onmousedown="handlePan(1,0)"/>
  <use id="arrowdown" xlink:href="#arrowDown" x="0" y="0" onmousedown="handlePan(0,1)"/>
  <use id="arrowleft" xlink:href="#arrowLeft" x="0" y="0" onmousedown="handlePan(-1,0)"/>
</g>
<svg viewBox="0 0 15 15" width="100%" height="30px" preserveAspectRatio="xMaxYMin meet">
 <g id="arrow_out" transform="scale(0.3 0.3)">
  <a xlink:href="namespace_big_data_stat_meth_a6cf11002c5ce11473daebd0aefb52444_cgraph_org.svg" target="_base">
   <rect id="button" ry="5" rx="5" y="6" x="6" height="38" width="38"
        fill="#f2f5e9" fill-opacity="0.5" stroke="#606060" stroke-width="1.0"/>
   <path id="arrow"
     d="M 11.500037,31.436501 C 11.940474,20.09759 22.043105,11.32322 32.158766,21.979434 L 37.068811,17.246167 C 37.068811,17.246167 37.088388,32 37.088388,32 L 22.160133,31.978069 C 22.160133,31.978069 26.997745,27.140456 26.997745,27.140456 C 18.528582,18.264221 13.291696,25.230495 11.500037,31.436501 z"
     style="fill:#404040;"/>
  </a>
 </g>
</svg>

<style type='text/css'>
<![CDATA[
[data-mouse-over-selected='false'] { opacity: 0.7; }
[data-mouse-over-selected='true']  { opacity: 1.0; }
]]>
</style>
<script type="application/ecmascript"><![CDATA[
document.addEventListener('DOMContentLoaded', (event) => {
  highlightEdges();
  highlightAdjacentNodes();
});
]]></script>
</svg>
