<?xml version="1.0" encoding="UTF-8" standalone="no"?>
<!DOCTYPE svg PUBLIC "-//W3C//DTD SVG 1.1//EN"
 "http://www.w3.org/Graphics/SVG/1.1/DTD/svg11.dtd">
<!-- Generated by graphviz version 14.0.0 (20250921.2048)
 -->
<!-- Title: BigDataStatMeth::get_threads Pages: 1 -->
<svg width="434pt" height="101pt"
 viewBox="0.00 0.00 434.00 101.00" xmlns="http://www.w3.org/2000/svg" xmlns:xlink="http://www.w3.org/1999/xlink">

<svg id="main" version="1.1" xmlns="http://www.w3.org/2000/svg" xmlns:xlink="http://www.w3.org/1999/xlink" xml:space="preserve">

<style type="text/css"><![CDATA[
.node, .edge {opacity: 0.7;}
.node.selected, .edge.selected {opacity: 1;}
.edge:hover path { stroke: red; }
.edge:hover polygon { stroke: red; fill: red; }
]]></style>
<script type="application/ecmascript" xlink:href="../../../../assets/svg.min.js"/>
<svg id="graph" class="graph">
<g id="graph0" class="graph" transform="scale(1 1) rotate(0) translate(4 97.25)">
<title>BigDataStatMeth::get_threads</title>
<!-- Node1 -->
<g id="Node000001" class="node">
<title>Node1</title>
<g id="a_Node000001"><a xlink:title="Determines number of threads for parallel operations.">
<polygon fill="#999999" stroke="#666666" points="110.5,-61.88 0,-61.88 0,-31.38 110.5,-31.38 110.5,-61.88"/>
<text xml:space="preserve" text-anchor="start" x="8" y="-48.38" font-family="Helvetica,sans-Serif" font-size="10.00">BigDataStatMeth::get</text>
<text xml:space="preserve" text-anchor="middle" x="55.25" y="-37.12" font-family="Helvetica,sans-Serif" font-size="10.00">_threads</text>
</a>
</g>
</g>
<!-- Node2 -->
<g id="Node000002" class="node">
<title>Node2</title>
<g id="a_Node000002"><a xlink:href="openme-utils_8hpp.html#a7d6263da9da6b46b945746e3abdea4ca" target="_top" xlink:title="Determines number of threads for parallel operations.">
<polygon fill="white" stroke="#666666" points="221.75,-56.25 146.5,-56.25 146.5,-37 221.75,-37 221.75,-56.25"/>
<text xml:space="preserve" text-anchor="middle" x="184.12" y="-42.75" font-family="Helvetica,sans-Serif" font-size="10.00">getDTthreads</text>
</a>
</g>
</g>
<!-- Node1&#45;&gt;Node2 -->
<g id="edge1_Node000001_Node000002" class="edge">
<title>Node1&#45;&gt;Node2</title>
<g id="a_edge1_Node000001_Node000002"><a xlink:title=" ">
<path fill="none" stroke="#63b8ff" d="M110.79,-46.62C118.83,-46.62 127.05,-46.62 134.94,-46.62"/>
<polygon fill="#63b8ff" stroke="#63b8ff" points="134.69,-50.13 144.69,-46.63 134.69,-43.13 134.69,-50.13"/>
</a>
</g>
</g>
<!-- Node3 -->
<g id="Node000003" class="node">
<title>Node3</title>
<g id="a_Node000003"><a xlink:href="openme-utils_8hpp.html#a32e65a19d36ceec1952e48362e4153b8" target="_top" xlink:title="Initializes thread configuration based on environment and system state.">
<polygon fill="white" stroke="#666666" points="332.25,-56.25 257.75,-56.25 257.75,-37 332.25,-37 332.25,-56.25"/>
<text xml:space="preserve" text-anchor="middle" x="295" y="-42.75" font-family="Helvetica,sans-Serif" font-size="10.00">initDTthreads</text>
</a>
</g>
</g>
<!-- Node2&#45;&gt;Node3 -->
<g id="edge2_Node000002_Node000003" class="edge">
<title>Node2&#45;&gt;Node3</title>
<g id="a_edge2_Node000002_Node000003"><a xlink:title=" ">
<path fill="none" stroke="#63b8ff" d="M221.99,-46.62C229.78,-46.62 238.12,-46.62 246.26,-46.62"/>
<polygon fill="#63b8ff" stroke="#63b8ff" points="246.03,-50.13 256.03,-46.63 246.03,-43.13 246.03,-50.13"/>
</a>
</g>
</g>
<!-- Node4 -->
<g id="Node000004" class="node">
<title>Node4</title>
<g id="a_Node000004"><a xlink:href="openme-utils_8hpp.html#a62643b5f3a2b3d36929fed3c368c2cfc" target="_top" xlink:title="Retrieves integer value from environment variable.">
<polygon fill="white" stroke="#666666" points="426.25,-93.25 368.25,-93.25 368.25,-74 426.25,-74 426.25,-93.25"/>
<text xml:space="preserve" text-anchor="middle" x="397.25" y="-79.75" font-family="Helvetica,sans-Serif" font-size="10.00">getIntEnv</text>
</a>
</g>
</g>
<!-- Node3&#45;&gt;Node4 -->
<g id="edge3_Node000003_Node000004" class="edge">
<title>Node3&#45;&gt;Node4</title>
<g id="a_edge3_Node000003_Node000004"><a xlink:title=" ">
<path fill="none" stroke="#63b8ff" d="M323.39,-56.74C334.11,-60.69 346.59,-65.3 358.16,-69.57"/>
<polygon fill="#63b8ff" stroke="#63b8ff" points="356.88,-72.82 367.47,-73 359.3,-66.26 356.88,-72.82"/>
</a>
</g>
</g>
<!-- Node5 -->
<g id="Node000005" class="node">
<title>Node5</title>
<g id="a_Node000005"><a xlink:href="openme-utils_8hpp.html#afca01a231aef5cdbcbb5c23a7134e9d4" target="_top" xlink:title="Maximum of two integers.">
<polygon fill="white" stroke="#666666" points="415.75,-56.25 378.75,-56.25 378.75,-37 415.75,-37 415.75,-56.25"/>
<text xml:space="preserve" text-anchor="middle" x="397.25" y="-42.75" font-family="Helvetica,sans-Serif" font-size="10.00">imax</text>
</a>
</g>
</g>
<!-- Node3&#45;&gt;Node5 -->
<g id="edge4_Node000003_Node000005" class="edge">
<title>Node3&#45;&gt;Node5</title>
<g id="a_edge4_Node000003_Node000005"><a xlink:title=" ">
<path fill="none" stroke="#63b8ff" d="M332.48,-46.62C343.87,-46.62 356.27,-46.62 367.09,-46.62"/>
<polygon fill="#63b8ff" stroke="#63b8ff" points="366.98,-50.13 376.98,-46.63 366.98,-43.13 366.98,-50.13"/>
</a>
</g>
</g>
<!-- Node6 -->
<g id="Node000006" class="node">
<title>Node6</title>
<g id="a_Node000006"><a xlink:href="openme-utils_8hpp.html#aa011f843a2a959cc6f8c226f60e96224" target="_top" xlink:title="Minimum of two integers.">
<polygon fill="white" stroke="#666666" points="414.25,-19.25 380.25,-19.25 380.25,0 414.25,0 414.25,-19.25"/>
<text xml:space="preserve" text-anchor="middle" x="397.25" y="-5.75" font-family="Helvetica,sans-Serif" font-size="10.00">imin</text>
</a>
</g>
</g>
<!-- Node3&#45;&gt;Node6 -->
<g id="edge5_Node000003_Node000006" class="edge">
<title>Node3&#45;&gt;Node6</title>
<g id="a_edge5_Node000003_Node000006"><a xlink:title=" ">
<path fill="none" stroke="#63b8ff" d="M323.39,-36.51C337.67,-31.25 355.06,-24.83 369.27,-19.58"/>
<polygon fill="#63b8ff" stroke="#63b8ff" points="370.27,-22.94 378.44,-16.2 367.85,-16.38 370.27,-22.94"/>
</a>
</g>
</g>
</g>
</svg>
</svg>

<style type='text/css'>
<![CDATA[
[data-mouse-over-selected='false'] { opacity: 0.7; }
[data-mouse-over-selected='true']  { opacity: 1.0; }
]]>
</style>
<script type="application/ecmascript"><![CDATA[
document.addEventListener('DOMContentLoaded', (event) => {
  highlightEdges();
  highlightAdjacentNodes();
});
]]></script>
</svg>
