<?xml version="1.0" encoding="UTF-8" standalone="no"?>
<!DOCTYPE svg PUBLIC "-//W3C//DTD SVG 1.1//EN"
 "http://www.w3.org/Graphics/SVG/1.1/DTD/svg11.dtd">
<!-- Generated by graphviz version 14.0.0 (20250921.2048)
 -->
<!-- Title: BigDataStatMeth::Rcpp_vector_power_hdf5 Pages: 1 -->
<!--zoomable 632 -->

<svg id="main" version="1.1" xmlns="http://www.w3.org/2000/svg" xmlns:xlink="http://www.w3.org/1999/xlink" xml:space="preserve" onload="init(evt)">

<style type="text/css"><![CDATA[
.node, .edge {opacity: 0.7;}
.node.selected, .edge.selected {opacity: 1;}
.edge:hover path { stroke: red; }
.edge:hover polygon { stroke: red; fill: red; }
]]></style>

<defs>
  <circle id="rim" cx="0" cy="0" r="7"/>
  <circle id="rim2" cx="0" cy="0" r="3.5"/>
  <g id="zoomPlus">
    <use xlink:href="#rim" fill="#404040"><set attributeName="fill" to="#808080" begin="zoomplus.mouseover" end="zoomplus.mouseout"/></use>
    <path d="M-4,0h8M0,-4v8" fill="none" stroke="white" stroke-width="1.5" pointer-events="none"/>
  </g>
  <g id="zoomMin">
    <use xlink:href="#rim" fill="#404040"><set attributeName="fill" to="#808080" begin="zoomminus.mouseover" end="zoomminus.mouseout"/></use>
    <path d="M-4,0h8" fill="none" stroke="white" stroke-width="1.5" pointer-events="none"/>
  </g>
  <g id="arrowUp" transform="translate(30 24)">
    <use xlink:href="#rim"/>
    <path pointer-events="none" fill="none" stroke="white" stroke-width="1.5" d="M0,-3.0v7 M-2.5,-0.5L0,-3.0L2.5,-0.5"/>
  </g>
  <g id="arrowRight" transform="rotate(90) translate(36 -43)">
    <use xlink:href="#rim"/>
    <path pointer-events="none" fill="none" stroke="white" stroke-width="1.5" d="M0,-3.0v7 M-2.5,-0.5L0,-3.0L2.5,-0.5"/>
  </g>
  <g id="arrowDown" transform="rotate(180) translate(-30 -48)">
    <use xlink:href="#rim"/>
    <path pointer-events="none" fill="none" stroke="white" stroke-width="1.5" d="M0,-3.0v7 M-2.5,-0.5L0,-3.0L2.5,-0.5"/>
  </g>
  <g id="arrowLeft" transform="rotate(270) translate(-36 17)">
    <use xlink:href="#rim"/>
    <path pointer-events="none" fill="none" stroke="white" stroke-width="1.5" d="M0,-3.0v7 M-2.5,-0.5L0,-3.0L2.5,-0.5"/>
  </g>
  <g id="resetDef">
    <use xlink:href="#rim2" fill="#404040"><set attributeName="fill" to="#808080" begin="reset.mouseover" end="reset.mouseout"/></use>
  </g>
</defs>
<script type="application/ecmascript">
var viewWidth = 708;
var viewHeight = 632;
var sectionId = 'dynsection-145';
</script>
<script type="application/ecmascript" xlink:href="../../../../assets/svg.min.js"/>
<svg id="graph" class="graph">
<g id="viewport">
<title>BigDataStatMeth::Rcpp_vector_power_hdf5</title>
<!-- Node1 -->
<g id="Node000001" class="node">
<title>Node1</title>
<g id="a_Node000001"><a xlink:title="Pure vector division for HDF5 vectors.">
<polygon fill="#999999" stroke="#666666" points="120.25,-176.38 0,-176.38 0,-145.88 120.25,-145.88 120.25,-176.38"/>
<text xml:space="preserve" text-anchor="start" x="8" y="-162.88" font-family="Helvetica,sans-Serif" font-size="10.00">BigDataStatMeth::Rcpp</text>
<text xml:space="preserve" text-anchor="middle" x="60.12" y="-151.63" font-family="Helvetica,sans-Serif" font-size="10.00">_vector_power_hdf5</text>
</a>
</g>
</g>
<!-- Node2 -->
<g id="Node000002" class="node">
<title>Node2</title>
<g id="a_Node000002"><a xlink:href="class_big_data_stat_meth_1_1hdf5_dataset.html#a374a6cadcadfc23c1f5df858d31e20df" target="_top" xlink:title="Create a new dataset with optional compression.">
<polygon fill="white" stroke="#666666" points="306.5,-452.38 156.25,-452.38 156.25,-421.88 306.5,-421.88 306.5,-452.38"/>
<text xml:space="preserve" text-anchor="start" x="164.25" y="-438.88" font-family="Helvetica,sans-Serif" font-size="10.00">BigDataStatMeth::hdf5Dataset</text>
<text xml:space="preserve" text-anchor="middle" x="231.38" y="-427.63" font-family="Helvetica,sans-Serif" font-size="10.00">::createDataset</text>
</a>
</g>
</g>
<!-- Node1&#45;&gt;Node2 -->
<g id="edge1_Node000001_Node000002" class="edge">
<title>Node1&#45;&gt;Node2</title>
<g id="a_edge1_Node000001_Node000002"><a xlink:title=" ">
<path fill="none" stroke="#63b8ff" d="M70.71,-176.76C98.75,-222.49 180.82,-356.32 215.08,-412.19"/>
<polygon fill="#63b8ff" stroke="#63b8ff" points="211.89,-413.68 220.1,-420.38 217.86,-410.03 211.89,-413.68"/>
</a>
</g>
</g>
<!-- Node13 -->
<g id="Node000013" class="node">
<title>Node13</title>
<g id="a_Node000013"><a xlink:href="class_big_data_stat_meth_1_1hdf5_dataset.html#af3ab7117b94164ab629673cacd896dd9" target="_top" xlink:title="Get the current compression level for this dataset instance.">
<polygon fill="white" stroke="#666666" points="306.5,-201.38 156.25,-201.38 156.25,-170.88 306.5,-170.88 306.5,-201.38"/>
<text xml:space="preserve" text-anchor="start" x="164.25" y="-187.88" font-family="Helvetica,sans-Serif" font-size="10.00">BigDataStatMeth::hdf5Dataset</text>
<text xml:space="preserve" text-anchor="middle" x="231.38" y="-176.63" font-family="Helvetica,sans-Serif" font-size="10.00">::getCompressionLevel</text>
</a>
</g>
</g>
<!-- Node1&#45;&gt;Node13 -->
<g id="edge13_Node000001_Node000013" class="edge">
<title>Node1&#45;&gt;Node13</title>
<g id="a_edge13_Node000001_Node000013"><a xlink:title=" ">
<path fill="none" stroke="#63b8ff" d="M120.32,-169.87C128.25,-171.04 136.51,-172.26 144.78,-173.48"/>
<polygon fill="#63b8ff" stroke="#63b8ff" points="144.13,-176.93 154.54,-174.93 145.16,-170 144.13,-176.93"/>
</a>
</g>
</g>
<!-- Node14 -->
<g id="Node000014" class="node">
<title>Node14</title>
<g id="a_Node000014"><a xlink:href="class_big_data_stat_meth_1_1hdf5_dataset.html#a8cce59e2884ad1ee3b67f281566780af" target="_top" xlink:title="Inherit the compression level from an input dataset if not already set.">
<polygon fill="white" stroke="#666666" points="306.5,-152.38 156.25,-152.38 156.25,-121.88 306.5,-121.88 306.5,-152.38"/>
<text xml:space="preserve" text-anchor="start" x="164.25" y="-138.88" font-family="Helvetica,sans-Serif" font-size="10.00">BigDataStatMeth::hdf5Dataset</text>
<text xml:space="preserve" text-anchor="middle" x="231.38" y="-127.63" font-family="Helvetica,sans-Serif" font-size="10.00">::inheritCompressionLevel</text>
</a>
</g>
</g>
<!-- Node1&#45;&gt;Node14 -->
<g id="edge14_Node000001_Node000014" class="edge">
<title>Node1&#45;&gt;Node14</title>
<g id="a_edge14_Node000001_Node000014"><a xlink:title=" ">
<path fill="none" stroke="#63b8ff" d="M120.32,-152.73C128.25,-151.61 136.51,-150.44 144.78,-149.27"/>
<polygon fill="#63b8ff" stroke="#63b8ff" points="145.13,-152.75 154.54,-147.88 144.14,-145.82 145.13,-152.75"/>
</a>
</g>
</g>
<!-- Node15 -->
<g id="Node000015" class="node">
<title>Node15</title>
<g id="a_Node000015"><a xlink:href="class_big_data_stat_meth_1_1hdf5_dataset.html#aa743c8c46d7ff3bb2f894145dd07fd8a" target="_top" xlink:title="Get number of columns in internal format.">
<polygon fill="white" stroke="#666666" points="492.75,-91.38 342.5,-91.38 342.5,-60.88 492.75,-60.88 492.75,-91.38"/>
<text xml:space="preserve" text-anchor="start" x="350.5" y="-77.88" font-family="Helvetica,sans-Serif" font-size="10.00">BigDataStatMeth::hdf5Dataset</text>
<text xml:space="preserve" text-anchor="middle" x="417.62" y="-66.63" font-family="Helvetica,sans-Serif" font-size="10.00">::ncols</text>
</a>
</g>
</g>
<!-- Node1&#45;&gt;Node15 -->
<g id="edge15_Node000001_Node000015" class="edge">
<title>Node1&#45;&gt;Node15</title>
<g id="a_edge15_Node000001_Node000015"><a xlink:title=" ">
<path fill="none" stroke="#63b8ff" d="M86.4,-145.5C105.04,-134.71 131.37,-120.94 156.25,-113.13 212.95,-95.33 279.3,-86.06 330.83,-81.26"/>
<polygon fill="#63b8ff" stroke="#63b8ff" points="331.1,-84.75 340.75,-80.37 330.48,-77.77 331.1,-84.75"/>
</a>
</g>
</g>
<!-- Node16 -->
<g id="Node000016" class="node">
<title>Node16</title>
<g id="a_Node000016"><a xlink:href="class_big_data_stat_meth_1_1hdf5_dataset.html#a6cbce676967d0cc4b50e2cc5282c322b" target="_top" xlink:title="Get number of rows in internal format.">
<polygon fill="white" stroke="#666666" points="492.75,-33.38 342.5,-33.38 342.5,-2.88 492.75,-2.88 492.75,-33.38"/>
<text xml:space="preserve" text-anchor="start" x="350.5" y="-19.88" font-family="Helvetica,sans-Serif" font-size="10.00">BigDataStatMeth::hdf5Dataset</text>
<text xml:space="preserve" text-anchor="middle" x="417.62" y="-8.63" font-family="Helvetica,sans-Serif" font-size="10.00">::nrows</text>
</a>
</g>
</g>
<!-- Node1&#45;&gt;Node16 -->
<g id="edge16_Node000001_Node000016" class="edge">
<title>Node1&#45;&gt;Node16</title>
<g id="a_edge16_Node000001_Node000016"><a xlink:title=" ">
<path fill="none" stroke="#63b8ff" d="M66.76,-145.52C78.32,-116.14 107.77,-53.24 156.25,-27.13 209.32,1.45 277.7,2.72 331.07,-2.64"/>
<polygon fill="#63b8ff" stroke="#63b8ff" points="330.39,-6.09 340.71,-3.71 331.16,0.87 330.39,-6.09"/>
</a>
</g>
</g>
<!-- Node17 -->
<g id="Node000017" class="node">
<title>Node17</title>
<g id="a_Node000017"><a xlink:href="class_big_data_stat_meth_1_1hdf5_dataset.html#a23bea87165b8ef6b944709c5b2cbd0cf" target="_top" xlink:title=" ">
<polygon fill="white" stroke="#666666" points="306.5,-287.38 156.25,-287.38 156.25,-256.88 306.5,-256.88 306.5,-287.38"/>
<text xml:space="preserve" text-anchor="start" x="164.25" y="-273.88" font-family="Helvetica,sans-Serif" font-size="10.00">BigDataStatMeth::hdf5Dataset</text>
<text xml:space="preserve" text-anchor="middle" x="231.38" y="-262.63" font-family="Helvetica,sans-Serif" font-size="10.00">::readDatasetBlock</text>
</a>
</g>
</g>
<!-- Node1&#45;&gt;Node17 -->
<g id="edge17_Node000001_Node000017" class="edge">
<title>Node1&#45;&gt;Node17</title>
<g id="a_edge17_Node000001_Node000017"><a xlink:title=" ">
<path fill="none" stroke="#63b8ff" d="M76,-176.83C93.71,-194.82 124.87,-224.23 156.25,-243.13 161.5,-246.29 167.16,-249.23 172.93,-251.93"/>
<polygon fill="#63b8ff" stroke="#63b8ff" points="171.41,-255.08 181.97,-255.91 174.23,-248.68 171.41,-255.08"/>
</a>
</g>
</g>
<!-- Node18 -->
<g id="Node000018" class="node">
<title>Node18</title>
<g id="a_Node000018"><a xlink:href="namespace_big_data_stat_meth.html#a3e971b9e18c173dc231e115d07b622fd" target="_top" xlink:title="Validates that dataset is a vector and returns its size.">
<polygon fill="white" stroke="#666666" points="296.75,-66.38 166,-66.38 166,-35.88 296.75,-35.88 296.75,-66.38"/>
<text xml:space="preserve" text-anchor="start" x="174" y="-52.88" font-family="Helvetica,sans-Serif" font-size="10.00">BigDataStatMeth::validate</text>
<text xml:space="preserve" text-anchor="middle" x="231.38" y="-41.63" font-family="Helvetica,sans-Serif" font-size="10.00">Vector</text>
</a>
</g>
</g>
<!-- Node1&#45;&gt;Node18 -->
<g id="edge19_Node000001_Node000018" class="edge">
<title>Node1&#45;&gt;Node18</title>
<g id="a_edge19_Node000001_Node000018"><a xlink:title=" ">
<path fill="none" stroke="#63b8ff" d="M76.03,-145.63C93.78,-127.87 124.98,-98.84 156.25,-80.13 161.51,-76.98 167.18,-74.05 172.95,-71.36"/>
<polygon fill="#63b8ff" stroke="#63b8ff" points="174.25,-74.61 182,-67.39 171.43,-68.2 174.25,-74.61"/>
</a>
</g>
</g>
<!-- Node19 -->
<g id="Node000019" class="node">
<title>Node19</title>
<g id="a_Node000019"><a xlink:href="class_big_data_stat_meth_1_1hdf5_dataset.html#af606176d84a63561b65702b6fde3a583" target="_top" xlink:title="Write block of data with optional transposition.">
<polygon fill="white" stroke="#666666" points="492.75,-244.38 342.5,-244.38 342.5,-213.88 492.75,-213.88 492.75,-244.38"/>
<text xml:space="preserve" text-anchor="start" x="350.5" y="-230.88" font-family="Helvetica,sans-Serif" font-size="10.00">BigDataStatMeth::hdf5Dataset</text>
<text xml:space="preserve" text-anchor="middle" x="417.62" y="-219.63" font-family="Helvetica,sans-Serif" font-size="10.00">::writeDatasetBlock</text>
</a>
</g>
</g>
<!-- Node1&#45;&gt;Node19 -->
<g id="edge22_Node000001_Node000019" class="edge">
<title>Node1&#45;&gt;Node19</title>
<g id="a_edge22_Node000001_Node000019"><a xlink:title=" ">
<path fill="none" stroke="#63b8ff" d="M84.64,-176.66C103.25,-188.08 130.32,-202.83 156.25,-210.13 212.94,-226.08 279.15,-230.73 330.62,-231.45"/>
<polygon fill="#63b8ff" stroke="#63b8ff" points="330.49,-234.95 340.52,-231.53 330.55,-227.95 330.49,-234.95"/>
</a>
</g>
</g>
<!-- Node3 -->
<g id="Node000003" class="node">
<title>Node3</title>
<g id="a_Node000003"><a xlink:href="class_big_data_stat_meth_1_1hdf5_dataset.html#ac7a7f23b7e22c9b56ca6ad86592f2d52" target="_top" xlink:title="Add an attribute to the dataset.">
<polygon fill="white" stroke="#666666" points="492.75,-428.38 342.5,-428.38 342.5,-397.88 492.75,-397.88 492.75,-428.38"/>
<text xml:space="preserve" text-anchor="start" x="350.5" y="-414.88" font-family="Helvetica,sans-Serif" font-size="10.00">BigDataStatMeth::hdf5Dataset</text>
<text xml:space="preserve" text-anchor="middle" x="417.62" y="-403.63" font-family="Helvetica,sans-Serif" font-size="10.00">::addAttribute</text>
</a>
</g>
</g>
<!-- Node2&#45;&gt;Node3 -->
<g id="edge2_Node000002_Node000003" class="edge">
<title>Node2&#45;&gt;Node3</title>
<g id="a_edge2_Node000002_Node000003"><a xlink:title=" ">
<path fill="none" stroke="#63b8ff" d="M306.79,-427.44C314.73,-426.4 322.85,-425.34 330.91,-424.29"/>
<polygon fill="#63b8ff" stroke="#63b8ff" points="331.27,-427.78 340.74,-423.01 330.37,-420.83 331.27,-427.78"/>
</a>
</g>
</g>
<!-- Node4 -->
<g id="Node000004" class="node">
<title>Node4</title>
<g id="a_Node000004"><a xlink:href="class_big_data_stat_meth_1_1hdf5_file.html#abfb73b5f1eb25ee00489485c8dc56a2a" target="_top" xlink:title="Close file and cleanup resources.">
<polygon fill="white" stroke="#666666" points="483.38,-379.38 351.88,-379.38 351.88,-348.88 483.38,-348.88 483.38,-379.38"/>
<text xml:space="preserve" text-anchor="start" x="359.88" y="-365.88" font-family="Helvetica,sans-Serif" font-size="10.00">BigDataStatMeth::hdf5File</text>
<text xml:space="preserve" text-anchor="middle" x="417.62" y="-354.63" font-family="Helvetica,sans-Serif" font-size="10.00">::close_file</text>
</a>
</g>
</g>
<!-- Node2&#45;&gt;Node4 -->
<g id="edge3_Node000002_Node000004" class="edge">
<title>Node2&#45;&gt;Node4</title>
<g id="a_edge3_Node000002_Node000004"><a xlink:title=" ">
<path fill="none" stroke="#63b8ff" d="M266.29,-421.45C287.91,-411.68 316.62,-399.11 342.5,-389.13 347.39,-387.24 352.49,-385.36 357.63,-383.51"/>
<polygon fill="#63b8ff" stroke="#63b8ff" points="358.46,-386.93 366.74,-380.31 356.14,-380.33 358.46,-386.93"/>
</a>
</g>
</g>
<!-- Node5 -->
<g id="Node000005" class="node">
<title>Node5</title>
<g id="a_Node000005"><a xlink:href="class_big_data_stat_meth_1_1hdf5_group.html#a27cef4d33e46c72bfd792aa49fa621a3" target="_top" xlink:title="Create multiple nested groups.">
<polygon fill="white" stroke="#666666" points="488.62,-624.38 346.62,-624.38 346.62,-593.88 488.62,-593.88 488.62,-624.38"/>
<text xml:space="preserve" text-anchor="start" x="354.62" y="-610.88" font-family="Helvetica,sans-Serif" font-size="10.00">BigDataStatMeth::hdf5Group</text>
<text xml:space="preserve" text-anchor="middle" x="417.62" y="-599.63" font-family="Helvetica,sans-Serif" font-size="10.00">::create_HDF5_groups</text>
</a>
</g>
</g>
<!-- Node2&#45;&gt;Node5 -->
<g id="edge4_Node000002_Node000005" class="edge">
<title>Node2&#45;&gt;Node5</title>
<g id="a_edge4_Node000002_Node000005"><a xlink:title=" ">
<path fill="none" stroke="#63b8ff" d="M239.81,-452.44C254.98,-482.14 292.39,-547.85 342.5,-584.13 344.43,-585.53 346.45,-586.85 348.53,-588.11"/>
<polygon fill="#63b8ff" stroke="#63b8ff" points="346.84,-591.17 357.32,-592.77 350.12,-584.99 346.84,-591.17"/>
</a>
</g>
</g>
<!-- Node7 -->
<g id="Node000007" class="node">
<title>Node7</title>
<g id="a_Node000007"><a xlink:href="namespace_big_data_stat_meth.html#a89d901ab4b5e01771f4e3fc7dc84e50e" target="_top" xlink:title="Checks if an HDF5 element (group or dataset) exists.">
<polygon fill="white" stroke="#666666" points="479.25,-477.38 356,-477.38 356,-446.88 479.25,-446.88 479.25,-477.38"/>
<text xml:space="preserve" text-anchor="start" x="364" y="-463.88" font-family="Helvetica,sans-Serif" font-size="10.00">BigDataStatMeth::exists</text>
<text xml:space="preserve" text-anchor="middle" x="417.62" y="-452.63" font-family="Helvetica,sans-Serif" font-size="10.00">_HDF5_element</text>
</a>
</g>
</g>
<!-- Node2&#45;&gt;Node7 -->
<g id="edge6_Node000002_Node000007" class="edge">
<title>Node2&#45;&gt;Node7</title>
<g id="a_edge6_Node000002_Node000007"><a xlink:title=" ">
<path fill="none" stroke="#63b8ff" d="M306.79,-447.22C319.25,-448.92 332.16,-450.67 344.57,-452.35"/>
<polygon fill="#63b8ff" stroke="#63b8ff" points="343.91,-455.79 354.29,-453.67 344.85,-448.86 343.91,-455.79"/>
</a>
</g>
</g>
<!-- Node8 -->
<g id="Node000008" class="node">
<title>Node8</title>
<g id="a_Node000008"><a xlink:href="class_big_data_stat_meth_1_1hdf5_group.html#a59995412538627e6c80f64b552c286f5" target="_top" xlink:title=" ">
<polygon fill="white" stroke="#666666" points="488.62,-575.38 346.62,-575.38 346.62,-544.88 488.62,-544.88 488.62,-575.38"/>
<text xml:space="preserve" text-anchor="start" x="354.62" y="-561.88" font-family="Helvetica,sans-Serif" font-size="10.00">BigDataStatMeth::hdf5Group</text>
<text xml:space="preserve" text-anchor="middle" x="417.62" y="-550.63" font-family="Helvetica,sans-Serif" font-size="10.00">::getGroupName</text>
</a>
</g>
</g>
<!-- Node2&#45;&gt;Node8 -->
<g id="edge8_Node000002_Node000008" class="edge">
<title>Node2&#45;&gt;Node8</title>
<g id="a_edge8_Node000002_Node000008"><a xlink:title=" ">
<path fill="none" stroke="#63b8ff" d="M246.17,-452.87C265.68,-474.24 303.33,-512.37 342.5,-535.13 345.31,-536.76 348.24,-538.3 351.24,-539.76"/>
<polygon fill="#63b8ff" stroke="#63b8ff" points="349.73,-542.92 360.29,-543.79 352.58,-536.53 349.73,-542.92"/>
</a>
</g>
</g>
<!-- Node9 -->
<g id="Node000009" class="node">
<title>Node9</title>
<g id="a_Node000009"><a xlink:href="namespace_big_data_stat_meth.html#a3d06783149029f1df2853c472d401380" target="_top" xlink:title="Removes multiple elements from an HDF5 file.">
<polygon fill="white" stroke="#666666" points="482.25,-526.38 353,-526.38 353,-495.88 482.25,-495.88 482.25,-526.38"/>
<text xml:space="preserve" text-anchor="start" x="361" y="-512.88" font-family="Helvetica,sans-Serif" font-size="10.00">BigDataStatMeth::remove</text>
<text xml:space="preserve" text-anchor="middle" x="417.62" y="-501.63" font-family="Helvetica,sans-Serif" font-size="10.00">_elements</text>
</a>
</g>
</g>
<!-- Node2&#45;&gt;Node9 -->
<g id="edge9_Node000002_Node000009" class="edge">
<title>Node2&#45;&gt;Node9</title>
<g id="a_edge9_Node000002_Node000009"><a xlink:title=" ">
<path fill="none" stroke="#63b8ff" d="M265.29,-452.74C287,-462.8 316.18,-475.86 342.5,-486.13 347.38,-488.03 352.48,-489.93 357.61,-491.78"/>
<polygon fill="#63b8ff" stroke="#63b8ff" points="356.12,-494.97 366.72,-495 358.45,-488.37 356.12,-494.97"/>
</a>
</g>
</g>
<!-- Node10 -->
<g id="Node000010" class="node">
<title>Node10</title>
<g id="a_Node000010"><a xlink:href="class_big_data_stat_meth_1_1hdf5_dataset.html#acf9843abcb57a0090f1635cc69d95300" target="_top" xlink:title="Write data to the dataset.">
<polygon fill="white" stroke="#666666" points="492.75,-330.38 342.5,-330.38 342.5,-299.88 492.75,-299.88 492.75,-330.38"/>
<text xml:space="preserve" text-anchor="start" x="350.5" y="-316.88" font-family="Helvetica,sans-Serif" font-size="10.00">BigDataStatMeth::hdf5Dataset</text>
<text xml:space="preserve" text-anchor="middle" x="417.62" y="-305.63" font-family="Helvetica,sans-Serif" font-size="10.00">::writeDataset</text>
</a>
</g>
</g>
<!-- Node2&#45;&gt;Node10 -->
<g id="edge10_Node000002_Node000010" class="edge">
<title>Node2&#45;&gt;Node10</title>
<g id="a_edge10_Node000002_Node000010"><a xlink:title=" ">
<path fill="none" stroke="#63b8ff" d="M246.21,-421.56C265.75,-400.42 303.45,-362.68 342.5,-340.13 345.46,-338.42 348.56,-336.8 351.74,-335.28"/>
<polygon fill="#63b8ff" stroke="#63b8ff" points="352.95,-338.57 360.7,-331.33 350.14,-332.16 352.95,-338.57"/>
</a>
</g>
</g>
<!-- Node6 -->
<g id="Node000006" class="node">
<title>Node6</title>
<g id="a_Node000006"><a xlink:href="namespace_big_data_stat_meth.html#abcaa4216cd52f03ebac42e4855ef846b" target="_top" xlink:title="Checks if a path exists in an HDF5 file.">
<polygon fill="white" stroke="#666666" points="686.12,-544.75 542.62,-544.75 542.62,-525.5 686.12,-525.5 686.12,-544.75"/>
<text xml:space="preserve" text-anchor="middle" x="614.38" y="-531.25" font-family="Helvetica,sans-Serif" font-size="10.00">BigDataStatMeth::pathExists</text>
</a>
</g>
</g>
<!-- Node5&#45;&gt;Node6 -->
<g id="edge5_Node000005_Node000006" class="edge">
<title>Node5&#45;&gt;Node6</title>
<g id="a_edge5_Node000005_Node000006"><a xlink:title=" ">
<path fill="none" stroke="#63b8ff" d="M466.62,-593.41C475.35,-590.42 484.35,-587.25 492.75,-584.13 522.33,-573.14 555.53,-559.56 579.59,-549.49"/>
<polygon fill="#63b8ff" stroke="#63b8ff" points="580.71,-552.82 588.57,-545.72 577.99,-546.37 580.71,-552.82"/>
</a>
</g>
</g>
<!-- Node7&#45;&gt;Node6 -->
<g id="edge7_Node000007_Node000006" class="edge">
<title>Node7&#45;&gt;Node6</title>
<g id="a_edge7_Node000007_Node000006"><a xlink:title=" ">
<path fill="none" stroke="#63b8ff" d="M466.21,-477.76C475.06,-480.78 484.21,-483.99 492.75,-487.13 522.11,-497.91 555.07,-511.11 579.12,-520.93"/>
<polygon fill="#63b8ff" stroke="#63b8ff" points="577.51,-524.05 588.09,-524.61 580.17,-517.58 577.51,-524.05"/>
</a>
</g>
</g>
<!-- Node11 -->
<g id="Node000011" class="node">
<title>Node11</title>
<g id="a_Node000011"><a xlink:href="class_big_data_stat_meth_1_1hdf5_dataset.html#aba39e56a580d3b1fa7f1619fc72efa3e" target="_top" xlink:title="Close dataset and file.">
<polygon fill="white" stroke="#666666" points="689.5,-287.38 539.25,-287.38 539.25,-256.88 689.5,-256.88 689.5,-287.38"/>
<text xml:space="preserve" text-anchor="start" x="547.25" y="-273.88" font-family="Helvetica,sans-Serif" font-size="10.00">BigDataStatMeth::hdf5Dataset</text>
<text xml:space="preserve" text-anchor="middle" x="614.38" y="-262.63" font-family="Helvetica,sans-Serif" font-size="10.00">::close_dataset_file</text>
</a>
</g>
</g>
<!-- Node10&#45;&gt;Node11 -->
<g id="edge11_Node000010_Node000011" class="edge">
<title>Node10&#45;&gt;Node11</title>
<g id="a_edge11_Node000010_Node000011"><a xlink:title=" ">
<path fill="none" stroke="#63b8ff" d="M489.76,-299.42C503.22,-296.45 517.41,-293.32 531.17,-290.28"/>
<polygon fill="#63b8ff" stroke="#63b8ff" points="531.62,-293.76 540.63,-288.19 530.11,-286.93 531.62,-293.76"/>
</a>
</g>
</g>
<!-- Node12 -->
<g id="Node000012" class="node">
<title>Node12</title>
<g id="a_Node000012"><a xlink:href="class_big_data_stat_meth_1_1hdf5_dataset.html#a94d81b72e92cb0230b4e64f37ea7d2e3" target="_top" xlink:title="Convert DataFrame to range list.">
<polygon fill="white" stroke="#666666" points="700,-336.38 528.75,-336.38 528.75,-305.88 700,-305.88 700,-336.38"/>
<text xml:space="preserve" text-anchor="start" x="536.75" y="-322.88" font-family="Helvetica,sans-Serif" font-size="10.00">BigDataStatMeth::hdf5Dataset</text>
<text xml:space="preserve" text-anchor="middle" x="614.38" y="-311.63" font-family="Helvetica,sans-Serif" font-size="10.00">::convert_DataFrame_to_RangeList</text>
</a>
</g>
</g>
<!-- Node10&#45;&gt;Node12 -->
<g id="edge12_Node000010_Node000012" class="edge">
<title>Node10&#45;&gt;Node12</title>
<g id="a_edge12_Node000010_Node000012"><a xlink:title=" ">
<path fill="none" stroke="#63b8ff" d="M493.09,-317.42C500.97,-317.67 509.06,-317.91 517.15,-318.16"/>
<polygon fill="#63b8ff" stroke="#63b8ff" points="516.93,-321.66 527.03,-318.47 517.15,-314.66 516.93,-321.66"/>
</a>
</g>
</g>
<!-- Node17&#45;&gt;Node11 -->
<g id="edge18_Node000017_Node000011" class="edge">
<title>Node17&#45;&gt;Node11</title>
<g id="a_edge18_Node000017_Node000011"><a xlink:title=" ">
<path fill="none" stroke="#63b8ff" d="M306.74,-272.13C370.1,-272.13 461.18,-272.13 527.6,-272.13"/>
<polygon fill="#63b8ff" stroke="#63b8ff" points="527.36,-275.63 537.36,-272.13 527.36,-268.63 527.36,-275.63"/>
</a>
</g>
</g>
<!-- Node18&#45;&gt;Node15 -->
<g id="edge20_Node000018_Node000015" class="edge">
<title>Node18&#45;&gt;Node15</title>
<g id="a_edge20_Node000018_Node000015"><a xlink:title=" ">
<path fill="none" stroke="#63b8ff" d="M297.08,-59.91C308.04,-61.4 319.58,-62.96 330.98,-64.51"/>
<polygon fill="#63b8ff" stroke="#63b8ff" points="330.43,-67.97 340.81,-65.84 331.37,-61.03 330.43,-67.97"/>
</a>
</g>
</g>
<!-- Node18&#45;&gt;Node16 -->
<g id="edge21_Node000018_Node000016" class="edge">
<title>Node18&#45;&gt;Node16</title>
<g id="a_edge21_Node000018_Node000016"><a xlink:title=" ">
<path fill="none" stroke="#63b8ff" d="M297.08,-39.54C308.04,-37.58 319.58,-35.51 330.98,-33.47"/>
<polygon fill="#63b8ff" stroke="#63b8ff" points="331.6,-36.91 340.82,-31.71 330.36,-30.02 331.6,-36.91"/>
</a>
</g>
</g>
<!-- Node19&#45;&gt;Node11 -->
<g id="edge24_Node000019_Node000011" class="edge">
<title>Node19&#45;&gt;Node11</title>
<g id="a_edge24_Node000019_Node000011"><a xlink:title=" ">
<path fill="none" stroke="#63b8ff" d="M489.76,-244.83C503.22,-247.81 517.41,-250.94 531.17,-253.98"/>
<polygon fill="#63b8ff" stroke="#63b8ff" points="530.11,-257.33 540.63,-256.07 531.62,-250.49 530.11,-257.33"/>
</a>
</g>
</g>
<!-- Node19&#45;&gt;Node12 -->
<g id="edge25_Node000019_Node000012" class="edge">
<title>Node19&#45;&gt;Node12</title>
<g id="a_edge25_Node000019_Node000012"><a xlink:title=" ">
<path fill="none" stroke="#63b8ff" d="M440.47,-244.77C462.05,-259.64 496.42,-281.81 528.75,-296.13 533.08,-298.05 537.61,-299.87 542.21,-301.59"/>
<polygon fill="#63b8ff" stroke="#63b8ff" points="541.02,-304.88 551.61,-304.9 543.34,-298.27 541.02,-304.88"/>
</a>
</g>
</g>
<!-- Node20 -->
<g id="Node000020" class="node">
<title>Node20</title>
<g id="a_Node000020"><a xlink:href="class_big_data_stat_meth_1_1hdf5_dataset.html#a64177ae924792ea9e557febaa95ed400" target="_top" xlink:title="Close the dataset.">
<polygon fill="white" stroke="#666666" points="689.5,-201.38 539.25,-201.38 539.25,-170.88 689.5,-170.88 689.5,-201.38"/>
<text xml:space="preserve" text-anchor="start" x="547.25" y="-187.88" font-family="Helvetica,sans-Serif" font-size="10.00">BigDataStatMeth::hdf5Dataset</text>
<text xml:space="preserve" text-anchor="middle" x="614.38" y="-176.63" font-family="Helvetica,sans-Serif" font-size="10.00">::close_dataset</text>
</a>
</g>
</g>
<!-- Node19&#45;&gt;Node20 -->
<g id="edge23_Node000019_Node000020" class="edge">
<title>Node19&#45;&gt;Node20</title>
<g id="a_edge23_Node000019_Node000020"><a xlink:title=" ">
<path fill="none" stroke="#63b8ff" d="M489.76,-213.42C503.22,-210.45 517.41,-207.32 531.17,-204.28"/>
<polygon fill="#63b8ff" stroke="#63b8ff" points="531.62,-207.76 540.63,-202.19 530.11,-200.93 531.62,-207.76"/>
</a>
</g>
</g>
<!-- Node21 -->
<g id="Node000021" class="node">
<title>Node21</title>
<g id="a_Node000021"><a xlink:href="namespace_big_data_stat_meth.html#a2692707b3ea4aaafa09d07afaf632437" target="_top" xlink:title="Transposes a 2D matrix.">
<polygon fill="white" stroke="#666666" points="684.25,-238.75 544.5,-238.75 544.5,-219.5 684.25,-219.5 684.25,-238.75"/>
<text xml:space="preserve" text-anchor="middle" x="614.38" y="-225.25" font-family="Helvetica,sans-Serif" font-size="10.00">BigDataStatMeth::transpose</text>
</a>
</g>
</g>
<!-- Node19&#45;&gt;Node21 -->
<g id="edge26_Node000019_Node000021" class="edge">
<title>Node19&#45;&gt;Node21</title>
<g id="a_edge26_Node000019_Node000021"><a xlink:title=" ">
<path fill="none" stroke="#63b8ff" d="M493.09,-229.13C506.04,-229.13 519.57,-229.13 532.68,-229.13"/>
<polygon fill="#63b8ff" stroke="#63b8ff" points="532.56,-232.63 542.56,-229.13 532.56,-225.63 532.56,-232.63"/>
</a>
</g>
</g>
</g>
</svg>

<g id="navigator" transform="translate(0 0)" fill="#404254">
  <rect fill="#f2f5e9" fill-opacity="0.5" stroke="#606060" stroke-width=".5" x="0" y="0" width="60" height="60"/>
  <use id="zoomplus" xlink:href="#zoomPlus" x="17" y="9" onmousedown="handleZoom(evt,'in')"/>
  <use id="zoomminus" xlink:href="#zoomMin" x="42" y="9" onmousedown="handleZoom(evt,'out')"/>
  <use id="reset" xlink:href="#resetDef" x="30" y="36" onmousedown="handleReset()"/>
   <use id="arrowup" xlink:href="#arrowUp" x="0" y="0" onmousedown="handlePan(0,-1)"/>
  <use id="arrowright" xlink:href="#arrowRight" x="0" y="0" onmousedown="handlePan(1,0)"/>
  <use id="arrowdown" xlink:href="#arrowDown" x="0" y="0" onmousedown="handlePan(0,1)"/>
  <use id="arrowleft" xlink:href="#arrowLeft" x="0" y="0" onmousedown="handlePan(-1,0)"/>
</g>
<svg viewBox="0 0 15 15" width="100%" height="30px" preserveAspectRatio="xMaxYMin meet">
 <g id="arrow_out" transform="scale(0.3 0.3)">
  <a xlink:href="namespace_big_data_stat_meth_a998ae478f8309280ed890da20e661051_cgraph_org.svg" target="_base">
   <rect id="button" ry="5" rx="5" y="6" x="6" height="38" width="38"
        fill="#f2f5e9" fill-opacity="0.5" stroke="#606060" stroke-width="1.0"/>
   <path id="arrow"
     d="M 11.500037,31.436501 C 11.940474,20.09759 22.043105,11.32322 32.158766,21.979434 L 37.068811,17.246167 C 37.068811,17.246167 37.088388,32 37.088388,32 L 22.160133,31.978069 C 22.160133,31.978069 26.997745,27.140456 26.997745,27.140456 C 18.528582,18.264221 13.291696,25.230495 11.500037,31.436501 z"
     style="fill:#404040;"/>
  </a>
 </g>
</svg>

<style type='text/css'>
<![CDATA[
[data-mouse-over-selected='false'] { opacity: 0.7; }
[data-mouse-over-selected='true']  { opacity: 1.0; }
]]>
</style>
<script type="application/ecmascript"><![CDATA[
document.addEventListener('DOMContentLoaded', (event) => {
  highlightEdges();
  highlightAdjacentNodes();
});
]]></script>
</svg>
