<?xml version="1.0" encoding="UTF-8" standalone="no"?>
<!DOCTYPE svg PUBLIC "-//W3C//DTD SVG 1.1//EN"
 "http://www.w3.org/Graphics/SVG/1.1/DTD/svg11.dtd">
<!-- Generated by graphviz version 14.0.0 (20250921.2048)
 -->
<!-- Title: BigDataStatMeth::getAvailableMemoryMB Pages: 1 -->
<!--zoomable 147 -->

<svg id="main" version="1.1" xmlns="http://www.w3.org/2000/svg" xmlns:xlink="http://www.w3.org/1999/xlink" xml:space="preserve" onload="init(evt)">

<style type="text/css"><![CDATA[
.node, .edge {opacity: 0.7;}
.node.selected, .edge.selected {opacity: 1;}
.edge:hover path { stroke: red; }
.edge:hover polygon { stroke: red; fill: red; }
]]></style>

<defs>
  <circle id="rim" cx="0" cy="0" r="7"/>
  <circle id="rim2" cx="0" cy="0" r="3.5"/>
  <g id="zoomPlus">
    <use xlink:href="#rim" fill="#404040"><set attributeName="fill" to="#808080" begin="zoomplus.mouseover" end="zoomplus.mouseout"/></use>
    <path d="M-4,0h8M0,-4v8" fill="none" stroke="white" stroke-width="1.5" pointer-events="none"/>
  </g>
  <g id="zoomMin">
    <use xlink:href="#rim" fill="#404040"><set attributeName="fill" to="#808080" begin="zoomminus.mouseover" end="zoomminus.mouseout"/></use>
    <path d="M-4,0h8" fill="none" stroke="white" stroke-width="1.5" pointer-events="none"/>
  </g>
  <g id="arrowUp" transform="translate(30 24)">
    <use xlink:href="#rim"/>
    <path pointer-events="none" fill="none" stroke="white" stroke-width="1.5" d="M0,-3.0v7 M-2.5,-0.5L0,-3.0L2.5,-0.5"/>
  </g>
  <g id="arrowRight" transform="rotate(90) translate(36 -43)">
    <use xlink:href="#rim"/>
    <path pointer-events="none" fill="none" stroke="white" stroke-width="1.5" d="M0,-3.0v7 M-2.5,-0.5L0,-3.0L2.5,-0.5"/>
  </g>
  <g id="arrowDown" transform="rotate(180) translate(-30 -48)">
    <use xlink:href="#rim"/>
    <path pointer-events="none" fill="none" stroke="white" stroke-width="1.5" d="M0,-3.0v7 M-2.5,-0.5L0,-3.0L2.5,-0.5"/>
  </g>
  <g id="arrowLeft" transform="rotate(270) translate(-36 17)">
    <use xlink:href="#rim"/>
    <path pointer-events="none" fill="none" stroke="white" stroke-width="1.5" d="M0,-3.0v7 M-2.5,-0.5L0,-3.0L2.5,-0.5"/>
  </g>
  <g id="resetDef">
    <use xlink:href="#rim2" fill="#404040"><set attributeName="fill" to="#808080" begin="reset.mouseover" end="reset.mouseout"/></use>
  </g>
</defs>
<script type="application/ecmascript">
var viewWidth = 1093;
var viewHeight = 147;
var sectionId = 'dynsection-40';
</script>
<script type="application/ecmascript" xlink:href="../../../../assets/svg.min.js"/>
<svg id="graph" class="graph">
<g id="viewport">
<title>BigDataStatMeth::getAvailableMemoryMB</title>
<!-- Node1 -->
<g id="Node000001" class="node">
<title>Node1</title>
<g id="a_Node000001"><a xlink:title="Detects available system memory using R&#45;compatible methods.">
<polygon fill="#999999" stroke="#666666" points="1085.25,-90.12 935,-90.12 935,-59.62 1085.25,-59.62 1085.25,-90.12"/>
<text xml:space="preserve" text-anchor="start" x="943" y="-76.62" font-family="Helvetica,sans-Serif" font-size="10.00">BigDataStatMeth::getAvailable</text>
<text xml:space="preserve" text-anchor="middle" x="1010.12" y="-65.38" font-family="Helvetica,sans-Serif" font-size="10.00">MemoryMB</text>
</a>
</g>
</g>
<!-- Node2 -->
<g id="Node000002" class="node">
<title>Node2</title>
<g id="a_Node000002"><a xlink:href="namespace_big_data_stat_meth.html#abcd544ed5db12dd03f79bca0a8f31ca5" target="_top" xlink:title="Calculates optimal block size for memory&#45;efficient matrix operations.">
<polygon fill="white" stroke="#666666" points="899,-90.12 754.75,-90.12 754.75,-59.62 899,-59.62 899,-90.12"/>
<text xml:space="preserve" text-anchor="start" x="762.75" y="-76.62" font-family="Helvetica,sans-Serif" font-size="10.00">BigDataStatMeth::getOptimal</text>
<text xml:space="preserve" text-anchor="middle" x="826.88" y="-65.38" font-family="Helvetica,sans-Serif" font-size="10.00">BlockElements</text>
</a>
</g>
</g>
<!-- Node1&#45;&gt;Node2 -->
<g id="edge1_Node000001_Node000002" class="edge">
<title>Node1&#45;&gt;Node2</title>
<g id="a_edge1_Node000001_Node000002"><a xlink:title=" ">
<path fill="none" stroke="#63b8ff" d="M923.37,-74.88C915.37,-74.88 907.32,-74.88 899.46,-74.88"/>
<polygon fill="#63b8ff" stroke="#63b8ff" points="923.11,-78.38 933.11,-74.88 923.11,-71.38 923.11,-78.38"/>
</a>
</g>
</g>
<!-- Node3 -->
<g id="Node000003" class="node">
<title>Node3</title>
<g id="a_Node000003"><a xlink:href="namespace_big_data_stat_meth.html#a6474d6e774e790655800beb3a03a4f42" target="_top" xlink:title="Performs Cholesky decomposition on a matrix stored in HDF5 format.">
<polygon fill="white" stroke="#666666" points="713.5,-139.12 546.75,-139.12 546.75,-108.62 713.5,-108.62 713.5,-139.12"/>
<text xml:space="preserve" text-anchor="start" x="554.75" y="-125.62" font-family="Helvetica,sans-Serif" font-size="10.00">BigDataStatMeth::Cholesky</text>
<text xml:space="preserve" text-anchor="middle" x="630.12" y="-114.38" font-family="Helvetica,sans-Serif" font-size="10.00">_decomposition_intermediate_hdf5</text>
</a>
</g>
</g>
<!-- Node2&#45;&gt;Node3 -->
<g id="edge2_Node000002_Node000003" class="edge">
<title>Node2&#45;&gt;Node3</title>
<g id="a_edge2_Node000002_Node000003"><a xlink:title=" ">
<path fill="none" stroke="#63b8ff" d="M752.51,-93.33C733.09,-98.22 712.31,-103.45 693.53,-108.17"/>
<polygon fill="#63b8ff" stroke="#63b8ff" points="753.14,-96.78 761.98,-90.95 751.43,-90 753.14,-96.78"/>
</a>
</g>
</g>
<!-- Node7 -->
<g id="Node000007" class="node">
<title>Node7</title>
<g id="a_Node000007"><a xlink:href="namespace_big_data_stat_meth.html#a0f2b52e15661ecc7c19b233f152d09dc" target="_top" xlink:title="Computes final matrix inverse using inverted Cholesky factors.">
<polygon fill="white" stroke="#666666" points="718.75,-90.12 541.5,-90.12 541.5,-59.62 718.75,-59.62 718.75,-90.12"/>
<text xml:space="preserve" text-anchor="start" x="549.5" y="-76.62" font-family="Helvetica,sans-Serif" font-size="10.00">BigDataStatMeth::Inverse</text>
<text xml:space="preserve" text-anchor="middle" x="630.12" y="-65.38" font-family="Helvetica,sans-Serif" font-size="10.00">_Matrix_Cholesky_intermediate_hdf5</text>
</a>
</g>
</g>
<!-- Node2&#45;&gt;Node7 -->
<g id="edge7_Node000002_Node000007" class="edge">
<title>Node2&#45;&gt;Node7</title>
<g id="a_edge7_Node000002_Node000007"><a xlink:title=" ">
<path fill="none" stroke="#63b8ff" d="M742.99,-74.88C735.08,-74.88 727.04,-74.88 719.09,-74.88"/>
<polygon fill="#63b8ff" stroke="#63b8ff" points="742.95,-78.38 752.95,-74.88 742.95,-71.38 742.95,-78.38"/>
</a>
</g>
</g>
<!-- Node9 -->
<g id="Node000009" class="node">
<title>Node9</title>
<g id="a_Node000009"><a xlink:href="namespace_big_data_stat_meth.html#aea31bd4c416718e1d4c084eb4a6d0b28" target="_top" xlink:title="Computes inverse of Cholesky factor in&#45;place.">
<polygon fill="white" stroke="#666666" points="702.25,-41.75 558,-41.75 558,0 702.25,0 702.25,-41.75"/>
<text xml:space="preserve" text-anchor="start" x="566" y="-28.25" font-family="Helvetica,sans-Serif" font-size="10.00">BigDataStatMeth::Inverse</text>
<text xml:space="preserve" text-anchor="start" x="566" y="-17" font-family="Helvetica,sans-Serif" font-size="10.00">_of_Cholesky_decomposition</text>
<text xml:space="preserve" text-anchor="middle" x="630.12" y="-5.75" font-family="Helvetica,sans-Serif" font-size="10.00">_intermediate_hdf5</text>
</a>
</g>
</g>
<!-- Node2&#45;&gt;Node9 -->
<g id="edge10_Node000002_Node000009" class="edge">
<title>Node2&#45;&gt;Node9</title>
<g id="a_edge10_Node000002_Node000009"><a xlink:title=" ">
<path fill="none" stroke="#63b8ff" d="M758.27,-56.13C740.22,-51.12 720.66,-45.7 702.43,-40.65"/>
<polygon fill="#63b8ff" stroke="#63b8ff" points="757.25,-59.48 767.83,-58.78 759.12,-52.73 757.25,-59.48"/>
</a>
</g>
</g>
<!-- Node4 -->
<g id="Node000004" class="node">
<title>Node4</title>
<g id="a_Node000004"><a xlink:href="namespace_big_data_stat_meth.html#aeb131468048bfb07917a48de0d19d17e" target="_top" xlink:title="Performs Cholesky decomposition with automatic algorithm selection.">
<polygon fill="white" stroke="#666666" points="490.5,-139.12 352.25,-139.12 352.25,-108.62 490.5,-108.62 490.5,-139.12"/>
<text xml:space="preserve" text-anchor="start" x="360.25" y="-125.62" font-family="Helvetica,sans-Serif" font-size="10.00">BigDataStatMeth::Cholesky</text>
<text xml:space="preserve" text-anchor="middle" x="421.38" y="-114.38" font-family="Helvetica,sans-Serif" font-size="10.00">_decomposition_hdf5</text>
</a>
</g>
</g>
<!-- Node3&#45;&gt;Node4 -->
<g id="edge3_Node000003_Node000004" class="edge">
<title>Node3&#45;&gt;Node4</title>
<g id="a_edge3_Node000003_Node000004"><a xlink:title=" ">
<path fill="none" stroke="#63b8ff" d="M535.19,-123.88C520.27,-123.88 505.09,-123.88 490.9,-123.88"/>
<polygon fill="#63b8ff" stroke="#63b8ff" points="535.01,-127.38 545.01,-123.88 535.01,-120.38 535.01,-127.38"/>
</a>
</g>
</g>
<!-- Node5 -->
<g id="Node000005" class="node">
<title>Node5</title>
<g id="a_Node000005"><a xlink:href="namespace_big_data_stat_meth.html#ae12442ca01e763882523404fbe05575d" target="_top" xlink:title="Computes matrix inverse using Cholesky decomposition with HDF5 storage.">
<polygon fill="white" stroke="#666666" points="301.25,-93.12 181,-93.12 181,-62.62 301.25,-62.62 301.25,-93.12"/>
<text xml:space="preserve" text-anchor="start" x="189" y="-79.62" font-family="Helvetica,sans-Serif" font-size="10.00">BigDataStatMeth::Rcpp</text>
<text xml:space="preserve" text-anchor="middle" x="241.12" y="-68.38" font-family="Helvetica,sans-Serif" font-size="10.00">_InvCholesky_hdf5</text>
</a>
</g>
</g>
<!-- Node4&#45;&gt;Node5 -->
<g id="edge4_Node000004_Node000005" class="edge">
<title>Node4&#45;&gt;Node5</title>
<g id="a_edge4_Node000004_Node000005"><a xlink:title=" ">
<path fill="none" stroke="#63b8ff" d="M348.81,-105.41C333.11,-101.35 316.65,-97.11 301.49,-93.19"/>
<polygon fill="#63b8ff" stroke="#63b8ff" points="347.51,-108.68 358.06,-107.79 349.26,-101.91 347.51,-108.68"/>
</a>
</g>
</g>
<!-- Node6 -->
<g id="Node000006" class="node">
<title>Node6</title>
<g id="a_Node000006"><a xlink:href="namespace_big_data_stat_meth.html#ab7b48d0904453c785df129d9e538e70a" target="_top" xlink:title="Applies mathematical functions to HDF5 datasets.">
<polygon fill="white" stroke="#666666" points="145,-114.12 0,-114.12 0,-83.62 145,-83.62 145,-114.12"/>
<text xml:space="preserve" text-anchor="start" x="8" y="-100.62" font-family="Helvetica,sans-Serif" font-size="10.00">BigDataStatMeth::RcppApply</text>
<text xml:space="preserve" text-anchor="middle" x="72.5" y="-89.38" font-family="Helvetica,sans-Serif" font-size="10.00">FunctionHdf5</text>
</a>
</g>
</g>
<!-- Node4&#45;&gt;Node6 -->
<g id="edge6_Node000004_Node000006" class="edge">
<title>Node4&#45;&gt;Node6</title>
<g id="a_edge6_Node000004_Node000006"><a xlink:title=" ">
<path fill="none" stroke="#63b8ff" d="M340.37,-118.11C281.55,-113.87 202.3,-108.16 145.47,-104.06"/>
<polygon fill="#63b8ff" stroke="#63b8ff" points="340.11,-121.6 350.33,-118.83 340.61,-114.62 340.11,-121.6"/>
</a>
</g>
</g>
<!-- Node5&#45;&gt;Node6 -->
<g id="edge5_Node000005_Node000006" class="edge">
<title>Node5&#45;&gt;Node6</title>
<g id="a_edge5_Node000005_Node000006"><a xlink:title=" ">
<path fill="none" stroke="#63b8ff" d="M169.68,-86.75C161.64,-87.77 153.43,-88.8 145.37,-89.82"/>
<polygon fill="#63b8ff" stroke="#63b8ff" points="169.92,-90.25 179.41,-85.53 169.05,-83.31 169.92,-90.25"/>
</a>
</g>
</g>
<!-- Node8 -->
<g id="Node000008" class="node">
<title>Node8</title>
<g id="a_Node000008"><a xlink:href="namespace_big_data_stat_meth.html#ae8d25f004dda1092024887ac00e3cadb" target="_top" xlink:title="Computes final matrix inverse with automatic algorithm selection.">
<polygon fill="white" stroke="#666666" points="486,-90.12 356.75,-90.12 356.75,-59.62 486,-59.62 486,-90.12"/>
<text xml:space="preserve" text-anchor="start" x="364.75" y="-76.62" font-family="Helvetica,sans-Serif" font-size="10.00">BigDataStatMeth::Inverse</text>
<text xml:space="preserve" text-anchor="middle" x="421.38" y="-65.38" font-family="Helvetica,sans-Serif" font-size="10.00">_Matrix_Cholesky_hdf5</text>
</a>
</g>
</g>
<!-- Node7&#45;&gt;Node8 -->
<g id="edge8_Node000007_Node000008" class="edge">
<title>Node7&#45;&gt;Node8</title>
<g id="a_edge8_Node000007_Node000008"><a xlink:title=" ">
<path fill="none" stroke="#63b8ff" d="M529.9,-74.88C515.14,-74.88 500.26,-74.88 486.48,-74.88"/>
<polygon fill="#63b8ff" stroke="#63b8ff" points="529.63,-78.38 539.63,-74.88 529.63,-71.38 529.63,-78.38"/>
</a>
</g>
</g>
<!-- Node8&#45;&gt;Node5 -->
<g id="edge9_Node000008_Node000005" class="edge">
<title>Node8&#45;&gt;Node5</title>
<g id="a_edge9_Node000008_Node000005"><a xlink:title=" ">
<path fill="none" stroke="#63b8ff" d="M344.8,-76.15C330.33,-76.39 315.37,-76.64 301.5,-76.88"/>
<polygon fill="#63b8ff" stroke="#63b8ff" points="344.82,-79.65 354.76,-75.98 344.7,-72.65 344.82,-79.65"/>
</a>
</g>
</g>
<!-- Node10 -->
<g id="Node000010" class="node">
<title>Node10</title>
<g id="a_Node000010"><a xlink:href="namespace_big_data_stat_meth.html#a5e754ab66b3a16a958f04ae4bced7007" target="_top" xlink:title="Computes inverse of Cholesky factor with automatic algorithm selection.">
<polygon fill="white" stroke="#666666" points="505.5,-39.12 337.25,-39.12 337.25,-8.62 505.5,-8.62 505.5,-39.12"/>
<text xml:space="preserve" text-anchor="start" x="345.25" y="-25.62" font-family="Helvetica,sans-Serif" font-size="10.00">BigDataStatMeth::Inverse</text>
<text xml:space="preserve" text-anchor="middle" x="421.38" y="-14.38" font-family="Helvetica,sans-Serif" font-size="10.00">_of_Cholesky_decomposition_hdf5</text>
</a>
</g>
</g>
<!-- Node9&#45;&gt;Node10 -->
<g id="edge11_Node000009_Node000010" class="edge">
<title>Node9&#45;&gt;Node10</title>
<g id="a_edge11_Node000009_Node000010"><a xlink:title=" ">
<path fill="none" stroke="#63b8ff" d="M546.17,-22.08C532.91,-22.27 519.18,-22.47 505.91,-22.66"/>
<polygon fill="#63b8ff" stroke="#63b8ff" points="546.22,-25.58 556.17,-21.93 546.12,-18.58 546.22,-25.58"/>
</a>
</g>
</g>
<!-- Node10&#45;&gt;Node5 -->
<g id="edge12_Node000010_Node000005" class="edge">
<title>Node10&#45;&gt;Node5</title>
<g id="a_edge12_Node000010_Node000005"><a xlink:title=" ">
<path fill="none" stroke="#63b8ff" d="M358.08,-42.75C337.1,-49.1 313.95,-56.12 293.87,-62.2"/>
<polygon fill="#63b8ff" stroke="#63b8ff" points="358.81,-46.18 367.37,-39.93 356.78,-39.48 358.81,-46.18"/>
</a>
</g>
</g>
</g>
</svg>

<g id="navigator" transform="translate(0 0)" fill="#404254">
  <rect fill="#f2f5e9" fill-opacity="0.5" stroke="#606060" stroke-width=".5" x="0" y="0" width="60" height="60"/>
  <use id="zoomplus" xlink:href="#zoomPlus" x="17" y="9" onmousedown="handleZoom(evt,'in')"/>
  <use id="zoomminus" xlink:href="#zoomMin" x="42" y="9" onmousedown="handleZoom(evt,'out')"/>
  <use id="reset" xlink:href="#resetDef" x="30" y="36" onmousedown="handleReset()"/>
   <use id="arrowup" xlink:href="#arrowUp" x="0" y="0" onmousedown="handlePan(0,-1)"/>
  <use id="arrowright" xlink:href="#arrowRight" x="0" y="0" onmousedown="handlePan(1,0)"/>
  <use id="arrowdown" xlink:href="#arrowDown" x="0" y="0" onmousedown="handlePan(0,1)"/>
  <use id="arrowleft" xlink:href="#arrowLeft" x="0" y="0" onmousedown="handlePan(-1,0)"/>
</g>
<svg viewBox="0 0 15 15" width="100%" height="30px" preserveAspectRatio="xMaxYMin meet">
 <g id="arrow_out" transform="scale(0.3 0.3)">
  <a xlink:href="namespace_big_data_stat_meth_a8a3d5e267930c906cce28346886f07bc_icgraph_org.svg" target="_base">
   <rect id="button" ry="5" rx="5" y="6" x="6" height="38" width="38"
        fill="#f2f5e9" fill-opacity="0.5" stroke="#606060" stroke-width="1.0"/>
   <path id="arrow"
     d="M 11.500037,31.436501 C 11.940474,20.09759 22.043105,11.32322 32.158766,21.979434 L 37.068811,17.246167 C 37.068811,17.246167 37.088388,32 37.088388,32 L 22.160133,31.978069 C 22.160133,31.978069 26.997745,27.140456 26.997745,27.140456 C 18.528582,18.264221 13.291696,25.230495 11.500037,31.436501 z"
     style="fill:#404040;"/>
  </a>
 </g>
</svg>

<style type='text/css'>
<![CDATA[
[data-mouse-over-selected='false'] { opacity: 0.7; }
[data-mouse-over-selected='true']  { opacity: 1.0; }
]]>
</style>
<script type="application/ecmascript"><![CDATA[
document.addEventListener('DOMContentLoaded', (event) => {
  highlightEdges();
  highlightAdjacentNodes();
});
]]></script>
</svg>
