<?xml version="1.0" encoding="UTF-8" standalone="no"?>
<!DOCTYPE svg PUBLIC "-//W3C//DTD SVG 1.1//EN"
 "http://www.w3.org/Graphics/SVG/1.1/DTD/svg11.dtd">
<!-- Generated by graphviz version 14.0.0 (20250921.2048)
 -->
<!-- Title: BigDataStatMeth::DiagonalOps::writeDiagonalFromVector Pages: 1 -->
<!--zoomable 291 -->

<svg id="main" version="1.1" xmlns="http://www.w3.org/2000/svg" xmlns:xlink="http://www.w3.org/1999/xlink" xml:space="preserve" onload="init(evt)">

<style type="text/css"><![CDATA[
.node, .edge {opacity: 0.7;}
.node.selected, .edge.selected {opacity: 1;}
.edge:hover path { stroke: red; }
.edge:hover polygon { stroke: red; fill: red; }
]]></style>

<defs>
  <circle id="rim" cx="0" cy="0" r="7"/>
  <circle id="rim2" cx="0" cy="0" r="3.5"/>
  <g id="zoomPlus">
    <use xlink:href="#rim" fill="#404040"><set attributeName="fill" to="#808080" begin="zoomplus.mouseover" end="zoomplus.mouseout"/></use>
    <path d="M-4,0h8M0,-4v8" fill="none" stroke="white" stroke-width="1.5" pointer-events="none"/>
  </g>
  <g id="zoomMin">
    <use xlink:href="#rim" fill="#404040"><set attributeName="fill" to="#808080" begin="zoomminus.mouseover" end="zoomminus.mouseout"/></use>
    <path d="M-4,0h8" fill="none" stroke="white" stroke-width="1.5" pointer-events="none"/>
  </g>
  <g id="arrowUp" transform="translate(30 24)">
    <use xlink:href="#rim"/>
    <path pointer-events="none" fill="none" stroke="white" stroke-width="1.5" d="M0,-3.0v7 M-2.5,-0.5L0,-3.0L2.5,-0.5"/>
  </g>
  <g id="arrowRight" transform="rotate(90) translate(36 -43)">
    <use xlink:href="#rim"/>
    <path pointer-events="none" fill="none" stroke="white" stroke-width="1.5" d="M0,-3.0v7 M-2.5,-0.5L0,-3.0L2.5,-0.5"/>
  </g>
  <g id="arrowDown" transform="rotate(180) translate(-30 -48)">
    <use xlink:href="#rim"/>
    <path pointer-events="none" fill="none" stroke="white" stroke-width="1.5" d="M0,-3.0v7 M-2.5,-0.5L0,-3.0L2.5,-0.5"/>
  </g>
  <g id="arrowLeft" transform="rotate(270) translate(-36 17)">
    <use xlink:href="#rim"/>
    <path pointer-events="none" fill="none" stroke="white" stroke-width="1.5" d="M0,-3.0v7 M-2.5,-0.5L0,-3.0L2.5,-0.5"/>
  </g>
  <g id="resetDef">
    <use xlink:href="#rim2" fill="#404040"><set attributeName="fill" to="#808080" begin="reset.mouseover" end="reset.mouseout"/></use>
  </g>
</defs>
<script type="application/ecmascript">
var viewWidth = 737;
var viewHeight = 291;
var sectionId = 'dynsection-15';
</script>
<script type="application/ecmascript" xlink:href="../../../../assets/svg.min.js"/>
<svg id="graph" class="graph">
<g id="viewport">
<title>BigDataStatMeth::DiagonalOps::writeDiagonalFromVector</title>
<!-- Node1 -->
<g id="Node000001" class="node">
<title>Node1</title>
<g id="a_Node000001"><a xlink:title="Write diagonal vector to matrix diagonal.">
<polygon fill="#999999" stroke="#666666" points="150.25,-203.88 0,-203.88 0,-173.38 150.25,-173.38 150.25,-203.88"/>
<text xml:space="preserve" text-anchor="start" x="8" y="-190.38" font-family="Helvetica,sans-Serif" font-size="10.00">BigDataStatMeth::Diagonal</text>
<text xml:space="preserve" text-anchor="middle" x="75.12" y="-179.12" font-family="Helvetica,sans-Serif" font-size="10.00">Ops::writeDiagonalFromVector</text>
</a>
</g>
</g>
<!-- Node2 -->
<g id="Node000002" class="node">
<title>Node2</title>
<g id="a_Node000002"><a xlink:href="class_big_data_stat_meth_1_1hdf5_dataset.html#aa743c8c46d7ff3bb2f894145dd07fd8a" target="_top" xlink:title="Get number of columns in internal format.">
<polygon fill="white" stroke="#666666" points="521.25,-282.88 371,-282.88 371,-252.38 521.25,-252.38 521.25,-282.88"/>
<text xml:space="preserve" text-anchor="start" x="379" y="-269.38" font-family="Helvetica,sans-Serif" font-size="10.00">BigDataStatMeth::hdf5Dataset</text>
<text xml:space="preserve" text-anchor="middle" x="446.12" y="-258.12" font-family="Helvetica,sans-Serif" font-size="10.00">::ncols</text>
</a>
</g>
</g>
<!-- Node1&#45;&gt;Node2 -->
<g id="edge1_Node000001_Node000002" class="edge">
<title>Node1&#45;&gt;Node2</title>
<g id="a_edge1_Node000001_Node000002"><a xlink:title=" ">
<path fill="none" stroke="#63b8ff" d="M94.97,-204.21C115.83,-220.42 151.15,-244.9 186.25,-255.62 242.16,-272.7 307.99,-275.54 359.28,-274.19"/>
<polygon fill="#63b8ff" stroke="#63b8ff" points="359.27,-277.69 369.15,-273.86 359.04,-270.69 359.27,-277.69"/>
</a>
</g>
</g>
<!-- Node3 -->
<g id="Node000003" class="node">
<title>Node3</title>
<g id="a_Node000003"><a xlink:href="class_big_data_stat_meth_1_1hdf5_dataset.html#a6cbce676967d0cc4b50e2cc5282c322b" target="_top" xlink:title="Get number of rows in internal format.">
<polygon fill="white" stroke="#666666" points="521.25,-227.88 371,-227.88 371,-197.38 521.25,-197.38 521.25,-227.88"/>
<text xml:space="preserve" text-anchor="start" x="379" y="-214.38" font-family="Helvetica,sans-Serif" font-size="10.00">BigDataStatMeth::hdf5Dataset</text>
<text xml:space="preserve" text-anchor="middle" x="446.12" y="-203.12" font-family="Helvetica,sans-Serif" font-size="10.00">::nrows</text>
</a>
</g>
</g>
<!-- Node1&#45;&gt;Node3 -->
<g id="edge2_Node000001_Node000003" class="edge">
<title>Node1&#45;&gt;Node3</title>
<g id="a_edge2_Node000001_Node000003"><a xlink:title=" ">
<path fill="none" stroke="#63b8ff" d="M150.35,-193.45C210.81,-197.38 296.21,-202.94 359.54,-207.06"/>
<polygon fill="#63b8ff" stroke="#63b8ff" points="358.98,-210.53 369.19,-207.69 359.44,-203.54 358.98,-210.53"/>
</a>
</g>
</g>
<!-- Node4 -->
<g id="Node000004" class="node">
<title>Node4</title>
<g id="a_Node000004"><a xlink:href="class_big_data_stat_meth_1_1hdf5_dataset.html#a23bea87165b8ef6b944709c5b2cbd0cf" target="_top" xlink:title=" ">
<polygon fill="white" stroke="#666666" points="521.25,-165.88 371,-165.88 371,-135.38 521.25,-135.38 521.25,-165.88"/>
<text xml:space="preserve" text-anchor="start" x="379" y="-152.38" font-family="Helvetica,sans-Serif" font-size="10.00">BigDataStatMeth::hdf5Dataset</text>
<text xml:space="preserve" text-anchor="middle" x="446.12" y="-141.12" font-family="Helvetica,sans-Serif" font-size="10.00">::readDatasetBlock</text>
</a>
</g>
</g>
<!-- Node1&#45;&gt;Node4 -->
<g id="edge3_Node000001_Node000004" class="edge">
<title>Node1&#45;&gt;Node4</title>
<g id="a_edge3_Node000001_Node000004"><a xlink:title=" ">
<path fill="none" stroke="#63b8ff" d="M150.35,-180.98C210.81,-174.76 296.21,-165.96 359.54,-159.44"/>
<polygon fill="#63b8ff" stroke="#63b8ff" points="359.6,-162.95 369.19,-158.44 358.89,-155.99 359.6,-162.95"/>
</a>
</g>
</g>
<!-- Node6 -->
<g id="Node000006" class="node">
<title>Node6</title>
<g id="a_Node000006"><a xlink:href="namespace_big_data_stat_meth.html#ab5429d9d25ff38d72d77e6dca59947b0" target="_top" xlink:title="Sets the diagonal elements of a matrix stored in HDF5 format.">
<polygon fill="white" stroke="#666666" points="335,-122.88 186.25,-122.88 186.25,-92.38 335,-92.38 335,-122.88"/>
<text xml:space="preserve" text-anchor="start" x="194.25" y="-109.38" font-family="Helvetica,sans-Serif" font-size="10.00">BigDataStatMeth::setDiagonal</text>
<text xml:space="preserve" text-anchor="middle" x="260.62" y="-98.12" font-family="Helvetica,sans-Serif" font-size="10.00">Matrix</text>
</a>
</g>
</g>
<!-- Node1&#45;&gt;Node6 -->
<g id="edge5_Node000001_Node000006" class="edge">
<title>Node1&#45;&gt;Node6</title>
<g id="a_edge5_Node000001_Node000006"><a xlink:title=" ">
<path fill="none" stroke="#63b8ff" d="M107.68,-173.06C129.57,-162.43 159.48,-148.22 186.25,-136.62 193.26,-133.59 200.7,-130.5 208.04,-127.52"/>
<polygon fill="#63b8ff" stroke="#63b8ff" points="209.29,-130.79 217.28,-123.83 206.69,-124.3 209.29,-130.79"/>
</a>
</g>
</g>
<!-- Node11 -->
<g id="Node000011" class="node">
<title>Node11</title>
<g id="a_Node000011"><a xlink:href="namespace_big_data_stat_meth_1_1_diagonal_ops.html#a10f2d060060fb8e195ebdc69bfaab39b" target="_top" xlink:title="Validate vector dataset and return its size.">
<polygon fill="white" stroke="#666666" points="329,-246.88 192.25,-246.88 192.25,-216.38 329,-216.38 329,-246.88"/>
<text xml:space="preserve" text-anchor="start" x="200.25" y="-233.38" font-family="Helvetica,sans-Serif" font-size="10.00">BigDataStatMeth::Diagonal</text>
<text xml:space="preserve" text-anchor="middle" x="260.62" y="-222.12" font-family="Helvetica,sans-Serif" font-size="10.00">Ops::validateVectorDataset</text>
</a>
</g>
</g>
<!-- Node1&#45;&gt;Node11 -->
<g id="edge12_Node000001_Node000011" class="edge">
<title>Node1&#45;&gt;Node11</title>
<g id="a_edge12_Node000001_Node000011"><a xlink:title=" ">
<path fill="none" stroke="#63b8ff" d="M143.15,-204.33C155.58,-207.24 168.67,-210.31 181.4,-213.29"/>
<polygon fill="#63b8ff" stroke="#63b8ff" points="180.46,-216.67 191,-215.54 182.06,-209.85 180.46,-216.67"/>
</a>
</g>
</g>
<!-- Node5 -->
<g id="Node000005" class="node">
<title>Node5</title>
<g id="a_Node000005"><a xlink:href="class_big_data_stat_meth_1_1hdf5_dataset.html#aba39e56a580d3b1fa7f1619fc72efa3e" target="_top" xlink:title="Close dataset and file.">
<polygon fill="white" stroke="#666666" points="718,-165.88 567.75,-165.88 567.75,-135.38 718,-135.38 718,-165.88"/>
<text xml:space="preserve" text-anchor="start" x="575.75" y="-152.38" font-family="Helvetica,sans-Serif" font-size="10.00">BigDataStatMeth::hdf5Dataset</text>
<text xml:space="preserve" text-anchor="middle" x="642.88" y="-141.12" font-family="Helvetica,sans-Serif" font-size="10.00">::close_dataset_file</text>
</a>
</g>
</g>
<!-- Node4&#45;&gt;Node5 -->
<g id="edge4_Node000004_Node000005" class="edge">
<title>Node4&#45;&gt;Node5</title>
<g id="a_edge4_Node000004_Node000005"><a xlink:title=" ">
<path fill="none" stroke="#63b8ff" d="M521.59,-150.62C532.86,-150.62 544.57,-150.62 556.06,-150.62"/>
<polygon fill="#63b8ff" stroke="#63b8ff" points="555.94,-154.13 565.94,-150.63 555.94,-147.13 555.94,-154.13"/>
</a>
</g>
</g>
<!-- Node6&#45;&gt;Node4 -->
<g id="edge6_Node000006_Node000004" class="edge">
<title>Node6&#45;&gt;Node4</title>
<g id="a_edge6_Node000006_Node000004"><a xlink:title=" ">
<path fill="none" stroke="#63b8ff" d="M328.65,-123.33C341.08,-126.24 354.17,-129.31 366.9,-132.29"/>
<polygon fill="#63b8ff" stroke="#63b8ff" points="365.96,-135.67 376.5,-134.54 367.56,-128.85 365.96,-135.67"/>
</a>
</g>
</g>
<!-- Node7 -->
<g id="Node000007" class="node">
<title>Node7</title>
<g id="a_Node000007"><a xlink:href="class_big_data_stat_meth_1_1hdf5_dataset.html#af606176d84a63561b65702b6fde3a583" target="_top" xlink:title="Write block of data with optional transposition.">
<polygon fill="white" stroke="#666666" points="521.25,-116.88 371,-116.88 371,-86.38 521.25,-86.38 521.25,-116.88"/>
<text xml:space="preserve" text-anchor="start" x="379" y="-103.38" font-family="Helvetica,sans-Serif" font-size="10.00">BigDataStatMeth::hdf5Dataset</text>
<text xml:space="preserve" text-anchor="middle" x="446.12" y="-92.12" font-family="Helvetica,sans-Serif" font-size="10.00">::writeDatasetBlock</text>
</a>
</g>
</g>
<!-- Node6&#45;&gt;Node7 -->
<g id="edge7_Node000006_Node000007" class="edge">
<title>Node6&#45;&gt;Node7</title>
<g id="a_edge7_Node000006_Node000007"><a xlink:title=" ">
<path fill="none" stroke="#63b8ff" d="M335.47,-105.21C343.23,-104.96 351.17,-104.7 359.05,-104.44"/>
<polygon fill="#63b8ff" stroke="#63b8ff" points="359.14,-107.94 369.02,-104.11 358.91,-100.94 359.14,-107.94"/>
</a>
</g>
</g>
<!-- Node7&#45;&gt;Node5 -->
<g id="edge9_Node000007_Node000005" class="edge">
<title>Node7&#45;&gt;Node5</title>
<g id="a_edge9_Node000007_Node000005"><a xlink:title=" ">
<path fill="none" stroke="#63b8ff" d="M509.55,-117.33C528.33,-122.06 549.11,-127.29 568.53,-132.17"/>
<polygon fill="#63b8ff" stroke="#63b8ff" points="567.45,-135.51 578,-134.55 569.16,-128.72 567.45,-135.51"/>
</a>
</g>
</g>
<!-- Node8 -->
<g id="Node000008" class="node">
<title>Node8</title>
<g id="a_Node000008"><a xlink:href="class_big_data_stat_meth_1_1hdf5_dataset.html#a64177ae924792ea9e557febaa95ed400" target="_top" xlink:title="Close the dataset.">
<polygon fill="white" stroke="#666666" points="718,-116.88 567.75,-116.88 567.75,-86.38 718,-86.38 718,-116.88"/>
<text xml:space="preserve" text-anchor="start" x="575.75" y="-103.38" font-family="Helvetica,sans-Serif" font-size="10.00">BigDataStatMeth::hdf5Dataset</text>
<text xml:space="preserve" text-anchor="middle" x="642.88" y="-92.12" font-family="Helvetica,sans-Serif" font-size="10.00">::close_dataset</text>
</a>
</g>
</g>
<!-- Node7&#45;&gt;Node8 -->
<g id="edge8_Node000007_Node000008" class="edge">
<title>Node7&#45;&gt;Node8</title>
<g id="a_edge8_Node000007_Node000008"><a xlink:title=" ">
<path fill="none" stroke="#63b8ff" d="M521.59,-101.62C532.86,-101.62 544.57,-101.62 556.06,-101.62"/>
<polygon fill="#63b8ff" stroke="#63b8ff" points="555.94,-105.13 565.94,-101.63 555.94,-98.13 555.94,-105.13"/>
</a>
</g>
</g>
<!-- Node9 -->
<g id="Node000009" class="node">
<title>Node9</title>
<g id="a_Node000009"><a xlink:href="class_big_data_stat_meth_1_1hdf5_dataset.html#a94d81b72e92cb0230b4e64f37ea7d2e3" target="_top" xlink:title="Convert DataFrame to range list.">
<polygon fill="white" stroke="#666666" points="728.5,-67.88 557.25,-67.88 557.25,-37.38 728.5,-37.38 728.5,-67.88"/>
<text xml:space="preserve" text-anchor="start" x="565.25" y="-54.38" font-family="Helvetica,sans-Serif" font-size="10.00">BigDataStatMeth::hdf5Dataset</text>
<text xml:space="preserve" text-anchor="middle" x="642.88" y="-43.12" font-family="Helvetica,sans-Serif" font-size="10.00">::convert_DataFrame_to_RangeList</text>
</a>
</g>
</g>
<!-- Node7&#45;&gt;Node9 -->
<g id="edge10_Node000007_Node000009" class="edge">
<title>Node7&#45;&gt;Node9</title>
<g id="a_edge10_Node000007_Node000009"><a xlink:title=" ">
<path fill="none" stroke="#63b8ff" d="M509.55,-85.92C528.33,-81.19 549.11,-75.96 568.53,-71.08"/>
<polygon fill="#63b8ff" stroke="#63b8ff" points="569.16,-74.53 578,-68.7 567.45,-67.74 569.16,-74.53"/>
</a>
</g>
</g>
<!-- Node10 -->
<g id="Node000010" class="node">
<title>Node10</title>
<g id="a_Node000010"><a xlink:href="namespace_big_data_stat_meth.html#a2692707b3ea4aaafa09d07afaf632437" target="_top" xlink:title="Transposes a 2D matrix.">
<polygon fill="white" stroke="#666666" points="712.75,-19.25 573,-19.25 573,0 712.75,0 712.75,-19.25"/>
<text xml:space="preserve" text-anchor="middle" x="642.88" y="-5.75" font-family="Helvetica,sans-Serif" font-size="10.00">BigDataStatMeth::transpose</text>
</a>
</g>
</g>
<!-- Node7&#45;&gt;Node10 -->
<g id="edge11_Node000007_Node000010" class="edge">
<title>Node7&#45;&gt;Node10</title>
<g id="a_edge11_Node000007_Node000010"><a xlink:title=" ">
<path fill="none" stroke="#63b8ff" d="M465.78,-86.14C486.75,-69.51 522.44,-43.47 557.25,-28.62 562.4,-26.43 567.84,-24.47 573.37,-22.73"/>
<polygon fill="#63b8ff" stroke="#63b8ff" points="573.99,-26.19 582.63,-20.05 572.05,-19.47 573.99,-26.19"/>
</a>
</g>
</g>
<!-- Node11&#45;&gt;Node2 -->
<g id="edge13_Node000011_Node000002" class="edge">
<title>Node11&#45;&gt;Node2</title>
<g id="a_edge13_Node000011_Node000002"><a xlink:title=" ">
<path fill="none" stroke="#63b8ff" d="M329.43,-244.93C339.33,-246.87 349.63,-248.89 359.82,-250.89"/>
<polygon fill="#63b8ff" stroke="#63b8ff" points="358.83,-254.26 369.32,-252.75 360.18,-247.39 358.83,-254.26"/>
</a>
</g>
</g>
<!-- Node11&#45;&gt;Node3 -->
<g id="edge14_Node000011_Node000003" class="edge">
<title>Node11&#45;&gt;Node3</title>
<g id="a_edge14_Node000011_Node000003"><a xlink:title=" ">
<path fill="none" stroke="#63b8ff" d="M329.43,-224.6C339.22,-223.59 349.41,-222.54 359.49,-221.49"/>
<polygon fill="#63b8ff" stroke="#63b8ff" points="359.71,-224.99 369.3,-220.48 358.99,-218.02 359.71,-224.99"/>
</a>
</g>
</g>
</g>
</svg>

<g id="navigator" transform="translate(0 0)" fill="#404254">
  <rect fill="#f2f5e9" fill-opacity="0.5" stroke="#606060" stroke-width=".5" x="0" y="0" width="60" height="60"/>
  <use id="zoomplus" xlink:href="#zoomPlus" x="17" y="9" onmousedown="handleZoom(evt,'in')"/>
  <use id="zoomminus" xlink:href="#zoomMin" x="42" y="9" onmousedown="handleZoom(evt,'out')"/>
  <use id="reset" xlink:href="#resetDef" x="30" y="36" onmousedown="handleReset()"/>
   <use id="arrowup" xlink:href="#arrowUp" x="0" y="0" onmousedown="handlePan(0,-1)"/>
  <use id="arrowright" xlink:href="#arrowRight" x="0" y="0" onmousedown="handlePan(1,0)"/>
  <use id="arrowdown" xlink:href="#arrowDown" x="0" y="0" onmousedown="handlePan(0,1)"/>
  <use id="arrowleft" xlink:href="#arrowLeft" x="0" y="0" onmousedown="handlePan(-1,0)"/>
</g>
<svg viewBox="0 0 15 15" width="100%" height="30px" preserveAspectRatio="xMaxYMin meet">
 <g id="arrow_out" transform="scale(0.3 0.3)">
  <a xlink:href="namespace_big_data_stat_meth_1_1_diagonal_ops_a65334bcbb3c95f1aabebbc88963793b5_cgraph_org.svg" target="_base">
   <rect id="button" ry="5" rx="5" y="6" x="6" height="38" width="38"
        fill="#f2f5e9" fill-opacity="0.5" stroke="#606060" stroke-width="1.0"/>
   <path id="arrow"
     d="M 11.500037,31.436501 C 11.940474,20.09759 22.043105,11.32322 32.158766,21.979434 L 37.068811,17.246167 C 37.068811,17.246167 37.088388,32 37.088388,32 L 22.160133,31.978069 C 22.160133,31.978069 26.997745,27.140456 26.997745,27.140456 C 18.528582,18.264221 13.291696,25.230495 11.500037,31.436501 z"
     style="fill:#404040;"/>
  </a>
 </g>
</svg>

<style type='text/css'>
<![CDATA[
[data-mouse-over-selected='false'] { opacity: 0.7; }
[data-mouse-over-selected='true']  { opacity: 1.0; }
]]>
</style>
<script type="application/ecmascript"><![CDATA[
document.addEventListener('DOMContentLoaded', (event) => {
  highlightEdges();
  highlightAdjacentNodes();
});
]]></script>
</svg>
