<?xml version="1.0" encoding="UTF-8" standalone="no"?>
<!DOCTYPE svg PUBLIC "-//W3C//DTD SVG 1.1//EN"
 "http://www.w3.org/Graphics/SVG/1.1/DTD/svg11.dtd">
<!-- Generated by graphviz version 14.0.0 (20250921.2048)
 -->
<!-- Title: BigDataStatMeth::RcppbdEigen_hdf5_Block Pages: 1 -->
<!--zoomable 566 -->

<svg id="main" version="1.1" xmlns="http://www.w3.org/2000/svg" xmlns:xlink="http://www.w3.org/1999/xlink" xml:space="preserve" onload="init(evt)">

<style type="text/css"><![CDATA[
.node, .edge {opacity: 0.7;}
.node.selected, .edge.selected {opacity: 1;}
.edge:hover path { stroke: red; }
.edge:hover polygon { stroke: red; fill: red; }
]]></style>

<defs>
  <circle id="rim" cx="0" cy="0" r="7"/>
  <circle id="rim2" cx="0" cy="0" r="3.5"/>
  <g id="zoomPlus">
    <use xlink:href="#rim" fill="#404040"><set attributeName="fill" to="#808080" begin="zoomplus.mouseover" end="zoomplus.mouseout"/></use>
    <path d="M-4,0h8M0,-4v8" fill="none" stroke="white" stroke-width="1.5" pointer-events="none"/>
  </g>
  <g id="zoomMin">
    <use xlink:href="#rim" fill="#404040"><set attributeName="fill" to="#808080" begin="zoomminus.mouseover" end="zoomminus.mouseout"/></use>
    <path d="M-4,0h8" fill="none" stroke="white" stroke-width="1.5" pointer-events="none"/>
  </g>
  <g id="arrowUp" transform="translate(30 24)">
    <use xlink:href="#rim"/>
    <path pointer-events="none" fill="none" stroke="white" stroke-width="1.5" d="M0,-3.0v7 M-2.5,-0.5L0,-3.0L2.5,-0.5"/>
  </g>
  <g id="arrowRight" transform="rotate(90) translate(36 -43)">
    <use xlink:href="#rim"/>
    <path pointer-events="none" fill="none" stroke="white" stroke-width="1.5" d="M0,-3.0v7 M-2.5,-0.5L0,-3.0L2.5,-0.5"/>
  </g>
  <g id="arrowDown" transform="rotate(180) translate(-30 -48)">
    <use xlink:href="#rim"/>
    <path pointer-events="none" fill="none" stroke="white" stroke-width="1.5" d="M0,-3.0v7 M-2.5,-0.5L0,-3.0L2.5,-0.5"/>
  </g>
  <g id="arrowLeft" transform="rotate(270) translate(-36 17)">
    <use xlink:href="#rim"/>
    <path pointer-events="none" fill="none" stroke="white" stroke-width="1.5" d="M0,-3.0v7 M-2.5,-0.5L0,-3.0L2.5,-0.5"/>
  </g>
  <g id="resetDef">
    <use xlink:href="#rim2" fill="#404040"><set attributeName="fill" to="#808080" begin="reset.mouseover" end="reset.mouseout"/></use>
  </g>
</defs>
<script type="application/ecmascript">
var viewWidth = 789;
var viewHeight = 566;
var sectionId = 'dynsection-161';
</script>
<script type="application/ecmascript" xlink:href="../../../../assets/svg.min.js"/>
<svg id="graph" class="graph">
<g id="viewport">
<title>BigDataStatMeth::RcppbdEigen_hdf5_Block</title>
<!-- Node1 -->
<g id="Node000001" class="node">
<title>Node1</title>
<g id="a_Node000001"><a xlink:title="Block&#45;wise eigendecomposition for large HDF5 matrices using Spectra.">
<polygon fill="#999999" stroke="#666666" points="155.5,-140.5 0,-140.5 0,-110 155.5,-110 155.5,-140.5"/>
<text xml:space="preserve" text-anchor="start" x="8" y="-127" font-family="Helvetica,sans-Serif" font-size="10.00">BigDataStatMeth::RcppbdEigen</text>
<text xml:space="preserve" text-anchor="middle" x="77.75" y="-115.75" font-family="Helvetica,sans-Serif" font-size="10.00">_hdf5_Block</text>
</a>
</g>
</g>
<!-- Node2 -->
<g id="Node000002" class="node">
<title>Node2</title>
<g id="a_Node000002"><a xlink:href="class_big_data_stat_meth_1_1hdf5_dataset.html#a374a6cadcadfc23c1f5df858d31e20df" target="_top" xlink:title="Create a new dataset with optional compression.">
<polygon fill="white" stroke="#666666" points="344.38,-385.5 194.12,-385.5 194.12,-355 344.38,-355 344.38,-385.5"/>
<text xml:space="preserve" text-anchor="start" x="202.12" y="-372" font-family="Helvetica,sans-Serif" font-size="10.00">BigDataStatMeth::hdf5Dataset</text>
<text xml:space="preserve" text-anchor="middle" x="269.25" y="-360.75" font-family="Helvetica,sans-Serif" font-size="10.00">::createDataset</text>
</a>
</g>
</g>
<!-- Node1&#45;&gt;Node2 -->
<g id="edge1_Node000001_Node000002" class="edge">
<title>Node1&#45;&gt;Node2</title>
<g id="a_edge1_Node000001_Node000002"><a xlink:title=" ">
<path fill="none" stroke="#63b8ff" d="M90.89,-140.95C123.05,-182.52 210.59,-295.7 249.35,-345.82"/>
<polygon fill="#63b8ff" stroke="#63b8ff" points="246.4,-347.72 255.28,-353.48 251.93,-343.43 246.4,-347.72"/>
</a>
</g>
</g>
<!-- Node10 -->
<g id="Node000010" class="node">
<title>Node10</title>
<g id="a_Node000010"><a xlink:href="class_big_data_stat_meth_1_1hdf5_dataset.html#acf9843abcb57a0090f1635cc69d95300" target="_top" xlink:title="Write data to the dataset.">
<polygon fill="white" stroke="#666666" points="553.5,-263.5 403.25,-263.5 403.25,-233 553.5,-233 553.5,-263.5"/>
<text xml:space="preserve" text-anchor="start" x="411.25" y="-250" font-family="Helvetica,sans-Serif" font-size="10.00">BigDataStatMeth::hdf5Dataset</text>
<text xml:space="preserve" text-anchor="middle" x="478.38" y="-238.75" font-family="Helvetica,sans-Serif" font-size="10.00">::writeDataset</text>
</a>
</g>
</g>
<!-- Node1&#45;&gt;Node10 -->
<g id="edge24_Node000001_Node000010" class="edge">
<title>Node1&#45;&gt;Node10</title>
<g id="a_edge24_Node000001_Node000010"><a xlink:title=" ">
<path fill="none" stroke="#63b8ff" d="M111.27,-141C133.51,-151.37 163.85,-164.73 191.5,-174.25 257.85,-197.1 334.97,-216.67 392.38,-229.93"/>
<polygon fill="#63b8ff" stroke="#63b8ff" points="391.59,-233.34 402.11,-232.16 393.15,-226.52 391.59,-233.34"/>
</a>
</g>
</g>
<!-- Node13 -->
<g id="Node000013" class="node">
<title>Node13</title>
<g id="a_Node000013"><a xlink:href="class_big_data_stat_meth_1_1hdf5_dataset.html#a8cce59e2884ad1ee3b67f281566780af" target="_top" xlink:title="Inherit the compression level from an input dataset if not already set.">
<polygon fill="white" stroke="#666666" points="344.38,-165.5 194.12,-165.5 194.12,-135 344.38,-135 344.38,-165.5"/>
<text xml:space="preserve" text-anchor="start" x="202.12" y="-152" font-family="Helvetica,sans-Serif" font-size="10.00">BigDataStatMeth::hdf5Dataset</text>
<text xml:space="preserve" text-anchor="middle" x="269.25" y="-140.75" font-family="Helvetica,sans-Serif" font-size="10.00">::inheritCompressionLevel</text>
</a>
</g>
</g>
<!-- Node1&#45;&gt;Node13 -->
<g id="edge13_Node000001_Node000013" class="edge">
<title>Node1&#45;&gt;Node13</title>
<g id="a_edge13_Node000001_Node000013"><a xlink:title=" ">
<path fill="none" stroke="#63b8ff" d="M155.83,-135.42C164.62,-136.58 173.62,-137.77 182.51,-138.94"/>
<polygon fill="#63b8ff" stroke="#63b8ff" points="181.82,-142.38 192.19,-140.22 182.74,-135.44 181.82,-142.38"/>
</a>
</g>
</g>
<!-- Node14 -->
<g id="Node000014" class="node">
<title>Node14</title>
<g id="a_Node000014"><a xlink:href="namespace_big_data_stat_meth.html#a050dd22b3a20be0b77d4b72fd278a214" target="_top" xlink:title="Eigenvalue decomposition using Spectra (partial, k &lt; n)">
<polygon fill="white" stroke="#666666" points="347,-116.5 191.5,-116.5 191.5,-86 347,-86 347,-116.5"/>
<text xml:space="preserve" text-anchor="start" x="199.5" y="-103" font-family="Helvetica,sans-Serif" font-size="10.00">BigDataStatMeth::RcppbdEigen</text>
<text xml:space="preserve" text-anchor="middle" x="269.25" y="-91.75" font-family="Helvetica,sans-Serif" font-size="10.00">_spectra</text>
</a>
</g>
</g>
<!-- Node1&#45;&gt;Node14 -->
<g id="edge14_Node000001_Node000014" class="edge">
<title>Node1&#45;&gt;Node14</title>
<g id="a_edge14_Node000001_Node000014"><a xlink:title=" ">
<path fill="none" stroke="#63b8ff" d="M155.83,-115.49C163.77,-114.48 171.88,-113.46 179.93,-112.44"/>
<polygon fill="#63b8ff" stroke="#63b8ff" points="180.26,-115.92 189.74,-111.19 179.38,-108.98 180.26,-115.92"/>
</a>
</g>
</g>
<!-- Node18 -->
<g id="Node000018" class="node">
<title>Node18</title>
<g id="a_Node000018"><a xlink:href="namespace_big_data_stat_meth.html#a1cd3f5cf856a0d1bff9e1cf956f368fd" target="_top" xlink:title="Template function for normalizing data with pre&#45;computed statistics.">
<polygon fill="white" stroke="#666666" points="573.75,-67.88 383,-67.88 383,-48.62 573.75,-48.62 573.75,-67.88"/>
<text xml:space="preserve" text-anchor="middle" x="478.38" y="-54.38" font-family="Helvetica,sans-Serif" font-size="10.00">BigDataStatMeth::RcppNormalize_Data</text>
</a>
</g>
</g>
<!-- Node1&#45;&gt;Node18 -->
<g id="edge22_Node000001_Node000018" class="edge">
<title>Node1&#45;&gt;Node18</title>
<g id="a_edge22_Node000001_Node000018"><a xlink:title=" ">
<path fill="none" stroke="#63b8ff" d="M107.96,-109.58C130.2,-98.47 161.91,-84.32 191.5,-77.25 249.88,-63.31 316.74,-58.29 371.11,-56.88"/>
<polygon fill="#63b8ff" stroke="#63b8ff" points="371.08,-60.38 381.01,-56.66 370.93,-53.38 371.08,-60.38"/>
</a>
</g>
</g>
<!-- Node21 -->
<g id="Node000021" class="node">
<title>Node21</title>
<g id="a_Node000021"><a xlink:href="namespace_big_data_stat_meth.html#afb53700b444c5257b41f07f12a84bdaa" target="_top" xlink:title="Validate and adjust Spectra parameters for convergence.">
<polygon fill="white" stroke="#666666" points="543.75,-30.5 413,-30.5 413,0 543.75,0 543.75,-30.5"/>
<text xml:space="preserve" text-anchor="start" x="421" y="-17" font-family="Helvetica,sans-Serif" font-size="10.00">BigDataStatMeth::validate</text>
<text xml:space="preserve" text-anchor="middle" x="478.38" y="-5.75" font-family="Helvetica,sans-Serif" font-size="10.00">SpectraParams</text>
</a>
</g>
</g>
<!-- Node1&#45;&gt;Node21 -->
<g id="edge23_Node000001_Node000021" class="edge">
<title>Node1&#45;&gt;Node21</title>
<g id="a_edge23_Node000001_Node000021"><a xlink:title=" ">
<path fill="none" stroke="#63b8ff" d="M97.76,-109.66C119.16,-93.02 155.63,-67.29 191.5,-54.25 259.8,-29.41 342.5,-20.2 401.34,-16.88"/>
<polygon fill="#63b8ff" stroke="#63b8ff" points="401.46,-20.38 411.27,-16.37 401.1,-13.39 401.46,-20.38"/>
</a>
</g>
</g>
<!-- Node3 -->
<g id="Node000003" class="node">
<title>Node3</title>
<g id="a_Node000003"><a xlink:href="class_big_data_stat_meth_1_1hdf5_dataset.html#ac7a7f23b7e22c9b56ca6ad86592f2d52" target="_top" xlink:title="Add an attribute to the dataset.">
<polygon fill="white" stroke="#666666" points="553.5,-557.5 403.25,-557.5 403.25,-527 553.5,-527 553.5,-557.5"/>
<text xml:space="preserve" text-anchor="start" x="411.25" y="-544" font-family="Helvetica,sans-Serif" font-size="10.00">BigDataStatMeth::hdf5Dataset</text>
<text xml:space="preserve" text-anchor="middle" x="478.38" y="-532.75" font-family="Helvetica,sans-Serif" font-size="10.00">::addAttribute</text>
</a>
</g>
</g>
<!-- Node2&#45;&gt;Node3 -->
<g id="edge2_Node000002_Node000003" class="edge">
<title>Node2&#45;&gt;Node3</title>
<g id="a_edge2_Node000002_Node000003"><a xlink:title=" ">
<path fill="none" stroke="#63b8ff" d="M277.75,-385.85C293.1,-416.07 331.07,-482.65 383,-517.25 386.1,-519.32 389.37,-521.21 392.75,-522.95"/>
<polygon fill="#63b8ff" stroke="#63b8ff" points="391.25,-526.12 401.8,-527.09 394.16,-519.75 391.25,-526.12"/>
</a>
</g>
</g>
<!-- Node4 -->
<g id="Node000004" class="node">
<title>Node4</title>
<g id="a_Node000004"><a xlink:href="class_big_data_stat_meth_1_1hdf5_file.html#abfb73b5f1eb25ee00489485c8dc56a2a" target="_top" xlink:title="Close file and cleanup resources.">
<polygon fill="white" stroke="#666666" points="544.12,-508.5 412.62,-508.5 412.62,-478 544.12,-478 544.12,-508.5"/>
<text xml:space="preserve" text-anchor="start" x="420.62" y="-495" font-family="Helvetica,sans-Serif" font-size="10.00">BigDataStatMeth::hdf5File</text>
<text xml:space="preserve" text-anchor="middle" x="478.38" y="-483.75" font-family="Helvetica,sans-Serif" font-size="10.00">::close_file</text>
</a>
</g>
</g>
<!-- Node2&#45;&gt;Node4 -->
<g id="edge3_Node000002_Node000004" class="edge">
<title>Node2&#45;&gt;Node4</title>
<g id="a_edge3_Node000002_Node000004"><a xlink:title=" ">
<path fill="none" stroke="#63b8ff" d="M283.91,-385.98C303.63,-407.7 342.21,-446.64 383,-468.25 389,-471.43 395.42,-474.22 402,-476.68"/>
<polygon fill="#63b8ff" stroke="#63b8ff" points="400.4,-479.82 410.99,-479.77 402.67,-473.21 400.4,-479.82"/>
</a>
</g>
</g>
<!-- Node5 -->
<g id="Node000005" class="node">
<title>Node5</title>
<g id="a_Node000005"><a xlink:href="class_big_data_stat_meth_1_1hdf5_group.html#a27cef4d33e46c72bfd792aa49fa621a3" target="_top" xlink:title="Create multiple nested groups.">
<polygon fill="white" stroke="#666666" points="549.38,-459.5 407.38,-459.5 407.38,-429 549.38,-429 549.38,-459.5"/>
<text xml:space="preserve" text-anchor="start" x="415.38" y="-446" font-family="Helvetica,sans-Serif" font-size="10.00">BigDataStatMeth::hdf5Group</text>
<text xml:space="preserve" text-anchor="middle" x="478.38" y="-434.75" font-family="Helvetica,sans-Serif" font-size="10.00">::create_HDF5_groups</text>
</a>
</g>
</g>
<!-- Node2&#45;&gt;Node5 -->
<g id="edge4_Node000002_Node000005" class="edge">
<title>Node2&#45;&gt;Node5</title>
<g id="a_edge4_Node000002_Node000005"><a xlink:title=" ">
<path fill="none" stroke="#63b8ff" d="M302.78,-385.95C325.03,-396.29 355.38,-409.65 383,-419.25 389.1,-421.37 395.48,-423.41 401.92,-425.36"/>
<polygon fill="#63b8ff" stroke="#63b8ff" points="400.73,-428.66 411.31,-428.1 402.69,-421.94 400.73,-428.66"/>
</a>
</g>
</g>
<!-- Node7 -->
<g id="Node000007" class="node">
<title>Node7</title>
<g id="a_Node000007"><a xlink:href="namespace_big_data_stat_meth.html#a89d901ab4b5e01771f4e3fc7dc84e50e" target="_top" xlink:title="Checks if an HDF5 element (group or dataset) exists.">
<polygon fill="white" stroke="#666666" points="540,-410.5 416.75,-410.5 416.75,-380 540,-380 540,-410.5"/>
<text xml:space="preserve" text-anchor="start" x="424.75" y="-397" font-family="Helvetica,sans-Serif" font-size="10.00">BigDataStatMeth::exists</text>
<text xml:space="preserve" text-anchor="middle" x="478.38" y="-385.75" font-family="Helvetica,sans-Serif" font-size="10.00">_HDF5_element</text>
</a>
</g>
</g>
<!-- Node2&#45;&gt;Node7 -->
<g id="edge6_Node000002_Node000007" class="edge">
<title>Node2&#45;&gt;Node7</title>
<g id="a_edge6_Node000002_Node000007"><a xlink:title=" ">
<path fill="none" stroke="#63b8ff" d="M344.73,-379.24C364.42,-381.62 385.62,-384.18 405.18,-386.54"/>
<polygon fill="#63b8ff" stroke="#63b8ff" points="404.63,-389.99 414.98,-387.72 405.47,-383.05 404.63,-389.99"/>
</a>
</g>
</g>
<!-- Node8 -->
<g id="Node000008" class="node">
<title>Node8</title>
<g id="a_Node000008"><a xlink:href="class_big_data_stat_meth_1_1hdf5_group.html#a59995412538627e6c80f64b552c286f5" target="_top" xlink:title=" ">
<polygon fill="white" stroke="#666666" points="549.38,-361.5 407.38,-361.5 407.38,-331 549.38,-331 549.38,-361.5"/>
<text xml:space="preserve" text-anchor="start" x="415.38" y="-348" font-family="Helvetica,sans-Serif" font-size="10.00">BigDataStatMeth::hdf5Group</text>
<text xml:space="preserve" text-anchor="middle" x="478.38" y="-336.75" font-family="Helvetica,sans-Serif" font-size="10.00">::getGroupName</text>
</a>
</g>
</g>
<!-- Node2&#45;&gt;Node8 -->
<g id="edge8_Node000002_Node000008" class="edge">
<title>Node2&#45;&gt;Node8</title>
<g id="a_edge8_Node000002_Node000008"><a xlink:title=" ">
<path fill="none" stroke="#63b8ff" d="M344.73,-361.62C361.38,-359.69 379.12,-357.63 396.03,-355.68"/>
<polygon fill="#63b8ff" stroke="#63b8ff" points="395.97,-359.21 405.5,-354.58 395.17,-352.25 395.97,-359.21"/>
</a>
</g>
</g>
<!-- Node9 -->
<g id="Node000009" class="node">
<title>Node9</title>
<g id="a_Node000009"><a xlink:href="namespace_big_data_stat_meth.html#a3d06783149029f1df2853c472d401380" target="_top" xlink:title="Removes multiple elements from an HDF5 file.">
<polygon fill="white" stroke="#666666" points="543,-312.5 413.75,-312.5 413.75,-282 543,-282 543,-312.5"/>
<text xml:space="preserve" text-anchor="start" x="421.75" y="-299" font-family="Helvetica,sans-Serif" font-size="10.00">BigDataStatMeth::remove</text>
<text xml:space="preserve" text-anchor="middle" x="478.38" y="-287.75" font-family="Helvetica,sans-Serif" font-size="10.00">_elements</text>
</a>
</g>
</g>
<!-- Node2&#45;&gt;Node9 -->
<g id="edge9_Node000002_Node000009" class="edge">
<title>Node2&#45;&gt;Node9</title>
<g id="a_edge9_Node000002_Node000009"><a xlink:title=" ">
<path fill="none" stroke="#63b8ff" d="M303.31,-354.69C325.52,-344.61 355.63,-331.65 383,-322.25 389.21,-320.12 395.71,-318.06 402.26,-316.1"/>
<polygon fill="#63b8ff" stroke="#63b8ff" points="403.21,-319.46 411.84,-313.32 401.26,-312.74 403.21,-319.46"/>
</a>
</g>
</g>
<!-- Node2&#45;&gt;Node10 -->
<g id="edge10_Node000002_Node000010" class="edge">
<title>Node2&#45;&gt;Node10</title>
<g id="a_edge10_Node000002_Node000010"><a xlink:title=" ">
<path fill="none" stroke="#63b8ff" d="M283.95,-354.69C303.71,-333.2 342.33,-294.67 383,-273.25 386.48,-271.42 390.1,-269.71 393.82,-268.13"/>
<polygon fill="#63b8ff" stroke="#63b8ff" points="395.03,-271.41 403.07,-264.51 392.48,-264.89 395.03,-271.41"/>
</a>
</g>
</g>
<!-- Node6 -->
<g id="Node000006" class="node">
<title>Node6</title>
<g id="a_Node000006"><a xlink:href="namespace_big_data_stat_meth.html#abcaa4216cd52f03ebac42e4855ef846b" target="_top" xlink:title="Checks if a path exists in an HDF5 file.">
<polygon fill="white" stroke="#666666" points="767.12,-428.88 623.62,-428.88 623.62,-409.62 767.12,-409.62 767.12,-428.88"/>
<text xml:space="preserve" text-anchor="middle" x="695.38" y="-415.38" font-family="Helvetica,sans-Serif" font-size="10.00">BigDataStatMeth::pathExists</text>
</a>
</g>
</g>
<!-- Node5&#45;&gt;Node6 -->
<g id="edge5_Node000005_Node000006" class="edge">
<title>Node5&#45;&gt;Node6</title>
<g id="a_edge5_Node000005_Node000006"><a xlink:title=" ">
<path fill="none" stroke="#63b8ff" d="M549.77,-436.06C569.72,-433.75 591.6,-431.2 612.18,-428.81"/>
<polygon fill="#63b8ff" stroke="#63b8ff" points="612.42,-432.3 621.95,-427.67 611.61,-425.35 612.42,-432.3"/>
</a>
</g>
</g>
<!-- Node7&#45;&gt;Node6 -->
<g id="edge7_Node000007_Node000006" class="edge">
<title>Node7&#45;&gt;Node6</title>
<g id="a_edge7_Node000007_Node000006"><a xlink:title=" ">
<path fill="none" stroke="#63b8ff" d="M540.41,-402.06C562.7,-404.55 588.3,-407.41 612.13,-410.07"/>
<polygon fill="#63b8ff" stroke="#63b8ff" points="611.47,-413.52 621.8,-411.15 612.25,-406.56 611.47,-413.52"/>
</a>
</g>
</g>
<!-- Node11 -->
<g id="Node000011" class="node">
<title>Node11</title>
<g id="a_Node000011"><a xlink:href="class_big_data_stat_meth_1_1hdf5_dataset.html#aba39e56a580d3b1fa7f1619fc72efa3e" target="_top" xlink:title="Close dataset and file.">
<polygon fill="white" stroke="#666666" points="770.5,-238.5 620.25,-238.5 620.25,-208 770.5,-208 770.5,-238.5"/>
<text xml:space="preserve" text-anchor="start" x="628.25" y="-225" font-family="Helvetica,sans-Serif" font-size="10.00">BigDataStatMeth::hdf5Dataset</text>
<text xml:space="preserve" text-anchor="middle" x="695.38" y="-213.75" font-family="Helvetica,sans-Serif" font-size="10.00">::close_dataset_file</text>
</a>
</g>
</g>
<!-- Node10&#45;&gt;Node11 -->
<g id="edge11_Node000010_Node000011" class="edge">
<title>Node10&#45;&gt;Node11</title>
<g id="a_edge11_Node000010_Node000011"><a xlink:title=" ">
<path fill="none" stroke="#63b8ff" d="M553.97,-239.58C571.56,-237.53 590.46,-235.33 608.5,-233.24"/>
<polygon fill="#63b8ff" stroke="#63b8ff" points="608.88,-236.71 618.41,-232.08 608.07,-229.76 608.88,-236.71"/>
</a>
</g>
</g>
<!-- Node12 -->
<g id="Node000012" class="node">
<title>Node12</title>
<g id="a_Node000012"><a xlink:href="class_big_data_stat_meth_1_1hdf5_dataset.html#a94d81b72e92cb0230b4e64f37ea7d2e3" target="_top" xlink:title="Convert DataFrame to range list.">
<polygon fill="white" stroke="#666666" points="781,-287.5 609.75,-287.5 609.75,-257 781,-257 781,-287.5"/>
<text xml:space="preserve" text-anchor="start" x="617.75" y="-274" font-family="Helvetica,sans-Serif" font-size="10.00">BigDataStatMeth::hdf5Dataset</text>
<text xml:space="preserve" text-anchor="middle" x="695.38" y="-262.75" font-family="Helvetica,sans-Serif" font-size="10.00">::convert_DataFrame_to_RangeList</text>
</a>
</g>
</g>
<!-- Node10&#45;&gt;Node12 -->
<g id="edge12_Node000010_Node000012" class="edge">
<title>Node10&#45;&gt;Node12</title>
<g id="a_edge12_Node000010_Node000012"><a xlink:title=" ">
<path fill="none" stroke="#63b8ff" d="M553.97,-256.58C568.27,-258.17 583.44,-259.87 598.31,-261.53"/>
<polygon fill="#63b8ff" stroke="#63b8ff" points="597.77,-264.99 608.09,-262.62 598.54,-258.03 597.77,-264.99"/>
</a>
</g>
</g>
<!-- Node15 -->
<g id="Node000015" class="node">
<title>Node15</title>
<g id="a_Node000015"><a xlink:href="namespace_big_data_stat_meth.html#a5fd46170e425b1ced11e76acc7b84500" target="_top" xlink:title="Convert &#39;which&#39; string to Spectra SortRule for general matrices.">
<polygon fill="white" stroke="#666666" points="550.5,-214.5 406.25,-214.5 406.25,-184 550.5,-184 550.5,-214.5"/>
<text xml:space="preserve" text-anchor="start" x="414.25" y="-201" font-family="Helvetica,sans-Serif" font-size="10.00">BigDataStatMeth::getGeneral</text>
<text xml:space="preserve" text-anchor="middle" x="478.38" y="-189.75" font-family="Helvetica,sans-Serif" font-size="10.00">SortRule</text>
</a>
</g>
</g>
<!-- Node14&#45;&gt;Node15 -->
<g id="edge15_Node000014_Node000015" class="edge">
<title>Node14&#45;&gt;Node15</title>
<g id="a_edge15_Node000014_Node000015"><a xlink:title=" ">
<path fill="none" stroke="#63b8ff" d="M330.66,-116.91C336.43,-119.57 341.99,-122.66 347,-126.25 368.69,-141.77 360.89,-159.34 383,-174.25 386.95,-176.91 391.18,-179.3 395.56,-181.42"/>
<polygon fill="#63b8ff" stroke="#63b8ff" points="394.09,-184.6 404.66,-185.34 396.86,-178.17 394.09,-184.6"/>
</a>
</g>
</g>
<!-- Node16 -->
<g id="Node000016" class="node">
<title>Node16</title>
<g id="a_Node000016"><a xlink:href="namespace_big_data_stat_meth.html#af5dbdeb2f9d2e495e161b05ff5d7f6f1" target="_top" xlink:title="Convert &#39;which&#39; string to Spectra SortRule for symmetric matrices.">
<polygon fill="white" stroke="#666666" points="557.25,-165.5 399.5,-165.5 399.5,-135 557.25,-135 557.25,-165.5"/>
<text xml:space="preserve" text-anchor="start" x="407.5" y="-152" font-family="Helvetica,sans-Serif" font-size="10.00">BigDataStatMeth::getSymmetric</text>
<text xml:space="preserve" text-anchor="middle" x="478.38" y="-140.75" font-family="Helvetica,sans-Serif" font-size="10.00">SortRule</text>
</a>
</g>
</g>
<!-- Node14&#45;&gt;Node16 -->
<g id="edge16_Node000014_Node000016" class="edge">
<title>Node14&#45;&gt;Node16</title>
<g id="a_edge16_Node000014_Node000016"><a xlink:title=" ">
<path fill="none" stroke="#63b8ff" d="M336.64,-116.96C356.8,-121.73 379.13,-127.01 399.95,-131.93"/>
<polygon fill="#63b8ff" stroke="#63b8ff" points="399,-135.3 409.53,-134.2 400.61,-128.49 399,-135.3"/>
</a>
</g>
</g>
<!-- Node17 -->
<g id="Node000017" class="node">
<title>Node17</title>
<g id="a_Node000017"><a xlink:href="namespace_big_data_stat_meth.html#a45e2b926781664ca98be48c1bce0379c" target="_top" xlink:title="Matrix symmetry detection.">
<polygon fill="white" stroke="#666666" points="544.12,-116.5 412.62,-116.5 412.62,-86 544.12,-86 544.12,-116.5"/>
<text xml:space="preserve" text-anchor="start" x="420.62" y="-103" font-family="Helvetica,sans-Serif" font-size="10.00">BigDataStatMeth::isMatrix</text>
<text xml:space="preserve" text-anchor="middle" x="478.38" y="-91.75" font-family="Helvetica,sans-Serif" font-size="10.00">Symmetric</text>
</a>
</g>
</g>
<!-- Node14&#45;&gt;Node17 -->
<g id="edge17_Node000014_Node000017" class="edge">
<title>Node14&#45;&gt;Node17</title>
<g id="a_edge17_Node000014_Node000017"><a xlink:title=" ">
<path fill="none" stroke="#63b8ff" d="M347.38,-101.25C364.92,-101.25 383.56,-101.25 401.07,-101.25"/>
<polygon fill="#63b8ff" stroke="#63b8ff" points="400.89,-104.75 410.89,-101.25 400.89,-97.75 400.89,-104.75"/>
</a>
</g>
</g>
<!-- Node14&#45;&gt;Node18 -->
<g id="edge18_Node000014_Node000018" class="edge">
<title>Node14&#45;&gt;Node18</title>
<g id="a_edge18_Node000014_Node000018"><a xlink:title=" ">
<path fill="none" stroke="#63b8ff" d="M343.61,-85.51C356.72,-82.73 370.26,-79.89 383,-77.25 393.57,-75.06 404.81,-72.77 415.71,-70.56"/>
<polygon fill="#63b8ff" stroke="#63b8ff" points="416.31,-74.01 425.42,-68.6 414.93,-67.15 416.31,-74.01"/>
</a>
</g>
</g>
<!-- Node14&#45;&gt;Node21 -->
<g id="edge21_Node000014_Node000021" class="edge">
<title>Node14&#45;&gt;Node21</title>
<g id="a_edge21_Node000014_Node000021"><a xlink:title=" ">
<path fill="none" stroke="#63b8ff" d="M294.44,-85.58C316.7,-71.75 351,-51.88 383,-39.25 389.04,-36.86 395.4,-34.65 401.84,-32.62"/>
<polygon fill="#63b8ff" stroke="#63b8ff" points="402.69,-36.02 411.27,-29.8 400.68,-29.31 402.69,-36.02"/>
</a>
</g>
</g>
<!-- Node19 -->
<g id="Node000019" class="node">
<title>Node19</title>
<g id="a_Node000019"><a xlink:href="namespace_big_data_stat_meth.html#aaac3a1d91c92fdf91f7bbc256672b68e" target="_top" xlink:title="Column&#45;wise normalization with pre&#45;computed statistics.">
<polygon fill="white" stroke="#666666" points="777.62,-48.5 613.12,-48.5 613.12,-18 777.62,-18 777.62,-48.5"/>
<text xml:space="preserve" text-anchor="start" x="621.12" y="-35" font-family="Helvetica,sans-Serif" font-size="10.00">BigDataStatMeth::RcppNormalize</text>
<text xml:space="preserve" text-anchor="middle" x="695.38" y="-23.75" font-family="Helvetica,sans-Serif" font-size="10.00">Colwise</text>
</a>
</g>
</g>
<!-- Node18&#45;&gt;Node19 -->
<g id="edge19_Node000018_Node000019" class="edge">
<title>Node18&#45;&gt;Node19</title>
<g id="a_edge19_Node000018_Node000019"><a xlink:title=" ">
<path fill="none" stroke="#63b8ff" d="M566.2,-48.15C577.86,-46.8 589.86,-45.4 601.61,-44.04"/>
<polygon fill="#63b8ff" stroke="#63b8ff" points="601.76,-47.54 611.29,-42.91 600.95,-40.59 601.76,-47.54"/>
</a>
</g>
</g>
<!-- Node20 -->
<g id="Node000020" class="node">
<title>Node20</title>
<g id="a_Node000020"><a xlink:href="namespace_big_data_stat_meth.html#a44b65a910276a5b61d0c3877b810eaeb" target="_top" xlink:title=" ">
<polygon fill="white" stroke="#666666" points="777.62,-97.5 613.12,-97.5 613.12,-67 777.62,-67 777.62,-97.5"/>
<text xml:space="preserve" text-anchor="start" x="621.12" y="-84" font-family="Helvetica,sans-Serif" font-size="10.00">BigDataStatMeth::RcppNormalize</text>
<text xml:space="preserve" text-anchor="middle" x="695.38" y="-72.75" font-family="Helvetica,sans-Serif" font-size="10.00">Rowwise</text>
</a>
</g>
</g>
<!-- Node18&#45;&gt;Node20 -->
<g id="edge20_Node000018_Node000020" class="edge">
<title>Node18&#45;&gt;Node20</title>
<g id="a_edge20_Node000018_Node000020"><a xlink:title=" ">
<path fill="none" stroke="#63b8ff" d="M569.93,-68.36C580.38,-69.53 591.05,-70.72 601.53,-71.89"/>
<polygon fill="#63b8ff" stroke="#63b8ff" points="600.98,-75.35 611.31,-72.98 601.76,-68.39 600.98,-75.35"/>
</a>
</g>
</g>
</g>
</svg>

<g id="navigator" transform="translate(0 0)" fill="#404254">
  <rect fill="#f2f5e9" fill-opacity="0.5" stroke="#606060" stroke-width=".5" x="0" y="0" width="60" height="60"/>
  <use id="zoomplus" xlink:href="#zoomPlus" x="17" y="9" onmousedown="handleZoom(evt,'in')"/>
  <use id="zoomminus" xlink:href="#zoomMin" x="42" y="9" onmousedown="handleZoom(evt,'out')"/>
  <use id="reset" xlink:href="#resetDef" x="30" y="36" onmousedown="handleReset()"/>
   <use id="arrowup" xlink:href="#arrowUp" x="0" y="0" onmousedown="handlePan(0,-1)"/>
  <use id="arrowright" xlink:href="#arrowRight" x="0" y="0" onmousedown="handlePan(1,0)"/>
  <use id="arrowdown" xlink:href="#arrowDown" x="0" y="0" onmousedown="handlePan(0,1)"/>
  <use id="arrowleft" xlink:href="#arrowLeft" x="0" y="0" onmousedown="handlePan(-1,0)"/>
</g>
<svg viewBox="0 0 15 15" width="100%" height="30px" preserveAspectRatio="xMaxYMin meet">
 <g id="arrow_out" transform="scale(0.3 0.3)">
  <a xlink:href="namespace_big_data_stat_meth_af27025105c7f4730a8233cf325613694_cgraph_org.svg" target="_base">
   <rect id="button" ry="5" rx="5" y="6" x="6" height="38" width="38"
        fill="#f2f5e9" fill-opacity="0.5" stroke="#606060" stroke-width="1.0"/>
   <path id="arrow"
     d="M 11.500037,31.436501 C 11.940474,20.09759 22.043105,11.32322 32.158766,21.979434 L 37.068811,17.246167 C 37.068811,17.246167 37.088388,32 37.088388,32 L 22.160133,31.978069 C 22.160133,31.978069 26.997745,27.140456 26.997745,27.140456 C 18.528582,18.264221 13.291696,25.230495 11.500037,31.436501 z"
     style="fill:#404040;"/>
  </a>
 </g>
</svg>

<style type='text/css'>
<![CDATA[
[data-mouse-over-selected='false'] { opacity: 0.7; }
[data-mouse-over-selected='true']  { opacity: 1.0; }
]]>
</style>
<script type="application/ecmascript"><![CDATA[
document.addEventListener('DOMContentLoaded', (event) => {
  highlightEdges();
  highlightAdjacentNodes();
});
]]></script>
</svg>
