<?xml version="1.0" encoding="UTF-8" standalone="no"?>
<!DOCTYPE svg PUBLIC "-//W3C//DTD SVG 1.1//EN"
 "http://www.w3.org/Graphics/SVG/1.1/DTD/svg11.dtd">
<!-- Generated by graphviz version 14.0.0 (20250921.2048)
 -->
<!-- Title: BigDataStatMeth::RcppbdCorr_matrix_cross Pages: 1 -->
<!--zoomable 125 -->

<svg id="main" version="1.1" xmlns="http://www.w3.org/2000/svg" xmlns:xlink="http://www.w3.org/1999/xlink" xml:space="preserve" onload="init(evt)">

<style type="text/css"><![CDATA[
.node, .edge {opacity: 0.7;}
.node.selected, .edge.selected {opacity: 1;}
.edge:hover path { stroke: red; }
.edge:hover polygon { stroke: red; fill: red; }
]]></style>

<defs>
  <circle id="rim" cx="0" cy="0" r="7"/>
  <circle id="rim2" cx="0" cy="0" r="3.5"/>
  <g id="zoomPlus">
    <use xlink:href="#rim" fill="#404040"><set attributeName="fill" to="#808080" begin="zoomplus.mouseover" end="zoomplus.mouseout"/></use>
    <path d="M-4,0h8M0,-4v8" fill="none" stroke="white" stroke-width="1.5" pointer-events="none"/>
  </g>
  <g id="zoomMin">
    <use xlink:href="#rim" fill="#404040"><set attributeName="fill" to="#808080" begin="zoomminus.mouseover" end="zoomminus.mouseout"/></use>
    <path d="M-4,0h8" fill="none" stroke="white" stroke-width="1.5" pointer-events="none"/>
  </g>
  <g id="arrowUp" transform="translate(30 24)">
    <use xlink:href="#rim"/>
    <path pointer-events="none" fill="none" stroke="white" stroke-width="1.5" d="M0,-3.0v7 M-2.5,-0.5L0,-3.0L2.5,-0.5"/>
  </g>
  <g id="arrowRight" transform="rotate(90) translate(36 -43)">
    <use xlink:href="#rim"/>
    <path pointer-events="none" fill="none" stroke="white" stroke-width="1.5" d="M0,-3.0v7 M-2.5,-0.5L0,-3.0L2.5,-0.5"/>
  </g>
  <g id="arrowDown" transform="rotate(180) translate(-30 -48)">
    <use xlink:href="#rim"/>
    <path pointer-events="none" fill="none" stroke="white" stroke-width="1.5" d="M0,-3.0v7 M-2.5,-0.5L0,-3.0L2.5,-0.5"/>
  </g>
  <g id="arrowLeft" transform="rotate(270) translate(-36 17)">
    <use xlink:href="#rim"/>
    <path pointer-events="none" fill="none" stroke="white" stroke-width="1.5" d="M0,-3.0v7 M-2.5,-0.5L0,-3.0L2.5,-0.5"/>
  </g>
  <g id="resetDef">
    <use xlink:href="#rim2" fill="#404040"><set attributeName="fill" to="#808080" begin="reset.mouseover" end="reset.mouseout"/></use>
  </g>
</defs>
<script type="application/ecmascript">
var viewWidth = 501;
var viewHeight = 125;
var sectionId = 'dynsection-130';
</script>
<script type="application/ecmascript" xlink:href="../../../../assets/svg.min.js"/>
<svg id="graph" class="graph">
<g id="viewport">
<title>BigDataStatMeth::RcppbdCorr_matrix_cross</title>
<!-- Node1 -->
<g id="Node000001" class="node">
<title>Node1</title>
<g id="a_Node000001"><a xlink:title=" ">
<polygon fill="#999999" stroke="#666666" points="149.5,-73.5 0,-73.5 0,-43 149.5,-43 149.5,-73.5"/>
<text xml:space="preserve" text-anchor="start" x="8" y="-60" font-family="Helvetica,sans-Serif" font-size="10.00">BigDataStatMeth::RcppbdCorr</text>
<text xml:space="preserve" text-anchor="middle" x="74.75" y="-48.75" font-family="Helvetica,sans-Serif" font-size="10.00">_matrix_cross</text>
</a>
</g>
</g>
<!-- Node2 -->
<g id="Node000002" class="node">
<title>Node2</title>
<g id="a_Node000002"><a xlink:href="namespace_big_data_stat_meth.html#a548baec51dfdb0481a3632cc50faed4c" target="_top" xlink:title="Optimized p&#45;value computation for correlation matrices using Eigen.">
<polygon fill="white" stroke="#666666" points="322.62,-116.5 188.12,-116.5 188.12,-86 322.62,-86 322.62,-116.5"/>
<text xml:space="preserve" text-anchor="start" x="196.12" y="-103" font-family="Helvetica,sans-Serif" font-size="10.00">BigDataStatMeth::compute</text>
<text xml:space="preserve" text-anchor="middle" x="255.38" y="-91.75" font-family="Helvetica,sans-Serif" font-size="10.00">_pvalues_optimized</text>
</a>
</g>
</g>
<!-- Node1&#45;&gt;Node2 -->
<g id="edge1_Node000001_Node000002" class="edge">
<title>Node1&#45;&gt;Node2</title>
<g id="a_edge1_Node000001_Node000002"><a xlink:title=" ">
<path fill="none" stroke="#63b8ff" d="M141,-73.96C152.98,-76.84 165.58,-79.87 177.85,-82.83"/>
<polygon fill="#63b8ff" stroke="#63b8ff" points="176.99,-86.22 187.54,-85.16 178.63,-79.42 176.99,-86.22"/>
</a>
</g>
</g>
<!-- Node4 -->
<g id="Node000004" class="node">
<title>Node4</title>
<g id="a_Node000004"><a xlink:href="namespace_big_data_stat_meth.html#a69e49b89327966eb689525e63dea8656" target="_top" xlink:title=" ">
<polygon fill="white" stroke="#666666" points="492.75,-49.5 361.25,-49.5 361.25,-19 492.75,-19 492.75,-49.5"/>
<text xml:space="preserve" text-anchor="start" x="369.25" y="-36" font-family="Helvetica,sans-Serif" font-size="10.00">BigDataStatMeth::pearson</text>
<text xml:space="preserve" text-anchor="middle" x="427" y="-24.75" font-family="Helvetica,sans-Serif" font-size="10.00">_correlation</text>
</a>
</g>
</g>
<!-- Node1&#45;&gt;Node4 -->
<g id="edge3_Node000001_Node000004" class="edge">
<title>Node1&#45;&gt;Node4</title>
<g id="a_edge3_Node000001_Node000004"><a xlink:title=" ">
<path fill="none" stroke="#63b8ff" d="M149.6,-53.19C208.33,-49.16 290.22,-43.55 349.61,-39.48"/>
<polygon fill="#63b8ff" stroke="#63b8ff" points="349.55,-43 359.29,-38.82 349.07,-36.01 349.55,-43"/>
</a>
</g>
</g>
<!-- Node5 -->
<g id="Node000005" class="node">
<title>Node5</title>
<g id="a_Node000005"><a xlink:href="namespace_big_data_stat_meth.html#a73e0308254294ed4603750e0595b9802" target="_top" xlink:title=" ">
<polygon fill="white" stroke="#666666" points="325.25,-30.5 185.5,-30.5 185.5,0 325.25,0 325.25,-30.5"/>
<text xml:space="preserve" text-anchor="start" x="193.5" y="-17" font-family="Helvetica,sans-Serif" font-size="10.00">BigDataStatMeth::spearman</text>
<text xml:space="preserve" text-anchor="middle" x="255.38" y="-5.75" font-family="Helvetica,sans-Serif" font-size="10.00">_correlation</text>
</a>
</g>
</g>
<!-- Node1&#45;&gt;Node5 -->
<g id="edge4_Node000001_Node000005" class="edge">
<title>Node1&#45;&gt;Node5</title>
<g id="a_edge4_Node000001_Node000005"><a xlink:title=" ">
<path fill="none" stroke="#63b8ff" d="M141,-42.54C152.98,-39.66 165.58,-36.63 177.85,-33.67"/>
<polygon fill="#63b8ff" stroke="#63b8ff" points="178.63,-37.08 187.54,-31.34 176.99,-30.28 178.63,-37.08"/>
</a>
</g>
</g>
<!-- Node3 -->
<g id="Node000003" class="node">
<title>Node3</title>
<g id="a_Node000003"><a xlink:href="namespace_big_data_stat_meth.html#a58690697a1eec1b3feefdc089d056905" target="_top" xlink:title="Compute p&#45;value for correlation coefficient using t&#45;distribution.">
<polygon fill="white" stroke="#666666" points="477,-116.5 377,-116.5 377,-86 477,-86 477,-116.5"/>
<text xml:space="preserve" text-anchor="start" x="385" y="-103" font-family="Helvetica,sans-Serif" font-size="10.00">BigDataStatMeth::t</text>
<text xml:space="preserve" text-anchor="middle" x="427" y="-91.75" font-family="Helvetica,sans-Serif" font-size="10.00">_distribution_cdf</text>
</a>
</g>
</g>
<!-- Node2&#45;&gt;Node3 -->
<g id="edge2_Node000002_Node000003" class="edge">
<title>Node2&#45;&gt;Node3</title>
<g id="a_edge2_Node000002_Node000003"><a xlink:title=" ">
<path fill="none" stroke="#63b8ff" d="M322.93,-101.25C336.92,-101.25 351.61,-101.25 365.38,-101.25"/>
<polygon fill="#63b8ff" stroke="#63b8ff" points="365.17,-104.75 375.17,-101.25 365.17,-97.75 365.17,-104.75"/>
</a>
</g>
</g>
<!-- Node5&#45;&gt;Node4 -->
<g id="edge5_Node000005_Node000004" class="edge">
<title>Node5&#45;&gt;Node4</title>
<g id="a_edge5_Node000005_Node000004"><a xlink:title=" ">
<path fill="none" stroke="#63b8ff" d="M325.37,-22.98C333.35,-23.87 341.52,-24.79 349.59,-25.69"/>
<polygon fill="#63b8ff" stroke="#63b8ff" points="349.07,-29.15 359.4,-26.79 349.85,-22.2 349.07,-29.15"/>
</a>
</g>
</g>
</g>
</svg>

<g id="navigator" transform="translate(0 0)" fill="#404254">
  <rect fill="#f2f5e9" fill-opacity="0.5" stroke="#606060" stroke-width=".5" x="0" y="0" width="60" height="60"/>
  <use id="zoomplus" xlink:href="#zoomPlus" x="17" y="9" onmousedown="handleZoom(evt,'in')"/>
  <use id="zoomminus" xlink:href="#zoomMin" x="42" y="9" onmousedown="handleZoom(evt,'out')"/>
  <use id="reset" xlink:href="#resetDef" x="30" y="36" onmousedown="handleReset()"/>
   <use id="arrowup" xlink:href="#arrowUp" x="0" y="0" onmousedown="handlePan(0,-1)"/>
  <use id="arrowright" xlink:href="#arrowRight" x="0" y="0" onmousedown="handlePan(1,0)"/>
  <use id="arrowdown" xlink:href="#arrowDown" x="0" y="0" onmousedown="handlePan(0,1)"/>
  <use id="arrowleft" xlink:href="#arrowLeft" x="0" y="0" onmousedown="handlePan(-1,0)"/>
</g>
<svg viewBox="0 0 15 15" width="100%" height="30px" preserveAspectRatio="xMaxYMin meet">
 <g id="arrow_out" transform="scale(0.3 0.3)">
  <a xlink:href="namespace_big_data_stat_meth_a2b1f04e3acc28ab46d0bc32c12d9f642_cgraph_org.svg" target="_base">
   <rect id="button" ry="5" rx="5" y="6" x="6" height="38" width="38"
        fill="#f2f5e9" fill-opacity="0.5" stroke="#606060" stroke-width="1.0"/>
   <path id="arrow"
     d="M 11.500037,31.436501 C 11.940474,20.09759 22.043105,11.32322 32.158766,21.979434 L 37.068811,17.246167 C 37.068811,17.246167 37.088388,32 37.088388,32 L 22.160133,31.978069 C 22.160133,31.978069 26.997745,27.140456 26.997745,27.140456 C 18.528582,18.264221 13.291696,25.230495 11.500037,31.436501 z"
     style="fill:#404040;"/>
  </a>
 </g>
</svg>

<style type='text/css'>
<![CDATA[
[data-mouse-over-selected='false'] { opacity: 0.7; }
[data-mouse-over-selected='true']  { opacity: 1.0; }
]]>
</style>
<script type="application/ecmascript"><![CDATA[
document.addEventListener('DOMContentLoaded', (event) => {
  highlightEdges();
  highlightAdjacentNodes();
});
]]></script>
</svg>
