<?xml version="1.0" encoding="UTF-8" standalone="no"?>
<!DOCTYPE svg PUBLIC "-//W3C//DTD SVG 1.1//EN"
 "http://www.w3.org/Graphics/SVG/1.1/DTD/svg11.dtd">
<!-- Generated by graphviz version 14.0.0 (20250921.2048)
 -->
<!-- Title: BigDataStatMeth::Rcpp_Import_File_to_hdf5 Pages: 1 -->
<!--zoomable 480 -->

<svg id="main" version="1.1" xmlns="http://www.w3.org/2000/svg" xmlns:xlink="http://www.w3.org/1999/xlink" xml:space="preserve" onload="init(evt)">

<style type="text/css"><![CDATA[
.node, .edge {opacity: 0.7;}
.node.selected, .edge.selected {opacity: 1;}
.edge:hover path { stroke: red; }
.edge:hover polygon { stroke: red; fill: red; }
]]></style>

<defs>
  <circle id="rim" cx="0" cy="0" r="7"/>
  <circle id="rim2" cx="0" cy="0" r="3.5"/>
  <g id="zoomPlus">
    <use xlink:href="#rim" fill="#404040"><set attributeName="fill" to="#808080" begin="zoomplus.mouseover" end="zoomplus.mouseout"/></use>
    <path d="M-4,0h8M0,-4v8" fill="none" stroke="white" stroke-width="1.5" pointer-events="none"/>
  </g>
  <g id="zoomMin">
    <use xlink:href="#rim" fill="#404040"><set attributeName="fill" to="#808080" begin="zoomminus.mouseover" end="zoomminus.mouseout"/></use>
    <path d="M-4,0h8" fill="none" stroke="white" stroke-width="1.5" pointer-events="none"/>
  </g>
  <g id="arrowUp" transform="translate(30 24)">
    <use xlink:href="#rim"/>
    <path pointer-events="none" fill="none" stroke="white" stroke-width="1.5" d="M0,-3.0v7 M-2.5,-0.5L0,-3.0L2.5,-0.5"/>
  </g>
  <g id="arrowRight" transform="rotate(90) translate(36 -43)">
    <use xlink:href="#rim"/>
    <path pointer-events="none" fill="none" stroke="white" stroke-width="1.5" d="M0,-3.0v7 M-2.5,-0.5L0,-3.0L2.5,-0.5"/>
  </g>
  <g id="arrowDown" transform="rotate(180) translate(-30 -48)">
    <use xlink:href="#rim"/>
    <path pointer-events="none" fill="none" stroke="white" stroke-width="1.5" d="M0,-3.0v7 M-2.5,-0.5L0,-3.0L2.5,-0.5"/>
  </g>
  <g id="arrowLeft" transform="rotate(270) translate(-36 17)">
    <use xlink:href="#rim"/>
    <path pointer-events="none" fill="none" stroke="white" stroke-width="1.5" d="M0,-3.0v7 M-2.5,-0.5L0,-3.0L2.5,-0.5"/>
  </g>
  <g id="resetDef">
    <use xlink:href="#rim2" fill="#404040"><set attributeName="fill" to="#808080" begin="reset.mouseover" end="reset.mouseout"/></use>
  </g>
</defs>
<script type="application/ecmascript">
var viewWidth = 708;
var viewHeight = 480;
var sectionId = 'dynsection-91';
</script>
<script type="application/ecmascript" xlink:href="../../../../assets/svg.min.js"/>
<svg id="graph" class="graph">
<g id="viewport">
<title>BigDataStatMeth::Rcpp_Import_File_to_hdf5</title>
<!-- Node1 -->
<g id="Node000001" class="node">
<title>Node1</title>
<g id="a_Node000001"><a xlink:title="Imports data from a file into an HDF5 dataset.">
<polygon fill="#999999" stroke="#666666" points="120.25,-128.5 0,-128.5 0,-98 120.25,-98 120.25,-128.5"/>
<text xml:space="preserve" text-anchor="start" x="8" y="-115" font-family="Helvetica,sans-Serif" font-size="10.00">BigDataStatMeth::Rcpp</text>
<text xml:space="preserve" text-anchor="middle" x="60.12" y="-103.75" font-family="Helvetica,sans-Serif" font-size="10.00">_Import_File_to_hdf5</text>
</a>
</g>
</g>
<!-- Node1&#45;&gt;Node1 -->
<g id="edge16_Node000001_Node000001" class="edge">
<title>Node1&#45;&gt;Node1</title>
<g id="a_edge16_Node000001_Node000001"><a xlink:title=" ">
<path fill="none" stroke="#63b8ff" d="M29.78,-128.99C23.59,-138.06 33.7,-146.5 60.12,-146.5 74.58,-146.5 84.15,-143.97 88.84,-140.2"/>
<polygon fill="#63b8ff" stroke="#63b8ff" points="92.28,-140.88 90.25,-130.48 85.35,-139.88 92.28,-140.88"/>
</a>
</g>
</g>
<!-- Node2 -->
<g id="Node000002" class="node">
<title>Node2</title>
<g id="a_Node000002"><a xlink:href="class_big_data_stat_meth_1_1hdf5_dataset.html#ab19bac9a31efe4a733294c1c23ff5ef7" target="_top" xlink:title="Create a new dataset with optional compression.">
<polygon fill="white" stroke="#666666" points="306.5,-299.5 156.25,-299.5 156.25,-269 306.5,-269 306.5,-299.5"/>
<text xml:space="preserve" text-anchor="start" x="164.25" y="-286" font-family="Helvetica,sans-Serif" font-size="10.00">BigDataStatMeth::hdf5Dataset</text>
<text xml:space="preserve" text-anchor="middle" x="231.38" y="-274.75" font-family="Helvetica,sans-Serif" font-size="10.00">::createDataset</text>
</a>
</g>
</g>
<!-- Node1&#45;&gt;Node2 -->
<g id="edge1_Node000001_Node000002" class="edge">
<title>Node1&#45;&gt;Node2</title>
<g id="a_edge1_Node000001_Node000002"><a xlink:title=" ">
<path fill="none" stroke="#63b8ff" d="M76.44,-128.73C106.28,-158.87 172.31,-225.58 207.4,-261.04"/>
<polygon fill="#63b8ff" stroke="#63b8ff" points="204.63,-263.21 214.15,-267.86 209.6,-258.29 204.63,-263.21"/>
</a>
</g>
</g>
<!-- Node13 -->
<g id="Node000013" class="node">
<title>Node13</title>
<g id="a_Node000013"><a xlink:href="namespace_big_data_stat_meth.html#a4692dffcdb999643681d284943d9417f" target="_top" xlink:title="Converts a vector of string values to numeric (double) values.">
<polygon fill="white" stroke="#666666" points="286.62,-128.5 176.12,-128.5 176.12,-98 286.62,-98 286.62,-128.5"/>
<text xml:space="preserve" text-anchor="start" x="184.12" y="-115" font-family="Helvetica,sans-Serif" font-size="10.00">BigDataStatMeth::get</text>
<text xml:space="preserve" text-anchor="middle" x="231.38" y="-103.75" font-family="Helvetica,sans-Serif" font-size="10.00">_data_as_Matrix</text>
</a>
</g>
</g>
<!-- Node1&#45;&gt;Node13 -->
<g id="edge13_Node000001_Node000013" class="edge">
<title>Node1&#45;&gt;Node13</title>
<g id="a_edge13_Node000001_Node000013"><a xlink:title=" ">
<path fill="none" stroke="#63b8ff" d="M120.32,-113.25C134.54,-113.25 149.81,-113.25 164.31,-113.25"/>
<polygon fill="#63b8ff" stroke="#63b8ff" points="164.24,-116.75 174.24,-113.25 164.24,-109.75 164.24,-116.75"/>
</a>
</g>
</g>
<!-- Node14 -->
<g id="Node000014" class="node">
<title>Node14</title>
<g id="a_Node000014"><a xlink:href="namespace_big_data_stat_meth.html#a51c0808c37e2b9f02393112466bdcfd2" target="_top" xlink:title="Checks if a file ends with a newline character.">
<polygon fill="white" stroke="#666666" points="286.62,-79.5 176.12,-79.5 176.12,-49 286.62,-49 286.62,-79.5"/>
<text xml:space="preserve" text-anchor="start" x="184.12" y="-66" font-family="Helvetica,sans-Serif" font-size="10.00">BigDataStatMeth::get</text>
<text xml:space="preserve" text-anchor="middle" x="231.38" y="-54.75" font-family="Helvetica,sans-Serif" font-size="10.00">_NewLineEnding</text>
</a>
</g>
</g>
<!-- Node1&#45;&gt;Node14 -->
<g id="edge14_Node000001_Node000014" class="edge">
<title>Node1&#45;&gt;Node14</title>
<g id="a_edge14_Node000001_Node000014"><a xlink:title=" ">
<path fill="none" stroke="#63b8ff" d="M115.14,-97.61C131.09,-92.99 148.72,-87.89 165.29,-83.09"/>
<polygon fill="#63b8ff" stroke="#63b8ff" points="165.91,-86.56 174.55,-80.41 163.97,-79.83 165.91,-86.56"/>
</a>
</g>
</g>
<!-- Node15 -->
<g id="Node000015" class="node">
<title>Node15</title>
<g id="a_Node000015"><a xlink:href="namespace_big_data_stat_meth.html#a8e44b530ee0f961a7d5d55455383e45c" target="_top" xlink:title="Splits a string into fields based on a regular expression.">
<polygon fill="white" stroke="#666666" points="297.5,-30.5 165.25,-30.5 165.25,0 297.5,0 297.5,-30.5"/>
<text xml:space="preserve" text-anchor="start" x="173.25" y="-17" font-family="Helvetica,sans-Serif" font-size="10.00">BigDataStatMeth::get</text>
<text xml:space="preserve" text-anchor="middle" x="231.38" y="-5.75" font-family="Helvetica,sans-Serif" font-size="10.00">_SplitData_in_vectorString</text>
</a>
</g>
</g>
<!-- Node1&#45;&gt;Node15 -->
<g id="edge15_Node000001_Node000015" class="edge">
<title>Node1&#45;&gt;Node15</title>
<g id="a_edge15_Node000001_Node000015"><a xlink:title=" ">
<path fill="none" stroke="#63b8ff" d="M77.81,-97.67C95.93,-81.45 126.31,-56.22 156.25,-40.25 159.49,-38.52 162.86,-36.88 166.32,-35.33"/>
<polygon fill="#63b8ff" stroke="#63b8ff" points="167.57,-38.6 175.44,-31.52 164.87,-32.14 167.57,-38.6"/>
</a>
</g>
</g>
<!-- Node16 -->
<g id="Node000016" class="node">
<title>Node16</title>
<g id="a_Node000016"><a xlink:href="class_big_data_stat_meth_1_1hdf5_dims.html#a9b39bfdca31589122731396ae6d7a5c6" target="_top" xlink:title="Writes dimension names to the HDF5 file.">
<polygon fill="white" stroke="#666666" points="300.88,-177.5 161.88,-177.5 161.88,-147 300.88,-147 300.88,-177.5"/>
<text xml:space="preserve" text-anchor="start" x="169.88" y="-164" font-family="Helvetica,sans-Serif" font-size="10.00">BigDataStatMeth::hdf5Dims</text>
<text xml:space="preserve" text-anchor="middle" x="231.38" y="-152.75" font-family="Helvetica,sans-Serif" font-size="10.00">::writeDimnames</text>
</a>
</g>
</g>
<!-- Node1&#45;&gt;Node16 -->
<g id="edge17_Node000001_Node000016" class="edge">
<title>Node1&#45;&gt;Node16</title>
<g id="a_edge17_Node000001_Node000016"><a xlink:title=" ">
<path fill="none" stroke="#63b8ff" d="M115.14,-128.89C131.09,-133.51 148.72,-138.61 165.29,-143.41"/>
<polygon fill="#63b8ff" stroke="#63b8ff" points="163.97,-146.67 174.55,-146.09 165.91,-139.94 163.97,-146.67"/>
</a>
</g>
</g>
<!-- Node3 -->
<g id="Node000003" class="node">
<title>Node3</title>
<g id="a_Node000003"><a xlink:href="class_big_data_stat_meth_1_1hdf5_dataset.html#ac7a7f23b7e22c9b56ca6ad86592f2d52" target="_top" xlink:title="Add an attribute to the dataset.">
<polygon fill="white" stroke="#666666" points="492.75,-373.5 342.5,-373.5 342.5,-343 492.75,-343 492.75,-373.5"/>
<text xml:space="preserve" text-anchor="start" x="350.5" y="-360" font-family="Helvetica,sans-Serif" font-size="10.00">BigDataStatMeth::hdf5Dataset</text>
<text xml:space="preserve" text-anchor="middle" x="417.62" y="-348.75" font-family="Helvetica,sans-Serif" font-size="10.00">::addAttribute</text>
</a>
</g>
</g>
<!-- Node2&#45;&gt;Node3 -->
<g id="edge2_Node000002_Node000003" class="edge">
<title>Node2&#45;&gt;Node3</title>
<g id="a_edge2_Node000002_Node000003"><a xlink:title=" ">
<path fill="none" stroke="#63b8ff" d="M265.29,-299.86C287,-309.92 316.18,-322.98 342.5,-333.25 347.38,-335.16 352.48,-337.05 357.61,-338.9"/>
<polygon fill="#63b8ff" stroke="#63b8ff" points="356.12,-342.09 366.72,-342.12 358.45,-335.49 356.12,-342.09"/>
</a>
</g>
</g>
<!-- Node4 -->
<g id="Node000004" class="node">
<title>Node4</title>
<g id="a_Node000004"><a xlink:href="class_big_data_stat_meth_1_1hdf5_file.html#abfb73b5f1eb25ee00489485c8dc56a2a" target="_top" xlink:title="Close file and cleanup resources.">
<polygon fill="white" stroke="#666666" points="483.38,-471.5 351.88,-471.5 351.88,-441 483.38,-441 483.38,-471.5"/>
<text xml:space="preserve" text-anchor="start" x="359.88" y="-458" font-family="Helvetica,sans-Serif" font-size="10.00">BigDataStatMeth::hdf5File</text>
<text xml:space="preserve" text-anchor="middle" x="417.62" y="-446.75" font-family="Helvetica,sans-Serif" font-size="10.00">::close_file</text>
</a>
</g>
</g>
<!-- Node2&#45;&gt;Node4 -->
<g id="edge3_Node000002_Node000004" class="edge">
<title>Node2&#45;&gt;Node4</title>
<g id="a_edge3_Node000002_Node000004"><a xlink:title=" ">
<path fill="none" stroke="#63b8ff" d="M239.81,-299.56C254.98,-329.26 292.39,-394.98 342.5,-431.25 344.43,-432.65 346.45,-433.98 348.53,-435.23"/>
<polygon fill="#63b8ff" stroke="#63b8ff" points="346.84,-438.3 357.32,-439.89 350.12,-432.11 346.84,-438.3"/>
</a>
</g>
</g>
<!-- Node5 -->
<g id="Node000005" class="node">
<title>Node5</title>
<g id="a_Node000005"><a xlink:href="class_big_data_stat_meth_1_1hdf5_group.html#a27cef4d33e46c72bfd792aa49fa621a3" target="_top" xlink:title="Create multiple nested groups.">
<polygon fill="white" stroke="#666666" points="488.62,-275.5 346.62,-275.5 346.62,-245 488.62,-245 488.62,-275.5"/>
<text xml:space="preserve" text-anchor="start" x="354.62" y="-262" font-family="Helvetica,sans-Serif" font-size="10.00">BigDataStatMeth::hdf5Group</text>
<text xml:space="preserve" text-anchor="middle" x="417.62" y="-250.75" font-family="Helvetica,sans-Serif" font-size="10.00">::create_HDF5_groups</text>
</a>
</g>
</g>
<!-- Node2&#45;&gt;Node5 -->
<g id="edge4_Node000002_Node000005" class="edge">
<title>Node2&#45;&gt;Node5</title>
<g id="a_edge4_Node000002_Node000005"><a xlink:title=" ">
<path fill="none" stroke="#63b8ff" d="M306.79,-274.56C316.09,-273.35 325.64,-272.1 335.04,-270.88"/>
<polygon fill="#63b8ff" stroke="#63b8ff" points="335.45,-274.35 344.91,-269.59 334.54,-267.41 335.45,-274.35"/>
</a>
</g>
</g>
<!-- Node7 -->
<g id="Node000007" class="node">
<title>Node7</title>
<g id="a_Node000007"><a xlink:href="namespace_big_data_stat_meth.html#a89d901ab4b5e01771f4e3fc7dc84e50e" target="_top" xlink:title="Checks if an HDF5 element (group or dataset) exists.">
<polygon fill="white" stroke="#666666" points="479.25,-226.5 356,-226.5 356,-196 479.25,-196 479.25,-226.5"/>
<text xml:space="preserve" text-anchor="start" x="364" y="-213" font-family="Helvetica,sans-Serif" font-size="10.00">BigDataStatMeth::exists</text>
<text xml:space="preserve" text-anchor="middle" x="417.62" y="-201.75" font-family="Helvetica,sans-Serif" font-size="10.00">_HDF5_element</text>
</a>
</g>
</g>
<!-- Node2&#45;&gt;Node7 -->
<g id="edge6_Node000002_Node000007" class="edge">
<title>Node2&#45;&gt;Node7</title>
<g id="a_edge6_Node000002_Node000007"><a xlink:title=" ">
<path fill="none" stroke="#63b8ff" d="M266.29,-268.57C287.91,-258.8 316.62,-246.23 342.5,-236.25 347.39,-234.36 352.49,-232.48 357.63,-230.64"/>
<polygon fill="#63b8ff" stroke="#63b8ff" points="358.46,-234.05 366.74,-227.43 356.14,-227.45 358.46,-234.05"/>
</a>
</g>
</g>
<!-- Node8 -->
<g id="Node000008" class="node">
<title>Node8</title>
<g id="a_Node000008"><a xlink:href="class_big_data_stat_meth_1_1hdf5_group.html#a59995412538627e6c80f64b552c286f5" target="_top" xlink:title=" ">
<polygon fill="white" stroke="#666666" points="488.62,-422.5 346.62,-422.5 346.62,-392 488.62,-392 488.62,-422.5"/>
<text xml:space="preserve" text-anchor="start" x="354.62" y="-409" font-family="Helvetica,sans-Serif" font-size="10.00">BigDataStatMeth::hdf5Group</text>
<text xml:space="preserve" text-anchor="middle" x="417.62" y="-397.75" font-family="Helvetica,sans-Serif" font-size="10.00">::getGroupName</text>
</a>
</g>
</g>
<!-- Node2&#45;&gt;Node8 -->
<g id="edge8_Node000002_Node000008" class="edge">
<title>Node2&#45;&gt;Node8</title>
<g id="a_edge8_Node000002_Node000008"><a xlink:title=" ">
<path fill="none" stroke="#63b8ff" d="M246.17,-299.99C265.68,-321.36 303.33,-359.5 342.5,-382.25 345.31,-383.88 348.24,-385.43 351.24,-386.88"/>
<polygon fill="#63b8ff" stroke="#63b8ff" points="349.73,-390.04 360.29,-390.91 352.58,-383.65 349.73,-390.04"/>
</a>
</g>
</g>
<!-- Node9 -->
<g id="Node000009" class="node">
<title>Node9</title>
<g id="a_Node000009"><a xlink:href="namespace_big_data_stat_meth.html#a3d06783149029f1df2853c472d401380" target="_top" xlink:title="Removes multiple elements from an HDF5 file.">
<polygon fill="white" stroke="#666666" points="482.25,-177.5 353,-177.5 353,-147 482.25,-147 482.25,-177.5"/>
<text xml:space="preserve" text-anchor="start" x="361" y="-164" font-family="Helvetica,sans-Serif" font-size="10.00">BigDataStatMeth::remove</text>
<text xml:space="preserve" text-anchor="middle" x="417.62" y="-152.75" font-family="Helvetica,sans-Serif" font-size="10.00">_elements</text>
</a>
</g>
</g>
<!-- Node2&#45;&gt;Node9 -->
<g id="edge9_Node000002_Node000009" class="edge">
<title>Node2&#45;&gt;Node9</title>
<g id="a_edge9_Node000002_Node000009"><a xlink:title=" ">
<path fill="none" stroke="#63b8ff" d="M246.21,-268.68C265.75,-247.54 303.45,-209.8 342.5,-187.25 345.46,-185.54 348.56,-183.92 351.74,-182.4"/>
<polygon fill="#63b8ff" stroke="#63b8ff" points="352.95,-185.69 360.7,-178.46 350.14,-179.28 352.95,-185.69"/>
</a>
</g>
</g>
<!-- Node10 -->
<g id="Node000010" class="node">
<title>Node10</title>
<g id="a_Node000010"><a xlink:href="class_big_data_stat_meth_1_1hdf5_dataset.html#acf9843abcb57a0090f1635cc69d95300" target="_top" xlink:title="Write data to the dataset.">
<polygon fill="white" stroke="#666666" points="492.75,-324.5 342.5,-324.5 342.5,-294 492.75,-294 492.75,-324.5"/>
<text xml:space="preserve" text-anchor="start" x="350.5" y="-311" font-family="Helvetica,sans-Serif" font-size="10.00">BigDataStatMeth::hdf5Dataset</text>
<text xml:space="preserve" text-anchor="middle" x="417.62" y="-299.75" font-family="Helvetica,sans-Serif" font-size="10.00">::writeDataset</text>
</a>
</g>
</g>
<!-- Node2&#45;&gt;Node10 -->
<g id="edge10_Node000002_Node000010" class="edge">
<title>Node2&#45;&gt;Node10</title>
<g id="a_edge10_Node000002_Node000010"><a xlink:title=" ">
<path fill="none" stroke="#63b8ff" d="M306.79,-294.35C314.73,-295.42 322.85,-296.53 330.91,-297.62"/>
<polygon fill="#63b8ff" stroke="#63b8ff" points="330.36,-301.08 340.74,-298.95 331.3,-294.14 330.36,-301.08"/>
</a>
</g>
</g>
<!-- Node6 -->
<g id="Node000006" class="node">
<title>Node6</title>
<g id="a_Node000006"><a xlink:href="namespace_big_data_stat_meth.html#abcaa4216cd52f03ebac42e4855ef846b" target="_top" xlink:title="Checks if a path exists in an HDF5 file.">
<polygon fill="white" stroke="#666666" points="686.12,-246.88 542.62,-246.88 542.62,-227.62 686.12,-227.62 686.12,-246.88"/>
<text xml:space="preserve" text-anchor="middle" x="614.38" y="-233.38" font-family="Helvetica,sans-Serif" font-size="10.00">BigDataStatMeth::pathExists</text>
</a>
</g>
</g>
<!-- Node5&#45;&gt;Node6 -->
<g id="edge5_Node000005_Node000006" class="edge">
<title>Node5&#45;&gt;Node6</title>
<g id="a_edge5_Node000005_Node000006"><a xlink:title=" ">
<path fill="none" stroke="#63b8ff" d="M488.93,-251.95C502.6,-250.33 517.05,-248.63 531.06,-246.97"/>
<polygon fill="#63b8ff" stroke="#63b8ff" points="531.16,-250.48 540.68,-245.83 530.34,-243.53 531.16,-250.48"/>
</a>
</g>
</g>
<!-- Node7&#45;&gt;Node6 -->
<g id="edge7_Node000007_Node000006" class="edge">
<title>Node7&#45;&gt;Node6</title>
<g id="a_edge7_Node000007_Node000006"><a xlink:title=" ">
<path fill="none" stroke="#63b8ff" d="M479.71,-219.41C496,-221.58 513.87,-223.97 531.09,-226.26"/>
<polygon fill="#63b8ff" stroke="#63b8ff" points="530.42,-229.71 540.79,-227.56 531.34,-222.77 530.42,-229.71"/>
</a>
</g>
</g>
<!-- Node11 -->
<g id="Node000011" class="node">
<title>Node11</title>
<g id="a_Node000011"><a xlink:href="class_big_data_stat_meth_1_1hdf5_dataset.html#aba39e56a580d3b1fa7f1619fc72efa3e" target="_top" xlink:title="Close dataset and file.">
<polygon fill="white" stroke="#666666" points="689.5,-298.5 539.25,-298.5 539.25,-268 689.5,-268 689.5,-298.5"/>
<text xml:space="preserve" text-anchor="start" x="547.25" y="-285" font-family="Helvetica,sans-Serif" font-size="10.00">BigDataStatMeth::hdf5Dataset</text>
<text xml:space="preserve" text-anchor="middle" x="614.38" y="-273.75" font-family="Helvetica,sans-Serif" font-size="10.00">::close_dataset_file</text>
</a>
</g>
</g>
<!-- Node10&#45;&gt;Node11 -->
<g id="edge11_Node000010_Node000011" class="edge">
<title>Node10&#45;&gt;Node11</title>
<g id="a_edge11_Node000010_Node000011"><a xlink:title=" ">
<path fill="none" stroke="#63b8ff" d="M493.09,-299.31C504.36,-297.8 516.07,-296.24 527.56,-294.71"/>
<polygon fill="#63b8ff" stroke="#63b8ff" points="528.01,-298.18 537.46,-293.39 527.08,-291.24 528.01,-298.18"/>
</a>
</g>
</g>
<!-- Node12 -->
<g id="Node000012" class="node">
<title>Node12</title>
<g id="a_Node000012"><a xlink:href="class_big_data_stat_meth_1_1hdf5_dataset.html#a94d81b72e92cb0230b4e64f37ea7d2e3" target="_top" xlink:title="Convert DataFrame to range list.">
<polygon fill="white" stroke="#666666" points="700,-347.5 528.75,-347.5 528.75,-317 700,-317 700,-347.5"/>
<text xml:space="preserve" text-anchor="start" x="536.75" y="-334" font-family="Helvetica,sans-Serif" font-size="10.00">BigDataStatMeth::hdf5Dataset</text>
<text xml:space="preserve" text-anchor="middle" x="614.38" y="-322.75" font-family="Helvetica,sans-Serif" font-size="10.00">::convert_DataFrame_to_RangeList</text>
</a>
</g>
</g>
<!-- Node10&#45;&gt;Node12 -->
<g id="edge12_Node000010_Node000012" class="edge">
<title>Node10&#45;&gt;Node12</title>
<g id="a_edge12_Node000010_Node000012"><a xlink:title=" ">
<path fill="none" stroke="#63b8ff" d="M493.09,-318.04C500.97,-318.97 509.06,-319.93 517.15,-320.89"/>
<polygon fill="#63b8ff" stroke="#63b8ff" points="516.7,-324.36 527.04,-322.05 517.52,-317.41 516.7,-324.36"/>
</a>
</g>
</g>
<!-- Node16&#45;&gt;Node7 -->
<g id="edge19_Node000016_Node000007" class="edge">
<title>Node16&#45;&gt;Node7</title>
<g id="a_edge19_Node000016_Node000007"><a xlink:title=" ">
<path fill="none" stroke="#63b8ff" d="M291.43,-177.96C308.95,-182.62 328.31,-187.76 346.47,-192.59"/>
<polygon fill="#63b8ff" stroke="#63b8ff" points="345.56,-195.97 356.12,-195.16 347.36,-189.21 345.56,-195.97"/>
</a>
</g>
</g>
<!-- Node16&#45;&gt;Node9 -->
<g id="edge20_Node000016_Node000009" class="edge">
<title>Node16&#45;&gt;Node9</title>
<g id="a_edge20_Node000016_Node000009"><a xlink:title=" ">
<path fill="none" stroke="#63b8ff" d="M301.24,-162.25C314.29,-162.25 328,-162.25 341.23,-162.25"/>
<polygon fill="#63b8ff" stroke="#63b8ff" points="341.2,-165.75 351.2,-162.25 341.2,-158.75 341.2,-165.75"/>
</a>
</g>
</g>
<!-- Node17 -->
<g id="Node000017" class="node">
<title>Node17</title>
<g id="a_Node000017"><a xlink:href="class_big_data_stat_meth_1_1hdf5_dims.html#ab0f1e3617ed5d95babf59b092aa09556" target="_top" xlink:title="Closes all open datasets.">
<polygon fill="white" stroke="#666666" points="487.12,-79.5 348.12,-79.5 348.12,-49 487.12,-49 487.12,-79.5"/>
<text xml:space="preserve" text-anchor="start" x="356.12" y="-66" font-family="Helvetica,sans-Serif" font-size="10.00">BigDataStatMeth::hdf5Dims</text>
<text xml:space="preserve" text-anchor="middle" x="417.62" y="-54.75" font-family="Helvetica,sans-Serif" font-size="10.00">::close_datasets</text>
</a>
</g>
</g>
<!-- Node16&#45;&gt;Node17 -->
<g id="edge18_Node000016_Node000017" class="edge">
<title>Node16&#45;&gt;Node17</title>
<g id="a_edge18_Node000016_Node000017"><a xlink:title=" ">
<path fill="none" stroke="#63b8ff" d="M290.34,-146.6C296.05,-143.93 301.55,-140.83 306.5,-137.25 328.11,-121.62 320.89,-104.88 342.5,-89.25 344.43,-87.85 346.45,-86.53 348.53,-85.27"/>
<polygon fill="#63b8ff" stroke="#63b8ff" points="350.12,-88.39 357.32,-80.61 346.85,-82.2 350.12,-88.39"/>
</a>
</g>
</g>
<!-- Node18 -->
<g id="Node000018" class="node">
<title>Node18</title>
<g id="a_Node000018"><a xlink:href="class_big_data_stat_meth_1_1hdf5_dims.html#a8bebc400acaf50f49ac0d3abfb1df5d8" target="_top" xlink:title="Writes a string vector to an HDF5 dataset.">
<polygon fill="white" stroke="#666666" points="487.12,-128.5 348.12,-128.5 348.12,-98 487.12,-98 487.12,-128.5"/>
<text xml:space="preserve" text-anchor="start" x="356.12" y="-115" font-family="Helvetica,sans-Serif" font-size="10.00">BigDataStatMeth::hdf5Dims</text>
<text xml:space="preserve" text-anchor="middle" x="417.62" y="-103.75" font-family="Helvetica,sans-Serif" font-size="10.00">::writeStringVector</text>
</a>
</g>
</g>
<!-- Node16&#45;&gt;Node18 -->
<g id="edge21_Node000016_Node000018" class="edge">
<title>Node16&#45;&gt;Node18</title>
<g id="a_edge21_Node000016_Node000018"><a xlink:title=" ">
<path fill="none" stroke="#63b8ff" d="M291.43,-146.54C308.95,-141.88 328.31,-136.74 346.47,-131.91"/>
<polygon fill="#63b8ff" stroke="#63b8ff" points="347.36,-135.29 356.12,-129.34 345.56,-128.53 347.36,-135.29"/>
</a>
</g>
</g>
</g>
</svg>

<g id="navigator" transform="translate(0 0)" fill="#404254">
  <rect fill="#f2f5e9" fill-opacity="0.5" stroke="#606060" stroke-width=".5" x="0" y="0" width="60" height="60"/>
  <use id="zoomplus" xlink:href="#zoomPlus" x="17" y="9" onmousedown="handleZoom(evt,'in')"/>
  <use id="zoomminus" xlink:href="#zoomMin" x="42" y="9" onmousedown="handleZoom(evt,'out')"/>
  <use id="reset" xlink:href="#resetDef" x="30" y="36" onmousedown="handleReset()"/>
   <use id="arrowup" xlink:href="#arrowUp" x="0" y="0" onmousedown="handlePan(0,-1)"/>
  <use id="arrowright" xlink:href="#arrowRight" x="0" y="0" onmousedown="handlePan(1,0)"/>
  <use id="arrowdown" xlink:href="#arrowDown" x="0" y="0" onmousedown="handlePan(0,1)"/>
  <use id="arrowleft" xlink:href="#arrowLeft" x="0" y="0" onmousedown="handlePan(-1,0)"/>
</g>
<svg viewBox="0 0 15 15" width="100%" height="30px" preserveAspectRatio="xMaxYMin meet">
 <g id="arrow_out" transform="scale(0.3 0.3)">
  <a xlink:href="namespace_big_data_stat_meth_a73f1f4f926792f5aae6613575c6fa481_cgraph_org.svg" target="_base">
   <rect id="button" ry="5" rx="5" y="6" x="6" height="38" width="38"
        fill="#f2f5e9" fill-opacity="0.5" stroke="#606060" stroke-width="1.0"/>
   <path id="arrow"
     d="M 11.500037,31.436501 C 11.940474,20.09759 22.043105,11.32322 32.158766,21.979434 L 37.068811,17.246167 C 37.068811,17.246167 37.088388,32 37.088388,32 L 22.160133,31.978069 C 22.160133,31.978069 26.997745,27.140456 26.997745,27.140456 C 18.528582,18.264221 13.291696,25.230495 11.500037,31.436501 z"
     style="fill:#404040;"/>
  </a>
 </g>
</svg>

<style type='text/css'>
<![CDATA[
[data-mouse-over-selected='false'] { opacity: 0.7; }
[data-mouse-over-selected='true']  { opacity: 1.0; }
]]>
</style>
<script type="application/ecmascript"><![CDATA[
document.addEventListener('DOMContentLoaded', (event) => {
  highlightEdges();
  highlightAdjacentNodes();
});
]]></script>
</svg>
