<?xml version="1.0" encoding="UTF-8" standalone="no"?>
<!DOCTYPE svg PUBLIC "-//W3C//DTD SVG 1.1//EN"
 "http://www.w3.org/Graphics/SVG/1.1/DTD/svg11.dtd">
<!-- Generated by graphviz version 14.0.0 (20250921.2048)
 -->
<!-- Title: BigDataStatMeth::t_distribution_cdf Pages: 1 -->
<!--zoomable 168 -->

<svg id="main" version="1.1" xmlns="http://www.w3.org/2000/svg" xmlns:xlink="http://www.w3.org/1999/xlink" xml:space="preserve" onload="init(evt)">

<style type="text/css"><![CDATA[
.node, .edge {opacity: 0.7;}
.node.selected, .edge.selected {opacity: 1;}
.edge:hover path { stroke: red; }
.edge:hover polygon { stroke: red; fill: red; }
]]></style>

<defs>
  <circle id="rim" cx="0" cy="0" r="7"/>
  <circle id="rim2" cx="0" cy="0" r="3.5"/>
  <g id="zoomPlus">
    <use xlink:href="#rim" fill="#404040"><set attributeName="fill" to="#808080" begin="zoomplus.mouseover" end="zoomplus.mouseout"/></use>
    <path d="M-4,0h8M0,-4v8" fill="none" stroke="white" stroke-width="1.5" pointer-events="none"/>
  </g>
  <g id="zoomMin">
    <use xlink:href="#rim" fill="#404040"><set attributeName="fill" to="#808080" begin="zoomminus.mouseover" end="zoomminus.mouseout"/></use>
    <path d="M-4,0h8" fill="none" stroke="white" stroke-width="1.5" pointer-events="none"/>
  </g>
  <g id="arrowUp" transform="translate(30 24)">
    <use xlink:href="#rim"/>
    <path pointer-events="none" fill="none" stroke="white" stroke-width="1.5" d="M0,-3.0v7 M-2.5,-0.5L0,-3.0L2.5,-0.5"/>
  </g>
  <g id="arrowRight" transform="rotate(90) translate(36 -43)">
    <use xlink:href="#rim"/>
    <path pointer-events="none" fill="none" stroke="white" stroke-width="1.5" d="M0,-3.0v7 M-2.5,-0.5L0,-3.0L2.5,-0.5"/>
  </g>
  <g id="arrowDown" transform="rotate(180) translate(-30 -48)">
    <use xlink:href="#rim"/>
    <path pointer-events="none" fill="none" stroke="white" stroke-width="1.5" d="M0,-3.0v7 M-2.5,-0.5L0,-3.0L2.5,-0.5"/>
  </g>
  <g id="arrowLeft" transform="rotate(270) translate(-36 17)">
    <use xlink:href="#rim"/>
    <path pointer-events="none" fill="none" stroke="white" stroke-width="1.5" d="M0,-3.0v7 M-2.5,-0.5L0,-3.0L2.5,-0.5"/>
  </g>
  <g id="resetDef">
    <use xlink:href="#rim2" fill="#404040"><set attributeName="fill" to="#808080" begin="reset.mouseover" end="reset.mouseout"/></use>
  </g>
</defs>
<script type="application/ecmascript">
var viewWidth = 843;
var viewHeight = 168;
var sectionId = 'dynsection-188';
</script>
<script type="application/ecmascript" xlink:href="../../../../assets/svg.min.js"/>
<svg id="graph" class="graph">
<g id="viewport">
<title>BigDataStatMeth::t_distribution_cdf</title>
<!-- Node1 -->
<g id="Node000001" class="node">
<title>Node1</title>
<g id="a_Node000001"><a xlink:title="Compute p&#45;value for correlation coefficient using t&#45;distribution.">
<polygon fill="#999999" stroke="#666666" points="834.5,-69.5 734.5,-69.5 734.5,-39 834.5,-39 834.5,-69.5"/>
<text xml:space="preserve" text-anchor="start" x="742.5" y="-56" font-family="Helvetica,sans-Serif" font-size="10.00">BigDataStatMeth::t</text>
<text xml:space="preserve" text-anchor="middle" x="784.5" y="-44.75" font-family="Helvetica,sans-Serif" font-size="10.00">_distribution_cdf</text>
</a>
</g>
</g>
<!-- Node2 -->
<g id="Node000002" class="node">
<title>Node2</title>
<g id="a_Node000002"><a xlink:href="namespace_big_data_stat_meth.html#a548baec51dfdb0481a3632cc50faed4c" target="_top" xlink:title="Optimized p&#45;value computation for correlation matrices using Eigen.">
<polygon fill="white" stroke="#666666" points="694.75,-94.5 560.25,-94.5 560.25,-64 694.75,-64 694.75,-94.5"/>
<text xml:space="preserve" text-anchor="start" x="568.25" y="-81" font-family="Helvetica,sans-Serif" font-size="10.00">BigDataStatMeth::compute</text>
<text xml:space="preserve" text-anchor="middle" x="627.5" y="-69.75" font-family="Helvetica,sans-Serif" font-size="10.00">_pvalues_optimized</text>
</a>
</g>
</g>
<!-- Node1&#45;&gt;Node2 -->
<g id="edge1_Node000001_Node000002" class="edge">
<title>Node1&#45;&gt;Node2</title>
<g id="a_edge1_Node000001_Node000002"><a xlink:title=" ">
<path fill="none" stroke="#63b8ff" d="M722.73,-64.05C713.64,-65.52 704.23,-67.04 695.03,-68.52"/>
<polygon fill="#63b8ff" stroke="#63b8ff" points="723.22,-67.52 732.54,-62.47 722.11,-60.61 723.22,-67.52"/>
</a>
</g>
</g>
<!-- Node9 -->
<g id="Node000009" class="node">
<title>Node9</title>
<g id="a_Node000009"><a xlink:href="namespace_big_data_stat_meth.html#af47e358be69a1901acebfba04c05f5e3" target="_top" xlink:title="Compute p&#45;value for correlation coefficient &#45; R equivalent implementation.">
<polygon fill="white" stroke="#666666" points="698.5,-45.5 556.5,-45.5 556.5,-15 698.5,-15 698.5,-45.5"/>
<text xml:space="preserve" text-anchor="start" x="564.5" y="-32" font-family="Helvetica,sans-Serif" font-size="10.00">BigDataStatMeth::correlation</text>
<text xml:space="preserve" text-anchor="middle" x="627.5" y="-20.75" font-family="Helvetica,sans-Serif" font-size="10.00">_pvalue</text>
</a>
</g>
</g>
<!-- Node1&#45;&gt;Node9 -->
<g id="edge12_Node000001_Node000009" class="edge">
<title>Node1&#45;&gt;Node9</title>
<g id="a_edge12_Node000001_Node000009"><a xlink:title=" ">
<path fill="none" stroke="#63b8ff" d="M722.79,-44.85C714.98,-43.64 706.92,-42.39 698.97,-41.16"/>
<polygon fill="#63b8ff" stroke="#63b8ff" points="722.12,-48.29 732.54,-46.36 723.19,-41.37 722.12,-48.29"/>
</a>
</g>
</g>
<!-- Node3 -->
<g id="Node000003" class="node">
<title>Node3</title>
<g id="a_Node000003"><a xlink:href="namespace_big_data_stat_meth.html#a33749b2e89b9f4dd6a9ccd33740b7998" target="_top" xlink:title="Enhanced HDF5 cross&#45;correlation with integrated transpose support for big&#45;omics.">
<polygon fill="white" stroke="#666666" points="335,-159.5 185.5,-159.5 185.5,-129 335,-129 335,-159.5"/>
<text xml:space="preserve" text-anchor="start" x="193.5" y="-146" font-family="Helvetica,sans-Serif" font-size="10.00">BigDataStatMeth::RcppbdCorr</text>
<text xml:space="preserve" text-anchor="middle" x="260.25" y="-134.75" font-family="Helvetica,sans-Serif" font-size="10.00">_hdf5_Block_cross</text>
</a>
</g>
</g>
<!-- Node2&#45;&gt;Node3 -->
<g id="edge2_Node000002_Node000003" class="edge">
<title>Node2&#45;&gt;Node3</title>
<g id="a_edge2_Node000002_Node000003"><a xlink:title=" ">
<path fill="none" stroke="#63b8ff" d="M587.4,-99.98C567.85,-109.36 543.51,-119.59 520.5,-125.25 459.37,-140.29 387.88,-144.58 335.47,-145.37"/>
<polygon fill="#63b8ff" stroke="#63b8ff" points="588.95,-103.12 596.37,-95.56 585.85,-96.84 588.95,-103.12"/>
</a>
</g>
</g>
<!-- Node5 -->
<g id="Node000005" class="node">
<title>Node5</title>
<g id="a_Node000005"><a xlink:href="namespace_big_data_stat_meth.html#a11cc183caa903c10f78ffdb7969d0266" target="_top" xlink:title=" ">
<polygon fill="white" stroke="#666666" points="335,-73.5 185.5,-73.5 185.5,-43 335,-43 335,-73.5"/>
<text xml:space="preserve" text-anchor="start" x="193.5" y="-60" font-family="Helvetica,sans-Serif" font-size="10.00">BigDataStatMeth::RcppbdCorr</text>
<text xml:space="preserve" text-anchor="middle" x="260.25" y="-48.75" font-family="Helvetica,sans-Serif" font-size="10.00">_hdf5_Block_single</text>
</a>
</g>
</g>
<!-- Node2&#45;&gt;Node5 -->
<g id="edge4_Node000002_Node000005" class="edge">
<title>Node2&#45;&gt;Node5</title>
<g id="a_edge4_Node000002_Node000005"><a xlink:title=" ">
<path fill="none" stroke="#63b8ff" d="M548.46,-74.76C485.37,-71.14 397.18,-66.07 335.21,-62.5"/>
<polygon fill="#63b8ff" stroke="#63b8ff" points="548.24,-78.26 558.42,-75.34 548.64,-71.27 548.24,-78.26"/>
</a>
</g>
</g>
<!-- Node7 -->
<g id="Node000007" class="node">
<title>Node7</title>
<g id="a_Node000007"><a xlink:href="namespace_big_data_stat_meth.html#a2b1f04e3acc28ab46d0bc32c12d9f642" target="_top" xlink:title=" ">
<polygon fill="white" stroke="#666666" points="520.5,-116.5 371,-116.5 371,-86 520.5,-86 520.5,-116.5"/>
<text xml:space="preserve" text-anchor="start" x="379" y="-103" font-family="Helvetica,sans-Serif" font-size="10.00">BigDataStatMeth::RcppbdCorr</text>
<text xml:space="preserve" text-anchor="middle" x="445.75" y="-91.75" font-family="Helvetica,sans-Serif" font-size="10.00">_matrix_cross</text>
</a>
</g>
</g>
<!-- Node2&#45;&gt;Node7 -->
<g id="edge6_Node000002_Node000007" class="edge">
<title>Node2&#45;&gt;Node7</title>
<g id="a_edge6_Node000002_Node000007"><a xlink:title=" ">
<path fill="none" stroke="#63b8ff" d="M548.68,-88.77C539.45,-89.9 530.05,-91.05 520.88,-92.18"/>
<polygon fill="#63b8ff" stroke="#63b8ff" points="548.82,-92.28 558.32,-87.59 547.97,-85.34 548.82,-92.28"/>
</a>
</g>
</g>
<!-- Node8 -->
<g id="Node000008" class="node">
<title>Node8</title>
<g id="a_Node000008"><a xlink:href="namespace_big_data_stat_meth.html#aa890111706f3d0e5cc011df4d78689f0" target="_top" xlink:title=" ">
<polygon fill="white" stroke="#666666" points="520.5,-30.5 371,-30.5 371,0 520.5,0 520.5,-30.5"/>
<text xml:space="preserve" text-anchor="start" x="379" y="-17" font-family="Helvetica,sans-Serif" font-size="10.00">BigDataStatMeth::RcppbdCorr</text>
<text xml:space="preserve" text-anchor="middle" x="445.75" y="-5.75" font-family="Helvetica,sans-Serif" font-size="10.00">_matrix_single</text>
</a>
</g>
</g>
<!-- Node2&#45;&gt;Node8 -->
<g id="edge9_Node000002_Node000008" class="edge">
<title>Node2&#45;&gt;Node8</title>
<g id="a_edge9_Node000002_Node000008"><a xlink:title=" ">
<path fill="none" stroke="#63b8ff" d="M571.74,-59.75C545.82,-50.53 515.29,-39.65 490.89,-30.97"/>
<polygon fill="#63b8ff" stroke="#63b8ff" points="570.51,-63.03 581.1,-63.09 572.86,-56.43 570.51,-63.03"/>
</a>
</g>
</g>
<!-- Node4 -->
<g id="Node000004" class="node">
<title>Node4</title>
<g id="a_Node000004"><a xlink:href="namespace_big_data_stat_meth.html#a6e97263036358fe6af3072e23914381d" target="_top" xlink:title="Implementation of cross&#45;matrix correlation computation for HDF5 matrices &#45; OPTIMIZED.">
<polygon fill="white" stroke="#666666" points="149.5,-128.5 0,-128.5 0,-98 149.5,-98 149.5,-128.5"/>
<text xml:space="preserve" text-anchor="start" x="8" y="-115" font-family="Helvetica,sans-Serif" font-size="10.00">BigDataStatMeth::RcppbdCorr</text>
<text xml:space="preserve" text-anchor="middle" x="74.75" y="-103.75" font-family="Helvetica,sans-Serif" font-size="10.00">_hdf5_cross</text>
</a>
</g>
</g>
<!-- Node3&#45;&gt;Node4 -->
<g id="edge3_Node000003_Node000004" class="edge">
<title>Node3&#45;&gt;Node4</title>
<g id="a_edge3_Node000003_Node000004"><a xlink:title=" ">
<path fill="none" stroke="#63b8ff" d="M173.86,-129.83C165.84,-128.47 157.75,-127.1 149.84,-125.77"/>
<polygon fill="#63b8ff" stroke="#63b8ff" points="173.21,-133.26 183.65,-131.48 174.37,-126.36 173.21,-133.26"/>
</a>
</g>
</g>
<!-- Node6 -->
<g id="Node000006" class="node">
<title>Node6</title>
<g id="a_Node000006"><a xlink:href="namespace_big_data_stat_meth.html#ae21b46d571f53416eedeb2d80f9b83ac" target="_top" xlink:title="Implementation of single matrix correlation computation for HDF5 matrices &#45; OPTIMIZED.">
<polygon fill="white" stroke="#666666" points="149.5,-61.5 0,-61.5 0,-31 149.5,-31 149.5,-61.5"/>
<text xml:space="preserve" text-anchor="start" x="8" y="-48" font-family="Helvetica,sans-Serif" font-size="10.00">BigDataStatMeth::RcppbdCorr</text>
<text xml:space="preserve" text-anchor="middle" x="74.75" y="-36.75" font-family="Helvetica,sans-Serif" font-size="10.00">_hdf5_single</text>
</a>
</g>
</g>
<!-- Node5&#45;&gt;Node6 -->
<g id="edge5_Node000005_Node000006" class="edge">
<title>Node5&#45;&gt;Node6</title>
<g id="a_edge5_Node000005_Node000006"><a xlink:title=" ">
<path fill="none" stroke="#63b8ff" d="M173.86,-52.67C165.84,-52.14 157.75,-51.61 149.84,-51.09"/>
<polygon fill="#63b8ff" stroke="#63b8ff" points="173.43,-56.14 183.63,-53.3 173.88,-49.16 173.43,-56.14"/>
</a>
</g>
</g>
<!-- Node7&#45;&gt;Node3 -->
<g id="edge7_Node000007_Node000003" class="edge">
<title>Node7&#45;&gt;Node3</title>
<g id="a_edge7_Node000007_Node000003"><a xlink:title=" ">
<path fill="none" stroke="#63b8ff" d="M366.66,-119.55C353.93,-122.53 340.84,-125.6 328.4,-128.51"/>
<polygon fill="#63b8ff" stroke="#63b8ff" points="367.31,-122.99 376.25,-117.3 365.71,-116.18 367.31,-122.99"/>
</a>
</g>
</g>
<!-- Node7&#45;&gt;Node4 -->
<g id="edge8_Node000007_Node000004" class="edge">
<title>Node7&#45;&gt;Node4</title>
<g id="a_edge8_Node000007_Node000004"><a xlink:title=" ">
<path fill="none" stroke="#63b8ff" d="M359.35,-104.03C295.96,-106.09 210.38,-108.87 149.86,-110.84"/>
<polygon fill="#63b8ff" stroke="#63b8ff" points="359.13,-107.54 369.01,-103.71 358.9,-100.54 359.13,-107.54"/>
</a>
</g>
</g>
<!-- Node8&#45;&gt;Node5 -->
<g id="edge10_Node000008_Node000005" class="edge">
<title>Node8&#45;&gt;Node5</title>
<g id="a_edge10_Node000008_Node000005"><a xlink:title=" ">
<path fill="none" stroke="#63b8ff" d="M366.66,-33.55C353.93,-36.53 340.84,-39.6 328.4,-42.51"/>
<polygon fill="#63b8ff" stroke="#63b8ff" points="367.31,-36.99 376.25,-31.3 365.71,-30.18 367.31,-36.99"/>
</a>
</g>
</g>
<!-- Node8&#45;&gt;Node6 -->
<g id="edge11_Node000008_Node000006" class="edge">
<title>Node8&#45;&gt;Node6</title>
<g id="a_edge11_Node000008_Node000006"><a xlink:title=" ">
<path fill="none" stroke="#63b8ff" d="M359.44,-20.73C308.85,-24.17 243.47,-28.96 185.5,-34.25 173.95,-35.3 161.73,-36.53 149.8,-37.79"/>
<polygon fill="#63b8ff" stroke="#63b8ff" points="359.41,-24.24 369.15,-20.08 358.94,-17.26 359.41,-24.24"/>
</a>
</g>
</g>
</g>
</svg>

<g id="navigator" transform="translate(0 0)" fill="#404254">
  <rect fill="#f2f5e9" fill-opacity="0.5" stroke="#606060" stroke-width=".5" x="0" y="0" width="60" height="60"/>
  <use id="zoomplus" xlink:href="#zoomPlus" x="17" y="9" onmousedown="handleZoom(evt,'in')"/>
  <use id="zoomminus" xlink:href="#zoomMin" x="42" y="9" onmousedown="handleZoom(evt,'out')"/>
  <use id="reset" xlink:href="#resetDef" x="30" y="36" onmousedown="handleReset()"/>
   <use id="arrowup" xlink:href="#arrowUp" x="0" y="0" onmousedown="handlePan(0,-1)"/>
  <use id="arrowright" xlink:href="#arrowRight" x="0" y="0" onmousedown="handlePan(1,0)"/>
  <use id="arrowdown" xlink:href="#arrowDown" x="0" y="0" onmousedown="handlePan(0,1)"/>
  <use id="arrowleft" xlink:href="#arrowLeft" x="0" y="0" onmousedown="handlePan(-1,0)"/>
</g>
<svg viewBox="0 0 15 15" width="100%" height="30px" preserveAspectRatio="xMaxYMin meet">
 <g id="arrow_out" transform="scale(0.3 0.3)">
  <a xlink:href="namespace_big_data_stat_meth_a58690697a1eec1b3feefdc089d056905_icgraph_org.svg" target="_base">
   <rect id="button" ry="5" rx="5" y="6" x="6" height="38" width="38"
        fill="#f2f5e9" fill-opacity="0.5" stroke="#606060" stroke-width="1.0"/>
   <path id="arrow"
     d="M 11.500037,31.436501 C 11.940474,20.09759 22.043105,11.32322 32.158766,21.979434 L 37.068811,17.246167 C 37.068811,17.246167 37.088388,32 37.088388,32 L 22.160133,31.978069 C 22.160133,31.978069 26.997745,27.140456 26.997745,27.140456 C 18.528582,18.264221 13.291696,25.230495 11.500037,31.436501 z"
     style="fill:#404040;"/>
  </a>
 </g>
</svg>

<style type='text/css'>
<![CDATA[
[data-mouse-over-selected='false'] { opacity: 0.7; }
[data-mouse-over-selected='true']  { opacity: 1.0; }
]]>
</style>
<script type="application/ecmascript"><![CDATA[
document.addEventListener('DOMContentLoaded', (event) => {
  highlightEdges();
  highlightAdjacentNodes();
});
]]></script>
</svg>
