<?xml version="1.0" encoding="UTF-8" standalone="no"?>
<!DOCTYPE svg PUBLIC "-//W3C//DTD SVG 1.1//EN"
 "http://www.w3.org/Graphics/SVG/1.1/DTD/svg11.dtd">
<!-- Generated by graphviz version 14.0.0 (20250921.2048)
 -->
<!-- Title: BigDataStatMeth::RcppNormalizeRowwise Pages: 1 -->
<!--zoomable 253 -->

<svg id="main" version="1.1" xmlns="http://www.w3.org/2000/svg" xmlns:xlink="http://www.w3.org/1999/xlink" xml:space="preserve" onload="init(evt)">

<style type="text/css"><![CDATA[
.node, .edge {opacity: 0.7;}
.node.selected, .edge.selected {opacity: 1;}
.edge:hover path { stroke: red; }
.edge:hover polygon { stroke: red; fill: red; }
]]></style>

<defs>
  <circle id="rim" cx="0" cy="0" r="7"/>
  <circle id="rim2" cx="0" cy="0" r="3.5"/>
  <g id="zoomPlus">
    <use xlink:href="#rim" fill="#404040"><set attributeName="fill" to="#808080" begin="zoomplus.mouseover" end="zoomplus.mouseout"/></use>
    <path d="M-4,0h8M0,-4v8" fill="none" stroke="white" stroke-width="1.5" pointer-events="none"/>
  </g>
  <g id="zoomMin">
    <use xlink:href="#rim" fill="#404040"><set attributeName="fill" to="#808080" begin="zoomminus.mouseover" end="zoomminus.mouseout"/></use>
    <path d="M-4,0h8" fill="none" stroke="white" stroke-width="1.5" pointer-events="none"/>
  </g>
  <g id="arrowUp" transform="translate(30 24)">
    <use xlink:href="#rim"/>
    <path pointer-events="none" fill="none" stroke="white" stroke-width="1.5" d="M0,-3.0v7 M-2.5,-0.5L0,-3.0L2.5,-0.5"/>
  </g>
  <g id="arrowRight" transform="rotate(90) translate(36 -43)">
    <use xlink:href="#rim"/>
    <path pointer-events="none" fill="none" stroke="white" stroke-width="1.5" d="M0,-3.0v7 M-2.5,-0.5L0,-3.0L2.5,-0.5"/>
  </g>
  <g id="arrowDown" transform="rotate(180) translate(-30 -48)">
    <use xlink:href="#rim"/>
    <path pointer-events="none" fill="none" stroke="white" stroke-width="1.5" d="M0,-3.0v7 M-2.5,-0.5L0,-3.0L2.5,-0.5"/>
  </g>
  <g id="arrowLeft" transform="rotate(270) translate(-36 17)">
    <use xlink:href="#rim"/>
    <path pointer-events="none" fill="none" stroke="white" stroke-width="1.5" d="M0,-3.0v7 M-2.5,-0.5L0,-3.0L2.5,-0.5"/>
  </g>
  <g id="resetDef">
    <use xlink:href="#rim2" fill="#404040"><set attributeName="fill" to="#808080" begin="reset.mouseover" end="reset.mouseout"/></use>
  </g>
</defs>
<script type="application/ecmascript">
var viewWidth = 1433;
var viewHeight = 253;
var sectionId = 'dynsection-161';
</script>
<script type="application/ecmascript" xlink:href="../../../../assets/svg.min.js"/>
<svg id="graph" class="graph">
<g id="viewport">
<title>BigDataStatMeth::RcppNormalizeRowwise</title>
<!-- Node1 -->
<g id="Node000001" class="node">
<title>Node1</title>
<g id="a_Node000001"><a xlink:title=" ">
<polygon fill="#999999" stroke="#666666" points="1425.25,-196.11 1260.75,-196.11 1260.75,-165.61 1425.25,-165.61 1425.25,-196.11"/>
<text xml:space="preserve" text-anchor="start" x="1268.75" y="-182.61" font-family="Helvetica,sans-Serif" font-size="10.00">BigDataStatMeth::RcppNormalize</text>
<text xml:space="preserve" text-anchor="middle" x="1343" y="-171.36" font-family="Helvetica,sans-Serif" font-size="10.00">Rowwise</text>
</a>
</g>
</g>
<!-- Node2 -->
<g id="Node000002" class="node">
<title>Node2</title>
<g id="a_Node000002"><a xlink:href="namespace_big_data_stat_meth.html#a04d836f0bf408e66c56001bbbaa5bb41" target="_top" xlink:title="Calculate PCA individuals statistics.">
<polygon fill="white" stroke="#666666" points="354.12,-195.11 218.12,-195.11 218.12,-164.61 354.12,-164.61 354.12,-195.11"/>
<text xml:space="preserve" text-anchor="start" x="226.12" y="-181.61" font-family="Helvetica,sans-Serif" font-size="10.00">BigDataStatMeth::RcppGet</text>
<text xml:space="preserve" text-anchor="middle" x="286.12" y="-170.36" font-family="Helvetica,sans-Serif" font-size="10.00">PCAIndividualsHdf5</text>
</a>
</g>
</g>
<!-- Node1&#45;&gt;Node2 -->
<g id="edge1_Node000001_Node000002" class="edge">
<title>Node1&#45;&gt;Node2</title>
<g id="a_edge1_Node000001_Node000002"><a xlink:title=" ">
<path fill="none" stroke="#63b8ff" d="M1267.48,-199.15C1183.79,-218.06 1043.63,-244.86 921.25,-244.86 0,14.14 0,14.14 715,-244.86 584.26,-244.86 433.58,-214.83 350.46,-195.59"/>
<polygon fill="#63b8ff" stroke="#63b8ff" points="1268.22,-202.57 1277.18,-196.93 1266.66,-195.75 1268.22,-202.57"/>
</a>
</g>
</g>
<!-- Node4 -->
<g id="Node000004" class="node">
<title>Node4</title>
<g id="a_Node000004"><a xlink:href="namespace_big_data_stat_meth.html#a1cd3f5cf856a0d1bff9e1cf956f368fd" target="_top" xlink:title="Template function for normalizing data with pre&#45;computed statistics.">
<polygon fill="white" stroke="#666666" points="1224.75,-147.48 1034,-147.48 1034,-128.23 1224.75,-128.23 1224.75,-147.48"/>
<text xml:space="preserve" text-anchor="middle" x="1129.38" y="-133.98" font-family="Helvetica,sans-Serif" font-size="10.00">BigDataStatMeth::RcppNormalize_Data</text>
</a>
</g>
</g>
<!-- Node1&#45;&gt;Node4 -->
<g id="edge3_Node000001_Node000004" class="edge">
<title>Node1&#45;&gt;Node4</title>
<g id="a_edge3_Node000001_Node000004"><a xlink:title=" ">
<path fill="none" stroke="#63b8ff" d="M1253.66,-162.91C1228.55,-157.81 1202.09,-152.43 1180.15,-147.97"/>
<polygon fill="#63b8ff" stroke="#63b8ff" points="1252.72,-166.29 1263.22,-164.85 1254.11,-159.43 1252.72,-166.29"/>
</a>
</g>
</g>
<!-- Node3 -->
<g id="Node000003" class="node">
<title>Node3</title>
<g id="a_Node000003"><a xlink:href="namespace_big_data_stat_meth.html#ad6b05b5b52e05bd7801b03ba6008980d" target="_top" xlink:title="Perform Principal Component Analysis.">
<polygon fill="white" stroke="#666666" points="162.25,-103.48 0,-103.48 0,-84.23 162.25,-84.23 162.25,-103.48"/>
<text xml:space="preserve" text-anchor="middle" x="81.12" y="-89.98" font-family="Helvetica,sans-Serif" font-size="10.00">BigDataStatMeth::RcppPCAHdf5</text>
</a>
</g>
</g>
<!-- Node2&#45;&gt;Node3 -->
<g id="edge2_Node000002_Node000003" class="edge">
<title>Node2&#45;&gt;Node3</title>
<g id="a_edge2_Node000002_Node000003"><a xlink:title=" ">
<path fill="none" stroke="#63b8ff" d="M237.98,-159.89C196.63,-142.37 138.22,-117.62 105.92,-103.94"/>
<polygon fill="#63b8ff" stroke="#63b8ff" points="236.4,-163.01 246.97,-163.69 239.13,-156.57 236.4,-163.01"/>
</a>
</g>
</g>
<!-- Node5 -->
<g id="Node000005" class="node">
<title>Node5</title>
<g id="a_Node000005"><a xlink:href="namespace_big_data_stat_meth.html#a8230fb3b686276464c16ed444be03d22" target="_top" xlink:title=" ">
<polygon fill="white" stroke="#666666" points="806.5,-131.11 625.5,-131.11 625.5,-100.61 806.5,-100.61 806.5,-131.11"/>
<text xml:space="preserve" text-anchor="start" x="633.5" y="-117.61" font-family="Helvetica,sans-Serif" font-size="10.00">BigDataStatMeth::First</text>
<text xml:space="preserve" text-anchor="middle" x="716" y="-106.36" font-family="Helvetica,sans-Serif" font-size="10.00">_level_SvdBlock_decomposition_hdf5</text>
</a>
</g>
</g>
<!-- Node4&#45;&gt;Node5 -->
<g id="edge4_Node000004_Node000005" class="edge">
<title>Node4&#45;&gt;Node5</title>
<g id="a_edge4_Node000004_Node000005"><a xlink:title=" ">
<path fill="none" stroke="#63b8ff" d="M1022.35,-132.19C955.6,-128.62 870.38,-124.06 806.95,-120.67"/>
<polygon fill="#63b8ff" stroke="#63b8ff" points="1022.06,-135.68 1032.23,-132.72 1022.43,-128.69 1022.06,-135.68"/>
</a>
</g>
</g>
<!-- Node8 -->
<g id="Node000008" class="node">
<title>Node8</title>
<g id="a_Node000008"><a xlink:href="namespace_big_data_stat_meth.html#af27025105c7f4730a8233cf325613694" target="_top" xlink:title="Block&#45;wise eigendecomposition for large HDF5 matrices using Spectra.">
<polygon fill="white" stroke="#666666" points="793.75,-217.11 638.25,-217.11 638.25,-186.61 793.75,-186.61 793.75,-217.11"/>
<text xml:space="preserve" text-anchor="start" x="646.25" y="-203.61" font-family="Helvetica,sans-Serif" font-size="10.00">BigDataStatMeth::RcppbdEigen</text>
<text xml:space="preserve" text-anchor="middle" x="716" y="-192.36" font-family="Helvetica,sans-Serif" font-size="10.00">_hdf5_Block</text>
</a>
</g>
</g>
<!-- Node4&#45;&gt;Node8 -->
<g id="edge8_Node000004_Node000008" class="edge">
<title>Node4&#45;&gt;Node8</title>
<g id="a_edge8_Node000004_Node000008"><a xlink:title=" ">
<path fill="none" stroke="#63b8ff" d="M1094.95,-152.15C1069.01,-162.56 1031.88,-175.99 998,-182.86 929.95,-196.65 850.94,-200.98 794.06,-202.11"/>
<polygon fill="#63b8ff" stroke="#63b8ff" points="1096.01,-155.5 1103.94,-148.47 1093.36,-149.02 1096.01,-155.5"/>
</a>
</g>
</g>
<!-- Node10 -->
<g id="Node000010" class="node">
<title>Node10</title>
<g id="a_Node000010"><a xlink:href="namespace_big_data_stat_meth.html#a050dd22b3a20be0b77d4b72fd278a214" target="_top" xlink:title="Eigenvalue decomposition using Spectra (compatible with BigDataStatMeth SVD version)">
<polygon fill="white" stroke="#666666" points="998,-174.11 842.5,-174.11 842.5,-143.61 998,-143.61 998,-174.11"/>
<text xml:space="preserve" text-anchor="start" x="850.5" y="-160.61" font-family="Helvetica,sans-Serif" font-size="10.00">BigDataStatMeth::RcppbdEigen</text>
<text xml:space="preserve" text-anchor="middle" x="920.25" y="-149.36" font-family="Helvetica,sans-Serif" font-size="10.00">_spectra</text>
</a>
</g>
</g>
<!-- Node4&#45;&gt;Node10 -->
<g id="edge10_Node000004_Node000010" class="edge">
<title>Node4&#45;&gt;Node10</title>
<g id="a_edge10_Node000004_Node000010"><a xlink:title=" ">
<path fill="none" stroke="#63b8ff" d="M1022.21,-148.62C1014.15,-149.44 1006.11,-150.25 998.29,-151.05"/>
<polygon fill="#63b8ff" stroke="#63b8ff" points="1022.5,-152.11 1032.1,-147.62 1021.79,-145.15 1022.5,-152.11"/>
</a>
</g>
</g>
<!-- Node11 -->
<g id="Node000011" class="node">
<title>Node11</title>
<g id="a_Node000011"><a xlink:href="namespace_big_data_stat_meth.html#afaec816571c5d3411749d33349ed9eda" target="_top" xlink:title="Compute SVD decomposition using Spectra eigenvalue solver.">
<polygon fill="white" stroke="#666666" points="996.12,-87.48 844.38,-87.48 844.38,-68.23 996.12,-68.23 996.12,-87.48"/>
<text xml:space="preserve" text-anchor="middle" x="920.25" y="-73.98" font-family="Helvetica,sans-Serif" font-size="10.00">BigDataStatMeth::RcppbdSVD</text>
</a>
</g>
</g>
<!-- Node4&#45;&gt;Node11 -->
<g id="edge13_Node000004_Node000011" class="edge">
<title>Node4&#45;&gt;Node11</title>
<g id="a_edge13_Node000004_Node000011"><a xlink:title=" ">
<path fill="none" stroke="#63b8ff" d="M1082.88,-124.68C1044.67,-113.61 990.87,-98.03 956.03,-87.93"/>
<polygon fill="#63b8ff" stroke="#63b8ff" points="1081.67,-127.97 1092.25,-127.39 1083.62,-121.25 1081.67,-127.97"/>
</a>
</g>
</g>
<!-- Node12 -->
<g id="Node000012" class="node">
<title>Node12</title>
<g id="a_Node000012"><a xlink:href="namespace_big_data_stat_meth.html#a818fb4dbac351735a7272343c3ad5f23" target="_top" xlink:title=" ">
<polygon fill="white" stroke="#666666" points="996.12,-50.11 844.38,-50.11 844.38,-19.61 996.12,-19.61 996.12,-50.11"/>
<text xml:space="preserve" text-anchor="start" x="852.38" y="-36.61" font-family="Helvetica,sans-Serif" font-size="10.00">BigDataStatMeth::RcppbdSVD</text>
<text xml:space="preserve" text-anchor="middle" x="920.25" y="-25.36" font-family="Helvetica,sans-Serif" font-size="10.00">_lapack</text>
</a>
</g>
</g>
<!-- Node4&#45;&gt;Node12 -->
<g id="edge14_Node000004_Node000012" class="edge">
<title>Node4&#45;&gt;Node12</title>
<g id="a_edge14_Node000004_Node000012"><a xlink:title=" ">
<path fill="none" stroke="#63b8ff" d="M1105.39,-121.56C1080.05,-104.18 1037.61,-76.73 998,-58.86 991.38,-55.87 984.29,-53.11 977.18,-50.6"/>
<polygon fill="#63b8ff" stroke="#63b8ff" points="1103.07,-124.22 1113.28,-127.05 1107.06,-118.47 1103.07,-124.22"/>
</a>
</g>
</g>
<!-- Node6 -->
<g id="Node000006" class="node">
<title>Node6</title>
<g id="a_Node000006"><a xlink:href="namespace_big_data_stat_meth.html#afbf517649a66c749830f33e4273857a7" target="_top" xlink:title="Block&#45;wise SVD decomposition for large HDF5 matrices.">
<polygon fill="white" stroke="#666666" points="575.62,-88.11 423.88,-88.11 423.88,-57.61 575.62,-57.61 575.62,-88.11"/>
<text xml:space="preserve" text-anchor="start" x="431.88" y="-74.61" font-family="Helvetica,sans-Serif" font-size="10.00">BigDataStatMeth::RcppbdSVD</text>
<text xml:space="preserve" text-anchor="middle" x="499.75" y="-63.36" font-family="Helvetica,sans-Serif" font-size="10.00">_hdf5_Block</text>
</a>
</g>
</g>
<!-- Node5&#45;&gt;Node6 -->
<g id="edge5_Node000005_Node000006" class="edge">
<title>Node5&#45;&gt;Node6</title>
<g id="a_edge5_Node000005_Node000006"><a xlink:title=" ">
<path fill="none" stroke="#63b8ff" d="M625.92,-97.98C609.3,-94.64 592.09,-91.19 575.94,-87.95"/>
<polygon fill="#63b8ff" stroke="#63b8ff" points="624.76,-101.32 635.26,-99.85 626.14,-94.45 624.76,-101.32"/>
</a>
</g>
</g>
<!-- Node7 -->
<g id="Node000007" class="node">
<title>Node7</title>
<g id="a_Node000007"><a xlink:href="namespace_big_data_stat_meth.html#a05d2196df8a68f19b986fd06d8812e84" target="_top" xlink:title="Main SVD computation function for HDF5 matrices.">
<polygon fill="white" stroke="#666666" points="374,-82.48 198.25,-82.48 198.25,-63.23 374,-63.23 374,-82.48"/>
<text xml:space="preserve" text-anchor="middle" x="286.12" y="-68.98" font-family="Helvetica,sans-Serif" font-size="10.00">BigDataStatMeth::RcppbdSVD_hdf5</text>
</a>
</g>
</g>
<!-- Node6&#45;&gt;Node7 -->
<g id="edge6_Node000006_Node000007" class="edge">
<title>Node6&#45;&gt;Node7</title>
<g id="a_edge6_Node000006_Node000007"><a xlink:title=" ">
<path fill="none" stroke="#63b8ff" d="M412.2,-72.86C399.72,-72.86 386.87,-72.86 374.37,-72.86"/>
<polygon fill="#63b8ff" stroke="#63b8ff" points="412.03,-76.36 422.03,-72.86 412.03,-69.36 412.03,-76.36"/>
</a>
</g>
</g>
<!-- Node7&#45;&gt;Node3 -->
<g id="edge7_Node000007_Node000003" class="edge">
<title>Node7&#45;&gt;Node3</title>
<g id="a_edge7_Node000007_Node000003"><a xlink:title=" ">
<path fill="none" stroke="#63b8ff" d="M186.54,-83.06C178.51,-83.89 170.46,-84.72 162.58,-85.53"/>
<polygon fill="#63b8ff" stroke="#63b8ff" points="186.76,-86.55 196.35,-82.04 186.04,-79.59 186.76,-86.55"/>
</a>
</g>
</g>
<!-- Node9 -->
<g id="Node000009" class="node">
<title>Node9</title>
<g id="a_Node000009"><a xlink:href="namespace_big_data_stat_meth.html#a05652afd0a5a4a4afcda52b3d3bd2cc0" target="_top" xlink:title="Main eigenvalue decomposition function for HDF5 matrices using Spectra.">
<polygon fill="white" stroke="#666666" points="589.5,-189.48 410,-189.48 410,-170.23 589.5,-170.23 589.5,-189.48"/>
<text xml:space="preserve" text-anchor="middle" x="499.75" y="-175.98" font-family="Helvetica,sans-Serif" font-size="10.00">BigDataStatMeth::RcppbdEigen_hdf5</text>
</a>
</g>
</g>
<!-- Node8&#45;&gt;Node9 -->
<g id="edge9_Node000008_Node000009" class="edge">
<title>Node8&#45;&gt;Node9</title>
<g id="a_edge9_Node000008_Node000009"><a xlink:title=" ">
<path fill="none" stroke="#63b8ff" d="M626.85,-192.81C614.64,-191.55 602.09,-190.26 589.86,-189.01"/>
<polygon fill="#63b8ff" stroke="#63b8ff" points="626.14,-196.25 636.45,-193.79 626.86,-189.29 626.14,-196.25"/>
</a>
</g>
</g>
<!-- Node10&#45;&gt;Node8 -->
<g id="edge12_Node000010_Node000008" class="edge">
<title>Node10&#45;&gt;Node8</title>
<g id="a_edge12_Node000010_Node000008"><a xlink:title=" ">
<path fill="none" stroke="#63b8ff" d="M834.45,-176.89C820.02,-179.95 805.14,-183.12 791.01,-186.12"/>
<polygon fill="#63b8ff" stroke="#63b8ff" points="834.84,-180.38 843.89,-174.88 833.38,-173.53 834.84,-180.38"/>
</a>
</g>
</g>
<!-- Node10&#45;&gt;Node9 -->
<g id="edge11_Node000010_Node000009" class="edge">
<title>Node10&#45;&gt;Node9</title>
<g id="a_edge11_Node000010_Node000009"><a xlink:title=" ">
<path fill="none" stroke="#63b8ff" d="M830.88,-163.29C760,-166.85 660.96,-171.82 589.89,-175.38"/>
<polygon fill="#63b8ff" stroke="#63b8ff" points="830.68,-166.81 840.49,-162.81 830.33,-159.81 830.68,-166.81"/>
</a>
</g>
</g>
<!-- Node12&#45;&gt;Node5 -->
<g id="edge15_Node000012_Node000005" class="edge">
<title>Node12&#45;&gt;Node5</title>
<g id="a_edge15_Node000012_Node000005"><a xlink:title=" ">
<path fill="none" stroke="#63b8ff" d="M850.83,-54.83C847.98,-56.11 845.19,-57.45 842.5,-58.86 824.54,-68.25 824.41,-77.37 806.5,-86.86 796.83,-91.98 786.09,-96.41 775.51,-100.15"/>
<polygon fill="#63b8ff" stroke="#63b8ff" points="852.04,-58.12 859.94,-51.07 849.36,-51.65 852.04,-58.12"/>
</a>
</g>
</g>
<!-- Node12&#45;&gt;Node6 -->
<g id="edge19_Node000012_Node000006" class="edge">
<title>Node12&#45;&gt;Node6</title>
<g id="a_edge19_Node000012_Node000006"><a xlink:title=" ">
<path fill="none" stroke="#63b8ff" d="M832.73,-50.38C823.89,-51.68 815.03,-52.88 806.5,-53.86 728.17,-62.87 638.03,-67.81 576.02,-70.38"/>
<polygon fill="#63b8ff" stroke="#63b8ff" points="833.04,-53.88 842.4,-48.91 831.99,-46.96 833.04,-53.88"/>
</a>
</g>
</g>
<!-- Node12&#45;&gt;Node7 -->
<g id="edge18_Node000012_Node000007" class="edge">
<title>Node12&#45;&gt;Node7</title>
<g id="a_edge18_Node000012_Node000007"><a xlink:title=" ">
<path fill="none" stroke="#63b8ff" d="M858.53,-16.26C841.83,-11.96 823.61,-8.02 806.5,-5.86 622.5,17.43 401.94,-38.94 319.93,-62.8"/>
<polygon fill="#63b8ff" stroke="#63b8ff" points="857.23,-19.54 867.8,-18.73 859.04,-12.77 857.23,-19.54"/>
</a>
</g>
</g>
<!-- Node13 -->
<g id="Node000013" class="node">
<title>Node13</title>
<g id="a_Node000013"><a xlink:href="namespace_big_data_stat_meth.html#aba547c198a44e235965333df9d1dc146" target="_top" xlink:title=" ">
<polygon fill="white" stroke="#666666" points="806.5,-45.11 625.5,-45.11 625.5,-14.61 806.5,-14.61 806.5,-45.11"/>
<text xml:space="preserve" text-anchor="start" x="633.5" y="-31.61" font-family="Helvetica,sans-Serif" font-size="10.00">BigDataStatMeth::Next</text>
<text xml:space="preserve" text-anchor="middle" x="716" y="-20.36" font-family="Helvetica,sans-Serif" font-size="10.00">_level_SvdBlock_decomposition_hdf5</text>
</a>
</g>
</g>
<!-- Node12&#45;&gt;Node13 -->
<g id="edge16_Node000012_Node000013" class="edge">
<title>Node12&#45;&gt;Node13</title>
<g id="a_edge16_Node000012_Node000013"><a xlink:title=" ">
<path fill="none" stroke="#63b8ff" d="M832.44,-32.71C823.92,-32.5 815.27,-32.29 806.72,-32.08"/>
<polygon fill="#63b8ff" stroke="#63b8ff" points="832.34,-36.21 842.43,-32.96 832.52,-29.21 832.34,-36.21"/>
</a>
</g>
</g>
<!-- Node13&#45;&gt;Node6 -->
<g id="edge17_Node000013_Node000006" class="edge">
<title>Node13&#45;&gt;Node6</title>
<g id="a_edge17_Node000013_Node000006"><a xlink:title=" ">
<path fill="none" stroke="#63b8ff" d="M625.92,-47.73C609.3,-51.07 592.09,-54.53 575.94,-57.77"/>
<polygon fill="#63b8ff" stroke="#63b8ff" points="626.14,-51.26 635.26,-45.86 624.76,-44.4 626.14,-51.26"/>
</a>
</g>
</g>
</g>
</svg>

<g id="navigator" transform="translate(0 0)" fill="#404254">
  <rect fill="#f2f5e9" fill-opacity="0.5" stroke="#606060" stroke-width=".5" x="0" y="0" width="60" height="60"/>
  <use id="zoomplus" xlink:href="#zoomPlus" x="17" y="9" onmousedown="handleZoom(evt,'in')"/>
  <use id="zoomminus" xlink:href="#zoomMin" x="42" y="9" onmousedown="handleZoom(evt,'out')"/>
  <use id="reset" xlink:href="#resetDef" x="30" y="36" onmousedown="handleReset()"/>
   <use id="arrowup" xlink:href="#arrowUp" x="0" y="0" onmousedown="handlePan(0,-1)"/>
  <use id="arrowright" xlink:href="#arrowRight" x="0" y="0" onmousedown="handlePan(1,0)"/>
  <use id="arrowdown" xlink:href="#arrowDown" x="0" y="0" onmousedown="handlePan(0,1)"/>
  <use id="arrowleft" xlink:href="#arrowLeft" x="0" y="0" onmousedown="handlePan(-1,0)"/>
</g>
<svg viewBox="0 0 15 15" width="100%" height="30px" preserveAspectRatio="xMaxYMin meet">
 <g id="arrow_out" transform="scale(0.3 0.3)">
  <a xlink:href="namespace_big_data_stat_meth_a44b65a910276a5b61d0c3877b810eaeb_icgraph_org.svg" target="_base">
   <rect id="button" ry="5" rx="5" y="6" x="6" height="38" width="38"
        fill="#f2f5e9" fill-opacity="0.5" stroke="#606060" stroke-width="1.0"/>
   <path id="arrow"
     d="M 11.500037,31.436501 C 11.940474,20.09759 22.043105,11.32322 32.158766,21.979434 L 37.068811,17.246167 C 37.068811,17.246167 37.088388,32 37.088388,32 L 22.160133,31.978069 C 22.160133,31.978069 26.997745,27.140456 26.997745,27.140456 C 18.528582,18.264221 13.291696,25.230495 11.500037,31.436501 z"
     style="fill:#404040;"/>
  </a>
 </g>
</svg>

<style type='text/css'>
<![CDATA[
[data-mouse-over-selected='false'] { opacity: 0.7; }
[data-mouse-over-selected='true']  { opacity: 1.0; }
]]>
</style>
<script type="application/ecmascript"><![CDATA[
document.addEventListener('DOMContentLoaded', (event) => {
  highlightEdges();
  highlightAdjacentNodes();
});
]]></script>
</svg>
