<?xml version="1.0" encoding="UTF-8" standalone="no"?>
<!DOCTYPE svg PUBLIC "-//W3C//DTD SVG 1.1//EN"
 "http://www.w3.org/Graphics/SVG/1.1/DTD/svg11.dtd">
<!-- Generated by graphviz version 14.0.0 (20250921.2048)
 -->
<!-- Title: BigDataStatMeth::RcppNormalizeColwise Pages: 1 -->
<!--zoomable 264 -->

<svg id="main" version="1.1" xmlns="http://www.w3.org/2000/svg" xmlns:xlink="http://www.w3.org/1999/xlink" xml:space="preserve" onload="init(evt)">

<style type="text/css"><![CDATA[
.node, .edge {opacity: 0.7;}
.node.selected, .edge.selected {opacity: 1;}
.edge:hover path { stroke: red; }
.edge:hover polygon { stroke: red; fill: red; }
]]></style>

<defs>
  <circle id="rim" cx="0" cy="0" r="7"/>
  <circle id="rim2" cx="0" cy="0" r="3.5"/>
  <g id="zoomPlus">
    <use xlink:href="#rim" fill="#404040"><set attributeName="fill" to="#808080" begin="zoomplus.mouseover" end="zoomplus.mouseout"/></use>
    <path d="M-4,0h8M0,-4v8" fill="none" stroke="white" stroke-width="1.5" pointer-events="none"/>
  </g>
  <g id="zoomMin">
    <use xlink:href="#rim" fill="#404040"><set attributeName="fill" to="#808080" begin="zoomminus.mouseover" end="zoomminus.mouseout"/></use>
    <path d="M-4,0h8" fill="none" stroke="white" stroke-width="1.5" pointer-events="none"/>
  </g>
  <g id="arrowUp" transform="translate(30 24)">
    <use xlink:href="#rim"/>
    <path pointer-events="none" fill="none" stroke="white" stroke-width="1.5" d="M0,-3.0v7 M-2.5,-0.5L0,-3.0L2.5,-0.5"/>
  </g>
  <g id="arrowRight" transform="rotate(90) translate(36 -43)">
    <use xlink:href="#rim"/>
    <path pointer-events="none" fill="none" stroke="white" stroke-width="1.5" d="M0,-3.0v7 M-2.5,-0.5L0,-3.0L2.5,-0.5"/>
  </g>
  <g id="arrowDown" transform="rotate(180) translate(-30 -48)">
    <use xlink:href="#rim"/>
    <path pointer-events="none" fill="none" stroke="white" stroke-width="1.5" d="M0,-3.0v7 M-2.5,-0.5L0,-3.0L2.5,-0.5"/>
  </g>
  <g id="arrowLeft" transform="rotate(270) translate(-36 17)">
    <use xlink:href="#rim"/>
    <path pointer-events="none" fill="none" stroke="white" stroke-width="1.5" d="M0,-3.0v7 M-2.5,-0.5L0,-3.0L2.5,-0.5"/>
  </g>
  <g id="resetDef">
    <use xlink:href="#rim2" fill="#404040"><set attributeName="fill" to="#808080" begin="reset.mouseover" end="reset.mouseout"/></use>
  </g>
</defs>
<script type="application/ecmascript">
var viewWidth = 1433;
var viewHeight = 264;
var sectionId = 'dynsection-183';
</script>
<script type="application/ecmascript" xlink:href="../../../../assets/svg.min.js"/>
<svg id="graph" class="graph">
<g id="viewport">
<title>BigDataStatMeth::RcppNormalizeColwise</title>
<!-- Node1 -->
<g id="Node000001" class="node">
<title>Node1</title>
<g id="a_Node000001"><a xlink:title="Column&#45;wise normalization with pre&#45;computed statistics.">
<polygon fill="#999999" stroke="#666666" points="1425.25,-147.88 1260.75,-147.88 1260.75,-117.38 1425.25,-117.38 1425.25,-147.88"/>
<text xml:space="preserve" text-anchor="start" x="1268.75" y="-134.38" font-family="Helvetica,sans-Serif" font-size="10.00">BigDataStatMeth::RcppNormalize</text>
<text xml:space="preserve" text-anchor="middle" x="1343" y="-123.12" font-family="Helvetica,sans-Serif" font-size="10.00">Colwise</text>
</a>
</g>
</g>
<!-- Node2 -->
<g id="Node000002" class="node">
<title>Node2</title>
<g id="a_Node000002"><a xlink:href="namespace_big_data_stat_meth.html#a8230fb3b686276464c16ed444be03d22" target="_top" xlink:title=" ">
<polygon fill="white" stroke="#666666" points="806.5,-255.88 625.5,-255.88 625.5,-225.38 806.5,-225.38 806.5,-255.88"/>
<text xml:space="preserve" text-anchor="start" x="633.5" y="-242.38" font-family="Helvetica,sans-Serif" font-size="10.00">BigDataStatMeth::First</text>
<text xml:space="preserve" text-anchor="middle" x="716" y="-231.12" font-family="Helvetica,sans-Serif" font-size="10.00">_level_SvdBlock_decomposition_hdf5</text>
</a>
</g>
</g>
<!-- Node1&#45;&gt;Node2 -->
<g id="edge1_Node000001_Node000002" class="edge">
<title>Node1&#45;&gt;Node2</title>
<g id="a_edge1_Node000001_Node000002"><a xlink:title=" ">
<path fill="none" stroke="#63b8ff" d="M1271.69,-151.1C1202.5,-168.68 1093.62,-194.74 998,-210.62 934.48,-221.18 862.23,-228.8 806.9,-233.72"/>
<polygon fill="#63b8ff" stroke="#63b8ff" points="1272.16,-154.59 1280.98,-148.73 1270.43,-147.81 1272.16,-154.59"/>
</a>
</g>
</g>
<!-- Node6 -->
<g id="Node000006" class="node">
<title>Node6</title>
<g id="a_Node000006"><a xlink:href="namespace_big_data_stat_meth.html#a52e2664528abefab4dfc6c8a1df1cf93" target="_top" xlink:title=" ">
<polygon fill="white" stroke="#666666" points="1224.75,-105.25 1034,-105.25 1034,-86 1224.75,-86 1224.75,-105.25"/>
<text xml:space="preserve" text-anchor="middle" x="1129.38" y="-91.75" font-family="Helvetica,sans-Serif" font-size="10.00">BigDataStatMeth::RcppNormalize_Data</text>
</a>
</g>
</g>
<!-- Node1&#45;&gt;Node6 -->
<g id="edge5_Node000001_Node000006" class="edge">
<title>Node1&#45;&gt;Node6</title>
<g id="a_edge5_Node000001_Node000006"><a xlink:title=" ">
<path fill="none" stroke="#63b8ff" d="M1249.36,-116.43C1228.58,-112.79 1207.11,-109.04 1188.22,-105.74"/>
<polygon fill="#63b8ff" stroke="#63b8ff" points="1248.54,-119.84 1258.99,-118.11 1249.74,-112.94 1248.54,-119.84"/>
</a>
</g>
</g>
<!-- Node7 -->
<g id="Node000007" class="node">
<title>Node7</title>
<g id="a_Node000007"><a xlink:href="namespace_big_data_stat_meth.html#a1cd3f5cf856a0d1bff9e1cf956f368fd" target="_top" xlink:title="Template function for normalizing data with pre&#45;computed statistics.">
<polygon fill="white" stroke="#666666" points="1224.75,-142.25 1034,-142.25 1034,-123 1224.75,-123 1224.75,-142.25"/>
<text xml:space="preserve" text-anchor="middle" x="1129.38" y="-128.75" font-family="Helvetica,sans-Serif" font-size="10.00">BigDataStatMeth::RcppNormalize_Data</text>
</a>
</g>
</g>
<!-- Node1&#45;&gt;Node7 -->
<g id="edge6_Node000001_Node000007" class="edge">
<title>Node1&#45;&gt;Node7</title>
<g id="a_edge6_Node000001_Node000007"><a xlink:title=" ">
<path fill="none" stroke="#63b8ff" d="M1249.19,-132.62C1241.13,-132.62 1232.98,-132.62 1224.91,-132.62"/>
<polygon fill="#63b8ff" stroke="#63b8ff" points="1248.97,-136.13 1258.97,-132.63 1248.97,-129.13 1248.97,-136.13"/>
</a>
</g>
</g>
<!-- Node3 -->
<g id="Node000003" class="node">
<title>Node3</title>
<g id="a_Node000003"><a xlink:href="namespace_big_data_stat_meth.html#afbf517649a66c749830f33e4273857a7" target="_top" xlink:title="Block&#45;wise SVD decomposition for large HDF5 matrices.">
<polygon fill="white" stroke="#666666" points="575.62,-190.88 423.88,-190.88 423.88,-160.38 575.62,-160.38 575.62,-190.88"/>
<text xml:space="preserve" text-anchor="start" x="431.88" y="-177.38" font-family="Helvetica,sans-Serif" font-size="10.00">BigDataStatMeth::RcppbdSVD</text>
<text xml:space="preserve" text-anchor="middle" x="499.75" y="-166.12" font-family="Helvetica,sans-Serif" font-size="10.00">_hdf5_Block</text>
</a>
</g>
</g>
<!-- Node2&#45;&gt;Node3 -->
<g id="edge2_Node000002_Node000003" class="edge">
<title>Node2&#45;&gt;Node3</title>
<g id="a_edge2_Node000002_Node000003"><a xlink:title=" ">
<path fill="none" stroke="#63b8ff" d="M652.21,-221.57C620.5,-211.96 582.51,-200.43 552.51,-191.33"/>
<polygon fill="#63b8ff" stroke="#63b8ff" points="651.1,-224.9 661.69,-224.45 653.13,-218.2 651.1,-224.9"/>
</a>
</g>
</g>
<!-- Node4 -->
<g id="Node000004" class="node">
<title>Node4</title>
<g id="a_Node000004"><a xlink:href="namespace_big_data_stat_meth.html#a05d2196df8a68f19b986fd06d8812e84" target="_top" xlink:title="Main SVD computation function for HDF5 matrices.">
<polygon fill="white" stroke="#666666" points="374,-142.25 198.25,-142.25 198.25,-123 374,-123 374,-142.25"/>
<text xml:space="preserve" text-anchor="middle" x="286.12" y="-128.75" font-family="Helvetica,sans-Serif" font-size="10.00">BigDataStatMeth::RcppbdSVD_hdf5</text>
</a>
</g>
</g>
<!-- Node3&#45;&gt;Node4 -->
<g id="edge3_Node000003_Node000004" class="edge">
<title>Node3&#45;&gt;Node4</title>
<g id="a_edge3_Node000003_Node000004"><a xlink:title=" ">
<path fill="none" stroke="#63b8ff" d="M412.28,-158.06C386.63,-152.84 359.42,-147.31 336.94,-142.75"/>
<polygon fill="#63b8ff" stroke="#63b8ff" points="411.56,-161.48 422.06,-160.04 412.96,-154.62 411.56,-161.48"/>
</a>
</g>
</g>
<!-- Node5 -->
<g id="Node000005" class="node">
<title>Node5</title>
<g id="a_Node000005"><a xlink:href="namespace_big_data_stat_meth.html#ad6b05b5b52e05bd7801b03ba6008980d" target="_top" xlink:title="Perform Principal Component Analysis.">
<polygon fill="white" stroke="#666666" points="162.25,-142.25 0,-142.25 0,-123 162.25,-123 162.25,-142.25"/>
<text xml:space="preserve" text-anchor="middle" x="81.12" y="-128.75" font-family="Helvetica,sans-Serif" font-size="10.00">BigDataStatMeth::RcppPCAHdf5</text>
</a>
</g>
</g>
<!-- Node4&#45;&gt;Node5 -->
<g id="edge4_Node000004_Node000005" class="edge">
<title>Node4&#45;&gt;Node5</title>
<g id="a_edge4_Node000004_Node000005"><a xlink:title=" ">
<path fill="none" stroke="#63b8ff" d="M186.54,-132.62C178.51,-132.62 170.46,-132.62 162.58,-132.62"/>
<polygon fill="#63b8ff" stroke="#63b8ff" points="186.34,-136.13 196.34,-132.63 186.34,-129.13 186.34,-136.13"/>
</a>
</g>
</g>
<!-- Node7&#45;&gt;Node2 -->
<g id="edge7_Node000007_Node000002" class="edge">
<title>Node7&#45;&gt;Node2</title>
<g id="a_edge7_Node000007_Node000002"><a xlink:title=" ">
<path fill="none" stroke="#63b8ff" d="M1092.23,-146.72C1066.27,-156.51 1030.31,-169.4 998,-178.62 932.55,-197.32 857.17,-213.67 800.97,-224.89"/>
<polygon fill="#63b8ff" stroke="#63b8ff" points="1093.19,-150.1 1101.29,-143.27 1090.7,-143.56 1093.19,-150.1"/>
</a>
</g>
</g>
<!-- Node8 -->
<g id="Node000008" class="node">
<title>Node8</title>
<g id="a_Node000008"><a xlink:href="namespace_big_data_stat_meth.html#af27025105c7f4730a8233cf325613694" target="_top" xlink:title="Block&#45;wise eigendecomposition for large HDF5 matrices using Spectra.">
<polygon fill="white" stroke="#666666" points="793.75,-45.88 638.25,-45.88 638.25,-15.37 793.75,-15.37 793.75,-45.88"/>
<text xml:space="preserve" text-anchor="start" x="646.25" y="-32.38" font-family="Helvetica,sans-Serif" font-size="10.00">BigDataStatMeth::RcppbdEigen</text>
<text xml:space="preserve" text-anchor="middle" x="716" y="-21.12" font-family="Helvetica,sans-Serif" font-size="10.00">_hdf5_Block</text>
</a>
</g>
</g>
<!-- Node7&#45;&gt;Node8 -->
<g id="edge8_Node000007_Node000008" class="edge">
<title>Node7&#45;&gt;Node8</title>
<g id="a_edge8_Node000007_Node000008"><a xlink:title=" ">
<path fill="none" stroke="#63b8ff" d="M1046.49,-119.34C1042.21,-117.93 1038.02,-116.36 1034,-114.62 1015.88,-106.81 1016.07,-96.57 998,-88.62 988.57,-84.47 873.89,-61.45 793.99,-45.69"/>
<polygon fill="#63b8ff" stroke="#63b8ff" points="1045.24,-122.62 1055.82,-122.13 1047.24,-115.91 1045.24,-122.62"/>
</a>
</g>
</g>
<!-- Node10 -->
<g id="Node000010" class="node">
<title>Node10</title>
<g id="a_Node000010"><a xlink:href="namespace_big_data_stat_meth.html#a050dd22b3a20be0b77d4b72fd278a214" target="_top" xlink:title="Eigenvalue decomposition using Spectra (partial, k &lt; n)">
<polygon fill="white" stroke="#666666" points="998,-45.88 842.5,-45.88 842.5,-15.37 998,-15.37 998,-45.88"/>
<text xml:space="preserve" text-anchor="start" x="850.5" y="-32.38" font-family="Helvetica,sans-Serif" font-size="10.00">BigDataStatMeth::RcppbdEigen</text>
<text xml:space="preserve" text-anchor="middle" x="920.25" y="-21.12" font-family="Helvetica,sans-Serif" font-size="10.00">_spectra</text>
</a>
</g>
</g>
<!-- Node7&#45;&gt;Node10 -->
<g id="edge10_Node000007_Node000010" class="edge">
<title>Node7&#45;&gt;Node10</title>
<g id="a_edge10_Node000007_Node000010"><a xlink:title=" ">
<path fill="none" stroke="#63b8ff" d="M1039,-117.7C1037.29,-116.73 1035.62,-115.71 1034,-114.62 1009.72,-98.37 1020.79,-77.91 998,-59.62 991.45,-54.37 983.84,-49.99 976,-46.37"/>
<polygon fill="#63b8ff" stroke="#63b8ff" points="1037.29,-120.76 1047.82,-121.95 1040.33,-114.46 1037.29,-120.76"/>
</a>
</g>
</g>
<!-- Node11 -->
<g id="Node000011" class="node">
<title>Node11</title>
<g id="a_Node000011"><a xlink:href="namespace_big_data_stat_meth.html#afaec816571c5d3411749d33349ed9eda" target="_top" xlink:title="Compute SVD decomposition using Spectra eigenvalue solver.">
<polygon fill="white" stroke="#666666" points="791.88,-83.25 640.12,-83.25 640.12,-64 791.88,-64 791.88,-83.25"/>
<text xml:space="preserve" text-anchor="middle" x="716" y="-69.75" font-family="Helvetica,sans-Serif" font-size="10.00">BigDataStatMeth::RcppbdSVD</text>
</a>
</g>
</g>
<!-- Node7&#45;&gt;Node11 -->
<g id="edge13_Node000007_Node000011" class="edge">
<title>Node7&#45;&gt;Node11</title>
<g id="a_edge13_Node000007_Node000011"><a xlink:title=" ">
<path fill="none" stroke="#63b8ff" d="M1046.74,-120.92C970.94,-110.05 859.25,-94.03 787.3,-83.71"/>
<polygon fill="#63b8ff" stroke="#63b8ff" points="1046.23,-124.38 1056.63,-122.33 1047.22,-117.45 1046.23,-124.38"/>
</a>
</g>
</g>
<!-- Node12 -->
<g id="Node000012" class="node">
<title>Node12</title>
<g id="a_Node000012"><a xlink:href="namespace_big_data_stat_meth.html#a818fb4dbac351735a7272343c3ad5f23" target="_top" xlink:title=" ">
<polygon fill="white" stroke="#666666" points="996.12,-169.88 844.38,-169.88 844.38,-139.38 996.12,-139.38 996.12,-169.88"/>
<text xml:space="preserve" text-anchor="start" x="852.38" y="-156.38" font-family="Helvetica,sans-Serif" font-size="10.00">BigDataStatMeth::RcppbdSVD</text>
<text xml:space="preserve" text-anchor="middle" x="920.25" y="-145.12" font-family="Helvetica,sans-Serif" font-size="10.00">_lapack</text>
</a>
</g>
</g>
<!-- Node7&#45;&gt;Node12 -->
<g id="edge14_Node000007_Node000012" class="edge">
<title>Node7&#45;&gt;Node12</title>
<g id="a_edge14_Node000007_Node000012"><a xlink:title=" ">
<path fill="none" stroke="#63b8ff" d="M1022.18,-143.9C1013.49,-144.83 1004.83,-145.75 996.43,-146.64"/>
<polygon fill="#63b8ff" stroke="#63b8ff" points="1022.52,-147.39 1032.1,-142.85 1021.78,-140.43 1022.52,-147.39"/>
</a>
</g>
</g>
<!-- Node9 -->
<g id="Node000009" class="node">
<title>Node9</title>
<g id="a_Node000009"><a xlink:href="namespace_big_data_stat_meth.html#a05652afd0a5a4a4afcda52b3d3bd2cc0" target="_top" xlink:title="Main eigenvalue decomposition for HDF5 matrices.">
<polygon fill="white" stroke="#666666" points="589.5,-19.25 410,-19.25 410,0 589.5,0 589.5,-19.25"/>
<text xml:space="preserve" text-anchor="middle" x="499.75" y="-5.75" font-family="Helvetica,sans-Serif" font-size="10.00">BigDataStatMeth::RcppbdEigen_hdf5</text>
</a>
</g>
</g>
<!-- Node8&#45;&gt;Node9 -->
<g id="edge9_Node000008_Node000009" class="edge">
<title>Node8&#45;&gt;Node9</title>
<g id="a_edge9_Node000008_Node000009"><a xlink:title=" ">
<path fill="none" stroke="#63b8ff" d="M626.85,-21.99C614.64,-20.79 602.09,-19.56 589.86,-18.36"/>
<polygon fill="#63b8ff" stroke="#63b8ff" points="626.15,-25.43 636.45,-22.93 626.84,-18.47 626.15,-25.43"/>
</a>
</g>
</g>
<!-- Node10&#45;&gt;Node8 -->
<g id="edge12_Node000010_Node000008" class="edge">
<title>Node10&#45;&gt;Node8</title>
<g id="a_edge12_Node000010_Node000008"><a xlink:title=" ">
<path fill="none" stroke="#63b8ff" d="M831.03,-30.62C818.75,-30.62 806.21,-30.62 794.16,-30.62"/>
<polygon fill="#63b8ff" stroke="#63b8ff" points="830.7,-34.13 840.7,-30.63 830.7,-27.13 830.7,-34.13"/>
</a>
</g>
</g>
<!-- Node10&#45;&gt;Node9 -->
<g id="edge11_Node000010_Node000009" class="edge">
<title>Node10&#45;&gt;Node9</title>
<g id="a_edge11_Node000010_Node000009"><a xlink:title=" ">
<path fill="none" stroke="#63b8ff" d="M845.5,-12.61C832.57,-10.12 819.2,-7.96 806.5,-6.62 733.91,1.02 651.09,-0.42 589.98,-3.38"/>
<polygon fill="#63b8ff" stroke="#63b8ff" points="844.73,-16.03 855.22,-14.58 846.11,-9.17 844.73,-16.03"/>
</a>
</g>
</g>
<!-- Node12&#45;&gt;Node2 -->
<g id="edge15_Node000012_Node000002" class="edge">
<title>Node12&#45;&gt;Node2</title>
<g id="a_edge15_Node000012_Node000002"><a xlink:title=" ">
<path fill="none" stroke="#63b8ff" d="M864.96,-174.63C857.28,-178.01 849.59,-181.71 842.5,-185.62 825.22,-195.17 824.1,-202.7 806.5,-211.62 796.45,-216.72 785.31,-221.18 774.41,-224.97"/>
<polygon fill="#63b8ff" stroke="#63b8ff" points="866.14,-177.94 873.98,-170.81 863.41,-171.49 866.14,-177.94"/>
</a>
</g>
</g>
<!-- Node12&#45;&gt;Node3 -->
<g id="edge20_Node000012_Node000003" class="edge">
<title>Node12&#45;&gt;Node3</title>
<g id="a_edge20_Node000012_Node000003"><a xlink:title=" ">
<path fill="none" stroke="#63b8ff" d="M845.5,-172.64C832.57,-175.13 819.2,-177.29 806.5,-178.62 728.24,-186.86 638.08,-184.55 576.05,-181.15"/>
<polygon fill="#63b8ff" stroke="#63b8ff" points="846.11,-176.08 855.22,-170.67 844.73,-169.22 846.11,-176.08"/>
</a>
</g>
</g>
<!-- Node12&#45;&gt;Node4 -->
<g id="edge19_Node000012_Node000004" class="edge">
<title>Node12&#45;&gt;Node4</title>
<g id="a_edge19_Node000012_Node000004"><a xlink:title=" ">
<path fill="none" stroke="#63b8ff" d="M845.5,-136.61C832.57,-134.12 819.2,-131.96 806.5,-130.62 655.17,-114.7 477.67,-120.64 374.26,-126.54"/>
<polygon fill="#63b8ff" stroke="#63b8ff" points="844.73,-140.03 855.22,-138.58 846.11,-133.17 844.73,-140.03"/>
</a>
</g>
</g>
<!-- Node12&#45;&gt;Node11 -->
<g id="edge18_Node000012_Node000011" class="edge">
<title>Node12&#45;&gt;Node11</title>
<g id="a_edge18_Node000012_Node000011"><a xlink:title=" ">
<path fill="none" stroke="#63b8ff" d="M860.63,-134.59C854.39,-131.84 848.23,-128.84 842.5,-125.62 824.82,-115.71 824.65,-106.65 806.5,-97.62 794.69,-91.75 781.26,-87.18 768.46,-83.67"/>
<polygon fill="#63b8ff" stroke="#63b8ff" points="859.19,-137.78 869.76,-138.41 861.89,-131.32 859.19,-137.78"/>
</a>
</g>
</g>
<!-- Node13 -->
<g id="Node000013" class="node">
<title>Node13</title>
<g id="a_Node000013"><a xlink:href="namespace_big_data_stat_meth.html#aba547c198a44e235965333df9d1dc146" target="_top" xlink:title=" ">
<polygon fill="white" stroke="#666666" points="806.5,-169.88 625.5,-169.88 625.5,-139.38 806.5,-139.38 806.5,-169.88"/>
<text xml:space="preserve" text-anchor="start" x="633.5" y="-156.38" font-family="Helvetica,sans-Serif" font-size="10.00">BigDataStatMeth::Next</text>
<text xml:space="preserve" text-anchor="middle" x="716" y="-145.12" font-family="Helvetica,sans-Serif" font-size="10.00">_level_SvdBlock_decomposition_hdf5</text>
</a>
</g>
</g>
<!-- Node12&#45;&gt;Node13 -->
<g id="edge16_Node000012_Node000013" class="edge">
<title>Node12&#45;&gt;Node13</title>
<g id="a_edge16_Node000012_Node000013"><a xlink:title=" ">
<path fill="none" stroke="#63b8ff" d="M832.44,-154.62C823.92,-154.62 815.27,-154.62 806.72,-154.62"/>
<polygon fill="#63b8ff" stroke="#63b8ff" points="832.43,-158.13 842.43,-154.63 832.43,-151.13 832.43,-158.13"/>
</a>
</g>
</g>
<!-- Node13&#45;&gt;Node3 -->
<g id="edge17_Node000013_Node000003" class="edge">
<title>Node13&#45;&gt;Node3</title>
<g id="a_edge17_Node000013_Node000003"><a xlink:title=" ">
<path fill="none" stroke="#63b8ff" d="M613.87,-164.54C601.08,-165.79 588.17,-167.06 575.88,-168.26"/>
<polygon fill="#63b8ff" stroke="#63b8ff" points="613.95,-168.05 623.56,-163.59 613.27,-161.08 613.95,-168.05"/>
</a>
</g>
</g>
</g>
</svg>

<g id="navigator" transform="translate(0 0)" fill="#404254">
  <rect fill="#f2f5e9" fill-opacity="0.5" stroke="#606060" stroke-width=".5" x="0" y="0" width="60" height="60"/>
  <use id="zoomplus" xlink:href="#zoomPlus" x="17" y="9" onmousedown="handleZoom(evt,'in')"/>
  <use id="zoomminus" xlink:href="#zoomMin" x="42" y="9" onmousedown="handleZoom(evt,'out')"/>
  <use id="reset" xlink:href="#resetDef" x="30" y="36" onmousedown="handleReset()"/>
   <use id="arrowup" xlink:href="#arrowUp" x="0" y="0" onmousedown="handlePan(0,-1)"/>
  <use id="arrowright" xlink:href="#arrowRight" x="0" y="0" onmousedown="handlePan(1,0)"/>
  <use id="arrowdown" xlink:href="#arrowDown" x="0" y="0" onmousedown="handlePan(0,1)"/>
  <use id="arrowleft" xlink:href="#arrowLeft" x="0" y="0" onmousedown="handlePan(-1,0)"/>
</g>
<svg viewBox="0 0 15 15" width="100%" height="30px" preserveAspectRatio="xMaxYMin meet">
 <g id="arrow_out" transform="scale(0.3 0.3)">
  <a xlink:href="namespace_big_data_stat_meth_aaac3a1d91c92fdf91f7bbc256672b68e_icgraph_org.svg" target="_base">
   <rect id="button" ry="5" rx="5" y="6" x="6" height="38" width="38"
        fill="#f2f5e9" fill-opacity="0.5" stroke="#606060" stroke-width="1.0"/>
   <path id="arrow"
     d="M 11.500037,31.436501 C 11.940474,20.09759 22.043105,11.32322 32.158766,21.979434 L 37.068811,17.246167 C 37.068811,17.246167 37.088388,32 37.088388,32 L 22.160133,31.978069 C 22.160133,31.978069 26.997745,27.140456 26.997745,27.140456 C 18.528582,18.264221 13.291696,25.230495 11.500037,31.436501 z"
     style="fill:#404040;"/>
  </a>
 </g>
</svg>

<style type='text/css'>
<![CDATA[
[data-mouse-over-selected='false'] { opacity: 0.7; }
[data-mouse-over-selected='true']  { opacity: 1.0; }
]]>
</style>
<script type="application/ecmascript"><![CDATA[
document.addEventListener('DOMContentLoaded', (event) => {
  highlightEdges();
  highlightAdjacentNodes();
});
]]></script>
</svg>
