<?xml version="1.0" encoding="UTF-8" standalone="no"?>
<!DOCTYPE svg PUBLIC "-//W3C//DTD SVG 1.1//EN"
 "http://www.w3.org/Graphics/SVG/1.1/DTD/svg11.dtd">
<!-- Generated by graphviz version 14.0.0 (20250921.2048)
 -->
<!-- Title: BigDataStatMeth::RcppbdCorr_hdf5_single Pages: 1 -->
<!--zoomable 567 -->

<svg id="main" version="1.1" xmlns="http://www.w3.org/2000/svg" xmlns:xlink="http://www.w3.org/1999/xlink" xml:space="preserve" onload="init(evt)">

<style type="text/css"><![CDATA[
.node, .edge {opacity: 0.7;}
.node.selected, .edge.selected {opacity: 1;}
.edge:hover path { stroke: red; }
.edge:hover polygon { stroke: red; fill: red; }
]]></style>

<defs>
  <circle id="rim" cx="0" cy="0" r="7"/>
  <circle id="rim2" cx="0" cy="0" r="3.5"/>
  <g id="zoomPlus">
    <use xlink:href="#rim" fill="#404040"><set attributeName="fill" to="#808080" begin="zoomplus.mouseover" end="zoomplus.mouseout"/></use>
    <path d="M-4,0h8M0,-4v8" fill="none" stroke="white" stroke-width="1.5" pointer-events="none"/>
  </g>
  <g id="zoomMin">
    <use xlink:href="#rim" fill="#404040"><set attributeName="fill" to="#808080" begin="zoomminus.mouseover" end="zoomminus.mouseout"/></use>
    <path d="M-4,0h8" fill="none" stroke="white" stroke-width="1.5" pointer-events="none"/>
  </g>
  <g id="arrowUp" transform="translate(30 24)">
    <use xlink:href="#rim"/>
    <path pointer-events="none" fill="none" stroke="white" stroke-width="1.5" d="M0,-3.0v7 M-2.5,-0.5L0,-3.0L2.5,-0.5"/>
  </g>
  <g id="arrowRight" transform="rotate(90) translate(36 -43)">
    <use xlink:href="#rim"/>
    <path pointer-events="none" fill="none" stroke="white" stroke-width="1.5" d="M0,-3.0v7 M-2.5,-0.5L0,-3.0L2.5,-0.5"/>
  </g>
  <g id="arrowDown" transform="rotate(180) translate(-30 -48)">
    <use xlink:href="#rim"/>
    <path pointer-events="none" fill="none" stroke="white" stroke-width="1.5" d="M0,-3.0v7 M-2.5,-0.5L0,-3.0L2.5,-0.5"/>
  </g>
  <g id="arrowLeft" transform="rotate(270) translate(-36 17)">
    <use xlink:href="#rim"/>
    <path pointer-events="none" fill="none" stroke="white" stroke-width="1.5" d="M0,-3.0v7 M-2.5,-0.5L0,-3.0L2.5,-0.5"/>
  </g>
  <g id="resetDef">
    <use xlink:href="#rim2" fill="#404040"><set attributeName="fill" to="#808080" begin="reset.mouseover" end="reset.mouseout"/></use>
  </g>
</defs>
<script type="application/ecmascript">
var viewWidth = 1017;
var viewHeight = 567;
var sectionId = 'dynsection-155';
</script>
<script type="application/ecmascript" xlink:href="../../../../assets/svg.min.js"/>
<svg id="graph" class="graph">
<g id="viewport">
<title>BigDataStatMeth::RcppbdCorr_hdf5_single</title>
<!-- Node1 -->
<g id="Node000001" class="node">
<title>Node1</title>
<g id="a_Node000001"><a xlink:title="Implementation of single matrix correlation computation for HDF5 matrices &#45; OPTIMIZED.">
<polygon fill="#999999" stroke="#666666" points="149.5,-450.5 0,-450.5 0,-420 149.5,-420 149.5,-450.5"/>
<text xml:space="preserve" text-anchor="start" x="8" y="-437" font-family="Helvetica,sans-Serif" font-size="10.00">BigDataStatMeth::RcppbdCorr</text>
<text xml:space="preserve" text-anchor="middle" x="74.75" y="-425.75" font-family="Helvetica,sans-Serif" font-size="10.00">_hdf5_single</text>
</a>
</g>
</g>
<!-- Node2 -->
<g id="Node000002" class="node">
<title>Node2</title>
<g id="a_Node000002"><a xlink:href="namespace_big_data_stat_meth.html#a11cc183caa903c10f78ffdb7969d0266" target="_top" xlink:title=" ">
<polygon fill="white" stroke="#666666" points="335,-429.5 185.5,-429.5 185.5,-399 335,-399 335,-429.5"/>
<text xml:space="preserve" text-anchor="start" x="193.5" y="-416" font-family="Helvetica,sans-Serif" font-size="10.00">BigDataStatMeth::RcppbdCorr</text>
<text xml:space="preserve" text-anchor="middle" x="260.25" y="-404.75" font-family="Helvetica,sans-Serif" font-size="10.00">_hdf5_Block_single</text>
</a>
</g>
</g>
<!-- Node1&#45;&gt;Node2 -->
<g id="edge1_Node000001_Node000002" class="edge">
<title>Node1&#45;&gt;Node2</title>
<g id="a_edge1_Node000001_Node000002"><a xlink:title=" ">
<path fill="none" stroke="#63b8ff" d="M149.86,-426.77C157.77,-425.86 165.86,-424.94 173.89,-424.02"/>
<polygon fill="#63b8ff" stroke="#63b8ff" points="174.12,-427.51 183.66,-422.9 173.33,-420.56 174.12,-427.51"/>
</a>
</g>
</g>
<!-- Node24 -->
<g id="Node000024" class="node">
<title>Node24</title>
<g id="a_Node000024"><a xlink:href="namespace_big_data_stat_meth.html#aa890111706f3d0e5cc011df4d78689f0" target="_top" xlink:title=" ">
<polygon fill="white" stroke="#666666" points="520.88,-510.5 371.38,-510.5 371.38,-480 520.88,-480 520.88,-510.5"/>
<text xml:space="preserve" text-anchor="start" x="379.38" y="-497" font-family="Helvetica,sans-Serif" font-size="10.00">BigDataStatMeth::RcppbdCorr</text>
<text xml:space="preserve" text-anchor="middle" x="446.12" y="-485.75" font-family="Helvetica,sans-Serif" font-size="10.00">_matrix_single</text>
</a>
</g>
</g>
<!-- Node1&#45;&gt;Node24 -->
<g id="edge31_Node000001_Node000024" class="edge">
<title>Node1&#45;&gt;Node24</title>
<g id="a_edge31_Node000001_Node000024"><a xlink:title=" ">
<path fill="none" stroke="#63b8ff" d="M149.61,-447.25C210.29,-457.1 296.28,-471.07 359.87,-481.4"/>
<polygon fill="#63b8ff" stroke="#63b8ff" points="359.15,-484.83 369.58,-482.98 360.27,-477.92 359.15,-484.83"/>
</a>
</g>
</g>
<!-- Node3 -->
<g id="Node000003" class="node">
<title>Node3</title>
<g id="a_Node000003"><a xlink:href="namespace_big_data_stat_meth.html#a548baec51dfdb0481a3632cc50faed4c" target="_top" xlink:title="Optimized p&#45;value computation for correlation matrices using Eigen.">
<polygon fill="white" stroke="#666666" points="699.62,-558.5 565.12,-558.5 565.12,-528 699.62,-528 699.62,-558.5"/>
<text xml:space="preserve" text-anchor="start" x="573.12" y="-545" font-family="Helvetica,sans-Serif" font-size="10.00">BigDataStatMeth::compute</text>
<text xml:space="preserve" text-anchor="middle" x="632.38" y="-533.75" font-family="Helvetica,sans-Serif" font-size="10.00">_pvalues_optimized</text>
</a>
</g>
</g>
<!-- Node2&#45;&gt;Node3 -->
<g id="edge2_Node000002_Node000003" class="edge">
<title>Node2&#45;&gt;Node3</title>
<g id="a_edge2_Node000002_Node000003"><a xlink:title=" ">
<path fill="none" stroke="#63b8ff" d="M271.93,-429.72C289.47,-453.69 326.85,-499.13 371,-519.25 428.15,-545.29 499.57,-550.2 553.15,-549.2"/>
<polygon fill="#63b8ff" stroke="#63b8ff" points="553.23,-552.7 563.13,-548.94 553.04,-545.71 553.23,-552.7"/>
</a>
</g>
</g>
<!-- Node5 -->
<g id="Node000005" class="node">
<title>Node5</title>
<g id="a_Node000005"><a xlink:href="class_big_data_stat_meth_1_1hdf5_dataset.html#a374a6cadcadfc23c1f5df858d31e20df" target="_top" xlink:title="Create a new dataset with optional compression.">
<polygon fill="white" stroke="#666666" points="521.25,-226.5 371,-226.5 371,-196 521.25,-196 521.25,-226.5"/>
<text xml:space="preserve" text-anchor="start" x="379" y="-213" font-family="Helvetica,sans-Serif" font-size="10.00">BigDataStatMeth::hdf5Dataset</text>
<text xml:space="preserve" text-anchor="middle" x="446.12" y="-201.75" font-family="Helvetica,sans-Serif" font-size="10.00">::createDataset</text>
</a>
</g>
</g>
<!-- Node2&#45;&gt;Node5 -->
<g id="edge4_Node000002_Node000005" class="edge">
<title>Node2&#45;&gt;Node5</title>
<g id="a_edge4_Node000002_Node000005"><a xlink:title=" ">
<path fill="none" stroke="#63b8ff" d="M275.37,-398.66C307.33,-363.38 385.35,-277.25 423.46,-235.17"/>
<polygon fill="#63b8ff" stroke="#63b8ff" points="425.82,-237.78 429.94,-228.02 420.63,-233.08 425.82,-237.78"/>
</a>
</g>
</g>
<!-- Node13 -->
<g id="Node000013" class="node">
<title>Node13</title>
<g id="a_Node000013"><a xlink:href="class_big_data_stat_meth_1_1hdf5_dataset.html#acf9843abcb57a0090f1635cc69d95300" target="_top" xlink:title="Write data to the dataset.">
<polygon fill="white" stroke="#666666" points="707.5,-54.5 557.25,-54.5 557.25,-24 707.5,-24 707.5,-54.5"/>
<text xml:space="preserve" text-anchor="start" x="565.25" y="-41" font-family="Helvetica,sans-Serif" font-size="10.00">BigDataStatMeth::hdf5Dataset</text>
<text xml:space="preserve" text-anchor="middle" x="632.38" y="-29.75" font-family="Helvetica,sans-Serif" font-size="10.00">::writeDataset</text>
</a>
</g>
</g>
<!-- Node2&#45;&gt;Node13 -->
<g id="edge30_Node000002_Node000013" class="edge">
<title>Node2&#45;&gt;Node13</title>
<g id="a_edge30_Node000002_Node000013"><a xlink:title=" ">
<path fill="none" stroke="#63b8ff" d="M265.63,-398.57C277.25,-359.21 312.06,-254.62 371,-187.25 436.32,-112.59 468.12,-107.8 557.25,-64.25 560.95,-62.44 564.8,-60.72 568.73,-59.07"/>
<polygon fill="#63b8ff" stroke="#63b8ff" points="569.82,-62.41 577.84,-55.48 567.25,-55.89 569.82,-62.41"/>
</a>
</g>
</g>
<!-- Node16 -->
<g id="Node000016" class="node">
<title>Node16</title>
<g id="a_Node000016"><a xlink:href="openme-utils_8hpp.html#a172daf6d039501f511eff563e5de2ae7" target="_top" xlink:title=" ">
<polygon fill="white" stroke="#666666" points="498.38,-337.88 393.88,-337.88 393.88,-318.62 498.38,-318.62 498.38,-337.88"/>
<text xml:space="preserve" text-anchor="middle" x="446.12" y="-324.38" font-family="Helvetica,sans-Serif" font-size="10.00">get_number_threads</text>
</a>
</g>
</g>
<!-- Node2&#45;&gt;Node16 -->
<g id="edge16_Node000002_Node000016" class="edge">
<title>Node2&#45;&gt;Node16</title>
<g id="a_edge16_Node000002_Node000016"><a xlink:title=" ">
<path fill="none" stroke="#63b8ff" d="M282.5,-398.63C303.88,-383.56 338.3,-361.06 371,-347.25 375.87,-345.19 381.01,-343.32 386.23,-341.62"/>
<polygon fill="#63b8ff" stroke="#63b8ff" points="386.98,-345.05 395.53,-338.8 384.95,-338.35 386.98,-345.05"/>
</a>
</g>
</g>
<!-- Node22 -->
<g id="Node000022" class="node">
<title>Node22</title>
<g id="a_Node000022"><a xlink:href="class_big_data_stat_meth_1_1hdf5_dataset.html#a8cce59e2884ad1ee3b67f281566780af" target="_top" xlink:title="Inherit the compression level from an input dataset if not already set.">
<polygon fill="white" stroke="#666666" points="521.25,-386.5 371,-386.5 371,-356 521.25,-356 521.25,-386.5"/>
<text xml:space="preserve" text-anchor="start" x="379" y="-373" font-family="Helvetica,sans-Serif" font-size="10.00">BigDataStatMeth::hdf5Dataset</text>
<text xml:space="preserve" text-anchor="middle" x="446.12" y="-361.75" font-family="Helvetica,sans-Serif" font-size="10.00">::inheritCompressionLevel</text>
</a>
</g>
</g>
<!-- Node2&#45;&gt;Node22 -->
<g id="edge22_Node000002_Node000022" class="edge">
<title>Node2&#45;&gt;Node22</title>
<g id="a_edge22_Node000002_Node000022"><a xlink:title=" ">
<path fill="none" stroke="#63b8ff" d="M328.41,-398.54C340.87,-395.63 353.98,-392.56 366.74,-389.58"/>
<polygon fill="#63b8ff" stroke="#63b8ff" points="367.42,-393.02 376.36,-387.33 365.83,-386.2 367.42,-393.02"/>
</a>
</g>
</g>
<!-- Node23 -->
<g id="Node000023" class="node">
<title>Node23</title>
<g id="a_Node000023"><a xlink:href="namespace_big_data_stat_meth.html#a69e49b89327966eb689525e63dea8656" target="_top" xlink:title=" ">
<polygon fill="white" stroke="#666666" points="894.88,-472.5 763.38,-472.5 763.38,-442 894.88,-442 894.88,-472.5"/>
<text xml:space="preserve" text-anchor="start" x="771.38" y="-459" font-family="Helvetica,sans-Serif" font-size="10.00">BigDataStatMeth::pearson</text>
<text xml:space="preserve" text-anchor="middle" x="829.12" y="-447.75" font-family="Helvetica,sans-Serif" font-size="10.00">_correlation</text>
</a>
</g>
</g>
<!-- Node2&#45;&gt;Node23 -->
<g id="edge23_Node000002_Node000023" class="edge">
<title>Node2&#45;&gt;Node23</title>
<g id="a_edge23_Node000002_Node000023"><a xlink:title=" ">
<path fill="none" stroke="#63b8ff" d="M335.36,-413.93C424.13,-414.34 577.19,-417.61 707.5,-433.25 721.94,-434.98 737.24,-437.49 751.92,-440.25"/>
<polygon fill="#63b8ff" stroke="#63b8ff" points="751.03,-443.64 761.51,-442.1 752.36,-436.77 751.03,-443.64"/>
</a>
</g>
</g>
<!-- Node2&#45;&gt;Node24 -->
<g id="edge24_Node000002_Node000024" class="edge">
<title>Node2&#45;&gt;Node24</title>
<g id="a_edge24_Node000002_Node000024"><a xlink:title=" ">
<path fill="none" stroke="#63b8ff" d="M292.68,-429.86C314.48,-440.5 344.29,-454.71 371,-466.25 378.16,-469.34 385.76,-472.48 393.26,-475.49"/>
<polygon fill="#63b8ff" stroke="#63b8ff" points="391.76,-478.66 402.34,-479.09 394.34,-472.15 391.76,-478.66"/>
</a>
</g>
</g>
<!-- Node25 -->
<g id="Node000025" class="node">
<title>Node25</title>
<g id="a_Node000025"><a xlink:href="namespace_big_data_stat_meth.html#a73e0308254294ed4603750e0595b9802" target="_top" xlink:title=" ">
<polygon fill="white" stroke="#666666" points="702.25,-472.5 562.5,-472.5 562.5,-442 702.25,-442 702.25,-472.5"/>
<text xml:space="preserve" text-anchor="start" x="570.5" y="-459" font-family="Helvetica,sans-Serif" font-size="10.00">BigDataStatMeth::spearman</text>
<text xml:space="preserve" text-anchor="middle" x="632.38" y="-447.75" font-family="Helvetica,sans-Serif" font-size="10.00">_correlation</text>
</a>
</g>
</g>
<!-- Node2&#45;&gt;Node25 -->
<g id="edge29_Node000002_Node000025" class="edge">
<title>Node2&#45;&gt;Node25</title>
<g id="a_edge29_Node000002_Node000025"><a xlink:title=" ">
<path fill="none" stroke="#63b8ff" d="M335.32,-423.86C347.25,-425.36 359.46,-426.87 371,-428.25 431.25,-435.45 499.42,-443.02 550.89,-448.62"/>
<polygon fill="#63b8ff" stroke="#63b8ff" points="550.44,-452.09 560.76,-449.69 551.2,-445.13 550.44,-452.09"/>
</a>
</g>
</g>
<!-- Node4 -->
<g id="Node000004" class="node">
<title>Node4</title>
<g id="a_Node000004"><a xlink:href="namespace_big_data_stat_meth.html#a58690697a1eec1b3feefdc089d056905" target="_top" xlink:title="Compute p&#45;value for correlation coefficient using t&#45;distribution.">
<polygon fill="white" stroke="#666666" points="879.12,-558.5 779.12,-558.5 779.12,-528 879.12,-528 879.12,-558.5"/>
<text xml:space="preserve" text-anchor="start" x="787.12" y="-545" font-family="Helvetica,sans-Serif" font-size="10.00">BigDataStatMeth::t</text>
<text xml:space="preserve" text-anchor="middle" x="829.12" y="-533.75" font-family="Helvetica,sans-Serif" font-size="10.00">_distribution_cdf</text>
</a>
</g>
</g>
<!-- Node3&#45;&gt;Node4 -->
<g id="edge3_Node000003_Node000004" class="edge">
<title>Node3&#45;&gt;Node4</title>
<g id="a_edge3_Node000003_Node000004"><a xlink:title=" ">
<path fill="none" stroke="#63b8ff" d="M700.12,-543.25C721.96,-543.25 746.09,-543.25 767.46,-543.25"/>
<polygon fill="#63b8ff" stroke="#63b8ff" points="767.17,-546.75 777.17,-543.25 767.17,-539.75 767.17,-546.75"/>
</a>
</g>
</g>
<!-- Node6 -->
<g id="Node000006" class="node">
<title>Node6</title>
<g id="a_Node000006"><a xlink:href="class_big_data_stat_meth_1_1hdf5_dataset.html#ac7a7f23b7e22c9b56ca6ad86592f2d52" target="_top" xlink:title="Add an attribute to the dataset.">
<polygon fill="white" stroke="#666666" points="707.5,-103.5 557.25,-103.5 557.25,-73 707.5,-73 707.5,-103.5"/>
<text xml:space="preserve" text-anchor="start" x="565.25" y="-90" font-family="Helvetica,sans-Serif" font-size="10.00">BigDataStatMeth::hdf5Dataset</text>
<text xml:space="preserve" text-anchor="middle" x="632.38" y="-78.75" font-family="Helvetica,sans-Serif" font-size="10.00">::addAttribute</text>
</a>
</g>
</g>
<!-- Node5&#45;&gt;Node6 -->
<g id="edge5_Node000005_Node000006" class="edge">
<title>Node5&#45;&gt;Node6</title>
<g id="a_edge5_Node000005_Node000006"><a xlink:title=" ">
<path fill="none" stroke="#63b8ff" d="M460.92,-195.51C480.43,-174.14 518.08,-136 557.25,-113.25 560.06,-111.62 562.99,-110.07 565.99,-108.62"/>
<polygon fill="#63b8ff" stroke="#63b8ff" points="567.33,-111.85 575.04,-104.59 564.48,-105.46 567.33,-111.85"/>
</a>
</g>
</g>
<!-- Node7 -->
<g id="Node000007" class="node">
<title>Node7</title>
<g id="a_Node000007"><a xlink:href="class_big_data_stat_meth_1_1hdf5_file.html#abfb73b5f1eb25ee00489485c8dc56a2a" target="_top" xlink:title="Close file and cleanup resources.">
<polygon fill="white" stroke="#666666" points="698.12,-348.5 566.62,-348.5 566.62,-318 698.12,-318 698.12,-348.5"/>
<text xml:space="preserve" text-anchor="start" x="574.62" y="-335" font-family="Helvetica,sans-Serif" font-size="10.00">BigDataStatMeth::hdf5File</text>
<text xml:space="preserve" text-anchor="middle" x="632.38" y="-323.75" font-family="Helvetica,sans-Serif" font-size="10.00">::close_file</text>
</a>
</g>
</g>
<!-- Node5&#45;&gt;Node7 -->
<g id="edge6_Node000005_Node000007" class="edge">
<title>Node5&#45;&gt;Node7</title>
<g id="a_edge6_Node000005_Node000007"><a xlink:title=" ">
<path fill="none" stroke="#63b8ff" d="M460.96,-226.82C480.5,-247.96 518.2,-285.7 557.25,-308.25 560.21,-309.96 563.31,-311.58 566.49,-313.1"/>
<polygon fill="#63b8ff" stroke="#63b8ff" points="564.89,-316.22 575.45,-317.04 567.7,-309.81 564.89,-316.22"/>
</a>
</g>
</g>
<!-- Node8 -->
<g id="Node000008" class="node">
<title>Node8</title>
<g id="a_Node000008"><a xlink:href="class_big_data_stat_meth_1_1hdf5_group.html#a27cef4d33e46c72bfd792aa49fa621a3" target="_top" xlink:title="Create multiple nested groups.">
<polygon fill="white" stroke="#666666" points="703.38,-299.5 561.38,-299.5 561.38,-269 703.38,-269 703.38,-299.5"/>
<text xml:space="preserve" text-anchor="start" x="569.38" y="-286" font-family="Helvetica,sans-Serif" font-size="10.00">BigDataStatMeth::hdf5Group</text>
<text xml:space="preserve" text-anchor="middle" x="632.38" y="-274.75" font-family="Helvetica,sans-Serif" font-size="10.00">::create_HDF5_groups</text>
</a>
</g>
</g>
<!-- Node5&#45;&gt;Node8 -->
<g id="edge7_Node000005_Node000008" class="edge">
<title>Node5&#45;&gt;Node8</title>
<g id="a_edge7_Node000005_Node000008"><a xlink:title=" ">
<path fill="none" stroke="#63b8ff" d="M481.04,-226.93C502.66,-236.7 531.37,-249.27 557.25,-259.25 562.14,-261.14 567.24,-263.02 572.38,-264.86"/>
<polygon fill="#63b8ff" stroke="#63b8ff" points="570.89,-268.05 581.49,-268.07 573.21,-261.45 570.89,-268.05"/>
</a>
</g>
</g>
<!-- Node10 -->
<g id="Node000010" class="node">
<title>Node10</title>
<g id="a_Node000010"><a xlink:href="namespace_big_data_stat_meth.html#a89d901ab4b5e01771f4e3fc7dc84e50e" target="_top" xlink:title="Checks if an HDF5 element (group or dataset) exists.">
<polygon fill="white" stroke="#666666" points="694,-250.5 570.75,-250.5 570.75,-220 694,-220 694,-250.5"/>
<text xml:space="preserve" text-anchor="start" x="578.75" y="-237" font-family="Helvetica,sans-Serif" font-size="10.00">BigDataStatMeth::exists</text>
<text xml:space="preserve" text-anchor="middle" x="632.38" y="-225.75" font-family="Helvetica,sans-Serif" font-size="10.00">_HDF5_element</text>
</a>
</g>
</g>
<!-- Node5&#45;&gt;Node10 -->
<g id="edge9_Node000005_Node000010" class="edge">
<title>Node5&#45;&gt;Node10</title>
<g id="a_edge9_Node000005_Node000010"><a xlink:title=" ">
<path fill="none" stroke="#63b8ff" d="M521.54,-220.94C534,-222.57 546.91,-224.25 559.32,-225.86"/>
<polygon fill="#63b8ff" stroke="#63b8ff" points="558.67,-229.31 569.04,-227.13 559.57,-222.37 558.67,-229.31"/>
</a>
</g>
</g>
<!-- Node11 -->
<g id="Node000011" class="node">
<title>Node11</title>
<g id="a_Node000011"><a xlink:href="class_big_data_stat_meth_1_1hdf5_group.html#a59995412538627e6c80f64b552c286f5" target="_top" xlink:title=" ">
<polygon fill="white" stroke="#666666" points="703.38,-201.5 561.38,-201.5 561.38,-171 703.38,-171 703.38,-201.5"/>
<text xml:space="preserve" text-anchor="start" x="569.38" y="-188" font-family="Helvetica,sans-Serif" font-size="10.00">BigDataStatMeth::hdf5Group</text>
<text xml:space="preserve" text-anchor="middle" x="632.38" y="-176.75" font-family="Helvetica,sans-Serif" font-size="10.00">::getGroupName</text>
</a>
</g>
</g>
<!-- Node5&#45;&gt;Node11 -->
<g id="edge11_Node000005_Node000011" class="edge">
<title>Node5&#45;&gt;Node11</title>
<g id="a_edge11_Node000005_Node000011"><a xlink:title=" ">
<path fill="none" stroke="#63b8ff" d="M521.54,-201.15C530.84,-199.89 540.39,-198.6 549.79,-197.32"/>
<polygon fill="#63b8ff" stroke="#63b8ff" points="550.22,-200.79 559.66,-195.98 549.28,-193.86 550.22,-200.79"/>
</a>
</g>
</g>
<!-- Node12 -->
<g id="Node000012" class="node">
<title>Node12</title>
<g id="a_Node000012"><a xlink:href="namespace_big_data_stat_meth.html#a3d06783149029f1df2853c472d401380" target="_top" xlink:title="Removes multiple elements from an HDF5 file.">
<polygon fill="white" stroke="#666666" points="697,-152.5 567.75,-152.5 567.75,-122 697,-122 697,-152.5"/>
<text xml:space="preserve" text-anchor="start" x="575.75" y="-139" font-family="Helvetica,sans-Serif" font-size="10.00">BigDataStatMeth::remove</text>
<text xml:space="preserve" text-anchor="middle" x="632.38" y="-127.75" font-family="Helvetica,sans-Serif" font-size="10.00">_elements</text>
</a>
</g>
</g>
<!-- Node5&#45;&gt;Node12 -->
<g id="edge12_Node000005_Node000012" class="edge">
<title>Node5&#45;&gt;Node12</title>
<g id="a_edge12_Node000005_Node000012"><a xlink:title=" ">
<path fill="none" stroke="#63b8ff" d="M480.04,-195.64C501.75,-185.58 530.93,-172.52 557.25,-162.25 562.13,-160.34 567.23,-158.45 572.36,-156.6"/>
<polygon fill="#63b8ff" stroke="#63b8ff" points="573.2,-160.01 581.47,-153.38 570.87,-153.41 573.2,-160.01"/>
</a>
</g>
</g>
<!-- Node5&#45;&gt;Node13 -->
<g id="edge13_Node000005_Node000013" class="edge">
<title>Node5&#45;&gt;Node13</title>
<g id="a_edge13_Node000005_Node000013"><a xlink:title=" ">
<path fill="none" stroke="#63b8ff" d="M458.02,-195.65C483.18,-159.76 544.21,-73.69 557.25,-64.25 559.18,-62.85 561.2,-61.52 563.28,-60.27"/>
<polygon fill="#63b8ff" stroke="#63b8ff" points="564.87,-63.39 572.07,-55.61 561.59,-57.2 564.87,-63.39"/>
</a>
</g>
</g>
<!-- Node9 -->
<g id="Node000009" class="node">
<title>Node9</title>
<g id="a_Node000009"><a xlink:href="namespace_big_data_stat_meth.html#abcaa4216cd52f03ebac42e4855ef846b" target="_top" xlink:title="Checks if a path exists in an HDF5 file.">
<polygon fill="white" stroke="#666666" points="900.88,-268.88 757.38,-268.88 757.38,-249.62 900.88,-249.62 900.88,-268.88"/>
<text xml:space="preserve" text-anchor="middle" x="829.12" y="-255.38" font-family="Helvetica,sans-Serif" font-size="10.00">BigDataStatMeth::pathExists</text>
</a>
</g>
</g>
<!-- Node8&#45;&gt;Node9 -->
<g id="edge8_Node000008_Node000009" class="edge">
<title>Node8&#45;&gt;Node9</title>
<g id="a_edge8_Node000008_Node000009"><a xlink:title=" ">
<path fill="none" stroke="#63b8ff" d="M703.68,-275.22C717.35,-273.47 731.8,-271.62 745.81,-269.82"/>
<polygon fill="#63b8ff" stroke="#63b8ff" points="745.96,-273.33 755.44,-268.58 745.07,-266.38 745.96,-273.33"/>
</a>
</g>
</g>
<!-- Node10&#45;&gt;Node9 -->
<g id="edge10_Node000010_Node000009" class="edge">
<title>Node10&#45;&gt;Node9</title>
<g id="a_edge10_Node000010_Node000009"><a xlink:title=" ">
<path fill="none" stroke="#63b8ff" d="M694.46,-242.78C710.75,-244.79 728.62,-246.99 745.84,-249.11"/>
<polygon fill="#63b8ff" stroke="#63b8ff" points="745.19,-252.56 755.54,-250.31 746.04,-245.61 745.19,-252.56"/>
</a>
</g>
</g>
<!-- Node14 -->
<g id="Node000014" class="node">
<title>Node14</title>
<g id="a_Node000014"><a xlink:href="class_big_data_stat_meth_1_1hdf5_dataset.html#aba39e56a580d3b1fa7f1619fc72efa3e" target="_top" xlink:title="Close dataset and file.">
<polygon fill="white" stroke="#666666" points="904.25,-30.5 754,-30.5 754,0 904.25,0 904.25,-30.5"/>
<text xml:space="preserve" text-anchor="start" x="762" y="-17" font-family="Helvetica,sans-Serif" font-size="10.00">BigDataStatMeth::hdf5Dataset</text>
<text xml:space="preserve" text-anchor="middle" x="829.12" y="-5.75" font-family="Helvetica,sans-Serif" font-size="10.00">::close_dataset_file</text>
</a>
</g>
</g>
<!-- Node13&#45;&gt;Node14 -->
<g id="edge14_Node000013_Node000014" class="edge">
<title>Node13&#45;&gt;Node14</title>
<g id="a_edge14_Node000013_Node000014"><a xlink:title=" ">
<path fill="none" stroke="#63b8ff" d="M707.84,-30.07C719.11,-28.68 730.82,-27.24 742.31,-25.83"/>
<polygon fill="#63b8ff" stroke="#63b8ff" points="742.71,-29.3 752.2,-24.61 741.85,-22.36 742.71,-29.3"/>
</a>
</g>
</g>
<!-- Node15 -->
<g id="Node000015" class="node">
<title>Node15</title>
<g id="a_Node000015"><a xlink:href="class_big_data_stat_meth_1_1hdf5_dataset.html#a94d81b72e92cb0230b4e64f37ea7d2e3" target="_top" xlink:title="Convert DataFrame to range list.">
<polygon fill="white" stroke="#666666" points="914.75,-79.5 743.5,-79.5 743.5,-49 914.75,-49 914.75,-79.5"/>
<text xml:space="preserve" text-anchor="start" x="751.5" y="-66" font-family="Helvetica,sans-Serif" font-size="10.00">BigDataStatMeth::hdf5Dataset</text>
<text xml:space="preserve" text-anchor="middle" x="829.12" y="-54.75" font-family="Helvetica,sans-Serif" font-size="10.00">::convert_DataFrame_to_RangeList</text>
</a>
</g>
</g>
<!-- Node13&#45;&gt;Node15 -->
<g id="edge15_Node000013_Node000015" class="edge">
<title>Node13&#45;&gt;Node15</title>
<g id="a_edge15_Node000013_Node000015"><a xlink:title=" ">
<path fill="none" stroke="#63b8ff" d="M707.84,-48.81C715.72,-49.82 723.81,-50.86 731.9,-51.9"/>
<polygon fill="#63b8ff" stroke="#63b8ff" points="731.43,-55.37 741.79,-53.17 732.32,-48.42 731.43,-55.37"/>
</a>
</g>
</g>
<!-- Node17 -->
<g id="Node000017" class="node">
<title>Node17</title>
<g id="a_Node000017"><a xlink:href="openme-utils_8hpp.html#a7d6263da9da6b46b945746e3abdea4ca" target="_top" xlink:title="Determines number of threads for parallel operations.">
<polygon fill="white" stroke="#666666" points="670,-385.88 594.75,-385.88 594.75,-366.62 670,-366.62 670,-385.88"/>
<text xml:space="preserve" text-anchor="middle" x="632.38" y="-372.38" font-family="Helvetica,sans-Serif" font-size="10.00">getDTthreads</text>
</a>
</g>
</g>
<!-- Node16&#45;&gt;Node17 -->
<g id="edge17_Node000016_Node000017" class="edge">
<title>Node16&#45;&gt;Node17</title>
<g id="a_edge17_Node000016_Node000017"><a xlink:title=" ">
<path fill="none" stroke="#63b8ff" d="M487.17,-338.36C498.22,-341.19 510.21,-344.3 521.25,-347.25 537.29,-351.53 541.21,-352.97 557.25,-357.25 565.73,-359.52 574.78,-361.88 583.53,-364.14"/>
<polygon fill="#63b8ff" stroke="#63b8ff" points="582.36,-367.45 592.92,-366.55 584.11,-360.67 582.36,-367.45"/>
</a>
</g>
</g>
<!-- Node18 -->
<g id="Node000018" class="node">
<title>Node18</title>
<g id="a_Node000018"><a xlink:href="openme-utils_8hpp.html#a32e65a19d36ceec1952e48362e4153b8" target="_top" xlink:title="Initializes thread configuration based on environment and system state.">
<polygon fill="white" stroke="#666666" points="866.38,-385.88 791.88,-385.88 791.88,-366.62 866.38,-366.62 866.38,-385.88"/>
<text xml:space="preserve" text-anchor="middle" x="829.12" y="-372.38" font-family="Helvetica,sans-Serif" font-size="10.00">initDTthreads</text>
</a>
</g>
</g>
<!-- Node17&#45;&gt;Node18 -->
<g id="edge18_Node000017_Node000018" class="edge">
<title>Node17&#45;&gt;Node18</title>
<g id="a_edge18_Node000017_Node000018"><a xlink:title=" ">
<path fill="none" stroke="#63b8ff" d="M670.46,-376.25C701.56,-376.25 746.18,-376.25 780.02,-376.25"/>
<polygon fill="#63b8ff" stroke="#63b8ff" points="779.99,-379.75 789.99,-376.25 779.99,-372.75 779.99,-379.75"/>
</a>
</g>
</g>
<!-- Node19 -->
<g id="Node000019" class="node">
<title>Node19</title>
<g id="a_Node000019"><a xlink:href="openme-utils_8hpp.html#a62643b5f3a2b3d36929fed3c368c2cfc" target="_top" xlink:title="Retrieves integer value from environment variable.">
<polygon fill="white" stroke="#666666" points="1008.75,-422.88 950.75,-422.88 950.75,-403.62 1008.75,-403.62 1008.75,-422.88"/>
<text xml:space="preserve" text-anchor="middle" x="979.75" y="-409.38" font-family="Helvetica,sans-Serif" font-size="10.00">getIntEnv</text>
</a>
</g>
</g>
<!-- Node18&#45;&gt;Node19 -->
<g id="edge19_Node000018_Node000019" class="edge">
<title>Node18&#45;&gt;Node19</title>
<g id="a_edge19_Node000018_Node000019"><a xlink:title=" ">
<path fill="none" stroke="#63b8ff" d="M866.86,-385.4C888.92,-390.89 916.98,-397.87 939.48,-403.47"/>
<polygon fill="#63b8ff" stroke="#63b8ff" points="938.33,-406.8 948.88,-405.81 940.02,-400 938.33,-406.8"/>
</a>
</g>
</g>
<!-- Node20 -->
<g id="Node000020" class="node">
<title>Node20</title>
<g id="a_Node000020"><a xlink:href="openme-utils_8hpp.html#afca01a231aef5cdbcbb5c23a7134e9d4" target="_top" xlink:title="Maximum of two integers.">
<polygon fill="white" stroke="#666666" points="998.25,-385.88 961.25,-385.88 961.25,-366.62 998.25,-366.62 998.25,-385.88"/>
<text xml:space="preserve" text-anchor="middle" x="979.75" y="-372.38" font-family="Helvetica,sans-Serif" font-size="10.00">imax</text>
</a>
</g>
</g>
<!-- Node18&#45;&gt;Node20 -->
<g id="edge20_Node000018_Node000020" class="edge">
<title>Node18&#45;&gt;Node20</title>
<g id="a_edge20_Node000018_Node000020"><a xlink:title=" ">
<path fill="none" stroke="#63b8ff" d="M866.86,-376.25C892.34,-376.25 925.81,-376.25 949.48,-376.25"/>
<polygon fill="#63b8ff" stroke="#63b8ff" points="949.36,-379.75 959.36,-376.25 949.36,-372.75 949.36,-379.75"/>
</a>
</g>
</g>
<!-- Node21 -->
<g id="Node000021" class="node">
<title>Node21</title>
<g id="a_Node000021"><a xlink:href="openme-utils_8hpp.html#aa011f843a2a959cc6f8c226f60e96224" target="_top" xlink:title="Minimum of two integers.">
<polygon fill="white" stroke="#666666" points="996.75,-348.88 962.75,-348.88 962.75,-329.62 996.75,-329.62 996.75,-348.88"/>
<text xml:space="preserve" text-anchor="middle" x="979.75" y="-335.38" font-family="Helvetica,sans-Serif" font-size="10.00">imin</text>
</a>
</g>
</g>
<!-- Node18&#45;&gt;Node21 -->
<g id="edge21_Node000018_Node000021" class="edge">
<title>Node18&#45;&gt;Node21</title>
<g id="a_edge21_Node000018_Node000021"><a xlink:title=" ">
<path fill="none" stroke="#63b8ff" d="M866.86,-367.1C893.04,-360.59 927.66,-351.97 951.42,-346.05"/>
<polygon fill="#63b8ff" stroke="#63b8ff" points="952.11,-349.49 960.97,-343.68 950.42,-342.7 952.11,-349.49"/>
</a>
</g>
</g>
<!-- Node24&#45;&gt;Node3 -->
<g id="edge25_Node000024_Node000003" class="edge">
<title>Node24&#45;&gt;Node3</title>
<g id="a_edge25_Node000024_Node000003"><a xlink:title=" ">
<path fill="none" stroke="#63b8ff" d="M507.46,-510.97C524.4,-515.38 542.99,-520.22 560.49,-524.78"/>
<polygon fill="#63b8ff" stroke="#63b8ff" points="559.2,-528.06 569.76,-527.2 560.96,-521.29 559.2,-528.06"/>
</a>
</g>
</g>
<!-- Node24&#45;&gt;Node23 -->
<g id="edge26_Node000024_Node000023" class="edge">
<title>Node24&#45;&gt;Node23</title>
<g id="a_edge26_Node000024_Node000023"><a xlink:title=" ">
<path fill="none" stroke="#63b8ff" d="M521.17,-494.08C573.41,-492.56 644.95,-489.11 707.5,-481.25 721.93,-479.44 737.23,-476.89 751.91,-474.12"/>
<polygon fill="#63b8ff" stroke="#63b8ff" points="752.34,-477.6 761.5,-472.26 751.01,-470.73 752.34,-477.6"/>
</a>
</g>
</g>
<!-- Node24&#45;&gt;Node25 -->
<g id="edge27_Node000024_Node000025" class="edge">
<title>Node24&#45;&gt;Node25</title>
<g id="a_edge27_Node000024_Node000025"><a xlink:title=" ">
<path fill="none" stroke="#63b8ff" d="M521.27,-479.96C531.08,-477.94 541.17,-475.85 551.08,-473.81"/>
<polygon fill="#63b8ff" stroke="#63b8ff" points="551.59,-477.28 560.67,-471.83 550.17,-470.42 551.59,-477.28"/>
</a>
</g>
</g>
<!-- Node25&#45;&gt;Node23 -->
<g id="edge28_Node000025_Node000023" class="edge">
<title>Node25&#45;&gt;Node23</title>
<g id="a_edge28_Node000025_Node000023"><a xlink:title=" ">
<path fill="none" stroke="#63b8ff" d="M702.58,-457.25C718.57,-457.25 735.67,-457.25 751.94,-457.25"/>
<polygon fill="#63b8ff" stroke="#63b8ff" points="751.53,-460.75 761.53,-457.25 751.53,-453.75 751.53,-460.75"/>
</a>
</g>
</g>
</g>
</svg>

<g id="navigator" transform="translate(0 0)" fill="#404254">
  <rect fill="#f2f5e9" fill-opacity="0.5" stroke="#606060" stroke-width=".5" x="0" y="0" width="60" height="60"/>
  <use id="zoomplus" xlink:href="#zoomPlus" x="17" y="9" onmousedown="handleZoom(evt,'in')"/>
  <use id="zoomminus" xlink:href="#zoomMin" x="42" y="9" onmousedown="handleZoom(evt,'out')"/>
  <use id="reset" xlink:href="#resetDef" x="30" y="36" onmousedown="handleReset()"/>
   <use id="arrowup" xlink:href="#arrowUp" x="0" y="0" onmousedown="handlePan(0,-1)"/>
  <use id="arrowright" xlink:href="#arrowRight" x="0" y="0" onmousedown="handlePan(1,0)"/>
  <use id="arrowdown" xlink:href="#arrowDown" x="0" y="0" onmousedown="handlePan(0,1)"/>
  <use id="arrowleft" xlink:href="#arrowLeft" x="0" y="0" onmousedown="handlePan(-1,0)"/>
</g>
<svg viewBox="0 0 15 15" width="100%" height="30px" preserveAspectRatio="xMaxYMin meet">
 <g id="arrow_out" transform="scale(0.3 0.3)">
  <a xlink:href="namespace_big_data_stat_meth_a52fbcbe3b989972b1475ffd71400dde2_cgraph_org.svg" target="_base">
   <rect id="button" ry="5" rx="5" y="6" x="6" height="38" width="38"
        fill="#f2f5e9" fill-opacity="0.5" stroke="#606060" stroke-width="1.0"/>
   <path id="arrow"
     d="M 11.500037,31.436501 C 11.940474,20.09759 22.043105,11.32322 32.158766,21.979434 L 37.068811,17.246167 C 37.068811,17.246167 37.088388,32 37.088388,32 L 22.160133,31.978069 C 22.160133,31.978069 26.997745,27.140456 26.997745,27.140456 C 18.528582,18.264221 13.291696,25.230495 11.500037,31.436501 z"
     style="fill:#404040;"/>
  </a>
 </g>
</svg>

<style type='text/css'>
<![CDATA[
[data-mouse-over-selected='false'] { opacity: 0.7; }
[data-mouse-over-selected='true']  { opacity: 1.0; }
]]>
</style>
<script type="application/ecmascript"><![CDATA[
document.addEventListener('DOMContentLoaded', (event) => {
  highlightEdges();
  highlightAdjacentNodes();
});
]]></script>
</svg>
