<?xml version="1.0" encoding="UTF-8" standalone="no"?>
<!DOCTYPE svg PUBLIC "-//W3C//DTD SVG 1.1//EN"
 "http://www.w3.org/Graphics/SVG/1.1/DTD/svg11.dtd">
<!-- Generated by graphviz version 14.0.0 (20250921.2048)
 -->
<!-- Title: BigDataStatMeth::crossprod Pages: 1 -->
<!--zoomable 795 -->

<svg id="main" version="1.1" xmlns="http://www.w3.org/2000/svg" xmlns:xlink="http://www.w3.org/1999/xlink" xml:space="preserve" onload="init(evt)">

<style type="text/css"><![CDATA[
.node, .edge {opacity: 0.7;}
.node.selected, .edge.selected {opacity: 1;}
.edge:hover path { stroke: red; }
.edge:hover polygon { stroke: red; fill: red; }
]]></style>

<defs>
  <circle id="rim" cx="0" cy="0" r="7"/>
  <circle id="rim2" cx="0" cy="0" r="3.5"/>
  <g id="zoomPlus">
    <use xlink:href="#rim" fill="#404040"><set attributeName="fill" to="#808080" begin="zoomplus.mouseover" end="zoomplus.mouseout"/></use>
    <path d="M-4,0h8M0,-4v8" fill="none" stroke="white" stroke-width="1.5" pointer-events="none"/>
  </g>
  <g id="zoomMin">
    <use xlink:href="#rim" fill="#404040"><set attributeName="fill" to="#808080" begin="zoomminus.mouseover" end="zoomminus.mouseout"/></use>
    <path d="M-4,0h8" fill="none" stroke="white" stroke-width="1.5" pointer-events="none"/>
  </g>
  <g id="arrowUp" transform="translate(30 24)">
    <use xlink:href="#rim"/>
    <path pointer-events="none" fill="none" stroke="white" stroke-width="1.5" d="M0,-3.0v7 M-2.5,-0.5L0,-3.0L2.5,-0.5"/>
  </g>
  <g id="arrowRight" transform="rotate(90) translate(36 -43)">
    <use xlink:href="#rim"/>
    <path pointer-events="none" fill="none" stroke="white" stroke-width="1.5" d="M0,-3.0v7 M-2.5,-0.5L0,-3.0L2.5,-0.5"/>
  </g>
  <g id="arrowDown" transform="rotate(180) translate(-30 -48)">
    <use xlink:href="#rim"/>
    <path pointer-events="none" fill="none" stroke="white" stroke-width="1.5" d="M0,-3.0v7 M-2.5,-0.5L0,-3.0L2.5,-0.5"/>
  </g>
  <g id="arrowLeft" transform="rotate(270) translate(-36 17)">
    <use xlink:href="#rim"/>
    <path pointer-events="none" fill="none" stroke="white" stroke-width="1.5" d="M0,-3.0v7 M-2.5,-0.5L0,-3.0L2.5,-0.5"/>
  </g>
  <g id="resetDef">
    <use xlink:href="#rim2" fill="#404040"><set attributeName="fill" to="#808080" begin="reset.mouseover" end="reset.mouseout"/></use>
  </g>
</defs>
<script type="application/ecmascript">
var viewWidth = 822;
var viewHeight = 795;
var sectionId = 'dynsection-19';
</script>
<script type="application/ecmascript" xlink:href="../../../../assets/svg.min.js"/>
<svg id="graph" class="graph">
<g id="viewport">
<title>BigDataStatMeth::crossprod</title>
<!-- Node1 -->
<g id="Node000001" class="node">
<title>Node1</title>
<g id="a_Node000001"><a xlink:title="Computes the cross&#45;product of two matrices stored in HDF5 format.">
<polygon fill="#999999" stroke="#666666" points="139.75,-293.88 0,-293.88 0,-274.62 139.75,-274.62 139.75,-293.88"/>
<text xml:space="preserve" text-anchor="middle" x="69.88" y="-280.38" font-family="Helvetica,sans-Serif" font-size="10.00">BigDataStatMeth::crossprod</text>
</a>
</g>
</g>
<!-- Node2 -->
<g id="Node000002" class="node">
<title>Node2</title>
<g id="a_Node000002"><a xlink:href="class_big_data_stat_meth_1_1hdf5_dataset.html#a374a6cadcadfc23c1f5df858d31e20df" target="_top" xlink:title="Create a new dataset with optional compression.">
<polygon fill="white" stroke="#666666" points="326,-615.5 175.75,-615.5 175.75,-585 326,-585 326,-615.5"/>
<text xml:space="preserve" text-anchor="start" x="183.75" y="-602" font-family="Helvetica,sans-Serif" font-size="10.00">BigDataStatMeth::hdf5Dataset</text>
<text xml:space="preserve" text-anchor="middle" x="250.88" y="-590.75" font-family="Helvetica,sans-Serif" font-size="10.00">::createDataset</text>
</a>
</g>
</g>
<!-- Node1&#45;&gt;Node2 -->
<g id="edge1_Node000001_Node000002" class="edge">
<title>Node1&#45;&gt;Node2</title>
<g id="a_edge1_Node000001_Node000002"><a xlink:title=" ">
<path fill="none" stroke="#63b8ff" d="M74.91,-293.94C87.87,-324.74 130.29,-422.76 175.75,-498.25 192.42,-525.93 214.51,-555.61 230.23,-575.77"/>
<polygon fill="#63b8ff" stroke="#63b8ff" points="227.3,-577.71 236.24,-583.4 232.8,-573.38 227.3,-577.71"/>
</a>
</g>
</g>
<!-- Node13 -->
<g id="Node000013" class="node">
<title>Node13</title>
<g id="a_Node000013"><a xlink:href="openme-utils_8hpp.html#a172daf6d039501f511eff563e5de2ae7" target="_top" xlink:title=" ">
<polygon fill="white" stroke="#666666" points="303.12,-361.88 198.62,-361.88 198.62,-342.62 303.12,-342.62 303.12,-361.88"/>
<text xml:space="preserve" text-anchor="middle" x="250.88" y="-348.38" font-family="Helvetica,sans-Serif" font-size="10.00">get_number_threads</text>
</a>
</g>
</g>
<!-- Node1&#45;&gt;Node13 -->
<g id="edge13_Node000001_Node000013" class="edge">
<title>Node1&#45;&gt;Node13</title>
<g id="a_edge13_Node000001_Node000013"><a xlink:title=" ">
<path fill="none" stroke="#63b8ff" d="M89.38,-294.18C109.99,-304.94 144.53,-322.07 175.75,-333.25 181.76,-335.4 188.12,-337.42 194.5,-339.27"/>
<polygon fill="#63b8ff" stroke="#63b8ff" points="193.15,-342.53 203.72,-341.82 195.01,-335.78 193.15,-342.53"/>
</a>
</g>
</g>
<!-- Node19 -->
<g id="Node000019" class="node">
<title>Node19</title>
<g id="a_Node000019"><a xlink:href="class_big_data_stat_meth_1_1hdf5_dataset.html#af3ab7117b94164ab629673cacd896dd9" target="_top" xlink:title="Get the current compression level for this dataset instance.">
<polygon fill="white" stroke="#666666" points="326,-324.5 175.75,-324.5 175.75,-294 326,-294 326,-324.5"/>
<text xml:space="preserve" text-anchor="start" x="183.75" y="-311" font-family="Helvetica,sans-Serif" font-size="10.00">BigDataStatMeth::hdf5Dataset</text>
<text xml:space="preserve" text-anchor="middle" x="250.88" y="-299.75" font-family="Helvetica,sans-Serif" font-size="10.00">::getCompressionLevel</text>
</a>
</g>
</g>
<!-- Node1&#45;&gt;Node19 -->
<g id="edge19_Node000001_Node000019" class="edge">
<title>Node1&#45;&gt;Node19</title>
<g id="a_edge19_Node000001_Node000019"><a xlink:title=" ">
<path fill="none" stroke="#63b8ff" d="M140.08,-293.92C147.97,-295.02 156.08,-296.15 164.16,-297.28"/>
<polygon fill="#63b8ff" stroke="#63b8ff" points="163.62,-300.74 174.01,-298.65 164.59,-293.81 163.62,-300.74"/>
</a>
</g>
</g>
<!-- Node20 -->
<g id="Node000020" class="node">
<title>Node20</title>
<g id="a_Node000020"><a xlink:href="class_big_data_stat_meth_1_1hdf5_dataset.html#ac979eba40078c7c5974b64b2ce6347a3" target="_top" xlink:title="Get dataset name.">
<polygon fill="white" stroke="#666666" points="326,-275.5 175.75,-275.5 175.75,-245 326,-245 326,-275.5"/>
<text xml:space="preserve" text-anchor="start" x="183.75" y="-262" font-family="Helvetica,sans-Serif" font-size="10.00">BigDataStatMeth::hdf5Dataset</text>
<text xml:space="preserve" text-anchor="middle" x="250.88" y="-250.75" font-family="Helvetica,sans-Serif" font-size="10.00">::getDatasetName</text>
</a>
</g>
</g>
<!-- Node1&#45;&gt;Node20 -->
<g id="edge20_Node000001_Node000020" class="edge">
<title>Node1&#45;&gt;Node20</title>
<g id="a_edge20_Node000001_Node000020"><a xlink:title=" ">
<path fill="none" stroke="#63b8ff" d="M140.08,-274.97C147.97,-273.91 156.08,-272.83 164.16,-271.74"/>
<polygon fill="#63b8ff" stroke="#63b8ff" points="164.57,-275.22 174.01,-270.42 163.64,-268.28 164.57,-275.22"/>
</a>
</g>
</g>
<!-- Node21 -->
<g id="Node000021" class="node">
<title>Node21</title>
<g id="a_Node000021"><a xlink:href="class_big_data_stat_meth_1_1hdf5_file.html#a2d2bd792aa9c01e459312e6727cde8af" target="_top" xlink:title="Get full file path.">
<polygon fill="white" stroke="#666666" points="316.62,-226.5 185.12,-226.5 185.12,-196 316.62,-196 316.62,-226.5"/>
<text xml:space="preserve" text-anchor="start" x="193.12" y="-213" font-family="Helvetica,sans-Serif" font-size="10.00">BigDataStatMeth::hdf5File</text>
<text xml:space="preserve" text-anchor="middle" x="250.88" y="-201.75" font-family="Helvetica,sans-Serif" font-size="10.00">::getFullPath</text>
</a>
</g>
</g>
<!-- Node1&#45;&gt;Node21 -->
<g id="edge21_Node000001_Node000021" class="edge">
<title>Node1&#45;&gt;Node21</title>
<g id="a_edge21_Node000001_Node000021"><a xlink:title=" ">
<path fill="none" stroke="#63b8ff" d="M91.1,-274.23C112.03,-264.05 145.78,-248.13 175.75,-236.25 180.42,-234.4 185.29,-232.56 190.2,-230.77"/>
<polygon fill="#63b8ff" stroke="#63b8ff" points="191.29,-234.1 199.54,-227.45 188.95,-227.5 191.29,-234.1"/>
</a>
</g>
</g>
<!-- Node22 -->
<g id="Node000022" class="node">
<title>Node22</title>
<g id="a_Node000022"><a xlink:href="class_big_data_stat_meth_1_1hdf5_dataset.html#af4869e54b1d4c01ab4caacf1939e1907" target="_top" xlink:title="Get group name.">
<polygon fill="white" stroke="#666666" points="326,-489.5 175.75,-489.5 175.75,-459 326,-459 326,-489.5"/>
<text xml:space="preserve" text-anchor="start" x="183.75" y="-476" font-family="Helvetica,sans-Serif" font-size="10.00">BigDataStatMeth::hdf5Dataset</text>
<text xml:space="preserve" text-anchor="middle" x="250.88" y="-464.75" font-family="Helvetica,sans-Serif" font-size="10.00">::getGroup</text>
</a>
</g>
</g>
<!-- Node1&#45;&gt;Node22 -->
<g id="edge22_Node000001_Node000022" class="edge">
<title>Node1&#45;&gt;Node22</title>
<g id="a_edge22_Node000001_Node000022"><a xlink:title=" ">
<path fill="none" stroke="#63b8ff" d="M75.01,-294.2C86.81,-321.48 123.2,-398.33 175.75,-442.25 180.78,-446.45 186.45,-450.19 192.35,-453.49"/>
<polygon fill="#63b8ff" stroke="#63b8ff" points="190.58,-456.52 201.08,-457.94 193.76,-450.28 190.58,-456.52"/>
</a>
</g>
</g>
<!-- Node23 -->
<g id="Node000023" class="node">
<title>Node23</title>
<g id="a_Node000023"><a xlink:href="namespace_big_data_stat_meth.html#ad6e454f49b5e34a5b657df896eed7502" target="_top" xlink:title="Optimizes block size for edge cases.">
<polygon fill="white" stroke="#666666" points="319.25,-177.5 182.5,-177.5 182.5,-147 319.25,-147 319.25,-177.5"/>
<text xml:space="preserve" text-anchor="start" x="190.5" y="-164" font-family="Helvetica,sans-Serif" font-size="10.00">BigDataStatMeth::getOptim</text>
<text xml:space="preserve" text-anchor="middle" x="250.88" y="-152.75" font-family="Helvetica,sans-Serif" font-size="10.00">BlockSize</text>
</a>
</g>
</g>
<!-- Node1&#45;&gt;Node23 -->
<g id="edge24_Node000001_Node000023" class="edge">
<title>Node1&#45;&gt;Node23</title>
<g id="a_edge24_Node000001_Node000023"><a xlink:title=" ">
<path fill="none" stroke="#63b8ff" d="M79.07,-274.26C95.48,-254.85 134.38,-211.82 175.75,-187.25 178.54,-185.59 181.46,-184.03 184.45,-182.55"/>
<polygon fill="#63b8ff" stroke="#63b8ff" points="185.8,-185.78 193.48,-178.49 182.92,-179.4 185.8,-185.78"/>
</a>
</g>
</g>
<!-- Node24 -->
<g id="Node000024" class="node">
<title>Node24</title>
<g id="a_Node000024"><a xlink:href="class_big_data_stat_meth_1_1hdf5_dataset.html#a8cce59e2884ad1ee3b67f281566780af" target="_top" xlink:title="Inherit the compression level from an input dataset if not already set.">
<polygon fill="white" stroke="#666666" points="326,-128.5 175.75,-128.5 175.75,-98 326,-98 326,-128.5"/>
<text xml:space="preserve" text-anchor="start" x="183.75" y="-115" font-family="Helvetica,sans-Serif" font-size="10.00">BigDataStatMeth::hdf5Dataset</text>
<text xml:space="preserve" text-anchor="middle" x="250.88" y="-103.75" font-family="Helvetica,sans-Serif" font-size="10.00">::inheritCompressionLevel</text>
</a>
</g>
</g>
<!-- Node1&#45;&gt;Node24 -->
<g id="edge25_Node000001_Node000024" class="edge">
<title>Node1&#45;&gt;Node24</title>
<g id="a_edge25_Node000001_Node000024"><a xlink:title=" ">
<path fill="none" stroke="#63b8ff" d="M75.22,-274.47C87.29,-248.41 123.8,-176.65 175.75,-138.25 177.55,-136.92 179.43,-135.65 181.37,-134.45"/>
<polygon fill="#63b8ff" stroke="#63b8ff" points="183,-137.55 190.12,-129.7 179.66,-131.4 183,-137.55"/>
</a>
</g>
</g>
<!-- Node25 -->
<g id="Node000025" class="node">
<title>Node25</title>
<g id="a_Node000025"><a xlink:href="class_big_data_stat_meth_1_1hdf5_dataset.html#aa743c8c46d7ff3bb2f894145dd07fd8a" target="_top" xlink:title="Get number of columns in internal format.">
<polygon fill="white" stroke="#666666" points="326,-79.5 175.75,-79.5 175.75,-49 326,-49 326,-79.5"/>
<text xml:space="preserve" text-anchor="start" x="183.75" y="-66" font-family="Helvetica,sans-Serif" font-size="10.00">BigDataStatMeth::hdf5Dataset</text>
<text xml:space="preserve" text-anchor="middle" x="250.88" y="-54.75" font-family="Helvetica,sans-Serif" font-size="10.00">::ncols</text>
</a>
</g>
</g>
<!-- Node1&#45;&gt;Node25 -->
<g id="edge26_Node000001_Node000025" class="edge">
<title>Node1&#45;&gt;Node25</title>
<g id="a_edge26_Node000001_Node000025"><a xlink:title=" ">
<path fill="none" stroke="#63b8ff" d="M73.34,-274.51C81.84,-242.93 112.9,-142.33 175.75,-89.25 177.21,-88.01 178.74,-86.84 180.32,-85.72"/>
<polygon fill="#63b8ff" stroke="#63b8ff" points="181.83,-88.9 188.55,-80.72 178.19,-82.92 181.83,-88.9"/>
</a>
</g>
</g>
<!-- Node26 -->
<g id="Node000026" class="node">
<title>Node26</title>
<g id="a_Node000026"><a xlink:href="class_big_data_stat_meth_1_1hdf5_dataset.html#a6cbce676967d0cc4b50e2cc5282c322b" target="_top" xlink:title="Get number of rows in internal format.">
<polygon fill="white" stroke="#666666" points="326,-30.5 175.75,-30.5 175.75,0 326,0 326,-30.5"/>
<text xml:space="preserve" text-anchor="start" x="183.75" y="-17" font-family="Helvetica,sans-Serif" font-size="10.00">BigDataStatMeth::hdf5Dataset</text>
<text xml:space="preserve" text-anchor="middle" x="250.88" y="-5.75" font-family="Helvetica,sans-Serif" font-size="10.00">::nrows</text>
</a>
</g>
</g>
<!-- Node1&#45;&gt;Node26 -->
<g id="edge27_Node000001_Node000026" class="edge">
<title>Node1&#45;&gt;Node26</title>
<g id="a_edge27_Node000001_Node000026"><a xlink:title=" ">
<path fill="none" stroke="#63b8ff" d="M72.24,-274.22C77.76,-237.42 101.87,-108.4 175.75,-40.25 176.97,-39.13 178.24,-38.06 179.55,-37.03"/>
<polygon fill="#63b8ff" stroke="#63b8ff" points="181.09,-40.21 187.52,-31.78 177.24,-34.36 181.09,-40.21"/>
</a>
</g>
</g>
<!-- Node27 -->
<g id="Node000027" class="node">
<title>Node27</title>
<g id="a_Node000027"><a xlink:href="class_big_data_stat_meth_1_1hdf5_dataset.html#a23bea87165b8ef6b944709c5b2cbd0cf" target="_top" xlink:title=" ">
<polygon fill="white" stroke="#666666" points="512.25,-443.5 362,-443.5 362,-413 512.25,-413 512.25,-443.5"/>
<text xml:space="preserve" text-anchor="start" x="370" y="-430" font-family="Helvetica,sans-Serif" font-size="10.00">BigDataStatMeth::hdf5Dataset</text>
<text xml:space="preserve" text-anchor="middle" x="437.12" y="-418.75" font-family="Helvetica,sans-Serif" font-size="10.00">::readDatasetBlock</text>
</a>
</g>
</g>
<!-- Node1&#45;&gt;Node27 -->
<g id="edge28_Node000001_Node000027" class="edge">
<title>Node1&#45;&gt;Node27</title>
<g id="a_edge28_Node000001_Node000027"><a xlink:title=" ">
<path fill="none" stroke="#63b8ff" d="M76.74,-294.08C90.68,-316.45 128.24,-371.12 175.75,-395.25 229.5,-422.55 297.23,-430.44 350.14,-431.7"/>
<polygon fill="#63b8ff" stroke="#63b8ff" points="349.97,-435.2 360.02,-431.85 350.07,-428.2 349.97,-435.2"/>
</a>
</g>
</g>
<!-- Node28 -->
<g id="Node000028" class="node">
<title>Node28</title>
<g id="a_Node000028"><a xlink:href="class_big_data_stat_meth_1_1hdf5_dataset.html#af606176d84a63561b65702b6fde3a583" target="_top" xlink:title="Write block of data with optional transposition.">
<polygon fill="white" stroke="#666666" points="512.25,-394.5 362,-394.5 362,-364 512.25,-364 512.25,-394.5"/>
<text xml:space="preserve" text-anchor="start" x="370" y="-381" font-family="Helvetica,sans-Serif" font-size="10.00">BigDataStatMeth::hdf5Dataset</text>
<text xml:space="preserve" text-anchor="middle" x="437.12" y="-369.75" font-family="Helvetica,sans-Serif" font-size="10.00">::writeDatasetBlock</text>
</a>
</g>
</g>
<!-- Node1&#45;&gt;Node28 -->
<g id="edge30_Node000001_Node000028" class="edge">
<title>Node1&#45;&gt;Node28</title>
<g id="a_edge30_Node000001_Node000028"><a xlink:title=" ">
<path fill="none" stroke="#63b8ff" d="M78.8,-294.23C94.73,-313.42 132.82,-355.01 175.75,-371.25 231.22,-392.23 298.18,-393.82 350.3,-390.37"/>
<polygon fill="#63b8ff" stroke="#63b8ff" points="350.3,-393.88 360.02,-389.65 349.78,-386.9 350.3,-393.88"/>
</a>
</g>
</g>
<!-- Node3 -->
<g id="Node000003" class="node">
<title>Node3</title>
<g id="a_Node000003"><a xlink:href="class_big_data_stat_meth_1_1hdf5_dataset.html#ac7a7f23b7e22c9b56ca6ad86592f2d52" target="_top" xlink:title="Add an attribute to the dataset.">
<polygon fill="white" stroke="#666666" points="512.25,-786.5 362,-786.5 362,-756 512.25,-756 512.25,-786.5"/>
<text xml:space="preserve" text-anchor="start" x="370" y="-773" font-family="Helvetica,sans-Serif" font-size="10.00">BigDataStatMeth::hdf5Dataset</text>
<text xml:space="preserve" text-anchor="middle" x="437.12" y="-761.75" font-family="Helvetica,sans-Serif" font-size="10.00">::addAttribute</text>
</a>
</g>
</g>
<!-- Node2&#45;&gt;Node3 -->
<g id="edge2_Node000002_Node000003" class="edge">
<title>Node2&#45;&gt;Node3</title>
<g id="a_edge2_Node000002_Node000003"><a xlink:title=" ">
<path fill="none" stroke="#63b8ff" d="M259.57,-615.91C274.95,-645.62 312.3,-710.4 362,-746.25 363.94,-747.65 365.96,-748.97 368.04,-750.22"/>
<polygon fill="#63b8ff" stroke="#63b8ff" points="366.35,-753.29 376.83,-754.87 369.63,-747.1 366.35,-753.29"/>
</a>
</g>
</g>
<!-- Node4 -->
<g id="Node000004" class="node">
<title>Node4</title>
<g id="a_Node000004"><a xlink:href="class_big_data_stat_meth_1_1hdf5_file.html#abfb73b5f1eb25ee00489485c8dc56a2a" target="_top" xlink:title="Close file and cleanup resources.">
<polygon fill="white" stroke="#666666" points="502.88,-737.5 371.38,-737.5 371.38,-707 502.88,-707 502.88,-737.5"/>
<text xml:space="preserve" text-anchor="start" x="379.38" y="-724" font-family="Helvetica,sans-Serif" font-size="10.00">BigDataStatMeth::hdf5File</text>
<text xml:space="preserve" text-anchor="middle" x="437.12" y="-712.75" font-family="Helvetica,sans-Serif" font-size="10.00">::close_file</text>
</a>
</g>
</g>
<!-- Node2&#45;&gt;Node4 -->
<g id="edge3_Node000002_Node000004" class="edge">
<title>Node2&#45;&gt;Node4</title>
<g id="a_edge3_Node000002_Node000004"><a xlink:title=" ">
<path fill="none" stroke="#63b8ff" d="M265.71,-615.82C285.25,-636.96 322.95,-674.7 362,-697.25 364.96,-698.96 368.06,-700.58 371.24,-702.1"/>
<polygon fill="#63b8ff" stroke="#63b8ff" points="369.64,-705.22 380.2,-706.04 372.45,-698.81 369.64,-705.22"/>
</a>
</g>
</g>
<!-- Node5 -->
<g id="Node000005" class="node">
<title>Node5</title>
<g id="a_Node000005"><a xlink:href="class_big_data_stat_meth_1_1hdf5_group.html#a27cef4d33e46c72bfd792aa49fa621a3" target="_top" xlink:title="Create multiple nested groups.">
<polygon fill="white" stroke="#666666" points="508.12,-639.5 366.12,-639.5 366.12,-609 508.12,-609 508.12,-639.5"/>
<text xml:space="preserve" text-anchor="start" x="374.12" y="-626" font-family="Helvetica,sans-Serif" font-size="10.00">BigDataStatMeth::hdf5Group</text>
<text xml:space="preserve" text-anchor="middle" x="437.12" y="-614.75" font-family="Helvetica,sans-Serif" font-size="10.00">::create_HDF5_groups</text>
</a>
</g>
</g>
<!-- Node2&#45;&gt;Node5 -->
<g id="edge4_Node000002_Node000005" class="edge">
<title>Node2&#45;&gt;Node5</title>
<g id="a_edge4_Node000002_Node000005"><a xlink:title=" ">
<path fill="none" stroke="#63b8ff" d="M326.29,-609.94C335.59,-611.15 345.14,-612.4 354.54,-613.62"/>
<polygon fill="#63b8ff" stroke="#63b8ff" points="354.04,-617.09 364.41,-614.91 354.95,-610.15 354.04,-617.09"/>
</a>
</g>
</g>
<!-- Node7 -->
<g id="Node000007" class="node">
<title>Node7</title>
<g id="a_Node000007"><a xlink:href="namespace_big_data_stat_meth.html#a89d901ab4b5e01771f4e3fc7dc84e50e" target="_top" xlink:title="Checks if an HDF5 element (group or dataset) exists.">
<polygon fill="white" stroke="#666666" points="498.75,-688.5 375.5,-688.5 375.5,-658 498.75,-658 498.75,-688.5"/>
<text xml:space="preserve" text-anchor="start" x="383.5" y="-675" font-family="Helvetica,sans-Serif" font-size="10.00">BigDataStatMeth::exists</text>
<text xml:space="preserve" text-anchor="middle" x="437.12" y="-663.75" font-family="Helvetica,sans-Serif" font-size="10.00">_HDF5_element</text>
</a>
</g>
</g>
<!-- Node2&#45;&gt;Node7 -->
<g id="edge6_Node000002_Node000007" class="edge">
<title>Node2&#45;&gt;Node7</title>
<g id="a_edge6_Node000002_Node000007"><a xlink:title=" ">
<path fill="none" stroke="#63b8ff" d="M285.79,-615.93C307.41,-625.7 336.12,-638.27 362,-648.25 366.89,-650.14 371.99,-652.02 377.13,-653.86"/>
<polygon fill="#63b8ff" stroke="#63b8ff" points="375.64,-657.05 386.24,-657.07 377.96,-650.45 375.64,-657.05"/>
</a>
</g>
</g>
<!-- Node8 -->
<g id="Node000008" class="node">
<title>Node8</title>
<g id="a_Node000008"><a xlink:href="class_big_data_stat_meth_1_1hdf5_group.html#a59995412538627e6c80f64b552c286f5" target="_top" xlink:title=" ">
<polygon fill="white" stroke="#666666" points="508.12,-492.5 366.12,-492.5 366.12,-462 508.12,-462 508.12,-492.5"/>
<text xml:space="preserve" text-anchor="start" x="374.12" y="-479" font-family="Helvetica,sans-Serif" font-size="10.00">BigDataStatMeth::hdf5Group</text>
<text xml:space="preserve" text-anchor="middle" x="437.12" y="-467.75" font-family="Helvetica,sans-Serif" font-size="10.00">::getGroupName</text>
</a>
</g>
</g>
<!-- Node2&#45;&gt;Node8 -->
<g id="edge8_Node000002_Node000008" class="edge">
<title>Node2&#45;&gt;Node8</title>
<g id="a_edge8_Node000002_Node000008"><a xlink:title=" ">
<path fill="none" stroke="#63b8ff" d="M265.67,-584.51C285.18,-563.14 322.83,-525 362,-502.25 364.81,-500.62 367.74,-499.07 370.74,-497.62"/>
<polygon fill="#63b8ff" stroke="#63b8ff" points="372.08,-500.85 379.79,-493.59 369.23,-494.46 372.08,-500.85"/>
</a>
</g>
</g>
<!-- Node9 -->
<g id="Node000009" class="node">
<title>Node9</title>
<g id="a_Node000009"><a xlink:href="namespace_big_data_stat_meth.html#a3d06783149029f1df2853c472d401380" target="_top" xlink:title="Removes multiple elements from an HDF5 file.">
<polygon fill="white" stroke="#666666" points="501.75,-590.5 372.5,-590.5 372.5,-560 501.75,-560 501.75,-590.5"/>
<text xml:space="preserve" text-anchor="start" x="380.5" y="-577" font-family="Helvetica,sans-Serif" font-size="10.00">BigDataStatMeth::remove</text>
<text xml:space="preserve" text-anchor="middle" x="437.12" y="-565.75" font-family="Helvetica,sans-Serif" font-size="10.00">_elements</text>
</a>
</g>
</g>
<!-- Node2&#45;&gt;Node9 -->
<g id="edge9_Node000002_Node000009" class="edge">
<title>Node2&#45;&gt;Node9</title>
<g id="a_edge9_Node000002_Node000009"><a xlink:title=" ">
<path fill="none" stroke="#63b8ff" d="M326.29,-590.15C337.67,-588.61 349.43,-587.01 360.84,-585.47"/>
<polygon fill="#63b8ff" stroke="#63b8ff" points="361.16,-588.95 370.6,-584.14 360.22,-582.02 361.16,-588.95"/>
</a>
</g>
</g>
<!-- Node10 -->
<g id="Node000010" class="node">
<title>Node10</title>
<g id="a_Node000010"><a xlink:href="class_big_data_stat_meth_1_1hdf5_dataset.html#acf9843abcb57a0090f1635cc69d95300" target="_top" xlink:title="Write data to the dataset.">
<polygon fill="white" stroke="#666666" points="512.25,-541.5 362,-541.5 362,-511 512.25,-511 512.25,-541.5"/>
<text xml:space="preserve" text-anchor="start" x="370" y="-528" font-family="Helvetica,sans-Serif" font-size="10.00">BigDataStatMeth::hdf5Dataset</text>
<text xml:space="preserve" text-anchor="middle" x="437.12" y="-516.75" font-family="Helvetica,sans-Serif" font-size="10.00">::writeDataset</text>
</a>
</g>
</g>
<!-- Node2&#45;&gt;Node10 -->
<g id="edge10_Node000002_Node000010" class="edge">
<title>Node2&#45;&gt;Node10</title>
<g id="a_edge10_Node000002_Node000010"><a xlink:title=" ">
<path fill="none" stroke="#63b8ff" d="M284.79,-584.64C306.5,-574.58 335.68,-561.52 362,-551.25 366.88,-549.34 371.98,-547.45 377.11,-545.6"/>
<polygon fill="#63b8ff" stroke="#63b8ff" points="377.95,-549.01 386.22,-542.38 375.62,-542.41 377.95,-549.01"/>
</a>
</g>
</g>
<!-- Node6 -->
<g id="Node000006" class="node">
<title>Node6</title>
<g id="a_Node000006"><a xlink:href="namespace_big_data_stat_meth.html#abcaa4216cd52f03ebac42e4855ef846b" target="_top" xlink:title="Checks if a path exists in an HDF5 file.">
<polygon fill="white" stroke="#666666" points="705.62,-657.88 562.12,-657.88 562.12,-638.62 705.62,-638.62 705.62,-657.88"/>
<text xml:space="preserve" text-anchor="middle" x="633.88" y="-644.38" font-family="Helvetica,sans-Serif" font-size="10.00">BigDataStatMeth::pathExists</text>
</a>
</g>
</g>
<!-- Node5&#45;&gt;Node6 -->
<g id="edge5_Node000005_Node000006" class="edge">
<title>Node5&#45;&gt;Node6</title>
<g id="a_edge5_Node000005_Node000006"><a xlink:title=" ">
<path fill="none" stroke="#63b8ff" d="M508.43,-632.91C522.1,-634.6 536.55,-636.38 550.56,-638.11"/>
<polygon fill="#63b8ff" stroke="#63b8ff" points="549.83,-641.54 560.19,-639.29 550.69,-634.6 549.83,-641.54"/>
</a>
</g>
</g>
<!-- Node7&#45;&gt;Node6 -->
<g id="edge7_Node000007_Node000006" class="edge">
<title>Node7&#45;&gt;Node6</title>
<g id="a_edge7_Node000007_Node000006"><a xlink:title=" ">
<path fill="none" stroke="#63b8ff" d="M499.21,-665.41C515.5,-663.32 533.37,-661.02 550.59,-658.81"/>
<polygon fill="#63b8ff" stroke="#63b8ff" points="550.82,-662.31 560.29,-657.57 549.93,-655.37 550.82,-662.31"/>
</a>
</g>
</g>
<!-- Node11 -->
<g id="Node000011" class="node">
<title>Node11</title>
<g id="a_Node000011"><a xlink:href="class_big_data_stat_meth_1_1hdf5_dataset.html#aba39e56a580d3b1fa7f1619fc72efa3e" target="_top" xlink:title="Close dataset and file.">
<polygon fill="white" stroke="#666666" points="709,-502.5 558.75,-502.5 558.75,-472 709,-472 709,-502.5"/>
<text xml:space="preserve" text-anchor="start" x="566.75" y="-489" font-family="Helvetica,sans-Serif" font-size="10.00">BigDataStatMeth::hdf5Dataset</text>
<text xml:space="preserve" text-anchor="middle" x="633.88" y="-477.75" font-family="Helvetica,sans-Serif" font-size="10.00">::close_dataset_file</text>
</a>
</g>
</g>
<!-- Node10&#45;&gt;Node11 -->
<g id="edge11_Node000010_Node000011" class="edge">
<title>Node10&#45;&gt;Node11</title>
<g id="a_edge11_Node000010_Node000011"><a xlink:title=" ">
<path fill="none" stroke="#63b8ff" d="M512.59,-511.34C523.98,-509.06 535.81,-506.69 547.42,-504.36"/>
<polygon fill="#63b8ff" stroke="#63b8ff" points="547.85,-507.85 556.97,-502.45 546.48,-500.98 547.85,-507.85"/>
</a>
</g>
</g>
<!-- Node12 -->
<g id="Node000012" class="node">
<title>Node12</title>
<g id="a_Node000012"><a xlink:href="class_big_data_stat_meth_1_1hdf5_dataset.html#a94d81b72e92cb0230b4e64f37ea7d2e3" target="_top" xlink:title="Convert DataFrame to range list.">
<polygon fill="white" stroke="#666666" points="719.5,-453.5 548.25,-453.5 548.25,-423 719.5,-423 719.5,-453.5"/>
<text xml:space="preserve" text-anchor="start" x="556.25" y="-440" font-family="Helvetica,sans-Serif" font-size="10.00">BigDataStatMeth::hdf5Dataset</text>
<text xml:space="preserve" text-anchor="middle" x="633.88" y="-428.75" font-family="Helvetica,sans-Serif" font-size="10.00">::convert_DataFrame_to_RangeList</text>
</a>
</g>
</g>
<!-- Node10&#45;&gt;Node12 -->
<g id="edge12_Node000010_Node000012" class="edge">
<title>Node10&#45;&gt;Node12</title>
<g id="a_edge12_Node000010_Node000012"><a xlink:title=" ">
<path fill="none" stroke="#63b8ff" d="M494.53,-510.51C500.72,-507.84 506.76,-504.76 512.25,-501.25 531.85,-488.72 528.41,-475.41 548.25,-463.25 551.01,-461.56 553.88,-459.98 556.84,-458.5"/>
<polygon fill="#63b8ff" stroke="#63b8ff" points="558.09,-461.78 565.77,-454.48 555.22,-455.39 558.09,-461.78"/>
</a>
</g>
</g>
<!-- Node14 -->
<g id="Node000014" class="node">
<title>Node14</title>
<g id="a_Node000014"><a xlink:href="openme-utils_8hpp.html#a7d6263da9da6b46b945746e3abdea4ca" target="_top" xlink:title="Determines number of threads for parallel operations.">
<polygon fill="white" stroke="#666666" points="474.75,-336.88 399.5,-336.88 399.5,-317.62 474.75,-317.62 474.75,-336.88"/>
<text xml:space="preserve" text-anchor="middle" x="437.12" y="-323.38" font-family="Helvetica,sans-Serif" font-size="10.00">getDTthreads</text>
</a>
</g>
</g>
<!-- Node13&#45;&gt;Node14 -->
<g id="edge14_Node000013_Node000014" class="edge">
<title>Node13&#45;&gt;Node14</title>
<g id="a_edge14_Node000013_Node000014"><a xlink:title=" ">
<path fill="none" stroke="#63b8ff" d="M303.2,-345.29C329.73,-341.69 361.91,-337.32 387.97,-333.78"/>
<polygon fill="#63b8ff" stroke="#63b8ff" points="388.15,-337.29 397.59,-332.48 387.21,-330.35 388.15,-337.29"/>
</a>
</g>
</g>
<!-- Node15 -->
<g id="Node000015" class="node">
<title>Node15</title>
<g id="a_Node000015"><a xlink:href="openme-utils_8hpp.html#a32e65a19d36ceec1952e48362e4153b8" target="_top" xlink:title="Initializes thread configuration based on environment and system state.">
<polygon fill="white" stroke="#666666" points="671.12,-318.88 596.62,-318.88 596.62,-299.62 671.12,-299.62 671.12,-318.88"/>
<text xml:space="preserve" text-anchor="middle" x="633.88" y="-305.38" font-family="Helvetica,sans-Serif" font-size="10.00">initDTthreads</text>
</a>
</g>
</g>
<!-- Node14&#45;&gt;Node15 -->
<g id="edge15_Node000014_Node000015" class="edge">
<title>Node14&#45;&gt;Node15</title>
<g id="a_edge15_Node000014_Node000015"><a xlink:title=" ">
<path fill="none" stroke="#63b8ff" d="M475.21,-323.82C506.45,-320.94 551.32,-316.79 585.22,-313.65"/>
<polygon fill="#63b8ff" stroke="#63b8ff" points="585.11,-317.18 594.75,-312.77 584.47,-310.21 585.11,-317.18"/>
</a>
</g>
</g>
<!-- Node16 -->
<g id="Node000016" class="node">
<title>Node16</title>
<g id="a_Node000016"><a xlink:href="openme-utils_8hpp.html#a62643b5f3a2b3d36929fed3c368c2cfc" target="_top" xlink:title="Retrieves integer value from environment variable.">
<polygon fill="white" stroke="#666666" points="813.5,-355.88 755.5,-355.88 755.5,-336.62 813.5,-336.62 813.5,-355.88"/>
<text xml:space="preserve" text-anchor="middle" x="784.5" y="-342.38" font-family="Helvetica,sans-Serif" font-size="10.00">getIntEnv</text>
</a>
</g>
</g>
<!-- Node15&#45;&gt;Node16 -->
<g id="edge16_Node000015_Node000016" class="edge">
<title>Node15&#45;&gt;Node16</title>
<g id="a_edge16_Node000015_Node000016"><a xlink:title=" ">
<path fill="none" stroke="#63b8ff" d="M671.26,-316.33C686.26,-319.42 703.78,-323.25 719.5,-327.25 727.61,-329.31 736.23,-331.72 744.44,-334.12"/>
<polygon fill="#63b8ff" stroke="#63b8ff" points="743.24,-337.42 753.83,-336.92 745.24,-330.71 743.24,-337.42"/>
</a>
</g>
</g>
<!-- Node17 -->
<g id="Node000017" class="node">
<title>Node17</title>
<g id="a_Node000017"><a xlink:href="openme-utils_8hpp.html#afca01a231aef5cdbcbb5c23a7134e9d4" target="_top" xlink:title="Maximum of two integers.">
<polygon fill="white" stroke="#666666" points="803,-318.88 766,-318.88 766,-299.62 803,-299.62 803,-318.88"/>
<text xml:space="preserve" text-anchor="middle" x="784.5" y="-305.38" font-family="Helvetica,sans-Serif" font-size="10.00">imax</text>
</a>
</g>
</g>
<!-- Node15&#45;&gt;Node17 -->
<g id="edge17_Node000015_Node000017" class="edge">
<title>Node15&#45;&gt;Node17</title>
<g id="a_edge17_Node000015_Node000017"><a xlink:title=" ">
<path fill="none" stroke="#63b8ff" d="M671.61,-309.25C697.09,-309.25 730.56,-309.25 754.23,-309.25"/>
<polygon fill="#63b8ff" stroke="#63b8ff" points="754.11,-312.75 764.11,-309.25 754.11,-305.75 754.11,-312.75"/>
</a>
</g>
</g>
<!-- Node18 -->
<g id="Node000018" class="node">
<title>Node18</title>
<g id="a_Node000018"><a xlink:href="openme-utils_8hpp.html#aa011f843a2a959cc6f8c226f60e96224" target="_top" xlink:title="Minimum of two integers.">
<polygon fill="white" stroke="#666666" points="801.5,-281.88 767.5,-281.88 767.5,-262.62 801.5,-262.62 801.5,-281.88"/>
<text xml:space="preserve" text-anchor="middle" x="784.5" y="-268.38" font-family="Helvetica,sans-Serif" font-size="10.00">imin</text>
</a>
</g>
</g>
<!-- Node15&#45;&gt;Node18 -->
<g id="edge18_Node000015_Node000018" class="edge">
<title>Node15&#45;&gt;Node18</title>
<g id="a_edge18_Node000015_Node000018"><a xlink:title=" ">
<path fill="none" stroke="#63b8ff" d="M671.61,-300.1C697.79,-293.59 732.41,-284.97 756.17,-279.05"/>
<polygon fill="#63b8ff" stroke="#63b8ff" points="756.86,-282.49 765.72,-276.68 755.17,-275.7 756.86,-282.49"/>
</a>
</g>
</g>
<!-- Node22&#45;&gt;Node8 -->
<g id="edge23_Node000022_Node000008" class="edge">
<title>Node22&#45;&gt;Node8</title>
<g id="a_edge23_Node000022_Node000008"><a xlink:title=" ">
<path fill="none" stroke="#63b8ff" d="M326.29,-475.46C335.59,-475.61 345.14,-475.77 354.54,-475.92"/>
<polygon fill="#63b8ff" stroke="#63b8ff" points="354.34,-479.42 364.4,-476.08 354.46,-472.42 354.34,-479.42"/>
</a>
</g>
</g>
<!-- Node27&#45;&gt;Node11 -->
<g id="edge29_Node000027_Node000011" class="edge">
<title>Node27&#45;&gt;Node11</title>
<g id="a_edge29_Node000027_Node000011"><a xlink:title=" ">
<path fill="none" stroke="#63b8ff" d="M488.52,-443.95C507.26,-449.75 528.71,-456.35 548.25,-462.25 554.89,-464.26 561.83,-466.33 568.75,-468.4"/>
<polygon fill="#63b8ff" stroke="#63b8ff" points="567.54,-471.69 578.13,-471.18 569.54,-464.98 567.54,-471.69"/>
</a>
</g>
</g>
<!-- Node28&#45;&gt;Node11 -->
<g id="edge32_Node000028_Node000011" class="edge">
<title>Node28&#45;&gt;Node11</title>
<g id="a_edge32_Node000028_Node000011"><a xlink:title=" ">
<path fill="none" stroke="#63b8ff" d="M497.17,-394.84C502.54,-397.51 507.67,-400.62 512.25,-404.25 536.03,-423.1 524.12,-443.86 548.25,-462.25 550.03,-463.61 551.89,-464.89 553.8,-466.11"/>
<polygon fill="#63b8ff" stroke="#63b8ff" points="552.02,-469.12 562.46,-470.89 555.4,-462.99 552.02,-469.12"/>
</a>
</g>
</g>
<!-- Node28&#45;&gt;Node12 -->
<g id="edge33_Node000028_Node000012" class="edge">
<title>Node28&#45;&gt;Node12</title>
<g id="a_edge33_Node000028_Node000012"><a xlink:title=" ">
<path fill="none" stroke="#63b8ff" d="M488.52,-394.95C507.26,-400.75 528.71,-407.35 548.25,-413.25 554.89,-415.26 561.83,-417.33 568.75,-419.4"/>
<polygon fill="#63b8ff" stroke="#63b8ff" points="567.54,-422.69 578.13,-422.18 569.54,-415.98 567.54,-422.69"/>
</a>
</g>
</g>
<!-- Node29 -->
<g id="Node000029" class="node">
<title>Node29</title>
<g id="a_Node000029"><a xlink:href="class_big_data_stat_meth_1_1hdf5_dataset.html#a64177ae924792ea9e557febaa95ed400" target="_top" xlink:title="Close the dataset.">
<polygon fill="white" stroke="#666666" points="709,-404.5 558.75,-404.5 558.75,-374 709,-374 709,-404.5"/>
<text xml:space="preserve" text-anchor="start" x="566.75" y="-391" font-family="Helvetica,sans-Serif" font-size="10.00">BigDataStatMeth::hdf5Dataset</text>
<text xml:space="preserve" text-anchor="middle" x="633.88" y="-379.75" font-family="Helvetica,sans-Serif" font-size="10.00">::close_dataset</text>
</a>
</g>
</g>
<!-- Node28&#45;&gt;Node29 -->
<g id="edge31_Node000028_Node000029" class="edge">
<title>Node28&#45;&gt;Node29</title>
<g id="a_edge31_Node000028_Node000029"><a xlink:title=" ">
<path fill="none" stroke="#63b8ff" d="M512.59,-383.07C523.86,-383.65 535.57,-384.25 547.06,-384.84"/>
<polygon fill="#63b8ff" stroke="#63b8ff" points="546.78,-388.33 556.94,-385.35 547.14,-381.34 546.78,-388.33"/>
</a>
</g>
</g>
<!-- Node30 -->
<g id="Node000030" class="node">
<title>Node30</title>
<g id="a_Node000030"><a xlink:href="namespace_big_data_stat_meth.html#a2692707b3ea4aaafa09d07afaf632437" target="_top" xlink:title="Transposes a 2D matrix.">
<polygon fill="white" stroke="#666666" points="703.75,-355.88 564,-355.88 564,-336.62 703.75,-336.62 703.75,-355.88"/>
<text xml:space="preserve" text-anchor="middle" x="633.88" y="-342.38" font-family="Helvetica,sans-Serif" font-size="10.00">BigDataStatMeth::transpose</text>
</a>
</g>
</g>
<!-- Node28&#45;&gt;Node30 -->
<g id="edge34_Node000028_Node000030" class="edge">
<title>Node28&#45;&gt;Node30</title>
<g id="a_edge34_Node000028_Node000030"><a xlink:title=" ">
<path fill="none" stroke="#63b8ff" d="M512.59,-366.63C528.9,-363.87 546.13,-360.95 562.28,-358.21"/>
<polygon fill="#63b8ff" stroke="#63b8ff" points="562.51,-361.72 571.78,-356.6 561.34,-354.82 562.51,-361.72"/>
</a>
</g>
</g>
</g>
</svg>

<g id="navigator" transform="translate(0 0)" fill="#404254">
  <rect fill="#f2f5e9" fill-opacity="0.5" stroke="#606060" stroke-width=".5" x="0" y="0" width="60" height="60"/>
  <use id="zoomplus" xlink:href="#zoomPlus" x="17" y="9" onmousedown="handleZoom(evt,'in')"/>
  <use id="zoomminus" xlink:href="#zoomMin" x="42" y="9" onmousedown="handleZoom(evt,'out')"/>
  <use id="reset" xlink:href="#resetDef" x="30" y="36" onmousedown="handleReset()"/>
   <use id="arrowup" xlink:href="#arrowUp" x="0" y="0" onmousedown="handlePan(0,-1)"/>
  <use id="arrowright" xlink:href="#arrowRight" x="0" y="0" onmousedown="handlePan(1,0)"/>
  <use id="arrowdown" xlink:href="#arrowDown" x="0" y="0" onmousedown="handlePan(0,1)"/>
  <use id="arrowleft" xlink:href="#arrowLeft" x="0" y="0" onmousedown="handlePan(-1,0)"/>
</g>
<svg viewBox="0 0 15 15" width="100%" height="30px" preserveAspectRatio="xMaxYMin meet">
 <g id="arrow_out" transform="scale(0.3 0.3)">
  <a xlink:href="namespace_big_data_stat_meth_ae7e4660ebbdf221a371a7bcabce9e69c_cgraph_org.svg" target="_base">
   <rect id="button" ry="5" rx="5" y="6" x="6" height="38" width="38"
        fill="#f2f5e9" fill-opacity="0.5" stroke="#606060" stroke-width="1.0"/>
   <path id="arrow"
     d="M 11.500037,31.436501 C 11.940474,20.09759 22.043105,11.32322 32.158766,21.979434 L 37.068811,17.246167 C 37.068811,17.246167 37.088388,32 37.088388,32 L 22.160133,31.978069 C 22.160133,31.978069 26.997745,27.140456 26.997745,27.140456 C 18.528582,18.264221 13.291696,25.230495 11.500037,31.436501 z"
     style="fill:#404040;"/>
  </a>
 </g>
</svg>

<style type='text/css'>
<![CDATA[
[data-mouse-over-selected='false'] { opacity: 0.7; }
[data-mouse-over-selected='true']  { opacity: 1.0; }
]]>
</style>
<script type="application/ecmascript"><![CDATA[
document.addEventListener('DOMContentLoaded', (event) => {
  highlightEdges();
  highlightAdjacentNodes();
});
]]></script>
</svg>
