<?xml version="1.0" encoding="UTF-8" standalone="no"?>
<!DOCTYPE svg PUBLIC "-//W3C//DTD SVG 1.1//EN"
 "http://www.w3.org/Graphics/SVG/1.1/DTD/svg11.dtd">
<!-- Generated by graphviz version 14.0.0 (20250921.2048)
 -->
<!-- Title: BigDataStatMeth::RcppTypifyNormalizeHdf5 Pages: 1 -->
<!--zoomable 750 -->

<svg id="main" version="1.1" xmlns="http://www.w3.org/2000/svg" xmlns:xlink="http://www.w3.org/1999/xlink" xml:space="preserve" onload="init(evt)">

<style type="text/css"><![CDATA[
.node, .edge {opacity: 0.7;}
.node.selected, .edge.selected {opacity: 1;}
.edge:hover path { stroke: red; }
.edge:hover polygon { stroke: red; fill: red; }
]]></style>

<defs>
  <circle id="rim" cx="0" cy="0" r="7"/>
  <circle id="rim2" cx="0" cy="0" r="3.5"/>
  <g id="zoomPlus">
    <use xlink:href="#rim" fill="#404040"><set attributeName="fill" to="#808080" begin="zoomplus.mouseover" end="zoomplus.mouseout"/></use>
    <path d="M-4,0h8M0,-4v8" fill="none" stroke="white" stroke-width="1.5" pointer-events="none"/>
  </g>
  <g id="zoomMin">
    <use xlink:href="#rim" fill="#404040"><set attributeName="fill" to="#808080" begin="zoomminus.mouseover" end="zoomminus.mouseout"/></use>
    <path d="M-4,0h8" fill="none" stroke="white" stroke-width="1.5" pointer-events="none"/>
  </g>
  <g id="arrowUp" transform="translate(30 24)">
    <use xlink:href="#rim"/>
    <path pointer-events="none" fill="none" stroke="white" stroke-width="1.5" d="M0,-3.0v7 M-2.5,-0.5L0,-3.0L2.5,-0.5"/>
  </g>
  <g id="arrowRight" transform="rotate(90) translate(36 -43)">
    <use xlink:href="#rim"/>
    <path pointer-events="none" fill="none" stroke="white" stroke-width="1.5" d="M0,-3.0v7 M-2.5,-0.5L0,-3.0L2.5,-0.5"/>
  </g>
  <g id="arrowDown" transform="rotate(180) translate(-30 -48)">
    <use xlink:href="#rim"/>
    <path pointer-events="none" fill="none" stroke="white" stroke-width="1.5" d="M0,-3.0v7 M-2.5,-0.5L0,-3.0L2.5,-0.5"/>
  </g>
  <g id="arrowLeft" transform="rotate(270) translate(-36 17)">
    <use xlink:href="#rim"/>
    <path pointer-events="none" fill="none" stroke="white" stroke-width="1.5" d="M0,-3.0v7 M-2.5,-0.5L0,-3.0L2.5,-0.5"/>
  </g>
  <g id="resetDef">
    <use xlink:href="#rim2" fill="#404040"><set attributeName="fill" to="#808080" begin="reset.mouseover" end="reset.mouseout"/></use>
  </g>
</defs>
<script type="application/ecmascript">
var viewWidth = 791;
var viewHeight = 750;
var sectionId = 'dynsection-175';
</script>
<script type="application/ecmascript" xlink:href="../../../../assets/svg.min.js"/>
<svg id="graph" class="graph">
<g id="viewport">
<title>BigDataStatMeth::RcppTypifyNormalizeHdf5</title>
<!-- Node1 -->
<g id="Node000001" class="node">
<title>Node1</title>
<g id="a_Node000001"><a xlink:title=" ">
<polygon fill="#999999" stroke="#666666" points="146.5,-400.5 0,-400.5 0,-370 146.5,-370 146.5,-400.5"/>
<text xml:space="preserve" text-anchor="start" x="8" y="-387" font-family="Helvetica,sans-Serif" font-size="10.00">BigDataStatMeth::RcppTypify</text>
<text xml:space="preserve" text-anchor="middle" x="73.25" y="-375.75" font-family="Helvetica,sans-Serif" font-size="10.00">NormalizeHdf5</text>
</a>
</g>
</g>
<!-- Node2 -->
<g id="Node000002" class="node">
<title>Node2</title>
<g id="a_Node000002"><a xlink:href="namespace_big_data_stat_meth.html#a304b42b14ec87d4acc6f34ff0231529d" target="_top" xlink:title="Safely close any number of dataset handles (C++17).">
<polygon fill="white" stroke="#666666" points="573.38,-704.88 406.62,-704.88 406.62,-685.62 573.38,-685.62 573.38,-704.88"/>
<text xml:space="preserve" text-anchor="middle" x="490" y="-691.38" font-family="Helvetica,sans-Serif" font-size="10.00">BigDataStatMeth::checkClose_file</text>
</a>
</g>
</g>
<!-- Node1&#45;&gt;Node2 -->
<g id="edge1_Node000001_Node000002" class="edge">
<title>Node1&#45;&gt;Node2</title>
<g id="a_edge1_Node000001_Node000002"><a xlink:title=" ">
<path fill="none" stroke="#63b8ff" d="M74.57,-400.98C76.52,-451.08 90.07,-607.68 182.5,-676.25 257.18,-731.65 372.36,-720.38 438.2,-707.57"/>
<polygon fill="#63b8ff" stroke="#63b8ff" points="438.53,-711.08 447.63,-705.65 437.13,-704.22 438.53,-711.08"/>
</a>
</g>
</g>
<!-- Node3 -->
<g id="Node000003" class="node">
<title>Node3</title>
<g id="a_Node000003"><a xlink:href="class_big_data_stat_meth_1_1hdf5_dataset.html#ab19bac9a31efe4a733294c1c23ff5ef7" target="_top" xlink:title="Create a new dataset with optional compression.">
<polygon fill="white" stroke="#666666" points="350.38,-300.5 200.12,-300.5 200.12,-270 350.38,-270 350.38,-300.5"/>
<text xml:space="preserve" text-anchor="start" x="208.12" y="-287" font-family="Helvetica,sans-Serif" font-size="10.00">BigDataStatMeth::hdf5Dataset</text>
<text xml:space="preserve" text-anchor="middle" x="275.25" y="-275.75" font-family="Helvetica,sans-Serif" font-size="10.00">::createDataset</text>
</a>
</g>
</g>
<!-- Node1&#45;&gt;Node3 -->
<g id="edge2_Node000001_Node000003" class="edge">
<title>Node1&#45;&gt;Node3</title>
<g id="a_edge2_Node000001_Node000003"><a xlink:title=" ">
<path fill="none" stroke="#63b8ff" d="M105.5,-369.62C139.74,-352.5 194.83,-324.96 232.7,-306.03"/>
<polygon fill="#63b8ff" stroke="#63b8ff" points="234.16,-309.21 241.54,-301.61 231.03,-302.95 234.16,-309.21"/>
</a>
</g>
</g>
<!-- Node9 -->
<g id="Node000009" class="node">
<title>Node9</title>
<g id="a_Node000009"><a xlink:href="class_big_data_stat_meth_1_1hdf5_group.html#a59995412538627e6c80f64b552c286f5" target="_top" xlink:title=" ">
<polygon fill="white" stroke="#666666" points="561,-79.5 419,-79.5 419,-49 561,-49 561,-79.5"/>
<text xml:space="preserve" text-anchor="start" x="427" y="-66" font-family="Helvetica,sans-Serif" font-size="10.00">BigDataStatMeth::hdf5Group</text>
<text xml:space="preserve" text-anchor="middle" x="490" y="-54.75" font-family="Helvetica,sans-Serif" font-size="10.00">::getGroupName</text>
</a>
</g>
</g>
<!-- Node1&#45;&gt;Node9 -->
<g id="edge29_Node000001_Node000009" class="edge">
<title>Node1&#45;&gt;Node9</title>
<g id="a_edge29_Node000001_Node000009"><a xlink:title=" ">
<path fill="none" stroke="#63b8ff" d="M83.02,-369.8C99.07,-343.07 135.83,-288.44 182.5,-261.25 255.21,-218.88 306.72,-280.93 368,-223.25 412.9,-180.98 360.91,-133.37 404,-89.25 405.75,-87.46 407.61,-85.8 409.58,-84.26"/>
<polygon fill="#63b8ff" stroke="#63b8ff" points="411.07,-87.47 417.49,-79.04 407.22,-81.62 411.07,-87.47"/>
</a>
</g>
</g>
<!-- Node11 -->
<g id="Node000011" class="node">
<title>Node11</title>
<g id="a_Node000011"><a xlink:href="class_big_data_stat_meth_1_1hdf5_dataset.html#acf9843abcb57a0090f1635cc69d95300" target="_top" xlink:title="Write data to the dataset.">
<polygon fill="white" stroke="#666666" points="565.12,-373.5 414.88,-373.5 414.88,-343 565.12,-343 565.12,-373.5"/>
<text xml:space="preserve" text-anchor="start" x="422.88" y="-360" font-family="Helvetica,sans-Serif" font-size="10.00">BigDataStatMeth::hdf5Dataset</text>
<text xml:space="preserve" text-anchor="middle" x="490" y="-348.75" font-family="Helvetica,sans-Serif" font-size="10.00">::writeDataset</text>
</a>
</g>
</g>
<!-- Node1&#45;&gt;Node11 -->
<g id="edge41_Node000001_Node000011" class="edge">
<title>Node1&#45;&gt;Node11</title>
<g id="a_edge41_Node000001_Node000011"><a xlink:title=" ">
<path fill="none" stroke="#63b8ff" d="M146.97,-380.52C218.45,-375.86 327.55,-368.76 403.23,-363.83"/>
<polygon fill="#63b8ff" stroke="#63b8ff" points="403.35,-367.33 413.11,-363.19 402.9,-360.35 403.35,-367.33"/>
</a>
</g>
</g>
<!-- Node14 -->
<g id="Node000014" class="node">
<title>Node14</title>
<g id="a_Node000014"><a xlink:href="namespace_big_data_stat_meth.html#a74ce60b67b2d8eb66be38b96cc7b3ff5" target="_top" xlink:title="Calculate column&#45;wise mean and standard deviation.">
<polygon fill="white" stroke="#666666" points="347.75,-618.5 202.75,-618.5 202.75,-588 347.75,-588 347.75,-618.5"/>
<text xml:space="preserve" text-anchor="start" x="210.75" y="-605" font-family="Helvetica,sans-Serif" font-size="10.00">BigDataStatMeth::get</text>
<text xml:space="preserve" text-anchor="middle" x="275.25" y="-593.75" font-family="Helvetica,sans-Serif" font-size="10.00">_HDF5_mean_sd_by_column</text>
</a>
</g>
</g>
<!-- Node1&#45;&gt;Node14 -->
<g id="edge14_Node000001_Node000014" class="edge">
<title>Node1&#45;&gt;Node14</title>
<g id="a_edge14_Node000001_Node000014"><a xlink:title=" ">
<path fill="none" stroke="#63b8ff" d="M81.6,-400.81C96.86,-431.87 134.59,-502.5 182.5,-548.25 196.52,-561.63 214.35,-573.24 230.56,-582.3"/>
<polygon fill="#63b8ff" stroke="#63b8ff" points="228.6,-585.22 239.06,-586.89 231.92,-579.06 228.6,-585.22"/>
</a>
</g>
</g>
<!-- Node18 -->
<g id="Node000018" class="node">
<title>Node18</title>
<g id="a_Node000018"><a xlink:href="namespace_big_data_stat_meth.html#a7cab0fb0e96ea7e4710923626e6095e6" target="_top" xlink:title="Calculate row&#45;wise mean and standard deviation.">
<polygon fill="white" stroke="#666666" points="339.88,-667.5 210.62,-667.5 210.62,-637 339.88,-637 339.88,-667.5"/>
<text xml:space="preserve" text-anchor="start" x="218.62" y="-654" font-family="Helvetica,sans-Serif" font-size="10.00">BigDataStatMeth::get</text>
<text xml:space="preserve" text-anchor="middle" x="275.25" y="-642.75" font-family="Helvetica,sans-Serif" font-size="10.00">_HDF5_mean_sd_by_row</text>
</a>
</g>
</g>
<!-- Node1&#45;&gt;Node18 -->
<g id="edge20_Node000001_Node000018" class="edge">
<title>Node1&#45;&gt;Node18</title>
<g id="a_edge20_Node000001_Node000018"><a xlink:title=" ">
<path fill="none" stroke="#63b8ff" d="M76.52,-400.71C83.64,-443.56 109.61,-564.84 182.5,-627.25 187.77,-631.76 193.78,-635.46 200.14,-638.5"/>
<polygon fill="#63b8ff" stroke="#63b8ff" points="198.4,-641.57 208.98,-642.17 201.09,-635.11 198.4,-641.57"/>
</a>
</g>
</g>
<!-- Node19 -->
<g id="Node000019" class="node">
<title>Node19</title>
<g id="a_Node000019"><a xlink:href="class_big_data_stat_meth_1_1hdf5_dataset.html#ac979eba40078c7c5974b64b2ce6347a3" target="_top" xlink:title="Get dataset name.">
<polygon fill="white" stroke="#666666" points="350.38,-214.5 200.12,-214.5 200.12,-184 350.38,-184 350.38,-214.5"/>
<text xml:space="preserve" text-anchor="start" x="208.12" y="-201" font-family="Helvetica,sans-Serif" font-size="10.00">BigDataStatMeth::hdf5Dataset</text>
<text xml:space="preserve" text-anchor="middle" x="275.25" y="-189.75" font-family="Helvetica,sans-Serif" font-size="10.00">::getDatasetName</text>
</a>
</g>
</g>
<!-- Node1&#45;&gt;Node19 -->
<g id="edge25_Node000001_Node000019" class="edge">
<title>Node1&#45;&gt;Node19</title>
<g id="a_edge25_Node000001_Node000019"><a xlink:title=" ">
<path fill="none" stroke="#63b8ff" d="M80.7,-369.78C94.59,-338.36 130.32,-266.83 182.5,-228.25 186.81,-225.07 191.47,-222.22 196.34,-219.69"/>
<polygon fill="#63b8ff" stroke="#63b8ff" points="197.63,-222.95 205.2,-215.55 194.66,-216.61 197.63,-222.95"/>
</a>
</g>
</g>
<!-- Node20 -->
<g id="Node000020" class="node">
<title>Node20</title>
<g id="a_Node000020"><a xlink:href="class_big_data_stat_meth_1_1hdf5_dataset.html#a00ef08e5d548410faaea7892c87c343a" target="_top" xlink:title="Get dataset pointer.">
<polygon fill="white" stroke="#666666" points="350.38,-165.5 200.12,-165.5 200.12,-135 350.38,-135 350.38,-165.5"/>
<text xml:space="preserve" text-anchor="start" x="208.12" y="-152" font-family="Helvetica,sans-Serif" font-size="10.00">BigDataStatMeth::hdf5Dataset</text>
<text xml:space="preserve" text-anchor="middle" x="275.25" y="-140.75" font-family="Helvetica,sans-Serif" font-size="10.00">::getDatasetptr</text>
</a>
</g>
</g>
<!-- Node1&#45;&gt;Node20 -->
<g id="edge26_Node000001_Node000020" class="edge">
<title>Node1&#45;&gt;Node20</title>
<g id="a_edge26_Node000001_Node000020"><a xlink:title=" ">
<path fill="none" stroke="#63b8ff" d="M77.71,-369.58C87.19,-330.49 117.3,-228.02 182.5,-175.25 184.88,-173.32 187.41,-171.54 190.03,-169.89"/>
<polygon fill="#63b8ff" stroke="#63b8ff" points="191.49,-173.09 198.61,-165.24 188.15,-166.93 191.49,-173.09"/>
</a>
</g>
</g>
<!-- Node21 -->
<g id="Node000021" class="node">
<title>Node21</title>
<g id="a_Node000021"><a xlink:href="class_big_data_stat_meth_1_1hdf5_dataset.html#ae7e94f6d05d1a6cff2d24ec3f1b18fca" target="_top" xlink:title="Get file name.">
<polygon fill="white" stroke="#666666" points="350.38,-61.5 200.12,-61.5 200.12,-31 350.38,-31 350.38,-61.5"/>
<text xml:space="preserve" text-anchor="start" x="208.12" y="-48" font-family="Helvetica,sans-Serif" font-size="10.00">BigDataStatMeth::hdf5Dataset</text>
<text xml:space="preserve" text-anchor="middle" x="275.25" y="-36.75" font-family="Helvetica,sans-Serif" font-size="10.00">::getFileName</text>
</a>
</g>
</g>
<!-- Node1&#45;&gt;Node21 -->
<g id="edge27_Node000001_Node000021" class="edge">
<title>Node1&#45;&gt;Node21</title>
<g id="a_edge27_Node000001_Node000021"><a xlink:title=" ">
<path fill="none" stroke="#63b8ff" d="M78.06,-369.72C88.97,-327.49 123.35,-208.27 182.5,-126.25 198.75,-103.71 222.51,-83.22 241.78,-68.62"/>
<polygon fill="#63b8ff" stroke="#63b8ff" points="243.64,-71.6 249.61,-62.84 239.49,-65.97 243.64,-71.6"/>
</a>
</g>
</g>
<!-- Node23 -->
<g id="Node000023" class="node">
<title>Node23</title>
<g id="a_Node000023"><a xlink:href="class_big_data_stat_meth_1_1hdf5_dataset.html#aa743c8c46d7ff3bb2f894145dd07fd8a" target="_top" xlink:title="Get number of columns in internal format.">
<polygon fill="white" stroke="#666666" points="565.12,-471.5 414.88,-471.5 414.88,-441 565.12,-441 565.12,-471.5"/>
<text xml:space="preserve" text-anchor="start" x="422.88" y="-458" font-family="Helvetica,sans-Serif" font-size="10.00">BigDataStatMeth::hdf5Dataset</text>
<text xml:space="preserve" text-anchor="middle" x="490" y="-446.75" font-family="Helvetica,sans-Serif" font-size="10.00">::ncols</text>
</a>
</g>
</g>
<!-- Node1&#45;&gt;Node23 -->
<g id="edge30_Node000001_Node000023" class="edge">
<title>Node1&#45;&gt;Node23</title>
<g id="a_edge30_Node000001_Node000023"><a xlink:title=" ">
<path fill="none" stroke="#63b8ff" d="M138.47,-400.95C152.91,-404.24 168.19,-407.53 182.5,-410.25 256.65,-424.35 341.56,-436.81 403.18,-445.19"/>
<polygon fill="#63b8ff" stroke="#63b8ff" points="402.53,-448.64 412.9,-446.51 403.46,-441.7 402.53,-448.64"/>
</a>
</g>
</g>
<!-- Node24 -->
<g id="Node000024" class="node">
<title>Node24</title>
<g id="a_Node000024"><a xlink:href="class_big_data_stat_meth_1_1hdf5_dataset.html#a6cbce676967d0cc4b50e2cc5282c322b" target="_top" xlink:title="Get number of rows in internal format.">
<polygon fill="white" stroke="#666666" points="565.12,-422.5 414.88,-422.5 414.88,-392 565.12,-392 565.12,-422.5"/>
<text xml:space="preserve" text-anchor="start" x="422.88" y="-409" font-family="Helvetica,sans-Serif" font-size="10.00">BigDataStatMeth::hdf5Dataset</text>
<text xml:space="preserve" text-anchor="middle" x="490" y="-397.75" font-family="Helvetica,sans-Serif" font-size="10.00">::nrows</text>
</a>
</g>
</g>
<!-- Node1&#45;&gt;Node24 -->
<g id="edge31_Node000001_Node000024" class="edge">
<title>Node1&#45;&gt;Node24</title>
<g id="a_edge31_Node000001_Node000024"><a xlink:title=" ">
<path fill="none" stroke="#63b8ff" d="M146.97,-389.11C218.45,-392.9 327.55,-398.69 403.23,-402.7"/>
<polygon fill="#63b8ff" stroke="#63b8ff" points="402.93,-406.19 413.1,-403.22 403.3,-399.2 402.93,-406.19"/>
</a>
</g>
</g>
<!-- Node25 -->
<g id="Node000025" class="node">
<title>Node25</title>
<g id="a_Node000025"><a xlink:href="namespace_big_data_stat_meth.html#aa04bdd4175075e124877dda4897c291b" target="_top" xlink:title="HDF5 matrix normalization with pre&#45;computed statistics.">
<polygon fill="white" stroke="#666666" points="368,-538.88 182.5,-538.88 182.5,-519.62 368,-519.62 368,-538.88"/>
<text xml:space="preserve" text-anchor="middle" x="275.25" y="-525.38" font-family="Helvetica,sans-Serif" font-size="10.00">BigDataStatMeth::RcppNormalizeHdf5</text>
</a>
</g>
</g>
<!-- Node1&#45;&gt;Node25 -->
<g id="edge32_Node000001_Node000025" class="edge">
<title>Node1&#45;&gt;Node25</title>
<g id="a_edge32_Node000001_Node000025"><a xlink:title=" ">
<path fill="none" stroke="#63b8ff" d="M96.03,-400.93C134.03,-428.29 212.09,-484.5 251.06,-512.55"/>
<polygon fill="#63b8ff" stroke="#63b8ff" points="248.9,-515.31 259.06,-518.31 252.99,-509.63 248.9,-515.31"/>
</a>
</g>
</g>
<!-- Node4 -->
<g id="Node000004" class="node">
<title>Node4</title>
<g id="a_Node000004"><a xlink:href="class_big_data_stat_meth_1_1hdf5_dataset.html#ac7a7f23b7e22c9b56ca6ad86592f2d52" target="_top" xlink:title="Add an attribute to the dataset.">
<polygon fill="white" stroke="#666666" points="565.12,-324.5 414.88,-324.5 414.88,-294 565.12,-294 565.12,-324.5"/>
<text xml:space="preserve" text-anchor="start" x="422.88" y="-311" font-family="Helvetica,sans-Serif" font-size="10.00">BigDataStatMeth::hdf5Dataset</text>
<text xml:space="preserve" text-anchor="middle" x="490" y="-299.75" font-family="Helvetica,sans-Serif" font-size="10.00">::addAttribute</text>
</a>
</g>
</g>
<!-- Node3&#45;&gt;Node4 -->
<g id="edge3_Node000003_Node000004" class="edge">
<title>Node3&#45;&gt;Node4</title>
<g id="a_edge3_Node000003_Node000004"><a xlink:title=" ">
<path fill="none" stroke="#63b8ff" d="M350.66,-293.64C367.66,-295.56 385.87,-297.62 403.31,-299.58"/>
<polygon fill="#63b8ff" stroke="#63b8ff" points="402.8,-303.05 413.13,-300.69 403.58,-296.09 402.8,-303.05"/>
</a>
</g>
</g>
<!-- Node5 -->
<g id="Node000005" class="node">
<title>Node5</title>
<g id="a_Node000005"><a xlink:href="class_big_data_stat_meth_1_1hdf5_file.html#abfb73b5f1eb25ee00489485c8dc56a2a" target="_top" xlink:title="Close file and cleanup resources.">
<polygon fill="white" stroke="#666666" points="555.75,-275.5 424.25,-275.5 424.25,-245 555.75,-245 555.75,-275.5"/>
<text xml:space="preserve" text-anchor="start" x="432.25" y="-262" font-family="Helvetica,sans-Serif" font-size="10.00">BigDataStatMeth::hdf5File</text>
<text xml:space="preserve" text-anchor="middle" x="490" y="-250.75" font-family="Helvetica,sans-Serif" font-size="10.00">::close_file</text>
</a>
</g>
</g>
<!-- Node3&#45;&gt;Node5 -->
<g id="edge4_Node000003_Node000005" class="edge">
<title>Node3&#45;&gt;Node5</title>
<g id="a_edge4_Node000003_Node000005"><a xlink:title=" ">
<path fill="none" stroke="#63b8ff" d="M350.66,-276.51C370.69,-274.15 392.38,-271.6 412.52,-269.24"/>
<polygon fill="#63b8ff" stroke="#63b8ff" points="412.82,-272.73 422.34,-268.08 412,-265.77 412.82,-272.73"/>
</a>
</g>
</g>
<!-- Node6 -->
<g id="Node000006" class="node">
<title>Node6</title>
<g id="a_Node000006"><a xlink:href="class_big_data_stat_meth_1_1hdf5_group.html#a27cef4d33e46c72bfd792aa49fa621a3" target="_top" xlink:title="Create multiple nested groups.">
<polygon fill="white" stroke="#666666" points="561,-226.5 419,-226.5 419,-196 561,-196 561,-226.5"/>
<text xml:space="preserve" text-anchor="start" x="427" y="-213" font-family="Helvetica,sans-Serif" font-size="10.00">BigDataStatMeth::hdf5Group</text>
<text xml:space="preserve" text-anchor="middle" x="490" y="-201.75" font-family="Helvetica,sans-Serif" font-size="10.00">::create_HDF5_groups</text>
</a>
</g>
</g>
<!-- Node3&#45;&gt;Node6 -->
<g id="edge5_Node000003_Node000006" class="edge">
<title>Node3&#45;&gt;Node6</title>
<g id="a_edge5_Node000003_Node000006"><a xlink:title=" ">
<path fill="none" stroke="#63b8ff" d="M332.22,-269.53C344.19,-265.63 356.65,-261.14 368,-256.25 384.81,-249.01 387.12,-243.32 404,-236.25 408.8,-234.24 413.82,-232.32 418.91,-230.51"/>
<polygon fill="#63b8ff" stroke="#63b8ff" points="419.65,-233.96 427.99,-227.43 417.4,-227.33 419.65,-233.96"/>
</a>
</g>
</g>
<!-- Node8 -->
<g id="Node000008" class="node">
<title>Node8</title>
<g id="a_Node000008"><a xlink:href="namespace_big_data_stat_meth.html#a89d901ab4b5e01771f4e3fc7dc84e50e" target="_top" xlink:title="Checks if an HDF5 element (group or dataset) exists.">
<polygon fill="white" stroke="#666666" points="551.62,-177.5 428.38,-177.5 428.38,-147 551.62,-147 551.62,-177.5"/>
<text xml:space="preserve" text-anchor="start" x="436.38" y="-164" font-family="Helvetica,sans-Serif" font-size="10.00">BigDataStatMeth::exists</text>
<text xml:space="preserve" text-anchor="middle" x="490" y="-152.75" font-family="Helvetica,sans-Serif" font-size="10.00">_HDF5_element</text>
</a>
</g>
</g>
<!-- Node3&#45;&gt;Node8 -->
<g id="edge7_Node000003_Node000008" class="edge">
<title>Node3&#45;&gt;Node8</title>
<g id="a_edge7_Node000003_Node000008"><a xlink:title=" ">
<path fill="none" stroke="#63b8ff" d="M346.44,-269.57C354.2,-266 361.6,-261.62 368,-256.25 394.5,-234.02 377.28,-209.21 404,-187.25 408.16,-183.83 412.78,-180.88 417.64,-178.33"/>
<polygon fill="#63b8ff" stroke="#63b8ff" points="418.89,-181.6 426.54,-174.27 415.99,-175.23 418.89,-181.6"/>
</a>
</g>
</g>
<!-- Node3&#45;&gt;Node9 -->
<g id="edge9_Node000003_Node000009" class="edge">
<title>Node3&#45;&gt;Node9</title>
<g id="a_edge9_Node000003_Node000009"><a xlink:title=" ">
<path fill="none" stroke="#63b8ff" d="M350.62,-269.71C357.09,-266.11 363.05,-261.69 368,-256.25 419.11,-200.1 352.33,-144.88 404,-89.25 405.7,-87.42 407.53,-85.72 409.46,-84.14"/>
<polygon fill="#63b8ff" stroke="#63b8ff" points="410.97,-87.35 417.27,-78.83 407.03,-81.56 410.97,-87.35"/>
</a>
</g>
</g>
<!-- Node10 -->
<g id="Node000010" class="node">
<title>Node10</title>
<g id="a_Node000010"><a xlink:href="namespace_big_data_stat_meth.html#a3d06783149029f1df2853c472d401380" target="_top" xlink:title="Removes multiple elements from an HDF5 file.">
<polygon fill="white" stroke="#666666" points="554.62,-128.5 425.38,-128.5 425.38,-98 554.62,-98 554.62,-128.5"/>
<text xml:space="preserve" text-anchor="start" x="433.38" y="-115" font-family="Helvetica,sans-Serif" font-size="10.00">BigDataStatMeth::remove</text>
<text xml:space="preserve" text-anchor="middle" x="490" y="-103.75" font-family="Helvetica,sans-Serif" font-size="10.00">_elements</text>
</a>
</g>
</g>
<!-- Node3&#45;&gt;Node10 -->
<g id="edge10_Node000003_Node000010" class="edge">
<title>Node3&#45;&gt;Node10</title>
<g id="a_edge10_Node000003_Node000010"><a xlink:title=" ">
<path fill="none" stroke="#63b8ff" d="M349.71,-269.51C356.45,-265.95 362.71,-261.59 368,-256.25 406.58,-217.28 365.03,-176.83 404,-138.25 407.38,-134.9 411.19,-132 415.27,-129.48"/>
<polygon fill="#63b8ff" stroke="#63b8ff" points="416.63,-132.72 423.86,-124.98 413.38,-126.52 416.63,-132.72"/>
</a>
</g>
</g>
<!-- Node3&#45;&gt;Node11 -->
<g id="edge11_Node000003_Node000011" class="edge">
<title>Node3&#45;&gt;Node11</title>
<g id="a_edge11_Node000003_Node000011"><a xlink:title=" ">
<path fill="none" stroke="#63b8ff" d="M315.69,-300.92C340.8,-310.69 374.12,-323.26 404,-333.25 410.07,-335.28 416.42,-337.31 422.79,-339.29"/>
<polygon fill="#63b8ff" stroke="#63b8ff" points="421.46,-342.54 432.04,-342.12 423.5,-335.85 421.46,-342.54"/>
</a>
</g>
</g>
<!-- Node7 -->
<g id="Node000007" class="node">
<title>Node7</title>
<g id="a_Node000007"><a xlink:href="namespace_big_data_stat_meth.html#abcaa4216cd52f03ebac42e4855ef846b" target="_top" xlink:title="Checks if a path exists in an HDF5 file.">
<polygon fill="white" stroke="#666666" points="769.38,-196.88 625.88,-196.88 625.88,-177.62 769.38,-177.62 769.38,-196.88"/>
<text xml:space="preserve" text-anchor="middle" x="697.62" y="-183.38" font-family="Helvetica,sans-Serif" font-size="10.00">BigDataStatMeth::pathExists</text>
</a>
</g>
</g>
<!-- Node6&#45;&gt;Node7 -->
<g id="edge6_Node000006_Node000007" class="edge">
<title>Node6&#45;&gt;Node7</title>
<g id="a_edge6_Node000006_Node000007"><a xlink:title=" ">
<path fill="none" stroke="#63b8ff" d="M561.48,-203.02C578.45,-201.04 596.74,-198.91 614.2,-196.87"/>
<polygon fill="#63b8ff" stroke="#63b8ff" points="614.51,-200.36 624.04,-195.72 613.7,-193.41 614.51,-200.36"/>
</a>
</g>
</g>
<!-- Node8&#45;&gt;Node7 -->
<g id="edge8_Node000008_Node000007" class="edge">
<title>Node8&#45;&gt;Node7</title>
<g id="a_edge8_Node000008_Node000007"><a xlink:title=" ">
<path fill="none" stroke="#63b8ff" d="M551.86,-169.65C571.34,-172.02 593.26,-174.68 614.02,-177.21"/>
<polygon fill="#63b8ff" stroke="#63b8ff" points="613.57,-180.68 623.92,-178.41 614.41,-173.73 613.57,-180.68"/>
</a>
</g>
</g>
<!-- Node12 -->
<g id="Node000012" class="node">
<title>Node12</title>
<g id="a_Node000012"><a xlink:href="class_big_data_stat_meth_1_1hdf5_dataset.html#aba39e56a580d3b1fa7f1619fc72efa3e" target="_top" xlink:title="Close dataset and file.">
<polygon fill="white" stroke="#666666" points="772.75,-569.5 622.5,-569.5 622.5,-539 772.75,-539 772.75,-569.5"/>
<text xml:space="preserve" text-anchor="start" x="630.5" y="-556" font-family="Helvetica,sans-Serif" font-size="10.00">BigDataStatMeth::hdf5Dataset</text>
<text xml:space="preserve" text-anchor="middle" x="697.62" y="-544.75" font-family="Helvetica,sans-Serif" font-size="10.00">::close_dataset_file</text>
</a>
</g>
</g>
<!-- Node11&#45;&gt;Node12 -->
<g id="edge12_Node000011_Node000012" class="edge">
<title>Node11&#45;&gt;Node12</title>
<g id="a_edge12_Node000011_Node000012"><a xlink:title=" ">
<path fill="none" stroke="#63b8ff" d="M559.74,-373.96C565.48,-376.6 571,-379.67 576,-383.25 629.37,-421.45 667.49,-490.9 685.3,-528.47"/>
<polygon fill="#63b8ff" stroke="#63b8ff" points="681.97,-529.61 689.34,-537.22 688.33,-526.68 681.97,-529.61"/>
</a>
</g>
</g>
<!-- Node13 -->
<g id="Node000013" class="node">
<title>Node13</title>
<g id="a_Node000013"><a xlink:href="class_big_data_stat_meth_1_1hdf5_dataset.html#a94d81b72e92cb0230b4e64f37ea7d2e3" target="_top" xlink:title="Convert DataFrame to range list.">
<polygon fill="white" stroke="#666666" points="783.25,-373.5 612,-373.5 612,-343 783.25,-343 783.25,-373.5"/>
<text xml:space="preserve" text-anchor="start" x="620" y="-360" font-family="Helvetica,sans-Serif" font-size="10.00">BigDataStatMeth::hdf5Dataset</text>
<text xml:space="preserve" text-anchor="middle" x="697.62" y="-348.75" font-family="Helvetica,sans-Serif" font-size="10.00">::convert_DataFrame_to_RangeList</text>
</a>
</g>
</g>
<!-- Node11&#45;&gt;Node13 -->
<g id="edge13_Node000011_Node000013" class="edge">
<title>Node11&#45;&gt;Node13</title>
<g id="a_edge13_Node000011_Node000013"><a xlink:title=" ">
<path fill="none" stroke="#63b8ff" d="M565.53,-358.25C576.85,-358.25 588.67,-358.25 600.37,-358.25"/>
<polygon fill="#63b8ff" stroke="#63b8ff" points="600.03,-361.75 610.03,-358.25 600.03,-354.75 600.03,-361.75"/>
</a>
</g>
</g>
<!-- Node14&#45;&gt;Node2 -->
<g id="edge15_Node000014_Node000002" class="edge">
<title>Node14&#45;&gt;Node2</title>
<g id="a_edge15_Node000014_Node000002"><a xlink:title=" ">
<path fill="none" stroke="#63b8ff" d="M347.97,-617.7C355.03,-620.6 361.85,-624.08 368,-628.25 390.06,-643.23 381.6,-661.78 404,-676.25 406.44,-677.83 409,-679.28 411.64,-680.61"/>
<polygon fill="#63b8ff" stroke="#63b8ff" points="410.21,-683.8 420.78,-684.57 412.99,-677.38 410.21,-683.8"/>
</a>
</g>
</g>
<!-- Node15 -->
<g id="Node000015" class="node">
<title>Node15</title>
<g id="a_Node000015"><a xlink:href="class_big_data_stat_meth_1_1hdf5_dataset.html#a7b54a6f524581d54102a1614ee44991b" target="_top" xlink:title="Get dataset dimension.">
<polygon fill="white" stroke="#666666" points="576,-741.88 404,-741.88 404,-722.62 576,-722.62 576,-741.88"/>
<text xml:space="preserve" text-anchor="middle" x="490" y="-728.38" font-family="Helvetica,sans-Serif" font-size="10.00">BigDataStatMeth::hdf5Dataset::dim</text>
</a>
</g>
</g>
<!-- Node14&#45;&gt;Node15 -->
<g id="edge16_Node000014_Node000015" class="edge">
<title>Node14&#45;&gt;Node15</title>
<g id="a_edge16_Node000014_Node000015"><a xlink:title=" ">
<path fill="none" stroke="#63b8ff" d="M348.2,-615.8C355.38,-619.05 362.17,-623.13 368,-628.25 399.15,-655.58 372.08,-687.83 404,-714.25 404.96,-715.04 405.94,-715.8 406.95,-716.53"/>
<polygon fill="#63b8ff" stroke="#63b8ff" points="404.92,-719.4 415.3,-721.52 408.51,-713.39 404.92,-719.4"/>
</a>
</g>
</g>
<!-- Node16 -->
<g id="Node000016" class="node">
<title>Node16</title>
<g id="a_Node000016"><a xlink:href="namespace_big_data_stat_meth.html#a9c15678544a0304bf01c268623b2d957" target="_top" xlink:title="Calculate optimal block size for processing.">
<polygon fill="white" stroke="#666666" points="545.25,-618.5 434.75,-618.5 434.75,-588 545.25,-588 545.25,-618.5"/>
<text xml:space="preserve" text-anchor="start" x="442.75" y="-605" font-family="Helvetica,sans-Serif" font-size="10.00">BigDataStatMeth::get</text>
<text xml:space="preserve" text-anchor="middle" x="490" y="-593.75" font-family="Helvetica,sans-Serif" font-size="10.00">_block_size</text>
</a>
</g>
</g>
<!-- Node14&#45;&gt;Node16 -->
<g id="edge17_Node000014_Node000016" class="edge">
<title>Node14&#45;&gt;Node16</title>
<g id="a_edge17_Node000014_Node000016"><a xlink:title=" ">
<path fill="none" stroke="#63b8ff" d="M347.98,-603.25C372.24,-603.25 399.2,-603.25 422.99,-603.25"/>
<polygon fill="#63b8ff" stroke="#63b8ff" points="422.88,-606.75 432.88,-603.25 422.88,-599.75 422.88,-606.75"/>
</a>
</g>
</g>
<!-- Node17 -->
<g id="Node000017" class="node">
<title>Node17</title>
<g id="a_Node000017"><a xlink:href="class_big_data_stat_meth_1_1hdf5_dataset.html#a23bea87165b8ef6b944709c5b2cbd0cf" target="_top" xlink:title=" ">
<polygon fill="white" stroke="#666666" points="565.12,-667.5 414.88,-667.5 414.88,-637 565.12,-637 565.12,-667.5"/>
<text xml:space="preserve" text-anchor="start" x="422.88" y="-654" font-family="Helvetica,sans-Serif" font-size="10.00">BigDataStatMeth::hdf5Dataset</text>
<text xml:space="preserve" text-anchor="middle" x="490" y="-642.75" font-family="Helvetica,sans-Serif" font-size="10.00">::readDatasetBlock</text>
</a>
</g>
</g>
<!-- Node14&#45;&gt;Node17 -->
<g id="edge18_Node000014_Node000017" class="edge">
<title>Node14&#45;&gt;Node17</title>
<g id="a_edge18_Node000014_Node000017"><a xlink:title=" ">
<path fill="none" stroke="#63b8ff" d="M344.44,-618.96C365.25,-623.75 388.3,-629.06 409.77,-634"/>
<polygon fill="#63b8ff" stroke="#63b8ff" points="408.82,-637.38 419.35,-636.21 410.39,-630.55 408.82,-637.38"/>
</a>
</g>
</g>
<!-- Node17&#45;&gt;Node12 -->
<g id="edge19_Node000017_Node000012" class="edge">
<title>Node17&#45;&gt;Node12</title>
<g id="a_edge19_Node000017_Node000012"><a xlink:title=" ">
<path fill="none" stroke="#63b8ff" d="M551.6,-636.53C559.92,-633.76 568.26,-630.66 576,-627.25 607.95,-613.17 641.74,-592.12 665.4,-576.24"/>
<polygon fill="#63b8ff" stroke="#63b8ff" points="667.34,-579.15 673.64,-570.63 663.4,-573.36 667.34,-579.15"/>
</a>
</g>
</g>
<!-- Node18&#45;&gt;Node2 -->
<g id="edge21_Node000018_Node000002" class="edge">
<title>Node18&#45;&gt;Node2</title>
<g id="a_edge21_Node000018_Node000002"><a xlink:title=" ">
<path fill="none" stroke="#63b8ff" d="M340.37,-665.21C368.22,-670.84 400.69,-677.4 428.16,-682.95"/>
<polygon fill="#63b8ff" stroke="#63b8ff" points="427.23,-686.34 437.72,-684.89 428.61,-679.47 427.23,-686.34"/>
</a>
</g>
</g>
<!-- Node18&#45;&gt;Node15 -->
<g id="edge22_Node000018_Node000015" class="edge">
<title>Node18&#45;&gt;Node15</title>
<g id="a_edge22_Node000018_Node000015"><a xlink:title=" ">
<path fill="none" stroke="#63b8ff" d="M303.34,-667.8C328.65,-681.74 367.85,-701.86 404,-714.25 409.39,-716.1 415.04,-717.79 420.76,-719.34"/>
<polygon fill="#63b8ff" stroke="#63b8ff" points="419.76,-722.7 430.32,-721.76 421.48,-715.91 419.76,-722.7"/>
</a>
</g>
</g>
<!-- Node18&#45;&gt;Node16 -->
<g id="edge23_Node000018_Node000016" class="edge">
<title>Node18&#45;&gt;Node16</title>
<g id="a_edge23_Node000018_Node000016"><a xlink:title=" ">
<path fill="none" stroke="#63b8ff" d="M340.37,-637.48C366.6,-631.44 396.92,-624.46 423.31,-618.38"/>
<polygon fill="#63b8ff" stroke="#63b8ff" points="423.92,-621.83 432.88,-616.18 422.35,-615.01 423.92,-621.83"/>
</a>
</g>
</g>
<!-- Node18&#45;&gt;Node17 -->
<g id="edge24_Node000018_Node000017" class="edge">
<title>Node18&#45;&gt;Node17</title>
<g id="a_edge24_Node000018_Node000017"><a xlink:title=" ">
<path fill="none" stroke="#63b8ff" d="M340.37,-652.25C360.09,-652.25 382.12,-652.25 403.05,-652.25"/>
<polygon fill="#63b8ff" stroke="#63b8ff" points="403.03,-655.75 413.03,-652.25 403.03,-648.75 403.03,-655.75"/>
</a>
</g>
</g>
<!-- Node22 -->
<g id="Node000022" class="node">
<title>Node22</title>
<g id="a_Node000022"><a xlink:href="class_big_data_stat_meth_1_1hdf5_file.html#abb50d96e6674ac770e4f27f650ad34cb" target="_top" xlink:title="Get filename.">
<polygon fill="white" stroke="#666666" points="555.75,-30.5 424.25,-30.5 424.25,0 555.75,0 555.75,-30.5"/>
<text xml:space="preserve" text-anchor="start" x="432.25" y="-17" font-family="Helvetica,sans-Serif" font-size="10.00">BigDataStatMeth::hdf5File</text>
<text xml:space="preserve" text-anchor="middle" x="490" y="-5.75" font-family="Helvetica,sans-Serif" font-size="10.00">::getFilename</text>
</a>
</g>
</g>
<!-- Node21&#45;&gt;Node22 -->
<g id="edge28_Node000021_Node000022" class="edge">
<title>Node21&#45;&gt;Node22</title>
<g id="a_edge28_Node000021_Node000022"><a xlink:title=" ">
<path fill="none" stroke="#63b8ff" d="M350.66,-35.41C370.69,-32.49 392.38,-29.33 412.52,-26.39"/>
<polygon fill="#63b8ff" stroke="#63b8ff" points="412.96,-29.87 422.35,-24.96 411.95,-22.94 412.96,-29.87"/>
</a>
</g>
</g>
<!-- Node25&#45;&gt;Node2 -->
<g id="edge33_Node000025_Node000002" class="edge">
<title>Node25&#45;&gt;Node2</title>
<g id="a_edge33_Node000025_Node000002"><a xlink:title=" ">
<path fill="none" stroke="#63b8ff" d="M306.32,-539.26C326.23,-547.27 351.61,-560.32 368,-579.25 398.1,-614.01 369.36,-646.01 404,-676.25 405.28,-677.37 406.61,-678.43 407.99,-679.42"/>
<polygon fill="#63b8ff" stroke="#63b8ff" points="405.98,-682.3 416.36,-684.43 409.57,-676.29 405.98,-682.3"/>
</a>
</g>
</g>
<!-- Node25&#45;&gt;Node16 -->
<g id="edge34_Node000025_Node000016" class="edge">
<title>Node25&#45;&gt;Node16</title>
<g id="a_edge34_Node000025_Node000016"><a xlink:title=" ">
<path fill="none" stroke="#63b8ff" d="M300.53,-539.23C326.07,-549.57 367.55,-565.92 404,-578.25 410.41,-580.42 417.12,-582.58 423.85,-584.67"/>
<polygon fill="#63b8ff" stroke="#63b8ff" points="422.35,-587.87 432.94,-587.45 424.4,-581.18 422.35,-587.87"/>
</a>
</g>
</g>
<!-- Node25&#45;&gt;Node17 -->
<g id="edge38_Node000025_Node000017" class="edge">
<title>Node25&#45;&gt;Node17</title>
<g id="a_edge38_Node000025_Node000017"><a xlink:title=" ">
<path fill="none" stroke="#63b8ff" d="M301.02,-539.24C320.57,-547.91 347.83,-561.8 368,-579.25 388.17,-596.7 382.09,-612.05 404,-627.25 406.1,-628.71 408.3,-630.09 410.55,-631.38"/>
<polygon fill="#63b8ff" stroke="#63b8ff" points="408.95,-634.5 419.46,-635.89 412.12,-628.25 408.95,-634.5"/>
</a>
</g>
</g>
<!-- Node25&#45;&gt;Node23 -->
<g id="edge35_Node000025_Node000023" class="edge">
<title>Node25&#45;&gt;Node23</title>
<g id="a_edge35_Node000025_Node000023"><a xlink:title=" ">
<path fill="none" stroke="#63b8ff" d="M301.5,-519.13C327.13,-509.02 368.05,-493.27 404,-481.25 410.07,-479.22 416.42,-477.19 422.79,-475.21"/>
<polygon fill="#63b8ff" stroke="#63b8ff" points="423.5,-478.65 432.04,-472.38 421.46,-471.96 423.5,-478.65"/>
</a>
</g>
</g>
<!-- Node25&#45;&gt;Node24 -->
<g id="edge36_Node000025_Node000024" class="edge">
<title>Node25&#45;&gt;Node24</title>
<g id="a_edge36_Node000025_Node000024"><a xlink:title=" ">
<path fill="none" stroke="#63b8ff" d="M286.61,-519.22C307.28,-499.75 355.78,-456.61 404,-432.25 407.72,-430.37 411.6,-428.61 415.58,-426.96"/>
<polygon fill="#63b8ff" stroke="#63b8ff" points="416.75,-430.26 424.83,-423.41 414.24,-423.73 416.75,-430.26"/>
</a>
</g>
</g>
<!-- Node26 -->
<g id="Node000026" class="node">
<title>Node26</title>
<g id="a_Node000026"><a xlink:href="namespace_big_data_stat_meth.html#aa109a5664920caf79ff04c997a57cc59" target="_top" xlink:title=" ">
<polygon fill="white" stroke="#666666" points="572.25,-520.5 407.75,-520.5 407.75,-490 572.25,-490 572.25,-520.5"/>
<text xml:space="preserve" text-anchor="start" x="415.75" y="-507" font-family="Helvetica,sans-Serif" font-size="10.00">BigDataStatMeth::RcppNormalize</text>
<text xml:space="preserve" text-anchor="middle" x="490" y="-495.75" font-family="Helvetica,sans-Serif" font-size="10.00">_Data_R_hdf5</text>
</a>
</g>
</g>
<!-- Node25&#45;&gt;Node26 -->
<g id="edge37_Node000025_Node000026" class="edge">
<title>Node25&#45;&gt;Node26</title>
<g id="a_edge37_Node000025_Node000026"><a xlink:title=" ">
<path fill="none" stroke="#63b8ff" d="M365.86,-519.14C375.84,-518.02 386.03,-516.87 396.05,-515.74"/>
<polygon fill="#63b8ff" stroke="#63b8ff" points="396.23,-519.24 405.78,-514.64 395.45,-512.28 396.23,-519.24"/>
</a>
</g>
</g>
<!-- Node27 -->
<g id="Node000027" class="node">
<title>Node27</title>
<g id="a_Node000027"><a xlink:href="class_big_data_stat_meth_1_1hdf5_dataset.html#ae135b5c379a5de2fa1a9e6917b624ac3" target="_top" xlink:title="Write block of data in row&#45;major order.">
<polygon fill="white" stroke="#666666" points="565.12,-569.5 414.88,-569.5 414.88,-539 565.12,-539 565.12,-569.5"/>
<text xml:space="preserve" text-anchor="start" x="422.88" y="-556" font-family="Helvetica,sans-Serif" font-size="10.00">BigDataStatMeth::hdf5Dataset</text>
<text xml:space="preserve" text-anchor="middle" x="490" y="-544.75" font-family="Helvetica,sans-Serif" font-size="10.00">::writeRowMajorDatasetBlock</text>
</a>
</g>
</g>
<!-- Node25&#45;&gt;Node27 -->
<g id="edge39_Node000025_Node000027" class="edge">
<title>Node25&#45;&gt;Node27</title>
<g id="a_edge39_Node000025_Node000027"><a xlink:title=" ">
<path fill="none" stroke="#63b8ff" d="M362.17,-539.35C375.68,-540.93 389.66,-542.58 403.17,-544.16"/>
<polygon fill="#63b8ff" stroke="#63b8ff" points="402.55,-547.62 412.89,-545.31 403.37,-540.66 402.55,-547.62"/>
</a>
</g>
</g>
<!-- Node27&#45;&gt;Node12 -->
<g id="edge40_Node000027_Node000012" class="edge">
<title>Node27&#45;&gt;Node12</title>
<g id="a_edge40_Node000027_Node000012"><a xlink:title=" ">
<path fill="none" stroke="#63b8ff" d="M565.53,-554.25C580.18,-554.25 595.67,-554.25 610.66,-554.25"/>
<polygon fill="#63b8ff" stroke="#63b8ff" points="610.49,-557.75 620.49,-554.25 610.49,-550.75 610.49,-557.75"/>
</a>
</g>
</g>
</g>
</svg>

<g id="navigator" transform="translate(0 0)" fill="#404254">
  <rect fill="#f2f5e9" fill-opacity="0.5" stroke="#606060" stroke-width=".5" x="0" y="0" width="60" height="60"/>
  <use id="zoomplus" xlink:href="#zoomPlus" x="17" y="9" onmousedown="handleZoom(evt,'in')"/>
  <use id="zoomminus" xlink:href="#zoomMin" x="42" y="9" onmousedown="handleZoom(evt,'out')"/>
  <use id="reset" xlink:href="#resetDef" x="30" y="36" onmousedown="handleReset()"/>
   <use id="arrowup" xlink:href="#arrowUp" x="0" y="0" onmousedown="handlePan(0,-1)"/>
  <use id="arrowright" xlink:href="#arrowRight" x="0" y="0" onmousedown="handlePan(1,0)"/>
  <use id="arrowdown" xlink:href="#arrowDown" x="0" y="0" onmousedown="handlePan(0,1)"/>
  <use id="arrowleft" xlink:href="#arrowLeft" x="0" y="0" onmousedown="handlePan(-1,0)"/>
</g>
<svg viewBox="0 0 15 15" width="100%" height="30px" preserveAspectRatio="xMaxYMin meet">
 <g id="arrow_out" transform="scale(0.3 0.3)">
  <a xlink:href="namespace_big_data_stat_meth_a92087d3669b3bc07d9973a4f2f56cce0_cgraph_org.svg" target="_base">
   <rect id="button" ry="5" rx="5" y="6" x="6" height="38" width="38"
        fill="#f2f5e9" fill-opacity="0.5" stroke="#606060" stroke-width="1.0"/>
   <path id="arrow"
     d="M 11.500037,31.436501 C 11.940474,20.09759 22.043105,11.32322 32.158766,21.979434 L 37.068811,17.246167 C 37.068811,17.246167 37.088388,32 37.088388,32 L 22.160133,31.978069 C 22.160133,31.978069 26.997745,27.140456 26.997745,27.140456 C 18.528582,18.264221 13.291696,25.230495 11.500037,31.436501 z"
     style="fill:#404040;"/>
  </a>
 </g>
</svg>

<style type='text/css'>
<![CDATA[
[data-mouse-over-selected='false'] { opacity: 0.7; }
[data-mouse-over-selected='true']  { opacity: 1.0; }
]]>
</style>
<script type="application/ecmascript"><![CDATA[
document.addEventListener('DOMContentLoaded', (event) => {
  highlightEdges();
  highlightAdjacentNodes();
});
]]></script>
</svg>
