<?xml version="1.0" encoding="UTF-8" standalone="no"?>
<!DOCTYPE svg PUBLIC "-//W3C//DTD SVG 1.1//EN"
 "http://www.w3.org/Graphics/SVG/1.1/DTD/svg11.dtd">
<!-- Generated by graphviz version 14.0.0 (20250921.2048)
 -->
<!-- Title: BigDataStatMeth::RcppbdEigen_hdf5 Pages: 1 -->
<!--zoomable 712 -->

<svg id="main" version="1.1" xmlns="http://www.w3.org/2000/svg" xmlns:xlink="http://www.w3.org/1999/xlink" xml:space="preserve" onload="init(evt)">

<style type="text/css"><![CDATA[
.node, .edge {opacity: 0.7;}
.node.selected, .edge.selected {opacity: 1;}
.edge:hover path { stroke: red; }
.edge:hover polygon { stroke: red; fill: red; }
]]></style>

<defs>
  <circle id="rim" cx="0" cy="0" r="7"/>
  <circle id="rim2" cx="0" cy="0" r="3.5"/>
  <g id="zoomPlus">
    <use xlink:href="#rim" fill="#404040"><set attributeName="fill" to="#808080" begin="zoomplus.mouseover" end="zoomplus.mouseout"/></use>
    <path d="M-4,0h8M0,-4v8" fill="none" stroke="white" stroke-width="1.5" pointer-events="none"/>
  </g>
  <g id="zoomMin">
    <use xlink:href="#rim" fill="#404040"><set attributeName="fill" to="#808080" begin="zoomminus.mouseover" end="zoomminus.mouseout"/></use>
    <path d="M-4,0h8" fill="none" stroke="white" stroke-width="1.5" pointer-events="none"/>
  </g>
  <g id="arrowUp" transform="translate(30 24)">
    <use xlink:href="#rim"/>
    <path pointer-events="none" fill="none" stroke="white" stroke-width="1.5" d="M0,-3.0v7 M-2.5,-0.5L0,-3.0L2.5,-0.5"/>
  </g>
  <g id="arrowRight" transform="rotate(90) translate(36 -43)">
    <use xlink:href="#rim"/>
    <path pointer-events="none" fill="none" stroke="white" stroke-width="1.5" d="M0,-3.0v7 M-2.5,-0.5L0,-3.0L2.5,-0.5"/>
  </g>
  <g id="arrowDown" transform="rotate(180) translate(-30 -48)">
    <use xlink:href="#rim"/>
    <path pointer-events="none" fill="none" stroke="white" stroke-width="1.5" d="M0,-3.0v7 M-2.5,-0.5L0,-3.0L2.5,-0.5"/>
  </g>
  <g id="arrowLeft" transform="rotate(270) translate(-36 17)">
    <use xlink:href="#rim"/>
    <path pointer-events="none" fill="none" stroke="white" stroke-width="1.5" d="M0,-3.0v7 M-2.5,-0.5L0,-3.0L2.5,-0.5"/>
  </g>
  <g id="resetDef">
    <use xlink:href="#rim2" fill="#404040"><set attributeName="fill" to="#808080" begin="reset.mouseover" end="reset.mouseout"/></use>
  </g>
</defs>
<script type="application/ecmascript">
var viewWidth = 1016;
var viewHeight = 712;
var sectionId = 'dynsection-134';
</script>
<script type="application/ecmascript" xlink:href="../../../../assets/svg.min.js"/>
<svg id="graph" class="graph">
<g id="viewport">
<title>BigDataStatMeth::RcppbdEigen_hdf5</title>
<!-- Node1 -->
<g id="Node000001" class="node">
<title>Node1</title>
<g id="a_Node000001"><a xlink:title="Main eigenvalue decomposition function for HDF5 matrices using Spectra.">
<polygon fill="#999999" stroke="#666666" points="179.5,-300.88 0,-300.88 0,-281.62 179.5,-281.62 179.5,-300.88"/>
<text xml:space="preserve" text-anchor="middle" x="89.75" y="-287.38" font-family="Helvetica,sans-Serif" font-size="10.00">BigDataStatMeth::RcppbdEigen_hdf5</text>
</a>
</g>
</g>
<!-- Node2 -->
<g id="Node000002" class="node">
<title>Node2</title>
<g id="a_Node000002"><a xlink:href="namespace_big_data_stat_meth.html#a304b42b14ec87d4acc6f34ff0231529d" target="_top" xlink:title="Safely close any number of dataset handles (C++17).">
<polygon fill="white" stroke="#666666" points="573.75,-355.88 407,-355.88 407,-336.62 573.75,-336.62 573.75,-355.88"/>
<text xml:space="preserve" text-anchor="middle" x="490.38" y="-342.38" font-family="Helvetica,sans-Serif" font-size="10.00">BigDataStatMeth::checkClose_file</text>
</a>
</g>
</g>
<!-- Node1&#45;&gt;Node2 -->
<g id="edge1_Node000001_Node000002" class="edge">
<title>Node1&#45;&gt;Node2</title>
<g id="a_edge1_Node000001_Node000002"><a xlink:title=" ">
<path fill="none" stroke="#63b8ff" d="M138.58,-301.35C161.74,-306.01 189.99,-311.36 215.5,-315.25 275.11,-324.34 342.38,-331.99 395.34,-337.42"/>
<polygon fill="#63b8ff" stroke="#63b8ff" points="394.95,-340.9 405.26,-338.43 395.66,-333.94 394.95,-340.9"/>
</a>
</g>
</g>
<!-- Node3 -->
<g id="Node000003" class="node">
<title>Node3</title>
<g id="a_Node000003"><a xlink:href="class_big_data_stat_meth_1_1hdf5_dataset.html#ab19bac9a31efe4a733294c1c23ff5ef7" target="_top" xlink:title="Create a new dataset with optional compression.">
<polygon fill="white" stroke="#666666" points="565.5,-442.5 415.25,-442.5 415.25,-412 565.5,-412 565.5,-442.5"/>
<text xml:space="preserve" text-anchor="start" x="423.25" y="-429" font-family="Helvetica,sans-Serif" font-size="10.00">BigDataStatMeth::hdf5Dataset</text>
<text xml:space="preserve" text-anchor="middle" x="490.38" y="-417.75" font-family="Helvetica,sans-Serif" font-size="10.00">::createDataset</text>
</a>
</g>
</g>
<!-- Node1&#45;&gt;Node3 -->
<g id="edge2_Node000001_Node000003" class="edge">
<title>Node1&#45;&gt;Node3</title>
<g id="a_edge2_Node000001_Node000003"><a xlink:title=" ">
<path fill="none" stroke="#63b8ff" d="M98.52,-301.13C116.43,-323.05 163.1,-375.65 215.5,-398.25 274.85,-423.85 347.89,-430.5 403.61,-431.07"/>
<polygon fill="#63b8ff" stroke="#63b8ff" points="403.35,-434.57 413.36,-431.11 403.37,-427.57 403.35,-434.57"/>
</a>
</g>
</g>
<!-- Node11 -->
<g id="Node000011" class="node">
<title>Node11</title>
<g id="a_Node000011"><a xlink:href="class_big_data_stat_meth_1_1hdf5_dataset.html#acf9843abcb57a0090f1635cc69d95300" target="_top" xlink:title="Write data to the dataset.">
<polygon fill="white" stroke="#666666" points="780.25,-328.5 630,-328.5 630,-298 780.25,-298 780.25,-328.5"/>
<text xml:space="preserve" text-anchor="start" x="638" y="-315" font-family="Helvetica,sans-Serif" font-size="10.00">BigDataStatMeth::hdf5Dataset</text>
<text xml:space="preserve" text-anchor="middle" x="705.12" y="-303.75" font-family="Helvetica,sans-Serif" font-size="10.00">::writeDataset</text>
</a>
</g>
</g>
<!-- Node1&#45;&gt;Node11 -->
<g id="edge42_Node000001_Node000011" class="edge">
<title>Node1&#45;&gt;Node11</title>
<g id="a_edge42_Node000001_Node000011"><a xlink:title=" ">
<path fill="none" stroke="#63b8ff" d="M111.58,-301.21C179.72,-332.38 401.52,-422.66 573.75,-365.25 592.72,-358.93 591.75,-346.97 609.75,-338.25 613.75,-336.31 617.93,-334.5 622.2,-332.83"/>
<polygon fill="#63b8ff" stroke="#63b8ff" points="623.33,-336.14 631.54,-329.43 620.94,-329.56 623.33,-336.14"/>
</a>
</g>
</g>
<!-- Node14 -->
<g id="Node000014" class="node">
<title>Node14</title>
<g id="a_Node000014"><a xlink:href="class_big_data_stat_meth_1_1hdf5_dataset.html#a00ef08e5d548410faaea7892c87c343a" target="_top" xlink:title="Get dataset pointer.">
<polygon fill="white" stroke="#666666" points="368.38,-128.5 218.12,-128.5 218.12,-98 368.38,-98 368.38,-128.5"/>
<text xml:space="preserve" text-anchor="start" x="226.12" y="-115" font-family="Helvetica,sans-Serif" font-size="10.00">BigDataStatMeth::hdf5Dataset</text>
<text xml:space="preserve" text-anchor="middle" x="293.25" y="-103.75" font-family="Helvetica,sans-Serif" font-size="10.00">::getDatasetptr</text>
</a>
</g>
</g>
<!-- Node1&#45;&gt;Node14 -->
<g id="edge14_Node000001_Node000014" class="edge">
<title>Node1&#45;&gt;Node14</title>
<g id="a_edge14_Node000001_Node000014"><a xlink:title=" ">
<path fill="none" stroke="#63b8ff" d="M96.45,-281.41C112.14,-255.15 158.56,-182.69 215.5,-142.25 219.84,-139.16 224.56,-136.36 229.44,-133.83"/>
<polygon fill="#63b8ff" stroke="#63b8ff" points="230.73,-137.09 238.27,-129.64 227.73,-130.76 230.73,-137.09"/>
</a>
</g>
</g>
<!-- Node15 -->
<g id="Node000015" class="node">
<title>Node15</title>
<g id="a_Node000015"><a xlink:href="class_big_data_stat_meth_1_1hdf5_dataset.html#aa743c8c46d7ff3bb2f894145dd07fd8a" target="_top" xlink:title="Get number of columns in internal format.">
<polygon fill="white" stroke="#666666" points="368.38,-79.5 218.12,-79.5 218.12,-49 368.38,-49 368.38,-79.5"/>
<text xml:space="preserve" text-anchor="start" x="226.12" y="-66" font-family="Helvetica,sans-Serif" font-size="10.00">BigDataStatMeth::hdf5Dataset</text>
<text xml:space="preserve" text-anchor="middle" x="293.25" y="-54.75" font-family="Helvetica,sans-Serif" font-size="10.00">::ncols</text>
</a>
</g>
</g>
<!-- Node1&#45;&gt;Node15 -->
<g id="edge15_Node000001_Node000015" class="edge">
<title>Node1&#45;&gt;Node15</title>
<g id="a_edge15_Node000001_Node000015"><a xlink:title=" ">
<path fill="none" stroke="#63b8ff" d="M93.96,-281.58C105.19,-249.27 145.83,-144.02 215.5,-89.25 217.24,-87.89 219.05,-86.6 220.92,-85.37"/>
<polygon fill="#63b8ff" stroke="#63b8ff" points="222.42,-88.54 229.4,-80.57 218.98,-82.45 222.42,-88.54"/>
</a>
</g>
</g>
<!-- Node16 -->
<g id="Node000016" class="node">
<title>Node16</title>
<g id="a_Node000016"><a xlink:href="class_big_data_stat_meth_1_1hdf5_dataset.html#a6cbce676967d0cc4b50e2cc5282c322b" target="_top" xlink:title="Get number of rows in internal format.">
<polygon fill="white" stroke="#666666" points="368.38,-30.5 218.12,-30.5 218.12,0 368.38,0 368.38,-30.5"/>
<text xml:space="preserve" text-anchor="start" x="226.12" y="-17" font-family="Helvetica,sans-Serif" font-size="10.00">BigDataStatMeth::hdf5Dataset</text>
<text xml:space="preserve" text-anchor="middle" x="293.25" y="-5.75" font-family="Helvetica,sans-Serif" font-size="10.00">::nrows</text>
</a>
</g>
</g>
<!-- Node1&#45;&gt;Node16 -->
<g id="edge16_Node000001_Node000016" class="edge">
<title>Node1&#45;&gt;Node16</title>
<g id="a_edge16_Node000001_Node000016"><a xlink:title=" ">
<path fill="none" stroke="#63b8ff" d="M92.82,-281.14C101.04,-243.46 135.02,-109.74 215.5,-40.25 216.79,-39.13 218.14,-38.07 219.52,-37.05"/>
<polygon fill="#63b8ff" stroke="#63b8ff" points="221.31,-40.06 227.93,-31.79 217.6,-34.12 221.31,-40.06"/>
</a>
</g>
</g>
<!-- Node17 -->
<g id="Node000017" class="node">
<title>Node17</title>
<g id="a_Node000017"><a xlink:href="class_big_data_stat_meth_1_1hdf5_dataset.html#ab57cadee5e43a496eb32dbf12d603d76" target="_top" xlink:title=" ">
<polygon fill="white" stroke="#666666" points="368.38,-573.5 218.12,-573.5 218.12,-543 368.38,-543 368.38,-573.5"/>
<text xml:space="preserve" text-anchor="start" x="226.12" y="-560" font-family="Helvetica,sans-Serif" font-size="10.00">BigDataStatMeth::hdf5Dataset</text>
<text xml:space="preserve" text-anchor="middle" x="293.25" y="-548.75" font-family="Helvetica,sans-Serif" font-size="10.00">::openDataset</text>
</a>
</g>
</g>
<!-- Node1&#45;&gt;Node17 -->
<g id="edge17_Node000001_Node000017" class="edge">
<title>Node1&#45;&gt;Node17</title>
<g id="a_edge17_Node000001_Node000017"><a xlink:title=" ">
<path fill="none" stroke="#63b8ff" d="M98.16,-301.07C126.82,-339.05 230.92,-476.99 273.7,-533.67"/>
<polygon fill="#63b8ff" stroke="#63b8ff" points="270.76,-535.58 279.57,-541.45 276.34,-531.36 270.76,-535.58"/>
</a>
</g>
</g>
<!-- Node20 -->
<g id="Node000020" class="node">
<title>Node20</title>
<g id="a_Node000020"><a xlink:href="namespace_big_data_stat_meth.html#af27025105c7f4730a8233cf325613694" target="_top" xlink:title="Block&#45;wise eigendecomposition for large HDF5 matrices using Spectra.">
<polygon fill="white" stroke="#666666" points="371,-306.5 215.5,-306.5 215.5,-276 371,-276 371,-306.5"/>
<text xml:space="preserve" text-anchor="start" x="223.5" y="-293" font-family="Helvetica,sans-Serif" font-size="10.00">BigDataStatMeth::RcppbdEigen</text>
<text xml:space="preserve" text-anchor="middle" x="293.25" y="-281.75" font-family="Helvetica,sans-Serif" font-size="10.00">_hdf5_Block</text>
</a>
</g>
</g>
<!-- Node1&#45;&gt;Node20 -->
<g id="edge24_Node000001_Node000020" class="edge">
<title>Node1&#45;&gt;Node20</title>
<g id="a_edge24_Node000001_Node000020"><a xlink:title=" ">
<path fill="none" stroke="#63b8ff" d="M179.72,-291.25C187.74,-291.25 195.87,-291.25 203.89,-291.25"/>
<polygon fill="#63b8ff" stroke="#63b8ff" points="203.62,-294.75 213.62,-291.25 203.62,-287.75 203.62,-294.75"/>
</a>
</g>
</g>
<!-- Node21 -->
<g id="Node000021" class="node">
<title>Node21</title>
<g id="a_Node000021"><a xlink:href="namespace_big_data_stat_meth.html#a050dd22b3a20be0b77d4b72fd278a214" target="_top" xlink:title="Eigenvalue decomposition using Spectra (compatible with BigDataStatMeth SVD version)">
<polygon fill="white" stroke="#666666" points="568.12,-242.5 412.62,-242.5 412.62,-212 568.12,-212 568.12,-242.5"/>
<text xml:space="preserve" text-anchor="start" x="420.62" y="-229" font-family="Helvetica,sans-Serif" font-size="10.00">BigDataStatMeth::RcppbdEigen</text>
<text xml:space="preserve" text-anchor="middle" x="490.38" y="-217.75" font-family="Helvetica,sans-Serif" font-size="10.00">_spectra</text>
</a>
</g>
</g>
<!-- Node1&#45;&gt;Node21 -->
<g id="edge38_Node000001_Node000021" class="edge">
<title>Node1&#45;&gt;Node21</title>
<g id="a_edge38_Node000001_Node000021"><a xlink:title=" ">
<path fill="none" stroke="#63b8ff" d="M140.43,-281.16C163.26,-276.66 190.71,-271.44 215.5,-267.25 277.32,-256.8 347.26,-246.61 400.99,-239.13"/>
<polygon fill="#63b8ff" stroke="#63b8ff" points="401.28,-242.62 410.7,-237.78 400.32,-235.69 401.28,-242.62"/>
</a>
</g>
</g>
<!-- Node28 -->
<g id="Node000028" class="node">
<title>Node28</title>
<g id="a_Node000028"><a xlink:href="namespace_big_data_stat_meth.html#afb53700b444c5257b41f07f12a84bdaa" target="_top" xlink:title="Validate and adjust Spectra parameters for convergence.">
<polygon fill="white" stroke="#666666" points="770.5,-95.5 639.75,-95.5 639.75,-65 770.5,-65 770.5,-95.5"/>
<text xml:space="preserve" text-anchor="start" x="647.75" y="-82" font-family="Helvetica,sans-Serif" font-size="10.00">BigDataStatMeth::validate</text>
<text xml:space="preserve" text-anchor="middle" x="705.12" y="-70.75" font-family="Helvetica,sans-Serif" font-size="10.00">SpectraParams</text>
</a>
</g>
</g>
<!-- Node1&#45;&gt;Node28 -->
<g id="edge41_Node000001_Node000028" class="edge">
<title>Node1&#45;&gt;Node28</title>
<g id="a_edge41_Node000001_Node000028"><a xlink:title=" ">
<path fill="none" stroke="#63b8ff" d="M112.24,-281.22C162.81,-257.87 293.67,-198.92 407,-160.25 495.37,-130.1 519.57,-129.43 609.75,-105.25 617.46,-103.18 625.53,-101.03 633.56,-98.89"/>
<polygon fill="#63b8ff" stroke="#63b8ff" points="634.22,-102.34 642.99,-96.39 632.43,-95.57 634.22,-102.34"/>
</a>
</g>
</g>
<!-- Node29 -->
<g id="Node000029" class="node">
<title>Node29</title>
<g id="a_Node000029"><a xlink:href="class_big_data_stat_meth_1_1hdf5_dataset.html#a23bea87165b8ef6b944709c5b2cbd0cf" target="_top" xlink:title=" ">
<polygon fill="white" stroke="#666666" points="565.5,-703.5 415.25,-703.5 415.25,-673 565.5,-673 565.5,-703.5"/>
<text xml:space="preserve" text-anchor="start" x="423.25" y="-690" font-family="Helvetica,sans-Serif" font-size="10.00">BigDataStatMeth::hdf5Dataset</text>
<text xml:space="preserve" text-anchor="middle" x="490.38" y="-678.75" font-family="Helvetica,sans-Serif" font-size="10.00">::readDatasetBlock</text>
</a>
</g>
</g>
<!-- Node1&#45;&gt;Node29 -->
<g id="edge39_Node000001_Node000029" class="edge">
<title>Node1&#45;&gt;Node29</title>
<g id="a_edge39_Node000001_Node000029"><a xlink:title=" ">
<path fill="none" stroke="#63b8ff" d="M92.28,-301.28C98.98,-341.95 129.39,-496.56 215.5,-582.25 266.45,-632.95 344.34,-659.96 404.04,-673.99"/>
<polygon fill="#63b8ff" stroke="#63b8ff" points="402.97,-677.33 413.49,-676.13 404.51,-670.51 402.97,-677.33"/>
</a>
</g>
</g>
<!-- Node4 -->
<g id="Node000004" class="node">
<title>Node4</title>
<g id="a_Node000004"><a xlink:href="class_big_data_stat_meth_1_1hdf5_dataset.html#ac7a7f23b7e22c9b56ca6ad86592f2d52" target="_top" xlink:title="Add an attribute to the dataset.">
<polygon fill="white" stroke="#666666" points="780.25,-524.5 630,-524.5 630,-494 780.25,-494 780.25,-524.5"/>
<text xml:space="preserve" text-anchor="start" x="638" y="-511" font-family="Helvetica,sans-Serif" font-size="10.00">BigDataStatMeth::hdf5Dataset</text>
<text xml:space="preserve" text-anchor="middle" x="705.12" y="-499.75" font-family="Helvetica,sans-Serif" font-size="10.00">::addAttribute</text>
</a>
</g>
</g>
<!-- Node3&#45;&gt;Node4 -->
<g id="edge3_Node000003_Node000004" class="edge">
<title>Node3&#45;&gt;Node4</title>
<g id="a_edge3_Node000003_Node000004"><a xlink:title=" ">
<path fill="none" stroke="#63b8ff" d="M519.9,-442.88C543.47,-455.33 578.08,-472.55 609.75,-484.25 615.46,-486.36 621.43,-488.37 627.47,-490.27"/>
<polygon fill="#63b8ff" stroke="#63b8ff" points="626.35,-493.59 636.94,-493.12 628.37,-486.88 626.35,-493.59"/>
</a>
</g>
</g>
<!-- Node5 -->
<g id="Node000005" class="node">
<title>Node5</title>
<g id="a_Node000005"><a xlink:href="class_big_data_stat_meth_1_1hdf5_file.html#abfb73b5f1eb25ee00489485c8dc56a2a" target="_top" xlink:title="Close file and cleanup resources.">
<polygon fill="white" stroke="#666666" points="770.88,-573.5 639.38,-573.5 639.38,-543 770.88,-543 770.88,-573.5"/>
<text xml:space="preserve" text-anchor="start" x="647.38" y="-560" font-family="Helvetica,sans-Serif" font-size="10.00">BigDataStatMeth::hdf5File</text>
<text xml:space="preserve" text-anchor="middle" x="705.12" y="-548.75" font-family="Helvetica,sans-Serif" font-size="10.00">::close_file</text>
</a>
</g>
</g>
<!-- Node3&#45;&gt;Node5 -->
<g id="edge4_Node000003_Node000005" class="edge">
<title>Node3&#45;&gt;Node5</title>
<g id="a_edge4_Node000003_Node000005"><a xlink:title=" ">
<path fill="none" stroke="#63b8ff" d="M514.04,-442.95C531.17,-455.26 554.87,-473.26 573.75,-491.25 591.55,-508.21 588.93,-520.18 609.75,-533.25 615.59,-536.92 621.96,-540.05 628.54,-542.72"/>
<polygon fill="#63b8ff" stroke="#63b8ff" points="626.99,-545.89 637.59,-546.04 629.41,-539.31 626.99,-545.89"/>
</a>
</g>
</g>
<!-- Node6 -->
<g id="Node000006" class="node">
<title>Node6</title>
<g id="a_Node000006"><a xlink:href="class_big_data_stat_meth_1_1hdf5_group.html#a27cef4d33e46c72bfd792aa49fa621a3" target="_top" xlink:title="Create multiple nested groups.">
<polygon fill="white" stroke="#666666" points="776.12,-377.5 634.12,-377.5 634.12,-347 776.12,-347 776.12,-377.5"/>
<text xml:space="preserve" text-anchor="start" x="642.12" y="-364" font-family="Helvetica,sans-Serif" font-size="10.00">BigDataStatMeth::hdf5Group</text>
<text xml:space="preserve" text-anchor="middle" x="705.12" y="-352.75" font-family="Helvetica,sans-Serif" font-size="10.00">::create_HDF5_groups</text>
</a>
</g>
</g>
<!-- Node3&#45;&gt;Node6 -->
<g id="edge5_Node000003_Node000006" class="edge">
<title>Node3&#45;&gt;Node6</title>
<g id="a_edge5_Node000003_Node000006"><a xlink:title=" ">
<path fill="none" stroke="#63b8ff" d="M535.56,-411.54C557.71,-403.86 585.03,-394.69 609.75,-387.25 616.7,-385.16 623.97,-383.06 631.25,-381.03"/>
<polygon fill="#63b8ff" stroke="#63b8ff" points="632.1,-384.43 640.82,-378.4 630.25,-377.68 632.1,-384.43"/>
</a>
</g>
</g>
<!-- Node8 -->
<g id="Node000008" class="node">
<title>Node8</title>
<g id="a_Node000008"><a xlink:href="namespace_big_data_stat_meth.html#a89d901ab4b5e01771f4e3fc7dc84e50e" target="_top" xlink:title="Checks if an HDF5 element (group or dataset) exists.">
<polygon fill="white" stroke="#666666" points="766.75,-622.5 643.5,-622.5 643.5,-592 766.75,-592 766.75,-622.5"/>
<text xml:space="preserve" text-anchor="start" x="651.5" y="-609" font-family="Helvetica,sans-Serif" font-size="10.00">BigDataStatMeth::exists</text>
<text xml:space="preserve" text-anchor="middle" x="705.12" y="-597.75" font-family="Helvetica,sans-Serif" font-size="10.00">_HDF5_element</text>
</a>
</g>
</g>
<!-- Node3&#45;&gt;Node8 -->
<g id="edge7_Node000003_Node000008" class="edge">
<title>Node3&#45;&gt;Node8</title>
<g id="a_edge7_Node000003_Node000008"><a xlink:title=" ">
<path fill="none" stroke="#63b8ff" d="M518.19,-442.76C535.99,-454.22 558.75,-471.26 573.75,-491.25 599.85,-526.05 577.24,-553.36 609.75,-582.25 616.34,-588.11 624.15,-592.62 632.42,-596.09"/>
<polygon fill="#63b8ff" stroke="#63b8ff" points="631.05,-599.31 641.64,-599.43 633.43,-592.73 631.05,-599.31"/>
</a>
</g>
</g>
<!-- Node9 -->
<g id="Node000009" class="node">
<title>Node9</title>
<g id="a_Node000009"><a xlink:href="class_big_data_stat_meth_1_1hdf5_group.html#a59995412538627e6c80f64b552c286f5" target="_top" xlink:title=" ">
<polygon fill="white" stroke="#666666" points="776.12,-475.5 634.12,-475.5 634.12,-445 776.12,-445 776.12,-475.5"/>
<text xml:space="preserve" text-anchor="start" x="642.12" y="-462" font-family="Helvetica,sans-Serif" font-size="10.00">BigDataStatMeth::hdf5Group</text>
<text xml:space="preserve" text-anchor="middle" x="705.12" y="-450.75" font-family="Helvetica,sans-Serif" font-size="10.00">::getGroupName</text>
</a>
</g>
</g>
<!-- Node3&#45;&gt;Node9 -->
<g id="edge9_Node000003_Node000009" class="edge">
<title>Node3&#45;&gt;Node9</title>
<g id="a_edge9_Node000003_Node000009"><a xlink:title=" ">
<path fill="none" stroke="#63b8ff" d="M565.78,-438.79C584.13,-441.64 603.87,-444.7 622.54,-447.59"/>
<polygon fill="#63b8ff" stroke="#63b8ff" points="621.77,-451.02 632.19,-449.09 622.85,-444.1 621.77,-451.02"/>
</a>
</g>
</g>
<!-- Node10 -->
<g id="Node000010" class="node">
<title>Node10</title>
<g id="a_Node000010"><a xlink:href="namespace_big_data_stat_meth.html#a3d06783149029f1df2853c472d401380" target="_top" xlink:title="Removes multiple elements from an HDF5 file.">
<polygon fill="white" stroke="#666666" points="769.75,-426.5 640.5,-426.5 640.5,-396 769.75,-396 769.75,-426.5"/>
<text xml:space="preserve" text-anchor="start" x="648.5" y="-413" font-family="Helvetica,sans-Serif" font-size="10.00">BigDataStatMeth::remove</text>
<text xml:space="preserve" text-anchor="middle" x="705.12" y="-401.75" font-family="Helvetica,sans-Serif" font-size="10.00">_elements</text>
</a>
</g>
</g>
<!-- Node3&#45;&gt;Node10 -->
<g id="edge10_Node000003_Node000010" class="edge">
<title>Node3&#45;&gt;Node10</title>
<g id="a_edge10_Node000003_Node000010"><a xlink:title=" ">
<path fill="none" stroke="#63b8ff" d="M565.78,-421.65C586.11,-420.13 608.16,-418.47 628.55,-416.93"/>
<polygon fill="#63b8ff" stroke="#63b8ff" points="628.79,-420.43 638.5,-416.19 628.27,-413.44 628.79,-420.43"/>
</a>
</g>
</g>
<!-- Node3&#45;&gt;Node11 -->
<g id="edge11_Node000003_Node000011" class="edge">
<title>Node3&#45;&gt;Node11</title>
<g id="a_edge11_Node000003_Node000011"><a xlink:title=" ">
<path fill="none" stroke="#63b8ff" d="M551.6,-411.64C559.53,-408.03 567.17,-403.62 573.75,-398.25 597.84,-378.59 584.89,-356.94 609.75,-338.25 612.89,-335.89 616.24,-333.75 619.73,-331.81"/>
<polygon fill="#63b8ff" stroke="#63b8ff" points="621.08,-335.05 628.54,-327.53 618.01,-328.75 621.08,-335.05"/>
</a>
</g>
</g>
<!-- Node7 -->
<g id="Node000007" class="node">
<title>Node7</title>
<g id="a_Node000007"><a xlink:href="namespace_big_data_stat_meth.html#abcaa4216cd52f03ebac42e4855ef846b" target="_top" xlink:title="Checks if a path exists in an HDF5 file.">
<polygon fill="white" stroke="#666666" points="993.88,-493.88 850.38,-493.88 850.38,-474.62 993.88,-474.62 993.88,-493.88"/>
<text xml:space="preserve" text-anchor="middle" x="922.12" y="-480.38" font-family="Helvetica,sans-Serif" font-size="10.00">BigDataStatMeth::pathExists</text>
</a>
</g>
</g>
<!-- Node6&#45;&gt;Node7 -->
<g id="edge6_Node000006_Node000007" class="edge">
<title>Node6&#45;&gt;Node7</title>
<g id="a_edge6_Node000006_Node000007"><a xlink:title=" ">
<path fill="none" stroke="#63b8ff" d="M776.41,-377.33C784.73,-380.14 792.94,-383.43 800.5,-387.25 841.6,-408.03 881.73,-444.46 903.77,-466.28"/>
<polygon fill="#63b8ff" stroke="#63b8ff" points="901.22,-468.67 910.74,-473.3 906.19,-463.74 901.22,-468.67"/>
</a>
</g>
</g>
<!-- Node8&#45;&gt;Node7 -->
<g id="edge8_Node000008_Node000007" class="edge">
<title>Node8&#45;&gt;Node7</title>
<g id="a_edge8_Node000008_Node000007"><a xlink:title=" ">
<path fill="none" stroke="#63b8ff" d="M766.94,-595.21C778.42,-591.81 790.08,-587.55 800.5,-582.25 841.72,-561.28 881.81,-524.47 903.81,-502.42"/>
<polygon fill="#63b8ff" stroke="#63b8ff" points="906.28,-504.9 910.77,-495.31 901.27,-500.01 906.28,-504.9"/>
</a>
</g>
</g>
<!-- Node12 -->
<g id="Node000012" class="node">
<title>Node12</title>
<g id="a_Node000012"><a xlink:href="class_big_data_stat_meth_1_1hdf5_dataset.html#aba39e56a580d3b1fa7f1619fc72efa3e" target="_top" xlink:title="Close dataset and file.">
<polygon fill="white" stroke="#666666" points="997.25,-665.5 847,-665.5 847,-635 997.25,-635 997.25,-665.5"/>
<text xml:space="preserve" text-anchor="start" x="855" y="-652" font-family="Helvetica,sans-Serif" font-size="10.00">BigDataStatMeth::hdf5Dataset</text>
<text xml:space="preserve" text-anchor="middle" x="922.12" y="-640.75" font-family="Helvetica,sans-Serif" font-size="10.00">::close_dataset_file</text>
</a>
</g>
</g>
<!-- Node11&#45;&gt;Node12 -->
<g id="edge12_Node000011_Node000012" class="edge">
<title>Node11&#45;&gt;Node12</title>
<g id="a_edge12_Node000011_Node000012"><a xlink:title=" ">
<path fill="none" stroke="#63b8ff" d="M780.65,-324.3C788.04,-327.82 794.88,-332.37 800.5,-338.25 852.39,-392.48 809.46,-433.23 836.5,-503.25 854.15,-548.96 884.61,-597.34 903.76,-625.62"/>
<polygon fill="#63b8ff" stroke="#63b8ff" points="900.63,-627.24 909.17,-633.5 906.4,-623.28 900.63,-627.24"/>
</a>
</g>
</g>
<!-- Node13 -->
<g id="Node000013" class="node">
<title>Node13</title>
<g id="a_Node000013"><a xlink:href="class_big_data_stat_meth_1_1hdf5_dataset.html#a94d81b72e92cb0230b4e64f37ea7d2e3" target="_top" xlink:title="Convert DataFrame to range list.">
<polygon fill="white" stroke="#666666" points="1007.75,-334.5 836.5,-334.5 836.5,-304 1007.75,-304 1007.75,-334.5"/>
<text xml:space="preserve" text-anchor="start" x="844.5" y="-321" font-family="Helvetica,sans-Serif" font-size="10.00">BigDataStatMeth::hdf5Dataset</text>
<text xml:space="preserve" text-anchor="middle" x="922.12" y="-309.75" font-family="Helvetica,sans-Serif" font-size="10.00">::convert_DataFrame_to_RangeList</text>
</a>
</g>
</g>
<!-- Node11&#45;&gt;Node13 -->
<g id="edge13_Node000011_Node000013" class="edge">
<title>Node11&#45;&gt;Node13</title>
<g id="a_edge13_Node000011_Node000013"><a xlink:title=" ">
<path fill="none" stroke="#63b8ff" d="M780.72,-315.33C795.02,-315.73 810.19,-316.15 825.06,-316.57"/>
<polygon fill="#63b8ff" stroke="#63b8ff" points="824.74,-320.06 834.84,-316.84 824.94,-313.06 824.74,-320.06"/>
</a>
</g>
</g>
<!-- Node17&#45;&gt;Node5 -->
<g id="edge18_Node000017_Node000005" class="edge">
<title>Node17&#45;&gt;Node5</title>
<g id="a_edge18_Node000017_Node000005"><a xlink:title=" ">
<path fill="none" stroke="#63b8ff" d="M368.48,-558.25C441.87,-558.25 553.67,-558.25 627.79,-558.25"/>
<polygon fill="#63b8ff" stroke="#63b8ff" points="627.38,-561.75 637.38,-558.25 627.38,-554.75 627.38,-561.75"/>
</a>
</g>
</g>
<!-- Node17&#45;&gt;Node8 -->
<g id="edge19_Node000017_Node000008" class="edge">
<title>Node17&#45;&gt;Node8</title>
<g id="a_edge19_Node000017_Node000008"><a xlink:title=" ">
<path fill="none" stroke="#63b8ff" d="M368.84,-567.58C381.57,-569.15 394.66,-570.76 407,-572.25 483.78,-581.54 571.77,-591.86 631.94,-598.88"/>
<polygon fill="#63b8ff" stroke="#63b8ff" points="631.38,-602.33 641.72,-600.01 632.19,-595.38 631.38,-602.33"/>
</a>
</g>
</g>
<!-- Node18 -->
<g id="Node000018" class="node">
<title>Node18</title>
<g id="a_Node000018"><a xlink:href="class_big_data_stat_meth_1_1hdf5_dataset.html#a1ebc27e1f730bc4e611b844dbbb08e34" target="_top" xlink:title="Get an attribute from the dataset.">
<polygon fill="white" stroke="#666666" points="565.5,-654.5 415.25,-654.5 415.25,-624 565.5,-624 565.5,-654.5"/>
<text xml:space="preserve" text-anchor="start" x="423.25" y="-641" font-family="Helvetica,sans-Serif" font-size="10.00">BigDataStatMeth::hdf5Dataset</text>
<text xml:space="preserve" text-anchor="middle" x="490.38" y="-629.75" font-family="Helvetica,sans-Serif" font-size="10.00">::getAttribute</text>
</a>
</g>
</g>
<!-- Node17&#45;&gt;Node18 -->
<g id="edge20_Node000017_Node000018" class="edge">
<title>Node17&#45;&gt;Node18</title>
<g id="a_edge20_Node000017_Node000018"><a xlink:title=" ">
<path fill="none" stroke="#63b8ff" d="M325.98,-573.85C348.38,-584.63 379.23,-598.99 407,-610.25 414.91,-613.46 423.33,-616.66 431.65,-619.7"/>
<polygon fill="#63b8ff" stroke="#63b8ff" points="430.46,-622.99 441.05,-623.08 432.83,-616.4 430.46,-622.99"/>
</a>
</g>
</g>
<!-- Node19 -->
<g id="Node000019" class="node">
<title>Node19</title>
<g id="a_Node000019"><a xlink:href="class_big_data_stat_meth_1_1hdf5_dataset.html#a945dd1d6f3db102a962d239045792f61" target="_top" xlink:title="Get dimensions of existing dataset.">
<polygon fill="white" stroke="#666666" points="565.5,-530.5 415.25,-530.5 415.25,-500 565.5,-500 565.5,-530.5"/>
<text xml:space="preserve" text-anchor="start" x="423.25" y="-517" font-family="Helvetica,sans-Serif" font-size="10.00">BigDataStatMeth::hdf5Dataset</text>
<text xml:space="preserve" text-anchor="middle" x="490.38" y="-505.75" font-family="Helvetica,sans-Serif" font-size="10.00">::getDimensExistingDataset</text>
</a>
</g>
</g>
<!-- Node17&#45;&gt;Node19 -->
<g id="edge23_Node000017_Node000019" class="edge">
<title>Node17&#45;&gt;Node19</title>
<g id="a_edge23_Node000017_Node000019"><a xlink:title=" ">
<path fill="none" stroke="#63b8ff" d="M365.52,-542.54C379.01,-539.57 393.22,-536.44 407.02,-533.4"/>
<polygon fill="#63b8ff" stroke="#63b8ff" points="407.48,-536.88 416.49,-531.31 405.97,-530.05 407.48,-536.88"/>
</a>
</g>
</g>
<!-- Node18&#45;&gt;Node8 -->
<g id="edge22_Node000018_Node000008" class="edge">
<title>Node18&#45;&gt;Node8</title>
<g id="a_edge22_Node000018_Node000008"><a xlink:title=" ">
<path fill="none" stroke="#63b8ff" d="M565.78,-628.06C587.22,-624.83 610.56,-621.32 631.86,-618.12"/>
<polygon fill="#63b8ff" stroke="#63b8ff" points="632.25,-621.6 641.62,-616.65 631.21,-614.68 632.25,-621.6"/>
</a>
</g>
</g>
<!-- Node18&#45;&gt;Node12 -->
<g id="edge21_Node000018_Node000012" class="edge">
<title>Node18&#45;&gt;Node12</title>
<g id="a_edge21_Node000018_Node000012"><a xlink:title=" ">
<path fill="none" stroke="#63b8ff" d="M565.74,-641.15C640.73,-643.07 756.38,-646.03 835.23,-648.05"/>
<polygon fill="#63b8ff" stroke="#63b8ff" points="834.99,-651.55 845.08,-648.3 835.17,-644.55 834.99,-651.55"/>
</a>
</g>
</g>
<!-- Node20&#45;&gt;Node2 -->
<g id="edge25_Node000020_Node000002" class="edge">
<title>Node20&#45;&gt;Node2</title>
<g id="a_edge25_Node000020_Node000002"><a xlink:title=" ">
<path fill="none" stroke="#63b8ff" d="M349.9,-306.94C379.21,-315.2 414.74,-325.21 442.61,-333.07"/>
<polygon fill="#63b8ff" stroke="#63b8ff" points="441.62,-336.43 452.2,-335.77 443.52,-329.69 441.62,-336.43"/>
</a>
</g>
</g>
<!-- Node20&#45;&gt;Node3 -->
<g id="edge26_Node000020_Node000003" class="edge">
<title>Node20&#45;&gt;Node3</title>
<g id="a_edge26_Node000020_Node000003"><a xlink:title=" ">
<path fill="none" stroke="#63b8ff" d="M316.63,-306.85C351.39,-331.07 418.43,-377.8 458,-405.38"/>
<polygon fill="#63b8ff" stroke="#63b8ff" points="455.51,-407.91 465.71,-410.76 459.51,-402.17 455.51,-407.91"/>
</a>
</g>
</g>
<!-- Node20&#45;&gt;Node11 -->
<g id="edge37_Node000020_Node000011" class="edge">
<title>Node20&#45;&gt;Node11</title>
<g id="a_edge37_Node000020_Node000011"><a xlink:title=" ">
<path fill="none" stroke="#63b8ff" d="M371.34,-295.39C441.67,-299.16 545.44,-304.73 618.37,-308.65"/>
<polygon fill="#63b8ff" stroke="#63b8ff" points="618.11,-312.14 628.28,-309.18 618.48,-305.15 618.11,-312.14"/>
</a>
</g>
</g>
<!-- Node20&#45;&gt;Node21 -->
<g id="edge27_Node000020_Node000021" class="edge">
<title>Node20&#45;&gt;Node21</title>
<g id="a_edge27_Node000020_Node000021"><a xlink:title=" ">
<path fill="none" stroke="#63b8ff" d="M342.23,-275.51C369.05,-266.72 402.67,-255.69 431,-246.4"/>
<polygon fill="#63b8ff" stroke="#63b8ff" points="431.73,-249.84 440.14,-243.4 429.55,-243.19 431.73,-249.84"/>
</a>
</g>
</g>
<!-- Node25 -->
<g id="Node000025" class="node">
<title>Node25</title>
<g id="a_Node000025"><a xlink:href="namespace_big_data_stat_meth.html#a1cd3f5cf856a0d1bff9e1cf956f368fd" target="_top" xlink:title="Template function for normalizing data with pre&#45;computed statistics.">
<polygon fill="white" stroke="#666666" points="800.5,-279.88 609.75,-279.88 609.75,-260.62 800.5,-260.62 800.5,-279.88"/>
<text xml:space="preserve" text-anchor="middle" x="705.12" y="-266.38" font-family="Helvetica,sans-Serif" font-size="10.00">BigDataStatMeth::RcppNormalize_Data</text>
</a>
</g>
</g>
<!-- Node20&#45;&gt;Node25 -->
<g id="edge35_Node000020_Node000025" class="edge">
<title>Node20&#45;&gt;Node25</title>
<g id="a_edge35_Node000020_Node000025"><a xlink:title=" ">
<path fill="none" stroke="#63b8ff" d="M371.34,-287.3C435.4,-284.02 527.2,-279.31 598.16,-275.68"/>
<polygon fill="#63b8ff" stroke="#63b8ff" points="598.04,-279.19 607.85,-275.18 597.69,-272.2 598.04,-279.19"/>
</a>
</g>
</g>
<!-- Node20&#45;&gt;Node28 -->
<g id="edge36_Node000020_Node000028" class="edge">
<title>Node20&#45;&gt;Node28</title>
<g id="a_edge36_Node000020_Node000028"><a xlink:title=" ">
<path fill="none" stroke="#63b8ff" d="M309.61,-275.82C330.08,-256.13 368.24,-222.34 407,-203.25 475.66,-169.44 511.54,-204.83 573.75,-160.25 597.5,-143.23 586.06,-122.35 609.75,-105.25 615.52,-101.08 621.94,-97.61 628.64,-94.72"/>
<polygon fill="#63b8ff" stroke="#63b8ff" points="629.83,-98.01 637.93,-91.17 627.34,-91.47 629.83,-98.01"/>
</a>
</g>
</g>
<!-- Node22 -->
<g id="Node000022" class="node">
<title>Node22</title>
<g id="a_Node000022"><a xlink:href="namespace_big_data_stat_meth.html#a5fd46170e425b1ced11e76acc7b84500" target="_top" xlink:title="Convert &#39;which&#39; string to Spectra SortRule for general matrices.">
<polygon fill="white" stroke="#666666" points="777.25,-193.5 633,-193.5 633,-163 777.25,-163 777.25,-193.5"/>
<text xml:space="preserve" text-anchor="start" x="641" y="-180" font-family="Helvetica,sans-Serif" font-size="10.00">BigDataStatMeth::getGeneral</text>
<text xml:space="preserve" text-anchor="middle" x="705.12" y="-168.75" font-family="Helvetica,sans-Serif" font-size="10.00">SortRule</text>
</a>
</g>
</g>
<!-- Node21&#45;&gt;Node22 -->
<g id="edge28_Node000021_Node000022" class="edge">
<title>Node21&#45;&gt;Node22</title>
<g id="a_edge28_Node000021_Node000022"><a xlink:title=" ">
<path fill="none" stroke="#63b8ff" d="M559.57,-211.54C580.37,-206.75 603.42,-201.44 624.89,-196.5"/>
<polygon fill="#63b8ff" stroke="#63b8ff" points="625.52,-199.95 634.48,-194.29 623.95,-193.12 625.52,-199.95"/>
</a>
</g>
</g>
<!-- Node23 -->
<g id="Node000023" class="node">
<title>Node23</title>
<g id="a_Node000023"><a xlink:href="namespace_big_data_stat_meth.html#af5dbdeb2f9d2e495e161b05ff5d7f6f1" target="_top" xlink:title="Convert &#39;which&#39; string to Spectra SortRule for symmetric matrices.">
<polygon fill="white" stroke="#666666" points="784,-144.5 626.25,-144.5 626.25,-114 784,-114 784,-144.5"/>
<text xml:space="preserve" text-anchor="start" x="634.25" y="-131" font-family="Helvetica,sans-Serif" font-size="10.00">BigDataStatMeth::getSymmetric</text>
<text xml:space="preserve" text-anchor="middle" x="705.12" y="-119.75" font-family="Helvetica,sans-Serif" font-size="10.00">SortRule</text>
</a>
</g>
</g>
<!-- Node21&#45;&gt;Node23 -->
<g id="edge29_Node000021_Node000023" class="edge">
<title>Node21&#45;&gt;Node23</title>
<g id="a_edge29_Node000021_Node000023"><a xlink:title=" ">
<path fill="none" stroke="#63b8ff" d="M548.77,-211.65C557.54,-207.99 566.18,-203.56 573.75,-198.25 594.43,-183.74 588.51,-167.93 609.75,-154.25 612.18,-152.68 614.71,-151.22 617.31,-149.84"/>
<polygon fill="#63b8ff" stroke="#63b8ff" points="618.71,-153.05 626.27,-145.62 615.73,-146.72 618.71,-153.05"/>
</a>
</g>
</g>
<!-- Node24 -->
<g id="Node000024" class="node">
<title>Node24</title>
<g id="a_Node000024"><a xlink:href="namespace_big_data_stat_meth.html#a45e2b926781664ca98be48c1bce0379c" target="_top" xlink:title="Improved matrix symmetry detection for big&#45;omics data.">
<polygon fill="white" stroke="#666666" points="770.88,-242.5 639.38,-242.5 639.38,-212 770.88,-212 770.88,-242.5"/>
<text xml:space="preserve" text-anchor="start" x="647.38" y="-229" font-family="Helvetica,sans-Serif" font-size="10.00">BigDataStatMeth::isMatrix</text>
<text xml:space="preserve" text-anchor="middle" x="705.12" y="-217.75" font-family="Helvetica,sans-Serif" font-size="10.00">Symmetric</text>
</a>
</g>
</g>
<!-- Node21&#45;&gt;Node24 -->
<g id="edge30_Node000021_Node000024" class="edge">
<title>Node21&#45;&gt;Node24</title>
<g id="a_edge30_Node000021_Node000024"><a xlink:title=" ">
<path fill="none" stroke="#63b8ff" d="M568.48,-227.25C587.78,-227.25 608.46,-227.25 627.72,-227.25"/>
<polygon fill="#63b8ff" stroke="#63b8ff" points="627.68,-230.75 637.68,-227.25 627.68,-223.75 627.68,-230.75"/>
</a>
</g>
</g>
<!-- Node21&#45;&gt;Node25 -->
<g id="edge31_Node000021_Node000025" class="edge">
<title>Node21&#45;&gt;Node25</title>
<g id="a_edge31_Node000021_Node000025"><a xlink:title=" ">
<path fill="none" stroke="#63b8ff" d="M568.42,-242.89C582.18,-245.68 596.39,-248.55 609.75,-251.25 620.56,-253.43 632.07,-255.76 643.2,-258"/>
<polygon fill="#63b8ff" stroke="#63b8ff" points="642.19,-261.36 652.68,-259.91 643.57,-254.5 642.19,-261.36"/>
</a>
</g>
</g>
<!-- Node21&#45;&gt;Node28 -->
<g id="edge34_Node000021_Node000028" class="edge">
<title>Node21&#45;&gt;Node28</title>
<g id="a_edge34_Node000021_Node000028"><a xlink:title=" ">
<path fill="none" stroke="#63b8ff" d="M554.57,-211.6C561.59,-208.02 568.2,-203.63 573.75,-198.25 605.57,-167.4 576.73,-134.81 609.75,-105.25 615.43,-100.16 622.04,-96.09 629.06,-92.83"/>
<polygon fill="#63b8ff" stroke="#63b8ff" points="630.2,-96.15 638.19,-89.18 627.6,-89.65 630.2,-96.15"/>
</a>
</g>
</g>
<!-- Node26 -->
<g id="Node000026" class="node">
<title>Node26</title>
<g id="a_Node000026"><a xlink:href="namespace_big_data_stat_meth.html#aaac3a1d91c92fdf91f7bbc256672b68e" target="_top" xlink:title="Column&#45;wise normalization with pre&#45;computed statistics.">
<polygon fill="white" stroke="#666666" points="1004.38,-236.5 839.88,-236.5 839.88,-206 1004.38,-206 1004.38,-236.5"/>
<text xml:space="preserve" text-anchor="start" x="847.88" y="-223" font-family="Helvetica,sans-Serif" font-size="10.00">BigDataStatMeth::RcppNormalize</text>
<text xml:space="preserve" text-anchor="middle" x="922.12" y="-211.75" font-family="Helvetica,sans-Serif" font-size="10.00">Colwise</text>
</a>
</g>
</g>
<!-- Node25&#45;&gt;Node26 -->
<g id="edge32_Node000025_Node000026" class="edge">
<title>Node25&#45;&gt;Node26</title>
<g id="a_edge32_Node000025_Node000026"><a xlink:title=" ">
<path fill="none" stroke="#63b8ff" d="M758.14,-260.22C771.93,-257.43 786.8,-254.33 800.5,-251.25 816.32,-247.69 833.25,-243.64 849.27,-239.68"/>
<polygon fill="#63b8ff" stroke="#63b8ff" points="849.87,-243.14 858.73,-237.34 848.18,-236.35 849.87,-243.14"/>
</a>
</g>
</g>
<!-- Node27 -->
<g id="Node000027" class="node">
<title>Node27</title>
<g id="a_Node000027"><a xlink:href="namespace_big_data_stat_meth.html#a44b65a910276a5b61d0c3877b810eaeb" target="_top" xlink:title=" ">
<polygon fill="white" stroke="#666666" points="1004.38,-285.5 839.88,-285.5 839.88,-255 1004.38,-255 1004.38,-285.5"/>
<text xml:space="preserve" text-anchor="start" x="847.88" y="-272" font-family="Helvetica,sans-Serif" font-size="10.00">BigDataStatMeth::RcppNormalize</text>
<text xml:space="preserve" text-anchor="middle" x="922.12" y="-260.75" font-family="Helvetica,sans-Serif" font-size="10.00">Rowwise</text>
</a>
</g>
</g>
<!-- Node25&#45;&gt;Node27 -->
<g id="edge33_Node000025_Node000027" class="edge">
<title>Node25&#45;&gt;Node27</title>
<g id="a_edge33_Node000025_Node000027"><a xlink:title=" ">
<path fill="none" stroke="#63b8ff" d="M800.74,-270.25C809.85,-270.25 819.08,-270.25 828.18,-270.25"/>
<polygon fill="#63b8ff" stroke="#63b8ff" points="828.09,-273.75 838.09,-270.25 828.09,-266.75 828.09,-273.75"/>
</a>
</g>
</g>
<!-- Node29&#45;&gt;Node12 -->
<g id="edge40_Node000029_Node000012" class="edge">
<title>Node29&#45;&gt;Node12</title>
<g id="a_edge40_Node000029_Node000012"><a xlink:title=" ">
<path fill="none" stroke="#63b8ff" d="M565.74,-681.67C640.73,-675.04 756.38,-664.82 835.23,-657.84"/>
<polygon fill="#63b8ff" stroke="#63b8ff" points="835.43,-661.34 845.08,-656.97 834.81,-654.37 835.43,-661.34"/>
</a>
</g>
</g>
</g>
</svg>

<g id="navigator" transform="translate(0 0)" fill="#404254">
  <rect fill="#f2f5e9" fill-opacity="0.5" stroke="#606060" stroke-width=".5" x="0" y="0" width="60" height="60"/>
  <use id="zoomplus" xlink:href="#zoomPlus" x="17" y="9" onmousedown="handleZoom(evt,'in')"/>
  <use id="zoomminus" xlink:href="#zoomMin" x="42" y="9" onmousedown="handleZoom(evt,'out')"/>
  <use id="reset" xlink:href="#resetDef" x="30" y="36" onmousedown="handleReset()"/>
   <use id="arrowup" xlink:href="#arrowUp" x="0" y="0" onmousedown="handlePan(0,-1)"/>
  <use id="arrowright" xlink:href="#arrowRight" x="0" y="0" onmousedown="handlePan(1,0)"/>
  <use id="arrowdown" xlink:href="#arrowDown" x="0" y="0" onmousedown="handlePan(0,1)"/>
  <use id="arrowleft" xlink:href="#arrowLeft" x="0" y="0" onmousedown="handlePan(-1,0)"/>
</g>
<svg viewBox="0 0 15 15" width="100%" height="30px" preserveAspectRatio="xMaxYMin meet">
 <g id="arrow_out" transform="scale(0.3 0.3)">
  <a xlink:href="namespace_big_data_stat_meth_a05652afd0a5a4a4afcda52b3d3bd2cc0_cgraph_org.svg" target="_base">
   <rect id="button" ry="5" rx="5" y="6" x="6" height="38" width="38"
        fill="#f2f5e9" fill-opacity="0.5" stroke="#606060" stroke-width="1.0"/>
   <path id="arrow"
     d="M 11.500037,31.436501 C 11.940474,20.09759 22.043105,11.32322 32.158766,21.979434 L 37.068811,17.246167 C 37.068811,17.246167 37.088388,32 37.088388,32 L 22.160133,31.978069 C 22.160133,31.978069 26.997745,27.140456 26.997745,27.140456 C 18.528582,18.264221 13.291696,25.230495 11.500037,31.436501 z"
     style="fill:#404040;"/>
  </a>
 </g>
</svg>

<style type='text/css'>
<![CDATA[
[data-mouse-over-selected='false'] { opacity: 0.7; }
[data-mouse-over-selected='true']  { opacity: 1.0; }
]]>
</style>
<script type="application/ecmascript"><![CDATA[
document.addEventListener('DOMContentLoaded', (event) => {
  highlightEdges();
  highlightAdjacentNodes();
});
]]></script>
</svg>
