<?xml version="1.0" encoding="UTF-8" standalone="no"?>
<!DOCTYPE svg PUBLIC "-//W3C//DTD SVG 1.1//EN"
 "http://www.w3.org/Graphics/SVG/1.1/DTD/svg11.dtd">
<!-- Generated by graphviz version 14.0.0 (20250921.2048)
 -->
<!-- Title: BigDataStatMeth::Inverse_of_Cholesky_decomposition_intermediate_hdf5 Pages: 1 -->
<!--zoomable 257 -->

<svg id="main" version="1.1" xmlns="http://www.w3.org/2000/svg" xmlns:xlink="http://www.w3.org/1999/xlink" xml:space="preserve" onload="init(evt)">

<style type="text/css"><![CDATA[
.node, .edge {opacity: 0.7;}
.node.selected, .edge.selected {opacity: 1;}
.edge:hover path { stroke: red; }
.edge:hover polygon { stroke: red; fill: red; }
]]></style>

<defs>
  <circle id="rim" cx="0" cy="0" r="7"/>
  <circle id="rim2" cx="0" cy="0" r="3.5"/>
  <g id="zoomPlus">
    <use xlink:href="#rim" fill="#404040"><set attributeName="fill" to="#808080" begin="zoomplus.mouseover" end="zoomplus.mouseout"/></use>
    <path d="M-4,0h8M0,-4v8" fill="none" stroke="white" stroke-width="1.5" pointer-events="none"/>
  </g>
  <g id="zoomMin">
    <use xlink:href="#rim" fill="#404040"><set attributeName="fill" to="#808080" begin="zoomminus.mouseover" end="zoomminus.mouseout"/></use>
    <path d="M-4,0h8" fill="none" stroke="white" stroke-width="1.5" pointer-events="none"/>
  </g>
  <g id="arrowUp" transform="translate(30 24)">
    <use xlink:href="#rim"/>
    <path pointer-events="none" fill="none" stroke="white" stroke-width="1.5" d="M0,-3.0v7 M-2.5,-0.5L0,-3.0L2.5,-0.5"/>
  </g>
  <g id="arrowRight" transform="rotate(90) translate(36 -43)">
    <use xlink:href="#rim"/>
    <path pointer-events="none" fill="none" stroke="white" stroke-width="1.5" d="M0,-3.0v7 M-2.5,-0.5L0,-3.0L2.5,-0.5"/>
  </g>
  <g id="arrowDown" transform="rotate(180) translate(-30 -48)">
    <use xlink:href="#rim"/>
    <path pointer-events="none" fill="none" stroke="white" stroke-width="1.5" d="M0,-3.0v7 M-2.5,-0.5L0,-3.0L2.5,-0.5"/>
  </g>
  <g id="arrowLeft" transform="rotate(270) translate(-36 17)">
    <use xlink:href="#rim"/>
    <path pointer-events="none" fill="none" stroke="white" stroke-width="1.5" d="M0,-3.0v7 M-2.5,-0.5L0,-3.0L2.5,-0.5"/>
  </g>
  <g id="resetDef">
    <use xlink:href="#rim2" fill="#404040"><set attributeName="fill" to="#808080" begin="reset.mouseover" end="reset.mouseout"/></use>
  </g>
</defs>
<script type="application/ecmascript">
var viewWidth = 750;
var viewHeight = 257;
var sectionId = 'dynsection-67';
</script>
<script type="application/ecmascript" xlink:href="../../../../assets/svg.min.js"/>
<svg id="graph" class="graph">
<g id="viewport">
<title>BigDataStatMeth::Inverse_of_Cholesky_decomposition_intermediate_hdf5</title>
<!-- Node1 -->
<g id="Node000001" class="node">
<title>Node1</title>
<g id="a_Node000001"><a xlink:title="Computes inverse of Cholesky factor in&#45;place.">
<polygon fill="#999999" stroke="#666666" points="144.25,-152.12 0,-152.12 0,-110.38 144.25,-110.38 144.25,-152.12"/>
<text xml:space="preserve" text-anchor="start" x="8" y="-138.62" font-family="Helvetica,sans-Serif" font-size="10.00">BigDataStatMeth::Inverse</text>
<text xml:space="preserve" text-anchor="start" x="8" y="-127.38" font-family="Helvetica,sans-Serif" font-size="10.00">_of_Cholesky_decomposition</text>
<text xml:space="preserve" text-anchor="middle" x="72.12" y="-116.12" font-family="Helvetica,sans-Serif" font-size="10.00">_intermediate_hdf5</text>
</a>
</g>
</g>
<!-- Node2 -->
<g id="Node000002" class="node">
<title>Node2</title>
<g id="a_Node000002"><a xlink:href="namespace_big_data_stat_meth.html#a304b42b14ec87d4acc6f34ff0231529d" target="_top" xlink:title="Safely close any number of dataset handles (C++17).">
<polygon fill="white" stroke="#666666" points="347.75,-248.88 181,-248.88 181,-229.62 347.75,-229.62 347.75,-248.88"/>
<text xml:space="preserve" text-anchor="middle" x="264.38" y="-235.38" font-family="Helvetica,sans-Serif" font-size="10.00">BigDataStatMeth::checkClose_file</text>
</a>
</g>
</g>
<!-- Node1&#45;&gt;Node2 -->
<g id="edge1_Node000001_Node000002" class="edge">
<title>Node1&#45;&gt;Node2</title>
<g id="a_edge1_Node000001_Node000002"><a xlink:title=" ">
<path fill="none" stroke="#63b8ff" d="M92.76,-152.56C112.81,-173.01 145.78,-203.22 180.25,-220.25 184.24,-222.22 188.44,-223.99 192.75,-225.58"/>
<polygon fill="#63b8ff" stroke="#63b8ff" points="191.58,-228.88 202.17,-228.7 193.78,-222.24 191.58,-228.88"/>
</a>
</g>
</g>
<!-- Node3 -->
<g id="Node000003" class="node">
<title>Node3</title>
<g id="a_Node000003"><a xlink:href="namespace_big_data_stat_meth.html#aa11cdd9bdca5cff2819a45c2900506c7" target="_top" xlink:title="Extracts the diagonal elements from a matrix stored in HDF5 format.">
<polygon fill="white" stroke="#666666" points="348.5,-211.5 180.25,-211.5 180.25,-181 348.5,-181 348.5,-211.5"/>
<text xml:space="preserve" text-anchor="start" x="188.25" y="-198" font-family="Helvetica,sans-Serif" font-size="10.00">BigDataStatMeth::getDiagonalfrom</text>
<text xml:space="preserve" text-anchor="middle" x="264.38" y="-186.75" font-family="Helvetica,sans-Serif" font-size="10.00">Matrix</text>
</a>
</g>
</g>
<!-- Node1&#45;&gt;Node3 -->
<g id="edge2_Node000001_Node000003" class="edge">
<title>Node1&#45;&gt;Node3</title>
<g id="a_edge2_Node000001_Node000003"><a xlink:title=" ">
<path fill="none" stroke="#63b8ff" d="M135.68,-152.62C158.58,-160.45 184.34,-169.25 206.69,-176.88"/>
<polygon fill="#63b8ff" stroke="#63b8ff" points="205.34,-180.12 215.93,-180.04 207.6,-173.5 205.34,-180.12"/>
</a>
</g>
</g>
<!-- Node5 -->
<g id="Node000005" class="node">
<title>Node5</title>
<g id="a_Node000005"><a xlink:href="class_big_data_stat_meth_1_1hdf5_dataset.html#a23bea87165b8ef6b944709c5b2cbd0cf" target="_top" xlink:title=" ">
<polygon fill="white" stroke="#666666" points="534.75,-165.5 384.5,-165.5 384.5,-135 534.75,-135 534.75,-165.5"/>
<text xml:space="preserve" text-anchor="start" x="392.5" y="-152" font-family="Helvetica,sans-Serif" font-size="10.00">BigDataStatMeth::hdf5Dataset</text>
<text xml:space="preserve" text-anchor="middle" x="459.62" y="-140.75" font-family="Helvetica,sans-Serif" font-size="10.00">::readDatasetBlock</text>
</a>
</g>
</g>
<!-- Node1&#45;&gt;Node5 -->
<g id="edge8_Node000001_Node000005" class="edge">
<title>Node1&#45;&gt;Node5</title>
<g id="a_edge8_Node000001_Node000005"><a xlink:title=" ">
<path fill="none" stroke="#63b8ff" d="M144.73,-134.78C209.29,-137.96 304.34,-142.65 372.92,-146.03"/>
<polygon fill="#63b8ff" stroke="#63b8ff" points="372.44,-149.51 382.6,-146.5 372.79,-142.52 372.44,-149.51"/>
</a>
</g>
</g>
<!-- Node7 -->
<g id="Node000007" class="node">
<title>Node7</title>
<g id="a_Node000007"><a xlink:href="namespace_big_data_stat_meth.html#abcd544ed5db12dd03f79bca0a8f31ca5" target="_top" xlink:title="Calculates optimal block size for memory&#45;efficient matrix operations.">
<polygon fill="white" stroke="#666666" points="336.5,-39.5 192.25,-39.5 192.25,-9 336.5,-9 336.5,-39.5"/>
<text xml:space="preserve" text-anchor="start" x="200.25" y="-26" font-family="Helvetica,sans-Serif" font-size="10.00">BigDataStatMeth::getOptimal</text>
<text xml:space="preserve" text-anchor="middle" x="264.38" y="-14.75" font-family="Helvetica,sans-Serif" font-size="10.00">BlockElements</text>
</a>
</g>
</g>
<!-- Node1&#45;&gt;Node7 -->
<g id="edge6_Node000001_Node000007" class="edge">
<title>Node1&#45;&gt;Node7</title>
<g id="a_edge6_Node000001_Node000007"><a xlink:title=" ">
<path fill="none" stroke="#63b8ff" d="M97.71,-110.1C118.58,-92.97 149.88,-69.16 180.25,-53.25 186.71,-49.87 193.65,-46.74 200.66,-43.89"/>
<polygon fill="#63b8ff" stroke="#63b8ff" points="201.47,-47.32 209.53,-40.45 198.95,-40.8 201.47,-47.32"/>
</a>
</g>
</g>
<!-- Node9 -->
<g id="Node000009" class="node">
<title>Node9</title>
<g id="a_Node000009"><a xlink:href="namespace_big_data_stat_meth.html#ab5429d9d25ff38d72d77e6dca59947b0" target="_top" xlink:title="Sets the diagonal elements of a matrix stored in HDF5 format.">
<polygon fill="white" stroke="#666666" points="338.75,-125.5 190,-125.5 190,-95 338.75,-95 338.75,-125.5"/>
<text xml:space="preserve" text-anchor="start" x="198" y="-112" font-family="Helvetica,sans-Serif" font-size="10.00">BigDataStatMeth::setDiagonal</text>
<text xml:space="preserve" text-anchor="middle" x="264.38" y="-100.75" font-family="Helvetica,sans-Serif" font-size="10.00">Matrix</text>
</a>
</g>
</g>
<!-- Node1&#45;&gt;Node9 -->
<g id="edge9_Node000001_Node000009" class="edge">
<title>Node1&#45;&gt;Node9</title>
<g id="a_edge9_Node000001_Node000009"><a xlink:title=" ">
<path fill="none" stroke="#63b8ff" d="M144.51,-123.37C155.58,-122.15 167.11,-120.88 178.44,-119.62"/>
<polygon fill="#63b8ff" stroke="#63b8ff" points="178.63,-123.13 188.18,-118.55 177.86,-116.17 178.63,-123.13"/>
</a>
</g>
</g>
<!-- Node10 -->
<g id="Node000010" class="node">
<title>Node10</title>
<g id="a_Node000010"><a xlink:href="class_big_data_stat_meth_1_1hdf5_dataset.html#af606176d84a63561b65702b6fde3a583" target="_top" xlink:title="Write block of data with optional transposition.">
<polygon fill="white" stroke="#666666" points="534.75,-103.5 384.5,-103.5 384.5,-73 534.75,-73 534.75,-103.5"/>
<text xml:space="preserve" text-anchor="start" x="392.5" y="-90" font-family="Helvetica,sans-Serif" font-size="10.00">BigDataStatMeth::hdf5Dataset</text>
<text xml:space="preserve" text-anchor="middle" x="459.62" y="-78.75" font-family="Helvetica,sans-Serif" font-size="10.00">::writeDatasetBlock</text>
</a>
</g>
</g>
<!-- Node1&#45;&gt;Node10 -->
<g id="edge16_Node000001_Node000010" class="edge">
<title>Node1&#45;&gt;Node10</title>
<g id="a_edge16_Node000001_Node000010"><a xlink:title=" ">
<path fill="none" stroke="#63b8ff" d="M113.11,-109.98C132.75,-100.71 157.11,-90.91 180.25,-86.25 243.97,-73.41 317.56,-74.61 373.07,-78.65"/>
<polygon fill="#63b8ff" stroke="#63b8ff" points="372.53,-82.12 382.77,-79.4 373.07,-75.14 372.53,-82.12"/>
</a>
</g>
</g>
<!-- Node4 -->
<g id="Node000004" class="node">
<title>Node4</title>
<g id="a_Node000004"><a xlink:href="class_big_data_stat_meth_1_1hdf5_dataset.html#a6cbce676967d0cc4b50e2cc5282c322b" target="_top" xlink:title="Get number of rows in internal format.">
<polygon fill="white" stroke="#666666" points="534.75,-214.5 384.5,-214.5 384.5,-184 534.75,-184 534.75,-214.5"/>
<text xml:space="preserve" text-anchor="start" x="392.5" y="-201" font-family="Helvetica,sans-Serif" font-size="10.00">BigDataStatMeth::hdf5Dataset</text>
<text xml:space="preserve" text-anchor="middle" x="459.62" y="-189.75" font-family="Helvetica,sans-Serif" font-size="10.00">::nrows</text>
</a>
</g>
</g>
<!-- Node3&#45;&gt;Node4 -->
<g id="edge3_Node000003_Node000004" class="edge">
<title>Node3&#45;&gt;Node4</title>
<g id="a_edge3_Node000003_Node000004"><a xlink:title=" ">
<path fill="none" stroke="#63b8ff" d="M348.73,-197.54C356.63,-197.67 364.64,-197.79 372.56,-197.91"/>
<polygon fill="#63b8ff" stroke="#63b8ff" points="372.5,-201.41 382.55,-198.07 372.61,-194.41 372.5,-201.41"/>
</a>
</g>
</g>
<!-- Node3&#45;&gt;Node5 -->
<g id="edge4_Node000003_Node000005" class="edge">
<title>Node3&#45;&gt;Node5</title>
<g id="a_edge4_Node000003_Node000005"><a xlink:title=" ">
<path fill="none" stroke="#63b8ff" d="M331.34,-180.55C347.57,-176.68 365.1,-172.51 381.8,-168.54"/>
<polygon fill="#63b8ff" stroke="#63b8ff" points="382.24,-172.03 391.16,-166.31 380.62,-165.22 382.24,-172.03"/>
</a>
</g>
</g>
<!-- Node6 -->
<g id="Node000006" class="node">
<title>Node6</title>
<g id="a_Node000006"><a xlink:href="class_big_data_stat_meth_1_1hdf5_dataset.html#aba39e56a580d3b1fa7f1619fc72efa3e" target="_top" xlink:title="Close dataset and file.">
<polygon fill="white" stroke="#666666" points="731.5,-165.5 581.25,-165.5 581.25,-135 731.5,-135 731.5,-165.5"/>
<text xml:space="preserve" text-anchor="start" x="589.25" y="-152" font-family="Helvetica,sans-Serif" font-size="10.00">BigDataStatMeth::hdf5Dataset</text>
<text xml:space="preserve" text-anchor="middle" x="656.38" y="-140.75" font-family="Helvetica,sans-Serif" font-size="10.00">::close_dataset_file</text>
</a>
</g>
</g>
<!-- Node5&#45;&gt;Node6 -->
<g id="edge5_Node000005_Node000006" class="edge">
<title>Node5&#45;&gt;Node6</title>
<g id="a_edge5_Node000005_Node000006"><a xlink:title=" ">
<path fill="none" stroke="#63b8ff" d="M535.09,-150.25C546.36,-150.25 558.07,-150.25 569.56,-150.25"/>
<polygon fill="#63b8ff" stroke="#63b8ff" points="569.44,-153.75 579.44,-150.25 569.44,-146.75 569.44,-153.75"/>
</a>
</g>
</g>
<!-- Node8 -->
<g id="Node000008" class="node">
<title>Node8</title>
<g id="a_Node000008"><a xlink:href="namespace_big_data_stat_meth.html#a8a3d5e267930c906cce28346886f07bc" target="_top" xlink:title="Detects available system memory using R&#45;compatible methods.">
<polygon fill="white" stroke="#666666" points="534.75,-39.5 384.5,-39.5 384.5,-9 534.75,-9 534.75,-39.5"/>
<text xml:space="preserve" text-anchor="start" x="392.5" y="-26" font-family="Helvetica,sans-Serif" font-size="10.00">BigDataStatMeth::getAvailable</text>
<text xml:space="preserve" text-anchor="middle" x="459.62" y="-14.75" font-family="Helvetica,sans-Serif" font-size="10.00">MemoryMB</text>
</a>
</g>
</g>
<!-- Node7&#45;&gt;Node8 -->
<g id="edge7_Node000007_Node000008" class="edge">
<title>Node7&#45;&gt;Node8</title>
<g id="a_edge7_Node000007_Node000008"><a xlink:title=" ">
<path fill="none" stroke="#63b8ff" d="M336.79,-24.25C348.52,-24.25 360.78,-24.25 372.82,-24.25"/>
<polygon fill="#63b8ff" stroke="#63b8ff" points="372.76,-27.75 382.76,-24.25 372.76,-20.75 372.76,-27.75"/>
</a>
</g>
</g>
<!-- Node9&#45;&gt;Node5 -->
<g id="edge10_Node000009_Node000005" class="edge">
<title>Node9&#45;&gt;Node5</title>
<g id="a_edge10_Node000009_Node000005"><a xlink:title=" ">
<path fill="none" stroke="#63b8ff" d="M338.99,-125.49C350.11,-127.79 361.66,-130.18 373,-132.53"/>
<polygon fill="#63b8ff" stroke="#63b8ff" points="372.27,-135.95 382.78,-134.55 373.69,-129.1 372.27,-135.95"/>
</a>
</g>
</g>
<!-- Node9&#45;&gt;Node10 -->
<g id="edge11_Node000009_Node000010" class="edge">
<title>Node9&#45;&gt;Node10</title>
<g id="a_edge11_Node000009_Node000010"><a xlink:title=" ">
<path fill="none" stroke="#63b8ff" d="M338.99,-101.87C350.11,-100.6 361.66,-99.29 373,-98"/>
<polygon fill="#63b8ff" stroke="#63b8ff" points="373.21,-101.5 382.75,-96.89 372.42,-94.54 373.21,-101.5"/>
</a>
</g>
</g>
<!-- Node10&#45;&gt;Node6 -->
<g id="edge13_Node000010_Node000006" class="edge">
<title>Node10&#45;&gt;Node6</title>
<g id="a_edge13_Node000010_Node000006"><a xlink:title=" ">
<path fill="none" stroke="#63b8ff" d="M504.38,-103.98C524.51,-111.05 548.75,-119.34 570.75,-126.25 576.17,-127.95 581.79,-129.66 587.46,-131.35"/>
<polygon fill="#63b8ff" stroke="#63b8ff" points="586.31,-134.66 596.89,-134.12 588.28,-127.94 586.31,-134.66"/>
</a>
</g>
</g>
<!-- Node11 -->
<g id="Node000011" class="node">
<title>Node11</title>
<g id="a_Node000011"><a xlink:href="class_big_data_stat_meth_1_1hdf5_dataset.html#a64177ae924792ea9e557febaa95ed400" target="_top" xlink:title="Close the dataset.">
<polygon fill="white" stroke="#666666" points="731.5,-79.5 581.25,-79.5 581.25,-49 731.5,-49 731.5,-79.5"/>
<text xml:space="preserve" text-anchor="start" x="589.25" y="-66" font-family="Helvetica,sans-Serif" font-size="10.00">BigDataStatMeth::hdf5Dataset</text>
<text xml:space="preserve" text-anchor="middle" x="656.38" y="-54.75" font-family="Helvetica,sans-Serif" font-size="10.00">::close_dataset</text>
</a>
</g>
</g>
<!-- Node10&#45;&gt;Node11 -->
<g id="edge12_Node000010_Node000011" class="edge">
<title>Node10&#45;&gt;Node11</title>
<g id="a_edge12_Node000010_Node000011"><a xlink:title=" ">
<path fill="none" stroke="#63b8ff" d="M535.09,-79.07C546.36,-77.68 558.07,-76.24 569.56,-74.83"/>
<polygon fill="#63b8ff" stroke="#63b8ff" points="569.96,-78.3 579.45,-73.61 569.1,-71.36 569.96,-78.3"/>
</a>
</g>
</g>
<!-- Node12 -->
<g id="Node000012" class="node">
<title>Node12</title>
<g id="a_Node000012"><a xlink:href="class_big_data_stat_meth_1_1hdf5_dataset.html#a94d81b72e92cb0230b4e64f37ea7d2e3" target="_top" xlink:title="Convert DataFrame to range list.">
<polygon fill="white" stroke="#666666" points="742,-30.5 570.75,-30.5 570.75,0 742,0 742,-30.5"/>
<text xml:space="preserve" text-anchor="start" x="578.75" y="-17" font-family="Helvetica,sans-Serif" font-size="10.00">BigDataStatMeth::hdf5Dataset</text>
<text xml:space="preserve" text-anchor="middle" x="656.38" y="-5.75" font-family="Helvetica,sans-Serif" font-size="10.00">::convert_DataFrame_to_RangeList</text>
</a>
</g>
</g>
<!-- Node10&#45;&gt;Node12 -->
<g id="edge14_Node000010_Node000012" class="edge">
<title>Node10&#45;&gt;Node12</title>
<g id="a_edge14_Node000010_Node000012"><a xlink:title=" ">
<path fill="none" stroke="#63b8ff" d="M493.44,-72.67C515.12,-62.7 544.29,-49.88 570.75,-40.25 576.33,-38.22 582.16,-36.23 588.03,-34.32"/>
<polygon fill="#63b8ff" stroke="#63b8ff" points="588.7,-37.78 597.17,-31.42 586.58,-31.11 588.7,-37.78"/>
</a>
</g>
</g>
<!-- Node13 -->
<g id="Node000013" class="node">
<title>Node13</title>
<g id="a_Node000013"><a xlink:href="namespace_big_data_stat_meth.html#a2692707b3ea4aaafa09d07afaf632437" target="_top" xlink:title="Transposes a 2D matrix.">
<polygon fill="white" stroke="#666666" points="726.25,-116.88 586.5,-116.88 586.5,-97.62 726.25,-97.62 726.25,-116.88"/>
<text xml:space="preserve" text-anchor="middle" x="656.38" y="-103.38" font-family="Helvetica,sans-Serif" font-size="10.00">BigDataStatMeth::transpose</text>
</a>
</g>
</g>
<!-- Node10&#45;&gt;Node13 -->
<g id="edge15_Node000010_Node000013" class="edge">
<title>Node10&#45;&gt;Node13</title>
<g id="a_edge15_Node000010_Node000013"><a xlink:title=" ">
<path fill="none" stroke="#63b8ff" d="M535.09,-95.51C548.04,-96.78 561.57,-98.1 574.68,-99.38"/>
<polygon fill="#63b8ff" stroke="#63b8ff" points="574.28,-102.85 584.57,-100.34 574.96,-95.89 574.28,-102.85"/>
</a>
</g>
</g>
</g>
</svg>

<g id="navigator" transform="translate(0 0)" fill="#404254">
  <rect fill="#f2f5e9" fill-opacity="0.5" stroke="#606060" stroke-width=".5" x="0" y="0" width="60" height="60"/>
  <use id="zoomplus" xlink:href="#zoomPlus" x="17" y="9" onmousedown="handleZoom(evt,'in')"/>
  <use id="zoomminus" xlink:href="#zoomMin" x="42" y="9" onmousedown="handleZoom(evt,'out')"/>
  <use id="reset" xlink:href="#resetDef" x="30" y="36" onmousedown="handleReset()"/>
   <use id="arrowup" xlink:href="#arrowUp" x="0" y="0" onmousedown="handlePan(0,-1)"/>
  <use id="arrowright" xlink:href="#arrowRight" x="0" y="0" onmousedown="handlePan(1,0)"/>
  <use id="arrowdown" xlink:href="#arrowDown" x="0" y="0" onmousedown="handlePan(0,1)"/>
  <use id="arrowleft" xlink:href="#arrowLeft" x="0" y="0" onmousedown="handlePan(-1,0)"/>
</g>
<svg viewBox="0 0 15 15" width="100%" height="30px" preserveAspectRatio="xMaxYMin meet">
 <g id="arrow_out" transform="scale(0.3 0.3)">
  <a xlink:href="namespace_big_data_stat_meth_aea31bd4c416718e1d4c084eb4a6d0b28_cgraph_org.svg" target="_base">
   <rect id="button" ry="5" rx="5" y="6" x="6" height="38" width="38"
        fill="#f2f5e9" fill-opacity="0.5" stroke="#606060" stroke-width="1.0"/>
   <path id="arrow"
     d="M 11.500037,31.436501 C 11.940474,20.09759 22.043105,11.32322 32.158766,21.979434 L 37.068811,17.246167 C 37.068811,17.246167 37.088388,32 37.088388,32 L 22.160133,31.978069 C 22.160133,31.978069 26.997745,27.140456 26.997745,27.140456 C 18.528582,18.264221 13.291696,25.230495 11.500037,31.436501 z"
     style="fill:#404040;"/>
  </a>
 </g>
</svg>

<style type='text/css'>
<![CDATA[
[data-mouse-over-selected='false'] { opacity: 0.7; }
[data-mouse-over-selected='true']  { opacity: 1.0; }
]]>
</style>
<script type="application/ecmascript"><![CDATA[
document.addEventListener('DOMContentLoaded', (event) => {
  highlightEdges();
  highlightAdjacentNodes();
});
]]></script>
</svg>
