<?xml version="1.0" encoding="UTF-8" standalone="no"?>
<!DOCTYPE svg PUBLIC "-//W3C//DTD SVG 1.1//EN"
 "http://www.w3.org/Graphics/SVG/1.1/DTD/svg11.dtd">
<!-- Generated by graphviz version 14.0.0 (20250921.2048)
 -->
<!-- Title: BigDataStatMeth::RcppbdEigen_hdf5 Pages: 1 -->
<!--zoomable 569 -->

<svg id="main" version="1.1" xmlns="http://www.w3.org/2000/svg" xmlns:xlink="http://www.w3.org/1999/xlink" xml:space="preserve" onload="init(evt)">

<style type="text/css"><![CDATA[
.node, .edge {opacity: 0.7;}
.node.selected, .edge.selected {opacity: 1;}
.edge:hover path { stroke: red; }
.edge:hover polygon { stroke: red; fill: red; }
]]></style>

<defs>
  <circle id="rim" cx="0" cy="0" r="7"/>
  <circle id="rim2" cx="0" cy="0" r="3.5"/>
  <g id="zoomPlus">
    <use xlink:href="#rim" fill="#404040"><set attributeName="fill" to="#808080" begin="zoomplus.mouseover" end="zoomplus.mouseout"/></use>
    <path d="M-4,0h8M0,-4v8" fill="none" stroke="white" stroke-width="1.5" pointer-events="none"/>
  </g>
  <g id="zoomMin">
    <use xlink:href="#rim" fill="#404040"><set attributeName="fill" to="#808080" begin="zoomminus.mouseover" end="zoomminus.mouseout"/></use>
    <path d="M-4,0h8" fill="none" stroke="white" stroke-width="1.5" pointer-events="none"/>
  </g>
  <g id="arrowUp" transform="translate(30 24)">
    <use xlink:href="#rim"/>
    <path pointer-events="none" fill="none" stroke="white" stroke-width="1.5" d="M0,-3.0v7 M-2.5,-0.5L0,-3.0L2.5,-0.5"/>
  </g>
  <g id="arrowRight" transform="rotate(90) translate(36 -43)">
    <use xlink:href="#rim"/>
    <path pointer-events="none" fill="none" stroke="white" stroke-width="1.5" d="M0,-3.0v7 M-2.5,-0.5L0,-3.0L2.5,-0.5"/>
  </g>
  <g id="arrowDown" transform="rotate(180) translate(-30 -48)">
    <use xlink:href="#rim"/>
    <path pointer-events="none" fill="none" stroke="white" stroke-width="1.5" d="M0,-3.0v7 M-2.5,-0.5L0,-3.0L2.5,-0.5"/>
  </g>
  <g id="arrowLeft" transform="rotate(270) translate(-36 17)">
    <use xlink:href="#rim"/>
    <path pointer-events="none" fill="none" stroke="white" stroke-width="1.5" d="M0,-3.0v7 M-2.5,-0.5L0,-3.0L2.5,-0.5"/>
  </g>
  <g id="resetDef">
    <use xlink:href="#rim2" fill="#404040"><set attributeName="fill" to="#808080" begin="reset.mouseover" end="reset.mouseout"/></use>
  </g>
</defs>
<script type="application/ecmascript">
var viewWidth = 1005;
var viewHeight = 569;
var sectionId = 'dynsection-160';
</script>
<script type="application/ecmascript" xlink:href="../../../../assets/svg.min.js"/>
<svg id="graph" class="graph">
<g id="viewport">
<title>BigDataStatMeth::RcppbdEigen_hdf5</title>
<!-- Node1 -->
<g id="Node000001" class="node">
<title>Node1</title>
<g id="a_Node000001"><a xlink:title="Main eigenvalue decomposition for HDF5 matrices.">
<polygon fill="#999999" stroke="#666666" points="179.5,-124.88 0,-124.88 0,-105.62 179.5,-105.62 179.5,-124.88"/>
<text xml:space="preserve" text-anchor="middle" x="89.75" y="-111.38" font-family="Helvetica,sans-Serif" font-size="10.00">BigDataStatMeth::RcppbdEigen_hdf5</text>
</a>
</g>
</g>
<!-- Node2 -->
<g id="Node000002" class="node">
<title>Node2</title>
<g id="a_Node000002"><a xlink:href="namespace_big_data_stat_meth.html#af27025105c7f4730a8233cf325613694" target="_top" xlink:title="Block&#45;wise eigendecomposition for large HDF5 matrices using Spectra.">
<polygon fill="white" stroke="#666666" points="371,-176.5 215.5,-176.5 215.5,-146 371,-146 371,-176.5"/>
<text xml:space="preserve" text-anchor="start" x="223.5" y="-163" font-family="Helvetica,sans-Serif" font-size="10.00">BigDataStatMeth::RcppbdEigen</text>
<text xml:space="preserve" text-anchor="middle" x="293.25" y="-151.75" font-family="Helvetica,sans-Serif" font-size="10.00">_hdf5_Block</text>
</a>
</g>
</g>
<!-- Node1&#45;&gt;Node2 -->
<g id="edge1_Node000001_Node000002" class="edge">
<title>Node1&#45;&gt;Node2</title>
<g id="a_edge1_Node000001_Node000002"><a xlink:title=" ">
<path fill="none" stroke="#63b8ff" d="M134.97,-125.34C157.68,-130.53 186.05,-137.01 212.42,-143.03"/>
<polygon fill="#63b8ff" stroke="#63b8ff" points="211.57,-146.42 222.1,-145.24 213.13,-139.6 211.57,-146.42"/>
</a>
</g>
</g>
<!-- Node15 -->
<g id="Node000015" class="node">
<title>Node15</title>
<g id="a_Node000015"><a xlink:href="namespace_big_data_stat_meth.html#a050dd22b3a20be0b77d4b72fd278a214" target="_top" xlink:title="Eigenvalue decomposition using Spectra (partial, k &lt; n)">
<polygon fill="white" stroke="#666666" points="562.5,-130.5 407,-130.5 407,-100 562.5,-100 562.5,-130.5"/>
<text xml:space="preserve" text-anchor="start" x="415" y="-117" font-family="Helvetica,sans-Serif" font-size="10.00">BigDataStatMeth::RcppbdEigen</text>
<text xml:space="preserve" text-anchor="middle" x="484.75" y="-105.75" font-family="Helvetica,sans-Serif" font-size="10.00">_spectra</text>
</a>
</g>
</g>
<!-- Node1&#45;&gt;Node15 -->
<g id="edge26_Node000001_Node000015" class="edge">
<title>Node1&#45;&gt;Node15</title>
<g id="a_edge26_Node000001_Node000015"><a xlink:title=" ">
<path fill="none" stroke="#63b8ff" d="M179.93,-115.25C244.34,-115.25 330.95,-115.25 395.21,-115.25"/>
<polygon fill="#63b8ff" stroke="#63b8ff" points="395.02,-118.75 405.02,-115.25 395.02,-111.75 395.02,-118.75"/>
</a>
</g>
</g>
<!-- Node22 -->
<g id="Node000022" class="node">
<title>Node22</title>
<g id="a_Node000022"><a xlink:href="namespace_big_data_stat_meth.html#afb53700b444c5257b41f07f12a84bdaa" target="_top" xlink:title="Validate and adjust Spectra parameters for convergence.">
<polygon fill="white" stroke="#666666" points="759.25,-30.5 628.5,-30.5 628.5,0 759.25,0 759.25,-30.5"/>
<text xml:space="preserve" text-anchor="start" x="636.5" y="-17" font-family="Helvetica,sans-Serif" font-size="10.00">BigDataStatMeth::validate</text>
<text xml:space="preserve" text-anchor="middle" x="693.88" y="-5.75" font-family="Helvetica,sans-Serif" font-size="10.00">SpectraParams</text>
</a>
</g>
</g>
<!-- Node1&#45;&gt;Node22 -->
<g id="edge27_Node000001_Node000022" class="edge">
<title>Node1&#45;&gt;Node22</title>
<g id="a_edge27_Node000001_Node000022"><a xlink:title=" ">
<path fill="none" stroke="#63b8ff" d="M124.55,-105.14C182.01,-88.39 302.67,-55.04 407,-38.25 477.63,-26.88 559.02,-21.03 616.85,-18.08"/>
<polygon fill="#63b8ff" stroke="#63b8ff" points="616.76,-21.59 626.58,-17.61 616.42,-14.6 616.76,-21.59"/>
</a>
</g>
</g>
<!-- Node3 -->
<g id="Node000003" class="node">
<title>Node3</title>
<g id="a_Node000003"><a xlink:href="class_big_data_stat_meth_1_1hdf5_dataset.html#a374a6cadcadfc23c1f5df858d31e20df" target="_top" xlink:title="Create a new dataset with optional compression.">
<polygon fill="white" stroke="#666666" points="559.88,-388.5 409.62,-388.5 409.62,-358 559.88,-358 559.88,-388.5"/>
<text xml:space="preserve" text-anchor="start" x="417.62" y="-375" font-family="Helvetica,sans-Serif" font-size="10.00">BigDataStatMeth::hdf5Dataset</text>
<text xml:space="preserve" text-anchor="middle" x="484.75" y="-363.75" font-family="Helvetica,sans-Serif" font-size="10.00">::createDataset</text>
</a>
</g>
</g>
<!-- Node2&#45;&gt;Node3 -->
<g id="edge2_Node000002_Node000003" class="edge">
<title>Node2&#45;&gt;Node3</title>
<g id="a_edge2_Node000002_Node000003"><a xlink:title=" ">
<path fill="none" stroke="#63b8ff" d="M308.18,-176.84C340.97,-213.52 423.17,-305.48 462.34,-349.3"/>
<polygon fill="#63b8ff" stroke="#63b8ff" points="459.51,-351.39 468.79,-356.51 464.73,-346.72 459.51,-351.39"/>
</a>
</g>
</g>
<!-- Node11 -->
<g id="Node000011" class="node">
<title>Node11</title>
<g id="a_Node000011"><a xlink:href="class_big_data_stat_meth_1_1hdf5_dataset.html#acf9843abcb57a0090f1635cc69d95300" target="_top" xlink:title="Write data to the dataset.">
<polygon fill="white" stroke="#666666" points="769,-266.5 618.75,-266.5 618.75,-236 769,-236 769,-266.5"/>
<text xml:space="preserve" text-anchor="start" x="626.75" y="-253" font-family="Helvetica,sans-Serif" font-size="10.00">BigDataStatMeth::hdf5Dataset</text>
<text xml:space="preserve" text-anchor="middle" x="693.88" y="-241.75" font-family="Helvetica,sans-Serif" font-size="10.00">::writeDataset</text>
</a>
</g>
</g>
<!-- Node2&#45;&gt;Node11 -->
<g id="edge25_Node000002_Node000011" class="edge">
<title>Node2&#45;&gt;Node11</title>
<g id="a_edge25_Node000002_Node000011"><a xlink:title=" ">
<path fill="none" stroke="#63b8ff" d="M314.08,-176.89C335.59,-192.91 371.63,-216.99 407,-228.25 471.94,-248.93 549.16,-254.07 606.97,-254.37"/>
<polygon fill="#63b8ff" stroke="#63b8ff" points="606.74,-257.87 616.74,-254.38 606.74,-250.87 606.74,-257.87"/>
</a>
</g>
</g>
<!-- Node14 -->
<g id="Node000014" class="node">
<title>Node14</title>
<g id="a_Node000014"><a xlink:href="class_big_data_stat_meth_1_1hdf5_dataset.html#a8cce59e2884ad1ee3b67f281566780af" target="_top" xlink:title="Inherit the compression level from an input dataset if not already set.">
<polygon fill="white" stroke="#666666" points="559.88,-219.5 409.62,-219.5 409.62,-189 559.88,-189 559.88,-219.5"/>
<text xml:space="preserve" text-anchor="start" x="417.62" y="-206" font-family="Helvetica,sans-Serif" font-size="10.00">BigDataStatMeth::hdf5Dataset</text>
<text xml:space="preserve" text-anchor="middle" x="484.75" y="-194.75" font-family="Helvetica,sans-Serif" font-size="10.00">::inheritCompressionLevel</text>
</a>
</g>
</g>
<!-- Node2&#45;&gt;Node14 -->
<g id="edge14_Node000002_Node000014" class="edge">
<title>Node2&#45;&gt;Node14</title>
<g id="a_edge14_Node000002_Node000014"><a xlink:title=" ">
<path fill="none" stroke="#63b8ff" d="M363.47,-176.96C376.44,-179.9 390.09,-183 403.37,-186.01"/>
<polygon fill="#63b8ff" stroke="#63b8ff" points="402.4,-189.38 412.93,-188.18 403.95,-182.55 402.4,-189.38"/>
</a>
</g>
</g>
<!-- Node2&#45;&gt;Node15 -->
<g id="edge15_Node000002_Node000015" class="edge">
<title>Node2&#45;&gt;Node15</title>
<g id="a_edge15_Node000002_Node000015"><a xlink:title=" ">
<path fill="none" stroke="#63b8ff" d="M358.94,-145.55C374.7,-141.72 391.71,-137.59 407.94,-133.65"/>
<polygon fill="#63b8ff" stroke="#63b8ff" points="408.67,-137.08 417.56,-131.32 407.02,-130.27 408.67,-137.08"/>
</a>
</g>
</g>
<!-- Node19 -->
<g id="Node000019" class="node">
<title>Node19</title>
<g id="a_Node000019"><a xlink:href="namespace_big_data_stat_meth.html#a1cd3f5cf856a0d1bff9e1cf956f368fd" target="_top" xlink:title="Template function for normalizing data with pre&#45;computed statistics.">
<polygon fill="white" stroke="#666666" points="789.25,-214.88 598.5,-214.88 598.5,-195.62 789.25,-195.62 789.25,-214.88"/>
<text xml:space="preserve" text-anchor="middle" x="693.88" y="-201.38" font-family="Helvetica,sans-Serif" font-size="10.00">BigDataStatMeth::RcppNormalize_Data</text>
</a>
</g>
</g>
<!-- Node2&#45;&gt;Node19 -->
<g id="edge23_Node000002_Node000019" class="edge">
<title>Node2&#45;&gt;Node19</title>
<g id="a_edge23_Node000002_Node000019"><a xlink:title=" ">
<path fill="none" stroke="#63b8ff" d="M371.39,-164.28C425.13,-166.99 498.38,-171.86 562.5,-180.25 576.06,-182.02 605.05,-187.52 632.27,-192.91"/>
<polygon fill="#63b8ff" stroke="#63b8ff" points="631.39,-196.31 641.88,-194.83 632.76,-189.44 631.39,-196.31"/>
</a>
</g>
</g>
<!-- Node2&#45;&gt;Node22 -->
<g id="edge24_Node000002_Node000022" class="edge">
<title>Node2&#45;&gt;Node22</title>
<g id="a_edge24_Node000002_Node000022"><a xlink:title=" ">
<path fill="none" stroke="#63b8ff" d="M315.24,-145.57C337.13,-129.86 372.95,-105.97 407,-91.25 475.42,-61.68 558.16,-41.21 616.98,-29.03"/>
<polygon fill="#63b8ff" stroke="#63b8ff" points="617.46,-32.5 626.56,-27.08 616.06,-25.64 617.46,-32.5"/>
</a>
</g>
</g>
<!-- Node4 -->
<g id="Node000004" class="node">
<title>Node4</title>
<g id="a_Node000004"><a xlink:href="class_big_data_stat_meth_1_1hdf5_dataset.html#ac7a7f23b7e22c9b56ca6ad86592f2d52" target="_top" xlink:title="Add an attribute to the dataset.">
<polygon fill="white" stroke="#666666" points="769,-315.5 618.75,-315.5 618.75,-285 769,-285 769,-315.5"/>
<text xml:space="preserve" text-anchor="start" x="626.75" y="-302" font-family="Helvetica,sans-Serif" font-size="10.00">BigDataStatMeth::hdf5Dataset</text>
<text xml:space="preserve" text-anchor="middle" x="693.88" y="-290.75" font-family="Helvetica,sans-Serif" font-size="10.00">::addAttribute</text>
</a>
</g>
</g>
<!-- Node3&#45;&gt;Node4 -->
<g id="edge3_Node000003_Node000004" class="edge">
<title>Node3&#45;&gt;Node4</title>
<g id="a_edge3_Node000003_Node000004"><a xlink:title=" ">
<path fill="none" stroke="#63b8ff" d="M518.81,-357.69C541.02,-347.61 571.13,-334.65 598.5,-325.25 604.66,-323.13 611.1,-321.09 617.6,-319.14"/>
<polygon fill="#63b8ff" stroke="#63b8ff" points="618.46,-322.54 627.08,-316.39 616.5,-315.82 618.46,-322.54"/>
</a>
</g>
</g>
<!-- Node5 -->
<g id="Node000005" class="node">
<title>Node5</title>
<g id="a_Node000005"><a xlink:href="class_big_data_stat_meth_1_1hdf5_file.html#abfb73b5f1eb25ee00489485c8dc56a2a" target="_top" xlink:title="Close file and cleanup resources.">
<polygon fill="white" stroke="#666666" points="759.62,-560.5 628.12,-560.5 628.12,-530 759.62,-530 759.62,-560.5"/>
<text xml:space="preserve" text-anchor="start" x="636.12" y="-547" font-family="Helvetica,sans-Serif" font-size="10.00">BigDataStatMeth::hdf5File</text>
<text xml:space="preserve" text-anchor="middle" x="693.88" y="-535.75" font-family="Helvetica,sans-Serif" font-size="10.00">::close_file</text>
</a>
</g>
</g>
<!-- Node3&#45;&gt;Node5 -->
<g id="edge4_Node000003_Node000005" class="edge">
<title>Node3&#45;&gt;Node5</title>
<g id="a_edge4_Node000003_Node000005"><a xlink:title=" ">
<path fill="none" stroke="#63b8ff" d="M493.25,-388.85C508.6,-419.07 546.57,-485.65 598.5,-520.25 604.33,-524.14 610.74,-527.42 617.39,-530.19"/>
<polygon fill="#63b8ff" stroke="#63b8ff" points="615.98,-533.4 626.57,-533.61 618.42,-526.84 615.98,-533.4"/>
</a>
</g>
</g>
<!-- Node6 -->
<g id="Node000006" class="node">
<title>Node6</title>
<g id="a_Node000006"><a xlink:href="class_big_data_stat_meth_1_1hdf5_group.html#a27cef4d33e46c72bfd792aa49fa621a3" target="_top" xlink:title="Create multiple nested groups.">
<polygon fill="white" stroke="#666666" points="764.88,-511.5 622.88,-511.5 622.88,-481 764.88,-481 764.88,-511.5"/>
<text xml:space="preserve" text-anchor="start" x="630.88" y="-498" font-family="Helvetica,sans-Serif" font-size="10.00">BigDataStatMeth::hdf5Group</text>
<text xml:space="preserve" text-anchor="middle" x="693.88" y="-486.75" font-family="Helvetica,sans-Serif" font-size="10.00">::create_HDF5_groups</text>
</a>
</g>
</g>
<!-- Node3&#45;&gt;Node6 -->
<g id="edge5_Node000003_Node000006" class="edge">
<title>Node3&#45;&gt;Node6</title>
<g id="a_edge5_Node000003_Node000006"><a xlink:title=" ">
<path fill="none" stroke="#63b8ff" d="M499.41,-388.98C519.13,-410.7 557.71,-449.64 598.5,-471.25 602.71,-473.48 607.14,-475.53 611.68,-477.39"/>
<polygon fill="#63b8ff" stroke="#63b8ff" points="610.43,-480.66 621.02,-480.91 612.9,-474.11 610.43,-480.66"/>
</a>
</g>
</g>
<!-- Node8 -->
<g id="Node000008" class="node">
<title>Node8</title>
<g id="a_Node000008"><a xlink:href="namespace_big_data_stat_meth.html#a89d901ab4b5e01771f4e3fc7dc84e50e" target="_top" xlink:title="Checks if an HDF5 element (group or dataset) exists.">
<polygon fill="white" stroke="#666666" points="755.5,-462.5 632.25,-462.5 632.25,-432 755.5,-432 755.5,-462.5"/>
<text xml:space="preserve" text-anchor="start" x="640.25" y="-449" font-family="Helvetica,sans-Serif" font-size="10.00">BigDataStatMeth::exists</text>
<text xml:space="preserve" text-anchor="middle" x="693.88" y="-437.75" font-family="Helvetica,sans-Serif" font-size="10.00">_HDF5_element</text>
</a>
</g>
</g>
<!-- Node3&#45;&gt;Node8 -->
<g id="edge7_Node000003_Node000008" class="edge">
<title>Node3&#45;&gt;Node8</title>
<g id="a_edge7_Node000003_Node000008"><a xlink:title=" ">
<path fill="none" stroke="#63b8ff" d="M518.28,-388.95C540.53,-399.29 570.88,-412.65 598.5,-422.25 605.65,-424.74 613.18,-427.12 620.74,-429.35"/>
<polygon fill="#63b8ff" stroke="#63b8ff" points="619.77,-432.71 630.34,-432.1 621.69,-425.98 619.77,-432.71"/>
</a>
</g>
</g>
<!-- Node9 -->
<g id="Node000009" class="node">
<title>Node9</title>
<g id="a_Node000009"><a xlink:href="class_big_data_stat_meth_1_1hdf5_group.html#a59995412538627e6c80f64b552c286f5" target="_top" xlink:title=" ">
<polygon fill="white" stroke="#666666" points="764.88,-413.5 622.88,-413.5 622.88,-383 764.88,-383 764.88,-413.5"/>
<text xml:space="preserve" text-anchor="start" x="630.88" y="-400" font-family="Helvetica,sans-Serif" font-size="10.00">BigDataStatMeth::hdf5Group</text>
<text xml:space="preserve" text-anchor="middle" x="693.88" y="-388.75" font-family="Helvetica,sans-Serif" font-size="10.00">::getGroupName</text>
</a>
</g>
</g>
<!-- Node3&#45;&gt;Node9 -->
<g id="edge9_Node000003_Node000009" class="edge">
<title>Node3&#45;&gt;Node9</title>
<g id="a_edge9_Node000003_Node000009"><a xlink:title=" ">
<path fill="none" stroke="#63b8ff" d="M560.23,-382.24C576.88,-384.25 594.62,-386.39 611.53,-388.43"/>
<polygon fill="#63b8ff" stroke="#63b8ff" points="610.66,-391.85 621,-389.58 611.5,-384.9 610.66,-391.85"/>
</a>
</g>
</g>
<!-- Node10 -->
<g id="Node000010" class="node">
<title>Node10</title>
<g id="a_Node000010"><a xlink:href="namespace_big_data_stat_meth.html#a3d06783149029f1df2853c472d401380" target="_top" xlink:title="Removes multiple elements from an HDF5 file.">
<polygon fill="white" stroke="#666666" points="758.5,-364.5 629.25,-364.5 629.25,-334 758.5,-334 758.5,-364.5"/>
<text xml:space="preserve" text-anchor="start" x="637.25" y="-351" font-family="Helvetica,sans-Serif" font-size="10.00">BigDataStatMeth::remove</text>
<text xml:space="preserve" text-anchor="middle" x="693.88" y="-339.75" font-family="Helvetica,sans-Serif" font-size="10.00">_elements</text>
</a>
</g>
</g>
<!-- Node3&#45;&gt;Node10 -->
<g id="edge10_Node000003_Node000010" class="edge">
<title>Node3&#45;&gt;Node10</title>
<g id="a_edge10_Node000003_Node000010"><a xlink:title=" ">
<path fill="none" stroke="#63b8ff" d="M560.23,-364.62C578.87,-362.46 598.87,-360.14 617.54,-357.98"/>
<polygon fill="#63b8ff" stroke="#63b8ff" points="617.94,-361.46 627.47,-356.83 617.13,-354.5 617.94,-361.46"/>
</a>
</g>
</g>
<!-- Node3&#45;&gt;Node11 -->
<g id="edge11_Node000003_Node000011" class="edge">
<title>Node3&#45;&gt;Node11</title>
<g id="a_edge11_Node000003_Node000011"><a xlink:title=" ">
<path fill="none" stroke="#63b8ff" d="M499.45,-357.69C519.21,-336.2 557.83,-297.67 598.5,-276.25 601.98,-274.42 605.6,-272.71 609.32,-271.13"/>
<polygon fill="#63b8ff" stroke="#63b8ff" points="610.53,-274.41 618.57,-267.51 607.98,-267.89 610.53,-274.41"/>
</a>
</g>
</g>
<!-- Node7 -->
<g id="Node000007" class="node">
<title>Node7</title>
<g id="a_Node000007"><a xlink:href="namespace_big_data_stat_meth.html#abcaa4216cd52f03ebac42e4855ef846b" target="_top" xlink:title="Checks if a path exists in an HDF5 file.">
<polygon fill="white" stroke="#666666" points="982.62,-480.88 839.12,-480.88 839.12,-461.62 982.62,-461.62 982.62,-480.88"/>
<text xml:space="preserve" text-anchor="middle" x="910.88" y="-467.38" font-family="Helvetica,sans-Serif" font-size="10.00">BigDataStatMeth::pathExists</text>
</a>
</g>
</g>
<!-- Node6&#45;&gt;Node7 -->
<g id="edge6_Node000006_Node000007" class="edge">
<title>Node6&#45;&gt;Node7</title>
<g id="a_edge6_Node000006_Node000007"><a xlink:title=" ">
<path fill="none" stroke="#63b8ff" d="M765.27,-488.06C785.22,-485.75 807.1,-483.2 827.68,-480.81"/>
<polygon fill="#63b8ff" stroke="#63b8ff" points="827.92,-484.3 837.45,-479.67 827.11,-477.35 827.92,-484.3"/>
</a>
</g>
</g>
<!-- Node8&#45;&gt;Node7 -->
<g id="edge8_Node000008_Node000007" class="edge">
<title>Node8&#45;&gt;Node7</title>
<g id="a_edge8_Node000008_Node000007"><a xlink:title=" ">
<path fill="none" stroke="#63b8ff" d="M755.91,-454.06C778.2,-456.55 803.8,-459.41 827.63,-462.07"/>
<polygon fill="#63b8ff" stroke="#63b8ff" points="826.97,-465.52 837.3,-463.15 827.75,-458.56 826.97,-465.52"/>
</a>
</g>
</g>
<!-- Node12 -->
<g id="Node000012" class="node">
<title>Node12</title>
<g id="a_Node000012"><a xlink:href="class_big_data_stat_meth_1_1hdf5_dataset.html#aba39e56a580d3b1fa7f1619fc72efa3e" target="_top" xlink:title="Close dataset and file.">
<polygon fill="white" stroke="#666666" points="986,-267.5 835.75,-267.5 835.75,-237 986,-237 986,-267.5"/>
<text xml:space="preserve" text-anchor="start" x="843.75" y="-254" font-family="Helvetica,sans-Serif" font-size="10.00">BigDataStatMeth::hdf5Dataset</text>
<text xml:space="preserve" text-anchor="middle" x="910.88" y="-242.75" font-family="Helvetica,sans-Serif" font-size="10.00">::close_dataset_file</text>
</a>
</g>
</g>
<!-- Node11&#45;&gt;Node12 -->
<g id="edge12_Node000011_Node000012" class="edge">
<title>Node11&#45;&gt;Node12</title>
<g id="a_edge12_Node000011_Node000012"><a xlink:title=" ">
<path fill="none" stroke="#63b8ff" d="M769.47,-251.6C787.06,-251.68 805.96,-251.77 824,-251.85"/>
<polygon fill="#63b8ff" stroke="#63b8ff" points="823.88,-255.35 833.9,-251.9 823.92,-248.35 823.88,-255.35"/>
</a>
</g>
</g>
<!-- Node13 -->
<g id="Node000013" class="node">
<title>Node13</title>
<g id="a_Node000013"><a xlink:href="class_big_data_stat_meth_1_1hdf5_dataset.html#a94d81b72e92cb0230b4e64f37ea7d2e3" target="_top" xlink:title="Convert DataFrame to range list.">
<polygon fill="white" stroke="#666666" points="996.5,-316.5 825.25,-316.5 825.25,-286 996.5,-286 996.5,-316.5"/>
<text xml:space="preserve" text-anchor="start" x="833.25" y="-303" font-family="Helvetica,sans-Serif" font-size="10.00">BigDataStatMeth::hdf5Dataset</text>
<text xml:space="preserve" text-anchor="middle" x="910.88" y="-291.75" font-family="Helvetica,sans-Serif" font-size="10.00">::convert_DataFrame_to_RangeList</text>
</a>
</g>
</g>
<!-- Node11&#45;&gt;Node13 -->
<g id="edge13_Node000011_Node000013" class="edge">
<title>Node11&#45;&gt;Node13</title>
<g id="a_edge13_Node000011_Node000013"><a xlink:title=" ">
<path fill="none" stroke="#63b8ff" d="M762.31,-266.93C784.22,-272.03 808.72,-277.72 831.36,-282.99"/>
<polygon fill="#63b8ff" stroke="#63b8ff" points="830.3,-286.34 840.83,-285.19 831.89,-279.52 830.3,-286.34"/>
</a>
</g>
</g>
<!-- Node16 -->
<g id="Node000016" class="node">
<title>Node16</title>
<g id="a_Node000016"><a xlink:href="namespace_big_data_stat_meth.html#a5fd46170e425b1ced11e76acc7b84500" target="_top" xlink:title="Convert &#39;which&#39; string to Spectra SortRule for general matrices.">
<polygon fill="white" stroke="#666666" points="766,-79.5 621.75,-79.5 621.75,-49 766,-49 766,-79.5"/>
<text xml:space="preserve" text-anchor="start" x="629.75" y="-66" font-family="Helvetica,sans-Serif" font-size="10.00">BigDataStatMeth::getGeneral</text>
<text xml:space="preserve" text-anchor="middle" x="693.88" y="-54.75" font-family="Helvetica,sans-Serif" font-size="10.00">SortRule</text>
</a>
</g>
</g>
<!-- Node15&#45;&gt;Node16 -->
<g id="edge16_Node000015_Node000016" class="edge">
<title>Node15&#45;&gt;Node16</title>
<g id="a_edge16_Node000015_Node000016"><a xlink:title=" ">
<path fill="none" stroke="#63b8ff" d="M549.58,-99.53C571.34,-94.17 595.86,-88.14 618.38,-82.59"/>
<polygon fill="#63b8ff" stroke="#63b8ff" points="618.91,-86.07 627.78,-80.28 617.23,-79.27 618.91,-86.07"/>
</a>
</g>
</g>
<!-- Node17 -->
<g id="Node000017" class="node">
<title>Node17</title>
<g id="a_Node000017"><a xlink:href="namespace_big_data_stat_meth.html#af5dbdeb2f9d2e495e161b05ff5d7f6f1" target="_top" xlink:title="Convert &#39;which&#39; string to Spectra SortRule for symmetric matrices.">
<polygon fill="white" stroke="#666666" points="772.75,-177.5 615,-177.5 615,-147 772.75,-147 772.75,-177.5"/>
<text xml:space="preserve" text-anchor="start" x="623" y="-164" font-family="Helvetica,sans-Serif" font-size="10.00">BigDataStatMeth::getSymmetric</text>
<text xml:space="preserve" text-anchor="middle" x="693.88" y="-152.75" font-family="Helvetica,sans-Serif" font-size="10.00">SortRule</text>
</a>
</g>
</g>
<!-- Node15&#45;&gt;Node17 -->
<g id="edge17_Node000015_Node000017" class="edge">
<title>Node15&#45;&gt;Node17</title>
<g id="a_edge17_Node000015_Node000017"><a xlink:title=" ">
<path fill="none" stroke="#63b8ff" d="M555.01,-130.97C573.49,-135.16 593.61,-139.73 612.63,-144.04"/>
<polygon fill="#63b8ff" stroke="#63b8ff" points="611.68,-147.41 622.21,-146.21 613.23,-140.59 611.68,-147.41"/>
</a>
</g>
</g>
<!-- Node18 -->
<g id="Node000018" class="node">
<title>Node18</title>
<g id="a_Node000018"><a xlink:href="namespace_big_data_stat_meth.html#a45e2b926781664ca98be48c1bce0379c" target="_top" xlink:title="Matrix symmetry detection.">
<polygon fill="white" stroke="#666666" points="759.62,-128.5 628.12,-128.5 628.12,-98 759.62,-98 759.62,-128.5"/>
<text xml:space="preserve" text-anchor="start" x="636.12" y="-115" font-family="Helvetica,sans-Serif" font-size="10.00">BigDataStatMeth::isMatrix</text>
<text xml:space="preserve" text-anchor="middle" x="693.88" y="-103.75" font-family="Helvetica,sans-Serif" font-size="10.00">Symmetric</text>
</a>
</g>
</g>
<!-- Node15&#45;&gt;Node18 -->
<g id="edge18_Node000015_Node000018" class="edge">
<title>Node15&#45;&gt;Node18</title>
<g id="a_edge18_Node000015_Node000018"><a xlink:title=" ">
<path fill="none" stroke="#63b8ff" d="M562.88,-114.51C580.42,-114.34 599.06,-114.16 616.57,-113.99"/>
<polygon fill="#63b8ff" stroke="#63b8ff" points="616.42,-117.49 626.39,-113.89 616.35,-110.49 616.42,-117.49"/>
</a>
</g>
</g>
<!-- Node15&#45;&gt;Node19 -->
<g id="edge19_Node000015_Node000019" class="edge">
<title>Node15&#45;&gt;Node19</title>
<g id="a_edge19_Node000015_Node000019"><a xlink:title=" ">
<path fill="none" stroke="#63b8ff" d="M532.48,-130.96C542.82,-135.45 553.39,-140.88 562.5,-147.25 581.83,-160.77 577.94,-174.69 598.5,-186.25 601.71,-188.05 605.06,-189.68 608.51,-191.16"/>
<polygon fill="#63b8ff" stroke="#63b8ff" points="607.09,-194.37 617.68,-194.62 609.56,-187.82 607.09,-194.37"/>
</a>
</g>
</g>
<!-- Node15&#45;&gt;Node22 -->
<g id="edge22_Node000015_Node000022" class="edge">
<title>Node15&#45;&gt;Node22</title>
<g id="a_edge22_Node000015_Node000022"><a xlink:title=" ">
<path fill="none" stroke="#63b8ff" d="M531.44,-99.65C542.15,-94.93 553.15,-89.12 562.5,-82.25 582.31,-67.68 577.68,-53.32 598.5,-40.25 604.44,-36.52 610.91,-33.35 617.61,-30.65"/>
<polygon fill="#63b8ff" stroke="#63b8ff" points="618.63,-34 626.83,-27.29 616.24,-27.42 618.63,-34"/>
</a>
</g>
</g>
<!-- Node20 -->
<g id="Node000020" class="node">
<title>Node20</title>
<g id="a_Node000020"><a xlink:href="namespace_big_data_stat_meth.html#aaac3a1d91c92fdf91f7bbc256672b68e" target="_top" xlink:title="Column&#45;wise normalization with pre&#45;computed statistics.">
<polygon fill="white" stroke="#666666" points="993.12,-169.5 828.62,-169.5 828.62,-139 993.12,-139 993.12,-169.5"/>
<text xml:space="preserve" text-anchor="start" x="836.62" y="-156" font-family="Helvetica,sans-Serif" font-size="10.00">BigDataStatMeth::RcppNormalize</text>
<text xml:space="preserve" text-anchor="middle" x="910.88" y="-144.75" font-family="Helvetica,sans-Serif" font-size="10.00">Colwise</text>
</a>
</g>
</g>
<!-- Node19&#45;&gt;Node20 -->
<g id="edge20_Node000019_Node000020" class="edge">
<title>Node19&#45;&gt;Node20</title>
<g id="a_edge20_Node000019_Node000020"><a xlink:title=" ">
<path fill="none" stroke="#63b8ff" d="M747.91,-195.16C761.42,-192.43 775.9,-189.36 789.25,-186.25 806.72,-182.18 825.52,-177.39 842.94,-172.78"/>
<polygon fill="#63b8ff" stroke="#63b8ff" points="843.37,-176.29 852.13,-170.33 841.57,-169.52 843.37,-176.29"/>
</a>
</g>
</g>
<!-- Node21 -->
<g id="Node000021" class="node">
<title>Node21</title>
<g id="a_Node000021"><a xlink:href="namespace_big_data_stat_meth.html#a44b65a910276a5b61d0c3877b810eaeb" target="_top" xlink:title=" ">
<polygon fill="white" stroke="#666666" points="993.12,-218.5 828.62,-218.5 828.62,-188 993.12,-188 993.12,-218.5"/>
<text xml:space="preserve" text-anchor="start" x="836.62" y="-205" font-family="Helvetica,sans-Serif" font-size="10.00">BigDataStatMeth::RcppNormalize</text>
<text xml:space="preserve" text-anchor="middle" x="910.88" y="-193.75" font-family="Helvetica,sans-Serif" font-size="10.00">Rowwise</text>
</a>
</g>
</g>
<!-- Node19&#45;&gt;Node21 -->
<g id="edge21_Node000019_Node000021" class="edge">
<title>Node19&#45;&gt;Node21</title>
<g id="a_edge21_Node000019_Node000021"><a xlink:title=" ">
<path fill="none" stroke="#63b8ff" d="M789.49,-204.37C798.6,-204.29 807.83,-204.2 816.93,-204.11"/>
<polygon fill="#63b8ff" stroke="#63b8ff" points="816.87,-207.62 826.84,-204.02 816.8,-200.62 816.87,-207.62"/>
</a>
</g>
</g>
</g>
</svg>

<g id="navigator" transform="translate(0 0)" fill="#404254">
  <rect fill="#f2f5e9" fill-opacity="0.5" stroke="#606060" stroke-width=".5" x="0" y="0" width="60" height="60"/>
  <use id="zoomplus" xlink:href="#zoomPlus" x="17" y="9" onmousedown="handleZoom(evt,'in')"/>
  <use id="zoomminus" xlink:href="#zoomMin" x="42" y="9" onmousedown="handleZoom(evt,'out')"/>
  <use id="reset" xlink:href="#resetDef" x="30" y="36" onmousedown="handleReset()"/>
   <use id="arrowup" xlink:href="#arrowUp" x="0" y="0" onmousedown="handlePan(0,-1)"/>
  <use id="arrowright" xlink:href="#arrowRight" x="0" y="0" onmousedown="handlePan(1,0)"/>
  <use id="arrowdown" xlink:href="#arrowDown" x="0" y="0" onmousedown="handlePan(0,1)"/>
  <use id="arrowleft" xlink:href="#arrowLeft" x="0" y="0" onmousedown="handlePan(-1,0)"/>
</g>
<svg viewBox="0 0 15 15" width="100%" height="30px" preserveAspectRatio="xMaxYMin meet">
 <g id="arrow_out" transform="scale(0.3 0.3)">
  <a xlink:href="namespace_big_data_stat_meth_a05652afd0a5a4a4afcda52b3d3bd2cc0_cgraph_org.svg" target="_base">
   <rect id="button" ry="5" rx="5" y="6" x="6" height="38" width="38"
        fill="#f2f5e9" fill-opacity="0.5" stroke="#606060" stroke-width="1.0"/>
   <path id="arrow"
     d="M 11.500037,31.436501 C 11.940474,20.09759 22.043105,11.32322 32.158766,21.979434 L 37.068811,17.246167 C 37.068811,17.246167 37.088388,32 37.088388,32 L 22.160133,31.978069 C 22.160133,31.978069 26.997745,27.140456 26.997745,27.140456 C 18.528582,18.264221 13.291696,25.230495 11.500037,31.436501 z"
     style="fill:#404040;"/>
  </a>
 </g>
</svg>

<style type='text/css'>
<![CDATA[
[data-mouse-over-selected='false'] { opacity: 0.7; }
[data-mouse-over-selected='true']  { opacity: 1.0; }
]]>
</style>
<script type="application/ecmascript"><![CDATA[
document.addEventListener('DOMContentLoaded', (event) => {
  highlightEdges();
  highlightAdjacentNodes();
});
]]></script>
</svg>
