<?xml version="1.0" encoding="UTF-8" standalone="no"?>
<!DOCTYPE svg PUBLIC "-//W3C//DTD SVG 1.1//EN"
 "http://www.w3.org/Graphics/SVG/1.1/DTD/svg11.dtd">
<!-- Generated by graphviz version 14.0.0 (20250921.2048)
 -->
<!-- Title: BigDataStatMeth::Cholesky_decomposition_hdf5 Pages: 1 -->
<!--zoomable 382 -->

<svg id="main" version="1.1" xmlns="http://www.w3.org/2000/svg" xmlns:xlink="http://www.w3.org/1999/xlink" xml:space="preserve" onload="init(evt)">

<style type="text/css"><![CDATA[
.node, .edge {opacity: 0.7;}
.node.selected, .edge.selected {opacity: 1;}
.edge:hover path { stroke: red; }
.edge:hover polygon { stroke: red; fill: red; }
]]></style>

<defs>
  <circle id="rim" cx="0" cy="0" r="7"/>
  <circle id="rim2" cx="0" cy="0" r="3.5"/>
  <g id="zoomPlus">
    <use xlink:href="#rim" fill="#404040"><set attributeName="fill" to="#808080" begin="zoomplus.mouseover" end="zoomplus.mouseout"/></use>
    <path d="M-4,0h8M0,-4v8" fill="none" stroke="white" stroke-width="1.5" pointer-events="none"/>
  </g>
  <g id="zoomMin">
    <use xlink:href="#rim" fill="#404040"><set attributeName="fill" to="#808080" begin="zoomminus.mouseover" end="zoomminus.mouseout"/></use>
    <path d="M-4,0h8" fill="none" stroke="white" stroke-width="1.5" pointer-events="none"/>
  </g>
  <g id="arrowUp" transform="translate(30 24)">
    <use xlink:href="#rim"/>
    <path pointer-events="none" fill="none" stroke="white" stroke-width="1.5" d="M0,-3.0v7 M-2.5,-0.5L0,-3.0L2.5,-0.5"/>
  </g>
  <g id="arrowRight" transform="rotate(90) translate(36 -43)">
    <use xlink:href="#rim"/>
    <path pointer-events="none" fill="none" stroke="white" stroke-width="1.5" d="M0,-3.0v7 M-2.5,-0.5L0,-3.0L2.5,-0.5"/>
  </g>
  <g id="arrowDown" transform="rotate(180) translate(-30 -48)">
    <use xlink:href="#rim"/>
    <path pointer-events="none" fill="none" stroke="white" stroke-width="1.5" d="M0,-3.0v7 M-2.5,-0.5L0,-3.0L2.5,-0.5"/>
  </g>
  <g id="arrowLeft" transform="rotate(270) translate(-36 17)">
    <use xlink:href="#rim"/>
    <path pointer-events="none" fill="none" stroke="white" stroke-width="1.5" d="M0,-3.0v7 M-2.5,-0.5L0,-3.0L2.5,-0.5"/>
  </g>
  <g id="resetDef">
    <use xlink:href="#rim2" fill="#404040"><set attributeName="fill" to="#808080" begin="reset.mouseover" end="reset.mouseout"/></use>
  </g>
</defs>
<script type="application/ecmascript">
var viewWidth = 743;
var viewHeight = 382;
var sectionId = 'dynsection-9';
</script>
<script type="application/ecmascript" xlink:href="../../../../assets/svg.min.js"/>
<svg id="graph" class="graph">
<g id="viewport">
<title>BigDataStatMeth::Cholesky_decomposition_hdf5</title>
<!-- Node1 -->
<g id="Node000001" class="node">
<title>Node1</title>
<g id="a_Node000001"><a xlink:title="Performs Cholesky decomposition with automatic algorithm selection.">
<polygon fill="#999999" stroke="#666666" points="138.25,-275.5 0,-275.5 0,-245 138.25,-245 138.25,-275.5"/>
<text xml:space="preserve" text-anchor="start" x="8" y="-262" font-family="Helvetica,sans-Serif" font-size="10.00">BigDataStatMeth::Cholesky</text>
<text xml:space="preserve" text-anchor="middle" x="69.12" y="-250.75" font-family="Helvetica,sans-Serif" font-size="10.00">_decomposition_hdf5</text>
</a>
</g>
</g>
<!-- Node2 -->
<g id="Node000002" class="node">
<title>Node2</title>
<g id="a_Node000002"><a xlink:href="namespace_big_data_stat_meth.html#a6474d6e774e790655800beb3a03a4f42" target="_top" xlink:title="Performs Cholesky decomposition on a matrix stored in HDF5 format.">
<polygon fill="white" stroke="#666666" points="341,-324.5 174.25,-324.5 174.25,-294 341,-294 341,-324.5"/>
<text xml:space="preserve" text-anchor="start" x="182.25" y="-311" font-family="Helvetica,sans-Serif" font-size="10.00">BigDataStatMeth::Cholesky</text>
<text xml:space="preserve" text-anchor="middle" x="257.62" y="-299.75" font-family="Helvetica,sans-Serif" font-size="10.00">_decomposition_intermediate_hdf5</text>
</a>
</g>
</g>
<!-- Node1&#45;&gt;Node2 -->
<g id="edge1_Node000001_Node000002" class="edge">
<title>Node1&#45;&gt;Node2</title>
<g id="a_edge1_Node000001_Node000002"><a xlink:title=" ">
<path fill="none" stroke="#63b8ff" d="M129.9,-275.96C147.72,-280.64 167.42,-285.81 185.87,-290.66"/>
<polygon fill="#63b8ff" stroke="#63b8ff" points="184.84,-294.01 195.4,-293.16 186.62,-287.24 184.84,-294.01"/>
</a>
</g>
</g>
<!-- Node11 -->
<g id="Node000011" class="node">
<title>Node11</title>
<g id="a_Node000011"><a xlink:href="namespace_big_data_stat_meth.html#acc7302fb99432acf666987d6a505bee6" target="_top" xlink:title="Out&#45;of&#45;core Cholesky decomposition for large matrices using tiled algorithm.">
<polygon fill="white" stroke="#666666" points="334.62,-177.5 180.62,-177.5 180.62,-147 334.62,-147 334.62,-177.5"/>
<text xml:space="preserve" text-anchor="start" x="188.62" y="-164" font-family="Helvetica,sans-Serif" font-size="10.00">BigDataStatMeth::Cholesky</text>
<text xml:space="preserve" text-anchor="middle" x="257.62" y="-152.75" font-family="Helvetica,sans-Serif" font-size="10.00">_decomposition_outofcore_hdf5</text>
</a>
</g>
</g>
<!-- Node1&#45;&gt;Node11 -->
<g id="edge11_Node000001_Node000011" class="edge">
<title>Node1&#45;&gt;Node11</title>
<g id="a_edge11_Node000001_Node000011"><a xlink:title=" ">
<path fill="none" stroke="#63b8ff" d="M100.09,-244.5C131.77,-227.86 181.89,-201.52 216.86,-183.15"/>
<polygon fill="#63b8ff" stroke="#63b8ff" points="218.17,-186.41 225.4,-178.66 214.91,-180.21 218.17,-186.41"/>
</a>
</g>
</g>
<!-- Node17 -->
<g id="Node000017" class="node">
<title>Node17</title>
<g id="a_Node000017"><a xlink:href="namespace_big_data_stat_meth.html#a1df24d3792c7d9ea5a36d38726468068" target="_top" xlink:title="Set the lower triangular matrix using block&#45;based approach.">
<polygon fill="white" stroke="#666666" points="326,-275.5 189.25,-275.5 189.25,-245 326,-245 326,-275.5"/>
<text xml:space="preserve" text-anchor="start" x="197.25" y="-262" font-family="Helvetica,sans-Serif" font-size="10.00">BigDataStatMeth::setLower</text>
<text xml:space="preserve" text-anchor="middle" x="257.62" y="-250.75" font-family="Helvetica,sans-Serif" font-size="10.00">TriangularMatrix</text>
</a>
</g>
</g>
<!-- Node1&#45;&gt;Node17 -->
<g id="edge19_Node000001_Node000017" class="edge">
<title>Node1&#45;&gt;Node17</title>
<g id="a_edge19_Node000001_Node000017"><a xlink:title=" ">
<path fill="none" stroke="#63b8ff" d="M138.51,-260.25C151.22,-260.25 164.58,-260.25 177.58,-260.25"/>
<polygon fill="#63b8ff" stroke="#63b8ff" points="177.36,-263.75 187.36,-260.25 177.36,-256.75 177.36,-263.75"/>
</a>
</g>
</g>
<!-- Node3 -->
<g id="Node000003" class="node">
<title>Node3</title>
<g id="a_Node000003"><a xlink:href="namespace_big_data_stat_meth.html#abcd544ed5db12dd03f79bca0a8f31ca5" target="_top" xlink:title="Calculates optimal block size for memory&#45;efficient matrix operations.">
<polygon fill="white" stroke="#666666" points="524.25,-373.5 380,-373.5 380,-343 524.25,-343 524.25,-373.5"/>
<text xml:space="preserve" text-anchor="start" x="388" y="-360" font-family="Helvetica,sans-Serif" font-size="10.00">BigDataStatMeth::getOptimal</text>
<text xml:space="preserve" text-anchor="middle" x="452.12" y="-348.75" font-family="Helvetica,sans-Serif" font-size="10.00">BlockElements</text>
</a>
</g>
</g>
<!-- Node2&#45;&gt;Node3 -->
<g id="edge2_Node000002_Node000003" class="edge">
<title>Node2&#45;&gt;Node3</title>
<g id="a_edge2_Node000002_Node000003"><a xlink:title=" ">
<path fill="none" stroke="#63b8ff" d="M320.33,-324.96C338.81,-329.66 359.24,-334.86 378.36,-339.73"/>
<polygon fill="#63b8ff" stroke="#63b8ff" points="377.42,-343.1 387.97,-342.18 379.15,-336.32 377.42,-343.1"/>
</a>
</g>
</g>
<!-- Node5 -->
<g id="Node000005" class="node">
<title>Node5</title>
<g id="a_Node000005"><a xlink:href="class_big_data_stat_meth_1_1hdf5_dataset.html#a23bea87165b8ef6b944709c5b2cbd0cf" target="_top" xlink:title=" ">
<polygon fill="white" stroke="#666666" points="527.25,-324.5 377,-324.5 377,-294 527.25,-294 527.25,-324.5"/>
<text xml:space="preserve" text-anchor="start" x="385" y="-311" font-family="Helvetica,sans-Serif" font-size="10.00">BigDataStatMeth::hdf5Dataset</text>
<text xml:space="preserve" text-anchor="middle" x="452.12" y="-299.75" font-family="Helvetica,sans-Serif" font-size="10.00">::readDatasetBlock</text>
</a>
</g>
</g>
<!-- Node2&#45;&gt;Node5 -->
<g id="edge4_Node000002_Node000005" class="edge">
<title>Node2&#45;&gt;Node5</title>
<g id="a_edge4_Node000002_Node000005"><a xlink:title=" ">
<path fill="none" stroke="#63b8ff" d="M341.38,-309.25C349.25,-309.25 357.25,-309.25 365.15,-309.25"/>
<polygon fill="#63b8ff" stroke="#63b8ff" points="365.13,-312.75 375.13,-309.25 365.13,-305.75 365.13,-312.75"/>
</a>
</g>
</g>
<!-- Node7 -->
<g id="Node000007" class="node">
<title>Node7</title>
<g id="a_Node000007"><a xlink:href="class_big_data_stat_meth_1_1hdf5_dataset.html#af606176d84a63561b65702b6fde3a583" target="_top" xlink:title="Write block of data with optional transposition.">
<polygon fill="white" stroke="#666666" points="527.25,-275.5 377,-275.5 377,-245 527.25,-245 527.25,-275.5"/>
<text xml:space="preserve" text-anchor="start" x="385" y="-262" font-family="Helvetica,sans-Serif" font-size="10.00">BigDataStatMeth::hdf5Dataset</text>
<text xml:space="preserve" text-anchor="middle" x="452.12" y="-250.75" font-family="Helvetica,sans-Serif" font-size="10.00">::writeDatasetBlock</text>
</a>
</g>
</g>
<!-- Node2&#45;&gt;Node7 -->
<g id="edge6_Node000002_Node000007" class="edge">
<title>Node2&#45;&gt;Node7</title>
<g id="a_edge6_Node000002_Node000007"><a xlink:title=" ">
<path fill="none" stroke="#63b8ff" d="M320.33,-293.54C338.81,-288.84 359.24,-283.64 378.36,-278.77"/>
<polygon fill="#63b8ff" stroke="#63b8ff" points="379.15,-282.18 387.97,-276.32 377.42,-275.4 379.15,-282.18"/>
</a>
</g>
</g>
<!-- Node4 -->
<g id="Node000004" class="node">
<title>Node4</title>
<g id="a_Node000004"><a xlink:href="namespace_big_data_stat_meth.html#a8a3d5e267930c906cce28346886f07bc" target="_top" xlink:title="Detects available system memory using R&#45;compatible methods.">
<polygon fill="white" stroke="#666666" points="724,-373.5 573.75,-373.5 573.75,-343 724,-343 724,-373.5"/>
<text xml:space="preserve" text-anchor="start" x="581.75" y="-360" font-family="Helvetica,sans-Serif" font-size="10.00">BigDataStatMeth::getAvailable</text>
<text xml:space="preserve" text-anchor="middle" x="648.88" y="-348.75" font-family="Helvetica,sans-Serif" font-size="10.00">MemoryMB</text>
</a>
</g>
</g>
<!-- Node3&#45;&gt;Node4 -->
<g id="edge3_Node000003_Node000004" class="edge">
<title>Node3&#45;&gt;Node4</title>
<g id="a_edge3_Node000003_Node000004"><a xlink:title=" ">
<path fill="none" stroke="#63b8ff" d="M524.54,-358.25C536.75,-358.25 549.56,-358.25 562.11,-358.25"/>
<polygon fill="#63b8ff" stroke="#63b8ff" points="562.02,-361.75 572.02,-358.25 562.02,-354.75 562.02,-361.75"/>
</a>
</g>
</g>
<!-- Node6 -->
<g id="Node000006" class="node">
<title>Node6</title>
<g id="a_Node000006"><a xlink:href="class_big_data_stat_meth_1_1hdf5_dataset.html#aba39e56a580d3b1fa7f1619fc72efa3e" target="_top" xlink:title="Close dataset and file.">
<polygon fill="white" stroke="#666666" points="724,-324.5 573.75,-324.5 573.75,-294 724,-294 724,-324.5"/>
<text xml:space="preserve" text-anchor="start" x="581.75" y="-311" font-family="Helvetica,sans-Serif" font-size="10.00">BigDataStatMeth::hdf5Dataset</text>
<text xml:space="preserve" text-anchor="middle" x="648.88" y="-299.75" font-family="Helvetica,sans-Serif" font-size="10.00">::close_dataset_file</text>
</a>
</g>
</g>
<!-- Node5&#45;&gt;Node6 -->
<g id="edge5_Node000005_Node000006" class="edge">
<title>Node5&#45;&gt;Node6</title>
<g id="a_edge5_Node000005_Node000006"><a xlink:title=" ">
<path fill="none" stroke="#63b8ff" d="M527.59,-309.25C538.86,-309.25 550.57,-309.25 562.06,-309.25"/>
<polygon fill="#63b8ff" stroke="#63b8ff" points="561.94,-312.75 571.94,-309.25 561.94,-305.75 561.94,-312.75"/>
</a>
</g>
</g>
<!-- Node7&#45;&gt;Node6 -->
<g id="edge8_Node000007_Node000006" class="edge">
<title>Node7&#45;&gt;Node6</title>
<g id="a_edge8_Node000007_Node000006"><a xlink:title=" ">
<path fill="none" stroke="#63b8ff" d="M515.55,-275.96C534.33,-280.68 555.11,-285.91 574.53,-290.8"/>
<polygon fill="#63b8ff" stroke="#63b8ff" points="573.45,-294.13 584,-293.18 575.16,-287.35 573.45,-294.13"/>
</a>
</g>
</g>
<!-- Node8 -->
<g id="Node000008" class="node">
<title>Node8</title>
<g id="a_Node000008"><a xlink:href="class_big_data_stat_meth_1_1hdf5_dataset.html#a64177ae924792ea9e557febaa95ed400" target="_top" xlink:title="Close the dataset.">
<polygon fill="white" stroke="#666666" points="724,-189.5 573.75,-189.5 573.75,-159 724,-159 724,-189.5"/>
<text xml:space="preserve" text-anchor="start" x="581.75" y="-176" font-family="Helvetica,sans-Serif" font-size="10.00">BigDataStatMeth::hdf5Dataset</text>
<text xml:space="preserve" text-anchor="middle" x="648.88" y="-164.75" font-family="Helvetica,sans-Serif" font-size="10.00">::close_dataset</text>
</a>
</g>
</g>
<!-- Node7&#45;&gt;Node8 -->
<g id="edge7_Node000007_Node000008" class="edge">
<title>Node7&#45;&gt;Node8</title>
<g id="a_edge7_Node000007_Node000008"><a xlink:title=" ">
<path fill="none" stroke="#63b8ff" d="M509.1,-244.6C515.43,-241.9 521.62,-238.8 527.25,-235.25 546.66,-223.02 543.54,-210 563.25,-198.25 565.3,-197.03 567.41,-195.87 569.58,-194.76"/>
<polygon fill="#63b8ff" stroke="#63b8ff" points="570.99,-197.96 578.63,-190.62 568.08,-191.6 570.99,-197.96"/>
</a>
</g>
</g>
<!-- Node9 -->
<g id="Node000009" class="node">
<title>Node9</title>
<g id="a_Node000009"><a xlink:href="class_big_data_stat_meth_1_1hdf5_dataset.html#a94d81b72e92cb0230b4e64f37ea7d2e3" target="_top" xlink:title="Convert DataFrame to range list.">
<polygon fill="white" stroke="#666666" points="734.5,-275.5 563.25,-275.5 563.25,-245 734.5,-245 734.5,-275.5"/>
<text xml:space="preserve" text-anchor="start" x="571.25" y="-262" font-family="Helvetica,sans-Serif" font-size="10.00">BigDataStatMeth::hdf5Dataset</text>
<text xml:space="preserve" text-anchor="middle" x="648.88" y="-250.75" font-family="Helvetica,sans-Serif" font-size="10.00">::convert_DataFrame_to_RangeList</text>
</a>
</g>
</g>
<!-- Node7&#45;&gt;Node9 -->
<g id="edge9_Node000007_Node000009" class="edge">
<title>Node7&#45;&gt;Node9</title>
<g id="a_edge9_Node000007_Node000009"><a xlink:title=" ">
<path fill="none" stroke="#63b8ff" d="M527.59,-260.25C535.47,-260.25 543.56,-260.25 551.65,-260.25"/>
<polygon fill="#63b8ff" stroke="#63b8ff" points="551.53,-263.75 561.53,-260.25 551.53,-256.75 551.53,-263.75"/>
</a>
</g>
</g>
<!-- Node10 -->
<g id="Node000010" class="node">
<title>Node10</title>
<g id="a_Node000010"><a xlink:href="namespace_big_data_stat_meth.html#a2692707b3ea4aaafa09d07afaf632437" target="_top" xlink:title="Transposes a 2D matrix.">
<polygon fill="white" stroke="#666666" points="718.75,-226.88 579,-226.88 579,-207.62 718.75,-207.62 718.75,-226.88"/>
<text xml:space="preserve" text-anchor="middle" x="648.88" y="-213.38" font-family="Helvetica,sans-Serif" font-size="10.00">BigDataStatMeth::transpose</text>
</a>
</g>
</g>
<!-- Node7&#45;&gt;Node10 -->
<g id="edge10_Node000007_Node000010" class="edge">
<title>Node7&#45;&gt;Node10</title>
<g id="a_edge10_Node000007_Node000010"><a xlink:title=" ">
<path fill="none" stroke="#63b8ff" d="M524.26,-244.54C546.17,-239.71 570,-234.44 590.83,-229.84"/>
<polygon fill="#63b8ff" stroke="#63b8ff" points="591.58,-233.26 600.59,-227.69 590.07,-226.43 591.58,-233.26"/>
</a>
</g>
</g>
<!-- Node11&#45;&gt;Node5 -->
<g id="edge17_Node000011_Node000005" class="edge">
<title>Node11&#45;&gt;Node5</title>
<g id="a_edge17_Node000011_Node000005"><a xlink:title=" ">
<path fill="none" stroke="#63b8ff" d="M277.92,-177.73C295.26,-192.07 321.01,-214.41 341,-236.25 359,-255.92 355.39,-268.62 377,-284.25 378.93,-285.65 380.95,-286.97 383.03,-288.23"/>
<polygon fill="#63b8ff" stroke="#63b8ff" points="381.35,-291.3 391.82,-292.89 384.62,-285.11 381.35,-291.3"/>
</a>
</g>
</g>
<!-- Node11&#45;&gt;Node7 -->
<g id="edge18_Node000011_Node000007" class="edge">
<title>Node11&#45;&gt;Node7</title>
<g id="a_edge18_Node000011_Node000007"><a xlink:title=" ">
<path fill="none" stroke="#63b8ff" d="M280.46,-177.83C303.59,-193.81 341.59,-218.63 377,-235.25 380.79,-237.03 384.74,-238.74 388.76,-240.38"/>
<polygon fill="#63b8ff" stroke="#63b8ff" points="387.49,-243.64 398.08,-243.98 390.01,-237.11 387.49,-243.64"/>
</a>
</g>
</g>
<!-- Node12 -->
<g id="Node000012" class="node">
<title>Node12</title>
<g id="a_Node000012"><a xlink:href="class_big_data_stat_meth_1_1hdf5_dataset.html#af3ab7117b94164ab629673cacd896dd9" target="_top" xlink:title="Get the current compression level for this dataset instance.">
<polygon fill="white" stroke="#666666" points="527.25,-177.5 377,-177.5 377,-147 527.25,-147 527.25,-177.5"/>
<text xml:space="preserve" text-anchor="start" x="385" y="-164" font-family="Helvetica,sans-Serif" font-size="10.00">BigDataStatMeth::hdf5Dataset</text>
<text xml:space="preserve" text-anchor="middle" x="452.12" y="-152.75" font-family="Helvetica,sans-Serif" font-size="10.00">::getCompressionLevel</text>
</a>
</g>
</g>
<!-- Node11&#45;&gt;Node12 -->
<g id="edge12_Node000011_Node000012" class="edge">
<title>Node11&#45;&gt;Node12</title>
<g id="a_edge12_Node000011_Node000012"><a xlink:title=" ">
<path fill="none" stroke="#63b8ff" d="M334.98,-162.25C344.97,-162.25 355.26,-162.25 365.4,-162.25"/>
<polygon fill="#63b8ff" stroke="#63b8ff" points="365.23,-165.75 375.23,-162.25 365.23,-158.75 365.23,-165.75"/>
</a>
</g>
</g>
<!-- Node13 -->
<g id="Node000013" class="node">
<title>Node13</title>
<g id="a_Node000013"><a xlink:href="class_big_data_stat_meth_1_1hdf5_dataset.html#ac979eba40078c7c5974b64b2ce6347a3" target="_top" xlink:title="Get dataset name.">
<polygon fill="white" stroke="#666666" points="527.25,-128.5 377,-128.5 377,-98 527.25,-98 527.25,-128.5"/>
<text xml:space="preserve" text-anchor="start" x="385" y="-115" font-family="Helvetica,sans-Serif" font-size="10.00">BigDataStatMeth::hdf5Dataset</text>
<text xml:space="preserve" text-anchor="middle" x="452.12" y="-103.75" font-family="Helvetica,sans-Serif" font-size="10.00">::getDatasetName</text>
</a>
</g>
</g>
<!-- Node11&#45;&gt;Node13 -->
<g id="edge13_Node000011_Node000013" class="edge">
<title>Node11&#45;&gt;Node13</title>
<g id="a_edge13_Node000011_Node000013"><a xlink:title=" ">
<path fill="none" stroke="#63b8ff" d="M320.33,-146.54C338.81,-141.84 359.24,-136.64 378.36,-131.77"/>
<polygon fill="#63b8ff" stroke="#63b8ff" points="379.15,-135.18 387.97,-129.32 377.42,-128.4 379.15,-135.18"/>
</a>
</g>
</g>
<!-- Node14 -->
<g id="Node000014" class="node">
<title>Node14</title>
<g id="a_Node000014"><a xlink:href="class_big_data_stat_meth_1_1hdf5_file.html#a2d2bd792aa9c01e459312e6727cde8af" target="_top" xlink:title="Get full file path.">
<polygon fill="white" stroke="#666666" points="517.88,-79.5 386.38,-79.5 386.38,-49 517.88,-49 517.88,-79.5"/>
<text xml:space="preserve" text-anchor="start" x="394.38" y="-66" font-family="Helvetica,sans-Serif" font-size="10.00">BigDataStatMeth::hdf5File</text>
<text xml:space="preserve" text-anchor="middle" x="452.12" y="-54.75" font-family="Helvetica,sans-Serif" font-size="10.00">::getFullPath</text>
</a>
</g>
</g>
<!-- Node11&#45;&gt;Node14 -->
<g id="edge14_Node000011_Node000014" class="edge">
<title>Node11&#45;&gt;Node14</title>
<g id="a_edge14_Node000011_Node000014"><a xlink:title=" ">
<path fill="none" stroke="#63b8ff" d="M280.46,-146.67C303.59,-130.69 341.59,-105.87 377,-89.25 380.79,-87.47 384.74,-85.76 388.76,-84.12"/>
<polygon fill="#63b8ff" stroke="#63b8ff" points="390.01,-87.39 398.08,-80.52 387.49,-80.86 390.01,-87.39"/>
</a>
</g>
</g>
<!-- Node15 -->
<g id="Node000015" class="node">
<title>Node15</title>
<g id="a_Node000015"><a xlink:href="class_big_data_stat_meth_1_1hdf5_dataset.html#af4869e54b1d4c01ab4caacf1939e1907" target="_top" xlink:title="Get group name.">
<polygon fill="white" stroke="#666666" points="527.25,-30.5 377,-30.5 377,0 527.25,0 527.25,-30.5"/>
<text xml:space="preserve" text-anchor="start" x="385" y="-17" font-family="Helvetica,sans-Serif" font-size="10.00">BigDataStatMeth::hdf5Dataset</text>
<text xml:space="preserve" text-anchor="middle" x="452.12" y="-5.75" font-family="Helvetica,sans-Serif" font-size="10.00">::getGroup</text>
</a>
</g>
</g>
<!-- Node11&#45;&gt;Node15 -->
<g id="edge15_Node000011_Node000015" class="edge">
<title>Node11&#45;&gt;Node15</title>
<g id="a_edge15_Node000011_Node000015"><a xlink:title=" ">
<path fill="none" stroke="#63b8ff" d="M269.62,-146.86C288.68,-121.22 330.33,-69.7 377,-40.25 379.55,-38.64 382.22,-37.12 384.96,-35.69"/>
<polygon fill="#63b8ff" stroke="#63b8ff" points="386.23,-38.96 393.78,-31.53 383.24,-32.63 386.23,-38.96"/>
</a>
</g>
</g>
<!-- Node16 -->
<g id="Node000016" class="node">
<title>Node16</title>
<g id="a_Node000016"><a xlink:href="class_big_data_stat_meth_1_1hdf5_group.html#a59995412538627e6c80f64b552c286f5" target="_top" xlink:title=" ">
<polygon fill="white" stroke="#666666" points="719.88,-30.5 577.88,-30.5 577.88,0 719.88,0 719.88,-30.5"/>
<text xml:space="preserve" text-anchor="start" x="585.88" y="-17" font-family="Helvetica,sans-Serif" font-size="10.00">BigDataStatMeth::hdf5Group</text>
<text xml:space="preserve" text-anchor="middle" x="648.88" y="-5.75" font-family="Helvetica,sans-Serif" font-size="10.00">::getGroupName</text>
</a>
</g>
</g>
<!-- Node15&#45;&gt;Node16 -->
<g id="edge16_Node000015_Node000016" class="edge">
<title>Node15&#45;&gt;Node16</title>
<g id="a_edge16_Node000015_Node000016"><a xlink:title=" ">
<path fill="none" stroke="#63b8ff" d="M527.59,-15.25C540.29,-15.25 553.55,-15.25 566.43,-15.25"/>
<polygon fill="#63b8ff" stroke="#63b8ff" points="566.11,-18.75 576.11,-15.25 566.11,-11.75 566.11,-18.75"/>
</a>
</g>
</g>
<!-- Node17&#45;&gt;Node5 -->
<g id="edge21_Node000017_Node000005" class="edge">
<title>Node17&#45;&gt;Node5</title>
<g id="a_edge21_Node000017_Node000005"><a xlink:title=" ">
<path fill="none" stroke="#63b8ff" d="M320.33,-275.96C338.81,-280.66 359.24,-285.86 378.36,-290.73"/>
<polygon fill="#63b8ff" stroke="#63b8ff" points="377.42,-294.1 387.97,-293.18 379.15,-287.32 377.42,-294.1"/>
</a>
</g>
</g>
<!-- Node17&#45;&gt;Node7 -->
<g id="edge22_Node000017_Node000007" class="edge">
<title>Node17&#45;&gt;Node7</title>
<g id="a_edge22_Node000017_Node000007"><a xlink:title=" ">
<path fill="none" stroke="#63b8ff" d="M326.49,-260.25C339.05,-260.25 352.32,-260.25 365.33,-260.25"/>
<polygon fill="#63b8ff" stroke="#63b8ff" points="365.15,-263.75 375.15,-260.25 365.15,-256.75 365.15,-263.75"/>
</a>
</g>
</g>
<!-- Node18 -->
<g id="Node000018" class="node">
<title>Node18</title>
<g id="a_Node000018"><a xlink:href="class_big_data_stat_meth_1_1hdf5_dataset.html#a6cbce676967d0cc4b50e2cc5282c322b" target="_top" xlink:title="Get number of rows in internal format.">
<polygon fill="white" stroke="#666666" points="527.25,-226.5 377,-226.5 377,-196 527.25,-196 527.25,-226.5"/>
<text xml:space="preserve" text-anchor="start" x="385" y="-213" font-family="Helvetica,sans-Serif" font-size="10.00">BigDataStatMeth::hdf5Dataset</text>
<text xml:space="preserve" text-anchor="middle" x="452.12" y="-201.75" font-family="Helvetica,sans-Serif" font-size="10.00">::nrows</text>
</a>
</g>
</g>
<!-- Node17&#45;&gt;Node18 -->
<g id="edge20_Node000017_Node000018" class="edge">
<title>Node17&#45;&gt;Node18</title>
<g id="a_edge20_Node000017_Node000018"><a xlink:title=" ">
<path fill="none" stroke="#63b8ff" d="M320.33,-244.54C338.81,-239.84 359.24,-234.64 378.36,-229.77"/>
<polygon fill="#63b8ff" stroke="#63b8ff" points="379.15,-233.18 387.97,-227.32 377.42,-226.4 379.15,-233.18"/>
</a>
</g>
</g>
</g>
</svg>

<g id="navigator" transform="translate(0 0)" fill="#404254">
  <rect fill="#f2f5e9" fill-opacity="0.5" stroke="#606060" stroke-width=".5" x="0" y="0" width="60" height="60"/>
  <use id="zoomplus" xlink:href="#zoomPlus" x="17" y="9" onmousedown="handleZoom(evt,'in')"/>
  <use id="zoomminus" xlink:href="#zoomMin" x="42" y="9" onmousedown="handleZoom(evt,'out')"/>
  <use id="reset" xlink:href="#resetDef" x="30" y="36" onmousedown="handleReset()"/>
   <use id="arrowup" xlink:href="#arrowUp" x="0" y="0" onmousedown="handlePan(0,-1)"/>
  <use id="arrowright" xlink:href="#arrowRight" x="0" y="0" onmousedown="handlePan(1,0)"/>
  <use id="arrowdown" xlink:href="#arrowDown" x="0" y="0" onmousedown="handlePan(0,1)"/>
  <use id="arrowleft" xlink:href="#arrowLeft" x="0" y="0" onmousedown="handlePan(-1,0)"/>
</g>
<svg viewBox="0 0 15 15" width="100%" height="30px" preserveAspectRatio="xMaxYMin meet">
 <g id="arrow_out" transform="scale(0.3 0.3)">
  <a xlink:href="namespace_big_data_stat_meth_aab45c43d2e92d51d5ea45083e65a4177_cgraph_org.svg" target="_base">
   <rect id="button" ry="5" rx="5" y="6" x="6" height="38" width="38"
        fill="#f2f5e9" fill-opacity="0.5" stroke="#606060" stroke-width="1.0"/>
   <path id="arrow"
     d="M 11.500037,31.436501 C 11.940474,20.09759 22.043105,11.32322 32.158766,21.979434 L 37.068811,17.246167 C 37.068811,17.246167 37.088388,32 37.088388,32 L 22.160133,31.978069 C 22.160133,31.978069 26.997745,27.140456 26.997745,27.140456 C 18.528582,18.264221 13.291696,25.230495 11.500037,31.436501 z"
     style="fill:#404040;"/>
  </a>
 </g>
</svg>

<style type='text/css'>
<![CDATA[
[data-mouse-over-selected='false'] { opacity: 0.7; }
[data-mouse-over-selected='true']  { opacity: 1.0; }
]]>
</style>
<script type="application/ecmascript"><![CDATA[
document.addEventListener('DOMContentLoaded', (event) => {
  highlightEdges();
  highlightAdjacentNodes();
});
]]></script>
</svg>
