<?xml version="1.0" encoding="UTF-8" standalone="no"?>
<!DOCTYPE svg PUBLIC "-//W3C//DTD SVG 1.1//EN"
 "http://www.w3.org/Graphics/SVG/1.1/DTD/svg11.dtd">
<!-- Generated by graphviz version 14.0.0 (20250921.2048)
 -->
<!-- Title: BigDataStatMeth::Cholesky_decomposition_hdf5 Pages: 1 -->
<!--zoomable 727 -->

<svg id="main" version="1.1" xmlns="http://www.w3.org/2000/svg" xmlns:xlink="http://www.w3.org/1999/xlink" xml:space="preserve" onload="init(evt)">

<style type="text/css"><![CDATA[
.node, .edge {opacity: 0.7;}
.node.selected, .edge.selected {opacity: 1;}
.edge:hover path { stroke: red; }
.edge:hover polygon { stroke: red; fill: red; }
]]></style>

<defs>
  <circle id="rim" cx="0" cy="0" r="7"/>
  <circle id="rim2" cx="0" cy="0" r="3.5"/>
  <g id="zoomPlus">
    <use xlink:href="#rim" fill="#404040"><set attributeName="fill" to="#808080" begin="zoomplus.mouseover" end="zoomplus.mouseout"/></use>
    <path d="M-4,0h8M0,-4v8" fill="none" stroke="white" stroke-width="1.5" pointer-events="none"/>
  </g>
  <g id="zoomMin">
    <use xlink:href="#rim" fill="#404040"><set attributeName="fill" to="#808080" begin="zoomminus.mouseover" end="zoomminus.mouseout"/></use>
    <path d="M-4,0h8" fill="none" stroke="white" stroke-width="1.5" pointer-events="none"/>
  </g>
  <g id="arrowUp" transform="translate(30 24)">
    <use xlink:href="#rim"/>
    <path pointer-events="none" fill="none" stroke="white" stroke-width="1.5" d="M0,-3.0v7 M-2.5,-0.5L0,-3.0L2.5,-0.5"/>
  </g>
  <g id="arrowRight" transform="rotate(90) translate(36 -43)">
    <use xlink:href="#rim"/>
    <path pointer-events="none" fill="none" stroke="white" stroke-width="1.5" d="M0,-3.0v7 M-2.5,-0.5L0,-3.0L2.5,-0.5"/>
  </g>
  <g id="arrowDown" transform="rotate(180) translate(-30 -48)">
    <use xlink:href="#rim"/>
    <path pointer-events="none" fill="none" stroke="white" stroke-width="1.5" d="M0,-3.0v7 M-2.5,-0.5L0,-3.0L2.5,-0.5"/>
  </g>
  <g id="arrowLeft" transform="rotate(270) translate(-36 17)">
    <use xlink:href="#rim"/>
    <path pointer-events="none" fill="none" stroke="white" stroke-width="1.5" d="M0,-3.0v7 M-2.5,-0.5L0,-3.0L2.5,-0.5"/>
  </g>
  <g id="resetDef">
    <use xlink:href="#rim2" fill="#404040"><set attributeName="fill" to="#808080" begin="reset.mouseover" end="reset.mouseout"/></use>
  </g>
</defs>
<script type="application/ecmascript">
var viewWidth = 945;
var viewHeight = 727;
var sectionId = 'dynsection-7';
</script>
<script type="application/ecmascript" xlink:href="../../../../assets/svg.min.js"/>
<svg id="graph" class="graph">
<g id="viewport">
<title>BigDataStatMeth::Cholesky_decomposition_hdf5</title>
<!-- Node1 -->
<g id="Node000001" class="node">
<title>Node1</title>
<g id="a_Node000001"><a xlink:title="Performs Cholesky decomposition with automatic algorithm selection.">
<polygon fill="#999999" stroke="#666666" points="138.25,-466.5 0,-466.5 0,-436 138.25,-436 138.25,-466.5"/>
<text xml:space="preserve" text-anchor="start" x="8" y="-453" font-family="Helvetica,sans-Serif" font-size="10.00">BigDataStatMeth::Cholesky</text>
<text xml:space="preserve" text-anchor="middle" x="69.12" y="-441.75" font-family="Helvetica,sans-Serif" font-size="10.00">_decomposition_hdf5</text>
</a>
</g>
</g>
<!-- Node2 -->
<g id="Node000002" class="node">
<title>Node2</title>
<g id="a_Node000002"><a xlink:href="namespace_big_data_stat_meth.html#a6474d6e774e790655800beb3a03a4f42" target="_top" xlink:title="Performs Cholesky decomposition on a matrix stored in HDF5 format.">
<polygon fill="white" stroke="#666666" points="341,-620.5 174.25,-620.5 174.25,-590 341,-590 341,-620.5"/>
<text xml:space="preserve" text-anchor="start" x="182.25" y="-607" font-family="Helvetica,sans-Serif" font-size="10.00">BigDataStatMeth::Cholesky</text>
<text xml:space="preserve" text-anchor="middle" x="257.62" y="-595.75" font-family="Helvetica,sans-Serif" font-size="10.00">_decomposition_intermediate_hdf5</text>
</a>
</g>
</g>
<!-- Node1&#45;&gt;Node2 -->
<g id="edge1_Node000001_Node000002" class="edge">
<title>Node1&#45;&gt;Node2</title>
<g id="a_edge1_Node000001_Node000002"><a xlink:title=" ">
<path fill="none" stroke="#63b8ff" d="M89.03,-466.86C122.13,-494.19 190.66,-550.78 229.05,-582.48"/>
<polygon fill="#63b8ff" stroke="#63b8ff" points="226.56,-584.96 236.5,-588.63 231.02,-579.57 226.56,-584.96"/>
</a>
</g>
</g>
<!-- Node12 -->
<g id="Node000012" class="node">
<title>Node12</title>
<g id="a_Node000012"><a xlink:href="namespace_big_data_stat_meth.html#acc7302fb99432acf666987d6a505bee6" target="_top" xlink:title="Out&#45;of&#45;core Cholesky decomposition for large matrices using tiled algorithm.">
<polygon fill="white" stroke="#666666" points="334.62,-337.5 180.62,-337.5 180.62,-307 334.62,-307 334.62,-337.5"/>
<text xml:space="preserve" text-anchor="start" x="188.62" y="-324" font-family="Helvetica,sans-Serif" font-size="10.00">BigDataStatMeth::Cholesky</text>
<text xml:space="preserve" text-anchor="middle" x="257.62" y="-312.75" font-family="Helvetica,sans-Serif" font-size="10.00">_decomposition_outofcore_hdf5</text>
</a>
</g>
</g>
<!-- Node1&#45;&gt;Node12 -->
<g id="edge12_Node000001_Node000012" class="edge">
<title>Node1&#45;&gt;Node12</title>
<g id="a_edge12_Node000001_Node000012"><a xlink:title=" ">
<path fill="none" stroke="#63b8ff" d="M92.62,-435.69C125.67,-412.83 187.47,-370.08 225.05,-344.09"/>
<polygon fill="#63b8ff" stroke="#63b8ff" points="226.57,-347.29 232.8,-338.73 222.59,-341.54 226.57,-347.29"/>
</a>
</g>
</g>
<!-- Node3 -->
<g id="Node000003" class="node">
<title>Node3</title>
<g id="a_Node000003"><a xlink:href="namespace_big_data_stat_meth.html#a304b42b14ec87d4acc6f34ff0231529d" target="_top" xlink:title="Safely close any number of dataset handles (C++17).">
<polygon fill="white" stroke="#666666" points="543.75,-706.88 377,-706.88 377,-687.62 543.75,-687.62 543.75,-706.88"/>
<text xml:space="preserve" text-anchor="middle" x="460.38" y="-693.38" font-family="Helvetica,sans-Serif" font-size="10.00">BigDataStatMeth::checkClose_file</text>
</a>
</g>
</g>
<!-- Node2&#45;&gt;Node3 -->
<g id="edge2_Node000002_Node000003" class="edge">
<title>Node2&#45;&gt;Node3</title>
<g id="a_edge2_Node000002_Node000003"><a xlink:title=" ">
<path fill="none" stroke="#63b8ff" d="M279.31,-620.93C302.09,-637.48 340.37,-663.21 377,-678.25 382.29,-680.42 387.89,-682.38 393.57,-684.13"/>
<polygon fill="#63b8ff" stroke="#63b8ff" points="392.5,-687.46 403.08,-686.83 394.41,-680.73 392.5,-687.46"/>
</a>
</g>
</g>
<!-- Node4 -->
<g id="Node000004" class="node">
<title>Node4</title>
<g id="a_Node000004"><a xlink:href="namespace_big_data_stat_meth.html#abcd544ed5db12dd03f79bca0a8f31ca5" target="_top" xlink:title="Calculates optimal block size for memory&#45;efficient matrix operations.">
<polygon fill="white" stroke="#666666" points="532.5,-669.5 388.25,-669.5 388.25,-639 532.5,-639 532.5,-669.5"/>
<text xml:space="preserve" text-anchor="start" x="396.25" y="-656" font-family="Helvetica,sans-Serif" font-size="10.00">BigDataStatMeth::getOptimal</text>
<text xml:space="preserve" text-anchor="middle" x="460.38" y="-644.75" font-family="Helvetica,sans-Serif" font-size="10.00">BlockElements</text>
</a>
</g>
</g>
<!-- Node2&#45;&gt;Node4 -->
<g id="edge3_Node000002_Node000004" class="edge">
<title>Node2&#45;&gt;Node4</title>
<g id="a_edge3_Node000002_Node000004"><a xlink:title=" ">
<path fill="none" stroke="#63b8ff" d="M322.97,-620.96C342.42,-625.7 363.95,-630.96 384.05,-635.86"/>
<polygon fill="#63b8ff" stroke="#63b8ff" points="383.03,-639.22 393.58,-638.19 384.69,-632.42 383.03,-639.22"/>
</a>
</g>
</g>
<!-- Node6 -->
<g id="Node000006" class="node">
<title>Node6</title>
<g id="a_Node000006"><a xlink:href="class_big_data_stat_meth_1_1hdf5_dataset.html#a23bea87165b8ef6b944709c5b2cbd0cf" target="_top" xlink:title=" ">
<polygon fill="white" stroke="#666666" points="535.5,-620.5 385.25,-620.5 385.25,-590 535.5,-590 535.5,-620.5"/>
<text xml:space="preserve" text-anchor="start" x="393.25" y="-607" font-family="Helvetica,sans-Serif" font-size="10.00">BigDataStatMeth::hdf5Dataset</text>
<text xml:space="preserve" text-anchor="middle" x="460.38" y="-595.75" font-family="Helvetica,sans-Serif" font-size="10.00">::readDatasetBlock</text>
</a>
</g>
</g>
<!-- Node2&#45;&gt;Node6 -->
<g id="edge5_Node000002_Node000006" class="edge">
<title>Node2&#45;&gt;Node6</title>
<g id="a_edge5_Node000002_Node000006"><a xlink:title=" ">
<path fill="none" stroke="#63b8ff" d="M341.44,-605.25C351.99,-605.25 362.8,-605.25 373.4,-605.25"/>
<polygon fill="#63b8ff" stroke="#63b8ff" points="373.28,-608.75 383.28,-605.25 373.28,-601.75 373.28,-608.75"/>
</a>
</g>
</g>
<!-- Node8 -->
<g id="Node000008" class="node">
<title>Node8</title>
<g id="a_Node000008"><a xlink:href="class_big_data_stat_meth_1_1hdf5_dataset.html#af606176d84a63561b65702b6fde3a583" target="_top" xlink:title="Write block of data with optional transposition.">
<polygon fill="white" stroke="#666666" points="535.5,-571.5 385.25,-571.5 385.25,-541 535.5,-541 535.5,-571.5"/>
<text xml:space="preserve" text-anchor="start" x="393.25" y="-558" font-family="Helvetica,sans-Serif" font-size="10.00">BigDataStatMeth::hdf5Dataset</text>
<text xml:space="preserve" text-anchor="middle" x="460.38" y="-546.75" font-family="Helvetica,sans-Serif" font-size="10.00">::writeDatasetBlock</text>
</a>
</g>
</g>
<!-- Node2&#45;&gt;Node8 -->
<g id="edge7_Node000002_Node000008" class="edge">
<title>Node2&#45;&gt;Node8</title>
<g id="a_edge7_Node000002_Node000008"><a xlink:title=" ">
<path fill="none" stroke="#63b8ff" d="M322.97,-589.54C342.42,-584.8 363.95,-579.54 384.05,-574.64"/>
<polygon fill="#63b8ff" stroke="#63b8ff" points="384.69,-578.08 393.58,-572.31 383.03,-571.28 384.69,-578.08"/>
</a>
</g>
</g>
<!-- Node5 -->
<g id="Node000005" class="node">
<title>Node5</title>
<g id="a_Node000005"><a xlink:href="namespace_big_data_stat_meth.html#a8a3d5e267930c906cce28346886f07bc" target="_top" xlink:title="Detects available system memory using R&#45;compatible methods.">
<polygon fill="white" stroke="#666666" points="740.5,-718.5 590.25,-718.5 590.25,-688 740.5,-688 740.5,-718.5"/>
<text xml:space="preserve" text-anchor="start" x="598.25" y="-705" font-family="Helvetica,sans-Serif" font-size="10.00">BigDataStatMeth::getAvailable</text>
<text xml:space="preserve" text-anchor="middle" x="665.38" y="-693.75" font-family="Helvetica,sans-Serif" font-size="10.00">MemoryMB</text>
</a>
</g>
</g>
<!-- Node4&#45;&gt;Node5 -->
<g id="edge4_Node000004_Node000005" class="edge">
<title>Node4&#45;&gt;Node5</title>
<g id="a_edge4_Node000004_Node000005"><a xlink:title=" ">
<path fill="none" stroke="#63b8ff" d="M526.44,-669.96C546.11,-674.7 567.88,-679.96 588.21,-684.86"/>
<polygon fill="#63b8ff" stroke="#63b8ff" points="587.31,-688.25 597.86,-687.19 588.96,-681.44 587.31,-688.25"/>
</a>
</g>
</g>
<!-- Node7 -->
<g id="Node000007" class="node">
<title>Node7</title>
<g id="a_Node000007"><a xlink:href="class_big_data_stat_meth_1_1hdf5_dataset.html#aba39e56a580d3b1fa7f1619fc72efa3e" target="_top" xlink:title="Close dataset and file.">
<polygon fill="white" stroke="#666666" points="740.5,-669.5 590.25,-669.5 590.25,-639 740.5,-639 740.5,-669.5"/>
<text xml:space="preserve" text-anchor="start" x="598.25" y="-656" font-family="Helvetica,sans-Serif" font-size="10.00">BigDataStatMeth::hdf5Dataset</text>
<text xml:space="preserve" text-anchor="middle" x="665.38" y="-644.75" font-family="Helvetica,sans-Serif" font-size="10.00">::close_dataset_file</text>
</a>
</g>
</g>
<!-- Node6&#45;&gt;Node7 -->
<g id="edge6_Node000006_Node000007" class="edge">
<title>Node6&#45;&gt;Node7</title>
<g id="a_edge6_Node000006_Node000007"><a xlink:title=" ">
<path fill="none" stroke="#63b8ff" d="M526.44,-620.96C546.11,-625.7 567.88,-630.96 588.21,-635.86"/>
<polygon fill="#63b8ff" stroke="#63b8ff" points="587.31,-639.25 597.86,-638.19 588.96,-632.44 587.31,-639.25"/>
</a>
</g>
</g>
<!-- Node8&#45;&gt;Node7 -->
<g id="edge9_Node000008_Node000007" class="edge">
<title>Node8&#45;&gt;Node7</title>
<g id="a_edge9_Node000008_Node000007"><a xlink:title=" ">
<path fill="none" stroke="#63b8ff" d="M527.05,-571.9C532.94,-574.56 538.61,-577.65 543.75,-581.25 565.59,-596.55 557.85,-614.03 579.75,-629.25 581.85,-630.71 584.03,-632.08 586.27,-633.37"/>
<polygon fill="#63b8ff" stroke="#63b8ff" points="584.63,-636.46 595.13,-637.87 587.8,-630.22 584.63,-636.46"/>
</a>
</g>
</g>
<!-- Node9 -->
<g id="Node000009" class="node">
<title>Node9</title>
<g id="a_Node000009"><a xlink:href="class_big_data_stat_meth_1_1hdf5_dataset.html#a64177ae924792ea9e557febaa95ed400" target="_top" xlink:title="Close the dataset.">
<polygon fill="white" stroke="#666666" points="740.5,-571.5 590.25,-571.5 590.25,-541 740.5,-541 740.5,-571.5"/>
<text xml:space="preserve" text-anchor="start" x="598.25" y="-558" font-family="Helvetica,sans-Serif" font-size="10.00">BigDataStatMeth::hdf5Dataset</text>
<text xml:space="preserve" text-anchor="middle" x="665.38" y="-546.75" font-family="Helvetica,sans-Serif" font-size="10.00">::close_dataset</text>
</a>
</g>
</g>
<!-- Node8&#45;&gt;Node9 -->
<g id="edge8_Node000008_Node000009" class="edge">
<title>Node8&#45;&gt;Node9</title>
<g id="a_edge8_Node000008_Node000009"><a xlink:title=" ">
<path fill="none" stroke="#63b8ff" d="M535.81,-556.25C549.74,-556.25 564.4,-556.25 578.64,-556.25"/>
<polygon fill="#63b8ff" stroke="#63b8ff" points="578.43,-559.75 588.43,-556.25 578.43,-552.75 578.43,-559.75"/>
</a>
</g>
</g>
<!-- Node10 -->
<g id="Node000010" class="node">
<title>Node10</title>
<g id="a_Node000010"><a xlink:href="class_big_data_stat_meth_1_1hdf5_dataset.html#a94d81b72e92cb0230b4e64f37ea7d2e3" target="_top" xlink:title="Convert DataFrame to range list.">
<polygon fill="white" stroke="#666666" points="751,-620.5 579.75,-620.5 579.75,-590 751,-590 751,-620.5"/>
<text xml:space="preserve" text-anchor="start" x="587.75" y="-607" font-family="Helvetica,sans-Serif" font-size="10.00">BigDataStatMeth::hdf5Dataset</text>
<text xml:space="preserve" text-anchor="middle" x="665.38" y="-595.75" font-family="Helvetica,sans-Serif" font-size="10.00">::convert_DataFrame_to_RangeList</text>
</a>
</g>
</g>
<!-- Node8&#45;&gt;Node10 -->
<g id="edge10_Node000008_Node000010" class="edge">
<title>Node8&#45;&gt;Node10</title>
<g id="a_edge10_Node000008_Node000010"><a xlink:title=" ">
<path fill="none" stroke="#63b8ff" d="M526.44,-571.96C546.11,-576.7 567.88,-581.96 588.21,-586.86"/>
<polygon fill="#63b8ff" stroke="#63b8ff" points="587.31,-590.25 597.86,-589.19 588.96,-583.44 587.31,-590.25"/>
</a>
</g>
</g>
<!-- Node11 -->
<g id="Node000011" class="node">
<title>Node11</title>
<g id="a_Node000011"><a xlink:href="namespace_big_data_stat_meth.html#a2692707b3ea4aaafa09d07afaf632437" target="_top" xlink:title="Transposes a 2D matrix.">
<polygon fill="white" stroke="#666666" points="735.25,-522.88 595.5,-522.88 595.5,-503.62 735.25,-503.62 735.25,-522.88"/>
<text xml:space="preserve" text-anchor="middle" x="665.38" y="-509.38" font-family="Helvetica,sans-Serif" font-size="10.00">BigDataStatMeth::transpose</text>
</a>
</g>
</g>
<!-- Node8&#45;&gt;Node11 -->
<g id="edge11_Node000008_Node000011" class="edge">
<title>Node8&#45;&gt;Node11</title>
<g id="a_edge11_Node000008_Node000011"><a xlink:title=" ">
<path fill="none" stroke="#63b8ff" d="M535.52,-540.54C558.58,-535.66 583.66,-530.35 605.52,-525.72"/>
<polygon fill="#63b8ff" stroke="#63b8ff" points="606.09,-529.17 615.15,-523.68 604.64,-522.33 606.09,-529.17"/>
</a>
</g>
</g>
<!-- Node12&#45;&gt;Node6 -->
<g id="edge29_Node000012_Node000006" class="edge">
<title>Node12&#45;&gt;Node6</title>
<g id="a_edge29_Node000012_Node000006"><a xlink:title=" ">
<path fill="none" stroke="#63b8ff" d="M261.22,-337.97C269.47,-382.8 299.22,-512.36 377,-580.25 378.43,-581.5 379.93,-582.69 381.47,-583.82"/>
<polygon fill="#63b8ff" stroke="#63b8ff" points="379.19,-586.52 389.53,-588.85 382.9,-580.58 379.19,-586.52"/>
</a>
</g>
</g>
<!-- Node12&#45;&gt;Node8 -->
<g id="edge35_Node000012_Node000008" class="edge">
<title>Node12&#45;&gt;Node8</title>
<g id="a_edge35_Node000012_Node000008"><a xlink:title=" ">
<path fill="none" stroke="#63b8ff" d="M272.11,-337.97C306.47,-378.01 397.48,-484.1 438.64,-532.08"/>
<polygon fill="#63b8ff" stroke="#63b8ff" points="435.8,-534.14 444.96,-539.45 441.11,-529.58 435.8,-534.14"/>
</a>
</g>
</g>
<!-- Node13 -->
<g id="Node000013" class="node">
<title>Node13</title>
<g id="a_Node000013"><a xlink:href="class_big_data_stat_meth_1_1hdf5_dataset_internal.html#a910815c29fe20912239251623c5e3251" target="_top" xlink:title="Create a new internal dataset with optional compression.">
<polygon fill="white" stroke="#666666" points="535.5,-263.5 385.25,-263.5 385.25,-233 535.5,-233 535.5,-263.5"/>
<text xml:space="preserve" text-anchor="start" x="393.25" y="-250" font-family="Helvetica,sans-Serif" font-size="10.00">BigDataStatMeth::hdf5Dataset</text>
<text xml:space="preserve" text-anchor="middle" x="460.38" y="-238.75" font-family="Helvetica,sans-Serif" font-size="10.00">Internal::createDataset</text>
</a>
</g>
</g>
<!-- Node12&#45;&gt;Node13 -->
<g id="edge13_Node000012_Node000013" class="edge">
<title>Node12&#45;&gt;Node13</title>
<g id="a_edge13_Node000012_Node000013"><a xlink:title=" ">
<path fill="none" stroke="#63b8ff" d="M294.01,-306.54C317.35,-296.44 348.73,-283.36 377,-273.25 382.63,-271.24 388.51,-269.24 394.43,-267.31"/>
<polygon fill="#63b8ff" stroke="#63b8ff" points="395.17,-270.75 403.63,-264.37 393.04,-264.08 395.17,-270.75"/>
</a>
</g>
</g>
<!-- Node23 -->
<g id="Node000023" class="node">
<title>Node23</title>
<g id="a_Node000023"><a xlink:href="class_big_data_stat_meth_1_1hdf5_dataset.html#ac979eba40078c7c5974b64b2ce6347a3" target="_top" xlink:title="Get dataset name.">
<polygon fill="white" stroke="#666666" points="535.5,-116.5 385.25,-116.5 385.25,-86 535.5,-86 535.5,-116.5"/>
<text xml:space="preserve" text-anchor="start" x="393.25" y="-103" font-family="Helvetica,sans-Serif" font-size="10.00">BigDataStatMeth::hdf5Dataset</text>
<text xml:space="preserve" text-anchor="middle" x="460.38" y="-91.75" font-family="Helvetica,sans-Serif" font-size="10.00">::getDatasetName</text>
</a>
</g>
</g>
<!-- Node12&#45;&gt;Node23 -->
<g id="edge24_Node000012_Node000023" class="edge">
<title>Node12&#45;&gt;Node23</title>
<g id="a_edge24_Node000012_Node000023"><a xlink:title=" ">
<path fill="none" stroke="#63b8ff" d="M263.65,-306.62C276.37,-269.55 313.46,-175.67 377,-126.25 378.73,-124.91 380.52,-123.64 382.38,-122.44"/>
<polygon fill="#63b8ff" stroke="#63b8ff" points="383.76,-125.67 390.75,-117.72 380.32,-119.58 383.76,-125.67"/>
</a>
</g>
</g>
<!-- Node24 -->
<g id="Node000024" class="node">
<title>Node24</title>
<g id="a_Node000024"><a xlink:href="class_big_data_stat_meth_1_1hdf5_dataset.html#ae7e94f6d05d1a6cff2d24ec3f1b18fca" target="_top" xlink:title="Get file name.">
<polygon fill="white" stroke="#666666" points="535.5,-165.5 385.25,-165.5 385.25,-135 535.5,-135 535.5,-165.5"/>
<text xml:space="preserve" text-anchor="start" x="393.25" y="-152" font-family="Helvetica,sans-Serif" font-size="10.00">BigDataStatMeth::hdf5Dataset</text>
<text xml:space="preserve" text-anchor="middle" x="460.38" y="-140.75" font-family="Helvetica,sans-Serif" font-size="10.00">::getFileName</text>
</a>
</g>
</g>
<!-- Node12&#45;&gt;Node24 -->
<g id="edge25_Node000012_Node000024" class="edge">
<title>Node12&#45;&gt;Node24</title>
<g id="a_edge25_Node000012_Node000024"><a xlink:title=" ">
<path fill="none" stroke="#63b8ff" d="M266.82,-306.82C283.5,-276.9 324.31,-210.81 377,-175.25 379.25,-173.73 381.59,-172.31 384,-170.96"/>
<polygon fill="#63b8ff" stroke="#63b8ff" points="385.48,-174.14 392.9,-166.57 382.38,-167.86 385.48,-174.14"/>
</a>
</g>
</g>
<!-- Node26 -->
<g id="Node000026" class="node">
<title>Node26</title>
<g id="a_Node000026"><a xlink:href="class_big_data_stat_meth_1_1hdf5_dataset.html#af4869e54b1d4c01ab4caacf1939e1907" target="_top" xlink:title="Get group name.">
<polygon fill="white" stroke="#666666" points="535.5,-361.5 385.25,-361.5 385.25,-331 535.5,-331 535.5,-361.5"/>
<text xml:space="preserve" text-anchor="start" x="393.25" y="-348" font-family="Helvetica,sans-Serif" font-size="10.00">BigDataStatMeth::hdf5Dataset</text>
<text xml:space="preserve" text-anchor="middle" x="460.38" y="-336.75" font-family="Helvetica,sans-Serif" font-size="10.00">::getGroup</text>
</a>
</g>
</g>
<!-- Node12&#45;&gt;Node26 -->
<g id="edge27_Node000012_Node000026" class="edge">
<title>Node12&#45;&gt;Node26</title>
<g id="a_edge27_Node000012_Node000026"><a xlink:title=" ">
<path fill="none" stroke="#63b8ff" d="M335.09,-331.39C347.69,-332.9 360.82,-334.47 373.63,-336"/>
<polygon fill="#63b8ff" stroke="#63b8ff" points="372.93,-339.44 383.28,-337.15 373.76,-332.49 372.93,-339.44"/>
</a>
</g>
</g>
<!-- Node27 -->
<g id="Node000027" class="node">
<title>Node27</title>
<g id="a_Node000027"><a xlink:href="class_big_data_stat_meth_1_1hdf5_dataset_internal.html#ad96e4a35e00a9f908436172d63a125d8" target="_top" xlink:title="Read a block of data from internal dataset.">
<polygon fill="white" stroke="#666666" points="535.5,-214.5 385.25,-214.5 385.25,-184 535.5,-184 535.5,-214.5"/>
<text xml:space="preserve" text-anchor="start" x="393.25" y="-201" font-family="Helvetica,sans-Serif" font-size="10.00">BigDataStatMeth::hdf5Dataset</text>
<text xml:space="preserve" text-anchor="middle" x="460.38" y="-189.75" font-family="Helvetica,sans-Serif" font-size="10.00">Internal::readDatasetBlock</text>
</a>
</g>
</g>
<!-- Node12&#45;&gt;Node27 -->
<g id="edge30_Node000012_Node000027" class="edge">
<title>Node12&#45;&gt;Node27</title>
<g id="a_edge30_Node000012_Node000027"><a xlink:title=" ">
<path fill="none" stroke="#63b8ff" d="M273.25,-306.76C294.28,-285.33 335.17,-246.73 377,-224.25 380.39,-222.43 383.94,-220.72 387.57,-219.12"/>
<polygon fill="#63b8ff" stroke="#63b8ff" points="388.63,-222.46 396.58,-215.46 386,-215.98 388.63,-222.46"/>
</a>
</g>
</g>
<!-- Node28 -->
<g id="Node000028" class="node">
<title>Node28</title>
<g id="a_Node000028"><a xlink:href="class_big_data_stat_meth_1_1hdf5_dataset.html#a248d5e9f269b92ef906ab3f78b3e42d8" target="_top" xlink:title="Remove the dataset.">
<polygon fill="white" stroke="#666666" points="535.5,-312.5 385.25,-312.5 385.25,-282 535.5,-282 535.5,-312.5"/>
<text xml:space="preserve" text-anchor="start" x="393.25" y="-299" font-family="Helvetica,sans-Serif" font-size="10.00">BigDataStatMeth::hdf5Dataset</text>
<text xml:space="preserve" text-anchor="middle" x="460.38" y="-287.75" font-family="Helvetica,sans-Serif" font-size="10.00">::remove</text>
</a>
</g>
</g>
<!-- Node12&#45;&gt;Node28 -->
<g id="edge32_Node000012_Node000028" class="edge">
<title>Node12&#45;&gt;Node28</title>
<g id="a_edge32_Node000012_Node000028"><a xlink:title=" ">
<path fill="none" stroke="#63b8ff" d="M335.09,-312.73C347.69,-311.16 360.82,-309.52 373.63,-307.93"/>
<polygon fill="#63b8ff" stroke="#63b8ff" points="373.79,-311.44 383.28,-306.73 372.92,-304.49 373.79,-311.44"/>
</a>
</g>
</g>
<!-- Node29 -->
<g id="Node000029" class="node">
<title>Node29</title>
<g id="a_Node000029"><a xlink:href="class_big_data_stat_meth_1_1hdf5_dataset_internal.html#a4f988a5f93c2870e87c14d84f00e441c" target="_top" xlink:title="Write block of data to internal dataset.">
<polygon fill="white" stroke="#666666" points="535.5,-447.5 385.25,-447.5 385.25,-417 535.5,-417 535.5,-447.5"/>
<text xml:space="preserve" text-anchor="start" x="393.25" y="-434" font-family="Helvetica,sans-Serif" font-size="10.00">BigDataStatMeth::hdf5Dataset</text>
<text xml:space="preserve" text-anchor="middle" x="460.38" y="-422.75" font-family="Helvetica,sans-Serif" font-size="10.00">Internal::writeDatasetBlock</text>
</a>
</g>
</g>
<!-- Node12&#45;&gt;Node29 -->
<g id="edge36_Node000012_Node000029" class="edge">
<title>Node12&#45;&gt;Node29</title>
<g id="a_edge36_Node000012_Node000029"><a xlink:title=" ">
<path fill="none" stroke="#63b8ff" d="M286.96,-337.78C321.98,-356.97 381.74,-389.71 420.89,-411.16"/>
<polygon fill="#63b8ff" stroke="#63b8ff" points="419.08,-414.16 429.53,-415.9 422.44,-408.02 419.08,-414.16"/>
</a>
</g>
</g>
<!-- Node14 -->
<g id="Node000014" class="node">
<title>Node14</title>
<g id="a_Node000014"><a xlink:href="class_big_data_stat_meth_1_1hdf5_dataset.html#ac7a7f23b7e22c9b56ca6ad86592f2d52" target="_top" xlink:title="Add an attribute to the dataset.">
<polygon fill="white" stroke="#666666" points="740.5,-165.5 590.25,-165.5 590.25,-135 740.5,-135 740.5,-165.5"/>
<text xml:space="preserve" text-anchor="start" x="598.25" y="-152" font-family="Helvetica,sans-Serif" font-size="10.00">BigDataStatMeth::hdf5Dataset</text>
<text xml:space="preserve" text-anchor="middle" x="665.38" y="-140.75" font-family="Helvetica,sans-Serif" font-size="10.00">::addAttribute</text>
</a>
</g>
</g>
<!-- Node13&#45;&gt;Node14 -->
<g id="edge14_Node000013_Node000014" class="edge">
<title>Node13&#45;&gt;Node14</title>
<g id="a_edge14_Node000013_Node000014"><a xlink:title=" ">
<path fill="none" stroke="#63b8ff" d="M527.05,-232.6C532.94,-229.94 538.61,-226.85 543.75,-223.25 565.59,-207.95 557.85,-190.47 579.75,-175.25 581.85,-173.79 584.03,-172.42 586.27,-171.13"/>
<polygon fill="#63b8ff" stroke="#63b8ff" points="587.8,-174.28 595.13,-166.63 584.63,-168.04 587.8,-174.28"/>
</a>
</g>
</g>
<!-- Node15 -->
<g id="Node000015" class="node">
<title>Node15</title>
<g id="a_Node000015"><a xlink:href="class_big_data_stat_meth_1_1hdf5_group.html#a27cef4d33e46c72bfd792aa49fa621a3" target="_top" xlink:title="Create multiple nested groups.">
<polygon fill="white" stroke="#666666" points="736.38,-116.5 594.38,-116.5 594.38,-86 736.38,-86 736.38,-116.5"/>
<text xml:space="preserve" text-anchor="start" x="602.38" y="-103" font-family="Helvetica,sans-Serif" font-size="10.00">BigDataStatMeth::hdf5Group</text>
<text xml:space="preserve" text-anchor="middle" x="665.38" y="-91.75" font-family="Helvetica,sans-Serif" font-size="10.00">::create_HDF5_groups</text>
</a>
</g>
</g>
<!-- Node13&#45;&gt;Node15 -->
<g id="edge15_Node000013_Node000015" class="edge">
<title>Node13&#45;&gt;Node15</title>
<g id="a_edge15_Node000013_Node000015"><a xlink:title=" ">
<path fill="none" stroke="#63b8ff" d="M531.03,-232.54C535.63,-229.91 539.94,-226.83 543.75,-223.25 577.24,-191.74 546.15,-157.64 579.75,-126.25 581.35,-124.76 583.03,-123.36 584.78,-122.04"/>
<polygon fill="#63b8ff" stroke="#63b8ff" points="586.23,-125.27 592.77,-116.93 582.46,-119.37 586.23,-125.27"/>
</a>
</g>
</g>
<!-- Node17 -->
<g id="Node000017" class="node">
<title>Node17</title>
<g id="a_Node000017"><a xlink:href="namespace_big_data_stat_meth.html#a89d901ab4b5e01771f4e3fc7dc84e50e" target="_top" xlink:title="Checks if an HDF5 element (group or dataset) exists.">
<polygon fill="white" stroke="#666666" points="727,-214.5 603.75,-214.5 603.75,-184 727,-184 727,-214.5"/>
<text xml:space="preserve" text-anchor="start" x="611.75" y="-201" font-family="Helvetica,sans-Serif" font-size="10.00">BigDataStatMeth::exists</text>
<text xml:space="preserve" text-anchor="middle" x="665.38" y="-189.75" font-family="Helvetica,sans-Serif" font-size="10.00">_HDF5_element</text>
</a>
</g>
</g>
<!-- Node13&#45;&gt;Node17 -->
<g id="edge17_Node000013_Node000017" class="edge">
<title>Node13&#45;&gt;Node17</title>
<g id="a_edge17_Node000013_Node000017"><a xlink:title=" ">
<path fill="none" stroke="#63b8ff" d="M526.44,-232.54C547.48,-227.47 570.92,-221.81 592.42,-216.62"/>
<polygon fill="#63b8ff" stroke="#63b8ff" points="593.1,-220.06 602,-214.31 591.46,-213.25 593.1,-220.06"/>
</a>
</g>
</g>
<!-- Node18 -->
<g id="Node000018" class="node">
<title>Node18</title>
<g id="a_Node000018"><a xlink:href="class_big_data_stat_meth_1_1hdf5_group.html#a59995412538627e6c80f64b552c286f5" target="_top" xlink:title=" ">
<polygon fill="white" stroke="#666666" points="736.38,-361.5 594.38,-361.5 594.38,-331 736.38,-331 736.38,-361.5"/>
<text xml:space="preserve" text-anchor="start" x="602.38" y="-348" font-family="Helvetica,sans-Serif" font-size="10.00">BigDataStatMeth::hdf5Group</text>
<text xml:space="preserve" text-anchor="middle" x="665.38" y="-336.75" font-family="Helvetica,sans-Serif" font-size="10.00">::getGroupName</text>
</a>
</g>
</g>
<!-- Node13&#45;&gt;Node18 -->
<g id="edge19_Node000013_Node000018" class="edge">
<title>Node13&#45;&gt;Node18</title>
<g id="a_edge19_Node000013_Node000018"><a xlink:title=" ">
<path fill="none" stroke="#63b8ff" d="M527.05,-263.9C532.94,-266.56 538.61,-269.65 543.75,-273.25 565.59,-288.55 557.85,-306.03 579.75,-321.25 581.85,-322.71 584.03,-324.08 586.27,-325.37"/>
<polygon fill="#63b8ff" stroke="#63b8ff" points="584.63,-328.46 595.13,-329.87 587.8,-322.22 584.63,-328.46"/>
</a>
</g>
</g>
<!-- Node19 -->
<g id="Node000019" class="node">
<title>Node19</title>
<g id="a_Node000019"><a xlink:href="namespace_big_data_stat_meth.html#a3d06783149029f1df2853c472d401380" target="_top" xlink:title="Removes multiple elements from an HDF5 file.">
<polygon fill="white" stroke="#666666" points="730,-312.5 600.75,-312.5 600.75,-282 730,-282 730,-312.5"/>
<text xml:space="preserve" text-anchor="start" x="608.75" y="-299" font-family="Helvetica,sans-Serif" font-size="10.00">BigDataStatMeth::remove</text>
<text xml:space="preserve" text-anchor="middle" x="665.38" y="-287.75" font-family="Helvetica,sans-Serif" font-size="10.00">_elements</text>
</a>
</g>
</g>
<!-- Node13&#45;&gt;Node19 -->
<g id="edge20_Node000013_Node000019" class="edge">
<title>Node13&#45;&gt;Node19</title>
<g id="a_edge20_Node000013_Node000019"><a xlink:title=" ">
<path fill="none" stroke="#63b8ff" d="M526.44,-263.96C546.5,-268.8 568.74,-274.17 589.4,-279.15"/>
<polygon fill="#63b8ff" stroke="#63b8ff" points="588.36,-282.5 598.9,-281.45 590,-275.7 588.36,-282.5"/>
</a>
</g>
</g>
<!-- Node20 -->
<g id="Node000020" class="node">
<title>Node20</title>
<g id="a_Node000020"><a xlink:href="class_big_data_stat_meth_1_1hdf5_dataset_internal.html#a349b08ecc0bed2df5283e56fb9e9d178" target="_top" xlink:title="Write data to the internal dataset.">
<polygon fill="white" stroke="#666666" points="740.5,-263.5 590.25,-263.5 590.25,-233 740.5,-233 740.5,-263.5"/>
<text xml:space="preserve" text-anchor="start" x="598.25" y="-250" font-family="Helvetica,sans-Serif" font-size="10.00">BigDataStatMeth::hdf5Dataset</text>
<text xml:space="preserve" text-anchor="middle" x="665.38" y="-238.75" font-family="Helvetica,sans-Serif" font-size="10.00">Internal::writeDataset</text>
</a>
</g>
</g>
<!-- Node13&#45;&gt;Node20 -->
<g id="edge21_Node000013_Node000020" class="edge">
<title>Node13&#45;&gt;Node20</title>
<g id="a_edge21_Node000013_Node000020"><a xlink:title=" ">
<path fill="none" stroke="#63b8ff" d="M535.81,-248.25C549.74,-248.25 564.4,-248.25 578.64,-248.25"/>
<polygon fill="#63b8ff" stroke="#63b8ff" points="578.43,-251.75 588.43,-248.25 578.43,-244.75 578.43,-251.75"/>
</a>
</g>
</g>
<!-- Node16 -->
<g id="Node000016" class="node">
<title>Node16</title>
<g id="a_Node000016"><a xlink:href="namespace_big_data_stat_meth.html#abcaa4216cd52f03ebac42e4855ef846b" target="_top" xlink:title="Checks if a path exists in an HDF5 file.">
<polygon fill="white" stroke="#666666" points="933.88,-159.88 790.38,-159.88 790.38,-140.62 933.88,-140.62 933.88,-159.88"/>
<text xml:space="preserve" text-anchor="middle" x="862.12" y="-146.38" font-family="Helvetica,sans-Serif" font-size="10.00">BigDataStatMeth::pathExists</text>
</a>
</g>
</g>
<!-- Node15&#45;&gt;Node16 -->
<g id="edge16_Node000015_Node000016" class="edge">
<title>Node15&#45;&gt;Node16</title>
<g id="a_edge16_Node000015_Node000016"><a xlink:title=" ">
<path fill="none" stroke="#63b8ff" d="M728.8,-116.96C755.04,-123.56 785.19,-131.14 810.07,-137.41"/>
<polygon fill="#63b8ff" stroke="#63b8ff" points="809.09,-140.77 819.64,-139.81 810.79,-133.98 809.09,-140.77"/>
</a>
</g>
</g>
<!-- Node17&#45;&gt;Node16 -->
<g id="edge18_Node000017_Node000016" class="edge">
<title>Node17&#45;&gt;Node16</title>
<g id="a_edge18_Node000017_Node000016"><a xlink:title=" ">
<path fill="none" stroke="#63b8ff" d="M727.46,-183.88C754.09,-177.18 784.93,-169.42 810.28,-163.04"/>
<polygon fill="#63b8ff" stroke="#63b8ff" points="810.83,-166.51 819.68,-160.68 809.12,-159.72 810.83,-166.51"/>
</a>
</g>
</g>
<!-- Node21 -->
<g id="Node000021" class="node">
<title>Node21</title>
<g id="a_Node000021"><a xlink:href="class_big_data_stat_meth_1_1hdf5_dataset_internal.html#a91d48a0c7186c87eb0af78f426ce6a4d" target="_top" xlink:title="Close dataset and file.">
<polygon fill="white" stroke="#666666" points="937.25,-263.5 787,-263.5 787,-233 937.25,-233 937.25,-263.5"/>
<text xml:space="preserve" text-anchor="start" x="795" y="-250" font-family="Helvetica,sans-Serif" font-size="10.00">BigDataStatMeth::hdf5Dataset</text>
<text xml:space="preserve" text-anchor="middle" x="862.12" y="-238.75" font-family="Helvetica,sans-Serif" font-size="10.00">Internal::close_dataset_file</text>
</a>
</g>
</g>
<!-- Node20&#45;&gt;Node21 -->
<g id="edge22_Node000020_Node000021" class="edge">
<title>Node20&#45;&gt;Node21</title>
<g id="a_edge22_Node000020_Node000021"><a xlink:title=" ">
<path fill="none" stroke="#63b8ff" d="M740.84,-248.25C752.11,-248.25 763.82,-248.25 775.31,-248.25"/>
<polygon fill="#63b8ff" stroke="#63b8ff" points="775.19,-251.75 785.19,-248.25 775.19,-244.75 775.19,-251.75"/>
</a>
</g>
</g>
<!-- Node22 -->
<g id="Node000022" class="node">
<title>Node22</title>
<g id="a_Node000022"><a xlink:href="class_big_data_stat_meth_1_1hdf5_dataset_internal.html#a152c59a2a409e1883e3834a26170ed59" target="_top" xlink:title="Convert DataFrame to range list.">
<polygon fill="white" stroke="#666666" points="937.25,-409.12 787,-409.12 787,-367.38 937.25,-367.38 937.25,-409.12"/>
<text xml:space="preserve" text-anchor="start" x="795" y="-395.62" font-family="Helvetica,sans-Serif" font-size="10.00">BigDataStatMeth::hdf5Dataset</text>
<text xml:space="preserve" text-anchor="start" x="795" y="-384.38" font-family="Helvetica,sans-Serif" font-size="10.00">Internal::convert_DataFrame</text>
<text xml:space="preserve" text-anchor="middle" x="862.12" y="-373.12" font-family="Helvetica,sans-Serif" font-size="10.00">_to_RangeList</text>
</a>
</g>
</g>
<!-- Node20&#45;&gt;Node22 -->
<g id="edge23_Node000020_Node000022" class="edge">
<title>Node20&#45;&gt;Node22</title>
<g id="a_edge23_Node000020_Node000022"><a xlink:title=" ">
<path fill="none" stroke="#63b8ff" d="M732.08,-263.89C738.68,-266.57 745.11,-269.66 751,-273.25 787.16,-295.28 819.48,-332.12 839.6,-358.16"/>
<polygon fill="#63b8ff" stroke="#63b8ff" points="836.72,-360.15 845.54,-366.01 842.3,-355.93 836.72,-360.15"/>
</a>
</g>
</g>
<!-- Node25 -->
<g id="Node000025" class="node">
<title>Node25</title>
<g id="a_Node000025"><a xlink:href="class_big_data_stat_meth_1_1hdf5_file.html#abb50d96e6674ac770e4f27f650ad34cb" target="_top" xlink:title="Get filename.">
<polygon fill="white" stroke="#666666" points="731.12,-30.5 599.62,-30.5 599.62,0 731.12,0 731.12,-30.5"/>
<text xml:space="preserve" text-anchor="start" x="607.62" y="-17" font-family="Helvetica,sans-Serif" font-size="10.00">BigDataStatMeth::hdf5File</text>
<text xml:space="preserve" text-anchor="middle" x="665.38" y="-5.75" font-family="Helvetica,sans-Serif" font-size="10.00">::getFilename</text>
</a>
</g>
</g>
<!-- Node24&#45;&gt;Node25 -->
<g id="edge26_Node000024_Node000025" class="edge">
<title>Node24&#45;&gt;Node25</title>
<g id="a_edge26_Node000024_Node000025"><a xlink:title=" ">
<path fill="none" stroke="#63b8ff" d="M529.99,-134.7C534.94,-132.04 539.61,-128.91 543.75,-125.25 573.27,-99.17 550.69,-70.85 579.75,-44.25 582.85,-41.41 586.25,-38.84 589.84,-36.53"/>
<polygon fill="#63b8ff" stroke="#63b8ff" points="591.41,-39.66 598.41,-31.71 587.98,-33.56 591.41,-39.66"/>
</a>
</g>
</g>
<!-- Node26&#45;&gt;Node18 -->
<g id="edge28_Node000026_Node000018" class="edge">
<title>Node26&#45;&gt;Node18</title>
<g id="a_edge28_Node000026_Node000018"><a xlink:title=" ">
<path fill="none" stroke="#63b8ff" d="M535.81,-346.25C551.11,-346.25 567.29,-346.25 582.82,-346.25"/>
<polygon fill="#63b8ff" stroke="#63b8ff" points="582.49,-349.75 592.48,-346.25 582.48,-342.75 582.49,-349.75"/>
</a>
</g>
</g>
<!-- Node27&#45;&gt;Node21 -->
<g id="edge31_Node000027_Node000021" class="edge">
<title>Node27&#45;&gt;Node21</title>
<g id="a_edge31_Node000027_Node000021"><a xlink:title=" ">
<path fill="none" stroke="#63b8ff" d="M531.03,-183.54C535.63,-180.91 539.94,-177.83 543.75,-174.25 577.24,-142.74 542,-103.51 579.75,-77.25 642.23,-33.79 688.14,-34.34 751,-77.25 787.27,-102 763.55,-132.13 787,-169.25 800.13,-190.05 819.19,-210.21 834.7,-224.96"/>
<polygon fill="#63b8ff" stroke="#63b8ff" points="832.07,-227.3 841.78,-231.54 836.83,-222.17 832.07,-227.3"/>
</a>
</g>
</g>
<!-- Node28&#45;&gt;Node18 -->
<g id="edge33_Node000028_Node000018" class="edge">
<title>Node28&#45;&gt;Node18</title>
<g id="a_edge33_Node000028_Node000018"><a xlink:title=" ">
<path fill="none" stroke="#63b8ff" d="M526.44,-312.96C546.11,-317.7 567.88,-322.96 588.21,-327.86"/>
<polygon fill="#63b8ff" stroke="#63b8ff" points="587.31,-331.25 597.86,-330.19 588.96,-324.44 587.31,-331.25"/>
</a>
</g>
</g>
<!-- Node28&#45;&gt;Node19 -->
<g id="edge34_Node000028_Node000019" class="edge">
<title>Node28&#45;&gt;Node19</title>
<g id="a_edge34_Node000028_Node000019"><a xlink:title=" ">
<path fill="none" stroke="#63b8ff" d="M535.81,-297.25C553.17,-297.25 571.67,-297.25 589.06,-297.25"/>
<polygon fill="#63b8ff" stroke="#63b8ff" points="588.8,-300.75 598.8,-297.25 588.8,-293.75 588.8,-300.75"/>
</a>
</g>
</g>
<!-- Node29&#45;&gt;Node11 -->
<g id="edge40_Node000029_Node000011" class="edge">
<title>Node29&#45;&gt;Node11</title>
<g id="a_edge40_Node000029_Node000011"><a xlink:title=" ">
<path fill="none" stroke="#63b8ff" d="M490.43,-447.98C514.02,-460.33 548.4,-477.36 579.75,-489.25 590.24,-493.23 601.69,-496.9 612.67,-500.12"/>
<polygon fill="#63b8ff" stroke="#63b8ff" points="611.42,-503.4 621.99,-502.76 613.33,-496.67 611.42,-503.4"/>
</a>
</g>
</g>
<!-- Node29&#45;&gt;Node21 -->
<g id="edge38_Node000029_Node000021" class="edge">
<title>Node29&#45;&gt;Node21</title>
<g id="a_edge38_Node000029_Node000021"><a xlink:title=" ">
<path fill="none" stroke="#63b8ff" d="M535.87,-416.89C620.1,-399.43 746.27,-372.98 751,-370.25 792.37,-346.36 826.74,-301.53 845.56,-273.37"/>
<polygon fill="#63b8ff" stroke="#63b8ff" points="848.43,-275.38 850.95,-265.09 842.56,-271.56 848.43,-275.38"/>
</a>
</g>
</g>
<!-- Node29&#45;&gt;Node22 -->
<g id="edge39_Node000029_Node000022" class="edge">
<title>Node29&#45;&gt;Node22</title>
<g id="a_edge39_Node000029_Node000022"><a xlink:title=" ">
<path fill="none" stroke="#63b8ff" d="M515.33,-447.94C574.34,-462.54 671.16,-478.91 751,-456.25 778.74,-448.37 806.35,-431.3 826.98,-416.24"/>
<polygon fill="#63b8ff" stroke="#63b8ff" points="828.85,-419.21 834.73,-410.41 824.64,-413.62 828.85,-419.21"/>
</a>
</g>
</g>
<!-- Node30 -->
<g id="Node000030" class="node">
<title>Node30</title>
<g id="a_Node000030"><a xlink:href="class_big_data_stat_meth_1_1hdf5_dataset_internal.html#a0453f8502bee6dd35be2ec196e9edc55" target="_top" xlink:title="Close the dataset.">
<polygon fill="white" stroke="#666666" points="740.5,-447.5 590.25,-447.5 590.25,-417 740.5,-417 740.5,-447.5"/>
<text xml:space="preserve" text-anchor="start" x="598.25" y="-434" font-family="Helvetica,sans-Serif" font-size="10.00">BigDataStatMeth::hdf5Dataset</text>
<text xml:space="preserve" text-anchor="middle" x="665.38" y="-422.75" font-family="Helvetica,sans-Serif" font-size="10.00">Internal::close_dataset</text>
</a>
</g>
</g>
<!-- Node29&#45;&gt;Node30 -->
<g id="edge37_Node000029_Node000030" class="edge">
<title>Node29&#45;&gt;Node30</title>
<g id="a_edge37_Node000029_Node000030"><a xlink:title=" ">
<path fill="none" stroke="#63b8ff" d="M535.81,-432.25C549.74,-432.25 564.4,-432.25 578.64,-432.25"/>
<polygon fill="#63b8ff" stroke="#63b8ff" points="578.43,-435.75 588.43,-432.25 578.43,-428.75 578.43,-435.75"/>
</a>
</g>
</g>
</g>
</svg>

<g id="navigator" transform="translate(0 0)" fill="#404254">
  <rect fill="#f2f5e9" fill-opacity="0.5" stroke="#606060" stroke-width=".5" x="0" y="0" width="60" height="60"/>
  <use id="zoomplus" xlink:href="#zoomPlus" x="17" y="9" onmousedown="handleZoom(evt,'in')"/>
  <use id="zoomminus" xlink:href="#zoomMin" x="42" y="9" onmousedown="handleZoom(evt,'out')"/>
  <use id="reset" xlink:href="#resetDef" x="30" y="36" onmousedown="handleReset()"/>
   <use id="arrowup" xlink:href="#arrowUp" x="0" y="0" onmousedown="handlePan(0,-1)"/>
  <use id="arrowright" xlink:href="#arrowRight" x="0" y="0" onmousedown="handlePan(1,0)"/>
  <use id="arrowdown" xlink:href="#arrowDown" x="0" y="0" onmousedown="handlePan(0,1)"/>
  <use id="arrowleft" xlink:href="#arrowLeft" x="0" y="0" onmousedown="handlePan(-1,0)"/>
</g>
<svg viewBox="0 0 15 15" width="100%" height="30px" preserveAspectRatio="xMaxYMin meet">
 <g id="arrow_out" transform="scale(0.3 0.3)">
  <a xlink:href="namespace_big_data_stat_meth_aeb131468048bfb07917a48de0d19d17e_cgraph_org.svg" target="_base">
   <rect id="button" ry="5" rx="5" y="6" x="6" height="38" width="38"
        fill="#f2f5e9" fill-opacity="0.5" stroke="#606060" stroke-width="1.0"/>
   <path id="arrow"
     d="M 11.500037,31.436501 C 11.940474,20.09759 22.043105,11.32322 32.158766,21.979434 L 37.068811,17.246167 C 37.068811,17.246167 37.088388,32 37.088388,32 L 22.160133,31.978069 C 22.160133,31.978069 26.997745,27.140456 26.997745,27.140456 C 18.528582,18.264221 13.291696,25.230495 11.500037,31.436501 z"
     style="fill:#404040;"/>
  </a>
 </g>
</svg>

<style type='text/css'>
<![CDATA[
[data-mouse-over-selected='false'] { opacity: 0.7; }
[data-mouse-over-selected='true']  { opacity: 1.0; }
]]>
</style>
<script type="application/ecmascript"><![CDATA[
document.addEventListener('DOMContentLoaded', (event) => {
  highlightEdges();
  highlightAdjacentNodes();
});
]]></script>
</svg>
