<?xml version="1.0" encoding="UTF-8" standalone="no"?>
<!DOCTYPE svg PUBLIC "-//W3C//DTD SVG 1.1//EN"
 "http://www.w3.org/Graphics/SVG/1.1/DTD/svg11.dtd">
<!-- Generated by graphviz version 14.0.0 (20250921.2048)
 -->
<!-- Title: BigDataStatMeth::Inverse_of_Cholesky_decomposition_hdf5 Pages: 1 -->
<!--zoomable 316 -->

<svg id="main" version="1.1" xmlns="http://www.w3.org/2000/svg" xmlns:xlink="http://www.w3.org/1999/xlink" xml:space="preserve" onload="init(evt)">

<style type="text/css"><![CDATA[
.node, .edge {opacity: 0.7;}
.node.selected, .edge.selected {opacity: 1;}
.edge:hover path { stroke: red; }
.edge:hover polygon { stroke: red; fill: red; }
]]></style>

<defs>
  <circle id="rim" cx="0" cy="0" r="7"/>
  <circle id="rim2" cx="0" cy="0" r="3.5"/>
  <g id="zoomPlus">
    <use xlink:href="#rim" fill="#404040"><set attributeName="fill" to="#808080" begin="zoomplus.mouseover" end="zoomplus.mouseout"/></use>
    <path d="M-4,0h8M0,-4v8" fill="none" stroke="white" stroke-width="1.5" pointer-events="none"/>
  </g>
  <g id="zoomMin">
    <use xlink:href="#rim" fill="#404040"><set attributeName="fill" to="#808080" begin="zoomminus.mouseover" end="zoomminus.mouseout"/></use>
    <path d="M-4,0h8" fill="none" stroke="white" stroke-width="1.5" pointer-events="none"/>
  </g>
  <g id="arrowUp" transform="translate(30 24)">
    <use xlink:href="#rim"/>
    <path pointer-events="none" fill="none" stroke="white" stroke-width="1.5" d="M0,-3.0v7 M-2.5,-0.5L0,-3.0L2.5,-0.5"/>
  </g>
  <g id="arrowRight" transform="rotate(90) translate(36 -43)">
    <use xlink:href="#rim"/>
    <path pointer-events="none" fill="none" stroke="white" stroke-width="1.5" d="M0,-3.0v7 M-2.5,-0.5L0,-3.0L2.5,-0.5"/>
  </g>
  <g id="arrowDown" transform="rotate(180) translate(-30 -48)">
    <use xlink:href="#rim"/>
    <path pointer-events="none" fill="none" stroke="white" stroke-width="1.5" d="M0,-3.0v7 M-2.5,-0.5L0,-3.0L2.5,-0.5"/>
  </g>
  <g id="arrowLeft" transform="rotate(270) translate(-36 17)">
    <use xlink:href="#rim"/>
    <path pointer-events="none" fill="none" stroke="white" stroke-width="1.5" d="M0,-3.0v7 M-2.5,-0.5L0,-3.0L2.5,-0.5"/>
  </g>
  <g id="resetDef">
    <use xlink:href="#rim2" fill="#404040"><set attributeName="fill" to="#808080" begin="reset.mouseover" end="reset.mouseout"/></use>
  </g>
</defs>
<script type="application/ecmascript">
var viewWidth = 954;
var viewHeight = 316;
var sectionId = 'dynsection-65';
</script>
<script type="application/ecmascript" xlink:href="../../../../assets/svg.min.js"/>
<svg id="graph" class="graph">
<g id="viewport">
<title>BigDataStatMeth::Inverse_of_Cholesky_decomposition_hdf5</title>
<!-- Node1 -->
<g id="Node000001" class="node">
<title>Node1</title>
<g id="a_Node000001"><a xlink:title="Computes inverse of Cholesky factor with automatic algorithm selection.">
<polygon fill="#999999" stroke="#666666" points="168.25,-109.88 0,-109.88 0,-79.38 168.25,-79.38 168.25,-109.88"/>
<text xml:space="preserve" text-anchor="start" x="8" y="-96.38" font-family="Helvetica,sans-Serif" font-size="10.00">BigDataStatMeth::Inverse</text>
<text xml:space="preserve" text-anchor="middle" x="84.12" y="-85.12" font-family="Helvetica,sans-Serif" font-size="10.00">_of_Cholesky_decomposition_hdf5</text>
</a>
</g>
</g>
<!-- Node2 -->
<g id="Node000002" class="node">
<title>Node2</title>
<g id="a_Node000002"><a xlink:href="namespace_big_data_stat_meth.html#aea31bd4c416718e1d4c084eb4a6d0b28" target="_top" xlink:title="Computes inverse of Cholesky factor in&#45;place.">
<polygon fill="white" stroke="#666666" points="348.5,-183.5 204.25,-183.5 204.25,-141.75 348.5,-141.75 348.5,-183.5"/>
<text xml:space="preserve" text-anchor="start" x="212.25" y="-170" font-family="Helvetica,sans-Serif" font-size="10.00">BigDataStatMeth::Inverse</text>
<text xml:space="preserve" text-anchor="start" x="212.25" y="-158.75" font-family="Helvetica,sans-Serif" font-size="10.00">_of_Cholesky_decomposition</text>
<text xml:space="preserve" text-anchor="middle" x="276.38" y="-147.5" font-family="Helvetica,sans-Serif" font-size="10.00">_intermediate_hdf5</text>
</a>
</g>
</g>
<!-- Node1&#45;&gt;Node2 -->
<g id="edge1_Node000001_Node000002" class="edge">
<title>Node1&#45;&gt;Node2</title>
<g id="a_edge1_Node000001_Node000002"><a xlink:title=" ">
<path fill="none" stroke="#63b8ff" d="M128.77,-110.23C151.33,-118.29 179.41,-128.33 204.95,-137.45"/>
<polygon fill="#63b8ff" stroke="#63b8ff" points="203.69,-140.72 214.29,-140.79 206.05,-134.13 203.69,-140.72"/>
</a>
</g>
</g>
<!-- Node15 -->
<g id="Node000015" class="node">
<title>Node15</title>
<g id="a_Node000015"><a xlink:href="namespace_big_data_stat_meth.html#a2284c5613ebeffe9d40caf8924de633f" target="_top" xlink:title="Out&#45;of&#45;core inverse of Cholesky factor using tiled back&#45;substitution.">
<polygon fill="white" stroke="#666666" points="540.75,-48.5 396.5,-48.5 396.5,-6.75 540.75,-6.75 540.75,-48.5"/>
<text xml:space="preserve" text-anchor="start" x="404.5" y="-35" font-family="Helvetica,sans-Serif" font-size="10.00">BigDataStatMeth::Inverse</text>
<text xml:space="preserve" text-anchor="start" x="404.5" y="-23.75" font-family="Helvetica,sans-Serif" font-size="10.00">_of_Cholesky_decomposition</text>
<text xml:space="preserve" text-anchor="middle" x="468.62" y="-12.5" font-family="Helvetica,sans-Serif" font-size="10.00">_outofcore_hdf5</text>
</a>
</g>
</g>
<!-- Node1&#45;&gt;Node15 -->
<g id="edge18_Node000001_Node000015" class="edge">
<title>Node1&#45;&gt;Node15</title>
<g id="a_edge18_Node000001_Node000015"><a xlink:title=" ">
<path fill="none" stroke="#63b8ff" d="M168.59,-80C232.77,-68.76 321,-53.31 384.97,-42.1"/>
<polygon fill="#63b8ff" stroke="#63b8ff" points="385.49,-45.57 394.73,-40.39 384.28,-38.67 385.49,-45.57"/>
</a>
</g>
</g>
<!-- Node3 -->
<g id="Node000003" class="node">
<title>Node3</title>
<g id="a_Node000003"><a xlink:href="namespace_big_data_stat_meth.html#a304b42b14ec87d4acc6f34ff0231529d" target="_top" xlink:title="Safely close any number of dataset handles (C++17).">
<polygon fill="white" stroke="#666666" points="552,-172.25 385.25,-172.25 385.25,-153 552,-153 552,-172.25"/>
<text xml:space="preserve" text-anchor="middle" x="468.62" y="-158.75" font-family="Helvetica,sans-Serif" font-size="10.00">BigDataStatMeth::checkClose_file</text>
</a>
</g>
</g>
<!-- Node2&#45;&gt;Node3 -->
<g id="edge2_Node000002_Node000003" class="edge">
<title>Node2&#45;&gt;Node3</title>
<g id="a_edge2_Node000002_Node000003"><a xlink:title=" ">
<path fill="none" stroke="#63b8ff" d="M348.76,-162.62C356.88,-162.62 365.24,-162.62 373.6,-162.62"/>
<polygon fill="#63b8ff" stroke="#63b8ff" points="373.44,-166.13 383.44,-162.63 373.44,-159.13 373.44,-166.13"/>
</a>
</g>
</g>
<!-- Node4 -->
<g id="Node000004" class="node">
<title>Node4</title>
<g id="a_Node000004"><a xlink:href="namespace_big_data_stat_meth.html#aa11cdd9bdca5cff2819a45c2900506c7" target="_top" xlink:title="Extracts the diagonal elements from a matrix stored in HDF5 format.">
<polygon fill="white" stroke="#666666" points="552.75,-258.88 384.5,-258.88 384.5,-228.38 552.75,-228.38 552.75,-258.88"/>
<text xml:space="preserve" text-anchor="start" x="392.5" y="-245.38" font-family="Helvetica,sans-Serif" font-size="10.00">BigDataStatMeth::getDiagonalfrom</text>
<text xml:space="preserve" text-anchor="middle" x="468.62" y="-234.12" font-family="Helvetica,sans-Serif" font-size="10.00">Matrix</text>
</a>
</g>
</g>
<!-- Node2&#45;&gt;Node4 -->
<g id="edge3_Node000002_Node000004" class="edge">
<title>Node2&#45;&gt;Node4</title>
<g id="a_edge3_Node000002_Node000004"><a xlink:title=" ">
<path fill="none" stroke="#63b8ff" d="M318.32,-183.89C338.08,-193.78 362.26,-205.38 384.5,-214.62 392.35,-217.89 400.72,-221.1 409,-224.13"/>
<polygon fill="#63b8ff" stroke="#63b8ff" points="407.77,-227.41 418.37,-227.49 410.13,-220.82 407.77,-227.41"/>
</a>
</g>
</g>
<!-- Node6 -->
<g id="Node000006" class="node">
<title>Node6</title>
<g id="a_Node000006"><a xlink:href="class_big_data_stat_meth_1_1hdf5_dataset.html#a23bea87165b8ef6b944709c5b2cbd0cf" target="_top" xlink:title=" ">
<polygon fill="white" stroke="#666666" points="739,-165.88 588.75,-165.88 588.75,-135.38 739,-135.38 739,-165.88"/>
<text xml:space="preserve" text-anchor="start" x="596.75" y="-152.38" font-family="Helvetica,sans-Serif" font-size="10.00">BigDataStatMeth::hdf5Dataset</text>
<text xml:space="preserve" text-anchor="middle" x="663.88" y="-141.12" font-family="Helvetica,sans-Serif" font-size="10.00">::readDatasetBlock</text>
</a>
</g>
</g>
<!-- Node2&#45;&gt;Node6 -->
<g id="edge9_Node000002_Node000006" class="edge">
<title>Node2&#45;&gt;Node6</title>
<g id="a_edge9_Node000002_Node000006"><a xlink:title=" ">
<path fill="none" stroke="#63b8ff" d="M348.88,-177.1C360.73,-178.98 372.93,-180.61 384.5,-181.62 458.99,-188.18 478.67,-191.85 552.75,-181.62 570.58,-179.16 589.6,-174.56 606.72,-169.64"/>
<polygon fill="#63b8ff" stroke="#63b8ff" points="607.63,-173.02 616.21,-166.81 605.63,-166.31 607.63,-173.02"/>
</a>
</g>
</g>
<!-- Node8 -->
<g id="Node000008" class="node">
<title>Node8</title>
<g id="a_Node000008"><a xlink:href="namespace_big_data_stat_meth.html#abcd544ed5db12dd03f79bca0a8f31ca5" target="_top" xlink:title="Calculates optimal block size for memory&#45;efficient matrix operations.">
<polygon fill="white" stroke="#666666" points="540.75,-307.88 396.5,-307.88 396.5,-277.38 540.75,-277.38 540.75,-307.88"/>
<text xml:space="preserve" text-anchor="start" x="404.5" y="-294.38" font-family="Helvetica,sans-Serif" font-size="10.00">BigDataStatMeth::getOptimal</text>
<text xml:space="preserve" text-anchor="middle" x="468.62" y="-283.12" font-family="Helvetica,sans-Serif" font-size="10.00">BlockElements</text>
</a>
</g>
</g>
<!-- Node2&#45;&gt;Node8 -->
<g id="edge7_Node000002_Node000008" class="edge">
<title>Node2&#45;&gt;Node8</title>
<g id="a_edge7_Node000002_Node000008"><a xlink:title=" ">
<path fill="none" stroke="#63b8ff" d="M293.64,-183.85C312.88,-207.56 347.06,-245.5 384.5,-267.62 387.3,-269.28 390.21,-270.83 393.21,-272.29"/>
<polygon fill="#63b8ff" stroke="#63b8ff" points="391.69,-275.44 402.25,-276.27 394.51,-269.03 391.69,-275.44"/>
</a>
</g>
</g>
<!-- Node10 -->
<g id="Node000010" class="node">
<title>Node10</title>
<g id="a_Node000010"><a xlink:href="namespace_big_data_stat_meth.html#ab5429d9d25ff38d72d77e6dca59947b0" target="_top" xlink:title="Sets the diagonal elements of a matrix stored in HDF5 format.">
<polygon fill="white" stroke="#666666" points="543,-134.88 394.25,-134.88 394.25,-104.38 543,-104.38 543,-134.88"/>
<text xml:space="preserve" text-anchor="start" x="402.25" y="-121.38" font-family="Helvetica,sans-Serif" font-size="10.00">BigDataStatMeth::setDiagonal</text>
<text xml:space="preserve" text-anchor="middle" x="468.62" y="-110.12" font-family="Helvetica,sans-Serif" font-size="10.00">Matrix</text>
</a>
</g>
</g>
<!-- Node2&#45;&gt;Node10 -->
<g id="edge10_Node000002_Node000010" class="edge">
<title>Node2&#45;&gt;Node10</title>
<g id="a_edge10_Node000002_Node000010"><a xlink:title=" ">
<path fill="none" stroke="#63b8ff" d="M348.76,-146.49C361.24,-143.67 374.29,-140.72 387,-137.85"/>
<polygon fill="#63b8ff" stroke="#63b8ff" points="387.59,-141.3 396.58,-135.68 386.05,-134.47 387.59,-141.3"/>
</a>
</g>
</g>
<!-- Node11 -->
<g id="Node000011" class="node">
<title>Node11</title>
<g id="a_Node000011"><a xlink:href="class_big_data_stat_meth_1_1hdf5_dataset.html#af606176d84a63561b65702b6fde3a583" target="_top" xlink:title="Write block of data with optional transposition.">
<polygon fill="white" stroke="#666666" points="739,-91.88 588.75,-91.88 588.75,-61.38 739,-61.38 739,-91.88"/>
<text xml:space="preserve" text-anchor="start" x="596.75" y="-78.38" font-family="Helvetica,sans-Serif" font-size="10.00">BigDataStatMeth::hdf5Dataset</text>
<text xml:space="preserve" text-anchor="middle" x="663.88" y="-67.12" font-family="Helvetica,sans-Serif" font-size="10.00">::writeDatasetBlock</text>
</a>
</g>
</g>
<!-- Node2&#45;&gt;Node11 -->
<g id="edge17_Node000002_Node000011" class="edge">
<title>Node2&#45;&gt;Node11</title>
<g id="a_edge17_Node000002_Node000011"><a xlink:title=" ">
<path fill="none" stroke="#63b8ff" d="M303.26,-141.29C323.89,-125.63 354.24,-105.43 384.5,-95.62 446.79,-75.43 520.92,-71.26 577.02,-71.83"/>
<polygon fill="#63b8ff" stroke="#63b8ff" points="576.78,-75.33 586.83,-71.99 576.89,-68.33 576.78,-75.33"/>
</a>
</g>
</g>
<!-- Node5 -->
<g id="Node000005" class="node">
<title>Node5</title>
<g id="a_Node000005"><a xlink:href="class_big_data_stat_meth_1_1hdf5_dataset.html#a6cbce676967d0cc4b50e2cc5282c322b" target="_top" xlink:title="Get number of rows in internal format.">
<polygon fill="white" stroke="#666666" points="739,-258.88 588.75,-258.88 588.75,-228.38 739,-228.38 739,-258.88"/>
<text xml:space="preserve" text-anchor="start" x="596.75" y="-245.38" font-family="Helvetica,sans-Serif" font-size="10.00">BigDataStatMeth::hdf5Dataset</text>
<text xml:space="preserve" text-anchor="middle" x="663.88" y="-234.12" font-family="Helvetica,sans-Serif" font-size="10.00">::nrows</text>
</a>
</g>
</g>
<!-- Node4&#45;&gt;Node5 -->
<g id="edge4_Node000004_Node000005" class="edge">
<title>Node4&#45;&gt;Node5</title>
<g id="a_edge4_Node000004_Node000005"><a xlink:title=" ">
<path fill="none" stroke="#63b8ff" d="M552.98,-243.62C560.88,-243.62 568.89,-243.62 576.81,-243.62"/>
<polygon fill="#63b8ff" stroke="#63b8ff" points="576.8,-247.13 586.8,-243.63 576.8,-240.13 576.8,-247.13"/>
</a>
</g>
</g>
<!-- Node4&#45;&gt;Node6 -->
<g id="edge5_Node000004_Node000006" class="edge">
<title>Node4&#45;&gt;Node6</title>
<g id="a_edge5_Node000004_Node000006"><a xlink:title=" ">
<path fill="none" stroke="#63b8ff" d="M519.47,-227.97C530.58,-224.01 542.2,-219.48 552.75,-214.62 579.46,-202.34 608.13,-185.56 629.52,-172.26"/>
<polygon fill="#63b8ff" stroke="#63b8ff" points="631.21,-175.33 637.81,-167.04 627.48,-169.4 631.21,-175.33"/>
</a>
</g>
</g>
<!-- Node7 -->
<g id="Node000007" class="node">
<title>Node7</title>
<g id="a_Node000007"><a xlink:href="class_big_data_stat_meth_1_1hdf5_dataset.html#aba39e56a580d3b1fa7f1619fc72efa3e" target="_top" xlink:title="Close dataset and file.">
<polygon fill="white" stroke="#666666" points="935.75,-165.88 785.5,-165.88 785.5,-135.38 935.75,-135.38 935.75,-165.88"/>
<text xml:space="preserve" text-anchor="start" x="793.5" y="-152.38" font-family="Helvetica,sans-Serif" font-size="10.00">BigDataStatMeth::hdf5Dataset</text>
<text xml:space="preserve" text-anchor="middle" x="860.62" y="-141.12" font-family="Helvetica,sans-Serif" font-size="10.00">::close_dataset_file</text>
</a>
</g>
</g>
<!-- Node6&#45;&gt;Node7 -->
<g id="edge6_Node000006_Node000007" class="edge">
<title>Node6&#45;&gt;Node7</title>
<g id="a_edge6_Node000006_Node000007"><a xlink:title=" ">
<path fill="none" stroke="#63b8ff" d="M739.34,-150.62C750.61,-150.62 762.32,-150.62 773.81,-150.62"/>
<polygon fill="#63b8ff" stroke="#63b8ff" points="773.69,-154.13 783.69,-150.63 773.69,-147.13 773.69,-154.13"/>
</a>
</g>
</g>
<!-- Node9 -->
<g id="Node000009" class="node">
<title>Node9</title>
<g id="a_Node000009"><a xlink:href="namespace_big_data_stat_meth.html#a8a3d5e267930c906cce28346886f07bc" target="_top" xlink:title="Detects available system memory using R&#45;compatible methods.">
<polygon fill="white" stroke="#666666" points="739,-307.88 588.75,-307.88 588.75,-277.38 739,-277.38 739,-307.88"/>
<text xml:space="preserve" text-anchor="start" x="596.75" y="-294.38" font-family="Helvetica,sans-Serif" font-size="10.00">BigDataStatMeth::getAvailable</text>
<text xml:space="preserve" text-anchor="middle" x="663.88" y="-283.12" font-family="Helvetica,sans-Serif" font-size="10.00">MemoryMB</text>
</a>
</g>
</g>
<!-- Node8&#45;&gt;Node9 -->
<g id="edge8_Node000008_Node000009" class="edge">
<title>Node8&#45;&gt;Node9</title>
<g id="a_edge8_Node000008_Node000009"><a xlink:title=" ">
<path fill="none" stroke="#63b8ff" d="M541.04,-292.62C552.77,-292.62 565.03,-292.62 577.07,-292.62"/>
<polygon fill="#63b8ff" stroke="#63b8ff" points="577.01,-296.13 587.01,-292.63 577.01,-289.13 577.01,-296.13"/>
</a>
</g>
</g>
<!-- Node10&#45;&gt;Node6 -->
<g id="edge11_Node000010_Node000006" class="edge">
<title>Node10&#45;&gt;Node6</title>
<g id="a_edge11_Node000010_Node000006"><a xlink:title=" ">
<path fill="none" stroke="#63b8ff" d="M543.24,-131.43C554.36,-133.22 565.91,-135.07 577.25,-136.89"/>
<polygon fill="#63b8ff" stroke="#63b8ff" points="576.59,-140.33 587.01,-138.46 577.69,-133.42 576.59,-140.33"/>
</a>
</g>
</g>
<!-- Node10&#45;&gt;Node11 -->
<g id="edge12_Node000010_Node000011" class="edge">
<title>Node10&#45;&gt;Node11</title>
<g id="a_edge12_Node000010_Node000011"><a xlink:title=" ">
<path fill="none" stroke="#63b8ff" d="M540.21,-103.92C553.57,-100.95 567.64,-97.81 581.31,-94.77"/>
<polygon fill="#63b8ff" stroke="#63b8ff" points="581.68,-98.28 590.68,-92.69 580.16,-91.45 581.68,-98.28"/>
</a>
</g>
</g>
<!-- Node11&#45;&gt;Node7 -->
<g id="edge14_Node000011_Node000007" class="edge">
<title>Node11&#45;&gt;Node7</title>
<g id="a_edge14_Node000011_Node000007"><a xlink:title=" ">
<path fill="none" stroke="#63b8ff" d="M697.18,-92.35C718.88,-102.57 748.29,-115.79 775,-125.62 780.57,-127.68 786.39,-129.68 792.26,-131.6"/>
<polygon fill="#63b8ff" stroke="#63b8ff" points="790.81,-134.81 801.4,-134.51 792.93,-128.14 790.81,-134.81"/>
</a>
</g>
</g>
<!-- Node12 -->
<g id="Node000012" class="node">
<title>Node12</title>
<g id="a_Node000012"><a xlink:href="class_big_data_stat_meth_1_1hdf5_dataset.html#a64177ae924792ea9e557febaa95ed400" target="_top" xlink:title="Close the dataset.">
<polygon fill="white" stroke="#666666" points="935.75,-116.88 785.5,-116.88 785.5,-86.38 935.75,-86.38 935.75,-116.88"/>
<text xml:space="preserve" text-anchor="start" x="793.5" y="-103.38" font-family="Helvetica,sans-Serif" font-size="10.00">BigDataStatMeth::hdf5Dataset</text>
<text xml:space="preserve" text-anchor="middle" x="860.62" y="-92.12" font-family="Helvetica,sans-Serif" font-size="10.00">::close_dataset</text>
</a>
</g>
</g>
<!-- Node11&#45;&gt;Node12 -->
<g id="edge13_Node000011_Node000012" class="edge">
<title>Node11&#45;&gt;Node12</title>
<g id="a_edge13_Node000011_Node000012"><a xlink:title=" ">
<path fill="none" stroke="#63b8ff" d="M739.34,-86.18C750.61,-87.63 762.32,-89.13 773.81,-90.61"/>
<polygon fill="#63b8ff" stroke="#63b8ff" points="773.34,-94.08 783.7,-91.88 774.23,-87.13 773.34,-94.08"/>
</a>
</g>
</g>
<!-- Node13 -->
<g id="Node000013" class="node">
<title>Node13</title>
<g id="a_Node000013"><a xlink:href="class_big_data_stat_meth_1_1hdf5_dataset.html#a94d81b72e92cb0230b4e64f37ea7d2e3" target="_top" xlink:title="Convert DataFrame to range list.">
<polygon fill="white" stroke="#666666" points="946.25,-67.88 775,-67.88 775,-37.38 946.25,-37.38 946.25,-67.88"/>
<text xml:space="preserve" text-anchor="start" x="783" y="-54.38" font-family="Helvetica,sans-Serif" font-size="10.00">BigDataStatMeth::hdf5Dataset</text>
<text xml:space="preserve" text-anchor="middle" x="860.62" y="-43.12" font-family="Helvetica,sans-Serif" font-size="10.00">::convert_DataFrame_to_RangeList</text>
</a>
</g>
</g>
<!-- Node11&#45;&gt;Node13 -->
<g id="edge15_Node000011_Node000013" class="edge">
<title>Node11&#45;&gt;Node13</title>
<g id="a_edge15_Node000011_Node000013"><a xlink:title=" ">
<path fill="none" stroke="#63b8ff" d="M739.34,-67.45C747.22,-66.48 755.31,-65.48 763.4,-64.48"/>
<polygon fill="#63b8ff" stroke="#63b8ff" points="763.8,-67.96 773.29,-63.26 762.94,-61.01 763.8,-67.96"/>
</a>
</g>
</g>
<!-- Node14 -->
<g id="Node000014" class="node">
<title>Node14</title>
<g id="a_Node000014"><a xlink:href="namespace_big_data_stat_meth.html#a2692707b3ea4aaafa09d07afaf632437" target="_top" xlink:title="Transposes a 2D matrix.">
<polygon fill="white" stroke="#666666" points="930.5,-19.25 790.75,-19.25 790.75,0 930.5,0 930.5,-19.25"/>
<text xml:space="preserve" text-anchor="middle" x="860.62" y="-5.75" font-family="Helvetica,sans-Serif" font-size="10.00">BigDataStatMeth::transpose</text>
</a>
</g>
</g>
<!-- Node11&#45;&gt;Node14 -->
<g id="edge16_Node000011_Node000014" class="edge">
<title>Node11&#45;&gt;Node14</title>
<g id="a_edge16_Node000011_Node000014"><a xlink:title=" ">
<path fill="none" stroke="#63b8ff" d="M696.53,-60.91C718.21,-50.63 747.84,-37.5 775,-28.62 781.84,-26.39 789.08,-24.32 796.33,-22.45"/>
<polygon fill="#63b8ff" stroke="#63b8ff" points="796.95,-25.9 805.82,-20.1 795.27,-19.1 796.95,-25.9"/>
</a>
</g>
</g>
<!-- Node15&#45;&gt;Node6 -->
<g id="edge19_Node000015_Node000006" class="edge">
<title>Node15&#45;&gt;Node6</title>
<g id="a_edge19_Node000015_Node000006"><a xlink:title=" ">
<path fill="none" stroke="#63b8ff" d="M502.85,-48.77C538.06,-71.18 593.39,-106.4 628.89,-129"/>
<polygon fill="#63b8ff" stroke="#63b8ff" points="626.76,-131.78 637.07,-134.2 630.51,-125.88 626.76,-131.78"/>
</a>
</g>
</g>
<!-- Node15&#45;&gt;Node11 -->
<g id="edge20_Node000015_Node000011" class="edge">
<title>Node15&#45;&gt;Node11</title>
<g id="a_edge20_Node000015_Node000011"><a xlink:title=" ">
<path fill="none" stroke="#63b8ff" d="M541.04,-45.73C557.02,-49.79 574,-54.09 590.04,-58.16"/>
<polygon fill="#63b8ff" stroke="#63b8ff" points="588.96,-61.49 599.51,-60.56 590.68,-54.71 588.96,-61.49"/>
</a>
</g>
</g>
</g>
</svg>

<g id="navigator" transform="translate(0 0)" fill="#404254">
  <rect fill="#f2f5e9" fill-opacity="0.5" stroke="#606060" stroke-width=".5" x="0" y="0" width="60" height="60"/>
  <use id="zoomplus" xlink:href="#zoomPlus" x="17" y="9" onmousedown="handleZoom(evt,'in')"/>
  <use id="zoomminus" xlink:href="#zoomMin" x="42" y="9" onmousedown="handleZoom(evt,'out')"/>
  <use id="reset" xlink:href="#resetDef" x="30" y="36" onmousedown="handleReset()"/>
   <use id="arrowup" xlink:href="#arrowUp" x="0" y="0" onmousedown="handlePan(0,-1)"/>
  <use id="arrowright" xlink:href="#arrowRight" x="0" y="0" onmousedown="handlePan(1,0)"/>
  <use id="arrowdown" xlink:href="#arrowDown" x="0" y="0" onmousedown="handlePan(0,1)"/>
  <use id="arrowleft" xlink:href="#arrowLeft" x="0" y="0" onmousedown="handlePan(-1,0)"/>
</g>
<svg viewBox="0 0 15 15" width="100%" height="30px" preserveAspectRatio="xMaxYMin meet">
 <g id="arrow_out" transform="scale(0.3 0.3)">
  <a xlink:href="namespace_big_data_stat_meth_a5e754ab66b3a16a958f04ae4bced7007_cgraph_org.svg" target="_base">
   <rect id="button" ry="5" rx="5" y="6" x="6" height="38" width="38"
        fill="#f2f5e9" fill-opacity="0.5" stroke="#606060" stroke-width="1.0"/>
   <path id="arrow"
     d="M 11.500037,31.436501 C 11.940474,20.09759 22.043105,11.32322 32.158766,21.979434 L 37.068811,17.246167 C 37.068811,17.246167 37.088388,32 37.088388,32 L 22.160133,31.978069 C 22.160133,31.978069 26.997745,27.140456 26.997745,27.140456 C 18.528582,18.264221 13.291696,25.230495 11.500037,31.436501 z"
     style="fill:#404040;"/>
  </a>
 </g>
</svg>

<style type='text/css'>
<![CDATA[
[data-mouse-over-selected='false'] { opacity: 0.7; }
[data-mouse-over-selected='true']  { opacity: 1.0; }
]]>
</style>
<script type="application/ecmascript"><![CDATA[
document.addEventListener('DOMContentLoaded', (event) => {
  highlightEdges();
  highlightAdjacentNodes();
});
]]></script>
</svg>
