<?xml version="1.0" encoding="UTF-8" standalone="no"?>
<!DOCTYPE svg PUBLIC "-//W3C//DTD SVG 1.1//EN"
 "http://www.w3.org/Graphics/SVG/1.1/DTD/svg11.dtd">
<!-- Generated by graphviz version 14.0.0 (20250921.2048)
 -->
<!-- Title: BigDataStatMeth::tcrossprod Pages: 1 -->
<!--zoomable 746 -->

<svg id="main" version="1.1" xmlns="http://www.w3.org/2000/svg" xmlns:xlink="http://www.w3.org/1999/xlink" xml:space="preserve" onload="init(evt)">

<style type="text/css"><![CDATA[
.node, .edge {opacity: 0.7;}
.node.selected, .edge.selected {opacity: 1;}
.edge:hover path { stroke: red; }
.edge:hover polygon { stroke: red; fill: red; }
]]></style>

<defs>
  <circle id="rim" cx="0" cy="0" r="7"/>
  <circle id="rim2" cx="0" cy="0" r="3.5"/>
  <g id="zoomPlus">
    <use xlink:href="#rim" fill="#404040"><set attributeName="fill" to="#808080" begin="zoomplus.mouseover" end="zoomplus.mouseout"/></use>
    <path d="M-4,0h8M0,-4v8" fill="none" stroke="white" stroke-width="1.5" pointer-events="none"/>
  </g>
  <g id="zoomMin">
    <use xlink:href="#rim" fill="#404040"><set attributeName="fill" to="#808080" begin="zoomminus.mouseover" end="zoomminus.mouseout"/></use>
    <path d="M-4,0h8" fill="none" stroke="white" stroke-width="1.5" pointer-events="none"/>
  </g>
  <g id="arrowUp" transform="translate(30 24)">
    <use xlink:href="#rim"/>
    <path pointer-events="none" fill="none" stroke="white" stroke-width="1.5" d="M0,-3.0v7 M-2.5,-0.5L0,-3.0L2.5,-0.5"/>
  </g>
  <g id="arrowRight" transform="rotate(90) translate(36 -43)">
    <use xlink:href="#rim"/>
    <path pointer-events="none" fill="none" stroke="white" stroke-width="1.5" d="M0,-3.0v7 M-2.5,-0.5L0,-3.0L2.5,-0.5"/>
  </g>
  <g id="arrowDown" transform="rotate(180) translate(-30 -48)">
    <use xlink:href="#rim"/>
    <path pointer-events="none" fill="none" stroke="white" stroke-width="1.5" d="M0,-3.0v7 M-2.5,-0.5L0,-3.0L2.5,-0.5"/>
  </g>
  <g id="arrowLeft" transform="rotate(270) translate(-36 17)">
    <use xlink:href="#rim"/>
    <path pointer-events="none" fill="none" stroke="white" stroke-width="1.5" d="M0,-3.0v7 M-2.5,-0.5L0,-3.0L2.5,-0.5"/>
  </g>
  <g id="resetDef">
    <use xlink:href="#rim2" fill="#404040"><set attributeName="fill" to="#808080" begin="reset.mouseover" end="reset.mouseout"/></use>
  </g>
</defs>
<script type="application/ecmascript">
var viewWidth = 825;
var viewHeight = 746;
var sectionId = 'dynsection-218';
</script>
<script type="application/ecmascript" xlink:href="../../../../assets/svg.min.js"/>
<svg id="graph" class="graph">
<g id="viewport">
<title>BigDataStatMeth::tcrossprod</title>
<!-- Node1 -->
<g id="Node000001" class="node">
<title>Node1</title>
<g id="a_Node000001"><a xlink:title="Transposed cross&#45;product for HDF5 matrices.">
<polygon fill="#999999" stroke="#666666" points="142.75,-269.88 0,-269.88 0,-250.62 142.75,-250.62 142.75,-269.88"/>
<text xml:space="preserve" text-anchor="middle" x="71.38" y="-256.38" font-family="Helvetica,sans-Serif" font-size="10.00">BigDataStatMeth::tcrossprod</text>
</a>
</g>
</g>
<!-- Node2 -->
<g id="Node000002" class="node">
<title>Node2</title>
<g id="a_Node000002"><a xlink:href="class_big_data_stat_meth_1_1hdf5_dataset.html#a374a6cadcadfc23c1f5df858d31e20df" target="_top" xlink:title="Create a new dataset with optional compression.">
<polygon fill="white" stroke="#666666" points="329,-566.5 178.75,-566.5 178.75,-536 329,-536 329,-566.5"/>
<text xml:space="preserve" text-anchor="start" x="186.75" y="-553" font-family="Helvetica,sans-Serif" font-size="10.00">BigDataStatMeth::hdf5Dataset</text>
<text xml:space="preserve" text-anchor="middle" x="253.88" y="-541.75" font-family="Helvetica,sans-Serif" font-size="10.00">::createDataset</text>
</a>
</g>
</g>
<!-- Node1&#45;&gt;Node2 -->
<g id="edge1_Node000001_Node000002" class="edge">
<title>Node1&#45;&gt;Node2</title>
<g id="a_edge1_Node000001_Node000002"><a xlink:title=" ">
<path fill="none" stroke="#63b8ff" d="M77.52,-270.33C92.24,-298.96 136.25,-383.02 178.75,-449.25 196.3,-476.61 218.43,-506.54 233.92,-526.86"/>
<polygon fill="#63b8ff" stroke="#63b8ff" points="230.95,-528.74 239.82,-534.55 236.51,-524.48 230.95,-528.74"/>
</a>
</g>
</g>
<!-- Node13 -->
<g id="Node000013" class="node">
<title>Node13</title>
<g id="a_Node000013"><a xlink:href="openme-utils_8hpp.html#a172daf6d039501f511eff563e5de2ae7" target="_top" xlink:title=" ">
<polygon fill="white" stroke="#666666" points="306.12,-312.88 201.62,-312.88 201.62,-293.62 306.12,-293.62 306.12,-312.88"/>
<text xml:space="preserve" text-anchor="middle" x="253.88" y="-299.38" font-family="Helvetica,sans-Serif" font-size="10.00">get_number_threads</text>
</a>
</g>
</g>
<!-- Node1&#45;&gt;Node13 -->
<g id="edge13_Node000001_Node000013" class="edge">
<title>Node1&#45;&gt;Node13</title>
<g id="a_edge13_Node000001_Node000013"><a xlink:title=" ">
<path fill="none" stroke="#63b8ff" d="M114.69,-270.33C140.06,-276.37 172.55,-284.11 199.65,-290.57"/>
<polygon fill="#63b8ff" stroke="#63b8ff" points="198.5,-293.89 209.04,-292.81 200.12,-287.08 198.5,-293.89"/>
</a>
</g>
</g>
<!-- Node19 -->
<g id="Node000019" class="node">
<title>Node19</title>
<g id="a_Node000019"><a xlink:href="class_big_data_stat_meth_1_1hdf5_dataset.html#af3ab7117b94164ab629673cacd896dd9" target="_top" xlink:title="Get the current compression level for this dataset instance.">
<polygon fill="white" stroke="#666666" points="329,-275.5 178.75,-275.5 178.75,-245 329,-245 329,-275.5"/>
<text xml:space="preserve" text-anchor="start" x="186.75" y="-262" font-family="Helvetica,sans-Serif" font-size="10.00">BigDataStatMeth::hdf5Dataset</text>
<text xml:space="preserve" text-anchor="middle" x="253.88" y="-250.75" font-family="Helvetica,sans-Serif" font-size="10.00">::getCompressionLevel</text>
</a>
</g>
</g>
<!-- Node1&#45;&gt;Node19 -->
<g id="edge19_Node000001_Node000019" class="edge">
<title>Node1&#45;&gt;Node19</title>
<g id="a_edge19_Node000001_Node000019"><a xlink:title=" ">
<path fill="none" stroke="#63b8ff" d="M143.2,-260.25C151.05,-260.25 159.11,-260.25 167.12,-260.25"/>
<polygon fill="#63b8ff" stroke="#63b8ff" points="166.88,-263.75 176.88,-260.25 166.88,-256.75 166.88,-263.75"/>
</a>
</g>
</g>
<!-- Node20 -->
<g id="Node000020" class="node">
<title>Node20</title>
<g id="a_Node000020"><a xlink:href="class_big_data_stat_meth_1_1hdf5_dataset.html#ac979eba40078c7c5974b64b2ce6347a3" target="_top" xlink:title="Get dataset name.">
<polygon fill="white" stroke="#666666" points="329,-226.5 178.75,-226.5 178.75,-196 329,-196 329,-226.5"/>
<text xml:space="preserve" text-anchor="start" x="186.75" y="-213" font-family="Helvetica,sans-Serif" font-size="10.00">BigDataStatMeth::hdf5Dataset</text>
<text xml:space="preserve" text-anchor="middle" x="253.88" y="-201.75" font-family="Helvetica,sans-Serif" font-size="10.00">::getDatasetName</text>
</a>
</g>
</g>
<!-- Node1&#45;&gt;Node20 -->
<g id="edge20_Node000001_Node000020" class="edge">
<title>Node1&#45;&gt;Node20</title>
<g id="a_edge20_Node000001_Node000020"><a xlink:title=" ">
<path fill="none" stroke="#63b8ff" d="M109.34,-250.22C130.81,-244.39 158.55,-236.86 183.92,-229.97"/>
<polygon fill="#63b8ff" stroke="#63b8ff" points="184.8,-233.36 193.53,-227.36 182.96,-226.6 184.8,-233.36"/>
</a>
</g>
</g>
<!-- Node21 -->
<g id="Node000021" class="node">
<title>Node21</title>
<g id="a_Node000021"><a xlink:href="class_big_data_stat_meth_1_1hdf5_file.html#a2d2bd792aa9c01e459312e6727cde8af" target="_top" xlink:title="Get full file path.">
<polygon fill="white" stroke="#666666" points="319.62,-177.5 188.12,-177.5 188.12,-147 319.62,-147 319.62,-177.5"/>
<text xml:space="preserve" text-anchor="start" x="196.12" y="-164" font-family="Helvetica,sans-Serif" font-size="10.00">BigDataStatMeth::hdf5File</text>
<text xml:space="preserve" text-anchor="middle" x="253.88" y="-152.75" font-family="Helvetica,sans-Serif" font-size="10.00">::getFullPath</text>
</a>
</g>
</g>
<!-- Node1&#45;&gt;Node21 -->
<g id="edge21_Node000001_Node000021" class="edge">
<title>Node1&#45;&gt;Node21</title>
<g id="a_edge21_Node000001_Node000021"><a xlink:title=" ">
<path fill="none" stroke="#63b8ff" d="M84.45,-250.3C103.48,-235 142.08,-205.57 178.75,-187.25 182.26,-185.5 185.92,-183.82 189.65,-182.23"/>
<polygon fill="#63b8ff" stroke="#63b8ff" points="190.91,-185.49 198.89,-178.52 188.31,-179 190.91,-185.49"/>
</a>
</g>
</g>
<!-- Node22 -->
<g id="Node000022" class="node">
<title>Node22</title>
<g id="a_Node000022"><a xlink:href="class_big_data_stat_meth_1_1hdf5_dataset.html#af4869e54b1d4c01ab4caacf1939e1907" target="_top" xlink:title="Get group name.">
<polygon fill="white" stroke="#666666" points="329,-440.5 178.75,-440.5 178.75,-410 329,-410 329,-440.5"/>
<text xml:space="preserve" text-anchor="start" x="186.75" y="-427" font-family="Helvetica,sans-Serif" font-size="10.00">BigDataStatMeth::hdf5Dataset</text>
<text xml:space="preserve" text-anchor="middle" x="253.88" y="-415.75" font-family="Helvetica,sans-Serif" font-size="10.00">::getGroup</text>
</a>
</g>
</g>
<!-- Node1&#45;&gt;Node22 -->
<g id="edge22_Node000001_Node000022" class="edge">
<title>Node1&#45;&gt;Node22</title>
<g id="a_edge22_Node000001_Node000022"><a xlink:title=" ">
<path fill="none" stroke="#63b8ff" d="M78.03,-270.31C92.1,-294.54 131.04,-356.84 178.75,-393.25 184.31,-397.49 190.51,-401.29 196.9,-404.67"/>
<polygon fill="#63b8ff" stroke="#63b8ff" points="195.15,-407.71 205.67,-408.96 198.22,-401.42 195.15,-407.71"/>
</a>
</g>
</g>
<!-- Node23 -->
<g id="Node000023" class="node">
<title>Node23</title>
<g id="a_Node000023"><a xlink:href="class_big_data_stat_meth_1_1hdf5_dataset.html#a8cce59e2884ad1ee3b67f281566780af" target="_top" xlink:title="Inherit the compression level from an input dataset if not already set.">
<polygon fill="white" stroke="#666666" points="329,-128.5 178.75,-128.5 178.75,-98 329,-98 329,-128.5"/>
<text xml:space="preserve" text-anchor="start" x="186.75" y="-115" font-family="Helvetica,sans-Serif" font-size="10.00">BigDataStatMeth::hdf5Dataset</text>
<text xml:space="preserve" text-anchor="middle" x="253.88" y="-103.75" font-family="Helvetica,sans-Serif" font-size="10.00">::inheritCompressionLevel</text>
</a>
</g>
</g>
<!-- Node1&#45;&gt;Node23 -->
<g id="edge24_Node000001_Node000023" class="edge">
<title>Node1&#45;&gt;Node23</title>
<g id="a_edge24_Node000001_Node000023"><a xlink:title=" ">
<path fill="none" stroke="#63b8ff" d="M78.28,-250.47C92.61,-227.52 131.57,-169.81 178.75,-138.25 180.99,-136.75 183.32,-135.34 185.73,-134"/>
<polygon fill="#63b8ff" stroke="#63b8ff" points="187.18,-137.19 194.58,-129.61 184.07,-130.92 187.18,-137.19"/>
</a>
</g>
</g>
<!-- Node24 -->
<g id="Node000024" class="node">
<title>Node24</title>
<g id="a_Node000024"><a xlink:href="class_big_data_stat_meth_1_1hdf5_dataset.html#aa743c8c46d7ff3bb2f894145dd07fd8a" target="_top" xlink:title="Get number of columns in internal format.">
<polygon fill="white" stroke="#666666" points="329,-79.5 178.75,-79.5 178.75,-49 329,-49 329,-79.5"/>
<text xml:space="preserve" text-anchor="start" x="186.75" y="-66" font-family="Helvetica,sans-Serif" font-size="10.00">BigDataStatMeth::hdf5Dataset</text>
<text xml:space="preserve" text-anchor="middle" x="253.88" y="-54.75" font-family="Helvetica,sans-Serif" font-size="10.00">::ncols</text>
</a>
</g>
</g>
<!-- Node1&#45;&gt;Node24 -->
<g id="edge25_Node000001_Node000024" class="edge">
<title>Node1&#45;&gt;Node24</title>
<g id="a_edge25_Node000001_Node000024"><a xlink:title=" ">
<path fill="none" stroke="#63b8ff" d="M75.72,-250.5C86.15,-221.52 120.92,-135.05 178.75,-89.25 180.47,-87.89 182.26,-86.6 184.12,-85.38"/>
<polygon fill="#63b8ff" stroke="#63b8ff" points="185.56,-88.59 192.51,-80.59 182.09,-82.51 185.56,-88.59"/>
</a>
</g>
</g>
<!-- Node25 -->
<g id="Node000025" class="node">
<title>Node25</title>
<g id="a_Node000025"><a xlink:href="class_big_data_stat_meth_1_1hdf5_dataset.html#a6cbce676967d0cc4b50e2cc5282c322b" target="_top" xlink:title="Get number of rows in internal format.">
<polygon fill="white" stroke="#666666" points="329,-30.5 178.75,-30.5 178.75,0 329,0 329,-30.5"/>
<text xml:space="preserve" text-anchor="start" x="186.75" y="-17" font-family="Helvetica,sans-Serif" font-size="10.00">BigDataStatMeth::hdf5Dataset</text>
<text xml:space="preserve" text-anchor="middle" x="253.88" y="-5.75" font-family="Helvetica,sans-Serif" font-size="10.00">::nrows</text>
</a>
</g>
</g>
<!-- Node1&#45;&gt;Node25 -->
<g id="edge26_Node000001_Node000025" class="edge">
<title>Node1&#45;&gt;Node25</title>
<g id="a_edge26_Node000001_Node000025"><a xlink:title=" ">
<path fill="none" stroke="#63b8ff" d="M74.32,-250.26C81.54,-215.82 110.03,-100.87 178.75,-40.25 180.02,-39.13 181.35,-38.05 182.72,-37.03"/>
<polygon fill="#63b8ff" stroke="#63b8ff" points="184.47,-40.06 191.04,-31.75 180.72,-34.15 184.47,-40.06"/>
</a>
</g>
</g>
<!-- Node26 -->
<g id="Node000026" class="node">
<title>Node26</title>
<g id="a_Node000026"><a xlink:href="class_big_data_stat_meth_1_1hdf5_dataset.html#a23bea87165b8ef6b944709c5b2cbd0cf" target="_top" xlink:title=" ">
<polygon fill="white" stroke="#666666" points="515.25,-394.5 365,-394.5 365,-364 515.25,-364 515.25,-394.5"/>
<text xml:space="preserve" text-anchor="start" x="373" y="-381" font-family="Helvetica,sans-Serif" font-size="10.00">BigDataStatMeth::hdf5Dataset</text>
<text xml:space="preserve" text-anchor="middle" x="440.12" y="-369.75" font-family="Helvetica,sans-Serif" font-size="10.00">::readDatasetBlock</text>
</a>
</g>
</g>
<!-- Node1&#45;&gt;Node26 -->
<g id="edge27_Node000001_Node000026" class="edge">
<title>Node1&#45;&gt;Node26</title>
<g id="a_edge27_Node000001_Node000026"><a xlink:title=" ">
<path fill="none" stroke="#63b8ff" d="M81.46,-270.35C98.52,-288.58 137.37,-326.71 178.75,-344.25 233.91,-367.64 301.02,-376.24 353.29,-379.07"/>
<polygon fill="#63b8ff" stroke="#63b8ff" points="352.88,-382.56 363.04,-379.53 353.21,-375.56 352.88,-382.56"/>
</a>
</g>
</g>
<!-- Node27 -->
<g id="Node000027" class="node">
<title>Node27</title>
<g id="a_Node000027"><a xlink:href="class_big_data_stat_meth_1_1hdf5_dataset.html#af606176d84a63561b65702b6fde3a583" target="_top" xlink:title="Write block of data with optional transposition.">
<polygon fill="white" stroke="#666666" points="515.25,-345.5 365,-345.5 365,-315 515.25,-315 515.25,-345.5"/>
<text xml:space="preserve" text-anchor="start" x="373" y="-332" font-family="Helvetica,sans-Serif" font-size="10.00">BigDataStatMeth::hdf5Dataset</text>
<text xml:space="preserve" text-anchor="middle" x="440.12" y="-320.75" font-family="Helvetica,sans-Serif" font-size="10.00">::writeDatasetBlock</text>
</a>
</g>
</g>
<!-- Node1&#45;&gt;Node27 -->
<g id="edge29_Node000001_Node000027" class="edge">
<title>Node1&#45;&gt;Node27</title>
<g id="a_edge29_Node000001_Node000027"><a xlink:title=" ">
<path fill="none" stroke="#63b8ff" d="M84.84,-270.35C103.78,-285.01 141.56,-311.59 178.75,-322.25 235.33,-338.47 301.69,-340.27 353.25,-338.11"/>
<polygon fill="#63b8ff" stroke="#63b8ff" points="353.35,-341.61 363.17,-337.63 353.01,-334.62 353.35,-341.61"/>
</a>
</g>
</g>
<!-- Node3 -->
<g id="Node000003" class="node">
<title>Node3</title>
<g id="a_Node000003"><a xlink:href="class_big_data_stat_meth_1_1hdf5_dataset.html#ac7a7f23b7e22c9b56ca6ad86592f2d52" target="_top" xlink:title="Add an attribute to the dataset.">
<polygon fill="white" stroke="#666666" points="515.25,-737.5 365,-737.5 365,-707 515.25,-707 515.25,-737.5"/>
<text xml:space="preserve" text-anchor="start" x="373" y="-724" font-family="Helvetica,sans-Serif" font-size="10.00">BigDataStatMeth::hdf5Dataset</text>
<text xml:space="preserve" text-anchor="middle" x="440.12" y="-712.75" font-family="Helvetica,sans-Serif" font-size="10.00">::addAttribute</text>
</a>
</g>
</g>
<!-- Node2&#45;&gt;Node3 -->
<g id="edge2_Node000002_Node000003" class="edge">
<title>Node2&#45;&gt;Node3</title>
<g id="a_edge2_Node000002_Node000003"><a xlink:title=" ">
<path fill="none" stroke="#63b8ff" d="M262.57,-566.91C277.95,-596.62 315.3,-661.4 365,-697.25 366.94,-698.65 368.96,-699.97 371.04,-701.22"/>
<polygon fill="#63b8ff" stroke="#63b8ff" points="369.35,-704.29 379.83,-705.87 372.63,-698.1 369.35,-704.29"/>
</a>
</g>
</g>
<!-- Node4 -->
<g id="Node000004" class="node">
<title>Node4</title>
<g id="a_Node000004"><a xlink:href="class_big_data_stat_meth_1_1hdf5_file.html#abfb73b5f1eb25ee00489485c8dc56a2a" target="_top" xlink:title="Close file and cleanup resources.">
<polygon fill="white" stroke="#666666" points="505.88,-688.5 374.38,-688.5 374.38,-658 505.88,-658 505.88,-688.5"/>
<text xml:space="preserve" text-anchor="start" x="382.38" y="-675" font-family="Helvetica,sans-Serif" font-size="10.00">BigDataStatMeth::hdf5File</text>
<text xml:space="preserve" text-anchor="middle" x="440.12" y="-663.75" font-family="Helvetica,sans-Serif" font-size="10.00">::close_file</text>
</a>
</g>
</g>
<!-- Node2&#45;&gt;Node4 -->
<g id="edge3_Node000002_Node000004" class="edge">
<title>Node2&#45;&gt;Node4</title>
<g id="a_edge3_Node000002_Node000004"><a xlink:title=" ">
<path fill="none" stroke="#63b8ff" d="M268.71,-566.82C288.25,-587.96 325.95,-625.7 365,-648.25 367.96,-649.96 371.06,-651.58 374.24,-653.1"/>
<polygon fill="#63b8ff" stroke="#63b8ff" points="372.64,-656.22 383.2,-657.04 375.45,-649.81 372.64,-656.22"/>
</a>
</g>
</g>
<!-- Node5 -->
<g id="Node000005" class="node">
<title>Node5</title>
<g id="a_Node000005"><a xlink:href="class_big_data_stat_meth_1_1hdf5_group.html#a27cef4d33e46c72bfd792aa49fa621a3" target="_top" xlink:title="Create multiple nested groups.">
<polygon fill="white" stroke="#666666" points="511.12,-590.5 369.12,-590.5 369.12,-560 511.12,-560 511.12,-590.5"/>
<text xml:space="preserve" text-anchor="start" x="377.12" y="-577" font-family="Helvetica,sans-Serif" font-size="10.00">BigDataStatMeth::hdf5Group</text>
<text xml:space="preserve" text-anchor="middle" x="440.12" y="-565.75" font-family="Helvetica,sans-Serif" font-size="10.00">::create_HDF5_groups</text>
</a>
</g>
</g>
<!-- Node2&#45;&gt;Node5 -->
<g id="edge4_Node000002_Node000005" class="edge">
<title>Node2&#45;&gt;Node5</title>
<g id="a_edge4_Node000002_Node000005"><a xlink:title=" ">
<path fill="none" stroke="#63b8ff" d="M329.29,-560.94C338.59,-562.15 348.14,-563.4 357.54,-564.62"/>
<polygon fill="#63b8ff" stroke="#63b8ff" points="357.04,-568.09 367.41,-565.91 357.95,-561.15 357.04,-568.09"/>
</a>
</g>
</g>
<!-- Node7 -->
<g id="Node000007" class="node">
<title>Node7</title>
<g id="a_Node000007"><a xlink:href="namespace_big_data_stat_meth.html#a89d901ab4b5e01771f4e3fc7dc84e50e" target="_top" xlink:title="Checks if an HDF5 element (group or dataset) exists.">
<polygon fill="white" stroke="#666666" points="501.75,-639.5 378.5,-639.5 378.5,-609 501.75,-609 501.75,-639.5"/>
<text xml:space="preserve" text-anchor="start" x="386.5" y="-626" font-family="Helvetica,sans-Serif" font-size="10.00">BigDataStatMeth::exists</text>
<text xml:space="preserve" text-anchor="middle" x="440.12" y="-614.75" font-family="Helvetica,sans-Serif" font-size="10.00">_HDF5_element</text>
</a>
</g>
</g>
<!-- Node2&#45;&gt;Node7 -->
<g id="edge6_Node000002_Node000007" class="edge">
<title>Node2&#45;&gt;Node7</title>
<g id="a_edge6_Node000002_Node000007"><a xlink:title=" ">
<path fill="none" stroke="#63b8ff" d="M288.79,-566.93C310.41,-576.7 339.12,-589.27 365,-599.25 369.89,-601.14 374.99,-603.02 380.13,-604.86"/>
<polygon fill="#63b8ff" stroke="#63b8ff" points="378.64,-608.05 389.24,-608.07 380.96,-601.45 378.64,-608.05"/>
</a>
</g>
</g>
<!-- Node8 -->
<g id="Node000008" class="node">
<title>Node8</title>
<g id="a_Node000008"><a xlink:href="class_big_data_stat_meth_1_1hdf5_group.html#a59995412538627e6c80f64b552c286f5" target="_top" xlink:title=" ">
<polygon fill="white" stroke="#666666" points="511.12,-443.5 369.12,-443.5 369.12,-413 511.12,-413 511.12,-443.5"/>
<text xml:space="preserve" text-anchor="start" x="377.12" y="-430" font-family="Helvetica,sans-Serif" font-size="10.00">BigDataStatMeth::hdf5Group</text>
<text xml:space="preserve" text-anchor="middle" x="440.12" y="-418.75" font-family="Helvetica,sans-Serif" font-size="10.00">::getGroupName</text>
</a>
</g>
</g>
<!-- Node2&#45;&gt;Node8 -->
<g id="edge8_Node000002_Node000008" class="edge">
<title>Node2&#45;&gt;Node8</title>
<g id="a_edge8_Node000002_Node000008"><a xlink:title=" ">
<path fill="none" stroke="#63b8ff" d="M268.67,-535.51C288.18,-514.14 325.83,-476 365,-453.25 367.81,-451.62 370.74,-450.07 373.74,-448.62"/>
<polygon fill="#63b8ff" stroke="#63b8ff" points="375.08,-451.85 382.79,-444.59 372.23,-445.46 375.08,-451.85"/>
</a>
</g>
</g>
<!-- Node9 -->
<g id="Node000009" class="node">
<title>Node9</title>
<g id="a_Node000009"><a xlink:href="namespace_big_data_stat_meth.html#a3d06783149029f1df2853c472d401380" target="_top" xlink:title="Removes multiple elements from an HDF5 file.">
<polygon fill="white" stroke="#666666" points="504.75,-541.5 375.5,-541.5 375.5,-511 504.75,-511 504.75,-541.5"/>
<text xml:space="preserve" text-anchor="start" x="383.5" y="-528" font-family="Helvetica,sans-Serif" font-size="10.00">BigDataStatMeth::remove</text>
<text xml:space="preserve" text-anchor="middle" x="440.12" y="-516.75" font-family="Helvetica,sans-Serif" font-size="10.00">_elements</text>
</a>
</g>
</g>
<!-- Node2&#45;&gt;Node9 -->
<g id="edge9_Node000002_Node000009" class="edge">
<title>Node2&#45;&gt;Node9</title>
<g id="a_edge9_Node000002_Node000009"><a xlink:title=" ">
<path fill="none" stroke="#63b8ff" d="M329.29,-541.15C340.67,-539.61 352.43,-538.01 363.84,-536.47"/>
<polygon fill="#63b8ff" stroke="#63b8ff" points="364.16,-539.95 373.6,-535.14 363.22,-533.02 364.16,-539.95"/>
</a>
</g>
</g>
<!-- Node10 -->
<g id="Node000010" class="node">
<title>Node10</title>
<g id="a_Node000010"><a xlink:href="class_big_data_stat_meth_1_1hdf5_dataset.html#acf9843abcb57a0090f1635cc69d95300" target="_top" xlink:title="Write data to the dataset.">
<polygon fill="white" stroke="#666666" points="515.25,-492.5 365,-492.5 365,-462 515.25,-462 515.25,-492.5"/>
<text xml:space="preserve" text-anchor="start" x="373" y="-479" font-family="Helvetica,sans-Serif" font-size="10.00">BigDataStatMeth::hdf5Dataset</text>
<text xml:space="preserve" text-anchor="middle" x="440.12" y="-467.75" font-family="Helvetica,sans-Serif" font-size="10.00">::writeDataset</text>
</a>
</g>
</g>
<!-- Node2&#45;&gt;Node10 -->
<g id="edge10_Node000002_Node000010" class="edge">
<title>Node2&#45;&gt;Node10</title>
<g id="a_edge10_Node000002_Node000010"><a xlink:title=" ">
<path fill="none" stroke="#63b8ff" d="M287.79,-535.64C309.5,-525.58 338.68,-512.52 365,-502.25 369.88,-500.34 374.98,-498.45 380.11,-496.6"/>
<polygon fill="#63b8ff" stroke="#63b8ff" points="380.95,-500.01 389.22,-493.38 378.62,-493.41 380.95,-500.01"/>
</a>
</g>
</g>
<!-- Node6 -->
<g id="Node000006" class="node">
<title>Node6</title>
<g id="a_Node000006"><a xlink:href="namespace_big_data_stat_meth.html#abcaa4216cd52f03ebac42e4855ef846b" target="_top" xlink:title="Checks if a path exists in an HDF5 file.">
<polygon fill="white" stroke="#666666" points="708.62,-608.88 565.12,-608.88 565.12,-589.62 708.62,-589.62 708.62,-608.88"/>
<text xml:space="preserve" text-anchor="middle" x="636.88" y="-595.38" font-family="Helvetica,sans-Serif" font-size="10.00">BigDataStatMeth::pathExists</text>
</a>
</g>
</g>
<!-- Node5&#45;&gt;Node6 -->
<g id="edge5_Node000005_Node000006" class="edge">
<title>Node5&#45;&gt;Node6</title>
<g id="a_edge5_Node000005_Node000006"><a xlink:title=" ">
<path fill="none" stroke="#63b8ff" d="M511.43,-583.91C525.1,-585.6 539.55,-587.38 553.56,-589.11"/>
<polygon fill="#63b8ff" stroke="#63b8ff" points="552.83,-592.54 563.19,-590.29 553.69,-585.6 552.83,-592.54"/>
</a>
</g>
</g>
<!-- Node7&#45;&gt;Node6 -->
<g id="edge7_Node000007_Node000006" class="edge">
<title>Node7&#45;&gt;Node6</title>
<g id="a_edge7_Node000007_Node000006"><a xlink:title=" ">
<path fill="none" stroke="#63b8ff" d="M502.21,-616.41C518.5,-614.32 536.37,-612.02 553.59,-609.81"/>
<polygon fill="#63b8ff" stroke="#63b8ff" points="553.82,-613.31 563.29,-608.57 552.93,-606.37 553.82,-613.31"/>
</a>
</g>
</g>
<!-- Node11 -->
<g id="Node000011" class="node">
<title>Node11</title>
<g id="a_Node000011"><a xlink:href="class_big_data_stat_meth_1_1hdf5_dataset.html#aba39e56a580d3b1fa7f1619fc72efa3e" target="_top" xlink:title="Close dataset and file.">
<polygon fill="white" stroke="#666666" points="712,-453.5 561.75,-453.5 561.75,-423 712,-423 712,-453.5"/>
<text xml:space="preserve" text-anchor="start" x="569.75" y="-440" font-family="Helvetica,sans-Serif" font-size="10.00">BigDataStatMeth::hdf5Dataset</text>
<text xml:space="preserve" text-anchor="middle" x="636.88" y="-428.75" font-family="Helvetica,sans-Serif" font-size="10.00">::close_dataset_file</text>
</a>
</g>
</g>
<!-- Node10&#45;&gt;Node11 -->
<g id="edge11_Node000010_Node000011" class="edge">
<title>Node10&#45;&gt;Node11</title>
<g id="a_edge11_Node000010_Node000011"><a xlink:title=" ">
<path fill="none" stroke="#63b8ff" d="M515.59,-462.34C526.98,-460.06 538.81,-457.69 550.42,-455.36"/>
<polygon fill="#63b8ff" stroke="#63b8ff" points="550.85,-458.85 559.97,-453.45 549.48,-451.98 550.85,-458.85"/>
</a>
</g>
</g>
<!-- Node12 -->
<g id="Node000012" class="node">
<title>Node12</title>
<g id="a_Node000012"><a xlink:href="class_big_data_stat_meth_1_1hdf5_dataset.html#a94d81b72e92cb0230b4e64f37ea7d2e3" target="_top" xlink:title="Convert DataFrame to range list.">
<polygon fill="white" stroke="#666666" points="722.5,-404.5 551.25,-404.5 551.25,-374 722.5,-374 722.5,-404.5"/>
<text xml:space="preserve" text-anchor="start" x="559.25" y="-391" font-family="Helvetica,sans-Serif" font-size="10.00">BigDataStatMeth::hdf5Dataset</text>
<text xml:space="preserve" text-anchor="middle" x="636.88" y="-379.75" font-family="Helvetica,sans-Serif" font-size="10.00">::convert_DataFrame_to_RangeList</text>
</a>
</g>
</g>
<!-- Node10&#45;&gt;Node12 -->
<g id="edge12_Node000010_Node000012" class="edge">
<title>Node10&#45;&gt;Node12</title>
<g id="a_edge12_Node000010_Node000012"><a xlink:title=" ">
<path fill="none" stroke="#63b8ff" d="M497.53,-461.51C503.72,-458.84 509.76,-455.76 515.25,-452.25 534.85,-439.72 531.41,-426.41 551.25,-414.25 554.01,-412.56 556.88,-410.98 559.84,-409.5"/>
<polygon fill="#63b8ff" stroke="#63b8ff" points="561.09,-412.78 568.77,-405.48 558.22,-406.39 561.09,-412.78"/>
</a>
</g>
</g>
<!-- Node14 -->
<g id="Node000014" class="node">
<title>Node14</title>
<g id="a_Node000014"><a xlink:href="openme-utils_8hpp.html#a7d6263da9da6b46b945746e3abdea4ca" target="_top" xlink:title="Determines number of threads for parallel operations.">
<polygon fill="white" stroke="#666666" points="477.75,-287.88 402.5,-287.88 402.5,-268.62 477.75,-268.62 477.75,-287.88"/>
<text xml:space="preserve" text-anchor="middle" x="440.12" y="-274.38" font-family="Helvetica,sans-Serif" font-size="10.00">getDTthreads</text>
</a>
</g>
</g>
<!-- Node13&#45;&gt;Node14 -->
<g id="edge14_Node000013_Node000014" class="edge">
<title>Node13&#45;&gt;Node14</title>
<g id="a_edge14_Node000013_Node000014"><a xlink:title=" ">
<path fill="none" stroke="#63b8ff" d="M306.2,-296.29C332.73,-292.69 364.91,-288.32 390.97,-284.78"/>
<polygon fill="#63b8ff" stroke="#63b8ff" points="391.15,-288.29 400.59,-283.48 390.21,-281.35 391.15,-288.29"/>
</a>
</g>
</g>
<!-- Node15 -->
<g id="Node000015" class="node">
<title>Node15</title>
<g id="a_Node000015"><a xlink:href="openme-utils_8hpp.html#a32e65a19d36ceec1952e48362e4153b8" target="_top" xlink:title="Initializes thread configuration based on environment and system state.">
<polygon fill="white" stroke="#666666" points="674.12,-269.88 599.62,-269.88 599.62,-250.62 674.12,-250.62 674.12,-269.88"/>
<text xml:space="preserve" text-anchor="middle" x="636.88" y="-256.38" font-family="Helvetica,sans-Serif" font-size="10.00">initDTthreads</text>
</a>
</g>
</g>
<!-- Node14&#45;&gt;Node15 -->
<g id="edge15_Node000014_Node000015" class="edge">
<title>Node14&#45;&gt;Node15</title>
<g id="a_edge15_Node000014_Node000015"><a xlink:title=" ">
<path fill="none" stroke="#63b8ff" d="M478.21,-274.82C509.45,-271.94 554.32,-267.79 588.22,-264.65"/>
<polygon fill="#63b8ff" stroke="#63b8ff" points="588.11,-268.18 597.75,-263.77 587.47,-261.21 588.11,-268.18"/>
</a>
</g>
</g>
<!-- Node16 -->
<g id="Node000016" class="node">
<title>Node16</title>
<g id="a_Node000016"><a xlink:href="openme-utils_8hpp.html#a62643b5f3a2b3d36929fed3c368c2cfc" target="_top" xlink:title="Retrieves integer value from environment variable.">
<polygon fill="white" stroke="#666666" points="816.5,-306.88 758.5,-306.88 758.5,-287.62 816.5,-287.62 816.5,-306.88"/>
<text xml:space="preserve" text-anchor="middle" x="787.5" y="-293.38" font-family="Helvetica,sans-Serif" font-size="10.00">getIntEnv</text>
</a>
</g>
</g>
<!-- Node15&#45;&gt;Node16 -->
<g id="edge16_Node000015_Node000016" class="edge">
<title>Node15&#45;&gt;Node16</title>
<g id="a_edge16_Node000015_Node000016"><a xlink:title=" ">
<path fill="none" stroke="#63b8ff" d="M674.26,-267.33C689.26,-270.42 706.78,-274.25 722.5,-278.25 730.61,-280.31 739.23,-282.72 747.44,-285.12"/>
<polygon fill="#63b8ff" stroke="#63b8ff" points="746.24,-288.42 756.83,-287.92 748.24,-281.71 746.24,-288.42"/>
</a>
</g>
</g>
<!-- Node17 -->
<g id="Node000017" class="node">
<title>Node17</title>
<g id="a_Node000017"><a xlink:href="openme-utils_8hpp.html#afca01a231aef5cdbcbb5c23a7134e9d4" target="_top" xlink:title="Maximum of two integers.">
<polygon fill="white" stroke="#666666" points="806,-269.88 769,-269.88 769,-250.62 806,-250.62 806,-269.88"/>
<text xml:space="preserve" text-anchor="middle" x="787.5" y="-256.38" font-family="Helvetica,sans-Serif" font-size="10.00">imax</text>
</a>
</g>
</g>
<!-- Node15&#45;&gt;Node17 -->
<g id="edge17_Node000015_Node000017" class="edge">
<title>Node15&#45;&gt;Node17</title>
<g id="a_edge17_Node000015_Node000017"><a xlink:title=" ">
<path fill="none" stroke="#63b8ff" d="M674.61,-260.25C700.09,-260.25 733.56,-260.25 757.23,-260.25"/>
<polygon fill="#63b8ff" stroke="#63b8ff" points="757.11,-263.75 767.11,-260.25 757.11,-256.75 757.11,-263.75"/>
</a>
</g>
</g>
<!-- Node18 -->
<g id="Node000018" class="node">
<title>Node18</title>
<g id="a_Node000018"><a xlink:href="openme-utils_8hpp.html#aa011f843a2a959cc6f8c226f60e96224" target="_top" xlink:title="Minimum of two integers.">
<polygon fill="white" stroke="#666666" points="804.5,-232.88 770.5,-232.88 770.5,-213.62 804.5,-213.62 804.5,-232.88"/>
<text xml:space="preserve" text-anchor="middle" x="787.5" y="-219.38" font-family="Helvetica,sans-Serif" font-size="10.00">imin</text>
</a>
</g>
</g>
<!-- Node15&#45;&gt;Node18 -->
<g id="edge18_Node000015_Node000018" class="edge">
<title>Node15&#45;&gt;Node18</title>
<g id="a_edge18_Node000015_Node000018"><a xlink:title=" ">
<path fill="none" stroke="#63b8ff" d="M674.61,-251.1C700.79,-244.59 735.41,-235.97 759.17,-230.05"/>
<polygon fill="#63b8ff" stroke="#63b8ff" points="759.86,-233.49 768.72,-227.68 758.17,-226.7 759.86,-233.49"/>
</a>
</g>
</g>
<!-- Node22&#45;&gt;Node8 -->
<g id="edge23_Node000022_Node000008" class="edge">
<title>Node22&#45;&gt;Node8</title>
<g id="a_edge23_Node000022_Node000008"><a xlink:title=" ">
<path fill="none" stroke="#63b8ff" d="M329.29,-426.46C338.59,-426.61 348.14,-426.77 357.54,-426.92"/>
<polygon fill="#63b8ff" stroke="#63b8ff" points="357.34,-430.42 367.4,-427.08 357.46,-423.42 357.34,-430.42"/>
</a>
</g>
</g>
<!-- Node26&#45;&gt;Node11 -->
<g id="edge28_Node000026_Node000011" class="edge">
<title>Node26&#45;&gt;Node11</title>
<g id="a_edge28_Node000026_Node000011"><a xlink:title=" ">
<path fill="none" stroke="#63b8ff" d="M491.52,-394.95C510.26,-400.75 531.71,-407.35 551.25,-413.25 557.89,-415.26 564.83,-417.33 571.75,-419.4"/>
<polygon fill="#63b8ff" stroke="#63b8ff" points="570.54,-422.69 581.13,-422.18 572.54,-415.98 570.54,-422.69"/>
</a>
</g>
</g>
<!-- Node27&#45;&gt;Node11 -->
<g id="edge31_Node000027_Node000011" class="edge">
<title>Node27&#45;&gt;Node11</title>
<g id="a_edge31_Node000027_Node000011"><a xlink:title=" ">
<path fill="none" stroke="#63b8ff" d="M500.17,-345.84C505.54,-348.51 510.67,-351.62 515.25,-355.25 539.03,-374.1 527.12,-394.86 551.25,-413.25 553.03,-414.61 554.89,-415.89 556.8,-417.11"/>
<polygon fill="#63b8ff" stroke="#63b8ff" points="555.02,-420.12 565.46,-421.89 558.4,-413.99 555.02,-420.12"/>
</a>
</g>
</g>
<!-- Node27&#45;&gt;Node12 -->
<g id="edge32_Node000027_Node000012" class="edge">
<title>Node27&#45;&gt;Node12</title>
<g id="a_edge32_Node000027_Node000012"><a xlink:title=" ">
<path fill="none" stroke="#63b8ff" d="M491.52,-345.95C510.26,-351.75 531.71,-358.35 551.25,-364.25 557.89,-366.26 564.83,-368.33 571.75,-370.4"/>
<polygon fill="#63b8ff" stroke="#63b8ff" points="570.54,-373.69 581.13,-373.18 572.54,-366.98 570.54,-373.69"/>
</a>
</g>
</g>
<!-- Node28 -->
<g id="Node000028" class="node">
<title>Node28</title>
<g id="a_Node000028"><a xlink:href="class_big_data_stat_meth_1_1hdf5_dataset.html#a64177ae924792ea9e557febaa95ed400" target="_top" xlink:title="Close the dataset.">
<polygon fill="white" stroke="#666666" points="712,-355.5 561.75,-355.5 561.75,-325 712,-325 712,-355.5"/>
<text xml:space="preserve" text-anchor="start" x="569.75" y="-342" font-family="Helvetica,sans-Serif" font-size="10.00">BigDataStatMeth::hdf5Dataset</text>
<text xml:space="preserve" text-anchor="middle" x="636.88" y="-330.75" font-family="Helvetica,sans-Serif" font-size="10.00">::close_dataset</text>
</a>
</g>
</g>
<!-- Node27&#45;&gt;Node28 -->
<g id="edge30_Node000027_Node000028" class="edge">
<title>Node27&#45;&gt;Node28</title>
<g id="a_edge30_Node000027_Node000028"><a xlink:title=" ">
<path fill="none" stroke="#63b8ff" d="M515.59,-334.07C526.86,-334.65 538.57,-335.25 550.06,-335.84"/>
<polygon fill="#63b8ff" stroke="#63b8ff" points="549.78,-339.33 559.94,-336.35 550.14,-332.34 549.78,-339.33"/>
</a>
</g>
</g>
<!-- Node29 -->
<g id="Node000029" class="node">
<title>Node29</title>
<g id="a_Node000029"><a xlink:href="namespace_big_data_stat_meth.html#a2692707b3ea4aaafa09d07afaf632437" target="_top" xlink:title="Transposes a 2D matrix.">
<polygon fill="white" stroke="#666666" points="706.75,-306.88 567,-306.88 567,-287.62 706.75,-287.62 706.75,-306.88"/>
<text xml:space="preserve" text-anchor="middle" x="636.88" y="-293.38" font-family="Helvetica,sans-Serif" font-size="10.00">BigDataStatMeth::transpose</text>
</a>
</g>
</g>
<!-- Node27&#45;&gt;Node29 -->
<g id="edge33_Node000027_Node000029" class="edge">
<title>Node27&#45;&gt;Node29</title>
<g id="a_edge33_Node000027_Node000029"><a xlink:title=" ">
<path fill="none" stroke="#63b8ff" d="M515.59,-317.63C531.9,-314.87 549.13,-311.95 565.28,-309.21"/>
<polygon fill="#63b8ff" stroke="#63b8ff" points="565.51,-312.72 574.78,-307.6 564.34,-305.82 565.51,-312.72"/>
</a>
</g>
</g>
</g>
</svg>

<g id="navigator" transform="translate(0 0)" fill="#404254">
  <rect fill="#f2f5e9" fill-opacity="0.5" stroke="#606060" stroke-width=".5" x="0" y="0" width="60" height="60"/>
  <use id="zoomplus" xlink:href="#zoomPlus" x="17" y="9" onmousedown="handleZoom(evt,'in')"/>
  <use id="zoomminus" xlink:href="#zoomMin" x="42" y="9" onmousedown="handleZoom(evt,'out')"/>
  <use id="reset" xlink:href="#resetDef" x="30" y="36" onmousedown="handleReset()"/>
   <use id="arrowup" xlink:href="#arrowUp" x="0" y="0" onmousedown="handlePan(0,-1)"/>
  <use id="arrowright" xlink:href="#arrowRight" x="0" y="0" onmousedown="handlePan(1,0)"/>
  <use id="arrowdown" xlink:href="#arrowDown" x="0" y="0" onmousedown="handlePan(0,1)"/>
  <use id="arrowleft" xlink:href="#arrowLeft" x="0" y="0" onmousedown="handlePan(-1,0)"/>
</g>
<svg viewBox="0 0 15 15" width="100%" height="30px" preserveAspectRatio="xMaxYMin meet">
 <g id="arrow_out" transform="scale(0.3 0.3)">
  <a xlink:href="namespace_big_data_stat_meth_ac2e6dd65c09c7af829c6e4732ac18781_cgraph_org.svg" target="_base">
   <rect id="button" ry="5" rx="5" y="6" x="6" height="38" width="38"
        fill="#f2f5e9" fill-opacity="0.5" stroke="#606060" stroke-width="1.0"/>
   <path id="arrow"
     d="M 11.500037,31.436501 C 11.940474,20.09759 22.043105,11.32322 32.158766,21.979434 L 37.068811,17.246167 C 37.068811,17.246167 37.088388,32 37.088388,32 L 22.160133,31.978069 C 22.160133,31.978069 26.997745,27.140456 26.997745,27.140456 C 18.528582,18.264221 13.291696,25.230495 11.500037,31.436501 z"
     style="fill:#404040;"/>
  </a>
 </g>
</svg>

<style type='text/css'>
<![CDATA[
[data-mouse-over-selected='false'] { opacity: 0.7; }
[data-mouse-over-selected='true']  { opacity: 1.0; }
]]>
</style>
<script type="application/ecmascript"><![CDATA[
document.addEventListener('DOMContentLoaded', (event) => {
  highlightEdges();
  highlightAdjacentNodes();
});
]]></script>
</svg>
