<?xml version="1.0" encoding="UTF-8" standalone="no"?>
<!DOCTYPE svg PUBLIC "-//W3C//DTD SVG 1.1//EN"
 "http://www.w3.org/Graphics/SVG/1.1/DTD/svg11.dtd">
<!-- Generated by graphviz version 14.0.0 (20250921.2048)
 -->
<!-- Title: BigDataStatMeth::Rcpp_Remove_Low_Data_hdf5 Pages: 1 -->
<!--zoomable 592 -->

<svg id="main" version="1.1" xmlns="http://www.w3.org/2000/svg" xmlns:xlink="http://www.w3.org/1999/xlink" xml:space="preserve" onload="init(evt)">

<style type="text/css"><![CDATA[
.node, .edge {opacity: 0.7;}
.node.selected, .edge.selected {opacity: 1;}
.edge:hover path { stroke: red; }
.edge:hover polygon { stroke: red; fill: red; }
]]></style>

<defs>
  <circle id="rim" cx="0" cy="0" r="7"/>
  <circle id="rim2" cx="0" cy="0" r="3.5"/>
  <g id="zoomPlus">
    <use xlink:href="#rim" fill="#404040"><set attributeName="fill" to="#808080" begin="zoomplus.mouseover" end="zoomplus.mouseout"/></use>
    <path d="M-4,0h8M0,-4v8" fill="none" stroke="white" stroke-width="1.5" pointer-events="none"/>
  </g>
  <g id="zoomMin">
    <use xlink:href="#rim" fill="#404040"><set attributeName="fill" to="#808080" begin="zoomminus.mouseover" end="zoomminus.mouseout"/></use>
    <path d="M-4,0h8" fill="none" stroke="white" stroke-width="1.5" pointer-events="none"/>
  </g>
  <g id="arrowUp" transform="translate(30 24)">
    <use xlink:href="#rim"/>
    <path pointer-events="none" fill="none" stroke="white" stroke-width="1.5" d="M0,-3.0v7 M-2.5,-0.5L0,-3.0L2.5,-0.5"/>
  </g>
  <g id="arrowRight" transform="rotate(90) translate(36 -43)">
    <use xlink:href="#rim"/>
    <path pointer-events="none" fill="none" stroke="white" stroke-width="1.5" d="M0,-3.0v7 M-2.5,-0.5L0,-3.0L2.5,-0.5"/>
  </g>
  <g id="arrowDown" transform="rotate(180) translate(-30 -48)">
    <use xlink:href="#rim"/>
    <path pointer-events="none" fill="none" stroke="white" stroke-width="1.5" d="M0,-3.0v7 M-2.5,-0.5L0,-3.0L2.5,-0.5"/>
  </g>
  <g id="arrowLeft" transform="rotate(270) translate(-36 17)">
    <use xlink:href="#rim"/>
    <path pointer-events="none" fill="none" stroke="white" stroke-width="1.5" d="M0,-3.0v7 M-2.5,-0.5L0,-3.0L2.5,-0.5"/>
  </g>
  <g id="resetDef">
    <use xlink:href="#rim2" fill="#404040"><set attributeName="fill" to="#808080" begin="reset.mouseover" end="reset.mouseout"/></use>
  </g>
</defs>
<script type="application/ecmascript">
var viewWidth = 921;
var viewHeight = 592;
var sectionId = 'dynsection-111';
</script>
<script type="application/ecmascript" xlink:href="../../../../assets/svg.min.js"/>
<svg id="graph" class="graph">
<g id="viewport">
<title>BigDataStatMeth::Rcpp_Remove_Low_Data_hdf5</title>
<!-- Node1 -->
<g id="Node000001" class="node">
<title>Node1</title>
<g id="a_Node000001"><a xlink:title="Removes rows or columns with high percentage of missing data from HDF5 dataset.">
<polygon fill="#999999" stroke="#666666" points="131.5,-280.5 0,-280.5 0,-250 131.5,-250 131.5,-280.5"/>
<text xml:space="preserve" text-anchor="start" x="8" y="-267" font-family="Helvetica,sans-Serif" font-size="10.00">BigDataStatMeth::Rcpp</text>
<text xml:space="preserve" text-anchor="middle" x="65.75" y="-255.75" font-family="Helvetica,sans-Serif" font-size="10.00">_Remove_Low_Data_hdf5</text>
</a>
</g>
</g>
<!-- Node2 -->
<g id="Node000002" class="node">
<title>Node2</title>
<g id="a_Node000002"><a xlink:href="namespace_big_data_stat_meth.html#a304b42b14ec87d4acc6f34ff0231529d" target="_top" xlink:title="Safely close any number of dataset handles (C++17).">
<polygon fill="white" stroke="#666666" points="336.88,-493.88 170.12,-493.88 170.12,-474.62 336.88,-474.62 336.88,-493.88"/>
<text xml:space="preserve" text-anchor="middle" x="253.5" y="-480.38" font-family="Helvetica,sans-Serif" font-size="10.00">BigDataStatMeth::checkClose_file</text>
</a>
</g>
</g>
<!-- Node1&#45;&gt;Node2 -->
<g id="edge1_Node000001_Node000002" class="edge">
<title>Node1&#45;&gt;Node2</title>
<g id="a_edge1_Node000001_Node000002"><a xlink:title=" ">
<path fill="none" stroke="#63b8ff" d="M69.85,-280.9C78.24,-318.92 105.1,-416.61 167.5,-465.25 169.24,-466.61 171.07,-467.88 172.95,-469.05"/>
<polygon fill="#63b8ff" stroke="#63b8ff" points="171.02,-471.99 181.5,-473.55 174.28,-465.8 171.02,-471.99"/>
</a>
</g>
</g>
<!-- Node3 -->
<g id="Node000003" class="node">
<title>Node3</title>
<g id="a_Node000003"><a xlink:href="class_big_data_stat_meth_1_1hdf5_dataset.html#a7d4d9784a080f09d3b2f05e2d397a034" target="_top" xlink:title="Create an unlimited dataset with optional compression.">
<polygon fill="white" stroke="#666666" points="328.62,-456.5 178.38,-456.5 178.38,-426 328.62,-426 328.62,-456.5"/>
<text xml:space="preserve" text-anchor="start" x="186.38" y="-443" font-family="Helvetica,sans-Serif" font-size="10.00">BigDataStatMeth::hdf5Dataset</text>
<text xml:space="preserve" text-anchor="middle" x="253.5" y="-431.75" font-family="Helvetica,sans-Serif" font-size="10.00">::createUnlimitedDataset</text>
</a>
</g>
</g>
<!-- Node1&#45;&gt;Node3 -->
<g id="edge2_Node000001_Node000003" class="edge">
<title>Node1&#45;&gt;Node3</title>
<g id="a_edge2_Node000001_Node000003"><a xlink:title=" ">
<path fill="none" stroke="#63b8ff" d="M79.3,-280.78C97.61,-303.02 133.2,-344.72 167.5,-376.25 184.19,-391.59 204.29,-407.08 220.75,-419.09"/>
<polygon fill="#63b8ff" stroke="#63b8ff" points="218.58,-421.84 228.74,-424.84 222.67,-416.16 218.58,-421.84"/>
</a>
</g>
</g>
<!-- Node10 -->
<g id="Node000010" class="node">
<title>Node10</title>
<g id="a_Node000010"><a xlink:href="class_big_data_stat_meth_1_1hdf5_dataset.html#a7b54a6f524581d54102a1614ee44991b" target="_top" xlink:title="Get dataset dimension.">
<polygon fill="white" stroke="#666666" points="339.5,-366.88 167.5,-366.88 167.5,-347.62 339.5,-347.62 339.5,-366.88"/>
<text xml:space="preserve" text-anchor="middle" x="253.5" y="-353.38" font-family="Helvetica,sans-Serif" font-size="10.00">BigDataStatMeth::hdf5Dataset::dim</text>
</a>
</g>
</g>
<!-- Node1&#45;&gt;Node10 -->
<g id="edge10_Node000001_Node000010" class="edge">
<title>Node1&#45;&gt;Node10</title>
<g id="a_edge10_Node000001_Node000010"><a xlink:title=" ">
<path fill="none" stroke="#63b8ff" d="M83.57,-280.81C102.55,-297.51 135.01,-323.6 167.5,-338.25 172.12,-340.33 176.99,-342.2 181.97,-343.86"/>
<polygon fill="#63b8ff" stroke="#63b8ff" points="180.93,-347.21 191.51,-346.76 182.96,-340.51 180.93,-347.21"/>
</a>
</g>
</g>
<!-- Node11 -->
<g id="Node000011" class="node">
<title>Node11</title>
<g id="a_Node000011"><a xlink:href="class_big_data_stat_meth_1_1hdf5_dataset.html#a5235fb1fb8b567325b1405bcef9f061d" target="_top" xlink:title="Extend an unlimited dataset.">
<polygon fill="white" stroke="#666666" points="328.62,-280.5 178.38,-280.5 178.38,-250 328.62,-250 328.62,-280.5"/>
<text xml:space="preserve" text-anchor="start" x="186.38" y="-267" font-family="Helvetica,sans-Serif" font-size="10.00">BigDataStatMeth::hdf5Dataset</text>
<text xml:space="preserve" text-anchor="middle" x="253.5" y="-255.75" font-family="Helvetica,sans-Serif" font-size="10.00">::extendUnlimitedDataset</text>
</a>
</g>
</g>
<!-- Node1&#45;&gt;Node11 -->
<g id="edge11_Node000001_Node000011" class="edge">
<title>Node1&#45;&gt;Node11</title>
<g id="a_edge11_Node000001_Node000011"><a xlink:title=" ">
<path fill="none" stroke="#63b8ff" d="M131.98,-265.25C143.11,-265.25 154.83,-265.25 166.4,-265.25"/>
<polygon fill="#63b8ff" stroke="#63b8ff" points="166.39,-268.75 176.39,-265.25 166.39,-261.75 166.39,-268.75"/>
</a>
</g>
</g>
<!-- Node13 -->
<g id="Node000013" class="node">
<title>Node13</title>
<g id="a_Node000013"><a xlink:href="class_big_data_stat_meth_1_1hdf5_dataset.html#ab57cadee5e43a496eb32dbf12d603d76" target="_top" xlink:title=" ">
<polygon fill="white" stroke="#666666" points="328.62,-329.5 178.38,-329.5 178.38,-299 328.62,-299 328.62,-329.5"/>
<text xml:space="preserve" text-anchor="start" x="186.38" y="-316" font-family="Helvetica,sans-Serif" font-size="10.00">BigDataStatMeth::hdf5Dataset</text>
<text xml:space="preserve" text-anchor="middle" x="253.5" y="-304.75" font-family="Helvetica,sans-Serif" font-size="10.00">::openDataset</text>
</a>
</g>
</g>
<!-- Node1&#45;&gt;Node13 -->
<g id="edge13_Node000001_Node000013" class="edge">
<title>Node1&#45;&gt;Node13</title>
<g id="a_edge13_Node000001_Node000013"><a xlink:title=" ">
<path fill="none" stroke="#63b8ff" d="M126.29,-280.96C144.04,-285.64 163.65,-290.81 182.03,-295.66"/>
<polygon fill="#63b8ff" stroke="#63b8ff" points="180.95,-299 191.52,-298.16 182.74,-292.23 180.95,-299"/>
</a>
</g>
</g>
<!-- Node16 -->
<g id="Node000016" class="node">
<title>Node16</title>
<g id="a_Node000016"><a xlink:href="class_big_data_stat_meth_1_1hdf5_dataset.html#a23bea87165b8ef6b944709c5b2cbd0cf" target="_top" xlink:title=" ">
<polygon fill="white" stroke="#666666" points="328.62,-231.5 178.38,-231.5 178.38,-201 328.62,-201 328.62,-231.5"/>
<text xml:space="preserve" text-anchor="start" x="186.38" y="-218" font-family="Helvetica,sans-Serif" font-size="10.00">BigDataStatMeth::hdf5Dataset</text>
<text xml:space="preserve" text-anchor="middle" x="253.5" y="-206.75" font-family="Helvetica,sans-Serif" font-size="10.00">::readDatasetBlock</text>
</a>
</g>
</g>
<!-- Node1&#45;&gt;Node16 -->
<g id="edge20_Node000001_Node000016" class="edge">
<title>Node1&#45;&gt;Node16</title>
<g id="a_edge20_Node000001_Node000016"><a xlink:title=" ">
<path fill="none" stroke="#63b8ff" d="M126.29,-249.54C144.04,-244.86 163.65,-239.69 182.03,-234.84"/>
<polygon fill="#63b8ff" stroke="#63b8ff" points="182.74,-238.27 191.52,-232.34 180.95,-231.5 182.74,-238.27"/>
</a>
</g>
</g>
<!-- Node17 -->
<g id="Node000017" class="node">
<title>Node17</title>
<g id="a_Node000017"><a xlink:href="namespace_big_data_stat_meth.html#a962551a78d986ff03e179f2d6df2af52" target="_top" xlink:title="Removes a column from an Eigen matrix.">
<polygon fill="white" stroke="#666666" points="335,-182.88 172,-182.88 172,-163.62 335,-163.62 335,-182.88"/>
<text xml:space="preserve" text-anchor="middle" x="253.5" y="-169.38" font-family="Helvetica,sans-Serif" font-size="10.00">BigDataStatMeth::removeColumn</text>
</a>
</g>
</g>
<!-- Node1&#45;&gt;Node17 -->
<g id="edge22_Node000001_Node000017" class="edge">
<title>Node1&#45;&gt;Node17</title>
<g id="a_edge22_Node000001_Node000017"><a xlink:title=" ">
<path fill="none" stroke="#63b8ff" d="M83.57,-249.69C102.55,-232.99 135.01,-206.9 167.5,-192.25 172.12,-190.17 176.99,-188.3 181.97,-186.64"/>
<polygon fill="#63b8ff" stroke="#63b8ff" points="182.96,-189.99 191.51,-183.74 180.93,-183.29 182.96,-189.99"/>
</a>
</g>
</g>
<!-- Node18 -->
<g id="Node000018" class="node">
<title>Node18</title>
<g id="a_Node000018"><a xlink:href="namespace_big_data_stat_meth.html#a5e29fef215232998153a651719685521" target="_top" xlink:title="Removes a row from an Eigen matrix.">
<polygon fill="white" stroke="#666666" points="328.25,-145.88 178.75,-145.88 178.75,-126.62 328.25,-126.62 328.25,-145.88"/>
<text xml:space="preserve" text-anchor="middle" x="253.5" y="-132.38" font-family="Helvetica,sans-Serif" font-size="10.00">BigDataStatMeth::removeRow</text>
</a>
</g>
</g>
<!-- Node1&#45;&gt;Node18 -->
<g id="edge23_Node000001_Node000018" class="edge">
<title>Node1&#45;&gt;Node18</title>
<g id="a_edge23_Node000001_Node000018"><a xlink:title=" ">
<path fill="none" stroke="#63b8ff" d="M76.32,-249.51C92.09,-225.01 125.97,-178.09 167.5,-154.25 169.82,-152.92 172.22,-151.69 174.69,-150.54"/>
<polygon fill="#63b8ff" stroke="#63b8ff" points="175.76,-153.89 183.73,-146.91 173.14,-147.39 175.76,-153.89"/>
</a>
</g>
</g>
<!-- Node19 -->
<g id="Node000019" class="node">
<title>Node19</title>
<g id="a_Node000019"><a xlink:href="class_big_data_stat_meth_1_1hdf5_dataset.html#af606176d84a63561b65702b6fde3a583" target="_top" xlink:title="Write block of data with optional transposition.">
<polygon fill="white" stroke="#666666" points="328.62,-108.5 178.38,-108.5 178.38,-78 328.62,-78 328.62,-108.5"/>
<text xml:space="preserve" text-anchor="start" x="186.38" y="-95" font-family="Helvetica,sans-Serif" font-size="10.00">BigDataStatMeth::hdf5Dataset</text>
<text xml:space="preserve" text-anchor="middle" x="253.5" y="-83.75" font-family="Helvetica,sans-Serif" font-size="10.00">::writeDatasetBlock</text>
</a>
</g>
</g>
<!-- Node1&#45;&gt;Node19 -->
<g id="edge24_Node000001_Node000019" class="edge">
<title>Node1&#45;&gt;Node19</title>
<g id="a_edge24_Node000001_Node000019"><a xlink:title=" ">
<path fill="none" stroke="#63b8ff" d="M73.01,-249.61C85.94,-219.31 118.57,-152.49 167.5,-117.25 169.04,-116.14 170.63,-115.08 172.26,-114.07"/>
<polygon fill="#63b8ff" stroke="#63b8ff" points="173.53,-117.37 180.66,-109.53 170.2,-111.21 173.53,-117.37"/>
</a>
</g>
</g>
<!-- Node4 -->
<g id="Node000004" class="node">
<title>Node4</title>
<g id="a_Node000004"><a xlink:href="class_big_data_stat_meth_1_1hdf5_dataset.html#ac7a7f23b7e22c9b56ca6ad86592f2d52" target="_top" xlink:title="Add an attribute to the dataset.">
<polygon fill="white" stroke="#666666" points="536.25,-499.5 386,-499.5 386,-469 536.25,-469 536.25,-499.5"/>
<text xml:space="preserve" text-anchor="start" x="394" y="-486" font-family="Helvetica,sans-Serif" font-size="10.00">BigDataStatMeth::hdf5Dataset</text>
<text xml:space="preserve" text-anchor="middle" x="461.12" y="-474.75" font-family="Helvetica,sans-Serif" font-size="10.00">::addAttribute</text>
</a>
</g>
</g>
<!-- Node3&#45;&gt;Node4 -->
<g id="edge3_Node000003_Node000004" class="edge">
<title>Node3&#45;&gt;Node4</title>
<g id="a_edge3_Node000003_Node000004"><a xlink:title=" ">
<path fill="none" stroke="#63b8ff" d="M329.03,-456.83C343.82,-459.93 359.47,-463.2 374.6,-466.37"/>
<polygon fill="#63b8ff" stroke="#63b8ff" points="373.52,-469.72 384.03,-468.34 374.95,-462.86 373.52,-469.72"/>
</a>
</g>
</g>
<!-- Node5 -->
<g id="Node000005" class="node">
<title>Node5</title>
<g id="a_Node000005"><a xlink:href="class_big_data_stat_meth_1_1hdf5_file.html#abfb73b5f1eb25ee00489485c8dc56a2a" target="_top" xlink:title="Close file and cleanup resources.">
<polygon fill="white" stroke="#666666" points="526.88,-413.5 395.38,-413.5 395.38,-383 526.88,-383 526.88,-413.5"/>
<text xml:space="preserve" text-anchor="start" x="403.38" y="-400" font-family="Helvetica,sans-Serif" font-size="10.00">BigDataStatMeth::hdf5File</text>
<text xml:space="preserve" text-anchor="middle" x="461.12" y="-388.75" font-family="Helvetica,sans-Serif" font-size="10.00">::close_file</text>
</a>
</g>
</g>
<!-- Node3&#45;&gt;Node5 -->
<g id="edge4_Node000003_Node000005" class="edge">
<title>Node3&#45;&gt;Node5</title>
<g id="a_edge4_Node000003_Node000005"><a xlink:title=" ">
<path fill="none" stroke="#63b8ff" d="M329.03,-425.67C346.84,-421.94 365.87,-417.96 383.76,-414.22"/>
<polygon fill="#63b8ff" stroke="#63b8ff" points="384.48,-417.65 393.55,-412.17 383.04,-410.79 384.48,-417.65"/>
</a>
</g>
</g>
<!-- Node6 -->
<g id="Node000006" class="node">
<title>Node6</title>
<g id="a_Node000006"><a xlink:href="class_big_data_stat_meth_1_1hdf5_group.html#a27cef4d33e46c72bfd792aa49fa621a3" target="_top" xlink:title="Create multiple nested groups.">
<polygon fill="white" stroke="#666666" points="728.88,-548.5 586.88,-548.5 586.88,-518 728.88,-518 728.88,-548.5"/>
<text xml:space="preserve" text-anchor="start" x="594.88" y="-535" font-family="Helvetica,sans-Serif" font-size="10.00">BigDataStatMeth::hdf5Group</text>
<text xml:space="preserve" text-anchor="middle" x="657.88" y="-523.75" font-family="Helvetica,sans-Serif" font-size="10.00">::create_HDF5_groups</text>
</a>
</g>
</g>
<!-- Node3&#45;&gt;Node6 -->
<g id="edge5_Node000003_Node000006" class="edge">
<title>Node3&#45;&gt;Node6</title>
<g id="a_edge5_Node000003_Node000006"><a xlink:title=" ">
<path fill="none" stroke="#63b8ff" d="M327.9,-456.88C332.06,-459.29 335.98,-462.06 339.5,-465.25 372.03,-494.74 339.23,-532.5 375.5,-557.25 446.6,-605.78 552.52,-576.45 612.06,-553.24"/>
<polygon fill="#63b8ff" stroke="#63b8ff" points="613.24,-556.53 621.21,-549.56 610.63,-550.04 613.24,-556.53"/>
</a>
</g>
</g>
<!-- Node8 -->
<g id="Node000008" class="node">
<title>Node8</title>
<g id="a_Node000008"><a xlink:href="namespace_big_data_stat_meth.html#a89d901ab4b5e01771f4e3fc7dc84e50e" target="_top" xlink:title="Checks if an HDF5 element (group or dataset) exists.">
<polygon fill="white" stroke="#666666" points="719.5,-413.5 596.25,-413.5 596.25,-383 719.5,-383 719.5,-413.5"/>
<text xml:space="preserve" text-anchor="start" x="604.25" y="-400" font-family="Helvetica,sans-Serif" font-size="10.00">BigDataStatMeth::exists</text>
<text xml:space="preserve" text-anchor="middle" x="657.88" y="-388.75" font-family="Helvetica,sans-Serif" font-size="10.00">_HDF5_element</text>
</a>
</g>
</g>
<!-- Node3&#45;&gt;Node8 -->
<g id="edge7_Node000003_Node000008" class="edge">
<title>Node3&#45;&gt;Node8</title>
<g id="a_edge7_Node000003_Node000008"><a xlink:title=" ">
<path fill="none" stroke="#63b8ff" d="M328.98,-439.48C388.23,-437.33 473.11,-432.61 546.75,-422.25 559.19,-420.5 572.31,-418.12 585,-415.53"/>
<polygon fill="#63b8ff" stroke="#63b8ff" points="585.46,-419.01 594.52,-413.53 584.02,-412.16 585.46,-419.01"/>
</a>
</g>
</g>
<!-- Node9 -->
<g id="Node000009" class="node">
<title>Node9</title>
<g id="a_Node000009"><a xlink:href="namespace_big_data_stat_meth.html#a3d06783149029f1df2853c472d401380" target="_top" xlink:title="Removes multiple elements from an HDF5 file.">
<polygon fill="white" stroke="#666666" points="525.75,-548.5 396.5,-548.5 396.5,-518 525.75,-518 525.75,-548.5"/>
<text xml:space="preserve" text-anchor="start" x="404.5" y="-535" font-family="Helvetica,sans-Serif" font-size="10.00">BigDataStatMeth::remove</text>
<text xml:space="preserve" text-anchor="middle" x="461.12" y="-523.75" font-family="Helvetica,sans-Serif" font-size="10.00">_elements</text>
</a>
</g>
</g>
<!-- Node3&#45;&gt;Node9 -->
<g id="edge9_Node000003_Node000009" class="edge">
<title>Node3&#45;&gt;Node9</title>
<g id="a_edge9_Node000003_Node000009"><a xlink:title=" ">
<path fill="none" stroke="#63b8ff" d="M323.8,-456.93C329.3,-459.33 334.61,-462.08 339.5,-465.25 360.42,-478.79 354.66,-494.58 375.5,-508.25 378.8,-510.42 382.3,-512.4 385.91,-514.22"/>
<polygon fill="#63b8ff" stroke="#63b8ff" points="384.43,-517.38 394.98,-518.28 387.29,-511 384.43,-517.38"/>
</a>
</g>
</g>
<!-- Node7 -->
<g id="Node000007" class="node">
<title>Node7</title>
<g id="a_Node000007"><a xlink:href="namespace_big_data_stat_meth.html#abcaa4216cd52f03ebac42e4855ef846b" target="_top" xlink:title="Checks if a path exists in an HDF5 file.">
<polygon fill="white" stroke="#666666" points="912.5,-474.88 769,-474.88 769,-455.62 912.5,-455.62 912.5,-474.88"/>
<text xml:space="preserve" text-anchor="middle" x="840.75" y="-461.38" font-family="Helvetica,sans-Serif" font-size="10.00">BigDataStatMeth::pathExists</text>
</a>
</g>
</g>
<!-- Node6&#45;&gt;Node7 -->
<g id="edge6_Node000006_Node000007" class="edge">
<title>Node6&#45;&gt;Node7</title>
<g id="a_edge6_Node000006_Node000007"><a xlink:title=" ">
<path fill="none" stroke="#63b8ff" d="M700.37,-517.65C731.08,-506.11 772.55,-490.51 802.26,-479.34"/>
<polygon fill="#63b8ff" stroke="#63b8ff" points="803.48,-482.63 811.61,-475.83 801.01,-476.07 803.48,-482.63"/>
</a>
</g>
</g>
<!-- Node8&#45;&gt;Node7 -->
<g id="edge8_Node000008_Node000007" class="edge">
<title>Node8&#45;&gt;Node7</title>
<g id="a_edge8_Node000008_Node000007"><a xlink:title=" ">
<path fill="none" stroke="#63b8ff" d="M701.28,-413.96C731.74,-425.24 772.45,-440.32 801.83,-451.2"/>
<polygon fill="#63b8ff" stroke="#63b8ff" points="800.48,-454.44 811.07,-454.63 802.91,-447.87 800.48,-454.44"/>
</a>
</g>
</g>
<!-- Node12 -->
<g id="Node000012" class="node">
<title>Node12</title>
<g id="a_Node000012"><a xlink:href="class_big_data_stat_meth_1_1hdf5_dataset.html#aba39e56a580d3b1fa7f1619fc72efa3e" target="_top" xlink:title="Close dataset and file.">
<polygon fill="white" stroke="#666666" points="733,-216.5 582.75,-216.5 582.75,-186 733,-186 733,-216.5"/>
<text xml:space="preserve" text-anchor="start" x="590.75" y="-203" font-family="Helvetica,sans-Serif" font-size="10.00">BigDataStatMeth::hdf5Dataset</text>
<text xml:space="preserve" text-anchor="middle" x="657.88" y="-191.75" font-family="Helvetica,sans-Serif" font-size="10.00">::close_dataset_file</text>
</a>
</g>
</g>
<!-- Node11&#45;&gt;Node12 -->
<g id="edge12_Node000011_Node000012" class="edge">
<title>Node11&#45;&gt;Node12</title>
<g id="a_edge12_Node000011_Node000012"><a xlink:title=" ">
<path fill="none" stroke="#63b8ff" d="M323.11,-249.54C340.17,-245.9 358.46,-242.23 375.5,-239.25 440.8,-227.84 515.15,-217.93 571.01,-211.1"/>
<polygon fill="#63b8ff" stroke="#63b8ff" points="571.28,-214.59 580.78,-209.91 570.43,-207.64 571.28,-214.59"/>
</a>
</g>
</g>
<!-- Node13&#45;&gt;Node5 -->
<g id="edge14_Node000013_Node000005" class="edge">
<title>Node13&#45;&gt;Node5</title>
<g id="a_edge14_Node000013_Node000005"><a xlink:title=" ">
<path fill="none" stroke="#63b8ff" d="M321.05,-329.96C327.44,-332.38 333.69,-335.13 339.5,-338.25 358.1,-348.24 357.18,-358.75 375.5,-369.25 381.42,-372.65 387.81,-375.73 394.32,-378.51"/>
<polygon fill="#63b8ff" stroke="#63b8ff" points="392.63,-381.6 403.21,-382.07 395.23,-375.1 392.63,-381.6"/>
</a>
</g>
</g>
<!-- Node13&#45;&gt;Node8 -->
<g id="edge15_Node000013_Node000008" class="edge">
<title>Node13&#45;&gt;Node8</title>
<g id="a_edge15_Node000013_Node000008"><a xlink:title=" ">
<path fill="none" stroke="#63b8ff" d="M329.03,-329.29C388.11,-341.28 472.77,-358.59 546.75,-374.25 559.11,-376.87 572.25,-379.69 584.98,-382.45"/>
<polygon fill="#63b8ff" stroke="#63b8ff" points="584.03,-385.83 594.55,-384.53 585.52,-378.99 584.03,-385.83"/>
</a>
</g>
</g>
<!-- Node14 -->
<g id="Node000014" class="node">
<title>Node14</title>
<g id="a_Node000014"><a xlink:href="class_big_data_stat_meth_1_1hdf5_dataset.html#a1ebc27e1f730bc4e611b844dbbb08e34" target="_top" xlink:title="Get an attribute from the dataset.">
<polygon fill="white" stroke="#666666" points="536.25,-327.5 386,-327.5 386,-297 536.25,-297 536.25,-327.5"/>
<text xml:space="preserve" text-anchor="start" x="394" y="-314" font-family="Helvetica,sans-Serif" font-size="10.00">BigDataStatMeth::hdf5Dataset</text>
<text xml:space="preserve" text-anchor="middle" x="461.12" y="-302.75" font-family="Helvetica,sans-Serif" font-size="10.00">::getAttribute</text>
</a>
</g>
</g>
<!-- Node13&#45;&gt;Node14 -->
<g id="edge16_Node000013_Node000014" class="edge">
<title>Node13&#45;&gt;Node14</title>
<g id="a_edge16_Node000013_Node000014"><a xlink:title=" ">
<path fill="none" stroke="#63b8ff" d="M329.03,-313.53C343.68,-313.38 359.17,-313.23 374.16,-313.09"/>
<polygon fill="#63b8ff" stroke="#63b8ff" points="374.03,-316.59 383.99,-312.99 373.96,-309.59 374.03,-316.59"/>
</a>
</g>
</g>
<!-- Node15 -->
<g id="Node000015" class="node">
<title>Node15</title>
<g id="a_Node000015"><a xlink:href="class_big_data_stat_meth_1_1hdf5_dataset.html#a945dd1d6f3db102a962d239045792f61" target="_top" xlink:title="Get dimensions of existing dataset.">
<polygon fill="white" stroke="#666666" points="536.25,-278.5 386,-278.5 386,-248 536.25,-248 536.25,-278.5"/>
<text xml:space="preserve" text-anchor="start" x="394" y="-265" font-family="Helvetica,sans-Serif" font-size="10.00">BigDataStatMeth::hdf5Dataset</text>
<text xml:space="preserve" text-anchor="middle" x="461.12" y="-253.75" font-family="Helvetica,sans-Serif" font-size="10.00">::getDimensExistingDataset</text>
</a>
</g>
</g>
<!-- Node13&#45;&gt;Node15 -->
<g id="edge19_Node000013_Node000015" class="edge">
<title>Node13&#45;&gt;Node15</title>
<g id="a_edge19_Node000013_Node000015"><a xlink:title=" ">
<path fill="none" stroke="#63b8ff" d="M317.87,-298.53C339.37,-293.2 363.59,-287.19 385.86,-281.67"/>
<polygon fill="#63b8ff" stroke="#63b8ff" points="386.63,-285.08 395.49,-279.28 384.94,-278.29 386.63,-285.08"/>
</a>
</g>
</g>
<!-- Node14&#45;&gt;Node8 -->
<g id="edge18_Node000014_Node000008" class="edge">
<title>Node14&#45;&gt;Node8</title>
<g id="a_edge18_Node000014_Node000008"><a xlink:title=" ">
<path fill="none" stroke="#63b8ff" d="M511.81,-327.91C523.4,-331.94 535.61,-336.49 546.75,-341.25 571.47,-351.82 598.29,-365.64 619.26,-377.03"/>
<polygon fill="#63b8ff" stroke="#63b8ff" points="617.58,-380.1 628.03,-381.84 620.95,-373.96 617.58,-380.1"/>
</a>
</g>
</g>
<!-- Node14&#45;&gt;Node12 -->
<g id="edge17_Node000014_Node000012" class="edge">
<title>Node14&#45;&gt;Node12</title>
<g id="a_edge17_Node000014_Node000012"><a xlink:title=" ">
<path fill="none" stroke="#63b8ff" d="M525.09,-296.55C532.56,-293.84 539.94,-290.75 546.75,-287.25 579.21,-270.55 611.57,-243.76 632.72,-224.52"/>
<polygon fill="#63b8ff" stroke="#63b8ff" points="635,-227.18 639.96,-217.82 630.25,-222.04 635,-227.18"/>
</a>
</g>
</g>
<!-- Node16&#45;&gt;Node12 -->
<g id="edge21_Node000016_Node000012" class="edge">
<title>Node16&#45;&gt;Node12</title>
<g id="a_edge21_Node000016_Node000012"><a xlink:title=" ">
<path fill="none" stroke="#63b8ff" d="M329,-209.33C344.36,-208.12 360.45,-207 375.5,-206.25 441.12,-202.96 515.45,-201.75 571.23,-201.34"/>
<polygon fill="#63b8ff" stroke="#63b8ff" points="570.99,-204.84 580.97,-201.27 570.95,-197.84 570.99,-204.84"/>
</a>
</g>
</g>
<!-- Node19&#45;&gt;Node12 -->
<g id="edge26_Node000019_Node000012" class="edge">
<title>Node19&#45;&gt;Node12</title>
<g id="a_edge26_Node000019_Node000012"><a xlink:title=" ">
<path fill="none" stroke="#63b8ff" d="M302.76,-77.57C362.81,-60.91 467.14,-41.48 546.75,-77.25 591.62,-97.41 625.65,-145.89 643.32,-175.91"/>
<polygon fill="#63b8ff" stroke="#63b8ff" points="640.15,-177.41 648.13,-184.37 646.23,-173.95 640.15,-177.41"/>
</a>
</g>
</g>
<!-- Node20 -->
<g id="Node000020" class="node">
<title>Node20</title>
<g id="a_Node000020"><a xlink:href="class_big_data_stat_meth_1_1hdf5_dataset.html#a64177ae924792ea9e557febaa95ed400" target="_top" xlink:title="Close the dataset.">
<polygon fill="white" stroke="#666666" points="536.25,-30.5 386,-30.5 386,0 536.25,0 536.25,-30.5"/>
<text xml:space="preserve" text-anchor="start" x="394" y="-17" font-family="Helvetica,sans-Serif" font-size="10.00">BigDataStatMeth::hdf5Dataset</text>
<text xml:space="preserve" text-anchor="middle" x="461.12" y="-5.75" font-family="Helvetica,sans-Serif" font-size="10.00">::close_dataset</text>
</a>
</g>
</g>
<!-- Node19&#45;&gt;Node20 -->
<g id="edge25_Node000019_Node000020" class="edge">
<title>Node19&#45;&gt;Node20</title>
<g id="a_edge25_Node000019_Node000020"><a xlink:title=" ">
<path fill="none" stroke="#63b8ff" d="M291.63,-77.6C315.47,-67.71 347.16,-54.84 375.5,-44.25 384.08,-41.04 393.21,-37.77 402.17,-34.64"/>
<polygon fill="#63b8ff" stroke="#63b8ff" points="403.23,-37.98 411.53,-31.4 400.94,-31.36 403.23,-37.98"/>
</a>
</g>
</g>
<!-- Node21 -->
<g id="Node000021" class="node">
<title>Node21</title>
<g id="a_Node000021"><a xlink:href="class_big_data_stat_meth_1_1hdf5_dataset.html#a94d81b72e92cb0230b4e64f37ea7d2e3" target="_top" xlink:title="Convert DataFrame to range list.">
<polygon fill="white" stroke="#666666" points="546.75,-154.5 375.5,-154.5 375.5,-124 546.75,-124 546.75,-154.5"/>
<text xml:space="preserve" text-anchor="start" x="383.5" y="-141" font-family="Helvetica,sans-Serif" font-size="10.00">BigDataStatMeth::hdf5Dataset</text>
<text xml:space="preserve" text-anchor="middle" x="461.12" y="-129.75" font-family="Helvetica,sans-Serif" font-size="10.00">::convert_DataFrame_to_RangeList</text>
</a>
</g>
</g>
<!-- Node19&#45;&gt;Node21 -->
<g id="edge27_Node000019_Node000021" class="edge">
<title>Node19&#45;&gt;Node21</title>
<g id="a_edge27_Node000019_Node000021"><a xlink:title=" ">
<path fill="none" stroke="#63b8ff" d="M324.69,-108.95C342.13,-112.85 360.96,-117.07 378.88,-121.08"/>
<polygon fill="#63b8ff" stroke="#63b8ff" points="377.9,-124.44 388.43,-123.21 379.43,-117.61 377.9,-124.44"/>
</a>
</g>
</g>
<!-- Node22 -->
<g id="Node000022" class="node">
<title>Node22</title>
<g id="a_Node000022"><a xlink:href="namespace_big_data_stat_meth.html#a2692707b3ea4aaafa09d07afaf632437" target="_top" xlink:title="Transposes a 2D matrix.">
<polygon fill="white" stroke="#666666" points="531,-105.88 391.25,-105.88 391.25,-86.62 531,-86.62 531,-105.88"/>
<text xml:space="preserve" text-anchor="middle" x="461.12" y="-92.38" font-family="Helvetica,sans-Serif" font-size="10.00">BigDataStatMeth::transpose</text>
</a>
</g>
</g>
<!-- Node19&#45;&gt;Node22 -->
<g id="edge28_Node000019_Node000022" class="edge">
<title>Node19&#45;&gt;Node22</title>
<g id="a_edge28_Node000019_Node000022"><a xlink:title=" ">
<path fill="none" stroke="#63b8ff" d="M329.03,-94.34C345.46,-94.58 362.94,-94.83 379.6,-95.08"/>
<polygon fill="#63b8ff" stroke="#63b8ff" points="379.42,-98.57 389.47,-95.22 379.52,-91.57 379.42,-98.57"/>
</a>
</g>
</g>
</g>
</svg>

<g id="navigator" transform="translate(0 0)" fill="#404254">
  <rect fill="#f2f5e9" fill-opacity="0.5" stroke="#606060" stroke-width=".5" x="0" y="0" width="60" height="60"/>
  <use id="zoomplus" xlink:href="#zoomPlus" x="17" y="9" onmousedown="handleZoom(evt,'in')"/>
  <use id="zoomminus" xlink:href="#zoomMin" x="42" y="9" onmousedown="handleZoom(evt,'out')"/>
  <use id="reset" xlink:href="#resetDef" x="30" y="36" onmousedown="handleReset()"/>
   <use id="arrowup" xlink:href="#arrowUp" x="0" y="0" onmousedown="handlePan(0,-1)"/>
  <use id="arrowright" xlink:href="#arrowRight" x="0" y="0" onmousedown="handlePan(1,0)"/>
  <use id="arrowdown" xlink:href="#arrowDown" x="0" y="0" onmousedown="handlePan(0,1)"/>
  <use id="arrowleft" xlink:href="#arrowLeft" x="0" y="0" onmousedown="handlePan(-1,0)"/>
</g>
<svg viewBox="0 0 15 15" width="100%" height="30px" preserveAspectRatio="xMaxYMin meet">
 <g id="arrow_out" transform="scale(0.3 0.3)">
  <a xlink:href="namespace_big_data_stat_meth_ace4db0f090681bfd8437fec76e8807bf_cgraph_org.svg" target="_base">
   <rect id="button" ry="5" rx="5" y="6" x="6" height="38" width="38"
        fill="#f2f5e9" fill-opacity="0.5" stroke="#606060" stroke-width="1.0"/>
   <path id="arrow"
     d="M 11.500037,31.436501 C 11.940474,20.09759 22.043105,11.32322 32.158766,21.979434 L 37.068811,17.246167 C 37.068811,17.246167 37.088388,32 37.088388,32 L 22.160133,31.978069 C 22.160133,31.978069 26.997745,27.140456 26.997745,27.140456 C 18.528582,18.264221 13.291696,25.230495 11.500037,31.436501 z"
     style="fill:#404040;"/>
  </a>
 </g>
</svg>

<style type='text/css'>
<![CDATA[
[data-mouse-over-selected='false'] { opacity: 0.7; }
[data-mouse-over-selected='true']  { opacity: 1.0; }
]]>
</style>
<script type="application/ecmascript"><![CDATA[
document.addEventListener('DOMContentLoaded', (event) => {
  highlightEdges();
  highlightAdjacentNodes();
});
]]></script>
</svg>
