<?xml version="1.0" encoding="UTF-8" standalone="no"?>
<!DOCTYPE svg PUBLIC "-//W3C//DTD SVG 1.1//EN"
 "http://www.w3.org/Graphics/SVG/1.1/DTD/svg11.dtd">
<!-- Generated by graphviz version 14.0.0 (20250921.2048)
 -->
<!-- Title: BigDataStatMeth::Rcpp_Impute_snps_hdf5 Pages: 1 -->
<!--zoomable 552 -->

<svg id="main" version="1.1" xmlns="http://www.w3.org/2000/svg" xmlns:xlink="http://www.w3.org/1999/xlink" xml:space="preserve" onload="init(evt)">

<style type="text/css"><![CDATA[
.node, .edge {opacity: 0.7;}
.node.selected, .edge.selected {opacity: 1;}
.edge:hover path { stroke: red; }
.edge:hover polygon { stroke: red; fill: red; }
]]></style>

<defs>
  <circle id="rim" cx="0" cy="0" r="7"/>
  <circle id="rim2" cx="0" cy="0" r="3.5"/>
  <g id="zoomPlus">
    <use xlink:href="#rim" fill="#404040"><set attributeName="fill" to="#808080" begin="zoomplus.mouseover" end="zoomplus.mouseout"/></use>
    <path d="M-4,0h8M0,-4v8" fill="none" stroke="white" stroke-width="1.5" pointer-events="none"/>
  </g>
  <g id="zoomMin">
    <use xlink:href="#rim" fill="#404040"><set attributeName="fill" to="#808080" begin="zoomminus.mouseover" end="zoomminus.mouseout"/></use>
    <path d="M-4,0h8" fill="none" stroke="white" stroke-width="1.5" pointer-events="none"/>
  </g>
  <g id="arrowUp" transform="translate(30 24)">
    <use xlink:href="#rim"/>
    <path pointer-events="none" fill="none" stroke="white" stroke-width="1.5" d="M0,-3.0v7 M-2.5,-0.5L0,-3.0L2.5,-0.5"/>
  </g>
  <g id="arrowRight" transform="rotate(90) translate(36 -43)">
    <use xlink:href="#rim"/>
    <path pointer-events="none" fill="none" stroke="white" stroke-width="1.5" d="M0,-3.0v7 M-2.5,-0.5L0,-3.0L2.5,-0.5"/>
  </g>
  <g id="arrowDown" transform="rotate(180) translate(-30 -48)">
    <use xlink:href="#rim"/>
    <path pointer-events="none" fill="none" stroke="white" stroke-width="1.5" d="M0,-3.0v7 M-2.5,-0.5L0,-3.0L2.5,-0.5"/>
  </g>
  <g id="arrowLeft" transform="rotate(270) translate(-36 17)">
    <use xlink:href="#rim"/>
    <path pointer-events="none" fill="none" stroke="white" stroke-width="1.5" d="M0,-3.0v7 M-2.5,-0.5L0,-3.0L2.5,-0.5"/>
  </g>
  <g id="resetDef">
    <use xlink:href="#rim2" fill="#404040"><set attributeName="fill" to="#808080" begin="reset.mouseover" end="reset.mouseout"/></use>
  </g>
</defs>
<script type="application/ecmascript">
var viewWidth = 888;
var viewHeight = 552;
var sectionId = 'dynsection-93';
</script>
<script type="application/ecmascript" xlink:href="../../../../assets/svg.min.js"/>
<svg id="graph" class="graph">
<g id="viewport">
<title>BigDataStatMeth::Rcpp_Impute_snps_hdf5</title>
<!-- Node1 -->
<g id="Node000001" class="node">
<title>Node1</title>
<g id="a_Node000001"><a xlink:title="Imputes missing values in an HDF5 dataset.">
<polygon fill="#999999" stroke="#666666" points="120.25,-266.5 0,-266.5 0,-236 120.25,-236 120.25,-266.5"/>
<text xml:space="preserve" text-anchor="start" x="8" y="-253" font-family="Helvetica,sans-Serif" font-size="10.00">BigDataStatMeth::Rcpp</text>
<text xml:space="preserve" text-anchor="middle" x="60.12" y="-241.75" font-family="Helvetica,sans-Serif" font-size="10.00">_Impute_snps_hdf5</text>
</a>
</g>
</g>
<!-- Node2 -->
<g id="Node000002" class="node">
<title>Node2</title>
<g id="a_Node000002"><a xlink:href="namespace_big_data_stat_meth.html#a304b42b14ec87d4acc6f34ff0231529d" target="_top" xlink:title="Safely close any number of dataset handles (C++17).">
<polygon fill="white" stroke="#666666" points="325.62,-423.88 158.88,-423.88 158.88,-404.62 325.62,-404.62 325.62,-423.88"/>
<text xml:space="preserve" text-anchor="middle" x="242.25" y="-410.38" font-family="Helvetica,sans-Serif" font-size="10.00">BigDataStatMeth::checkClose_file</text>
</a>
</g>
</g>
<!-- Node1&#45;&gt;Node2 -->
<g id="edge1_Node000001_Node000002" class="edge">
<title>Node1&#45;&gt;Node2</title>
<g id="a_edge1_Node000001_Node000002"><a xlink:title=" ">
<path fill="none" stroke="#63b8ff" d="M66.74,-266.69C78.44,-296.58 108.39,-362.26 156.25,-395.25 158.46,-396.77 160.76,-398.17 163.15,-399.46"/>
<polygon fill="#63b8ff" stroke="#63b8ff" points="161.41,-402.51 171.95,-403.54 164.35,-396.16 161.41,-402.51"/>
</a>
</g>
</g>
<!-- Node3 -->
<g id="Node000003" class="node">
<title>Node3</title>
<g id="a_Node000003"><a xlink:href="class_big_data_stat_meth_1_1hdf5_dataset_internal.html#a910815c29fe20912239251623c5e3251" target="_top" xlink:title="Create a new internal dataset with optional compression.">
<polygon fill="white" stroke="#666666" points="317.38,-386.5 167.12,-386.5 167.12,-356 317.38,-356 317.38,-386.5"/>
<text xml:space="preserve" text-anchor="start" x="175.12" y="-373" font-family="Helvetica,sans-Serif" font-size="10.00">BigDataStatMeth::hdf5Dataset</text>
<text xml:space="preserve" text-anchor="middle" x="242.25" y="-361.75" font-family="Helvetica,sans-Serif" font-size="10.00">Internal::createDataset</text>
</a>
</g>
</g>
<!-- Node1&#45;&gt;Node3 -->
<g id="edge2_Node000001_Node000003" class="edge">
<title>Node1&#45;&gt;Node3</title>
<g id="a_edge2_Node000001_Node000003"><a xlink:title=" ">
<path fill="none" stroke="#63b8ff" d="M74.87,-266.98C92.22,-286.03 123.74,-318.07 156.25,-338.25 163.99,-343.06 172.56,-347.37 181.18,-351.17"/>
<polygon fill="#63b8ff" stroke="#63b8ff" points="179.69,-354.35 190.27,-354.97 182.39,-347.89 179.69,-354.35"/>
</a>
</g>
</g>
<!-- Node13 -->
<g id="Node000013" class="node">
<title>Node13</title>
<g id="a_Node000013"><a xlink:href="class_big_data_stat_meth_1_1hdf5_dataset.html#a7b54a6f524581d54102a1614ee44991b" target="_top" xlink:title="Get dataset dimension.">
<polygon fill="white" stroke="#666666" points="328.25,-328.88 156.25,-328.88 156.25,-309.62 328.25,-309.62 328.25,-328.88"/>
<text xml:space="preserve" text-anchor="middle" x="242.25" y="-315.38" font-family="Helvetica,sans-Serif" font-size="10.00">BigDataStatMeth::hdf5Dataset::dim</text>
</a>
</g>
</g>
<!-- Node1&#45;&gt;Node13 -->
<g id="edge13_Node000001_Node000013" class="edge">
<title>Node1&#45;&gt;Node13</title>
<g id="a_edge13_Node000001_Node000013"><a xlink:title=" ">
<path fill="none" stroke="#63b8ff" d="M86.96,-266.85C105.64,-277.56 131.8,-291.39 156.25,-300.25 162.44,-302.5 168.99,-304.53 175.59,-306.35"/>
<polygon fill="#63b8ff" stroke="#63b8ff" points="174.67,-309.73 185.23,-308.85 176.43,-302.95 174.67,-309.73"/>
</a>
</g>
</g>
<!-- Node14 -->
<g id="Node000014" class="node">
<title>Node14</title>
<g id="a_Node000014"><a xlink:href="namespace_big_data_stat_meth.html#a305fa9b08ccc162f30c288597d5af6b4" target="_top" xlink:title="Generates a discrete value for imputation based on probability distribution.">
<polygon fill="white" stroke="#666666" points="308.38,-291.5 176.12,-291.5 176.12,-261 308.38,-261 308.38,-291.5"/>
<text xml:space="preserve" text-anchor="start" x="184.12" y="-278" font-family="Helvetica,sans-Serif" font-size="10.00">BigDataStatMeth::get</text>
<text xml:space="preserve" text-anchor="middle" x="242.25" y="-266.75" font-family="Helvetica,sans-Serif" font-size="10.00">_value_to_impute_discrete</text>
</a>
</g>
</g>
<!-- Node1&#45;&gt;Node14 -->
<g id="edge14_Node000001_Node000014" class="edge">
<title>Node1&#45;&gt;Node14</title>
<g id="a_edge14_Node000001_Node000014"><a xlink:title=" ">
<path fill="none" stroke="#63b8ff" d="M120.6,-259.51C134.73,-261.47 150,-263.58 164.76,-265.63"/>
<polygon fill="#63b8ff" stroke="#63b8ff" points="164.05,-269.07 174.43,-266.98 165.01,-262.13 164.05,-269.07"/>
</a>
</g>
</g>
<!-- Node15 -->
<g id="Node000015" class="node">
<title>Node15</title>
<g id="a_Node000015"><a xlink:href="class_big_data_stat_meth_1_1hdf5_dataset.html#ab57cadee5e43a496eb32dbf12d603d76" target="_top" xlink:title=" ">
<polygon fill="white" stroke="#666666" points="317.38,-242.5 167.12,-242.5 167.12,-212 317.38,-212 317.38,-242.5"/>
<text xml:space="preserve" text-anchor="start" x="175.12" y="-229" font-family="Helvetica,sans-Serif" font-size="10.00">BigDataStatMeth::hdf5Dataset</text>
<text xml:space="preserve" text-anchor="middle" x="242.25" y="-217.75" font-family="Helvetica,sans-Serif" font-size="10.00">::openDataset</text>
</a>
</g>
</g>
<!-- Node1&#45;&gt;Node15 -->
<g id="edge15_Node000001_Node000015" class="edge">
<title>Node1&#45;&gt;Node15</title>
<g id="a_edge15_Node000001_Node000015"><a xlink:title=" ">
<path fill="none" stroke="#63b8ff" d="M120.6,-243.32C131.79,-241.84 143.68,-240.25 155.48,-238.68"/>
<polygon fill="#63b8ff" stroke="#63b8ff" points="155.78,-242.17 165.23,-237.38 154.86,-235.23 155.78,-242.17"/>
</a>
</g>
</g>
<!-- Node20 -->
<g id="Node000020" class="node">
<title>Node20</title>
<g id="a_Node000020"><a xlink:href="class_big_data_stat_meth_1_1hdf5_dataset.html#a23bea87165b8ef6b944709c5b2cbd0cf" target="_top" xlink:title=" ">
<polygon fill="white" stroke="#666666" points="317.38,-193.5 167.12,-193.5 167.12,-163 317.38,-163 317.38,-193.5"/>
<text xml:space="preserve" text-anchor="start" x="175.12" y="-180" font-family="Helvetica,sans-Serif" font-size="10.00">BigDataStatMeth::hdf5Dataset</text>
<text xml:space="preserve" text-anchor="middle" x="242.25" y="-168.75" font-family="Helvetica,sans-Serif" font-size="10.00">::readDatasetBlock</text>
</a>
</g>
</g>
<!-- Node1&#45;&gt;Node20 -->
<g id="edge22_Node000001_Node000020" class="edge">
<title>Node1&#45;&gt;Node20</title>
<g id="a_edge22_Node000001_Node000020"><a xlink:title=" ">
<path fill="none" stroke="#63b8ff" d="M88.81,-235.6C107.47,-225.47 132.86,-212.5 156.25,-203.25 161.26,-201.27 166.49,-199.36 171.79,-197.54"/>
<polygon fill="#63b8ff" stroke="#63b8ff" points="172.87,-200.87 181.27,-194.42 170.68,-194.23 172.87,-200.87"/>
</a>
</g>
</g>
<!-- Node21 -->
<g id="Node000021" class="node">
<title>Node21</title>
<g id="a_Node000021"><a xlink:href="namespace_big_data_stat_meth.html#a85739577b75b708ecbd87fe09f5182e6" target="_top" xlink:title="Converts a vector to an ordered map of value frequencies.">
<polygon fill="white" stroke="#666666" points="309.12,-144.5 175.38,-144.5 175.38,-114 309.12,-114 309.12,-144.5"/>
<text xml:space="preserve" text-anchor="start" x="183.38" y="-131" font-family="Helvetica,sans-Serif" font-size="10.00">BigDataStatMeth::Vectorto</text>
<text xml:space="preserve" text-anchor="middle" x="242.25" y="-119.75" font-family="Helvetica,sans-Serif" font-size="10.00">OrderedMap_SNP_counts</text>
</a>
</g>
</g>
<!-- Node1&#45;&gt;Node21 -->
<g id="edge24_Node000001_Node000021" class="edge">
<title>Node1&#45;&gt;Node21</title>
<g id="a_edge24_Node000001_Node000021"><a xlink:title=" ">
<path fill="none" stroke="#63b8ff" d="M72.21,-235.74C88.33,-214.31 120.25,-175.86 156.25,-154.25 159.03,-152.58 161.93,-151.02 164.91,-149.55"/>
<polygon fill="#63b8ff" stroke="#63b8ff" points="166.2,-152.81 173.92,-145.56 163.36,-146.41 166.2,-152.81"/>
</a>
</g>
</g>
<!-- Node22 -->
<g id="Node000022" class="node">
<title>Node22</title>
<g id="a_Node000022"><a xlink:href="class_big_data_stat_meth_1_1hdf5_dataset_internal.html#a4f988a5f93c2870e87c14d84f00e441c" target="_top" xlink:title="Write block of data to internal dataset.">
<polygon fill="white" stroke="#666666" points="514.5,-51.5 364.25,-51.5 364.25,-21 514.5,-21 514.5,-51.5"/>
<text xml:space="preserve" text-anchor="start" x="372.25" y="-38" font-family="Helvetica,sans-Serif" font-size="10.00">BigDataStatMeth::hdf5Dataset</text>
<text xml:space="preserve" text-anchor="middle" x="439.38" y="-26.75" font-family="Helvetica,sans-Serif" font-size="10.00">Internal::writeDatasetBlock</text>
</a>
</g>
</g>
<!-- Node1&#45;&gt;Node22 -->
<g id="edge25_Node000001_Node000022" class="edge">
<title>Node1&#45;&gt;Node22</title>
<g id="a_edge25_Node000001_Node000022"><a xlink:title=" ">
<path fill="none" stroke="#63b8ff" d="M66.74,-235.68C78.43,-205.53 108.37,-139.19 156.25,-105.25 213.83,-64.43 292.8,-47.62 352.54,-40.77"/>
<polygon fill="#63b8ff" stroke="#63b8ff" points="352.76,-44.27 362.34,-39.73 352.02,-37.31 352.76,-44.27"/>
</a>
</g>
</g>
<!-- Node4 -->
<g id="Node000004" class="node">
<title>Node4</title>
<g id="a_Node000004"><a xlink:href="class_big_data_stat_meth_1_1hdf5_dataset.html#ac7a7f23b7e22c9b56ca6ad86592f2d52" target="_top" xlink:title="Add an attribute to the dataset.">
<polygon fill="white" stroke="#666666" points="514.5,-543.5 364.25,-543.5 364.25,-513 514.5,-513 514.5,-543.5"/>
<text xml:space="preserve" text-anchor="start" x="372.25" y="-530" font-family="Helvetica,sans-Serif" font-size="10.00">BigDataStatMeth::hdf5Dataset</text>
<text xml:space="preserve" text-anchor="middle" x="439.38" y="-518.75" font-family="Helvetica,sans-Serif" font-size="10.00">::addAttribute</text>
</a>
</g>
</g>
<!-- Node3&#45;&gt;Node4 -->
<g id="edge3_Node000003_Node000004" class="edge">
<title>Node3&#45;&gt;Node4</title>
<g id="a_edge3_Node000003_Node000004"><a xlink:title=" ">
<path fill="none" stroke="#63b8ff" d="M317.2,-386.96C321.18,-389.35 324.9,-392.09 328.25,-395.25 363.83,-428.82 330.36,-463.98 364.25,-499.25 366.84,-501.94 369.7,-504.39 372.76,-506.61"/>
<polygon fill="#63b8ff" stroke="#63b8ff" points="370.79,-509.51 381.13,-511.83 374.49,-503.57 370.79,-509.51"/>
</a>
</g>
</g>
<!-- Node5 -->
<g id="Node000005" class="node">
<title>Node5</title>
<g id="a_Node000005"><a xlink:href="class_big_data_stat_meth_1_1hdf5_group.html#a27cef4d33e46c72bfd792aa49fa621a3" target="_top" xlink:title="Create multiple nested groups.">
<polygon fill="white" stroke="#666666" points="696.62,-444.5 554.62,-444.5 554.62,-414 696.62,-414 696.62,-444.5"/>
<text xml:space="preserve" text-anchor="start" x="562.62" y="-431" font-family="Helvetica,sans-Serif" font-size="10.00">BigDataStatMeth::hdf5Group</text>
<text xml:space="preserve" text-anchor="middle" x="625.62" y="-419.75" font-family="Helvetica,sans-Serif" font-size="10.00">::create_HDF5_groups</text>
</a>
</g>
</g>
<!-- Node3&#45;&gt;Node5 -->
<g id="edge4_Node000003_Node000005" class="edge">
<title>Node3&#45;&gt;Node5</title>
<g id="a_edge4_Node000003_Node000005"><a xlink:title=" ">
<path fill="none" stroke="#63b8ff" d="M315.48,-386.84C320.03,-389.25 324.34,-392.04 328.25,-395.25 355.57,-417.73 334.1,-447.73 364.25,-466.25 433.19,-508.59 531.43,-474.59 585.39,-449.65"/>
<polygon fill="#63b8ff" stroke="#63b8ff" points="586.67,-452.91 594.2,-445.46 583.67,-446.59 586.67,-452.91"/>
</a>
</g>
</g>
<!-- Node7 -->
<g id="Node000007" class="node">
<title>Node7</title>
<g id="a_Node000007"><a xlink:href="namespace_big_data_stat_meth.html#a89d901ab4b5e01771f4e3fc7dc84e50e" target="_top" xlink:title="Checks if an HDF5 element (group or dataset) exists.">
<polygon fill="white" stroke="#666666" points="687.25,-333.5 564,-333.5 564,-303 687.25,-303 687.25,-333.5"/>
<text xml:space="preserve" text-anchor="start" x="572" y="-320" font-family="Helvetica,sans-Serif" font-size="10.00">BigDataStatMeth::exists</text>
<text xml:space="preserve" text-anchor="middle" x="625.62" y="-308.75" font-family="Helvetica,sans-Serif" font-size="10.00">_HDF5_element</text>
</a>
</g>
</g>
<!-- Node3&#45;&gt;Node7 -->
<g id="edge6_Node000003_Node000007" class="edge">
<title>Node3&#45;&gt;Node7</title>
<g id="a_edge6_Node000003_Node000007"><a xlink:title=" ">
<path fill="none" stroke="#63b8ff" d="M317.69,-360.91C385.52,-351.48 485.08,-337.64 552.25,-328.31"/>
<polygon fill="#63b8ff" stroke="#63b8ff" points="552.65,-331.79 562.07,-326.94 551.68,-324.85 552.65,-331.79"/>
</a>
</g>
</g>
<!-- Node8 -->
<g id="Node000008" class="node">
<title>Node8</title>
<g id="a_Node000008"><a xlink:href="class_big_data_stat_meth_1_1hdf5_group.html#a59995412538627e6c80f64b552c286f5" target="_top" xlink:title=" ">
<polygon fill="white" stroke="#666666" points="510.38,-457.5 368.38,-457.5 368.38,-427 510.38,-427 510.38,-457.5"/>
<text xml:space="preserve" text-anchor="start" x="376.38" y="-444" font-family="Helvetica,sans-Serif" font-size="10.00">BigDataStatMeth::hdf5Group</text>
<text xml:space="preserve" text-anchor="middle" x="439.38" y="-432.75" font-family="Helvetica,sans-Serif" font-size="10.00">::getGroupName</text>
</a>
</g>
</g>
<!-- Node3&#45;&gt;Node8 -->
<g id="edge8_Node000003_Node000008" class="edge">
<title>Node3&#45;&gt;Node8</title>
<g id="a_edge8_Node000003_Node000008"><a xlink:title=" ">
<path fill="none" stroke="#63b8ff" d="M306.14,-386.9C313.7,-389.39 321.22,-392.18 328.25,-395.25 345.43,-402.76 347.26,-409.32 364.25,-417.25 368.04,-419.02 371.99,-420.73 376.01,-422.36"/>
<polygon fill="#63b8ff" stroke="#63b8ff" points="374.75,-425.62 385.34,-425.96 377.27,-419.09 374.75,-425.62"/>
</a>
</g>
</g>
<!-- Node9 -->
<g id="Node000009" class="node">
<title>Node9</title>
<g id="a_Node000009"><a xlink:href="namespace_big_data_stat_meth.html#a3d06783149029f1df2853c472d401380" target="_top" xlink:title="Removes multiple elements from an HDF5 file.">
<polygon fill="white" stroke="#666666" points="504,-408.5 374.75,-408.5 374.75,-378 504,-378 504,-408.5"/>
<text xml:space="preserve" text-anchor="start" x="382.75" y="-395" font-family="Helvetica,sans-Serif" font-size="10.00">BigDataStatMeth::remove</text>
<text xml:space="preserve" text-anchor="middle" x="439.38" y="-383.75" font-family="Helvetica,sans-Serif" font-size="10.00">_elements</text>
</a>
</g>
</g>
<!-- Node3&#45;&gt;Node9 -->
<g id="edge9_Node000003_Node000009" class="edge">
<title>Node3&#45;&gt;Node9</title>
<g id="a_edge9_Node000003_Node000009"><a xlink:title=" ">
<path fill="none" stroke="#63b8ff" d="M317.85,-379.66C332.69,-381.33 348.27,-383.09 363.12,-384.77"/>
<polygon fill="#63b8ff" stroke="#63b8ff" points="362.48,-388.22 372.81,-385.86 363.26,-381.26 362.48,-388.22"/>
</a>
</g>
</g>
<!-- Node10 -->
<g id="Node000010" class="node">
<title>Node10</title>
<g id="a_Node000010"><a xlink:href="class_big_data_stat_meth_1_1hdf5_dataset_internal.html#a349b08ecc0bed2df5283e56fb9e9d178" target="_top" xlink:title="Write data to the internal dataset.">
<polygon fill="white" stroke="#666666" points="514.5,-235.5 364.25,-235.5 364.25,-205 514.5,-205 514.5,-235.5"/>
<text xml:space="preserve" text-anchor="start" x="372.25" y="-222" font-family="Helvetica,sans-Serif" font-size="10.00">BigDataStatMeth::hdf5Dataset</text>
<text xml:space="preserve" text-anchor="middle" x="439.38" y="-210.75" font-family="Helvetica,sans-Serif" font-size="10.00">Internal::writeDataset</text>
</a>
</g>
</g>
<!-- Node3&#45;&gt;Node10 -->
<g id="edge10_Node000003_Node000010" class="edge">
<title>Node3&#45;&gt;Node10</title>
<g id="a_edge10_Node000003_Node000010"><a xlink:title=" ">
<path fill="none" stroke="#63b8ff" d="M302.89,-355.5C312.2,-351.06 321.09,-345.42 328.25,-338.25 359.57,-306.89 332.23,-275.89 364.25,-245.25 365.3,-244.25 366.39,-243.28 367.52,-242.36"/>
<polygon fill="#63b8ff" stroke="#63b8ff" points="369.27,-245.4 375.53,-236.86 365.3,-239.63 369.27,-245.4"/>
</a>
</g>
</g>
<!-- Node6 -->
<g id="Node000006" class="node">
<title>Node6</title>
<g id="a_Node000006"><a xlink:href="namespace_big_data_stat_meth.html#abcaa4216cd52f03ebac42e4855ef846b" target="_top" xlink:title="Checks if a path exists in an HDF5 file.">
<polygon fill="white" stroke="#666666" points="880.25,-382.88 736.75,-382.88 736.75,-363.62 880.25,-363.62 880.25,-382.88"/>
<text xml:space="preserve" text-anchor="middle" x="808.5" y="-369.38" font-family="Helvetica,sans-Serif" font-size="10.00">BigDataStatMeth::pathExists</text>
</a>
</g>
</g>
<!-- Node5&#45;&gt;Node6 -->
<g id="edge5_Node000005_Node000006" class="edge">
<title>Node5&#45;&gt;Node6</title>
<g id="a_edge5_Node000005_Node000006"><a xlink:title=" ">
<path fill="none" stroke="#63b8ff" d="M677.49,-413.5C704.83,-405.04 738.17,-394.71 764.25,-386.64"/>
<polygon fill="#63b8ff" stroke="#63b8ff" points="764.98,-390.08 773.49,-383.78 762.91,-383.39 764.98,-390.08"/>
</a>
</g>
</g>
<!-- Node7&#45;&gt;Node6 -->
<g id="edge7_Node000007_Node000006" class="edge">
<title>Node7&#45;&gt;Node6</title>
<g id="a_edge7_Node000007_Node000006"><a xlink:title=" ">
<path fill="none" stroke="#63b8ff" d="M677.97,-333.86C704.9,-342.05 737.56,-351.98 763.34,-359.82"/>
<polygon fill="#63b8ff" stroke="#63b8ff" points="762.26,-363.15 772.85,-362.71 764.3,-356.46 762.26,-363.15"/>
</a>
</g>
</g>
<!-- Node11 -->
<g id="Node000011" class="node">
<title>Node11</title>
<g id="a_Node000011"><a xlink:href="class_big_data_stat_meth_1_1hdf5_dataset_internal.html#a91d48a0c7186c87eb0af78f426ce6a4d" target="_top" xlink:title="Close dataset and file.">
<polygon fill="white" stroke="#666666" points="700.75,-129.5 550.5,-129.5 550.5,-99 700.75,-99 700.75,-129.5"/>
<text xml:space="preserve" text-anchor="start" x="558.5" y="-116" font-family="Helvetica,sans-Serif" font-size="10.00">BigDataStatMeth::hdf5Dataset</text>
<text xml:space="preserve" text-anchor="middle" x="625.62" y="-104.75" font-family="Helvetica,sans-Serif" font-size="10.00">Internal::close_dataset_file</text>
</a>
</g>
</g>
<!-- Node10&#45;&gt;Node11 -->
<g id="edge11_Node000010_Node000011" class="edge">
<title>Node10&#45;&gt;Node11</title>
<g id="a_edge11_Node000010_Node000011"><a xlink:title=" ">
<path fill="none" stroke="#63b8ff" d="M494.43,-204.65C501.36,-201.89 508.22,-198.76 514.5,-195.25 532.68,-185.08 533.9,-177.83 550.5,-165.25 563.59,-155.32 578.44,-144.94 591.39,-136.16"/>
<polygon fill="#63b8ff" stroke="#63b8ff" points="593.26,-139.12 599.61,-130.63 589.36,-133.31 593.26,-139.12"/>
</a>
</g>
</g>
<!-- Node12 -->
<g id="Node000012" class="node">
<title>Node12</title>
<g id="a_Node000012"><a xlink:href="class_big_data_stat_meth_1_1hdf5_dataset_internal.html#a152c59a2a409e1883e3834a26170ed59" target="_top" xlink:title="Convert DataFrame to range list.">
<polygon fill="white" stroke="#666666" points="700.75,-216.12 550.5,-216.12 550.5,-174.38 700.75,-174.38 700.75,-216.12"/>
<text xml:space="preserve" text-anchor="start" x="558.5" y="-202.62" font-family="Helvetica,sans-Serif" font-size="10.00">BigDataStatMeth::hdf5Dataset</text>
<text xml:space="preserve" text-anchor="start" x="558.5" y="-191.38" font-family="Helvetica,sans-Serif" font-size="10.00">Internal::convert_DataFrame</text>
<text xml:space="preserve" text-anchor="middle" x="625.62" y="-180.12" font-family="Helvetica,sans-Serif" font-size="10.00">_to_RangeList</text>
</a>
</g>
</g>
<!-- Node10&#45;&gt;Node12 -->
<g id="edge12_Node000010_Node000012" class="edge">
<title>Node10&#45;&gt;Node12</title>
<g id="a_edge12_Node000010_Node000012"><a xlink:title=" ">
<path fill="none" stroke="#63b8ff" d="M514.79,-210.15C522.73,-209.08 530.85,-207.97 538.91,-206.88"/>
<polygon fill="#63b8ff" stroke="#63b8ff" points="539.3,-210.36 548.74,-205.55 538.36,-203.42 539.3,-210.36"/>
</a>
</g>
</g>
<!-- Node15&#45;&gt;Node7 -->
<g id="edge17_Node000015_Node000007" class="edge">
<title>Node15&#45;&gt;Node7</title>
<g id="a_edge17_Node000015_Node000007"><a xlink:title=" ">
<path fill="none" stroke="#63b8ff" d="M310.28,-242.98C316.57,-245.62 322.67,-248.69 328.25,-252.25 348.69,-265.3 342.66,-282.2 364.25,-293.25 422.56,-323.09 497.82,-327.24 552.42,-325.18"/>
<polygon fill="#63b8ff" stroke="#63b8ff" points="552.41,-328.68 562.23,-324.72 552.08,-321.69 552.41,-328.68"/>
</a>
</g>
</g>
<!-- Node16 -->
<g id="Node000016" class="node">
<title>Node16</title>
<g id="a_Node000016"><a xlink:href="class_big_data_stat_meth_1_1hdf5_file.html#abfb73b5f1eb25ee00489485c8dc56a2a" target="_top" xlink:title="Close file and cleanup resources.">
<polygon fill="white" stroke="#666666" points="505.12,-137.5 373.62,-137.5 373.62,-107 505.12,-107 505.12,-137.5"/>
<text xml:space="preserve" text-anchor="start" x="381.62" y="-124" font-family="Helvetica,sans-Serif" font-size="10.00">BigDataStatMeth::hdf5File</text>
<text xml:space="preserve" text-anchor="middle" x="439.38" y="-112.75" font-family="Helvetica,sans-Serif" font-size="10.00">::close_file</text>
</a>
</g>
</g>
<!-- Node15&#45;&gt;Node16 -->
<g id="edge16_Node000015_Node000016" class="edge">
<title>Node15&#45;&gt;Node16</title>
<g id="a_edge16_Node000015_Node000016"><a xlink:title=" ">
<path fill="none" stroke="#63b8ff" d="M312.55,-211.52C318.11,-208.89 323.43,-205.83 328.25,-202.25 351.71,-184.83 341.14,-165.12 364.25,-147.25 365.98,-145.91 367.79,-144.64 369.66,-143.44"/>
<polygon fill="#63b8ff" stroke="#63b8ff" points="371.09,-146.64 378.1,-138.69 367.66,-140.54 371.09,-146.64"/>
</a>
</g>
</g>
<!-- Node17 -->
<g id="Node000017" class="node">
<title>Node17</title>
<g id="a_Node000017"><a xlink:href="class_big_data_stat_meth_1_1hdf5_dataset.html#a1ebc27e1f730bc4e611b844dbbb08e34" target="_top" xlink:title="Get an attribute from the dataset.">
<polygon fill="white" stroke="#666666" points="514.5,-284.5 364.25,-284.5 364.25,-254 514.5,-254 514.5,-284.5"/>
<text xml:space="preserve" text-anchor="start" x="372.25" y="-271" font-family="Helvetica,sans-Serif" font-size="10.00">BigDataStatMeth::hdf5Dataset</text>
<text xml:space="preserve" text-anchor="middle" x="439.38" y="-259.75" font-family="Helvetica,sans-Serif" font-size="10.00">::getAttribute</text>
</a>
</g>
</g>
<!-- Node15&#45;&gt;Node17 -->
<g id="edge18_Node000015_Node000017" class="edge">
<title>Node15&#45;&gt;Node17</title>
<g id="a_edge18_Node000015_Node000017"><a xlink:title=" ">
<path fill="none" stroke="#63b8ff" d="M316.18,-242.95C328.58,-245.62 341.53,-248.41 354.19,-251.13"/>
<polygon fill="#63b8ff" stroke="#63b8ff" points="353.21,-254.5 363.72,-253.18 354.68,-247.66 353.21,-254.5"/>
</a>
</g>
</g>
<!-- Node19 -->
<g id="Node000019" class="node">
<title>Node19</title>
<g id="a_Node000019"><a xlink:href="class_big_data_stat_meth_1_1hdf5_dataset.html#a945dd1d6f3db102a962d239045792f61" target="_top" xlink:title="Get dimensions of existing dataset.">
<polygon fill="white" stroke="#666666" points="514.5,-186.5 364.25,-186.5 364.25,-156 514.5,-156 514.5,-186.5"/>
<text xml:space="preserve" text-anchor="start" x="372.25" y="-173" font-family="Helvetica,sans-Serif" font-size="10.00">BigDataStatMeth::hdf5Dataset</text>
<text xml:space="preserve" text-anchor="middle" x="439.38" y="-161.75" font-family="Helvetica,sans-Serif" font-size="10.00">::getDimensExistingDataset</text>
</a>
</g>
</g>
<!-- Node15&#45;&gt;Node19 -->
<g id="edge21_Node000015_Node000019" class="edge">
<title>Node15&#45;&gt;Node19</title>
<g id="a_edge21_Node000015_Node000019"><a xlink:title=" ">
<path fill="none" stroke="#63b8ff" d="M298.12,-211.5C321.29,-204.85 348.46,-197.06 372.68,-190.1"/>
<polygon fill="#63b8ff" stroke="#63b8ff" points="373.48,-193.52 382.12,-187.39 371.54,-186.79 373.48,-193.52"/>
</a>
</g>
</g>
<!-- Node17&#45;&gt;Node7 -->
<g id="edge20_Node000017_Node000007" class="edge">
<title>Node17&#45;&gt;Node7</title>
<g id="a_edge20_Node000017_Node000007"><a xlink:title=" ">
<path fill="none" stroke="#63b8ff" d="M499.43,-284.96C516.95,-289.62 536.31,-294.76 554.47,-299.59"/>
<polygon fill="#63b8ff" stroke="#63b8ff" points="553.56,-302.97 564.12,-302.16 555.36,-296.21 553.56,-302.97"/>
</a>
</g>
</g>
<!-- Node18 -->
<g id="Node000018" class="node">
<title>Node18</title>
<g id="a_Node000018"><a xlink:href="class_big_data_stat_meth_1_1hdf5_dataset.html#aba39e56a580d3b1fa7f1619fc72efa3e" target="_top" xlink:title="Close dataset and file.">
<polygon fill="white" stroke="#666666" points="700.75,-277.5 550.5,-277.5 550.5,-247 700.75,-247 700.75,-277.5"/>
<text xml:space="preserve" text-anchor="start" x="558.5" y="-264" font-family="Helvetica,sans-Serif" font-size="10.00">BigDataStatMeth::hdf5Dataset</text>
<text xml:space="preserve" text-anchor="middle" x="625.62" y="-252.75" font-family="Helvetica,sans-Serif" font-size="10.00">::close_dataset_file</text>
</a>
</g>
</g>
<!-- Node17&#45;&gt;Node18 -->
<g id="edge19_Node000017_Node000018" class="edge">
<title>Node17&#45;&gt;Node18</title>
<g id="a_edge19_Node000017_Node000018"><a xlink:title=" ">
<path fill="none" stroke="#63b8ff" d="M514.79,-266.42C522.73,-266.12 530.85,-265.81 538.91,-265.51"/>
<polygon fill="#63b8ff" stroke="#63b8ff" points="538.86,-269.01 548.72,-265.13 538.6,-262.02 538.86,-269.01"/>
</a>
</g>
</g>
<!-- Node20&#45;&gt;Node18 -->
<g id="edge23_Node000020_Node000018" class="edge">
<title>Node20&#45;&gt;Node18</title>
<g id="a_edge23_Node000020_Node000018"><a xlink:title=" ">
<path fill="none" stroke="#63b8ff" d="M312.55,-162.52C318.11,-159.89 323.43,-156.83 328.25,-153.25 351.71,-135.83 338.55,-112.14 364.25,-98.25 422.99,-66.49 461.23,-57.98 514.5,-98.25 561.3,-133.63 513.06,-180.08 550.5,-225.25 555.61,-231.42 562.01,-236.65 568.88,-241.07"/>
<polygon fill="#63b8ff" stroke="#63b8ff" points="566.76,-243.89 577.18,-245.84 570.25,-237.82 566.76,-243.89"/>
</a>
</g>
</g>
<!-- Node22&#45;&gt;Node11 -->
<g id="edge27_Node000022_Node000011" class="edge">
<title>Node22&#45;&gt;Node11</title>
<g id="a_edge27_Node000022_Node000011"><a xlink:title=" ">
<path fill="none" stroke="#63b8ff" d="M481.29,-51.87C492.13,-56.11 503.79,-60.77 514.5,-65.25 536.27,-74.35 560.22,-84.93 580.21,-93.93"/>
<polygon fill="#63b8ff" stroke="#63b8ff" points="578.64,-97.06 589.19,-97.99 581.52,-90.68 578.64,-97.06"/>
</a>
</g>
</g>
<!-- Node22&#45;&gt;Node12 -->
<g id="edge28_Node000022_Node000012" class="edge">
<title>Node22&#45;&gt;Node12</title>
<g id="a_edge28_Node000022_Node000012"><a xlink:title=" ">
<path fill="none" stroke="#63b8ff" d="M494.59,-51.92C501.81,-55.53 508.7,-59.92 514.5,-65.25 541.15,-89.72 527.57,-110.27 550.5,-138.25 559.26,-148.94 570.4,-158.83 581.36,-167.26"/>
<polygon fill="#63b8ff" stroke="#63b8ff" points="579.13,-169.96 589.25,-173.09 583.29,-164.33 579.13,-169.96"/>
</a>
</g>
</g>
<!-- Node23 -->
<g id="Node000023" class="node">
<title>Node23</title>
<g id="a_Node000023"><a xlink:href="class_big_data_stat_meth_1_1hdf5_dataset_internal.html#a0453f8502bee6dd35be2ec196e9edc55" target="_top" xlink:title="Close the dataset.">
<polygon fill="white" stroke="#666666" points="700.75,-30.5 550.5,-30.5 550.5,0 700.75,0 700.75,-30.5"/>
<text xml:space="preserve" text-anchor="start" x="558.5" y="-17" font-family="Helvetica,sans-Serif" font-size="10.00">BigDataStatMeth::hdf5Dataset</text>
<text xml:space="preserve" text-anchor="middle" x="625.62" y="-5.75" font-family="Helvetica,sans-Serif" font-size="10.00">Internal::close_dataset</text>
</a>
</g>
</g>
<!-- Node22&#45;&gt;Node23 -->
<g id="edge26_Node000022_Node000023" class="edge">
<title>Node22&#45;&gt;Node23</title>
<g id="a_edge26_Node000022_Node000023"><a xlink:title=" ">
<path fill="none" stroke="#63b8ff" d="M514.79,-27.77C522.73,-26.86 530.85,-25.94 538.91,-25.02"/>
<polygon fill="#63b8ff" stroke="#63b8ff" points="539.19,-28.51 548.73,-23.9 538.4,-21.55 539.19,-28.51"/>
</a>
</g>
</g>
<!-- Node24 -->
<g id="Node000024" class="node">
<title>Node24</title>
<g id="a_Node000024"><a xlink:href="namespace_big_data_stat_meth.html#a2692707b3ea4aaafa09d07afaf632437" target="_top" xlink:title="Transposes a 2D matrix.">
<polygon fill="white" stroke="#666666" points="695.5,-67.88 555.75,-67.88 555.75,-48.62 695.5,-48.62 695.5,-67.88"/>
<text xml:space="preserve" text-anchor="middle" x="625.62" y="-54.38" font-family="Helvetica,sans-Serif" font-size="10.00">BigDataStatMeth::transpose</text>
</a>
</g>
</g>
<!-- Node22&#45;&gt;Node24 -->
<g id="edge29_Node000022_Node000024" class="edge">
<title>Node22&#45;&gt;Node24</title>
<g id="a_edge29_Node000022_Node000024"><a xlink:title=" ">
<path fill="none" stroke="#63b8ff" d="M514.79,-45.13C524.4,-46.28 534.29,-47.46 544.01,-48.62"/>
<polygon fill="#63b8ff" stroke="#63b8ff" points="543.45,-52.08 553.8,-49.79 544.28,-45.13 543.45,-52.08"/>
</a>
</g>
</g>
</g>
</svg>

<g id="navigator" transform="translate(0 0)" fill="#404254">
  <rect fill="#f2f5e9" fill-opacity="0.5" stroke="#606060" stroke-width=".5" x="0" y="0" width="60" height="60"/>
  <use id="zoomplus" xlink:href="#zoomPlus" x="17" y="9" onmousedown="handleZoom(evt,'in')"/>
  <use id="zoomminus" xlink:href="#zoomMin" x="42" y="9" onmousedown="handleZoom(evt,'out')"/>
  <use id="reset" xlink:href="#resetDef" x="30" y="36" onmousedown="handleReset()"/>
   <use id="arrowup" xlink:href="#arrowUp" x="0" y="0" onmousedown="handlePan(0,-1)"/>
  <use id="arrowright" xlink:href="#arrowRight" x="0" y="0" onmousedown="handlePan(1,0)"/>
  <use id="arrowdown" xlink:href="#arrowDown" x="0" y="0" onmousedown="handlePan(0,1)"/>
  <use id="arrowleft" xlink:href="#arrowLeft" x="0" y="0" onmousedown="handlePan(-1,0)"/>
</g>
<svg viewBox="0 0 15 15" width="100%" height="30px" preserveAspectRatio="xMaxYMin meet">
 <g id="arrow_out" transform="scale(0.3 0.3)">
  <a xlink:href="namespace_big_data_stat_meth_ab5eb5e5929af2288ef3397c38916d324_cgraph_org.svg" target="_base">
   <rect id="button" ry="5" rx="5" y="6" x="6" height="38" width="38"
        fill="#f2f5e9" fill-opacity="0.5" stroke="#606060" stroke-width="1.0"/>
   <path id="arrow"
     d="M 11.500037,31.436501 C 11.940474,20.09759 22.043105,11.32322 32.158766,21.979434 L 37.068811,17.246167 C 37.068811,17.246167 37.088388,32 37.088388,32 L 22.160133,31.978069 C 22.160133,31.978069 26.997745,27.140456 26.997745,27.140456 C 18.528582,18.264221 13.291696,25.230495 11.500037,31.436501 z"
     style="fill:#404040;"/>
  </a>
 </g>
</svg>

<style type='text/css'>
<![CDATA[
[data-mouse-over-selected='false'] { opacity: 0.7; }
[data-mouse-over-selected='true']  { opacity: 1.0; }
]]>
</style>
<script type="application/ecmascript"><![CDATA[
document.addEventListener('DOMContentLoaded', (event) => {
  highlightEdges();
  highlightAdjacentNodes();
});
]]></script>
</svg>
