<?xml version="1.0" encoding="UTF-8" standalone="no"?>
<!DOCTYPE svg PUBLIC "-//W3C//DTD SVG 1.1//EN"
 "http://www.w3.org/Graphics/SVG/1.1/DTD/svg11.dtd">
<!-- Generated by graphviz version 14.0.0 (20250921.2048)
 -->
<!-- Title: BigDataStatMeth::crossprod Pages: 1 -->
<!--zoomable 696 -->

<svg id="main" version="1.1" xmlns="http://www.w3.org/2000/svg" xmlns:xlink="http://www.w3.org/1999/xlink" xml:space="preserve" onload="init(evt)">

<style type="text/css"><![CDATA[
.node, .edge {opacity: 0.7;}
.node.selected, .edge.selected {opacity: 1;}
.edge:hover path { stroke: red; }
.edge:hover polygon { stroke: red; fill: red; }
]]></style>

<defs>
  <circle id="rim" cx="0" cy="0" r="7"/>
  <circle id="rim2" cx="0" cy="0" r="3.5"/>
  <g id="zoomPlus">
    <use xlink:href="#rim" fill="#404040"><set attributeName="fill" to="#808080" begin="zoomplus.mouseover" end="zoomplus.mouseout"/></use>
    <path d="M-4,0h8M0,-4v8" fill="none" stroke="white" stroke-width="1.5" pointer-events="none"/>
  </g>
  <g id="zoomMin">
    <use xlink:href="#rim" fill="#404040"><set attributeName="fill" to="#808080" begin="zoomminus.mouseover" end="zoomminus.mouseout"/></use>
    <path d="M-4,0h8" fill="none" stroke="white" stroke-width="1.5" pointer-events="none"/>
  </g>
  <g id="arrowUp" transform="translate(30 24)">
    <use xlink:href="#rim"/>
    <path pointer-events="none" fill="none" stroke="white" stroke-width="1.5" d="M0,-3.0v7 M-2.5,-0.5L0,-3.0L2.5,-0.5"/>
  </g>
  <g id="arrowRight" transform="rotate(90) translate(36 -43)">
    <use xlink:href="#rim"/>
    <path pointer-events="none" fill="none" stroke="white" stroke-width="1.5" d="M0,-3.0v7 M-2.5,-0.5L0,-3.0L2.5,-0.5"/>
  </g>
  <g id="arrowDown" transform="rotate(180) translate(-30 -48)">
    <use xlink:href="#rim"/>
    <path pointer-events="none" fill="none" stroke="white" stroke-width="1.5" d="M0,-3.0v7 M-2.5,-0.5L0,-3.0L2.5,-0.5"/>
  </g>
  <g id="arrowLeft" transform="rotate(270) translate(-36 17)">
    <use xlink:href="#rim"/>
    <path pointer-events="none" fill="none" stroke="white" stroke-width="1.5" d="M0,-3.0v7 M-2.5,-0.5L0,-3.0L2.5,-0.5"/>
  </g>
  <g id="resetDef">
    <use xlink:href="#rim2" fill="#404040"><set attributeName="fill" to="#808080" begin="reset.mouseover" end="reset.mouseout"/></use>
  </g>
</defs>
<script type="application/ecmascript">
var viewWidth = 822;
var viewHeight = 696;
var sectionId = 'dynsection-17';
</script>
<script type="application/ecmascript" xlink:href="../../../../assets/svg.min.js"/>
<svg id="graph" class="graph">
<g id="viewport">
<title>BigDataStatMeth::crossprod</title>
<!-- Node1 -->
<g id="Node000001" class="node">
<title>Node1</title>
<g id="a_Node000001"><a xlink:title="Computes the cross&#45;product of two matrices stored in HDF5 format.">
<polygon fill="#999999" stroke="#666666" points="139.75,-241.88 0,-241.88 0,-222.62 139.75,-222.62 139.75,-241.88"/>
<text xml:space="preserve" text-anchor="middle" x="69.88" y="-228.38" font-family="Helvetica,sans-Serif" font-size="10.00">BigDataStatMeth::crossprod</text>
</a>
</g>
</g>
<!-- Node2 -->
<g id="Node000002" class="node">
<title>Node2</title>
<g id="a_Node000002"><a xlink:href="class_big_data_stat_meth_1_1hdf5_dataset.html#ab19bac9a31efe4a733294c1c23ff5ef7" target="_top" xlink:title="Create a new dataset with optional compression.">
<polygon fill="white" stroke="#666666" points="326,-516.5 175.75,-516.5 175.75,-486 326,-486 326,-516.5"/>
<text xml:space="preserve" text-anchor="start" x="183.75" y="-503" font-family="Helvetica,sans-Serif" font-size="10.00">BigDataStatMeth::hdf5Dataset</text>
<text xml:space="preserve" text-anchor="middle" x="250.88" y="-491.75" font-family="Helvetica,sans-Serif" font-size="10.00">::createDataset</text>
</a>
</g>
</g>
<!-- Node1&#45;&gt;Node2 -->
<g id="edge1_Node000001_Node000002" class="edge">
<title>Node1&#45;&gt;Node2</title>
<g id="a_edge1_Node000001_Node000002"><a xlink:title=" ">
<path fill="none" stroke="#63b8ff" d="M76.11,-242.07C90.73,-269.25 133.66,-347.41 175.75,-408.25 192.53,-432.51 213.67,-458.65 229.07,-477.03"/>
<polygon fill="#63b8ff" stroke="#63b8ff" points="226.23,-479.09 235.36,-484.47 231.58,-474.57 226.23,-479.09"/>
</a>
</g>
</g>
<!-- Node13 -->
<g id="Node000013" class="node">
<title>Node13</title>
<g id="a_Node000013"><a xlink:href="openme-utils_8hpp.html#a172daf6d039501f511eff563e5de2ae7" target="_top" xlink:title=" ">
<polygon fill="white" stroke="#666666" points="303.12,-263.88 198.62,-263.88 198.62,-244.62 303.12,-244.62 303.12,-263.88"/>
<text xml:space="preserve" text-anchor="middle" x="250.88" y="-250.38" font-family="Helvetica,sans-Serif" font-size="10.00">get_number_threads</text>
</a>
</g>
</g>
<!-- Node1&#45;&gt;Node13 -->
<g id="edge13_Node000001_Node000013" class="edge">
<title>Node1&#45;&gt;Node13</title>
<g id="a_edge13_Node000001_Node000013"><a xlink:title=" ">
<path fill="none" stroke="#63b8ff" d="M140.08,-240.76C155.53,-242.65 171.82,-244.66 186.99,-246.52"/>
<polygon fill="#63b8ff" stroke="#63b8ff" points="186.49,-249.99 196.84,-247.73 187.34,-243.04 186.49,-249.99"/>
</a>
</g>
</g>
<!-- Node19 -->
<g id="Node000019" class="node">
<title>Node19</title>
<g id="a_Node000019"><a xlink:href="class_big_data_stat_meth_1_1hdf5_dataset.html#ac979eba40078c7c5974b64b2ce6347a3" target="_top" xlink:title="Get dataset name.">
<polygon fill="white" stroke="#666666" points="326,-226.5 175.75,-226.5 175.75,-196 326,-196 326,-226.5"/>
<text xml:space="preserve" text-anchor="start" x="183.75" y="-213" font-family="Helvetica,sans-Serif" font-size="10.00">BigDataStatMeth::hdf5Dataset</text>
<text xml:space="preserve" text-anchor="middle" x="250.88" y="-201.75" font-family="Helvetica,sans-Serif" font-size="10.00">::getDatasetName</text>
</a>
</g>
</g>
<!-- Node1&#45;&gt;Node19 -->
<g id="edge19_Node000001_Node000019" class="edge">
<title>Node1&#45;&gt;Node19</title>
<g id="a_edge19_Node000001_Node000019"><a xlink:title=" ">
<path fill="none" stroke="#63b8ff" d="M140.08,-224.13C147.97,-223.21 156.08,-222.25 164.16,-221.31"/>
<polygon fill="#63b8ff" stroke="#63b8ff" points="164.48,-224.79 174.01,-220.15 163.67,-217.84 164.48,-224.79"/>
</a>
</g>
</g>
<!-- Node20 -->
<g id="Node000020" class="node">
<title>Node20</title>
<g id="a_Node000020"><a xlink:href="class_big_data_stat_meth_1_1hdf5_dataset.html#ae7e94f6d05d1a6cff2d24ec3f1b18fca" target="_top" xlink:title="Get file name.">
<polygon fill="white" stroke="#666666" points="326,-177.5 175.75,-177.5 175.75,-147 326,-147 326,-177.5"/>
<text xml:space="preserve" text-anchor="start" x="183.75" y="-164" font-family="Helvetica,sans-Serif" font-size="10.00">BigDataStatMeth::hdf5Dataset</text>
<text xml:space="preserve" text-anchor="middle" x="250.88" y="-152.75" font-family="Helvetica,sans-Serif" font-size="10.00">::getFileName</text>
</a>
</g>
</g>
<!-- Node1&#45;&gt;Node20 -->
<g id="edge20_Node000001_Node000020" class="edge">
<title>Node1&#45;&gt;Node20</title>
<g id="a_edge20_Node000001_Node000020"><a xlink:title=" ">
<path fill="none" stroke="#63b8ff" d="M92.76,-222.25C113.83,-212.77 146.7,-198.36 175.75,-187.25 180.65,-185.38 185.75,-183.5 190.89,-181.67"/>
<polygon fill="#63b8ff" stroke="#63b8ff" points="191.72,-185.08 200,-178.47 189.41,-178.48 191.72,-185.08"/>
</a>
</g>
</g>
<!-- Node22 -->
<g id="Node000022" class="node">
<title>Node22</title>
<g id="a_Node000022"><a xlink:href="class_big_data_stat_meth_1_1hdf5_dataset.html#af4869e54b1d4c01ab4caacf1939e1907" target="_top" xlink:title="Get group name.">
<polygon fill="white" stroke="#666666" points="326,-399.5 175.75,-399.5 175.75,-369 326,-369 326,-399.5"/>
<text xml:space="preserve" text-anchor="start" x="183.75" y="-386" font-family="Helvetica,sans-Serif" font-size="10.00">BigDataStatMeth::hdf5Dataset</text>
<text xml:space="preserve" text-anchor="middle" x="250.88" y="-374.75" font-family="Helvetica,sans-Serif" font-size="10.00">::getGroup</text>
</a>
</g>
</g>
<!-- Node1&#45;&gt;Node22 -->
<g id="edge22_Node000001_Node000022" class="edge">
<title>Node1&#45;&gt;Node22</title>
<g id="a_edge22_Node000001_Node000022"><a xlink:title=" ">
<path fill="none" stroke="#63b8ff" d="M76.35,-242.09C90.01,-265.76 127.94,-326.33 175.75,-359.25 177.84,-360.69 180.02,-362.05 182.27,-363.34"/>
<polygon fill="#63b8ff" stroke="#63b8ff" points="180.61,-366.42 191.11,-367.85 183.79,-360.19 180.61,-366.42"/>
</a>
</g>
</g>
<!-- Node23 -->
<g id="Node000023" class="node">
<title>Node23</title>
<g id="a_Node000023"><a xlink:href="namespace_big_data_stat_meth.html#ad6e454f49b5e34a5b657df896eed7502" target="_top" xlink:title="Optimizes block size for edge cases.">
<polygon fill="white" stroke="#666666" points="319.25,-128.5 182.5,-128.5 182.5,-98 319.25,-98 319.25,-128.5"/>
<text xml:space="preserve" text-anchor="start" x="190.5" y="-115" font-family="Helvetica,sans-Serif" font-size="10.00">BigDataStatMeth::getOptim</text>
<text xml:space="preserve" text-anchor="middle" x="250.88" y="-103.75" font-family="Helvetica,sans-Serif" font-size="10.00">BlockSize</text>
</a>
</g>
</g>
<!-- Node1&#45;&gt;Node23 -->
<g id="edge24_Node000001_Node000023" class="edge">
<title>Node1&#45;&gt;Node23</title>
<g id="a_edge24_Node000001_Node000023"><a xlink:title=" ">
<path fill="none" stroke="#63b8ff" d="M79.4,-222.29C96.08,-203.38 134.99,-162.03 175.75,-138.25 178.55,-136.61 181.48,-135.07 184.48,-133.6"/>
<polygon fill="#63b8ff" stroke="#63b8ff" points="185.82,-136.84 193.53,-129.57 182.97,-130.45 185.82,-136.84"/>
</a>
</g>
</g>
<!-- Node24 -->
<g id="Node000024" class="node">
<title>Node24</title>
<g id="a_Node000024"><a xlink:href="class_big_data_stat_meth_1_1hdf5_dataset.html#aa743c8c46d7ff3bb2f894145dd07fd8a" target="_top" xlink:title="Get number of columns in internal format.">
<polygon fill="white" stroke="#666666" points="326,-79.5 175.75,-79.5 175.75,-49 326,-49 326,-79.5"/>
<text xml:space="preserve" text-anchor="start" x="183.75" y="-66" font-family="Helvetica,sans-Serif" font-size="10.00">BigDataStatMeth::hdf5Dataset</text>
<text xml:space="preserve" text-anchor="middle" x="250.88" y="-54.75" font-family="Helvetica,sans-Serif" font-size="10.00">::ncols</text>
</a>
</g>
</g>
<!-- Node1&#45;&gt;Node24 -->
<g id="edge25_Node000001_Node000024" class="edge">
<title>Node1&#45;&gt;Node24</title>
<g id="a_edge25_Node000001_Node000024"><a xlink:title=" ">
<path fill="none" stroke="#63b8ff" d="M75.46,-222.3C87.85,-196.47 124.56,-126.7 175.75,-89.25 177.68,-87.84 179.69,-86.51 181.76,-85.24"/>
<polygon fill="#63b8ff" stroke="#63b8ff" points="183.36,-88.36 190.53,-80.56 180.06,-82.19 183.36,-88.36"/>
</a>
</g>
</g>
<!-- Node25 -->
<g id="Node000025" class="node">
<title>Node25</title>
<g id="a_Node000025"><a xlink:href="class_big_data_stat_meth_1_1hdf5_dataset.html#a6cbce676967d0cc4b50e2cc5282c322b" target="_top" xlink:title="Get number of rows in internal format.">
<polygon fill="white" stroke="#666666" points="326,-30.5 175.75,-30.5 175.75,0 326,0 326,-30.5"/>
<text xml:space="preserve" text-anchor="start" x="183.75" y="-17" font-family="Helvetica,sans-Serif" font-size="10.00">BigDataStatMeth::hdf5Dataset</text>
<text xml:space="preserve" text-anchor="middle" x="250.88" y="-5.75" font-family="Helvetica,sans-Serif" font-size="10.00">::nrows</text>
</a>
</g>
</g>
<!-- Node1&#45;&gt;Node25 -->
<g id="edge26_Node000001_Node000025" class="edge">
<title>Node1&#45;&gt;Node25</title>
<g id="a_edge26_Node000001_Node000025"><a xlink:title=" ">
<path fill="none" stroke="#63b8ff" d="M73.51,-222.22C82.33,-190.64 113.77,-92.25 175.75,-40.25 177.22,-39.02 178.75,-37.85 180.33,-36.74"/>
<polygon fill="#63b8ff" stroke="#63b8ff" points="181.83,-39.91 188.58,-31.74 178.21,-33.93 181.83,-39.91"/>
</a>
</g>
</g>
<!-- Node26 -->
<g id="Node000026" class="node">
<title>Node26</title>
<g id="a_Node000026"><a xlink:href="class_big_data_stat_meth_1_1hdf5_dataset.html#a23bea87165b8ef6b944709c5b2cbd0cf" target="_top" xlink:title=" ">
<polygon fill="white" stroke="#666666" points="326,-350.5 175.75,-350.5 175.75,-320 326,-320 326,-350.5"/>
<text xml:space="preserve" text-anchor="start" x="183.75" y="-337" font-family="Helvetica,sans-Serif" font-size="10.00">BigDataStatMeth::hdf5Dataset</text>
<text xml:space="preserve" text-anchor="middle" x="250.88" y="-325.75" font-family="Helvetica,sans-Serif" font-size="10.00">::readDatasetBlock</text>
</a>
</g>
</g>
<!-- Node1&#45;&gt;Node26 -->
<g id="edge27_Node000001_Node000026" class="edge">
<title>Node1&#45;&gt;Node26</title>
<g id="a_edge27_Node000001_Node000026"><a xlink:title=" ">
<path fill="none" stroke="#63b8ff" d="M82.84,-242.16C101.68,-257.41 139.84,-286.93 175.75,-306.25 181.74,-309.47 188.17,-312.53 194.64,-315.36"/>
<polygon fill="#63b8ff" stroke="#63b8ff" points="192.82,-318.4 203.4,-319.04 195.53,-311.94 192.82,-318.4"/>
</a>
</g>
</g>
<!-- Node27 -->
<g id="Node000027" class="node">
<title>Node27</title>
<g id="a_Node000027"><a xlink:href="class_big_data_stat_meth_1_1hdf5_dataset.html#af606176d84a63561b65702b6fde3a583" target="_top" xlink:title="Write block of data with optional transposition.">
<polygon fill="white" stroke="#666666" points="512.25,-307.5 362,-307.5 362,-277 512.25,-277 512.25,-307.5"/>
<text xml:space="preserve" text-anchor="start" x="370" y="-294" font-family="Helvetica,sans-Serif" font-size="10.00">BigDataStatMeth::hdf5Dataset</text>
<text xml:space="preserve" text-anchor="middle" x="437.12" y="-282.75" font-family="Helvetica,sans-Serif" font-size="10.00">::writeDatasetBlock</text>
</a>
</g>
</g>
<!-- Node1&#45;&gt;Node27 -->
<g id="edge29_Node000001_Node000027" class="edge">
<title>Node1&#45;&gt;Node27</title>
<g id="a_edge29_Node000001_Node000027"><a xlink:title=" ">
<path fill="none" stroke="#63b8ff" d="M91.19,-242.31C111.9,-252.05 145.24,-266.34 175.75,-273.25 233.08,-286.24 299.15,-290.94 350.39,-292.42"/>
<polygon fill="#63b8ff" stroke="#63b8ff" points="350.15,-295.92 360.23,-292.67 350.32,-288.92 350.15,-295.92"/>
</a>
</g>
</g>
<!-- Node3 -->
<g id="Node000003" class="node">
<title>Node3</title>
<g id="a_Node000003"><a xlink:href="class_big_data_stat_meth_1_1hdf5_dataset.html#ac7a7f23b7e22c9b56ca6ad86592f2d52" target="_top" xlink:title="Add an attribute to the dataset.">
<polygon fill="white" stroke="#666666" points="512.25,-540.5 362,-540.5 362,-510 512.25,-510 512.25,-540.5"/>
<text xml:space="preserve" text-anchor="start" x="370" y="-527" font-family="Helvetica,sans-Serif" font-size="10.00">BigDataStatMeth::hdf5Dataset</text>
<text xml:space="preserve" text-anchor="middle" x="437.12" y="-515.75" font-family="Helvetica,sans-Serif" font-size="10.00">::addAttribute</text>
</a>
</g>
</g>
<!-- Node2&#45;&gt;Node3 -->
<g id="edge2_Node000002_Node000003" class="edge">
<title>Node2&#45;&gt;Node3</title>
<g id="a_edge2_Node000002_Node000003"><a xlink:title=" ">
<path fill="none" stroke="#63b8ff" d="M326.29,-510.94C334.23,-511.98 342.35,-513.04 350.41,-514.09"/>
<polygon fill="#63b8ff" stroke="#63b8ff" points="349.87,-517.54 360.24,-515.36 350.77,-510.6 349.87,-517.54"/>
</a>
</g>
</g>
<!-- Node4 -->
<g id="Node000004" class="node">
<title>Node4</title>
<g id="a_Node000004"><a xlink:href="class_big_data_stat_meth_1_1hdf5_file.html#abfb73b5f1eb25ee00489485c8dc56a2a" target="_top" xlink:title="Close file and cleanup resources.">
<polygon fill="white" stroke="#666666" points="502.88,-491.5 371.38,-491.5 371.38,-461 502.88,-461 502.88,-491.5"/>
<text xml:space="preserve" text-anchor="start" x="379.38" y="-478" font-family="Helvetica,sans-Serif" font-size="10.00">BigDataStatMeth::hdf5File</text>
<text xml:space="preserve" text-anchor="middle" x="437.12" y="-466.75" font-family="Helvetica,sans-Serif" font-size="10.00">::close_file</text>
</a>
</g>
</g>
<!-- Node2&#45;&gt;Node4 -->
<g id="edge3_Node000002_Node000004" class="edge">
<title>Node2&#45;&gt;Node4</title>
<g id="a_edge3_Node000002_Node000004"><a xlink:title=" ">
<path fill="none" stroke="#63b8ff" d="M326.29,-491.15C337.26,-489.67 348.58,-488.13 359.59,-486.63"/>
<polygon fill="#63b8ff" stroke="#63b8ff" points="359.99,-490.11 369.43,-485.3 359.05,-483.18 359.99,-490.11"/>
</a>
</g>
</g>
<!-- Node5 -->
<g id="Node000005" class="node">
<title>Node5</title>
<g id="a_Node000005"><a xlink:href="class_big_data_stat_meth_1_1hdf5_group.html#a27cef4d33e46c72bfd792aa49fa621a3" target="_top" xlink:title="Create multiple nested groups.">
<polygon fill="white" stroke="#666666" points="508.12,-687.5 366.12,-687.5 366.12,-657 508.12,-657 508.12,-687.5"/>
<text xml:space="preserve" text-anchor="start" x="374.12" y="-674" font-family="Helvetica,sans-Serif" font-size="10.00">BigDataStatMeth::hdf5Group</text>
<text xml:space="preserve" text-anchor="middle" x="437.12" y="-662.75" font-family="Helvetica,sans-Serif" font-size="10.00">::create_HDF5_groups</text>
</a>
</g>
</g>
<!-- Node2&#45;&gt;Node5 -->
<g id="edge4_Node000002_Node000005" class="edge">
<title>Node2&#45;&gt;Node5</title>
<g id="a_edge4_Node000002_Node000005"><a xlink:title=" ">
<path fill="none" stroke="#63b8ff" d="M259.57,-516.91C274.95,-546.62 312.3,-611.4 362,-647.25 363.94,-648.65 365.96,-649.97 368.04,-651.22"/>
<polygon fill="#63b8ff" stroke="#63b8ff" points="366.35,-654.29 376.83,-655.87 369.63,-648.1 366.35,-654.29"/>
</a>
</g>
</g>
<!-- Node7 -->
<g id="Node000007" class="node">
<title>Node7</title>
<g id="a_Node000007"><a xlink:href="namespace_big_data_stat_meth.html#a89d901ab4b5e01771f4e3fc7dc84e50e" target="_top" xlink:title="Checks if an HDF5 element (group or dataset) exists.">
<polygon fill="white" stroke="#666666" points="498.75,-638.5 375.5,-638.5 375.5,-608 498.75,-608 498.75,-638.5"/>
<text xml:space="preserve" text-anchor="start" x="383.5" y="-625" font-family="Helvetica,sans-Serif" font-size="10.00">BigDataStatMeth::exists</text>
<text xml:space="preserve" text-anchor="middle" x="437.12" y="-613.75" font-family="Helvetica,sans-Serif" font-size="10.00">_HDF5_element</text>
</a>
</g>
</g>
<!-- Node2&#45;&gt;Node7 -->
<g id="edge6_Node000002_Node000007" class="edge">
<title>Node2&#45;&gt;Node7</title>
<g id="a_edge6_Node000002_Node000007"><a xlink:title=" ">
<path fill="none" stroke="#63b8ff" d="M265.71,-516.82C285.25,-537.96 322.95,-575.7 362,-598.25 364.96,-599.96 368.06,-601.58 371.24,-603.1"/>
<polygon fill="#63b8ff" stroke="#63b8ff" points="369.64,-606.22 380.2,-607.04 372.45,-599.81 369.64,-606.22"/>
</a>
</g>
</g>
<!-- Node8 -->
<g id="Node000008" class="node">
<title>Node8</title>
<g id="a_Node000008"><a xlink:href="class_big_data_stat_meth_1_1hdf5_group.html#a59995412538627e6c80f64b552c286f5" target="_top" xlink:title=" ">
<polygon fill="white" stroke="#666666" points="508.12,-393.5 366.12,-393.5 366.12,-363 508.12,-363 508.12,-393.5"/>
<text xml:space="preserve" text-anchor="start" x="374.12" y="-380" font-family="Helvetica,sans-Serif" font-size="10.00">BigDataStatMeth::hdf5Group</text>
<text xml:space="preserve" text-anchor="middle" x="437.12" y="-368.75" font-family="Helvetica,sans-Serif" font-size="10.00">::getGroupName</text>
</a>
</g>
</g>
<!-- Node2&#45;&gt;Node8 -->
<g id="edge8_Node000002_Node000008" class="edge">
<title>Node2&#45;&gt;Node8</title>
<g id="a_edge8_Node000002_Node000008"><a xlink:title=" ">
<path fill="none" stroke="#63b8ff" d="M265.67,-485.51C285.18,-464.14 322.83,-426 362,-403.25 364.81,-401.62 367.74,-400.07 370.74,-398.62"/>
<polygon fill="#63b8ff" stroke="#63b8ff" points="372.08,-401.85 379.79,-394.59 369.23,-395.46 372.08,-401.85"/>
</a>
</g>
</g>
<!-- Node9 -->
<g id="Node000009" class="node">
<title>Node9</title>
<g id="a_Node000009"><a xlink:href="namespace_big_data_stat_meth.html#a3d06783149029f1df2853c472d401380" target="_top" xlink:title="Removes multiple elements from an HDF5 file.">
<polygon fill="white" stroke="#666666" points="501.75,-589.5 372.5,-589.5 372.5,-559 501.75,-559 501.75,-589.5"/>
<text xml:space="preserve" text-anchor="start" x="380.5" y="-576" font-family="Helvetica,sans-Serif" font-size="10.00">BigDataStatMeth::remove</text>
<text xml:space="preserve" text-anchor="middle" x="437.12" y="-564.75" font-family="Helvetica,sans-Serif" font-size="10.00">_elements</text>
</a>
</g>
</g>
<!-- Node2&#45;&gt;Node9 -->
<g id="edge9_Node000002_Node000009" class="edge">
<title>Node2&#45;&gt;Node9</title>
<g id="a_edge9_Node000002_Node000009"><a xlink:title=" ">
<path fill="none" stroke="#63b8ff" d="M285.79,-516.93C307.41,-526.7 336.12,-539.27 362,-549.25 366.89,-551.14 371.99,-553.02 377.13,-554.86"/>
<polygon fill="#63b8ff" stroke="#63b8ff" points="375.64,-558.05 386.24,-558.07 377.96,-551.45 375.64,-558.05"/>
</a>
</g>
</g>
<!-- Node10 -->
<g id="Node000010" class="node">
<title>Node10</title>
<g id="a_Node000010"><a xlink:href="class_big_data_stat_meth_1_1hdf5_dataset.html#acf9843abcb57a0090f1635cc69d95300" target="_top" xlink:title="Write data to the dataset.">
<polygon fill="white" stroke="#666666" points="512.25,-442.5 362,-442.5 362,-412 512.25,-412 512.25,-442.5"/>
<text xml:space="preserve" text-anchor="start" x="370" y="-429" font-family="Helvetica,sans-Serif" font-size="10.00">BigDataStatMeth::hdf5Dataset</text>
<text xml:space="preserve" text-anchor="middle" x="437.12" y="-417.75" font-family="Helvetica,sans-Serif" font-size="10.00">::writeDataset</text>
</a>
</g>
</g>
<!-- Node2&#45;&gt;Node10 -->
<g id="edge10_Node000002_Node000010" class="edge">
<title>Node2&#45;&gt;Node10</title>
<g id="a_edge10_Node000002_Node000010"><a xlink:title=" ">
<path fill="none" stroke="#63b8ff" d="M284.79,-485.64C306.5,-475.58 335.68,-462.52 362,-452.25 366.88,-450.34 371.98,-448.45 377.11,-446.6"/>
<polygon fill="#63b8ff" stroke="#63b8ff" points="377.95,-450.01 386.22,-443.38 375.62,-443.41 377.95,-450.01"/>
</a>
</g>
</g>
<!-- Node6 -->
<g id="Node000006" class="node">
<title>Node6</title>
<g id="a_Node000006"><a xlink:href="namespace_big_data_stat_meth.html#abcaa4216cd52f03ebac42e4855ef846b" target="_top" xlink:title="Checks if a path exists in an HDF5 file.">
<polygon fill="white" stroke="#666666" points="705.62,-656.88 562.12,-656.88 562.12,-637.62 705.62,-637.62 705.62,-656.88"/>
<text xml:space="preserve" text-anchor="middle" x="633.88" y="-643.38" font-family="Helvetica,sans-Serif" font-size="10.00">BigDataStatMeth::pathExists</text>
</a>
</g>
</g>
<!-- Node5&#45;&gt;Node6 -->
<g id="edge5_Node000005_Node000006" class="edge">
<title>Node5&#45;&gt;Node6</title>
<g id="a_edge5_Node000005_Node000006"><a xlink:title=" ">
<path fill="none" stroke="#63b8ff" d="M508.43,-663.22C522.1,-661.47 536.55,-659.62 550.56,-657.82"/>
<polygon fill="#63b8ff" stroke="#63b8ff" points="550.71,-661.33 560.19,-656.58 549.82,-654.38 550.71,-661.33"/>
</a>
</g>
</g>
<!-- Node7&#45;&gt;Node6 -->
<g id="edge7_Node000007_Node000006" class="edge">
<title>Node7&#45;&gt;Node6</title>
<g id="a_edge7_Node000007_Node000006"><a xlink:title=" ">
<path fill="none" stroke="#63b8ff" d="M499.21,-630.78C515.5,-632.79 533.37,-634.99 550.59,-637.11"/>
<polygon fill="#63b8ff" stroke="#63b8ff" points="549.94,-640.56 560.29,-638.31 550.79,-633.61 549.94,-640.56"/>
</a>
</g>
</g>
<!-- Node11 -->
<g id="Node000011" class="node">
<title>Node11</title>
<g id="a_Node000011"><a xlink:href="class_big_data_stat_meth_1_1hdf5_dataset.html#aba39e56a580d3b1fa7f1619fc72efa3e" target="_top" xlink:title="Close dataset and file.">
<polygon fill="white" stroke="#666666" points="709,-414.5 558.75,-414.5 558.75,-384 709,-384 709,-414.5"/>
<text xml:space="preserve" text-anchor="start" x="566.75" y="-401" font-family="Helvetica,sans-Serif" font-size="10.00">BigDataStatMeth::hdf5Dataset</text>
<text xml:space="preserve" text-anchor="middle" x="633.88" y="-389.75" font-family="Helvetica,sans-Serif" font-size="10.00">::close_dataset_file</text>
</a>
</g>
</g>
<!-- Node10&#45;&gt;Node11 -->
<g id="edge11_Node000010_Node000011" class="edge">
<title>Node10&#45;&gt;Node11</title>
<g id="a_edge11_Node000010_Node000011"><a xlink:title=" ">
<path fill="none" stroke="#63b8ff" d="M512.59,-416.54C523.86,-414.92 535.57,-413.24 547.06,-411.59"/>
<polygon fill="#63b8ff" stroke="#63b8ff" points="547.56,-415.05 556.96,-410.16 546.56,-408.12 547.56,-415.05"/>
</a>
</g>
</g>
<!-- Node12 -->
<g id="Node000012" class="node">
<title>Node12</title>
<g id="a_Node000012"><a xlink:href="class_big_data_stat_meth_1_1hdf5_dataset.html#a94d81b72e92cb0230b4e64f37ea7d2e3" target="_top" xlink:title="Convert DataFrame to range list.">
<polygon fill="white" stroke="#666666" points="719.5,-365.5 548.25,-365.5 548.25,-335 719.5,-335 719.5,-365.5"/>
<text xml:space="preserve" text-anchor="start" x="556.25" y="-352" font-family="Helvetica,sans-Serif" font-size="10.00">BigDataStatMeth::hdf5Dataset</text>
<text xml:space="preserve" text-anchor="middle" x="633.88" y="-340.75" font-family="Helvetica,sans-Serif" font-size="10.00">::convert_DataFrame_to_RangeList</text>
</a>
</g>
</g>
<!-- Node10&#45;&gt;Node12 -->
<g id="edge12_Node000010_Node000012" class="edge">
<title>Node10&#45;&gt;Node12</title>
<g id="a_edge12_Node000010_Node000012"><a xlink:title=" ">
<path fill="none" stroke="#63b8ff" d="M491.23,-411.65C498.45,-408.87 505.64,-405.73 512.25,-402.25 529.95,-392.94 530.38,-384.23 548.25,-375.25 551.96,-373.39 555.83,-371.64 559.79,-370"/>
<polygon fill="#63b8ff" stroke="#63b8ff" points="560.92,-373.32 569.01,-366.47 558.42,-366.78 560.92,-373.32"/>
</a>
</g>
</g>
<!-- Node14 -->
<g id="Node000014" class="node">
<title>Node14</title>
<g id="a_Node000014"><a xlink:href="openme-utils_8hpp.html#a7d6263da9da6b46b945746e3abdea4ca" target="_top" xlink:title="Determines number of threads for parallel operations.">
<polygon fill="white" stroke="#666666" points="474.75,-240.88 399.5,-240.88 399.5,-221.62 474.75,-221.62 474.75,-240.88"/>
<text xml:space="preserve" text-anchor="middle" x="437.12" y="-227.38" font-family="Helvetica,sans-Serif" font-size="10.00">getDTthreads</text>
</a>
</g>
</g>
<!-- Node13&#45;&gt;Node14 -->
<g id="edge14_Node000013_Node000014" class="edge">
<title>Node13&#45;&gt;Node14</title>
<g id="a_edge14_Node000013_Node000014"><a xlink:title=" ">
<path fill="none" stroke="#63b8ff" d="M303.2,-247.84C329.73,-244.53 361.91,-240.51 387.97,-237.26"/>
<polygon fill="#63b8ff" stroke="#63b8ff" points="388.1,-240.77 397.59,-236.06 387.23,-233.83 388.1,-240.77"/>
</a>
</g>
</g>
<!-- Node15 -->
<g id="Node000015" class="node">
<title>Node15</title>
<g id="a_Node000015"><a xlink:href="openme-utils_8hpp.html#a32e65a19d36ceec1952e48362e4153b8" target="_top" xlink:title="Initializes thread configuration based on environment and system state.">
<polygon fill="white" stroke="#666666" points="671.12,-230.88 596.62,-230.88 596.62,-211.62 671.12,-211.62 671.12,-230.88"/>
<text xml:space="preserve" text-anchor="middle" x="633.88" y="-217.38" font-family="Helvetica,sans-Serif" font-size="10.00">initDTthreads</text>
</a>
</g>
</g>
<!-- Node14&#45;&gt;Node15 -->
<g id="edge15_Node000014_Node000015" class="edge">
<title>Node14&#45;&gt;Node15</title>
<g id="a_edge15_Node000014_Node000015"><a xlink:title=" ">
<path fill="none" stroke="#63b8ff" d="M475.21,-229.35C506.31,-227.75 550.93,-225.46 584.77,-223.72"/>
<polygon fill="#63b8ff" stroke="#63b8ff" points="584.93,-227.22 594.74,-223.21 584.58,-220.23 584.93,-227.22"/>
</a>
</g>
</g>
<!-- Node16 -->
<g id="Node000016" class="node">
<title>Node16</title>
<g id="a_Node000016"><a xlink:href="openme-utils_8hpp.html#a62643b5f3a2b3d36929fed3c368c2cfc" target="_top" xlink:title="Retrieves integer value from environment variable.">
<polygon fill="white" stroke="#666666" points="813.5,-267.88 755.5,-267.88 755.5,-248.62 813.5,-248.62 813.5,-267.88"/>
<text xml:space="preserve" text-anchor="middle" x="784.5" y="-254.38" font-family="Helvetica,sans-Serif" font-size="10.00">getIntEnv</text>
</a>
</g>
</g>
<!-- Node15&#45;&gt;Node16 -->
<g id="edge16_Node000015_Node000016" class="edge">
<title>Node15&#45;&gt;Node16</title>
<g id="a_edge16_Node000015_Node000016"><a xlink:title=" ">
<path fill="none" stroke="#63b8ff" d="M671.26,-228.33C686.26,-231.42 703.78,-235.25 719.5,-239.25 727.61,-241.31 736.23,-243.72 744.44,-246.12"/>
<polygon fill="#63b8ff" stroke="#63b8ff" points="743.24,-249.42 753.83,-248.92 745.24,-242.71 743.24,-249.42"/>
</a>
</g>
</g>
<!-- Node17 -->
<g id="Node000017" class="node">
<title>Node17</title>
<g id="a_Node000017"><a xlink:href="openme-utils_8hpp.html#afca01a231aef5cdbcbb5c23a7134e9d4" target="_top" xlink:title="Maximum of two integers.">
<polygon fill="white" stroke="#666666" points="803,-230.88 766,-230.88 766,-211.62 803,-211.62 803,-230.88"/>
<text xml:space="preserve" text-anchor="middle" x="784.5" y="-217.38" font-family="Helvetica,sans-Serif" font-size="10.00">imax</text>
</a>
</g>
</g>
<!-- Node15&#45;&gt;Node17 -->
<g id="edge17_Node000015_Node000017" class="edge">
<title>Node15&#45;&gt;Node17</title>
<g id="a_edge17_Node000015_Node000017"><a xlink:title=" ">
<path fill="none" stroke="#63b8ff" d="M671.61,-221.25C697.09,-221.25 730.56,-221.25 754.23,-221.25"/>
<polygon fill="#63b8ff" stroke="#63b8ff" points="754.11,-224.75 764.11,-221.25 754.11,-217.75 754.11,-224.75"/>
</a>
</g>
</g>
<!-- Node18 -->
<g id="Node000018" class="node">
<title>Node18</title>
<g id="a_Node000018"><a xlink:href="openme-utils_8hpp.html#aa011f843a2a959cc6f8c226f60e96224" target="_top" xlink:title="Minimum of two integers.">
<polygon fill="white" stroke="#666666" points="801.5,-193.88 767.5,-193.88 767.5,-174.62 801.5,-174.62 801.5,-193.88"/>
<text xml:space="preserve" text-anchor="middle" x="784.5" y="-180.38" font-family="Helvetica,sans-Serif" font-size="10.00">imin</text>
</a>
</g>
</g>
<!-- Node15&#45;&gt;Node18 -->
<g id="edge18_Node000015_Node000018" class="edge">
<title>Node15&#45;&gt;Node18</title>
<g id="a_edge18_Node000015_Node000018"><a xlink:title=" ">
<path fill="none" stroke="#63b8ff" d="M671.61,-212.1C697.79,-205.59 732.41,-196.97 756.17,-191.05"/>
<polygon fill="#63b8ff" stroke="#63b8ff" points="756.86,-194.49 765.72,-188.68 755.17,-187.7 756.86,-194.49"/>
</a>
</g>
</g>
<!-- Node21 -->
<g id="Node000021" class="node">
<title>Node21</title>
<g id="a_Node000021"><a xlink:href="class_big_data_stat_meth_1_1hdf5_file.html#abb50d96e6674ac770e4f27f650ad34cb" target="_top" xlink:title="Get filename.">
<polygon fill="white" stroke="#666666" points="502.88,-177.5 371.38,-177.5 371.38,-147 502.88,-147 502.88,-177.5"/>
<text xml:space="preserve" text-anchor="start" x="379.38" y="-164" font-family="Helvetica,sans-Serif" font-size="10.00">BigDataStatMeth::hdf5File</text>
<text xml:space="preserve" text-anchor="middle" x="437.12" y="-152.75" font-family="Helvetica,sans-Serif" font-size="10.00">::getFilename</text>
</a>
</g>
</g>
<!-- Node20&#45;&gt;Node21 -->
<g id="edge21_Node000020_Node000021" class="edge">
<title>Node20&#45;&gt;Node21</title>
<g id="a_edge21_Node000020_Node000021"><a xlink:title=" ">
<path fill="none" stroke="#63b8ff" d="M326.29,-162.25C337.26,-162.25 348.58,-162.25 359.59,-162.25"/>
<polygon fill="#63b8ff" stroke="#63b8ff" points="359.41,-165.75 369.41,-162.25 359.41,-158.75 359.41,-165.75"/>
</a>
</g>
</g>
<!-- Node22&#45;&gt;Node8 -->
<g id="edge23_Node000022_Node000008" class="edge">
<title>Node22&#45;&gt;Node8</title>
<g id="a_edge23_Node000022_Node000008"><a xlink:title=" ">
<path fill="none" stroke="#63b8ff" d="M326.29,-381.83C335.59,-381.52 345.14,-381.21 354.54,-380.91"/>
<polygon fill="#63b8ff" stroke="#63b8ff" points="354.52,-384.41 364.4,-380.59 354.29,-377.41 354.52,-384.41"/>
</a>
</g>
</g>
<!-- Node26&#45;&gt;Node11 -->
<g id="edge28_Node000026_Node000011" class="edge">
<title>Node26&#45;&gt;Node11</title>
<g id="a_edge28_Node000026_Node000011"><a xlink:title=" ">
<path fill="none" stroke="#63b8ff" d="M326.35,-332.24C379.27,-332.13 451.45,-336.11 512.25,-354.25 529.79,-359.48 531.37,-367.17 548.25,-374.25 552.91,-376.2 557.76,-378.07 562.7,-379.83"/>
<polygon fill="#63b8ff" stroke="#63b8ff" points="561.54,-383.14 572.13,-383.05 563.8,-376.51 561.54,-383.14"/>
</a>
</g>
</g>
<!-- Node27&#45;&gt;Node11 -->
<g id="edge31_Node000027_Node000011" class="edge">
<title>Node27&#45;&gt;Node11</title>
<g id="a_edge31_Node000027_Node000011"><a xlink:title=" ">
<path fill="none" stroke="#63b8ff" d="M490.16,-307.94C498,-311.59 505.66,-315.99 512.25,-321.25 534.51,-339.01 525.25,-357.46 548.25,-374.25 550.18,-375.66 552.2,-376.99 554.27,-378.25"/>
<polygon fill="#63b8ff" stroke="#63b8ff" points="552.56,-381.31 563.03,-382.9 555.84,-375.12 552.56,-381.31"/>
</a>
</g>
</g>
<!-- Node27&#45;&gt;Node12 -->
<g id="edge32_Node000027_Node000012" class="edge">
<title>Node27&#45;&gt;Node12</title>
<g id="a_edge32_Node000027_Node000012"><a xlink:title=" ">
<path fill="none" stroke="#63b8ff" d="M490.49,-307.99C508.76,-313.47 529.41,-319.64 548.25,-325.25 554.9,-327.23 561.84,-329.29 568.77,-331.34"/>
<polygon fill="#63b8ff" stroke="#63b8ff" points="567.56,-334.63 578.15,-334.12 569.55,-327.92 567.56,-334.63"/>
</a>
</g>
</g>
<!-- Node28 -->
<g id="Node000028" class="node">
<title>Node28</title>
<g id="a_Node000028"><a xlink:href="class_big_data_stat_meth_1_1hdf5_dataset.html#a64177ae924792ea9e557febaa95ed400" target="_top" xlink:title="Close the dataset.">
<polygon fill="white" stroke="#666666" points="709,-316.5 558.75,-316.5 558.75,-286 709,-286 709,-316.5"/>
<text xml:space="preserve" text-anchor="start" x="566.75" y="-303" font-family="Helvetica,sans-Serif" font-size="10.00">BigDataStatMeth::hdf5Dataset</text>
<text xml:space="preserve" text-anchor="middle" x="633.88" y="-291.75" font-family="Helvetica,sans-Serif" font-size="10.00">::close_dataset</text>
</a>
</g>
</g>
<!-- Node27&#45;&gt;Node28 -->
<g id="edge30_Node000027_Node000028" class="edge">
<title>Node27&#45;&gt;Node28</title>
<g id="a_edge30_Node000027_Node000028"><a xlink:title=" ">
<path fill="none" stroke="#63b8ff" d="M512.59,-295.69C523.86,-296.21 535.57,-296.75 547.06,-297.28"/>
<polygon fill="#63b8ff" stroke="#63b8ff" points="546.79,-300.78 556.94,-297.74 547.12,-293.78 546.79,-300.78"/>
</a>
</g>
</g>
<!-- Node29 -->
<g id="Node000029" class="node">
<title>Node29</title>
<g id="a_Node000029"><a xlink:href="namespace_big_data_stat_meth.html#a2692707b3ea4aaafa09d07afaf632437" target="_top" xlink:title="Transposes a 2D matrix.">
<polygon fill="white" stroke="#666666" points="703.75,-267.88 564,-267.88 564,-248.62 703.75,-248.62 703.75,-267.88"/>
<text xml:space="preserve" text-anchor="middle" x="633.88" y="-254.38" font-family="Helvetica,sans-Serif" font-size="10.00">BigDataStatMeth::transpose</text>
</a>
</g>
</g>
<!-- Node27&#45;&gt;Node29 -->
<g id="edge33_Node000027_Node000029" class="edge">
<title>Node27&#45;&gt;Node29</title>
<g id="a_edge33_Node000027_Node000029"><a xlink:title=" ">
<path fill="none" stroke="#63b8ff" d="M512.59,-279.25C529.42,-276.31 547.23,-273.2 563.84,-270.3"/>
<polygon fill="#63b8ff" stroke="#63b8ff" points="564.37,-273.76 573.62,-268.59 563.17,-266.87 564.37,-273.76"/>
</a>
</g>
</g>
</g>
</svg>

<g id="navigator" transform="translate(0 0)" fill="#404254">
  <rect fill="#f2f5e9" fill-opacity="0.5" stroke="#606060" stroke-width=".5" x="0" y="0" width="60" height="60"/>
  <use id="zoomplus" xlink:href="#zoomPlus" x="17" y="9" onmousedown="handleZoom(evt,'in')"/>
  <use id="zoomminus" xlink:href="#zoomMin" x="42" y="9" onmousedown="handleZoom(evt,'out')"/>
  <use id="reset" xlink:href="#resetDef" x="30" y="36" onmousedown="handleReset()"/>
   <use id="arrowup" xlink:href="#arrowUp" x="0" y="0" onmousedown="handlePan(0,-1)"/>
  <use id="arrowright" xlink:href="#arrowRight" x="0" y="0" onmousedown="handlePan(1,0)"/>
  <use id="arrowdown" xlink:href="#arrowDown" x="0" y="0" onmousedown="handlePan(0,1)"/>
  <use id="arrowleft" xlink:href="#arrowLeft" x="0" y="0" onmousedown="handlePan(-1,0)"/>
</g>
<svg viewBox="0 0 15 15" width="100%" height="30px" preserveAspectRatio="xMaxYMin meet">
 <g id="arrow_out" transform="scale(0.3 0.3)">
  <a xlink:href="namespace_big_data_stat_meth_ae7e4660ebbdf221a371a7bcabce9e69c_cgraph_org.svg" target="_base">
   <rect id="button" ry="5" rx="5" y="6" x="6" height="38" width="38"
        fill="#f2f5e9" fill-opacity="0.5" stroke="#606060" stroke-width="1.0"/>
   <path id="arrow"
     d="M 11.500037,31.436501 C 11.940474,20.09759 22.043105,11.32322 32.158766,21.979434 L 37.068811,17.246167 C 37.068811,17.246167 37.088388,32 37.088388,32 L 22.160133,31.978069 C 22.160133,31.978069 26.997745,27.140456 26.997745,27.140456 C 18.528582,18.264221 13.291696,25.230495 11.500037,31.436501 z"
     style="fill:#404040;"/>
  </a>
 </g>
</svg>

<style type='text/css'>
<![CDATA[
[data-mouse-over-selected='false'] { opacity: 0.7; }
[data-mouse-over-selected='true']  { opacity: 1.0; }
]]>
</style>
<script type="application/ecmascript"><![CDATA[
document.addEventListener('DOMContentLoaded', (event) => {
  highlightEdges();
  highlightAdjacentNodes();
});
]]></script>
</svg>
