<?xml version="1.0" encoding="UTF-8" standalone="no"?>
<!DOCTYPE svg PUBLIC "-//W3C//DTD SVG 1.1//EN"
 "http://www.w3.org/Graphics/SVG/1.1/DTD/svg11.dtd">
<!-- Generated by graphviz version 14.0.0 (20250921.2048)
 -->
<!-- Title: BigDataStatMeth::RcppPseudoinvHdf5 Pages: 1 -->
<!--zoomable 558 -->

<svg id="main" version="1.1" xmlns="http://www.w3.org/2000/svg" xmlns:xlink="http://www.w3.org/1999/xlink" xml:space="preserve" onload="init(evt)">

<style type="text/css"><![CDATA[
.node, .edge {opacity: 0.7;}
.node.selected, .edge.selected {opacity: 1;}
.edge:hover path { stroke: red; }
.edge:hover polygon { stroke: red; fill: red; }
]]></style>

<defs>
  <circle id="rim" cx="0" cy="0" r="7"/>
  <circle id="rim2" cx="0" cy="0" r="3.5"/>
  <g id="zoomPlus">
    <use xlink:href="#rim" fill="#404040"><set attributeName="fill" to="#808080" begin="zoomplus.mouseover" end="zoomplus.mouseout"/></use>
    <path d="M-4,0h8M0,-4v8" fill="none" stroke="white" stroke-width="1.5" pointer-events="none"/>
  </g>
  <g id="zoomMin">
    <use xlink:href="#rim" fill="#404040"><set attributeName="fill" to="#808080" begin="zoomminus.mouseover" end="zoomminus.mouseout"/></use>
    <path d="M-4,0h8" fill="none" stroke="white" stroke-width="1.5" pointer-events="none"/>
  </g>
  <g id="arrowUp" transform="translate(30 24)">
    <use xlink:href="#rim"/>
    <path pointer-events="none" fill="none" stroke="white" stroke-width="1.5" d="M0,-3.0v7 M-2.5,-0.5L0,-3.0L2.5,-0.5"/>
  </g>
  <g id="arrowRight" transform="rotate(90) translate(36 -43)">
    <use xlink:href="#rim"/>
    <path pointer-events="none" fill="none" stroke="white" stroke-width="1.5" d="M0,-3.0v7 M-2.5,-0.5L0,-3.0L2.5,-0.5"/>
  </g>
  <g id="arrowDown" transform="rotate(180) translate(-30 -48)">
    <use xlink:href="#rim"/>
    <path pointer-events="none" fill="none" stroke="white" stroke-width="1.5" d="M0,-3.0v7 M-2.5,-0.5L0,-3.0L2.5,-0.5"/>
  </g>
  <g id="arrowLeft" transform="rotate(270) translate(-36 17)">
    <use xlink:href="#rim"/>
    <path pointer-events="none" fill="none" stroke="white" stroke-width="1.5" d="M0,-3.0v7 M-2.5,-0.5L0,-3.0L2.5,-0.5"/>
  </g>
  <g id="resetDef">
    <use xlink:href="#rim2" fill="#404040"><set attributeName="fill" to="#808080" begin="reset.mouseover" end="reset.mouseout"/></use>
  </g>
</defs>
<script type="application/ecmascript">
var viewWidth = 775;
var viewHeight = 558;
var sectionId = 'dynsection-190';
</script>
<script type="application/ecmascript" xlink:href="../../../../assets/svg.min.js"/>
<svg id="graph" class="graph">
<g id="viewport">
<title>BigDataStatMeth::RcppPseudoinvHdf5</title>
<!-- Node1 -->
<g id="Node000001" class="node">
<title>Node1</title>
<g id="a_Node000001"><a xlink:title="Compute pseudoinverse of HDF5 matrix.">
<polygon fill="#999999" stroke="#666666" points="187,-220.28 0,-220.28 0,-201.03 187,-201.03 187,-220.28"/>
<text xml:space="preserve" text-anchor="middle" x="93.5" y="-206.78" font-family="Helvetica,sans-Serif" font-size="10.00">BigDataStatMeth::RcppPseudoinvHdf5</text>
</a>
</g>
</g>
<!-- Node2 -->
<g id="Node000002" class="node">
<title>Node2</title>
<g id="a_Node000002"><a xlink:href="class_big_data_stat_meth_1_1hdf5_dataset.html#a374a6cadcadfc23c1f5df858d31e20df" target="_top" xlink:title="Create a new dataset with optional compression.">
<polygon fill="white" stroke="#666666" points="373.25,-402.9 223,-402.9 223,-372.4 373.25,-372.4 373.25,-402.9"/>
<text xml:space="preserve" text-anchor="start" x="231" y="-389.4" font-family="Helvetica,sans-Serif" font-size="10.00">BigDataStatMeth::hdf5Dataset</text>
<text xml:space="preserve" text-anchor="middle" x="298.12" y="-378.15" font-family="Helvetica,sans-Serif" font-size="10.00">::createDataset</text>
</a>
</g>
</g>
<!-- Node1&#45;&gt;Node2 -->
<g id="edge1_Node000001_Node000002" class="edge">
<title>Node1&#45;&gt;Node2</title>
<g id="a_edge1_Node000001_Node000002"><a xlink:title=" ">
<path fill="none" stroke="#63b8ff" d="M100.74,-220.76C117.42,-247.03 165.72,-318.24 223,-358.65 227.36,-361.72 232.09,-364.53 236.98,-367.08"/>
<polygon fill="#63b8ff" stroke="#63b8ff" points="235.27,-370.14 245.8,-371.3 238.29,-363.83 235.27,-370.14"/>
</a>
</g>
</g>
<!-- Node10 -->
<g id="Node000010" class="node">
<title>Node10</title>
<g id="a_Node000010"><a xlink:href="class_big_data_stat_meth_1_1hdf5_dataset.html#acf9843abcb57a0090f1635cc69d95300" target="_top" xlink:title="Write data to the dataset.">
<polygon fill="white" stroke="#666666" points="559.5,-255.9 409.25,-255.9 409.25,-225.4 559.5,-225.4 559.5,-255.9"/>
<text xml:space="preserve" text-anchor="start" x="417.25" y="-242.4" font-family="Helvetica,sans-Serif" font-size="10.00">BigDataStatMeth::hdf5Dataset</text>
<text xml:space="preserve" text-anchor="middle" x="484.38" y="-231.15" font-family="Helvetica,sans-Serif" font-size="10.00">::writeDataset</text>
</a>
</g>
</g>
<!-- Node1&#45;&gt;Node10 -->
<g id="edge22_Node000001_Node000010" class="edge">
<title>Node1&#45;&gt;Node10</title>
<g id="a_edge22_Node000001_Node000010"><a xlink:title=" ">
<path fill="none" stroke="#63b8ff" d="M101.44,-220.61C118.69,-244.36 166.23,-303.96 223,-325.65 285.38,-349.49 315.14,-358.55 373.25,-325.65 400.31,-310.33 385.03,-285.15 409.25,-265.65 410.78,-264.42 412.37,-263.25 414.01,-262.14"/>
<polygon fill="#63b8ff" stroke="#63b8ff" points="415.72,-265.19 422.59,-257.12 412.19,-259.15 415.72,-265.19"/>
</a>
</g>
</g>
<!-- Node13 -->
<g id="Node000013" class="node">
<title>Node13</title>
<g id="a_Node000013"><a xlink:href="namespace_big_data_stat_meth.html#ae0532bb6f183db85d0b2728832ecc849" target="_top" xlink:title="LAPACK DGEMM matrix multiplication.">
<polygon fill="white" stroke="#666666" points="365.38,-316.28 230.88,-316.28 230.88,-297.03 365.38,-297.03 365.38,-316.28"/>
<text xml:space="preserve" text-anchor="middle" x="298.12" y="-302.78" font-family="Helvetica,sans-Serif" font-size="10.00">BigDataStatMeth::dgemm_</text>
</a>
</g>
</g>
<!-- Node1&#45;&gt;Node13 -->
<g id="edge13_Node000001_Node000013" class="edge">
<title>Node1&#45;&gt;Node13</title>
<g id="a_edge13_Node000001_Node000013"><a xlink:title=" ">
<path fill="none" stroke="#63b8ff" d="M107.64,-220.53C130.12,-236.98 177.9,-270.01 223,-288.65 227.08,-290.34 231.36,-291.89 235.71,-293.32"/>
<polygon fill="#63b8ff" stroke="#63b8ff" points="234.58,-296.63 245.17,-296.16 236.6,-289.93 234.58,-296.63"/>
</a>
</g>
</g>
<!-- Node14 -->
<g id="Node000014" class="node">
<title>Node14</title>
<g id="a_Node000014"><a xlink:href="namespace_big_data_stat_meth.html#a8c238ff05f32d5412d99d88c7d1a6329" target="_top" xlink:title="LAPACK DGESVD singular value decomposition.">
<polygon fill="white" stroke="#666666" points="365,-279.28 231.25,-279.28 231.25,-260.03 365,-260.03 365,-279.28"/>
<text xml:space="preserve" text-anchor="middle" x="298.12" y="-265.78" font-family="Helvetica,sans-Serif" font-size="10.00">BigDataStatMeth::dgesvd_</text>
</a>
</g>
</g>
<!-- Node1&#45;&gt;Node14 -->
<g id="edge14_Node000001_Node000014" class="edge">
<title>Node1&#45;&gt;Node14</title>
<g id="a_edge14_Node000001_Node000014"><a xlink:title=" ">
<path fill="none" stroke="#63b8ff" d="M123.92,-220.69C149.85,-229.38 188.73,-242.04 223,-251.65 229.29,-253.42 235.91,-255.17 242.49,-256.85"/>
<polygon fill="#63b8ff" stroke="#63b8ff" points="241.47,-260.2 252.02,-259.23 243.16,-253.41 241.47,-260.2"/>
</a>
</g>
</g>
<!-- Node15 -->
<g id="Node000015" class="node">
<title>Node15</title>
<g id="a_Node000015"><a xlink:href="namespace_big_data_stat_meth.html#af5bf1f625cec4266d6861e2ddaec15b7" target="_top" xlink:title="LAPACK DSCAL vector scaling.">
<polygon fill="white" stroke="#666666" points="360.88,-242.28 235.38,-242.28 235.38,-223.03 360.88,-223.03 360.88,-242.28"/>
<text xml:space="preserve" text-anchor="middle" x="298.12" y="-228.78" font-family="Helvetica,sans-Serif" font-size="10.00">BigDataStatMeth::dscal_</text>
</a>
</g>
</g>
<!-- Node1&#45;&gt;Node15 -->
<g id="edge15_Node000001_Node000015" class="edge">
<title>Node1&#45;&gt;Node15</title>
<g id="a_edge15_Node000001_Node000015"><a xlink:title=" ">
<path fill="none" stroke="#63b8ff" d="M187.21,-220.72C199.45,-222.05 211.86,-223.39 223.72,-224.68"/>
<polygon fill="#63b8ff" stroke="#63b8ff" points="223.07,-228.13 233.39,-225.73 223.82,-221.17 223.07,-228.13"/>
</a>
</g>
</g>
<!-- Node16 -->
<g id="Node000016" class="node">
<title>Node16</title>
<g id="a_Node000016"><a xlink:href="class_big_data_stat_meth_1_1hdf5_dataset.html#af3ab7117b94164ab629673cacd896dd9" target="_top" xlink:title="Get the current compression level for this dataset instance.">
<polygon fill="white" stroke="#666666" points="373.25,-204.9 223,-204.9 223,-174.4 373.25,-174.4 373.25,-204.9"/>
<text xml:space="preserve" text-anchor="start" x="231" y="-191.4" font-family="Helvetica,sans-Serif" font-size="10.00">BigDataStatMeth::hdf5Dataset</text>
<text xml:space="preserve" text-anchor="middle" x="298.12" y="-180.15" font-family="Helvetica,sans-Serif" font-size="10.00">::getCompressionLevel</text>
</a>
</g>
</g>
<!-- Node1&#45;&gt;Node16 -->
<g id="edge16_Node000001_Node000016" class="edge">
<title>Node1&#45;&gt;Node16</title>
<g id="a_edge16_Node000001_Node000016"><a xlink:title=" ">
<path fill="none" stroke="#63b8ff" d="M187.21,-201.04C195.29,-200.2 203.44,-199.36 211.45,-198.53"/>
<polygon fill="#63b8ff" stroke="#63b8ff" points="211.58,-202.04 221.16,-197.52 210.86,-195.07 211.58,-202.04"/>
</a>
</g>
</g>
<!-- Node17 -->
<g id="Node000017" class="node">
<title>Node17</title>
<g id="a_Node000017"><a xlink:href="class_big_data_stat_meth_1_1hdf5_dataset.html#a8cce59e2884ad1ee3b67f281566780af" target="_top" xlink:title="Inherit the compression level from an input dataset if not already set.">
<polygon fill="white" stroke="#666666" points="373.25,-155.9 223,-155.9 223,-125.4 373.25,-125.4 373.25,-155.9"/>
<text xml:space="preserve" text-anchor="start" x="231" y="-142.4" font-family="Helvetica,sans-Serif" font-size="10.00">BigDataStatMeth::hdf5Dataset</text>
<text xml:space="preserve" text-anchor="middle" x="298.12" y="-131.15" font-family="Helvetica,sans-Serif" font-size="10.00">::inheritCompressionLevel</text>
</a>
</g>
</g>
<!-- Node1&#45;&gt;Node17 -->
<g id="edge17_Node000001_Node000017" class="edge">
<title>Node1&#45;&gt;Node17</title>
<g id="a_edge17_Node000001_Node000017"><a xlink:title=" ">
<path fill="none" stroke="#63b8ff" d="M123.05,-200.55C149.07,-191.36 188.58,-177.48 223,-165.65 228.4,-163.79 234.03,-161.87 239.66,-159.96"/>
<polygon fill="#63b8ff" stroke="#63b8ff" points="240.66,-163.32 249,-156.79 238.41,-156.69 240.66,-163.32"/>
</a>
</g>
</g>
<!-- Node18 -->
<g id="Node000018" class="node">
<title>Node18</title>
<g id="a_Node000018"><a xlink:href="class_big_data_stat_meth_1_1hdf5_dataset.html#aa743c8c46d7ff3bb2f894145dd07fd8a" target="_top" xlink:title="Get number of columns in internal format.">
<polygon fill="white" stroke="#666666" points="373.25,-106.9 223,-106.9 223,-76.4 373.25,-76.4 373.25,-106.9"/>
<text xml:space="preserve" text-anchor="start" x="231" y="-93.4" font-family="Helvetica,sans-Serif" font-size="10.00">BigDataStatMeth::hdf5Dataset</text>
<text xml:space="preserve" text-anchor="middle" x="298.12" y="-82.15" font-family="Helvetica,sans-Serif" font-size="10.00">::ncols</text>
</a>
</g>
</g>
<!-- Node1&#45;&gt;Node18 -->
<g id="edge18_Node000001_Node000018" class="edge">
<title>Node1&#45;&gt;Node18</title>
<g id="a_edge18_Node000001_Node000018"><a xlink:title=" ">
<path fill="none" stroke="#63b8ff" d="M105.74,-200.54C127.16,-181.74 175.89,-141.08 223,-116.65 226.42,-114.88 229.99,-113.19 233.64,-111.59"/>
<polygon fill="#63b8ff" stroke="#63b8ff" points="234.73,-114.93 242.66,-107.9 232.08,-108.45 234.73,-114.93"/>
</a>
</g>
</g>
<!-- Node19 -->
<g id="Node000019" class="node">
<title>Node19</title>
<g id="a_Node000019"><a xlink:href="class_big_data_stat_meth_1_1hdf5_dataset.html#a6cbce676967d0cc4b50e2cc5282c322b" target="_top" xlink:title="Get number of rows in internal format.">
<polygon fill="white" stroke="#666666" points="373.25,-57.9 223,-57.9 223,-27.4 373.25,-27.4 373.25,-57.9"/>
<text xml:space="preserve" text-anchor="start" x="231" y="-44.4" font-family="Helvetica,sans-Serif" font-size="10.00">BigDataStatMeth::hdf5Dataset</text>
<text xml:space="preserve" text-anchor="middle" x="298.12" y="-33.15" font-family="Helvetica,sans-Serif" font-size="10.00">::nrows</text>
</a>
</g>
</g>
<!-- Node1&#45;&gt;Node19 -->
<g id="edge19_Node000001_Node000019" class="edge">
<title>Node1&#45;&gt;Node19</title>
<g id="a_edge19_Node000001_Node000019"><a xlink:title=" ">
<path fill="none" stroke="#63b8ff" d="M100.72,-200.74C117.36,-175.01 165.56,-105.45 223,-67.65 225.38,-66.08 227.87,-64.6 230.44,-63.21"/>
<polygon fill="#63b8ff" stroke="#63b8ff" points="231.81,-66.44 239.26,-58.91 228.74,-60.14 231.81,-66.44"/>
</a>
</g>
</g>
<!-- Node20 -->
<g id="Node000020" class="node">
<title>Node20</title>
<g id="a_Node000020"><a xlink:href="class_big_data_stat_meth_1_1hdf5_dataset.html#a23bea87165b8ef6b944709c5b2cbd0cf" target="_top" xlink:title=" ">
<polygon fill="white" stroke="#666666" points="559.5,-62.9 409.25,-62.9 409.25,-32.4 559.5,-32.4 559.5,-62.9"/>
<text xml:space="preserve" text-anchor="start" x="417.25" y="-49.4" font-family="Helvetica,sans-Serif" font-size="10.00">BigDataStatMeth::hdf5Dataset</text>
<text xml:space="preserve" text-anchor="middle" x="484.38" y="-38.15" font-family="Helvetica,sans-Serif" font-size="10.00">::readDatasetBlock</text>
</a>
</g>
</g>
<!-- Node1&#45;&gt;Node20 -->
<g id="edge20_Node000001_Node000020" class="edge">
<title>Node1&#45;&gt;Node20</title>
<g id="a_edge20_Node000001_Node000020"><a xlink:title=" ">
<path fill="none" stroke="#63b8ff" d="M97.48,-200.58C108,-167.09 146.93,-59.27 223,-18.65 291.31,17.83 383.94,-7.05 438.31,-27.8"/>
<polygon fill="#63b8ff" stroke="#63b8ff" points="436.99,-31.04 447.58,-31.45 439.56,-24.53 436.99,-31.04"/>
</a>
</g>
</g>
<!-- Node3 -->
<g id="Node000003" class="node">
<title>Node3</title>
<g id="a_Node000003"><a xlink:href="class_big_data_stat_meth_1_1hdf5_dataset.html#ac7a7f23b7e22c9b56ca6ad86592f2d52" target="_top" xlink:title="Add an attribute to the dataset.">
<polygon fill="white" stroke="#666666" points="559.5,-549.9 409.25,-549.9 409.25,-519.4 559.5,-519.4 559.5,-549.9"/>
<text xml:space="preserve" text-anchor="start" x="417.25" y="-536.4" font-family="Helvetica,sans-Serif" font-size="10.00">BigDataStatMeth::hdf5Dataset</text>
<text xml:space="preserve" text-anchor="middle" x="484.38" y="-525.15" font-family="Helvetica,sans-Serif" font-size="10.00">::addAttribute</text>
</a>
</g>
</g>
<!-- Node2&#45;&gt;Node3 -->
<g id="edge2_Node000002_Node000003" class="edge">
<title>Node2&#45;&gt;Node3</title>
<g id="a_edge2_Node000002_Node000003"><a xlink:title=" ">
<path fill="none" stroke="#63b8ff" d="M309.09,-403.08C326.44,-428.77 364.64,-480.37 409.25,-509.65 411.63,-511.22 414.13,-512.69 416.69,-514.08"/>
<polygon fill="#63b8ff" stroke="#63b8ff" points="415,-517.15 425.52,-518.38 418.06,-510.86 415,-517.15"/>
</a>
</g>
</g>
<!-- Node4 -->
<g id="Node000004" class="node">
<title>Node4</title>
<g id="a_Node000004"><a xlink:href="class_big_data_stat_meth_1_1hdf5_file.html#abfb73b5f1eb25ee00489485c8dc56a2a" target="_top" xlink:title="Close file and cleanup resources.">
<polygon fill="white" stroke="#666666" points="550.12,-500.9 418.62,-500.9 418.62,-470.4 550.12,-470.4 550.12,-500.9"/>
<text xml:space="preserve" text-anchor="start" x="426.62" y="-487.4" font-family="Helvetica,sans-Serif" font-size="10.00">BigDataStatMeth::hdf5File</text>
<text xml:space="preserve" text-anchor="middle" x="484.38" y="-476.15" font-family="Helvetica,sans-Serif" font-size="10.00">::close_file</text>
</a>
</g>
</g>
<!-- Node2&#45;&gt;Node4 -->
<g id="edge3_Node000002_Node000004" class="edge">
<title>Node2&#45;&gt;Node4</title>
<g id="a_edge3_Node000002_Node000004"><a xlink:title=" ">
<path fill="none" stroke="#63b8ff" d="M319.27,-403.34C340.64,-419.42 375.88,-444.31 409.25,-460.65 412.94,-462.46 416.8,-464.19 420.73,-465.84"/>
<polygon fill="#63b8ff" stroke="#63b8ff" points="419.25,-469.01 429.83,-469.43 421.82,-462.5 419.25,-469.01"/>
</a>
</g>
</g>
<!-- Node5 -->
<g id="Node000005" class="node">
<title>Node5</title>
<g id="a_Node000005"><a xlink:href="class_big_data_stat_meth_1_1hdf5_group.html#a27cef4d33e46c72bfd792aa49fa621a3" target="_top" xlink:title="Create multiple nested groups.">
<polygon fill="white" stroke="#666666" points="555.38,-451.9 413.38,-451.9 413.38,-421.4 555.38,-421.4 555.38,-451.9"/>
<text xml:space="preserve" text-anchor="start" x="421.38" y="-438.4" font-family="Helvetica,sans-Serif" font-size="10.00">BigDataStatMeth::hdf5Group</text>
<text xml:space="preserve" text-anchor="middle" x="484.38" y="-427.15" font-family="Helvetica,sans-Serif" font-size="10.00">::create_HDF5_groups</text>
</a>
</g>
</g>
<!-- Node2&#45;&gt;Node5 -->
<g id="edge4_Node000002_Node000005" class="edge">
<title>Node2&#45;&gt;Node5</title>
<g id="a_edge4_Node000002_Node000005"><a xlink:title=" ">
<path fill="none" stroke="#63b8ff" d="M358.18,-403.36C375.7,-408.02 395.06,-413.16 413.22,-417.99"/>
<polygon fill="#63b8ff" stroke="#63b8ff" points="412.31,-421.37 422.87,-420.56 414.11,-414.61 412.31,-421.37"/>
</a>
</g>
</g>
<!-- Node7 -->
<g id="Node000007" class="node">
<title>Node7</title>
<g id="a_Node000007"><a xlink:href="namespace_big_data_stat_meth.html#a89d901ab4b5e01771f4e3fc7dc84e50e" target="_top" xlink:title="Checks if an HDF5 element (group or dataset) exists.">
<polygon fill="white" stroke="#666666" points="546,-402.9 422.75,-402.9 422.75,-372.4 546,-372.4 546,-402.9"/>
<text xml:space="preserve" text-anchor="start" x="430.75" y="-389.4" font-family="Helvetica,sans-Serif" font-size="10.00">BigDataStatMeth::exists</text>
<text xml:space="preserve" text-anchor="middle" x="484.38" y="-378.15" font-family="Helvetica,sans-Serif" font-size="10.00">_HDF5_element</text>
</a>
</g>
</g>
<!-- Node2&#45;&gt;Node7 -->
<g id="edge6_Node000002_Node000007" class="edge">
<title>Node2&#45;&gt;Node7</title>
<g id="a_edge6_Node000002_Node000007"><a xlink:title=" ">
<path fill="none" stroke="#63b8ff" d="M373.54,-387.65C386,-387.65 398.91,-387.65 411.32,-387.65"/>
<polygon fill="#63b8ff" stroke="#63b8ff" points="411.02,-391.15 421.02,-387.65 411.02,-384.15 411.02,-391.15"/>
</a>
</g>
</g>
<!-- Node8 -->
<g id="Node000008" class="node">
<title>Node8</title>
<g id="a_Node000008"><a xlink:href="class_big_data_stat_meth_1_1hdf5_group.html#a59995412538627e6c80f64b552c286f5" target="_top" xlink:title=" ">
<polygon fill="white" stroke="#666666" points="555.38,-353.9 413.38,-353.9 413.38,-323.4 555.38,-323.4 555.38,-353.9"/>
<text xml:space="preserve" text-anchor="start" x="421.38" y="-340.4" font-family="Helvetica,sans-Serif" font-size="10.00">BigDataStatMeth::hdf5Group</text>
<text xml:space="preserve" text-anchor="middle" x="484.38" y="-329.15" font-family="Helvetica,sans-Serif" font-size="10.00">::getGroupName</text>
</a>
</g>
</g>
<!-- Node2&#45;&gt;Node8 -->
<g id="edge8_Node000002_Node000008" class="edge">
<title>Node2&#45;&gt;Node8</title>
<g id="a_edge8_Node000002_Node000008"><a xlink:title=" ">
<path fill="none" stroke="#63b8ff" d="M358.18,-371.94C375.7,-367.28 395.06,-362.14 413.22,-357.31"/>
<polygon fill="#63b8ff" stroke="#63b8ff" points="414.11,-360.69 422.87,-354.74 412.31,-353.93 414.11,-360.69"/>
</a>
</g>
</g>
<!-- Node9 -->
<g id="Node000009" class="node">
<title>Node9</title>
<g id="a_Node000009"><a xlink:href="namespace_big_data_stat_meth.html#a3d06783149029f1df2853c472d401380" target="_top" xlink:title="Removes multiple elements from an HDF5 file.">
<polygon fill="white" stroke="#666666" points="549,-304.9 419.75,-304.9 419.75,-274.4 549,-274.4 549,-304.9"/>
<text xml:space="preserve" text-anchor="start" x="427.75" y="-291.4" font-family="Helvetica,sans-Serif" font-size="10.00">BigDataStatMeth::remove</text>
<text xml:space="preserve" text-anchor="middle" x="484.38" y="-280.15" font-family="Helvetica,sans-Serif" font-size="10.00">_elements</text>
</a>
</g>
</g>
<!-- Node2&#45;&gt;Node9 -->
<g id="edge9_Node000002_Node000009" class="edge">
<title>Node2&#45;&gt;Node9</title>
<g id="a_edge9_Node000002_Node000009"><a xlink:title=" ">
<path fill="none" stroke="#63b8ff" d="M349.6,-371.96C357.89,-368.27 366.1,-363.85 373.25,-358.65 393.68,-343.79 388.47,-329.03 409.25,-314.65 411.34,-313.21 413.51,-311.84 415.76,-310.55"/>
<polygon fill="#63b8ff" stroke="#63b8ff" points="417.28,-313.7 424.59,-306.03 414.1,-307.47 417.28,-313.7"/>
</a>
</g>
</g>
<!-- Node2&#45;&gt;Node10 -->
<g id="edge10_Node000002_Node000010" class="edge">
<title>Node2&#45;&gt;Node10</title>
<g id="a_edge10_Node000002_Node000010"><a xlink:title=" ">
<path fill="none" stroke="#63b8ff" d="M354.53,-372.05C361.4,-368.44 367.89,-364.03 373.25,-358.65 404.53,-327.25 377.23,-296.29 409.25,-265.65 410.3,-264.65 411.39,-263.68 412.52,-262.76"/>
<polygon fill="#63b8ff" stroke="#63b8ff" points="414.27,-265.8 420.53,-257.26 410.3,-260.03 414.27,-265.8"/>
</a>
</g>
</g>
<!-- Node6 -->
<g id="Node000006" class="node">
<title>Node6</title>
<g id="a_Node000006"><a xlink:href="namespace_big_data_stat_meth.html#abcaa4216cd52f03ebac42e4855ef846b" target="_top" xlink:title="Checks if a path exists in an HDF5 file.">
<polygon fill="white" stroke="#666666" points="752.88,-421.28 609.38,-421.28 609.38,-402.03 752.88,-402.03 752.88,-421.28"/>
<text xml:space="preserve" text-anchor="middle" x="681.12" y="-407.78" font-family="Helvetica,sans-Serif" font-size="10.00">BigDataStatMeth::pathExists</text>
</a>
</g>
</g>
<!-- Node5&#45;&gt;Node6 -->
<g id="edge5_Node000005_Node000006" class="edge">
<title>Node5&#45;&gt;Node6</title>
<g id="a_edge5_Node000005_Node000006"><a xlink:title=" ">
<path fill="none" stroke="#63b8ff" d="M555.68,-427.62C569.35,-425.87 583.8,-424.02 597.81,-422.22"/>
<polygon fill="#63b8ff" stroke="#63b8ff" points="597.96,-425.73 607.44,-420.98 597.07,-418.78 597.96,-425.73"/>
</a>
</g>
</g>
<!-- Node7&#45;&gt;Node6 -->
<g id="edge7_Node000007_Node000006" class="edge">
<title>Node7&#45;&gt;Node6</title>
<g id="a_edge7_Node000007_Node000006"><a xlink:title=" ">
<path fill="none" stroke="#63b8ff" d="M546.46,-395.18C562.75,-397.19 580.62,-399.39 597.84,-401.51"/>
<polygon fill="#63b8ff" stroke="#63b8ff" points="597.19,-404.96 607.54,-402.71 598.04,-398.01 597.19,-404.96"/>
</a>
</g>
</g>
<!-- Node11 -->
<g id="Node000011" class="node">
<title>Node11</title>
<g id="a_Node000011"><a xlink:href="class_big_data_stat_meth_1_1hdf5_dataset.html#aba39e56a580d3b1fa7f1619fc72efa3e" target="_top" xlink:title="Close dataset and file.">
<polygon fill="white" stroke="#666666" points="756.25,-158.9 606,-158.9 606,-128.4 756.25,-128.4 756.25,-158.9"/>
<text xml:space="preserve" text-anchor="start" x="614" y="-145.4" font-family="Helvetica,sans-Serif" font-size="10.00">BigDataStatMeth::hdf5Dataset</text>
<text xml:space="preserve" text-anchor="middle" x="681.12" y="-134.15" font-family="Helvetica,sans-Serif" font-size="10.00">::close_dataset_file</text>
</a>
</g>
</g>
<!-- Node10&#45;&gt;Node11 -->
<g id="edge11_Node000010_Node000011" class="edge">
<title>Node10&#45;&gt;Node11</title>
<g id="a_edge11_Node000010_Node000011"><a xlink:title=" ">
<path fill="none" stroke="#63b8ff" d="M516.66,-225.07C549.79,-208.57 602.22,-182.45 638.74,-164.26"/>
<polygon fill="#63b8ff" stroke="#63b8ff" points="639.84,-167.62 647.24,-160.03 636.72,-161.36 639.84,-167.62"/>
</a>
</g>
</g>
<!-- Node12 -->
<g id="Node000012" class="node">
<title>Node12</title>
<g id="a_Node000012"><a xlink:href="class_big_data_stat_meth_1_1hdf5_dataset.html#a94d81b72e92cb0230b4e64f37ea7d2e3" target="_top" xlink:title="Convert DataFrame to range list.">
<polygon fill="white" stroke="#666666" points="766.75,-255.9 595.5,-255.9 595.5,-225.4 766.75,-225.4 766.75,-255.9"/>
<text xml:space="preserve" text-anchor="start" x="603.5" y="-242.4" font-family="Helvetica,sans-Serif" font-size="10.00">BigDataStatMeth::hdf5Dataset</text>
<text xml:space="preserve" text-anchor="middle" x="681.12" y="-231.15" font-family="Helvetica,sans-Serif" font-size="10.00">::convert_DataFrame_to_RangeList</text>
</a>
</g>
</g>
<!-- Node10&#45;&gt;Node12 -->
<g id="edge12_Node000010_Node000012" class="edge">
<title>Node10&#45;&gt;Node12</title>
<g id="a_edge12_Node000010_Node000012"><a xlink:title=" ">
<path fill="none" stroke="#63b8ff" d="M559.84,-240.65C567.72,-240.65 575.81,-240.65 583.9,-240.65"/>
<polygon fill="#63b8ff" stroke="#63b8ff" points="583.78,-244.15 593.78,-240.65 583.78,-237.15 583.78,-244.15"/>
</a>
</g>
</g>
<!-- Node20&#45;&gt;Node11 -->
<g id="edge21_Node000020_Node000011" class="edge">
<title>Node20&#45;&gt;Node11</title>
<g id="a_edge21_Node000020_Node000011"><a xlink:title=" ">
<path fill="none" stroke="#63b8ff" d="M517.1,-63.29C550.06,-79.54 601.81,-105.04 638.14,-122.95"/>
<polygon fill="#63b8ff" stroke="#63b8ff" points="636.54,-126.07 647.06,-127.35 639.64,-119.79 636.54,-126.07"/>
</a>
</g>
</g>
</g>
</svg>

<g id="navigator" transform="translate(0 0)" fill="#404254">
  <rect fill="#f2f5e9" fill-opacity="0.5" stroke="#606060" stroke-width=".5" x="0" y="0" width="60" height="60"/>
  <use id="zoomplus" xlink:href="#zoomPlus" x="17" y="9" onmousedown="handleZoom(evt,'in')"/>
  <use id="zoomminus" xlink:href="#zoomMin" x="42" y="9" onmousedown="handleZoom(evt,'out')"/>
  <use id="reset" xlink:href="#resetDef" x="30" y="36" onmousedown="handleReset()"/>
   <use id="arrowup" xlink:href="#arrowUp" x="0" y="0" onmousedown="handlePan(0,-1)"/>
  <use id="arrowright" xlink:href="#arrowRight" x="0" y="0" onmousedown="handlePan(1,0)"/>
  <use id="arrowdown" xlink:href="#arrowDown" x="0" y="0" onmousedown="handlePan(0,1)"/>
  <use id="arrowleft" xlink:href="#arrowLeft" x="0" y="0" onmousedown="handlePan(-1,0)"/>
</g>
<svg viewBox="0 0 15 15" width="100%" height="30px" preserveAspectRatio="xMaxYMin meet">
 <g id="arrow_out" transform="scale(0.3 0.3)">
  <a xlink:href="namespace_big_data_stat_meth_aa8f71e627a1f440a2d4b225d9d41c8de_cgraph_org.svg" target="_base">
   <rect id="button" ry="5" rx="5" y="6" x="6" height="38" width="38"
        fill="#f2f5e9" fill-opacity="0.5" stroke="#606060" stroke-width="1.0"/>
   <path id="arrow"
     d="M 11.500037,31.436501 C 11.940474,20.09759 22.043105,11.32322 32.158766,21.979434 L 37.068811,17.246167 C 37.068811,17.246167 37.088388,32 37.088388,32 L 22.160133,31.978069 C 22.160133,31.978069 26.997745,27.140456 26.997745,27.140456 C 18.528582,18.264221 13.291696,25.230495 11.500037,31.436501 z"
     style="fill:#404040;"/>
  </a>
 </g>
</svg>

<style type='text/css'>
<![CDATA[
[data-mouse-over-selected='false'] { opacity: 0.7; }
[data-mouse-over-selected='true']  { opacity: 1.0; }
]]>
</style>
<script type="application/ecmascript"><![CDATA[
document.addEventListener('DOMContentLoaded', (event) => {
  highlightEdges();
  highlightAdjacentNodes();
});
]]></script>
</svg>
