<?xml version="1.0" encoding="UTF-8" standalone="no"?>
<!DOCTYPE svg PUBLIC "-//W3C//DTD SVG 1.1//EN"
 "http://www.w3.org/Graphics/SVG/1.1/DTD/svg11.dtd">
<!-- Generated by graphviz version 14.0.0 (20250921.2048)
 -->
<!-- Title: BigDataStatMeth::setDiagonalMatrix Pages: 1 -->
<!--zoomable 174 -->

<svg id="main" version="1.1" xmlns="http://www.w3.org/2000/svg" xmlns:xlink="http://www.w3.org/1999/xlink" xml:space="preserve" onload="init(evt)">

<style type="text/css"><![CDATA[
.node, .edge {opacity: 0.7;}
.node.selected, .edge.selected {opacity: 1;}
.edge:hover path { stroke: red; }
.edge:hover polygon { stroke: red; fill: red; }
]]></style>

<defs>
  <circle id="rim" cx="0" cy="0" r="7"/>
  <circle id="rim2" cx="0" cy="0" r="3.5"/>
  <g id="zoomPlus">
    <use xlink:href="#rim" fill="#404040"><set attributeName="fill" to="#808080" begin="zoomplus.mouseover" end="zoomplus.mouseout"/></use>
    <path d="M-4,0h8M0,-4v8" fill="none" stroke="white" stroke-width="1.5" pointer-events="none"/>
  </g>
  <g id="zoomMin">
    <use xlink:href="#rim" fill="#404040"><set attributeName="fill" to="#808080" begin="zoomminus.mouseover" end="zoomminus.mouseout"/></use>
    <path d="M-4,0h8" fill="none" stroke="white" stroke-width="1.5" pointer-events="none"/>
  </g>
  <g id="arrowUp" transform="translate(30 24)">
    <use xlink:href="#rim"/>
    <path pointer-events="none" fill="none" stroke="white" stroke-width="1.5" d="M0,-3.0v7 M-2.5,-0.5L0,-3.0L2.5,-0.5"/>
  </g>
  <g id="arrowRight" transform="rotate(90) translate(36 -43)">
    <use xlink:href="#rim"/>
    <path pointer-events="none" fill="none" stroke="white" stroke-width="1.5" d="M0,-3.0v7 M-2.5,-0.5L0,-3.0L2.5,-0.5"/>
  </g>
  <g id="arrowDown" transform="rotate(180) translate(-30 -48)">
    <use xlink:href="#rim"/>
    <path pointer-events="none" fill="none" stroke="white" stroke-width="1.5" d="M0,-3.0v7 M-2.5,-0.5L0,-3.0L2.5,-0.5"/>
  </g>
  <g id="arrowLeft" transform="rotate(270) translate(-36 17)">
    <use xlink:href="#rim"/>
    <path pointer-events="none" fill="none" stroke="white" stroke-width="1.5" d="M0,-3.0v7 M-2.5,-0.5L0,-3.0L2.5,-0.5"/>
  </g>
  <g id="resetDef">
    <use xlink:href="#rim2" fill="#404040"><set attributeName="fill" to="#808080" begin="reset.mouseover" end="reset.mouseout"/></use>
  </g>
</defs>
<script type="application/ecmascript">
var viewWidth = 550;
var viewHeight = 174;
var sectionId = 'dynsection-180';
</script>
<script type="application/ecmascript" xlink:href="../../../../assets/svg.min.js"/>
<svg id="graph" class="graph">
<g id="viewport">
<title>BigDataStatMeth::setDiagonalMatrix</title>
<!-- Node1 -->
<g id="Node000001" class="node">
<title>Node1</title>
<g id="a_Node000001"><a xlink:title="Sets the diagonal elements of a matrix stored in HDF5 format.">
<polygon fill="#999999" stroke="#666666" points="148.75,-140.88 0,-140.88 0,-110.38 148.75,-110.38 148.75,-140.88"/>
<text xml:space="preserve" text-anchor="start" x="8" y="-127.38" font-family="Helvetica,sans-Serif" font-size="10.00">BigDataStatMeth::setDiagonal</text>
<text xml:space="preserve" text-anchor="middle" x="74.38" y="-116.12" font-family="Helvetica,sans-Serif" font-size="10.00">Matrix</text>
</a>
</g>
</g>
<!-- Node2 -->
<g id="Node000002" class="node">
<title>Node2</title>
<g id="a_Node000002"><a xlink:href="class_big_data_stat_meth_1_1hdf5_dataset.html#a23bea87165b8ef6b944709c5b2cbd0cf" target="_top" xlink:title=" ">
<polygon fill="white" stroke="#666666" points="335,-165.88 184.75,-165.88 184.75,-135.38 335,-135.38 335,-165.88"/>
<text xml:space="preserve" text-anchor="start" x="192.75" y="-152.38" font-family="Helvetica,sans-Serif" font-size="10.00">BigDataStatMeth::hdf5Dataset</text>
<text xml:space="preserve" text-anchor="middle" x="259.88" y="-141.12" font-family="Helvetica,sans-Serif" font-size="10.00">::readDatasetBlock</text>
</a>
</g>
</g>
<!-- Node1&#45;&gt;Node2 -->
<g id="edge1_Node000001_Node000002" class="edge">
<title>Node1&#45;&gt;Node2</title>
<g id="a_edge1_Node000001_Node000002"><a xlink:title=" ">
<path fill="none" stroke="#63b8ff" d="M149.22,-135.69C157.07,-136.76 165.1,-137.85 173.08,-138.94"/>
<polygon fill="#63b8ff" stroke="#63b8ff" points="172.41,-142.38 182.79,-140.26 173.35,-135.44 172.41,-142.38"/>
</a>
</g>
</g>
<!-- Node4 -->
<g id="Node000004" class="node">
<title>Node4</title>
<g id="a_Node000004"><a xlink:href="class_big_data_stat_meth_1_1hdf5_dataset.html#af606176d84a63561b65702b6fde3a583" target="_top" xlink:title="Write block of data with optional transposition.">
<polygon fill="white" stroke="#666666" points="335,-116.88 184.75,-116.88 184.75,-86.38 335,-86.38 335,-116.88"/>
<text xml:space="preserve" text-anchor="start" x="192.75" y="-103.38" font-family="Helvetica,sans-Serif" font-size="10.00">BigDataStatMeth::hdf5Dataset</text>
<text xml:space="preserve" text-anchor="middle" x="259.88" y="-92.12" font-family="Helvetica,sans-Serif" font-size="10.00">::writeDatasetBlock</text>
</a>
</g>
</g>
<!-- Node1&#45;&gt;Node4 -->
<g id="edge3_Node000001_Node000004" class="edge">
<title>Node1&#45;&gt;Node4</title>
<g id="a_edge3_Node000001_Node000004"><a xlink:title=" ">
<path fill="none" stroke="#63b8ff" d="M149.22,-115.97C157.07,-114.94 165.1,-113.89 173.08,-112.85"/>
<polygon fill="#63b8ff" stroke="#63b8ff" points="173.32,-116.34 182.79,-111.58 172.42,-109.4 173.32,-116.34"/>
</a>
</g>
</g>
<!-- Node3 -->
<g id="Node000003" class="node">
<title>Node3</title>
<g id="a_Node000003"><a xlink:href="class_big_data_stat_meth_1_1hdf5_dataset.html#aba39e56a580d3b1fa7f1619fc72efa3e" target="_top" xlink:title="Close dataset and file.">
<polygon fill="white" stroke="#666666" points="531.75,-165.88 381.5,-165.88 381.5,-135.38 531.75,-135.38 531.75,-165.88"/>
<text xml:space="preserve" text-anchor="start" x="389.5" y="-152.38" font-family="Helvetica,sans-Serif" font-size="10.00">BigDataStatMeth::hdf5Dataset</text>
<text xml:space="preserve" text-anchor="middle" x="456.62" y="-141.12" font-family="Helvetica,sans-Serif" font-size="10.00">::close_dataset_file</text>
</a>
</g>
</g>
<!-- Node2&#45;&gt;Node3 -->
<g id="edge2_Node000002_Node000003" class="edge">
<title>Node2&#45;&gt;Node3</title>
<g id="a_edge2_Node000002_Node000003"><a xlink:title=" ">
<path fill="none" stroke="#63b8ff" d="M335.34,-150.62C346.61,-150.62 358.32,-150.62 369.81,-150.62"/>
<polygon fill="#63b8ff" stroke="#63b8ff" points="369.69,-154.13 379.69,-150.63 369.69,-147.13 369.69,-154.13"/>
</a>
</g>
</g>
<!-- Node4&#45;&gt;Node3 -->
<g id="edge5_Node000004_Node000003" class="edge">
<title>Node4&#45;&gt;Node3</title>
<g id="a_edge5_Node000004_Node000003"><a xlink:title=" ">
<path fill="none" stroke="#63b8ff" d="M323.3,-117.33C342.08,-122.06 362.86,-127.29 382.28,-132.17"/>
<polygon fill="#63b8ff" stroke="#63b8ff" points="381.2,-135.51 391.75,-134.55 382.91,-128.72 381.2,-135.51"/>
</a>
</g>
</g>
<!-- Node5 -->
<g id="Node000005" class="node">
<title>Node5</title>
<g id="a_Node000005"><a xlink:href="class_big_data_stat_meth_1_1hdf5_dataset.html#a64177ae924792ea9e557febaa95ed400" target="_top" xlink:title="Close the dataset.">
<polygon fill="white" stroke="#666666" points="531.75,-116.88 381.5,-116.88 381.5,-86.38 531.75,-86.38 531.75,-116.88"/>
<text xml:space="preserve" text-anchor="start" x="389.5" y="-103.38" font-family="Helvetica,sans-Serif" font-size="10.00">BigDataStatMeth::hdf5Dataset</text>
<text xml:space="preserve" text-anchor="middle" x="456.62" y="-92.12" font-family="Helvetica,sans-Serif" font-size="10.00">::close_dataset</text>
</a>
</g>
</g>
<!-- Node4&#45;&gt;Node5 -->
<g id="edge4_Node000004_Node000005" class="edge">
<title>Node4&#45;&gt;Node5</title>
<g id="a_edge4_Node000004_Node000005"><a xlink:title=" ">
<path fill="none" stroke="#63b8ff" d="M335.34,-101.62C346.61,-101.62 358.32,-101.62 369.81,-101.62"/>
<polygon fill="#63b8ff" stroke="#63b8ff" points="369.69,-105.13 379.69,-101.63 369.69,-98.13 369.69,-105.13"/>
</a>
</g>
</g>
<!-- Node6 -->
<g id="Node000006" class="node">
<title>Node6</title>
<g id="a_Node000006"><a xlink:href="class_big_data_stat_meth_1_1hdf5_dataset.html#a94d81b72e92cb0230b4e64f37ea7d2e3" target="_top" xlink:title="Convert DataFrame to range list.">
<polygon fill="white" stroke="#666666" points="542.25,-67.88 371,-67.88 371,-37.38 542.25,-37.38 542.25,-67.88"/>
<text xml:space="preserve" text-anchor="start" x="379" y="-54.38" font-family="Helvetica,sans-Serif" font-size="10.00">BigDataStatMeth::hdf5Dataset</text>
<text xml:space="preserve" text-anchor="middle" x="456.62" y="-43.12" font-family="Helvetica,sans-Serif" font-size="10.00">::convert_DataFrame_to_RangeList</text>
</a>
</g>
</g>
<!-- Node4&#45;&gt;Node6 -->
<g id="edge6_Node000004_Node000006" class="edge">
<title>Node4&#45;&gt;Node6</title>
<g id="a_edge6_Node000004_Node000006"><a xlink:title=" ">
<path fill="none" stroke="#63b8ff" d="M323.3,-85.92C342.08,-81.19 362.86,-75.96 382.28,-71.08"/>
<polygon fill="#63b8ff" stroke="#63b8ff" points="382.91,-74.53 391.75,-68.7 381.2,-67.74 382.91,-74.53"/>
</a>
</g>
</g>
<!-- Node7 -->
<g id="Node000007" class="node">
<title>Node7</title>
<g id="a_Node000007"><a xlink:href="namespace_big_data_stat_meth.html#a2692707b3ea4aaafa09d07afaf632437" target="_top" xlink:title="Transposes a 2D matrix.">
<polygon fill="white" stroke="#666666" points="526.5,-19.25 386.75,-19.25 386.75,0 526.5,0 526.5,-19.25"/>
<text xml:space="preserve" text-anchor="middle" x="456.62" y="-5.75" font-family="Helvetica,sans-Serif" font-size="10.00">BigDataStatMeth::transpose</text>
</a>
</g>
</g>
<!-- Node4&#45;&gt;Node7 -->
<g id="edge7_Node000004_Node000007" class="edge">
<title>Node4&#45;&gt;Node7</title>
<g id="a_edge7_Node000004_Node000007"><a xlink:title=" ">
<path fill="none" stroke="#63b8ff" d="M279.53,-86.14C300.5,-69.51 336.19,-43.47 371,-28.62 376.15,-26.43 381.59,-24.47 387.12,-22.73"/>
<polygon fill="#63b8ff" stroke="#63b8ff" points="387.74,-26.19 396.38,-20.05 385.8,-19.47 387.74,-26.19"/>
</a>
</g>
</g>
</g>
</svg>

<g id="navigator" transform="translate(0 0)" fill="#404254">
  <rect fill="#f2f5e9" fill-opacity="0.5" stroke="#606060" stroke-width=".5" x="0" y="0" width="60" height="60"/>
  <use id="zoomplus" xlink:href="#zoomPlus" x="17" y="9" onmousedown="handleZoom(evt,'in')"/>
  <use id="zoomminus" xlink:href="#zoomMin" x="42" y="9" onmousedown="handleZoom(evt,'out')"/>
  <use id="reset" xlink:href="#resetDef" x="30" y="36" onmousedown="handleReset()"/>
   <use id="arrowup" xlink:href="#arrowUp" x="0" y="0" onmousedown="handlePan(0,-1)"/>
  <use id="arrowright" xlink:href="#arrowRight" x="0" y="0" onmousedown="handlePan(1,0)"/>
  <use id="arrowdown" xlink:href="#arrowDown" x="0" y="0" onmousedown="handlePan(0,1)"/>
  <use id="arrowleft" xlink:href="#arrowLeft" x="0" y="0" onmousedown="handlePan(-1,0)"/>
</g>
<svg viewBox="0 0 15 15" width="100%" height="30px" preserveAspectRatio="xMaxYMin meet">
 <g id="arrow_out" transform="scale(0.3 0.3)">
  <a xlink:href="namespace_big_data_stat_meth_ab5429d9d25ff38d72d77e6dca59947b0_cgraph_org.svg" target="_base">
   <rect id="button" ry="5" rx="5" y="6" x="6" height="38" width="38"
        fill="#f2f5e9" fill-opacity="0.5" stroke="#606060" stroke-width="1.0"/>
   <path id="arrow"
     d="M 11.500037,31.436501 C 11.940474,20.09759 22.043105,11.32322 32.158766,21.979434 L 37.068811,17.246167 C 37.068811,17.246167 37.088388,32 37.088388,32 L 22.160133,31.978069 C 22.160133,31.978069 26.997745,27.140456 26.997745,27.140456 C 18.528582,18.264221 13.291696,25.230495 11.500037,31.436501 z"
     style="fill:#404040;"/>
  </a>
 </g>
</svg>

<style type='text/css'>
<![CDATA[
[data-mouse-over-selected='false'] { opacity: 0.7; }
[data-mouse-over-selected='true']  { opacity: 1.0; }
]]>
</style>
<script type="application/ecmascript"><![CDATA[
document.addEventListener('DOMContentLoaded', (event) => {
  highlightEdges();
  highlightAdjacentNodes();
});
]]></script>
</svg>
