<?xml version="1.0" encoding="UTF-8" standalone="no"?>
<!DOCTYPE svg PUBLIC "-//W3C//DTD SVG 1.1//EN"
 "http://www.w3.org/Graphics/SVG/1.1/DTD/svg11.dtd">
<!-- Generated by graphviz version 14.0.0 (20250921.2048)
 -->
<!-- Title: BigDataStatMeth::RcppBind_datasets_hdf5 Pages: 1 -->
<!--zoomable 558 -->

<svg id="main" version="1.1" xmlns="http://www.w3.org/2000/svg" xmlns:xlink="http://www.w3.org/1999/xlink" xml:space="preserve" onload="init(evt)">

<style type="text/css"><![CDATA[
.node, .edge {opacity: 0.7;}
.node.selected, .edge.selected {opacity: 1;}
.edge:hover path { stroke: red; }
.edge:hover polygon { stroke: red; fill: red; }
]]></style>

<defs>
  <circle id="rim" cx="0" cy="0" r="7"/>
  <circle id="rim2" cx="0" cy="0" r="3.5"/>
  <g id="zoomPlus">
    <use xlink:href="#rim" fill="#404040"><set attributeName="fill" to="#808080" begin="zoomplus.mouseover" end="zoomplus.mouseout"/></use>
    <path d="M-4,0h8M0,-4v8" fill="none" stroke="white" stroke-width="1.5" pointer-events="none"/>
  </g>
  <g id="zoomMin">
    <use xlink:href="#rim" fill="#404040"><set attributeName="fill" to="#808080" begin="zoomminus.mouseover" end="zoomminus.mouseout"/></use>
    <path d="M-4,0h8" fill="none" stroke="white" stroke-width="1.5" pointer-events="none"/>
  </g>
  <g id="arrowUp" transform="translate(30 24)">
    <use xlink:href="#rim"/>
    <path pointer-events="none" fill="none" stroke="white" stroke-width="1.5" d="M0,-3.0v7 M-2.5,-0.5L0,-3.0L2.5,-0.5"/>
  </g>
  <g id="arrowRight" transform="rotate(90) translate(36 -43)">
    <use xlink:href="#rim"/>
    <path pointer-events="none" fill="none" stroke="white" stroke-width="1.5" d="M0,-3.0v7 M-2.5,-0.5L0,-3.0L2.5,-0.5"/>
  </g>
  <g id="arrowDown" transform="rotate(180) translate(-30 -48)">
    <use xlink:href="#rim"/>
    <path pointer-events="none" fill="none" stroke="white" stroke-width="1.5" d="M0,-3.0v7 M-2.5,-0.5L0,-3.0L2.5,-0.5"/>
  </g>
  <g id="arrowLeft" transform="rotate(270) translate(-36 17)">
    <use xlink:href="#rim"/>
    <path pointer-events="none" fill="none" stroke="white" stroke-width="1.5" d="M0,-3.0v7 M-2.5,-0.5L0,-3.0L2.5,-0.5"/>
  </g>
  <g id="resetDef">
    <use xlink:href="#rim2" fill="#404040"><set attributeName="fill" to="#808080" begin="reset.mouseover" end="reset.mouseout"/></use>
  </g>
</defs>
<script type="application/ecmascript">
var viewWidth = 1083;
var viewHeight = 558;
var sectionId = 'dynsection-174';
</script>
<script type="application/ecmascript" xlink:href="../../../../assets/svg.min.js"/>
<svg id="graph" class="graph">
<g id="viewport">
<title>BigDataStatMeth::RcppBind_datasets_hdf5</title>
<!-- Node1 -->
<g id="Node000001" class="node">
<title>Node1</title>
<g id="a_Node000001"><a xlink:title="High&#45;level interface for binding HDF5 datasets.">
<polygon fill="#999999" stroke="#666666" points="139.75,-247.5 0,-247.5 0,-217 139.75,-217 139.75,-247.5"/>
<text xml:space="preserve" text-anchor="start" x="8" y="-234" font-family="Helvetica,sans-Serif" font-size="10.00">BigDataStatMeth::RcppBind</text>
<text xml:space="preserve" text-anchor="middle" x="69.88" y="-222.75" font-family="Helvetica,sans-Serif" font-size="10.00">_datasets_hdf5</text>
</a>
</g>
</g>
<!-- Node2 -->
<g id="Node000002" class="node">
<title>Node2</title>
<g id="a_Node000002"><a xlink:href="namespace_big_data_stat_meth.html#ad802cb8b34efe38289c580d5c7042289" target="_top" xlink:title="Binds multiple HDF5 datasets together.">
<polygon fill="white" stroke="#666666" points="315.5,-247.5 175.75,-247.5 175.75,-217 315.5,-217 315.5,-247.5"/>
<text xml:space="preserve" text-anchor="start" x="183.75" y="-234" font-family="Helvetica,sans-Serif" font-size="10.00">BigDataStatMeth::RcppBind</text>
<text xml:space="preserve" text-anchor="middle" x="245.62" y="-222.75" font-family="Helvetica,sans-Serif" font-size="10.00">_datasets_hdf5</text>
</a>
</g>
</g>
<!-- Node1&#45;&gt;Node2 -->
<g id="edge1_Node000001_Node000002" class="edge">
<title>Node1&#45;&gt;Node2</title>
<g id="a_edge1_Node000001_Node000002"><a xlink:title=" ">
<path fill="none" stroke="#63b8ff" d="M140.04,-232.25C147.96,-232.25 156.07,-232.25 164.12,-232.25"/>
<polygon fill="#63b8ff" stroke="#63b8ff" points="163.9,-235.75 173.9,-232.25 163.9,-228.75 163.9,-235.75"/>
</a>
</g>
</g>
<!-- Node3 -->
<g id="Node000003" class="node">
<title>Node3</title>
<g id="a_Node000003"><a xlink:href="class_big_data_stat_meth_1_1hdf5_dataset.html#a27b2a71abcad756b7031b02c92130536" target="_top" xlink:title="Create an unlimited dataset with optional compression.">
<polygon fill="white" stroke="#666666" points="501.75,-438.5 351.5,-438.5 351.5,-408 501.75,-408 501.75,-438.5"/>
<text xml:space="preserve" text-anchor="start" x="359.5" y="-425" font-family="Helvetica,sans-Serif" font-size="10.00">BigDataStatMeth::hdf5Dataset</text>
<text xml:space="preserve" text-anchor="middle" x="426.62" y="-413.75" font-family="Helvetica,sans-Serif" font-size="10.00">::createUnlimitedDataset</text>
</a>
</g>
</g>
<!-- Node2&#45;&gt;Node3 -->
<g id="edge2_Node000002_Node000003" class="edge">
<title>Node2&#45;&gt;Node3</title>
<g id="a_edge2_Node000002_Node000003"><a xlink:title=" ">
<path fill="none" stroke="#63b8ff" d="M261.27,-247.88C292.56,-281.26 366.06,-359.7 403.25,-399.37"/>
<polygon fill="#63b8ff" stroke="#63b8ff" points="400.6,-401.66 409.99,-406.57 405.71,-396.88 400.6,-401.66"/>
</a>
</g>
</g>
<!-- Node10 -->
<g id="Node000010" class="node">
<title>Node10</title>
<g id="a_Node000010"><a xlink:href="class_big_data_stat_meth_1_1hdf5_dataset.html#a5235fb1fb8b567325b1405bcef9f061d" target="_top" xlink:title="Extend an unlimited dataset.">
<polygon fill="white" stroke="#666666" points="501.75,-198.5 351.5,-198.5 351.5,-168 501.75,-168 501.75,-198.5"/>
<text xml:space="preserve" text-anchor="start" x="359.5" y="-185" font-family="Helvetica,sans-Serif" font-size="10.00">BigDataStatMeth::hdf5Dataset</text>
<text xml:space="preserve" text-anchor="middle" x="426.62" y="-173.75" font-family="Helvetica,sans-Serif" font-size="10.00">::extendUnlimitedDataset</text>
</a>
</g>
</g>
<!-- Node2&#45;&gt;Node10 -->
<g id="edge10_Node000002_Node000010" class="edge">
<title>Node2&#45;&gt;Node10</title>
<g id="a_edge10_Node000002_Node000010"><a xlink:title=" ">
<path fill="none" stroke="#63b8ff" d="M303.75,-216.61C320.7,-211.97 339.45,-206.84 357.04,-202.02"/>
<polygon fill="#63b8ff" stroke="#63b8ff" points="357.94,-205.41 366.66,-199.39 356.09,-198.66 357.94,-205.41"/>
</a>
</g>
</g>
<!-- Node12 -->
<g id="Node000012" class="node">
<title>Node12</title>
<g id="a_Node000012"><a xlink:href="class_big_data_stat_meth_1_1hdf5_dataset.html#a8cce59e2884ad1ee3b67f281566780af" target="_top" xlink:title="Inherit the compression level from an input dataset if not already set.">
<polygon fill="white" stroke="#666666" points="501.75,-247.5 351.5,-247.5 351.5,-217 501.75,-217 501.75,-247.5"/>
<text xml:space="preserve" text-anchor="start" x="359.5" y="-234" font-family="Helvetica,sans-Serif" font-size="10.00">BigDataStatMeth::hdf5Dataset</text>
<text xml:space="preserve" text-anchor="middle" x="426.62" y="-222.75" font-family="Helvetica,sans-Serif" font-size="10.00">::inheritCompressionLevel</text>
</a>
</g>
</g>
<!-- Node2&#45;&gt;Node12 -->
<g id="edge12_Node000002_Node000012" class="edge">
<title>Node2&#45;&gt;Node12</title>
<g id="a_edge12_Node000002_Node000012"><a xlink:title=" ">
<path fill="none" stroke="#63b8ff" d="M315.83,-232.25C323.72,-232.25 331.83,-232.25 339.91,-232.25"/>
<polygon fill="#63b8ff" stroke="#63b8ff" points="339.75,-235.75 349.75,-232.25 339.75,-228.75 339.75,-235.75"/>
</a>
</g>
</g>
<!-- Node13 -->
<g id="Node000013" class="node">
<title>Node13</title>
<g id="a_Node000013"><a xlink:href="class_big_data_stat_meth_1_1hdf5_dataset.html#ab57cadee5e43a496eb32dbf12d603d76" target="_top" xlink:title=" ">
<polygon fill="white" stroke="#666666" points="501.75,-296.5 351.5,-296.5 351.5,-266 501.75,-266 501.75,-296.5"/>
<text xml:space="preserve" text-anchor="start" x="359.5" y="-283" font-family="Helvetica,sans-Serif" font-size="10.00">BigDataStatMeth::hdf5Dataset</text>
<text xml:space="preserve" text-anchor="middle" x="426.62" y="-271.75" font-family="Helvetica,sans-Serif" font-size="10.00">::openDataset</text>
</a>
</g>
</g>
<!-- Node2&#45;&gt;Node13 -->
<g id="edge13_Node000002_Node000013" class="edge">
<title>Node2&#45;&gt;Node13</title>
<g id="a_edge13_Node000002_Node000013"><a xlink:title=" ">
<path fill="none" stroke="#63b8ff" d="M303.75,-247.89C320.7,-252.53 339.45,-257.66 357.04,-262.48"/>
<polygon fill="#63b8ff" stroke="#63b8ff" points="356.09,-265.84 366.66,-265.11 357.94,-259.09 356.09,-265.84"/>
</a>
</g>
</g>
<!-- Node16 -->
<g id="Node000016" class="node">
<title>Node16</title>
<g id="a_Node000016"><a xlink:href="class_big_data_stat_meth_1_1hdf5_dataset.html#af606176d84a63561b65702b6fde3a583" target="_top" xlink:title="Write block of data with optional transposition.">
<polygon fill="white" stroke="#666666" points="501.75,-122.5 351.5,-122.5 351.5,-92 501.75,-92 501.75,-122.5"/>
<text xml:space="preserve" text-anchor="start" x="359.5" y="-109" font-family="Helvetica,sans-Serif" font-size="10.00">BigDataStatMeth::hdf5Dataset</text>
<text xml:space="preserve" text-anchor="middle" x="426.62" y="-97.75" font-family="Helvetica,sans-Serif" font-size="10.00">::writeDatasetBlock</text>
</a>
</g>
</g>
<!-- Node2&#45;&gt;Node16 -->
<g id="edge20_Node000002_Node000016" class="edge">
<title>Node2&#45;&gt;Node16</title>
<g id="a_edge20_Node000002_Node000016"><a xlink:title=" ">
<path fill="none" stroke="#63b8ff" d="M268.93,-216.67C300.51,-194.62 358.37,-154.22 394.26,-129.15"/>
<polygon fill="#63b8ff" stroke="#63b8ff" points="395.88,-132.29 402.08,-123.69 391.87,-126.55 395.88,-132.29"/>
</a>
</g>
</g>
<!-- Node4 -->
<g id="Node000004" class="node">
<title>Node4</title>
<g id="a_Node000004"><a xlink:href="class_big_data_stat_meth_1_1hdf5_dataset.html#ac7a7f23b7e22c9b56ca6ad86592f2d52" target="_top" xlink:title="Add an attribute to the dataset.">
<polygon fill="white" stroke="#666666" points="698.5,-500.5 548.25,-500.5 548.25,-470 698.5,-470 698.5,-500.5"/>
<text xml:space="preserve" text-anchor="start" x="556.25" y="-487" font-family="Helvetica,sans-Serif" font-size="10.00">BigDataStatMeth::hdf5Dataset</text>
<text xml:space="preserve" text-anchor="middle" x="623.38" y="-475.75" font-family="Helvetica,sans-Serif" font-size="10.00">::addAttribute</text>
</a>
</g>
</g>
<!-- Node3&#45;&gt;Node4 -->
<g id="edge3_Node000003_Node000004" class="edge">
<title>Node3&#45;&gt;Node4</title>
<g id="a_edge3_Node000003_Node000004"><a xlink:title=" ">
<path fill="none" stroke="#63b8ff" d="M477.02,-438.98C502.99,-447.24 535.02,-457.44 562.4,-466.16"/>
<polygon fill="#63b8ff" stroke="#63b8ff" points="561,-469.38 571.59,-469.08 563.12,-462.71 561,-469.38"/>
</a>
</g>
</g>
<!-- Node5 -->
<g id="Node000005" class="node">
<title>Node5</title>
<g id="a_Node000005"><a xlink:href="class_big_data_stat_meth_1_1hdf5_file.html#abfb73b5f1eb25ee00489485c8dc56a2a" target="_top" xlink:title="Close file and cleanup resources.">
<polygon fill="white" stroke="#666666" points="689.12,-376.5 557.62,-376.5 557.62,-346 689.12,-346 689.12,-376.5"/>
<text xml:space="preserve" text-anchor="start" x="565.62" y="-363" font-family="Helvetica,sans-Serif" font-size="10.00">BigDataStatMeth::hdf5File</text>
<text xml:space="preserve" text-anchor="middle" x="623.38" y="-351.75" font-family="Helvetica,sans-Serif" font-size="10.00">::close_file</text>
</a>
</g>
</g>
<!-- Node3&#45;&gt;Node5 -->
<g id="edge4_Node000003_Node000005" class="edge">
<title>Node3&#45;&gt;Node5</title>
<g id="a_edge4_Node000003_Node000005"><a xlink:title=" ">
<path fill="none" stroke="#63b8ff" d="M477.02,-407.52C502.99,-399.26 535.02,-389.06 562.4,-380.34"/>
<polygon fill="#63b8ff" stroke="#63b8ff" points="563.12,-383.79 571.59,-377.42 561,-377.12 563.12,-383.79"/>
</a>
</g>
</g>
<!-- Node6 -->
<g id="Node000006" class="node">
<title>Node6</title>
<g id="a_Node000006"><a xlink:href="class_big_data_stat_meth_1_1hdf5_group.html#a27cef4d33e46c72bfd792aa49fa621a3" target="_top" xlink:title="Create multiple nested groups.">
<polygon fill="white" stroke="#666666" points="891.12,-438.5 749.12,-438.5 749.12,-408 891.12,-408 891.12,-438.5"/>
<text xml:space="preserve" text-anchor="start" x="757.12" y="-425" font-family="Helvetica,sans-Serif" font-size="10.00">BigDataStatMeth::hdf5Group</text>
<text xml:space="preserve" text-anchor="middle" x="820.12" y="-413.75" font-family="Helvetica,sans-Serif" font-size="10.00">::create_HDF5_groups</text>
</a>
</g>
</g>
<!-- Node3&#45;&gt;Node6 -->
<g id="edge5_Node000003_Node000006" class="edge">
<title>Node3&#45;&gt;Node6</title>
<g id="a_edge5_Node000003_Node000006"><a xlink:title=" ">
<path fill="none" stroke="#63b8ff" d="M502.18,-423.25C569.43,-423.25 668.15,-423.25 737.5,-423.25"/>
<polygon fill="#63b8ff" stroke="#63b8ff" points="737.28,-426.75 747.28,-423.25 737.28,-419.75 737.28,-426.75"/>
</a>
</g>
</g>
<!-- Node8 -->
<g id="Node000008" class="node">
<title>Node8</title>
<g id="a_Node000008"><a xlink:href="namespace_big_data_stat_meth.html#a89d901ab4b5e01771f4e3fc7dc84e50e" target="_top" xlink:title="Checks if an HDF5 element (group or dataset) exists.">
<polygon fill="white" stroke="#666666" points="881.75,-352.5 758.5,-352.5 758.5,-322 881.75,-322 881.75,-352.5"/>
<text xml:space="preserve" text-anchor="start" x="766.5" y="-339" font-family="Helvetica,sans-Serif" font-size="10.00">BigDataStatMeth::exists</text>
<text xml:space="preserve" text-anchor="middle" x="820.12" y="-327.75" font-family="Helvetica,sans-Serif" font-size="10.00">_HDF5_element</text>
</a>
</g>
</g>
<!-- Node3&#45;&gt;Node8 -->
<g id="edge7_Node000003_Node000008" class="edge">
<title>Node3&#45;&gt;Node8</title>
<g id="a_edge7_Node000003_Node000008"><a xlink:title=" ">
<path fill="none" stroke="#63b8ff" d="M502.22,-418.82C559.6,-414.06 640.4,-404.43 709,-385.25 733.12,-378.51 758.84,-367.53 779.35,-357.77"/>
<polygon fill="#63b8ff" stroke="#63b8ff" points="780.74,-360.99 788.21,-353.47 777.68,-354.69 780.74,-360.99"/>
</a>
</g>
</g>
<!-- Node9 -->
<g id="Node000009" class="node">
<title>Node9</title>
<g id="a_Node000009"><a xlink:href="namespace_big_data_stat_meth.html#a3d06783149029f1df2853c472d401380" target="_top" xlink:title="Removes multiple elements from an HDF5 file.">
<polygon fill="white" stroke="#666666" points="688,-549.5 558.75,-549.5 558.75,-519 688,-519 688,-549.5"/>
<text xml:space="preserve" text-anchor="start" x="566.75" y="-536" font-family="Helvetica,sans-Serif" font-size="10.00">BigDataStatMeth::remove</text>
<text xml:space="preserve" text-anchor="middle" x="623.38" y="-524.75" font-family="Helvetica,sans-Serif" font-size="10.00">_elements</text>
</a>
</g>
</g>
<!-- Node3&#45;&gt;Node9 -->
<g id="edge9_Node000003_Node000009" class="edge">
<title>Node3&#45;&gt;Node9</title>
<g id="a_edge9_Node000003_Node000009"><a xlink:title=" ">
<path fill="none" stroke="#63b8ff" d="M443.43,-438.79C463.69,-457.9 500.65,-490.16 537.75,-509.25 541.37,-511.11 545.15,-512.86 549.01,-514.49"/>
<polygon fill="#63b8ff" stroke="#63b8ff" points="547.41,-517.62 558,-517.99 549.95,-511.1 547.41,-517.62"/>
</a>
</g>
</g>
<!-- Node7 -->
<g id="Node000007" class="node">
<title>Node7</title>
<g id="a_Node000007"><a xlink:href="namespace_big_data_stat_meth.html#abcaa4216cd52f03ebac42e4855ef846b" target="_top" xlink:title="Checks if a path exists in an HDF5 file.">
<polygon fill="white" stroke="#666666" points="1074.75,-389.88 931.25,-389.88 931.25,-370.62 1074.75,-370.62 1074.75,-389.88"/>
<text xml:space="preserve" text-anchor="middle" x="1003" y="-376.38" font-family="Helvetica,sans-Serif" font-size="10.00">BigDataStatMeth::pathExists</text>
</a>
</g>
</g>
<!-- Node6&#45;&gt;Node7 -->
<g id="edge6_Node000006_Node000007" class="edge">
<title>Node6&#45;&gt;Node7</title>
<g id="a_edge6_Node000006_Node000007"><a xlink:title=" ">
<path fill="none" stroke="#63b8ff" d="M887.19,-407.54C907.35,-402.75 929.26,-397.54 948.48,-392.97"/>
<polygon fill="#63b8ff" stroke="#63b8ff" points="949.07,-396.43 957.99,-390.71 947.45,-389.62 949.07,-396.43"/>
</a>
</g>
</g>
<!-- Node8&#45;&gt;Node7 -->
<g id="edge8_Node000008_Node000007" class="edge">
<title>Node8&#45;&gt;Node7</title>
<g id="a_edge8_Node000008_Node000007"><a xlink:title=" ">
<path fill="none" stroke="#63b8ff" d="M882.11,-351.75C903.67,-356.87 927.74,-362.59 948.62,-367.56"/>
<polygon fill="#63b8ff" stroke="#63b8ff" points="947.52,-370.9 958.06,-369.8 949.14,-364.09 947.52,-370.9"/>
</a>
</g>
</g>
<!-- Node11 -->
<g id="Node000011" class="node">
<title>Node11</title>
<g id="a_Node000011"><a xlink:href="class_big_data_stat_meth_1_1hdf5_dataset.html#aba39e56a580d3b1fa7f1619fc72efa3e" target="_top" xlink:title="Close dataset and file.">
<polygon fill="white" stroke="#666666" points="895.25,-198.5 745,-198.5 745,-168 895.25,-168 895.25,-198.5"/>
<text xml:space="preserve" text-anchor="start" x="753" y="-185" font-family="Helvetica,sans-Serif" font-size="10.00">BigDataStatMeth::hdf5Dataset</text>
<text xml:space="preserve" text-anchor="middle" x="820.12" y="-173.75" font-family="Helvetica,sans-Serif" font-size="10.00">::close_dataset_file</text>
</a>
</g>
</g>
<!-- Node10&#45;&gt;Node11 -->
<g id="edge11_Node000010_Node000011" class="edge">
<title>Node10&#45;&gt;Node11</title>
<g id="a_edge11_Node000010_Node000011"><a xlink:title=" ">
<path fill="none" stroke="#63b8ff" d="M502.18,-183.25C568.07,-183.25 664.15,-183.25 733.23,-183.25"/>
<polygon fill="#63b8ff" stroke="#63b8ff" points="733,-186.75 743,-183.25 733,-179.75 733,-186.75"/>
</a>
</g>
</g>
<!-- Node13&#45;&gt;Node5 -->
<g id="edge14_Node000013_Node000005" class="edge">
<title>Node13&#45;&gt;Node5</title>
<g id="a_edge14_Node000013_Node000005"><a xlink:title=" ">
<path fill="none" stroke="#63b8ff" d="M459.05,-296.86C480.88,-307.44 510.77,-321.41 537.75,-332.25 545.86,-335.51 554.49,-338.73 563.02,-341.78"/>
<polygon fill="#63b8ff" stroke="#63b8ff" points="561.7,-345.03 572.3,-345.04 564.02,-338.42 561.7,-345.03"/>
</a>
</g>
</g>
<!-- Node13&#45;&gt;Node8 -->
<g id="edge15_Node000013_Node000008" class="edge">
<title>Node13&#45;&gt;Node8</title>
<g id="a_edge15_Node000013_Node000008"><a xlink:title=" ">
<path fill="none" stroke="#63b8ff" d="M502.22,-293.73C514.1,-295.63 526.25,-297.53 537.75,-299.25 608.68,-309.83 689.86,-320.66 746.73,-328.04"/>
<polygon fill="#63b8ff" stroke="#63b8ff" points="746.26,-331.5 756.63,-329.32 747.16,-324.56 746.26,-331.5"/>
</a>
</g>
</g>
<!-- Node14 -->
<g id="Node000014" class="node">
<title>Node14</title>
<g id="a_Node000014"><a xlink:href="class_big_data_stat_meth_1_1hdf5_dataset.html#a1ebc27e1f730bc4e611b844dbbb08e34" target="_top" xlink:title="Get an attribute from the dataset.">
<polygon fill="white" stroke="#666666" points="698.5,-290.5 548.25,-290.5 548.25,-260 698.5,-260 698.5,-290.5"/>
<text xml:space="preserve" text-anchor="start" x="556.25" y="-277" font-family="Helvetica,sans-Serif" font-size="10.00">BigDataStatMeth::hdf5Dataset</text>
<text xml:space="preserve" text-anchor="middle" x="623.38" y="-265.75" font-family="Helvetica,sans-Serif" font-size="10.00">::getAttribute</text>
</a>
</g>
</g>
<!-- Node13&#45;&gt;Node14 -->
<g id="edge16_Node000013_Node000014" class="edge">
<title>Node13&#45;&gt;Node14</title>
<g id="a_edge16_Node000013_Node000014"><a xlink:title=" ">
<path fill="none" stroke="#63b8ff" d="M502.09,-278.96C513.36,-278.61 525.07,-278.25 536.56,-277.89"/>
<polygon fill="#63b8ff" stroke="#63b8ff" points="536.56,-281.4 546.44,-277.59 536.34,-274.4 536.56,-281.4"/>
</a>
</g>
</g>
<!-- Node15 -->
<g id="Node000015" class="node">
<title>Node15</title>
<g id="a_Node000015"><a xlink:href="class_big_data_stat_meth_1_1hdf5_dataset.html#a945dd1d6f3db102a962d239045792f61" target="_top" xlink:title="Get dimensions of existing dataset.">
<polygon fill="white" stroke="#666666" points="698.5,-241.5 548.25,-241.5 548.25,-211 698.5,-211 698.5,-241.5"/>
<text xml:space="preserve" text-anchor="start" x="556.25" y="-228" font-family="Helvetica,sans-Serif" font-size="10.00">BigDataStatMeth::hdf5Dataset</text>
<text xml:space="preserve" text-anchor="middle" x="623.38" y="-216.75" font-family="Helvetica,sans-Serif" font-size="10.00">::getDimensExistingDataset</text>
</a>
</g>
</g>
<!-- Node13&#45;&gt;Node15 -->
<g id="edge19_Node000013_Node000015" class="edge">
<title>Node13&#45;&gt;Node15</title>
<g id="a_edge19_Node000013_Node000015"><a xlink:title=" ">
<path fill="none" stroke="#63b8ff" d="M483.17,-265.56C505.79,-259.18 532.12,-251.74 555.75,-245.07"/>
<polygon fill="#63b8ff" stroke="#63b8ff" points="556.63,-248.46 565.3,-242.37 554.72,-241.72 556.63,-248.46"/>
</a>
</g>
</g>
<!-- Node14&#45;&gt;Node8 -->
<g id="edge18_Node000014_Node000008" class="edge">
<title>Node14&#45;&gt;Node8</title>
<g id="a_edge18_Node000014_Node000008"><a xlink:title=" ">
<path fill="none" stroke="#63b8ff" d="M673.77,-290.98C699.74,-299.24 731.77,-309.44 759.15,-318.16"/>
<polygon fill="#63b8ff" stroke="#63b8ff" points="757.75,-321.38 768.34,-321.08 759.87,-314.71 757.75,-321.38"/>
</a>
</g>
</g>
<!-- Node14&#45;&gt;Node11 -->
<g id="edge17_Node000014_Node000011" class="edge">
<title>Node14&#45;&gt;Node11</title>
<g id="a_edge17_Node000014_Node000011"><a xlink:title=" ">
<path fill="none" stroke="#63b8ff" d="M684.71,-259.53C693,-256.76 701.3,-253.66 709,-250.25 737.04,-237.83 766.61,-219.52 788.04,-205.17"/>
<polygon fill="#63b8ff" stroke="#63b8ff" points="789.72,-208.26 796.03,-199.74 785.79,-202.47 789.72,-208.26"/>
</a>
</g>
</g>
<!-- Node16&#45;&gt;Node11 -->
<g id="edge22_Node000016_Node000011" class="edge">
<title>Node16&#45;&gt;Node11</title>
<g id="a_edge22_Node000016_Node000011"><a xlink:title=" ">
<path fill="none" stroke="#63b8ff" d="M502.18,-121.72C568.07,-134.51 664.15,-153.17 733.23,-166.58"/>
<polygon fill="#63b8ff" stroke="#63b8ff" points="732.54,-170.01 743.02,-168.48 733.87,-163.14 732.54,-170.01"/>
</a>
</g>
</g>
<!-- Node17 -->
<g id="Node000017" class="node">
<title>Node17</title>
<g id="a_Node000017"><a xlink:href="class_big_data_stat_meth_1_1hdf5_dataset.html#a64177ae924792ea9e557febaa95ed400" target="_top" xlink:title="Close the dataset.">
<polygon fill="white" stroke="#666666" points="698.5,-79.5 548.25,-79.5 548.25,-49 698.5,-49 698.5,-79.5"/>
<text xml:space="preserve" text-anchor="start" x="556.25" y="-66" font-family="Helvetica,sans-Serif" font-size="10.00">BigDataStatMeth::hdf5Dataset</text>
<text xml:space="preserve" text-anchor="middle" x="623.38" y="-54.75" font-family="Helvetica,sans-Serif" font-size="10.00">::close_dataset</text>
</a>
</g>
</g>
<!-- Node16&#45;&gt;Node17 -->
<g id="edge21_Node000016_Node000017" class="edge">
<title>Node16&#45;&gt;Node17</title>
<g id="a_edge21_Node000016_Node000017"><a xlink:title=" ">
<path fill="none" stroke="#63b8ff" d="M498.76,-91.54C512.22,-88.57 526.41,-85.44 540.17,-82.4"/>
<polygon fill="#63b8ff" stroke="#63b8ff" points="540.62,-85.89 549.63,-80.31 539.11,-79.05 540.62,-85.89"/>
</a>
</g>
</g>
<!-- Node18 -->
<g id="Node000018" class="node">
<title>Node18</title>
<g id="a_Node000018"><a xlink:href="class_big_data_stat_meth_1_1hdf5_dataset.html#a94d81b72e92cb0230b4e64f37ea7d2e3" target="_top" xlink:title="Convert DataFrame to range list.">
<polygon fill="white" stroke="#666666" points="709,-30.5 537.75,-30.5 537.75,0 709,0 709,-30.5"/>
<text xml:space="preserve" text-anchor="start" x="545.75" y="-17" font-family="Helvetica,sans-Serif" font-size="10.00">BigDataStatMeth::hdf5Dataset</text>
<text xml:space="preserve" text-anchor="middle" x="623.38" y="-5.75" font-family="Helvetica,sans-Serif" font-size="10.00">::convert_DataFrame_to_RangeList</text>
</a>
</g>
</g>
<!-- Node16&#45;&gt;Node18 -->
<g id="edge23_Node000016_Node000018" class="edge">
<title>Node16&#45;&gt;Node18</title>
<g id="a_edge23_Node000016_Node000018"><a xlink:title=" ">
<path fill="none" stroke="#63b8ff" d="M449.47,-91.61C471.05,-76.73 505.42,-54.57 537.75,-40.25 542.08,-38.33 546.61,-36.51 551.21,-34.79"/>
<polygon fill="#63b8ff" stroke="#63b8ff" points="552.34,-38.1 560.61,-31.48 550.02,-31.5 552.34,-38.1"/>
</a>
</g>
</g>
<!-- Node19 -->
<g id="Node000019" class="node">
<title>Node19</title>
<g id="a_Node000019"><a xlink:href="namespace_big_data_stat_meth.html#a2692707b3ea4aaafa09d07afaf632437" target="_top" xlink:title="Transposes a 2D matrix.">
<polygon fill="white" stroke="#666666" points="693.25,-116.88 553.5,-116.88 553.5,-97.62 693.25,-97.62 693.25,-116.88"/>
<text xml:space="preserve" text-anchor="middle" x="623.38" y="-103.38" font-family="Helvetica,sans-Serif" font-size="10.00">BigDataStatMeth::transpose</text>
</a>
</g>
</g>
<!-- Node16&#45;&gt;Node19 -->
<g id="edge24_Node000016_Node000019" class="edge">
<title>Node16&#45;&gt;Node19</title>
<g id="a_edge24_Node000016_Node000019"><a xlink:title=" ">
<path fill="none" stroke="#63b8ff" d="M502.09,-107.25C515.04,-107.25 528.57,-107.25 541.68,-107.25"/>
<polygon fill="#63b8ff" stroke="#63b8ff" points="541.56,-110.75 551.56,-107.25 541.56,-103.75 541.56,-110.75"/>
</a>
</g>
</g>
</g>
</svg>

<g id="navigator" transform="translate(0 0)" fill="#404254">
  <rect fill="#f2f5e9" fill-opacity="0.5" stroke="#606060" stroke-width=".5" x="0" y="0" width="60" height="60"/>
  <use id="zoomplus" xlink:href="#zoomPlus" x="17" y="9" onmousedown="handleZoom(evt,'in')"/>
  <use id="zoomminus" xlink:href="#zoomMin" x="42" y="9" onmousedown="handleZoom(evt,'out')"/>
  <use id="reset" xlink:href="#resetDef" x="30" y="36" onmousedown="handleReset()"/>
   <use id="arrowup" xlink:href="#arrowUp" x="0" y="0" onmousedown="handlePan(0,-1)"/>
  <use id="arrowright" xlink:href="#arrowRight" x="0" y="0" onmousedown="handlePan(1,0)"/>
  <use id="arrowdown" xlink:href="#arrowDown" x="0" y="0" onmousedown="handlePan(0,1)"/>
  <use id="arrowleft" xlink:href="#arrowLeft" x="0" y="0" onmousedown="handlePan(-1,0)"/>
</g>
<svg viewBox="0 0 15 15" width="100%" height="30px" preserveAspectRatio="xMaxYMin meet">
 <g id="arrow_out" transform="scale(0.3 0.3)">
  <a xlink:href="namespace_big_data_stat_meth_a0bd6be89ee8fce729768fa4643b5943b_cgraph_org.svg" target="_base">
   <rect id="button" ry="5" rx="5" y="6" x="6" height="38" width="38"
        fill="#f2f5e9" fill-opacity="0.5" stroke="#606060" stroke-width="1.0"/>
   <path id="arrow"
     d="M 11.500037,31.436501 C 11.940474,20.09759 22.043105,11.32322 32.158766,21.979434 L 37.068811,17.246167 C 37.068811,17.246167 37.088388,32 37.088388,32 L 22.160133,31.978069 C 22.160133,31.978069 26.997745,27.140456 26.997745,27.140456 C 18.528582,18.264221 13.291696,25.230495 11.500037,31.436501 z"
     style="fill:#404040;"/>
  </a>
 </g>
</svg>

<style type='text/css'>
<![CDATA[
[data-mouse-over-selected='false'] { opacity: 0.7; }
[data-mouse-over-selected='true']  { opacity: 1.0; }
]]>
</style>
<script type="application/ecmascript"><![CDATA[
document.addEventListener('DOMContentLoaded', (event) => {
  highlightEdges();
  highlightAdjacentNodes();
});
]]></script>
</svg>
