<?xml version="1.0" encoding="UTF-8" standalone="no"?>
<!DOCTYPE svg PUBLIC "-//W3C//DTD SVG 1.1//EN"
 "http://www.w3.org/Graphics/SVG/1.1/DTD/svg11.dtd">
<!-- Generated by graphviz version 14.0.0 (20250921.2048)
 -->
<!-- Title: BigDataStatMeth::Inverse_Matrix_Cholesky_hdf5 Pages: 1 -->
<!--zoomable 678 -->

<svg id="main" version="1.1" xmlns="http://www.w3.org/2000/svg" xmlns:xlink="http://www.w3.org/1999/xlink" xml:space="preserve" onload="init(evt)">

<style type="text/css"><![CDATA[
.node, .edge {opacity: 0.7;}
.node.selected, .edge.selected {opacity: 1;}
.edge:hover path { stroke: red; }
.edge:hover polygon { stroke: red; fill: red; }
]]></style>

<defs>
  <circle id="rim" cx="0" cy="0" r="7"/>
  <circle id="rim2" cx="0" cy="0" r="3.5"/>
  <g id="zoomPlus">
    <use xlink:href="#rim" fill="#404040"><set attributeName="fill" to="#808080" begin="zoomplus.mouseover" end="zoomplus.mouseout"/></use>
    <path d="M-4,0h8M0,-4v8" fill="none" stroke="white" stroke-width="1.5" pointer-events="none"/>
  </g>
  <g id="zoomMin">
    <use xlink:href="#rim" fill="#404040"><set attributeName="fill" to="#808080" begin="zoomminus.mouseover" end="zoomminus.mouseout"/></use>
    <path d="M-4,0h8" fill="none" stroke="white" stroke-width="1.5" pointer-events="none"/>
  </g>
  <g id="arrowUp" transform="translate(30 24)">
    <use xlink:href="#rim"/>
    <path pointer-events="none" fill="none" stroke="white" stroke-width="1.5" d="M0,-3.0v7 M-2.5,-0.5L0,-3.0L2.5,-0.5"/>
  </g>
  <g id="arrowRight" transform="rotate(90) translate(36 -43)">
    <use xlink:href="#rim"/>
    <path pointer-events="none" fill="none" stroke="white" stroke-width="1.5" d="M0,-3.0v7 M-2.5,-0.5L0,-3.0L2.5,-0.5"/>
  </g>
  <g id="arrowDown" transform="rotate(180) translate(-30 -48)">
    <use xlink:href="#rim"/>
    <path pointer-events="none" fill="none" stroke="white" stroke-width="1.5" d="M0,-3.0v7 M-2.5,-0.5L0,-3.0L2.5,-0.5"/>
  </g>
  <g id="arrowLeft" transform="rotate(270) translate(-36 17)">
    <use xlink:href="#rim"/>
    <path pointer-events="none" fill="none" stroke="white" stroke-width="1.5" d="M0,-3.0v7 M-2.5,-0.5L0,-3.0L2.5,-0.5"/>
  </g>
  <g id="resetDef">
    <use xlink:href="#rim2" fill="#404040"><set attributeName="fill" to="#808080" begin="reset.mouseover" end="reset.mouseout"/></use>
  </g>
</defs>
<script type="application/ecmascript">
var viewWidth = 1133;
var viewHeight = 678;
var sectionId = 'dynsection-59';
</script>
<script type="application/ecmascript" xlink:href="../../../../assets/svg.min.js"/>
<svg id="graph" class="graph">
<g id="viewport">
<title>BigDataStatMeth::Inverse_Matrix_Cholesky_hdf5</title>
<!-- Node1 -->
<g id="Node000001" class="node">
<title>Node1</title>
<g id="a_Node000001"><a xlink:title="Computes final matrix inverse with automatic algorithm selection.">
<polygon fill="#999999" stroke="#666666" points="129.25,-490.5 0,-490.5 0,-460 129.25,-460 129.25,-490.5"/>
<text xml:space="preserve" text-anchor="start" x="8" y="-477" font-family="Helvetica,sans-Serif" font-size="10.00">BigDataStatMeth::Inverse</text>
<text xml:space="preserve" text-anchor="middle" x="64.62" y="-465.75" font-family="Helvetica,sans-Serif" font-size="10.00">_Matrix_Cholesky_hdf5</text>
</a>
</g>
</g>
<!-- Node2 -->
<g id="Node000002" class="node">
<title>Node2</title>
<g id="a_Node000002"><a xlink:href="namespace_big_data_stat_meth.html#a0f2b52e15661ecc7c19b233f152d09dc" target="_top" xlink:title="Computes final matrix inverse using inverted Cholesky factors.">
<polygon fill="white" stroke="#666666" points="342.5,-534.5 165.25,-534.5 165.25,-504 342.5,-504 342.5,-534.5"/>
<text xml:space="preserve" text-anchor="start" x="173.25" y="-521" font-family="Helvetica,sans-Serif" font-size="10.00">BigDataStatMeth::Inverse</text>
<text xml:space="preserve" text-anchor="middle" x="253.88" y="-509.75" font-family="Helvetica,sans-Serif" font-size="10.00">_Matrix_Cholesky_intermediate_hdf5</text>
</a>
</g>
</g>
<!-- Node1&#45;&gt;Node2 -->
<g id="edge1_Node000001_Node000002" class="edge">
<title>Node1&#45;&gt;Node2</title>
<g id="a_edge1_Node000001_Node000002"><a xlink:title=" ">
<path fill="none" stroke="#63b8ff" d="M129.54,-490.27C144.21,-493.71 159.95,-497.42 175.13,-500.98"/>
<polygon fill="#63b8ff" stroke="#63b8ff" points="174.05,-504.32 184.58,-503.2 175.65,-497.51 174.05,-504.32"/>
</a>
</g>
</g>
<!-- Node13 -->
<g id="Node000013" class="node">
<title>Node13</title>
<g id="a_Node000013"><a xlink:href="namespace_big_data_stat_meth.html#a6cf11002c5ce11473daebd0aefb52444" target="_top" xlink:title="Out&#45;of&#45;core computation of A^&#45;1 = L^&#45;T L^&#45;1 using tiles.">
<polygon fill="white" stroke="#666666" points="544.12,-382.5 379.62,-382.5 379.62,-352 544.12,-352 544.12,-382.5"/>
<text xml:space="preserve" text-anchor="start" x="387.62" y="-369" font-family="Helvetica,sans-Serif" font-size="10.00">BigDataStatMeth::Inverse</text>
<text xml:space="preserve" text-anchor="middle" x="461.88" y="-357.75" font-family="Helvetica,sans-Serif" font-size="10.00">_Matrix_Cholesky_outofcore_hdf5</text>
</a>
</g>
</g>
<!-- Node1&#45;&gt;Node13 -->
<g id="edge15_Node000001_Node000013" class="edge">
<title>Node1&#45;&gt;Node13</title>
<g id="a_edge15_Node000001_Node000013"><a xlink:title=" ">
<path fill="none" stroke="#63b8ff" d="M123.1,-459.55C194.52,-440.03 316.27,-406.76 392.44,-385.95"/>
<polygon fill="#63b8ff" stroke="#63b8ff" points="393.15,-389.38 401.87,-383.37 391.3,-382.63 393.15,-389.38"/>
</a>
</g>
</g>
<!-- Node3 -->
<g id="Node000003" class="node">
<title>Node3</title>
<g id="a_Node000003"><a xlink:href="namespace_big_data_stat_meth.html#a304b42b14ec87d4acc6f34ff0231529d" target="_top" xlink:title="Safely close any number of dataset handles (C++17).">
<polygon fill="white" stroke="#666666" points="545.25,-507.88 378.5,-507.88 378.5,-488.62 545.25,-488.62 545.25,-507.88"/>
<text xml:space="preserve" text-anchor="middle" x="461.88" y="-494.38" font-family="Helvetica,sans-Serif" font-size="10.00">BigDataStatMeth::checkClose_file</text>
</a>
</g>
</g>
<!-- Node2&#45;&gt;Node3 -->
<g id="edge2_Node000002_Node000003" class="edge">
<title>Node2&#45;&gt;Node3</title>
<g id="a_edge2_Node000002_Node000003"><a xlink:title=" ">
<path fill="none" stroke="#63b8ff" d="M342.84,-510.28C350.79,-509.47 358.86,-508.65 366.87,-507.83"/>
<polygon fill="#63b8ff" stroke="#63b8ff" points="367.01,-511.34 376.6,-506.84 366.3,-504.37 367.01,-511.34"/>
</a>
</g>
</g>
<!-- Node4 -->
<g id="Node000004" class="node">
<title>Node4</title>
<g id="a_Node000004"><a xlink:href="namespace_big_data_stat_meth.html#abcd544ed5db12dd03f79bca0a8f31ca5" target="_top" xlink:title="Calculates optimal block size for memory&#45;efficient matrix operations.">
<polygon fill="white" stroke="#666666" points="534,-645.5 389.75,-645.5 389.75,-615 534,-615 534,-645.5"/>
<text xml:space="preserve" text-anchor="start" x="397.75" y="-632" font-family="Helvetica,sans-Serif" font-size="10.00">BigDataStatMeth::getOptimal</text>
<text xml:space="preserve" text-anchor="middle" x="461.88" y="-620.75" font-family="Helvetica,sans-Serif" font-size="10.00">BlockElements</text>
</a>
</g>
</g>
<!-- Node2&#45;&gt;Node4 -->
<g id="edge3_Node000002_Node000004" class="edge">
<title>Node2&#45;&gt;Node4</title>
<g id="a_edge3_Node000002_Node000004"><a xlink:title=" ">
<path fill="none" stroke="#63b8ff" d="M276.43,-534.89C300.5,-551.91 341.02,-579.23 378.5,-598.25 386.96,-602.54 396.13,-606.63 405.19,-610.35"/>
<polygon fill="#63b8ff" stroke="#63b8ff" points="403.72,-613.54 414.3,-613.99 406.32,-607.04 403.72,-613.54"/>
</a>
</g>
</g>
<!-- Node6 -->
<g id="Node000006" class="node">
<title>Node6</title>
<g id="a_Node000006"><a xlink:href="class_big_data_stat_meth_1_1hdf5_dataset.html#a23bea87165b8ef6b944709c5b2cbd0cf" target="_top" xlink:title=" ">
<polygon fill="white" stroke="#666666" points="731.5,-598.5 581.25,-598.5 581.25,-568 731.5,-568 731.5,-598.5"/>
<text xml:space="preserve" text-anchor="start" x="589.25" y="-585" font-family="Helvetica,sans-Serif" font-size="10.00">BigDataStatMeth::hdf5Dataset</text>
<text xml:space="preserve" text-anchor="middle" x="656.38" y="-573.75" font-family="Helvetica,sans-Serif" font-size="10.00">::readDatasetBlock</text>
</a>
</g>
</g>
<!-- Node2&#45;&gt;Node6 -->
<g id="edge5_Node000002_Node000006" class="edge">
<title>Node2&#45;&gt;Node6</title>
<g id="a_edge5_Node000002_Node000006"><a xlink:title=" ">
<path fill="none" stroke="#63b8ff" d="M288.71,-534.9C313.11,-545.42 347.15,-558.55 378.5,-565.25 441.5,-578.72 514.24,-583.02 569.35,-584.07"/>
<polygon fill="#63b8ff" stroke="#63b8ff" points="569.26,-587.57 579.32,-584.22 569.37,-580.57 569.26,-587.57"/>
</a>
</g>
</g>
<!-- Node8 -->
<g id="Node000008" class="node">
<title>Node8</title>
<g id="a_Node000008"><a xlink:href="namespace_big_data_stat_meth.html#ab5429d9d25ff38d72d77e6dca59947b0" target="_top" xlink:title="Sets the diagonal elements of a matrix stored in HDF5 format.">
<polygon fill="white" stroke="#666666" points="536.25,-556.5 387.5,-556.5 387.5,-526 536.25,-526 536.25,-556.5"/>
<text xml:space="preserve" text-anchor="start" x="395.5" y="-543" font-family="Helvetica,sans-Serif" font-size="10.00">BigDataStatMeth::setDiagonal</text>
<text xml:space="preserve" text-anchor="middle" x="461.88" y="-531.75" font-family="Helvetica,sans-Serif" font-size="10.00">Matrix</text>
</a>
</g>
</g>
<!-- Node2&#45;&gt;Node8 -->
<g id="edge7_Node000002_Node000008" class="edge">
<title>Node2&#45;&gt;Node8</title>
<g id="a_edge7_Node000002_Node000008"><a xlink:title=" ">
<path fill="none" stroke="#63b8ff" d="M342.84,-528.64C353.79,-529.81 364.98,-531.01 375.89,-532.17"/>
<polygon fill="#63b8ff" stroke="#63b8ff" points="375.32,-535.63 385.63,-533.21 376.06,-528.67 375.32,-535.63"/>
</a>
</g>
</g>
<!-- Node9 -->
<g id="Node000009" class="node">
<title>Node9</title>
<g id="a_Node000009"><a xlink:href="class_big_data_stat_meth_1_1hdf5_dataset.html#af606176d84a63561b65702b6fde3a583" target="_top" xlink:title="Write block of data with optional transposition.">
<polygon fill="white" stroke="#666666" points="731.5,-549.5 581.25,-549.5 581.25,-519 731.5,-519 731.5,-549.5"/>
<text xml:space="preserve" text-anchor="start" x="589.25" y="-536" font-family="Helvetica,sans-Serif" font-size="10.00">BigDataStatMeth::hdf5Dataset</text>
<text xml:space="preserve" text-anchor="middle" x="656.38" y="-524.75" font-family="Helvetica,sans-Serif" font-size="10.00">::writeDatasetBlock</text>
</a>
</g>
</g>
<!-- Node2&#45;&gt;Node9 -->
<g id="edge14_Node000002_Node000009" class="edge">
<title>Node2&#45;&gt;Node9</title>
<g id="a_edge14_Node000002_Node000009"><a xlink:title=" ">
<path fill="none" stroke="#63b8ff" d="M292.82,-503.56C316.9,-494.46 348.98,-483.91 378.5,-479.25 451.71,-467.7 473.12,-462.24 545.25,-479.25 572.78,-485.74 601.28,-500.22 622.38,-512.69"/>
<polygon fill="#63b8ff" stroke="#63b8ff" points="620.46,-515.62 630.82,-517.82 624.1,-509.64 620.46,-515.62"/>
</a>
</g>
</g>
<!-- Node5 -->
<g id="Node000005" class="node">
<title>Node5</title>
<g id="a_Node000005"><a xlink:href="namespace_big_data_stat_meth.html#a8a3d5e267930c906cce28346886f07bc" target="_top" xlink:title="Detects available system memory using R&#45;compatible methods.">
<polygon fill="white" stroke="#666666" points="731.5,-647.5 581.25,-647.5 581.25,-617 731.5,-617 731.5,-647.5"/>
<text xml:space="preserve" text-anchor="start" x="589.25" y="-634" font-family="Helvetica,sans-Serif" font-size="10.00">BigDataStatMeth::getAvailable</text>
<text xml:space="preserve" text-anchor="middle" x="656.38" y="-622.75" font-family="Helvetica,sans-Serif" font-size="10.00">MemoryMB</text>
</a>
</g>
</g>
<!-- Node4&#45;&gt;Node5 -->
<g id="edge4_Node000004_Node000005" class="edge">
<title>Node4&#45;&gt;Node5</title>
<g id="a_edge4_Node000004_Node000005"><a xlink:title=" ">
<path fill="none" stroke="#63b8ff" d="M534.28,-630.99C545.8,-631.11 557.82,-631.24 569.63,-631.36"/>
<polygon fill="#63b8ff" stroke="#63b8ff" points="569.31,-634.86 579.35,-631.46 569.39,-627.86 569.31,-634.86"/>
</a>
</g>
</g>
<!-- Node7 -->
<g id="Node000007" class="node">
<title>Node7</title>
<g id="a_Node000007"><a xlink:href="class_big_data_stat_meth_1_1hdf5_dataset.html#aba39e56a580d3b1fa7f1619fc72efa3e" target="_top" xlink:title="Close dataset and file.">
<polygon fill="white" stroke="#666666" points="928.25,-669.5 778,-669.5 778,-639 928.25,-639 928.25,-669.5"/>
<text xml:space="preserve" text-anchor="start" x="786" y="-656" font-family="Helvetica,sans-Serif" font-size="10.00">BigDataStatMeth::hdf5Dataset</text>
<text xml:space="preserve" text-anchor="middle" x="853.12" y="-644.75" font-family="Helvetica,sans-Serif" font-size="10.00">::close_dataset_file</text>
</a>
</g>
</g>
<!-- Node6&#45;&gt;Node7 -->
<g id="edge6_Node000006_Node000007" class="edge">
<title>Node6&#45;&gt;Node7</title>
<g id="a_edge6_Node000006_Node000007"><a xlink:title=" ">
<path fill="none" stroke="#63b8ff" d="M708.54,-598.99C716.34,-601.82 724.21,-604.93 731.5,-608.25 748.36,-615.92 750.49,-621.91 767.5,-629.25 772.05,-631.22 776.81,-633.09 781.64,-634.85"/>
<polygon fill="#63b8ff" stroke="#63b8ff" points="780.27,-638.08 790.87,-638.05 782.57,-631.47 780.27,-638.08"/>
</a>
</g>
</g>
<!-- Node8&#45;&gt;Node6 -->
<g id="edge8_Node000008_Node000006" class="edge">
<title>Node8&#45;&gt;Node6</title>
<g id="a_edge8_Node000008_Node000006"><a xlink:title=" ">
<path fill="none" stroke="#63b8ff" d="M534.83,-556.95C546.93,-559.59 559.58,-562.35 571.94,-565.05"/>
<polygon fill="#63b8ff" stroke="#63b8ff" points="571.19,-568.47 581.71,-567.18 572.69,-561.63 571.19,-568.47"/>
</a>
</g>
</g>
<!-- Node8&#45;&gt;Node9 -->
<g id="edge9_Node000008_Node000009" class="edge">
<title>Node8&#45;&gt;Node9</title>
<g id="a_edge9_Node000008_Node000009"><a xlink:title=" ">
<path fill="none" stroke="#63b8ff" d="M536.75,-538.56C547.53,-538.17 558.71,-537.77 569.7,-537.37"/>
<polygon fill="#63b8ff" stroke="#63b8ff" points="569.68,-540.87 579.55,-537.01 569.43,-533.87 569.68,-540.87"/>
</a>
</g>
</g>
<!-- Node9&#45;&gt;Node7 -->
<g id="edge11_Node000009_Node000007" class="edge">
<title>Node9&#45;&gt;Node7</title>
<g id="a_edge11_Node000009_Node000007"><a xlink:title=" ">
<path fill="none" stroke="#63b8ff" d="M717.47,-549.85C722.51,-552.51 727.28,-555.62 731.5,-559.25 758.02,-582.07 740.55,-606.94 767.5,-629.25 769,-630.49 770.56,-631.67 772.17,-632.8"/>
<polygon fill="#63b8ff" stroke="#63b8ff" points="770.2,-635.69 780.58,-637.82 773.79,-629.69 770.2,-635.69"/>
</a>
</g>
</g>
<!-- Node10 -->
<g id="Node000010" class="node">
<title>Node10</title>
<g id="a_Node000010"><a xlink:href="class_big_data_stat_meth_1_1hdf5_dataset.html#a64177ae924792ea9e557febaa95ed400" target="_top" xlink:title="Close the dataset.">
<polygon fill="white" stroke="#666666" points="928.25,-571.5 778,-571.5 778,-541 928.25,-541 928.25,-571.5"/>
<text xml:space="preserve" text-anchor="start" x="786" y="-558" font-family="Helvetica,sans-Serif" font-size="10.00">BigDataStatMeth::hdf5Dataset</text>
<text xml:space="preserve" text-anchor="middle" x="853.12" y="-546.75" font-family="Helvetica,sans-Serif" font-size="10.00">::close_dataset</text>
</a>
</g>
</g>
<!-- Node9&#45;&gt;Node10 -->
<g id="edge10_Node000009_Node000010" class="edge">
<title>Node9&#45;&gt;Node10</title>
<g id="a_edge10_Node000009_Node000010"><a xlink:title=" ">
<path fill="none" stroke="#63b8ff" d="M731.84,-542.66C743.11,-543.94 754.82,-545.26 766.31,-546.56"/>
<polygon fill="#63b8ff" stroke="#63b8ff" points="765.87,-550.03 776.2,-547.67 766.66,-543.07 765.87,-550.03"/>
</a>
</g>
</g>
<!-- Node11 -->
<g id="Node000011" class="node">
<title>Node11</title>
<g id="a_Node000011"><a xlink:href="class_big_data_stat_meth_1_1hdf5_dataset.html#a94d81b72e92cb0230b4e64f37ea7d2e3" target="_top" xlink:title="Convert DataFrame to range list.">
<polygon fill="white" stroke="#666666" points="938.75,-620.5 767.5,-620.5 767.5,-590 938.75,-590 938.75,-620.5"/>
<text xml:space="preserve" text-anchor="start" x="775.5" y="-607" font-family="Helvetica,sans-Serif" font-size="10.00">BigDataStatMeth::hdf5Dataset</text>
<text xml:space="preserve" text-anchor="middle" x="853.12" y="-595.75" font-family="Helvetica,sans-Serif" font-size="10.00">::convert_DataFrame_to_RangeList</text>
</a>
</g>
</g>
<!-- Node9&#45;&gt;Node11 -->
<g id="edge12_Node000009_Node000011" class="edge">
<title>Node9&#45;&gt;Node11</title>
<g id="a_edge12_Node000009_Node000011"><a xlink:title=" ">
<path fill="none" stroke="#63b8ff" d="M708.54,-549.99C716.34,-552.82 724.21,-555.93 731.5,-559.25 748.36,-566.92 750.49,-572.91 767.5,-580.25 772.05,-582.22 776.81,-584.09 781.64,-585.85"/>
<polygon fill="#63b8ff" stroke="#63b8ff" points="780.27,-589.08 790.87,-589.05 782.57,-582.47 780.27,-589.08"/>
</a>
</g>
</g>
<!-- Node12 -->
<g id="Node000012" class="node">
<title>Node12</title>
<g id="a_Node000012"><a xlink:href="namespace_big_data_stat_meth.html#a2692707b3ea4aaafa09d07afaf632437" target="_top" xlink:title="Transposes a 2D matrix.">
<polygon fill="white" stroke="#666666" points="923,-522.88 783.25,-522.88 783.25,-503.62 923,-503.62 923,-522.88"/>
<text xml:space="preserve" text-anchor="middle" x="853.12" y="-509.38" font-family="Helvetica,sans-Serif" font-size="10.00">BigDataStatMeth::transpose</text>
</a>
</g>
</g>
<!-- Node9&#45;&gt;Node12 -->
<g id="edge13_Node000009_Node000012" class="edge">
<title>Node9&#45;&gt;Node12</title>
<g id="a_edge13_Node000009_Node000012"><a xlink:title=" ">
<path fill="none" stroke="#63b8ff" d="M731.84,-526.22C744.79,-524.82 758.32,-523.36 771.43,-521.95"/>
<polygon fill="#63b8ff" stroke="#63b8ff" points="771.76,-525.44 781.32,-520.88 771,-518.48 771.76,-525.44"/>
</a>
</g>
</g>
<!-- Node13&#45;&gt;Node6 -->
<g id="edge32_Node000013_Node000006" class="edge">
<title>Node13&#45;&gt;Node6</title>
<g id="a_edge32_Node000013_Node000006"><a xlink:title=" ">
<path fill="none" stroke="#63b8ff" d="M475.97,-382.85C493.22,-403.86 523.86,-442.82 545.25,-479.25 564.78,-512.52 552.61,-532.4 581.25,-558.25 582.51,-559.39 583.82,-560.47 585.18,-561.51"/>
<polygon fill="#63b8ff" stroke="#63b8ff" points="583.15,-564.37 593.45,-566.84 586.95,-558.48 583.15,-564.37"/>
</a>
</g>
</g>
<!-- Node13&#45;&gt;Node9 -->
<g id="edge38_Node000013_Node000009" class="edge">
<title>Node13&#45;&gt;Node9</title>
<g id="a_edge38_Node000013_Node000009"><a xlink:title=" ">
<path fill="none" stroke="#63b8ff" d="M479.45,-382.82C496.2,-398.64 522.75,-423.91 545.25,-446.25 561.53,-462.42 563.71,-468.45 581.25,-483.25 593.52,-493.61 607.89,-503.87 620.69,-512.44"/>
<polygon fill="#63b8ff" stroke="#63b8ff" points="618.58,-515.24 628.85,-517.81 622.42,-509.39 618.58,-515.24"/>
</a>
</g>
</g>
<!-- Node14 -->
<g id="Node000014" class="node">
<title>Node14</title>
<g id="a_Node000014"><a xlink:href="class_big_data_stat_meth_1_1hdf5_dataset_internal.html#a910815c29fe20912239251623c5e3251" target="_top" xlink:title="Create a new internal dataset with optional compression.">
<polygon fill="white" stroke="#666666" points="731.5,-226.5 581.25,-226.5 581.25,-196 731.5,-196 731.5,-226.5"/>
<text xml:space="preserve" text-anchor="start" x="589.25" y="-213" font-family="Helvetica,sans-Serif" font-size="10.00">BigDataStatMeth::hdf5Dataset</text>
<text xml:space="preserve" text-anchor="middle" x="656.38" y="-201.75" font-family="Helvetica,sans-Serif" font-size="10.00">Internal::createDataset</text>
</a>
</g>
</g>
<!-- Node13&#45;&gt;Node14 -->
<g id="edge16_Node000013_Node000014" class="edge">
<title>Node13&#45;&gt;Node14</title>
<g id="a_edge16_Node000013_Node000014"><a xlink:title=" ">
<path fill="none" stroke="#63b8ff" d="M482.04,-351.72C516.11,-324.11 587.37,-266.36 627.1,-234.17"/>
<polygon fill="#63b8ff" stroke="#63b8ff" points="629.26,-236.92 634.83,-227.9 624.86,-231.48 629.26,-236.92"/>
</a>
</g>
</g>
<!-- Node24 -->
<g id="Node000024" class="node">
<title>Node24</title>
<g id="a_Node000024"><a xlink:href="class_big_data_stat_meth_1_1hdf5_dataset.html#ac979eba40078c7c5974b64b2ce6347a3" target="_top" xlink:title="Get dataset name.">
<polygon fill="white" stroke="#666666" points="731.5,-474.5 581.25,-474.5 581.25,-444 731.5,-444 731.5,-474.5"/>
<text xml:space="preserve" text-anchor="start" x="589.25" y="-461" font-family="Helvetica,sans-Serif" font-size="10.00">BigDataStatMeth::hdf5Dataset</text>
<text xml:space="preserve" text-anchor="middle" x="656.38" y="-449.75" font-family="Helvetica,sans-Serif" font-size="10.00">::getDatasetName</text>
</a>
</g>
</g>
<!-- Node13&#45;&gt;Node24 -->
<g id="edge27_Node000013_Node000024" class="edge">
<title>Node13&#45;&gt;Node24</title>
<g id="a_edge27_Node000013_Node000024"><a xlink:title=" ">
<path fill="none" stroke="#63b8ff" d="M487.11,-382.77C510.55,-397.35 547.4,-419.13 581.25,-434.25 585.32,-436.07 589.56,-437.83 593.87,-439.52"/>
<polygon fill="#63b8ff" stroke="#63b8ff" points="592.63,-442.8 603.22,-443.04 595.09,-436.24 592.63,-442.8"/>
</a>
</g>
</g>
<!-- Node25 -->
<g id="Node000025" class="node">
<title>Node25</title>
<g id="a_Node000025"><a xlink:href="class_big_data_stat_meth_1_1hdf5_dataset.html#ae7e94f6d05d1a6cff2d24ec3f1b18fca" target="_top" xlink:title="Get file name.">
<polygon fill="white" stroke="#666666" points="731.5,-30.5 581.25,-30.5 581.25,0 731.5,0 731.5,-30.5"/>
<text xml:space="preserve" text-anchor="start" x="589.25" y="-17" font-family="Helvetica,sans-Serif" font-size="10.00">BigDataStatMeth::hdf5Dataset</text>
<text xml:space="preserve" text-anchor="middle" x="656.38" y="-5.75" font-family="Helvetica,sans-Serif" font-size="10.00">::getFileName</text>
</a>
</g>
</g>
<!-- Node13&#45;&gt;Node25 -->
<g id="edge28_Node000013_Node000025" class="edge">
<title>Node13&#45;&gt;Node25</title>
<g id="a_edge28_Node000013_Node000025"><a xlink:title=" ">
<path fill="none" stroke="#63b8ff" d="M463.87,-351.76C468.03,-299.97 488.46,-131.02 581.25,-40.25 582.29,-39.24 583.37,-38.26 584.49,-37.33"/>
<polygon fill="#63b8ff" stroke="#63b8ff" points="586.25,-40.37 592.45,-31.78 582.24,-34.62 586.25,-40.37"/>
</a>
</g>
</g>
<!-- Node27 -->
<g id="Node000027" class="node">
<title>Node27</title>
<g id="a_Node000027"><a xlink:href="class_big_data_stat_meth_1_1hdf5_dataset.html#af4869e54b1d4c01ab4caacf1939e1907" target="_top" xlink:title="Get group name.">
<polygon fill="white" stroke="#666666" points="731.5,-79.5 581.25,-79.5 581.25,-49 731.5,-49 731.5,-79.5"/>
<text xml:space="preserve" text-anchor="start" x="589.25" y="-66" font-family="Helvetica,sans-Serif" font-size="10.00">BigDataStatMeth::hdf5Dataset</text>
<text xml:space="preserve" text-anchor="middle" x="656.38" y="-54.75" font-family="Helvetica,sans-Serif" font-size="10.00">::getGroup</text>
</a>
</g>
</g>
<!-- Node13&#45;&gt;Node27 -->
<g id="edge30_Node000013_Node000027" class="edge">
<title>Node13&#45;&gt;Node27</title>
<g id="a_edge30_Node000013_Node000027"><a xlink:title=" ">
<path fill="none" stroke="#63b8ff" d="M464.98,-351.8C472.14,-305.2 499.83,-164.61 581.25,-89.25 582.46,-88.13 583.73,-87.05 585.04,-86.03"/>
<polygon fill="#63b8ff" stroke="#63b8ff" points="586.59,-89.2 593,-80.77 582.73,-83.36 586.59,-89.2"/>
</a>
</g>
</g>
<!-- Node28 -->
<g id="Node000028" class="node">
<title>Node28</title>
<g id="a_Node000028"><a xlink:href="class_big_data_stat_meth_1_1hdf5_dataset_internal.html#ad96e4a35e00a9f908436172d63a125d8" target="_top" xlink:title="Read a block of data from internal dataset.">
<polygon fill="white" stroke="#666666" points="731.5,-347.5 581.25,-347.5 581.25,-317 731.5,-317 731.5,-347.5"/>
<text xml:space="preserve" text-anchor="start" x="589.25" y="-334" font-family="Helvetica,sans-Serif" font-size="10.00">BigDataStatMeth::hdf5Dataset</text>
<text xml:space="preserve" text-anchor="middle" x="656.38" y="-322.75" font-family="Helvetica,sans-Serif" font-size="10.00">Internal::readDatasetBlock</text>
</a>
</g>
</g>
<!-- Node13&#45;&gt;Node28 -->
<g id="edge33_Node000013_Node000028" class="edge">
<title>Node13&#45;&gt;Node28</title>
<g id="a_edge33_Node000013_Node000028"><a xlink:title=" ">
<path fill="none" stroke="#63b8ff" d="M544.51,-352.41C552.83,-350.9 561.29,-349.36 569.64,-347.84"/>
<polygon fill="#63b8ff" stroke="#63b8ff" points="570.24,-351.29 579.46,-346.05 568.99,-344.4 570.24,-351.29"/>
</a>
</g>
</g>
<!-- Node29 -->
<g id="Node000029" class="node">
<title>Node29</title>
<g id="a_Node000029"><a xlink:href="class_big_data_stat_meth_1_1hdf5_dataset.html#a248d5e9f269b92ef906ab3f78b3e42d8" target="_top" xlink:title="Remove the dataset.">
<polygon fill="white" stroke="#666666" points="731.5,-128.5 581.25,-128.5 581.25,-98 731.5,-98 731.5,-128.5"/>
<text xml:space="preserve" text-anchor="start" x="589.25" y="-115" font-family="Helvetica,sans-Serif" font-size="10.00">BigDataStatMeth::hdf5Dataset</text>
<text xml:space="preserve" text-anchor="middle" x="656.38" y="-103.75" font-family="Helvetica,sans-Serif" font-size="10.00">::remove</text>
</a>
</g>
</g>
<!-- Node13&#45;&gt;Node29 -->
<g id="edge35_Node000013_Node000029" class="edge">
<title>Node13&#45;&gt;Node29</title>
<g id="a_edge35_Node000013_Node000029"><a xlink:title=" ">
<path fill="none" stroke="#63b8ff" d="M471.7,-351.59C490.15,-319.4 534.93,-244.07 581.25,-187.25 596.04,-169.11 614.7,-150.5 629.6,-136.48"/>
<polygon fill="#63b8ff" stroke="#63b8ff" points="631.82,-139.19 636.77,-129.82 627.06,-134.06 631.82,-139.19"/>
</a>
</g>
</g>
<!-- Node30 -->
<g id="Node000030" class="node">
<title>Node30</title>
<g id="a_Node000030"><a xlink:href="class_big_data_stat_meth_1_1hdf5_dataset_internal.html#a4f988a5f93c2870e87c14d84f00e441c" target="_top" xlink:title="Write block of data to internal dataset.">
<polygon fill="white" stroke="#666666" points="731.5,-425.5 581.25,-425.5 581.25,-395 731.5,-395 731.5,-425.5"/>
<text xml:space="preserve" text-anchor="start" x="589.25" y="-412" font-family="Helvetica,sans-Serif" font-size="10.00">BigDataStatMeth::hdf5Dataset</text>
<text xml:space="preserve" text-anchor="middle" x="656.38" y="-400.75" font-family="Helvetica,sans-Serif" font-size="10.00">Internal::writeDatasetBlock</text>
</a>
</g>
</g>
<!-- Node13&#45;&gt;Node30 -->
<g id="edge39_Node000013_Node000030" class="edge">
<title>Node13&#45;&gt;Node30</title>
<g id="a_edge39_Node000013_Node000030"><a xlink:title=" ">
<path fill="none" stroke="#63b8ff" d="M533.19,-382.96C546.36,-385.9 560.24,-389 573.72,-392.01"/>
<polygon fill="#63b8ff" stroke="#63b8ff" points="572.93,-395.42 583.45,-394.18 574.46,-388.59 572.93,-395.42"/>
</a>
</g>
</g>
<!-- Node15 -->
<g id="Node000015" class="node">
<title>Node15</title>
<g id="a_Node000015"><a xlink:href="class_big_data_stat_meth_1_1hdf5_dataset.html#ac7a7f23b7e22c9b56ca6ad86592f2d52" target="_top" xlink:title="Add an attribute to the dataset.">
<polygon fill="white" stroke="#666666" points="928.25,-275.5 778,-275.5 778,-245 928.25,-245 928.25,-275.5"/>
<text xml:space="preserve" text-anchor="start" x="786" y="-262" font-family="Helvetica,sans-Serif" font-size="10.00">BigDataStatMeth::hdf5Dataset</text>
<text xml:space="preserve" text-anchor="middle" x="853.12" y="-250.75" font-family="Helvetica,sans-Serif" font-size="10.00">::addAttribute</text>
</a>
</g>
</g>
<!-- Node14&#45;&gt;Node15 -->
<g id="edge17_Node000014_Node000015" class="edge">
<title>Node14&#45;&gt;Node15</title>
<g id="a_edge17_Node000014_Node000015"><a xlink:title=" ">
<path fill="none" stroke="#63b8ff" d="M719.8,-226.96C738.58,-231.68 759.36,-236.91 778.78,-241.8"/>
<polygon fill="#63b8ff" stroke="#63b8ff" points="777.7,-245.13 788.25,-244.18 779.41,-238.35 777.7,-245.13"/>
</a>
</g>
</g>
<!-- Node16 -->
<g id="Node000016" class="node">
<title>Node16</title>
<g id="a_Node000016"><a xlink:href="class_big_data_stat_meth_1_1hdf5_group.html#a27cef4d33e46c72bfd792aa49fa621a3" target="_top" xlink:title="Create multiple nested groups.">
<polygon fill="white" stroke="#666666" points="924.12,-177.5 782.12,-177.5 782.12,-147 924.12,-147 924.12,-177.5"/>
<text xml:space="preserve" text-anchor="start" x="790.12" y="-164" font-family="Helvetica,sans-Serif" font-size="10.00">BigDataStatMeth::hdf5Group</text>
<text xml:space="preserve" text-anchor="middle" x="853.12" y="-152.75" font-family="Helvetica,sans-Serif" font-size="10.00">::create_HDF5_groups</text>
</a>
</g>
</g>
<!-- Node14&#45;&gt;Node16 -->
<g id="edge18_Node000014_Node000016" class="edge">
<title>Node14&#45;&gt;Node16</title>
<g id="a_edge18_Node000014_Node000016"><a xlink:title=" ">
<path fill="none" stroke="#63b8ff" d="M719.8,-195.54C738.58,-190.82 759.36,-185.59 778.78,-180.7"/>
<polygon fill="#63b8ff" stroke="#63b8ff" points="779.41,-184.15 788.25,-178.32 777.7,-177.37 779.41,-184.15"/>
</a>
</g>
</g>
<!-- Node18 -->
<g id="Node000018" class="node">
<title>Node18</title>
<g id="a_Node000018"><a xlink:href="namespace_big_data_stat_meth.html#a89d901ab4b5e01771f4e3fc7dc84e50e" target="_top" xlink:title="Checks if an HDF5 element (group or dataset) exists.">
<polygon fill="white" stroke="#666666" points="914.75,-226.5 791.5,-226.5 791.5,-196 914.75,-196 914.75,-226.5"/>
<text xml:space="preserve" text-anchor="start" x="799.5" y="-213" font-family="Helvetica,sans-Serif" font-size="10.00">BigDataStatMeth::exists</text>
<text xml:space="preserve" text-anchor="middle" x="853.12" y="-201.75" font-family="Helvetica,sans-Serif" font-size="10.00">_HDF5_element</text>
</a>
</g>
</g>
<!-- Node14&#45;&gt;Node18 -->
<g id="edge20_Node000014_Node000018" class="edge">
<title>Node14&#45;&gt;Node18</title>
<g id="a_edge20_Node000014_Node000018"><a xlink:title=" ">
<path fill="none" stroke="#63b8ff" d="M731.84,-211.25C747.65,-211.25 764.32,-211.25 780.04,-211.25"/>
<polygon fill="#63b8ff" stroke="#63b8ff" points="779.78,-214.75 789.78,-211.25 779.78,-207.75 779.78,-214.75"/>
</a>
</g>
</g>
<!-- Node19 -->
<g id="Node000019" class="node">
<title>Node19</title>
<g id="a_Node000019"><a xlink:href="class_big_data_stat_meth_1_1hdf5_group.html#a59995412538627e6c80f64b552c286f5" target="_top" xlink:title=" ">
<polygon fill="white" stroke="#666666" points="924.12,-79.5 782.12,-79.5 782.12,-49 924.12,-49 924.12,-79.5"/>
<text xml:space="preserve" text-anchor="start" x="790.12" y="-66" font-family="Helvetica,sans-Serif" font-size="10.00">BigDataStatMeth::hdf5Group</text>
<text xml:space="preserve" text-anchor="middle" x="853.12" y="-54.75" font-family="Helvetica,sans-Serif" font-size="10.00">::getGroupName</text>
</a>
</g>
</g>
<!-- Node14&#45;&gt;Node19 -->
<g id="edge22_Node000014_Node000019" class="edge">
<title>Node14&#45;&gt;Node19</title>
<g id="a_edge22_Node000014_Node000019"><a xlink:title=" ">
<path fill="none" stroke="#63b8ff" d="M674.26,-195.72C689.75,-181.17 713.02,-158.53 731.5,-137.25 748.98,-117.11 745.6,-104.47 767.5,-89.25 769.6,-87.79 771.78,-86.42 774.02,-85.13"/>
<polygon fill="#63b8ff" stroke="#63b8ff" points="775.55,-88.28 782.88,-80.63 772.38,-82.04 775.55,-88.28"/>
</a>
</g>
</g>
<!-- Node20 -->
<g id="Node000020" class="node">
<title>Node20</title>
<g id="a_Node000020"><a xlink:href="namespace_big_data_stat_meth.html#a3d06783149029f1df2853c472d401380" target="_top" xlink:title="Removes multiple elements from an HDF5 file.">
<polygon fill="white" stroke="#666666" points="917.75,-128.5 788.5,-128.5 788.5,-98 917.75,-98 917.75,-128.5"/>
<text xml:space="preserve" text-anchor="start" x="796.5" y="-115" font-family="Helvetica,sans-Serif" font-size="10.00">BigDataStatMeth::remove</text>
<text xml:space="preserve" text-anchor="middle" x="853.12" y="-103.75" font-family="Helvetica,sans-Serif" font-size="10.00">_elements</text>
</a>
</g>
</g>
<!-- Node14&#45;&gt;Node20 -->
<g id="edge23_Node000014_Node000020" class="edge">
<title>Node14&#45;&gt;Node20</title>
<g id="a_edge23_Node000014_Node000020"><a xlink:title=" ">
<path fill="none" stroke="#63b8ff" d="M677,-195.6C698.23,-179.33 733.61,-154.05 767.5,-138.25 771.72,-136.28 776.13,-134.43 780.62,-132.7"/>
<polygon fill="#63b8ff" stroke="#63b8ff" points="781.58,-136.07 789.79,-129.37 779.19,-129.49 781.58,-136.07"/>
</a>
</g>
</g>
<!-- Node21 -->
<g id="Node000021" class="node">
<title>Node21</title>
<g id="a_Node000021"><a xlink:href="class_big_data_stat_meth_1_1hdf5_dataset_internal.html#a349b08ecc0bed2df5283e56fb9e9d178" target="_top" xlink:title="Write data to the internal dataset.">
<polygon fill="white" stroke="#666666" points="928.25,-361.5 778,-361.5 778,-331 928.25,-331 928.25,-361.5"/>
<text xml:space="preserve" text-anchor="start" x="786" y="-348" font-family="Helvetica,sans-Serif" font-size="10.00">BigDataStatMeth::hdf5Dataset</text>
<text xml:space="preserve" text-anchor="middle" x="853.12" y="-336.75" font-family="Helvetica,sans-Serif" font-size="10.00">Internal::writeDataset</text>
</a>
</g>
</g>
<!-- Node14&#45;&gt;Node21 -->
<g id="edge24_Node000014_Node000021" class="edge">
<title>Node14&#45;&gt;Node21</title>
<g id="a_edge24_Node000014_Node000021"><a xlink:title=" ">
<path fill="none" stroke="#63b8ff" d="M679.72,-226.74C714.16,-250.62 780.4,-296.53 819.99,-323.97"/>
<polygon fill="#63b8ff" stroke="#63b8ff" points="817.99,-326.85 828.2,-329.67 821.98,-321.09 817.99,-326.85"/>
</a>
</g>
</g>
<!-- Node17 -->
<g id="Node000017" class="node">
<title>Node17</title>
<g id="a_Node000017"><a xlink:href="namespace_big_data_stat_meth.html#abcaa4216cd52f03ebac42e4855ef846b" target="_top" xlink:title="Checks if a path exists in an HDF5 file.">
<polygon fill="white" stroke="#666666" points="1121.62,-196.88 978.12,-196.88 978.12,-177.62 1121.62,-177.62 1121.62,-196.88"/>
<text xml:space="preserve" text-anchor="middle" x="1049.88" y="-183.38" font-family="Helvetica,sans-Serif" font-size="10.00">BigDataStatMeth::pathExists</text>
</a>
</g>
</g>
<!-- Node16&#45;&gt;Node17 -->
<g id="edge19_Node000016_Node000017" class="edge">
<title>Node16&#45;&gt;Node17</title>
<g id="a_edge19_Node000016_Node000017"><a xlink:title=" ">
<path fill="none" stroke="#63b8ff" d="M924.43,-171.28C938.1,-173.03 952.55,-174.88 966.56,-176.68"/>
<polygon fill="#63b8ff" stroke="#63b8ff" points="965.82,-180.12 976.19,-177.92 966.71,-173.17 965.82,-180.12"/>
</a>
</g>
</g>
<!-- Node18&#45;&gt;Node17 -->
<g id="edge21_Node000018_Node000017" class="edge">
<title>Node18&#45;&gt;Node17</title>
<g id="a_edge21_Node000018_Node000017"><a xlink:title=" ">
<path fill="none" stroke="#63b8ff" d="M915.21,-203.72C931.5,-201.71 949.37,-199.51 966.59,-197.39"/>
<polygon fill="#63b8ff" stroke="#63b8ff" points="966.79,-200.89 976.29,-196.19 965.94,-193.94 966.79,-200.89"/>
</a>
</g>
</g>
<!-- Node22 -->
<g id="Node000022" class="node">
<title>Node22</title>
<g id="a_Node000022"><a xlink:href="class_big_data_stat_meth_1_1hdf5_dataset_internal.html#a91d48a0c7186c87eb0af78f426ce6a4d" target="_top" xlink:title="Close dataset and file.">
<polygon fill="white" stroke="#666666" points="1125,-361.5 974.75,-361.5 974.75,-331 1125,-331 1125,-361.5"/>
<text xml:space="preserve" text-anchor="start" x="982.75" y="-348" font-family="Helvetica,sans-Serif" font-size="10.00">BigDataStatMeth::hdf5Dataset</text>
<text xml:space="preserve" text-anchor="middle" x="1049.88" y="-336.75" font-family="Helvetica,sans-Serif" font-size="10.00">Internal::close_dataset_file</text>
</a>
</g>
</g>
<!-- Node21&#45;&gt;Node22 -->
<g id="edge25_Node000021_Node000022" class="edge">
<title>Node21&#45;&gt;Node22</title>
<g id="a_edge25_Node000021_Node000022"><a xlink:title=" ">
<path fill="none" stroke="#63b8ff" d="M928.59,-346.25C939.86,-346.25 951.57,-346.25 963.06,-346.25"/>
<polygon fill="#63b8ff" stroke="#63b8ff" points="962.94,-349.75 972.94,-346.25 962.94,-342.75 962.94,-349.75"/>
</a>
</g>
</g>
<!-- Node23 -->
<g id="Node000023" class="node">
<title>Node23</title>
<g id="a_Node000023"><a xlink:href="class_big_data_stat_meth_1_1hdf5_dataset_internal.html#a152c59a2a409e1883e3834a26170ed59" target="_top" xlink:title="Convert DataFrame to range list.">
<polygon fill="white" stroke="#666666" points="1125,-458.12 974.75,-458.12 974.75,-416.38 1125,-416.38 1125,-458.12"/>
<text xml:space="preserve" text-anchor="start" x="982.75" y="-444.62" font-family="Helvetica,sans-Serif" font-size="10.00">BigDataStatMeth::hdf5Dataset</text>
<text xml:space="preserve" text-anchor="start" x="982.75" y="-433.38" font-family="Helvetica,sans-Serif" font-size="10.00">Internal::convert_DataFrame</text>
<text xml:space="preserve" text-anchor="middle" x="1049.88" y="-422.12" font-family="Helvetica,sans-Serif" font-size="10.00">_to_RangeList</text>
</a>
</g>
</g>
<!-- Node21&#45;&gt;Node23 -->
<g id="edge26_Node000021_Node000023" class="edge">
<title>Node21&#45;&gt;Node23</title>
<g id="a_edge26_Node000021_Node000023"><a xlink:title=" ">
<path fill="none" stroke="#63b8ff" d="M887.6,-361.89C916.58,-375.43 959.07,-395.29 993.16,-411.22"/>
<polygon fill="#63b8ff" stroke="#63b8ff" points="991.54,-414.32 1002.08,-415.38 994.5,-407.98 991.54,-414.32"/>
</a>
</g>
</g>
<!-- Node26 -->
<g id="Node000026" class="node">
<title>Node26</title>
<g id="a_Node000026"><a xlink:href="class_big_data_stat_meth_1_1hdf5_file.html#abb50d96e6674ac770e4f27f650ad34cb" target="_top" xlink:title="Get filename.">
<polygon fill="white" stroke="#666666" points="918.88,-30.5 787.38,-30.5 787.38,0 918.88,0 918.88,-30.5"/>
<text xml:space="preserve" text-anchor="start" x="795.38" y="-17" font-family="Helvetica,sans-Serif" font-size="10.00">BigDataStatMeth::hdf5File</text>
<text xml:space="preserve" text-anchor="middle" x="853.12" y="-5.75" font-family="Helvetica,sans-Serif" font-size="10.00">::getFilename</text>
</a>
</g>
</g>
<!-- Node25&#45;&gt;Node26 -->
<g id="edge29_Node000025_Node000026" class="edge">
<title>Node25&#45;&gt;Node26</title>
<g id="a_edge29_Node000025_Node000026"><a xlink:title=" ">
<path fill="none" stroke="#63b8ff" d="M731.84,-15.25C746.15,-15.25 761.17,-15.25 775.56,-15.25"/>
<polygon fill="#63b8ff" stroke="#63b8ff" points="775.42,-18.75 785.42,-15.25 775.42,-11.75 775.42,-18.75"/>
</a>
</g>
</g>
<!-- Node27&#45;&gt;Node19 -->
<g id="edge31_Node000027_Node000019" class="edge">
<title>Node27&#45;&gt;Node19</title>
<g id="a_edge31_Node000027_Node000019"><a xlink:title=" ">
<path fill="none" stroke="#63b8ff" d="M731.84,-64.25C744.54,-64.25 757.8,-64.25 770.68,-64.25"/>
<polygon fill="#63b8ff" stroke="#63b8ff" points="770.36,-67.75 780.36,-64.25 770.36,-60.75 770.36,-67.75"/>
</a>
</g>
</g>
<!-- Node28&#45;&gt;Node22 -->
<g id="edge34_Node000028_Node000022" class="edge">
<title>Node28&#45;&gt;Node22</title>
<g id="a_edge34_Node000028_Node000022"><a xlink:title=" ">
<path fill="none" stroke="#63b8ff" d="M731.93,-323.83C788.76,-318.8 868.89,-314.73 938.75,-322.25 951.16,-323.59 964.23,-325.75 976.86,-328.24"/>
<polygon fill="#63b8ff" stroke="#63b8ff" points="975.82,-331.6 986.32,-330.2 977.24,-324.75 975.82,-331.6"/>
</a>
</g>
</g>
<!-- Node29&#45;&gt;Node19 -->
<g id="edge36_Node000029_Node000019" class="edge">
<title>Node29&#45;&gt;Node19</title>
<g id="a_edge36_Node000029_Node000019"><a xlink:title=" ">
<path fill="none" stroke="#63b8ff" d="M719.8,-97.54C738.58,-92.82 759.36,-87.59 778.78,-82.7"/>
<polygon fill="#63b8ff" stroke="#63b8ff" points="779.41,-86.15 788.25,-80.32 777.7,-79.37 779.41,-86.15"/>
</a>
</g>
</g>
<!-- Node29&#45;&gt;Node20 -->
<g id="edge37_Node000029_Node000020" class="edge">
<title>Node29&#45;&gt;Node20</title>
<g id="a_edge37_Node000029_Node000020"><a xlink:title=" ">
<path fill="none" stroke="#63b8ff" d="M731.84,-113.25C746.64,-113.25 762.19,-113.25 777.02,-113.25"/>
<polygon fill="#63b8ff" stroke="#63b8ff" points="776.67,-116.75 786.67,-113.25 776.67,-109.75 776.67,-116.75"/>
</a>
</g>
</g>
<!-- Node30&#45;&gt;Node12 -->
<g id="edge43_Node000030_Node000012" class="edge">
<title>Node30&#45;&gt;Node12</title>
<g id="a_edge43_Node000030_Node000012"><a xlink:title=" ">
<path fill="none" stroke="#63b8ff" d="M716.3,-425.99C721.7,-428.63 726.87,-431.7 731.5,-435.25 754.39,-452.8 744.19,-472.27 767.5,-489.25 772.8,-493.11 778.7,-496.35 784.85,-499.07"/>
<polygon fill="#63b8ff" stroke="#63b8ff" points="783.38,-502.25 793.97,-502.62 785.92,-495.73 783.38,-502.25"/>
</a>
</g>
</g>
<!-- Node30&#45;&gt;Node22 -->
<g id="edge41_Node000030_Node000022" class="edge">
<title>Node30&#45;&gt;Node22</title>
<g id="a_edge41_Node000030_Node000022"><a xlink:title=" ">
<path fill="none" stroke="#63b8ff" d="M731.96,-401.16C788.81,-393.87 868.94,-382.8 938.75,-370.25 948.72,-368.46 959.16,-366.41 969.48,-364.28"/>
<polygon fill="#63b8ff" stroke="#63b8ff" points="970.04,-367.74 979.11,-362.26 968.61,-360.89 970.04,-367.74"/>
</a>
</g>
</g>
<!-- Node30&#45;&gt;Node23 -->
<g id="edge42_Node000030_Node000023" class="edge">
<title>Node30&#45;&gt;Node23</title>
<g id="a_edge42_Node000030_Node000023"><a xlink:title=" ">
<path fill="none" stroke="#63b8ff" d="M708.54,-425.99C716.34,-428.82 724.21,-431.93 731.5,-435.25 748.36,-442.92 749.62,-451.42 767.5,-456.25 831.64,-473.59 906.84,-467.21 963.36,-457.38"/>
<polygon fill="#63b8ff" stroke="#63b8ff" points="963.7,-460.88 972.92,-455.65 962.45,-453.99 963.7,-460.88"/>
</a>
</g>
</g>
<!-- Node31 -->
<g id="Node000031" class="node">
<title>Node31</title>
<g id="a_Node000031"><a xlink:href="class_big_data_stat_meth_1_1hdf5_dataset_internal.html#a0453f8502bee6dd35be2ec196e9edc55" target="_top" xlink:title="Close the dataset.">
<polygon fill="white" stroke="#666666" points="928.25,-447.5 778,-447.5 778,-417 928.25,-417 928.25,-447.5"/>
<text xml:space="preserve" text-anchor="start" x="786" y="-434" font-family="Helvetica,sans-Serif" font-size="10.00">BigDataStatMeth::hdf5Dataset</text>
<text xml:space="preserve" text-anchor="middle" x="853.12" y="-422.75" font-family="Helvetica,sans-Serif" font-size="10.00">Internal::close_dataset</text>
</a>
</g>
</g>
<!-- Node30&#45;&gt;Node31 -->
<g id="edge40_Node000030_Node000031" class="edge">
<title>Node30&#45;&gt;Node31</title>
<g id="a_edge40_Node000030_Node000031"><a xlink:title=" ">
<path fill="none" stroke="#63b8ff" d="M731.84,-418.66C743.11,-419.94 754.82,-421.26 766.31,-422.56"/>
<polygon fill="#63b8ff" stroke="#63b8ff" points="765.87,-426.03 776.2,-423.67 766.66,-419.07 765.87,-426.03"/>
</a>
</g>
</g>
</g>
</svg>

<g id="navigator" transform="translate(0 0)" fill="#404254">
  <rect fill="#f2f5e9" fill-opacity="0.5" stroke="#606060" stroke-width=".5" x="0" y="0" width="60" height="60"/>
  <use id="zoomplus" xlink:href="#zoomPlus" x="17" y="9" onmousedown="handleZoom(evt,'in')"/>
  <use id="zoomminus" xlink:href="#zoomMin" x="42" y="9" onmousedown="handleZoom(evt,'out')"/>
  <use id="reset" xlink:href="#resetDef" x="30" y="36" onmousedown="handleReset()"/>
   <use id="arrowup" xlink:href="#arrowUp" x="0" y="0" onmousedown="handlePan(0,-1)"/>
  <use id="arrowright" xlink:href="#arrowRight" x="0" y="0" onmousedown="handlePan(1,0)"/>
  <use id="arrowdown" xlink:href="#arrowDown" x="0" y="0" onmousedown="handlePan(0,1)"/>
  <use id="arrowleft" xlink:href="#arrowLeft" x="0" y="0" onmousedown="handlePan(-1,0)"/>
</g>
<svg viewBox="0 0 15 15" width="100%" height="30px" preserveAspectRatio="xMaxYMin meet">
 <g id="arrow_out" transform="scale(0.3 0.3)">
  <a xlink:href="namespace_big_data_stat_meth_ae8d25f004dda1092024887ac00e3cadb_cgraph_org.svg" target="_base">
   <rect id="button" ry="5" rx="5" y="6" x="6" height="38" width="38"
        fill="#f2f5e9" fill-opacity="0.5" stroke="#606060" stroke-width="1.0"/>
   <path id="arrow"
     d="M 11.500037,31.436501 C 11.940474,20.09759 22.043105,11.32322 32.158766,21.979434 L 37.068811,17.246167 C 37.068811,17.246167 37.088388,32 37.088388,32 L 22.160133,31.978069 C 22.160133,31.978069 26.997745,27.140456 26.997745,27.140456 C 18.528582,18.264221 13.291696,25.230495 11.500037,31.436501 z"
     style="fill:#404040;"/>
  </a>
 </g>
</svg>

<style type='text/css'>
<![CDATA[
[data-mouse-over-selected='false'] { opacity: 0.7; }
[data-mouse-over-selected='true']  { opacity: 1.0; }
]]>
</style>
<script type="application/ecmascript"><![CDATA[
document.addEventListener('DOMContentLoaded', (event) => {
  highlightEdges();
  highlightAdjacentNodes();
});
]]></script>
</svg>
