<?xml version="1.0" encoding="UTF-8" standalone="no"?>
<!DOCTYPE svg PUBLIC "-//W3C//DTD SVG 1.1//EN"
 "http://www.w3.org/Graphics/SVG/1.1/DTD/svg11.dtd">
<!-- Generated by graphviz version 14.0.0 (20250921.2048)
 -->
<!-- Title: BigDataStatMeth::Cholesky_decomposition_outofcore_hdf5 Pages: 1 -->
<!--zoomable 682 -->

<svg id="main" version="1.1" xmlns="http://www.w3.org/2000/svg" xmlns:xlink="http://www.w3.org/1999/xlink" xml:space="preserve" onload="init(evt)">

<style type="text/css"><![CDATA[
.node, .edge {opacity: 0.7;}
.node.selected, .edge.selected {opacity: 1;}
.edge:hover path { stroke: red; }
.edge:hover polygon { stroke: red; fill: red; }
]]></style>

<defs>
  <circle id="rim" cx="0" cy="0" r="7"/>
  <circle id="rim2" cx="0" cy="0" r="3.5"/>
  <g id="zoomPlus">
    <use xlink:href="#rim" fill="#404040"><set attributeName="fill" to="#808080" begin="zoomplus.mouseover" end="zoomplus.mouseout"/></use>
    <path d="M-4,0h8M0,-4v8" fill="none" stroke="white" stroke-width="1.5" pointer-events="none"/>
  </g>
  <g id="zoomMin">
    <use xlink:href="#rim" fill="#404040"><set attributeName="fill" to="#808080" begin="zoomminus.mouseover" end="zoomminus.mouseout"/></use>
    <path d="M-4,0h8" fill="none" stroke="white" stroke-width="1.5" pointer-events="none"/>
  </g>
  <g id="arrowUp" transform="translate(30 24)">
    <use xlink:href="#rim"/>
    <path pointer-events="none" fill="none" stroke="white" stroke-width="1.5" d="M0,-3.0v7 M-2.5,-0.5L0,-3.0L2.5,-0.5"/>
  </g>
  <g id="arrowRight" transform="rotate(90) translate(36 -43)">
    <use xlink:href="#rim"/>
    <path pointer-events="none" fill="none" stroke="white" stroke-width="1.5" d="M0,-3.0v7 M-2.5,-0.5L0,-3.0L2.5,-0.5"/>
  </g>
  <g id="arrowDown" transform="rotate(180) translate(-30 -48)">
    <use xlink:href="#rim"/>
    <path pointer-events="none" fill="none" stroke="white" stroke-width="1.5" d="M0,-3.0v7 M-2.5,-0.5L0,-3.0L2.5,-0.5"/>
  </g>
  <g id="arrowLeft" transform="rotate(270) translate(-36 17)">
    <use xlink:href="#rim"/>
    <path pointer-events="none" fill="none" stroke="white" stroke-width="1.5" d="M0,-3.0v7 M-2.5,-0.5L0,-3.0L2.5,-0.5"/>
  </g>
  <g id="resetDef">
    <use xlink:href="#rim2" fill="#404040"><set attributeName="fill" to="#808080" begin="reset.mouseover" end="reset.mouseout"/></use>
  </g>
</defs>
<script type="application/ecmascript">
var viewWidth = 742;
var viewHeight = 682;
var sectionId = 'dynsection-11';
</script>
<script type="application/ecmascript" xlink:href="../../../../assets/svg.min.js"/>
<svg id="graph" class="graph">
<g id="viewport">
<title>BigDataStatMeth::Cholesky_decomposition_outofcore_hdf5</title>
<!-- Node1 -->
<g id="Node000001" class="node">
<title>Node1</title>
<g id="a_Node000001"><a xlink:title="Out&#45;of&#45;core Cholesky decomposition for large matrices using tiled algorithm.">
<polygon fill="#999999" stroke="#666666" points="154,-379.5 0,-379.5 0,-349 154,-349 154,-379.5"/>
<text xml:space="preserve" text-anchor="start" x="8" y="-366" font-family="Helvetica,sans-Serif" font-size="10.00">BigDataStatMeth::Cholesky</text>
<text xml:space="preserve" text-anchor="middle" x="77" y="-354.75" font-family="Helvetica,sans-Serif" font-size="10.00">_decomposition_outofcore_hdf5</text>
</a>
</g>
</g>
<!-- Node2 -->
<g id="Node000002" class="node">
<title>Node2</title>
<g id="a_Node000002"><a xlink:href="class_big_data_stat_meth_1_1hdf5_dataset_internal.html#a910815c29fe20912239251623c5e3251" target="_top" xlink:title="Create a new internal dataset with optional compression.">
<polygon fill="white" stroke="#666666" points="340.25,-575.5 190,-575.5 190,-545 340.25,-545 340.25,-575.5"/>
<text xml:space="preserve" text-anchor="start" x="198" y="-562" font-family="Helvetica,sans-Serif" font-size="10.00">BigDataStatMeth::hdf5Dataset</text>
<text xml:space="preserve" text-anchor="middle" x="265.12" y="-550.75" font-family="Helvetica,sans-Serif" font-size="10.00">Internal::createDataset</text>
</a>
</g>
</g>
<!-- Node1&#45;&gt;Node2 -->
<g id="edge1_Node000001_Node000002" class="edge">
<title>Node1&#45;&gt;Node2</title>
<g id="a_edge1_Node000001_Node000002"><a xlink:title=" ">
<path fill="none" stroke="#63b8ff" d="M84.08,-379.99C97.81,-413.48 134.41,-492.27 190,-535.25 191.73,-536.59 193.54,-537.86 195.41,-539.06"/>
<polygon fill="#63b8ff" stroke="#63b8ff" points="193.41,-541.96 203.85,-543.81 196.84,-535.86 193.41,-541.96"/>
</a>
</g>
</g>
<!-- Node12 -->
<g id="Node000012" class="node">
<title>Node12</title>
<g id="a_Node000012"><a xlink:href="class_big_data_stat_meth_1_1hdf5_dataset.html#ac979eba40078c7c5974b64b2ce6347a3" target="_top" xlink:title="Get dataset name.">
<polygon fill="white" stroke="#666666" points="340.25,-526.5 190,-526.5 190,-496 340.25,-496 340.25,-526.5"/>
<text xml:space="preserve" text-anchor="start" x="198" y="-513" font-family="Helvetica,sans-Serif" font-size="10.00">BigDataStatMeth::hdf5Dataset</text>
<text xml:space="preserve" text-anchor="middle" x="265.12" y="-501.75" font-family="Helvetica,sans-Serif" font-size="10.00">::getDatasetName</text>
</a>
</g>
</g>
<!-- Node1&#45;&gt;Node12 -->
<g id="edge12_Node000001_Node000012" class="edge">
<title>Node1&#45;&gt;Node12</title>
<g id="a_edge12_Node000001_Node000012"><a xlink:title=" ">
<path fill="none" stroke="#63b8ff" d="M88.2,-379.67C105.94,-405.35 144.93,-456.93 190,-486.25 192.39,-487.81 194.89,-489.27 197.46,-490.66"/>
<polygon fill="#63b8ff" stroke="#63b8ff" points="195.77,-493.73 206.3,-494.94 198.82,-487.43 195.77,-493.73"/>
</a>
</g>
</g>
<!-- Node13 -->
<g id="Node000013" class="node">
<title>Node13</title>
<g id="a_Node000013"><a xlink:href="class_big_data_stat_meth_1_1hdf5_dataset.html#ae7e94f6d05d1a6cff2d24ec3f1b18fca" target="_top" xlink:title="Get file name.">
<polygon fill="white" stroke="#666666" points="340.25,-330.5 190,-330.5 190,-300 340.25,-300 340.25,-330.5"/>
<text xml:space="preserve" text-anchor="start" x="198" y="-317" font-family="Helvetica,sans-Serif" font-size="10.00">BigDataStatMeth::hdf5Dataset</text>
<text xml:space="preserve" text-anchor="middle" x="265.12" y="-305.75" font-family="Helvetica,sans-Serif" font-size="10.00">::getFileName</text>
</a>
</g>
</g>
<!-- Node1&#45;&gt;Node13 -->
<g id="edge13_Node000001_Node000013" class="edge">
<title>Node1&#45;&gt;Node13</title>
<g id="a_edge13_Node000001_Node000013"><a xlink:title=" ">
<path fill="none" stroke="#63b8ff" d="M137.66,-348.54C155.44,-343.86 175.1,-338.69 193.51,-333.84"/>
<polygon fill="#63b8ff" stroke="#63b8ff" points="194.24,-337.27 203.02,-331.34 192.46,-330.5 194.24,-337.27"/>
</a>
</g>
</g>
<!-- Node15 -->
<g id="Node000015" class="node">
<title>Node15</title>
<g id="a_Node000015"><a xlink:href="class_big_data_stat_meth_1_1hdf5_dataset.html#af4869e54b1d4c01ab4caacf1939e1907" target="_top" xlink:title="Get group name.">
<polygon fill="white" stroke="#666666" points="340.25,-428.5 190,-428.5 190,-398 340.25,-398 340.25,-428.5"/>
<text xml:space="preserve" text-anchor="start" x="198" y="-415" font-family="Helvetica,sans-Serif" font-size="10.00">BigDataStatMeth::hdf5Dataset</text>
<text xml:space="preserve" text-anchor="middle" x="265.12" y="-403.75" font-family="Helvetica,sans-Serif" font-size="10.00">::getGroup</text>
</a>
</g>
</g>
<!-- Node1&#45;&gt;Node15 -->
<g id="edge15_Node000001_Node000015" class="edge">
<title>Node1&#45;&gt;Node15</title>
<g id="a_edge15_Node000001_Node000015"><a xlink:title=" ">
<path fill="none" stroke="#63b8ff" d="M137.66,-379.96C155.44,-384.64 175.1,-389.81 193.51,-394.66"/>
<polygon fill="#63b8ff" stroke="#63b8ff" points="192.46,-398 203.02,-397.16 194.24,-391.23 192.46,-398"/>
</a>
</g>
</g>
<!-- Node16 -->
<g id="Node000016" class="node">
<title>Node16</title>
<g id="a_Node000016"><a xlink:href="class_big_data_stat_meth_1_1hdf5_dataset.html#a23bea87165b8ef6b944709c5b2cbd0cf" target="_top" xlink:title=" ">
<polygon fill="white" stroke="#666666" points="340.25,-281.5 190,-281.5 190,-251 340.25,-251 340.25,-281.5"/>
<text xml:space="preserve" text-anchor="start" x="198" y="-268" font-family="Helvetica,sans-Serif" font-size="10.00">BigDataStatMeth::hdf5Dataset</text>
<text xml:space="preserve" text-anchor="middle" x="265.12" y="-256.75" font-family="Helvetica,sans-Serif" font-size="10.00">::readDatasetBlock</text>
</a>
</g>
</g>
<!-- Node1&#45;&gt;Node16 -->
<g id="edge17_Node000001_Node000016" class="edge">
<title>Node1&#45;&gt;Node16</title>
<g id="a_edge17_Node000001_Node000016"><a xlink:title=" ">
<path fill="none" stroke="#63b8ff" d="M98.53,-348.59C120.3,-332.53 156.17,-307.65 190,-291.25 193.7,-289.46 197.56,-287.74 201.5,-286.1"/>
<polygon fill="#63b8ff" stroke="#63b8ff" points="202.58,-289.43 210.61,-282.52 200.02,-282.92 202.58,-289.43"/>
</a>
</g>
</g>
<!-- Node18 -->
<g id="Node000018" class="node">
<title>Node18</title>
<g id="a_Node000018"><a xlink:href="class_big_data_stat_meth_1_1hdf5_dataset_internal.html#ad96e4a35e00a9f908436172d63a125d8" target="_top" xlink:title="Read a block of data from internal dataset.">
<polygon fill="white" stroke="#666666" points="340.25,-379.5 190,-379.5 190,-349 340.25,-349 340.25,-379.5"/>
<text xml:space="preserve" text-anchor="start" x="198" y="-366" font-family="Helvetica,sans-Serif" font-size="10.00">BigDataStatMeth::hdf5Dataset</text>
<text xml:space="preserve" text-anchor="middle" x="265.12" y="-354.75" font-family="Helvetica,sans-Serif" font-size="10.00">Internal::readDatasetBlock</text>
</a>
</g>
</g>
<!-- Node1&#45;&gt;Node18 -->
<g id="edge19_Node000001_Node000018" class="edge">
<title>Node1&#45;&gt;Node18</title>
<g id="a_edge19_Node000001_Node000018"><a xlink:title=" ">
<path fill="none" stroke="#63b8ff" d="M154.24,-364.25C162.16,-364.25 170.24,-364.25 178.25,-364.25"/>
<polygon fill="#63b8ff" stroke="#63b8ff" points="177.99,-367.75 187.99,-364.25 177.99,-360.75 177.99,-367.75"/>
</a>
</g>
</g>
<!-- Node19 -->
<g id="Node000019" class="node">
<title>Node19</title>
<g id="a_Node000019"><a xlink:href="class_big_data_stat_meth_1_1hdf5_dataset.html#a248d5e9f269b92ef906ab3f78b3e42d8" target="_top" xlink:title="Remove the dataset.">
<polygon fill="white" stroke="#666666" points="340.25,-477.5 190,-477.5 190,-447 340.25,-447 340.25,-477.5"/>
<text xml:space="preserve" text-anchor="start" x="198" y="-464" font-family="Helvetica,sans-Serif" font-size="10.00">BigDataStatMeth::hdf5Dataset</text>
<text xml:space="preserve" text-anchor="middle" x="265.12" y="-452.75" font-family="Helvetica,sans-Serif" font-size="10.00">::remove</text>
</a>
</g>
</g>
<!-- Node1&#45;&gt;Node19 -->
<g id="edge21_Node000001_Node000019" class="edge">
<title>Node1&#45;&gt;Node19</title>
<g id="a_edge21_Node000001_Node000019"><a xlink:title=" ">
<path fill="none" stroke="#63b8ff" d="M98.53,-379.91C120.3,-395.97 156.17,-420.85 190,-437.25 193.7,-439.04 197.56,-440.76 201.5,-442.4"/>
<polygon fill="#63b8ff" stroke="#63b8ff" points="200.02,-445.58 210.61,-445.98 202.58,-439.07 200.02,-445.58"/>
</a>
</g>
</g>
<!-- Node20 -->
<g id="Node000020" class="node">
<title>Node20</title>
<g id="a_Node000020"><a xlink:href="class_big_data_stat_meth_1_1hdf5_dataset.html#af606176d84a63561b65702b6fde3a583" target="_top" xlink:title="Write block of data with optional transposition.">
<polygon fill="white" stroke="#666666" points="340.25,-232.5 190,-232.5 190,-202 340.25,-202 340.25,-232.5"/>
<text xml:space="preserve" text-anchor="start" x="198" y="-219" font-family="Helvetica,sans-Serif" font-size="10.00">BigDataStatMeth::hdf5Dataset</text>
<text xml:space="preserve" text-anchor="middle" x="265.12" y="-207.75" font-family="Helvetica,sans-Serif" font-size="10.00">::writeDatasetBlock</text>
</a>
</g>
</g>
<!-- Node1&#45;&gt;Node20 -->
<g id="edge24_Node000001_Node000020" class="edge">
<title>Node1&#45;&gt;Node20</title>
<g id="a_edge24_Node000001_Node000020"><a xlink:title=" ">
<path fill="none" stroke="#63b8ff" d="M88.2,-348.83C105.94,-323.15 144.93,-271.57 190,-242.25 192.39,-240.69 194.89,-239.23 197.46,-237.84"/>
<polygon fill="#63b8ff" stroke="#63b8ff" points="198.82,-241.07 206.3,-233.56 195.77,-234.77 198.82,-241.07"/>
</a>
</g>
</g>
<!-- Node24 -->
<g id="Node000024" class="node">
<title>Node24</title>
<g id="a_Node000024"><a xlink:href="class_big_data_stat_meth_1_1hdf5_dataset_internal.html#a4f988a5f93c2870e87c14d84f00e441c" target="_top" xlink:title="Write block of data to internal dataset.">
<polygon fill="white" stroke="#666666" points="340.25,-111.5 190,-111.5 190,-81 340.25,-81 340.25,-111.5"/>
<text xml:space="preserve" text-anchor="start" x="198" y="-98" font-family="Helvetica,sans-Serif" font-size="10.00">BigDataStatMeth::hdf5Dataset</text>
<text xml:space="preserve" text-anchor="middle" x="265.12" y="-86.75" font-family="Helvetica,sans-Serif" font-size="10.00">Internal::writeDatasetBlock</text>
</a>
</g>
</g>
<!-- Node1&#45;&gt;Node24 -->
<g id="edge29_Node000001_Node000024" class="edge">
<title>Node1&#45;&gt;Node24</title>
<g id="a_edge29_Node000001_Node000024"><a xlink:title=" ">
<path fill="none" stroke="#63b8ff" d="M87.52,-348.91C106.41,-318.67 150.21,-249.44 190,-193.25 207.89,-167.98 229.51,-139.96 244.76,-120.56"/>
<polygon fill="#63b8ff" stroke="#63b8ff" points="247.31,-122.99 250.76,-112.97 241.82,-118.65 247.31,-122.99"/>
</a>
</g>
</g>
<!-- Node3 -->
<g id="Node000003" class="node">
<title>Node3</title>
<g id="a_Node000003"><a xlink:href="class_big_data_stat_meth_1_1hdf5_dataset.html#ac7a7f23b7e22c9b56ca6ad86592f2d52" target="_top" xlink:title="Add an attribute to the dataset.">
<polygon fill="white" stroke="#666666" points="537,-673.5 386.75,-673.5 386.75,-643 537,-643 537,-673.5"/>
<text xml:space="preserve" text-anchor="start" x="394.75" y="-660" font-family="Helvetica,sans-Serif" font-size="10.00">BigDataStatMeth::hdf5Dataset</text>
<text xml:space="preserve" text-anchor="middle" x="461.88" y="-648.75" font-family="Helvetica,sans-Serif" font-size="10.00">::addAttribute</text>
</a>
</g>
</g>
<!-- Node2&#45;&gt;Node3 -->
<g id="edge2_Node000002_Node000003" class="edge">
<title>Node2&#45;&gt;Node3</title>
<g id="a_edge2_Node000002_Node000003"><a xlink:title=" ">
<path fill="none" stroke="#63b8ff" d="M285.75,-575.9C306.98,-592.17 342.36,-617.45 376.25,-633.25 380.47,-635.22 384.88,-637.07 389.37,-638.8"/>
<polygon fill="#63b8ff" stroke="#63b8ff" points="387.94,-642.01 398.54,-642.13 390.33,-635.43 387.94,-642.01"/>
</a>
</g>
</g>
<!-- Node4 -->
<g id="Node000004" class="node">
<title>Node4</title>
<g id="a_Node000004"><a xlink:href="class_big_data_stat_meth_1_1hdf5_group.html#a27cef4d33e46c72bfd792aa49fa621a3" target="_top" xlink:title="Create multiple nested groups.">
<polygon fill="white" stroke="#666666" points="532.88,-575.5 390.88,-575.5 390.88,-545 532.88,-545 532.88,-575.5"/>
<text xml:space="preserve" text-anchor="start" x="398.88" y="-562" font-family="Helvetica,sans-Serif" font-size="10.00">BigDataStatMeth::hdf5Group</text>
<text xml:space="preserve" text-anchor="middle" x="461.88" y="-550.75" font-family="Helvetica,sans-Serif" font-size="10.00">::create_HDF5_groups</text>
</a>
</g>
</g>
<!-- Node2&#45;&gt;Node4 -->
<g id="edge3_Node000002_Node000004" class="edge">
<title>Node2&#45;&gt;Node4</title>
<g id="a_edge3_Node000002_Node000004"><a xlink:title=" ">
<path fill="none" stroke="#63b8ff" d="M340.59,-560.25C353.29,-560.25 366.55,-560.25 379.43,-560.25"/>
<polygon fill="#63b8ff" stroke="#63b8ff" points="379.11,-563.75 389.11,-560.25 379.11,-556.75 379.11,-563.75"/>
</a>
</g>
</g>
<!-- Node6 -->
<g id="Node000006" class="node">
<title>Node6</title>
<g id="a_Node000006"><a xlink:href="namespace_big_data_stat_meth.html#a89d901ab4b5e01771f4e3fc7dc84e50e" target="_top" xlink:title="Checks if an HDF5 element (group or dataset) exists.">
<polygon fill="white" stroke="#666666" points="523.5,-624.5 400.25,-624.5 400.25,-594 523.5,-594 523.5,-624.5"/>
<text xml:space="preserve" text-anchor="start" x="408.25" y="-611" font-family="Helvetica,sans-Serif" font-size="10.00">BigDataStatMeth::exists</text>
<text xml:space="preserve" text-anchor="middle" x="461.88" y="-599.75" font-family="Helvetica,sans-Serif" font-size="10.00">_HDF5_element</text>
</a>
</g>
</g>
<!-- Node2&#45;&gt;Node6 -->
<g id="edge5_Node000002_Node000006" class="edge">
<title>Node2&#45;&gt;Node6</title>
<g id="a_edge5_Node000002_Node000006"><a xlink:title=" ">
<path fill="none" stroke="#63b8ff" d="M328.55,-575.96C347.7,-580.78 368.94,-586.12 388.69,-591.09"/>
<polygon fill="#63b8ff" stroke="#63b8ff" points="387.78,-594.47 398.33,-593.51 389.49,-587.68 387.78,-594.47"/>
</a>
</g>
</g>
<!-- Node7 -->
<g id="Node000007" class="node">
<title>Node7</title>
<g id="a_Node000007"><a xlink:href="class_big_data_stat_meth_1_1hdf5_group.html#a59995412538627e6c80f64b552c286f5" target="_top" xlink:title=" ">
<polygon fill="white" stroke="#666666" points="532.88,-428.5 390.88,-428.5 390.88,-398 532.88,-398 532.88,-428.5"/>
<text xml:space="preserve" text-anchor="start" x="398.88" y="-415" font-family="Helvetica,sans-Serif" font-size="10.00">BigDataStatMeth::hdf5Group</text>
<text xml:space="preserve" text-anchor="middle" x="461.88" y="-403.75" font-family="Helvetica,sans-Serif" font-size="10.00">::getGroupName</text>
</a>
</g>
</g>
<!-- Node2&#45;&gt;Node7 -->
<g id="edge7_Node000002_Node000007" class="edge">
<title>Node2&#45;&gt;Node7</title>
<g id="a_edge7_Node000002_Node000007"><a xlink:title=" ">
<path fill="none" stroke="#63b8ff" d="M327.78,-544.56C332.31,-541.92 336.55,-538.84 340.25,-535.25 373.25,-503.23 342.65,-469.64 376.25,-438.25 377.85,-436.76 379.53,-435.36 381.28,-434.04"/>
<polygon fill="#63b8ff" stroke="#63b8ff" points="382.73,-437.27 389.27,-428.93 378.96,-431.37 382.73,-437.27"/>
</a>
</g>
</g>
<!-- Node8 -->
<g id="Node000008" class="node">
<title>Node8</title>
<g id="a_Node000008"><a xlink:href="namespace_big_data_stat_meth.html#a3d06783149029f1df2853c472d401380" target="_top" xlink:title="Removes multiple elements from an HDF5 file.">
<polygon fill="white" stroke="#666666" points="526.5,-477.5 397.25,-477.5 397.25,-447 526.5,-447 526.5,-477.5"/>
<text xml:space="preserve" text-anchor="start" x="405.25" y="-464" font-family="Helvetica,sans-Serif" font-size="10.00">BigDataStatMeth::remove</text>
<text xml:space="preserve" text-anchor="middle" x="461.88" y="-452.75" font-family="Helvetica,sans-Serif" font-size="10.00">_elements</text>
</a>
</g>
</g>
<!-- Node2&#45;&gt;Node8 -->
<g id="edge8_Node000002_Node000008" class="edge">
<title>Node2&#45;&gt;Node8</title>
<g id="a_edge8_Node000002_Node000008"><a xlink:title=" ">
<path fill="none" stroke="#63b8ff" d="M324.09,-544.6C329.8,-541.93 335.3,-538.83 340.25,-535.25 361.86,-519.62 354.35,-502.47 376.25,-487.25 379.49,-485 382.94,-482.94 386.52,-481.07"/>
<polygon fill="#63b8ff" stroke="#63b8ff" points="387.92,-484.28 395.52,-476.91 384.97,-477.93 387.92,-484.28"/>
</a>
</g>
</g>
<!-- Node9 -->
<g id="Node000009" class="node">
<title>Node9</title>
<g id="a_Node000009"><a xlink:href="class_big_data_stat_meth_1_1hdf5_dataset_internal.html#a349b08ecc0bed2df5283e56fb9e9d178" target="_top" xlink:title="Write data to the internal dataset.">
<polygon fill="white" stroke="#666666" points="537,-526.5 386.75,-526.5 386.75,-496 537,-496 537,-526.5"/>
<text xml:space="preserve" text-anchor="start" x="394.75" y="-513" font-family="Helvetica,sans-Serif" font-size="10.00">BigDataStatMeth::hdf5Dataset</text>
<text xml:space="preserve" text-anchor="middle" x="461.88" y="-501.75" font-family="Helvetica,sans-Serif" font-size="10.00">Internal::writeDataset</text>
</a>
</g>
</g>
<!-- Node2&#45;&gt;Node9 -->
<g id="edge9_Node000002_Node000009" class="edge">
<title>Node2&#45;&gt;Node9</title>
<g id="a_edge9_Node000002_Node000009"><a xlink:title=" ">
<path fill="none" stroke="#63b8ff" d="M328.55,-544.54C347.33,-539.82 368.11,-534.59 387.53,-529.7"/>
<polygon fill="#63b8ff" stroke="#63b8ff" points="388.16,-533.15 397,-527.32 386.45,-526.37 388.16,-533.15"/>
</a>
</g>
</g>
<!-- Node5 -->
<g id="Node000005" class="node">
<title>Node5</title>
<g id="a_Node000005"><a xlink:href="namespace_big_data_stat_meth.html#abcaa4216cd52f03ebac42e4855ef846b" target="_top" xlink:title="Checks if a path exists in an HDF5 file.">
<polygon fill="white" stroke="#666666" points="730.38,-593.88 586.88,-593.88 586.88,-574.62 730.38,-574.62 730.38,-593.88"/>
<text xml:space="preserve" text-anchor="middle" x="658.62" y="-580.38" font-family="Helvetica,sans-Serif" font-size="10.00">BigDataStatMeth::pathExists</text>
</a>
</g>
</g>
<!-- Node4&#45;&gt;Node5 -->
<g id="edge4_Node000004_Node000005" class="edge">
<title>Node4&#45;&gt;Node5</title>
<g id="a_edge4_Node000004_Node000005"><a xlink:title=" ">
<path fill="none" stroke="#63b8ff" d="M533.18,-568.91C546.85,-570.6 561.3,-572.38 575.31,-574.11"/>
<polygon fill="#63b8ff" stroke="#63b8ff" points="574.58,-577.54 584.94,-575.29 575.44,-570.6 574.58,-577.54"/>
</a>
</g>
</g>
<!-- Node6&#45;&gt;Node5 -->
<g id="edge6_Node000006_Node000005" class="edge">
<title>Node6&#45;&gt;Node5</title>
<g id="a_edge6_Node000006_Node000005"><a xlink:title=" ">
<path fill="none" stroke="#63b8ff" d="M523.96,-601.41C540.25,-599.32 558.12,-597.02 575.34,-594.81"/>
<polygon fill="#63b8ff" stroke="#63b8ff" points="575.57,-598.31 585.04,-593.57 574.68,-591.37 575.57,-598.31"/>
</a>
</g>
</g>
<!-- Node10 -->
<g id="Node000010" class="node">
<title>Node10</title>
<g id="a_Node000010"><a xlink:href="class_big_data_stat_meth_1_1hdf5_dataset_internal.html#a91d48a0c7186c87eb0af78f426ce6a4d" target="_top" xlink:title="Close dataset and file.">
<polygon fill="white" stroke="#666666" points="733.75,-382.5 583.5,-382.5 583.5,-352 733.75,-352 733.75,-382.5"/>
<text xml:space="preserve" text-anchor="start" x="591.5" y="-369" font-family="Helvetica,sans-Serif" font-size="10.00">BigDataStatMeth::hdf5Dataset</text>
<text xml:space="preserve" text-anchor="middle" x="658.62" y="-357.75" font-family="Helvetica,sans-Serif" font-size="10.00">Internal::close_dataset_file</text>
</a>
</g>
</g>
<!-- Node9&#45;&gt;Node10 -->
<g id="edge10_Node000009_Node000010" class="edge">
<title>Node9&#45;&gt;Node10</title>
<g id="a_edge10_Node000009_Node000010"><a xlink:title=" ">
<path fill="none" stroke="#63b8ff" d="M529.08,-495.53C535.52,-492.88 541.77,-489.81 547.5,-486.25 587.11,-461.65 621.57,-419.06 640.96,-392.06"/>
<polygon fill="#63b8ff" stroke="#63b8ff" points="643.65,-394.32 646.53,-384.12 637.92,-390.29 643.65,-394.32"/>
</a>
</g>
</g>
<!-- Node11 -->
<g id="Node000011" class="node">
<title>Node11</title>
<g id="a_Node000011"><a xlink:href="class_big_data_stat_meth_1_1hdf5_dataset_internal.html#a152c59a2a409e1883e3834a26170ed59" target="_top" xlink:title="Convert DataFrame to range list.">
<polygon fill="white" stroke="#666666" points="733.75,-207.12 583.5,-207.12 583.5,-165.38 733.75,-165.38 733.75,-207.12"/>
<text xml:space="preserve" text-anchor="start" x="591.5" y="-193.62" font-family="Helvetica,sans-Serif" font-size="10.00">BigDataStatMeth::hdf5Dataset</text>
<text xml:space="preserve" text-anchor="start" x="591.5" y="-182.38" font-family="Helvetica,sans-Serif" font-size="10.00">Internal::convert_DataFrame</text>
<text xml:space="preserve" text-anchor="middle" x="658.62" y="-171.12" font-family="Helvetica,sans-Serif" font-size="10.00">_to_RangeList</text>
</a>
</g>
</g>
<!-- Node9&#45;&gt;Node11 -->
<g id="edge11_Node000009_Node000011" class="edge">
<title>Node9&#45;&gt;Node11</title>
<g id="a_edge11_Node000009_Node000011"><a xlink:title=" ">
<path fill="none" stroke="#63b8ff" d="M535.67,-495.69C539.99,-493.02 544,-489.9 547.5,-486.25 592.89,-438.98 561.41,-404.95 583.5,-343.25 599.66,-298.12 624.35,-248.48 640.73,-217.34"/>
<polygon fill="#63b8ff" stroke="#63b8ff" points="643.63,-219.34 645.23,-208.86 637.45,-216.05 643.63,-219.34"/>
</a>
</g>
</g>
<!-- Node14 -->
<g id="Node000014" class="node">
<title>Node14</title>
<g id="a_Node000014"><a xlink:href="class_big_data_stat_meth_1_1hdf5_file.html#abb50d96e6674ac770e4f27f650ad34cb" target="_top" xlink:title="Get filename.">
<polygon fill="white" stroke="#666666" points="527.62,-339.5 396.12,-339.5 396.12,-309 527.62,-309 527.62,-339.5"/>
<text xml:space="preserve" text-anchor="start" x="404.12" y="-326" font-family="Helvetica,sans-Serif" font-size="10.00">BigDataStatMeth::hdf5File</text>
<text xml:space="preserve" text-anchor="middle" x="461.88" y="-314.75" font-family="Helvetica,sans-Serif" font-size="10.00">::getFilename</text>
</a>
</g>
</g>
<!-- Node13&#45;&gt;Node14 -->
<g id="edge14_Node000013_Node000014" class="edge">
<title>Node13&#45;&gt;Node14</title>
<g id="a_edge14_Node000013_Node000014"><a xlink:title=" ">
<path fill="none" stroke="#63b8ff" d="M340.59,-318.69C354.9,-319.35 369.92,-320.05 384.31,-320.71"/>
<polygon fill="#63b8ff" stroke="#63b8ff" points="384.02,-324.2 394.17,-321.17 384.34,-317.21 384.02,-324.2"/>
</a>
</g>
</g>
<!-- Node15&#45;&gt;Node7 -->
<g id="edge16_Node000015_Node000007" class="edge">
<title>Node15&#45;&gt;Node7</title>
<g id="a_edge16_Node000015_Node000007"><a xlink:title=" ">
<path fill="none" stroke="#63b8ff" d="M340.59,-413.25C353.29,-413.25 366.55,-413.25 379.43,-413.25"/>
<polygon fill="#63b8ff" stroke="#63b8ff" points="379.11,-416.75 389.11,-413.25 379.11,-409.75 379.11,-416.75"/>
</a>
</g>
</g>
<!-- Node17 -->
<g id="Node000017" class="node">
<title>Node17</title>
<g id="a_Node000017"><a xlink:href="class_big_data_stat_meth_1_1hdf5_dataset.html#aba39e56a580d3b1fa7f1619fc72efa3e" target="_top" xlink:title="Close dataset and file.">
<polygon fill="white" stroke="#666666" points="537,-290.5 386.75,-290.5 386.75,-260 537,-260 537,-290.5"/>
<text xml:space="preserve" text-anchor="start" x="394.75" y="-277" font-family="Helvetica,sans-Serif" font-size="10.00">BigDataStatMeth::hdf5Dataset</text>
<text xml:space="preserve" text-anchor="middle" x="461.88" y="-265.75" font-family="Helvetica,sans-Serif" font-size="10.00">::close_dataset_file</text>
</a>
</g>
</g>
<!-- Node16&#45;&gt;Node17 -->
<g id="edge18_Node000016_Node000017" class="edge">
<title>Node16&#45;&gt;Node17</title>
<g id="a_edge18_Node000016_Node000017"><a xlink:title=" ">
<path fill="none" stroke="#63b8ff" d="M340.59,-269.69C351.86,-270.21 363.57,-270.75 375.06,-271.28"/>
<polygon fill="#63b8ff" stroke="#63b8ff" points="374.79,-274.78 384.94,-271.74 375.12,-267.78 374.79,-274.78"/>
</a>
</g>
</g>
<!-- Node18&#45;&gt;Node10 -->
<g id="edge20_Node000018_Node000010" class="edge">
<title>Node18&#45;&gt;Node10</title>
<g id="a_edge20_Node000018_Node000010"><a xlink:title=" ">
<path fill="none" stroke="#63b8ff" d="M340.68,-364.82C406.57,-365.33 502.65,-366.06 571.73,-366.59"/>
<polygon fill="#63b8ff" stroke="#63b8ff" points="571.47,-370.09 581.5,-366.67 571.52,-363.09 571.47,-370.09"/>
</a>
</g>
</g>
<!-- Node19&#45;&gt;Node7 -->
<g id="edge22_Node000019_Node000007" class="edge">
<title>Node19&#45;&gt;Node7</title>
<g id="a_edge22_Node000019_Node000007"><a xlink:title=" ">
<path fill="none" stroke="#63b8ff" d="M328.55,-446.54C347.33,-441.82 368.11,-436.59 387.53,-431.7"/>
<polygon fill="#63b8ff" stroke="#63b8ff" points="388.16,-435.15 397,-429.32 386.45,-428.37 388.16,-435.15"/>
</a>
</g>
</g>
<!-- Node19&#45;&gt;Node8 -->
<g id="edge23_Node000019_Node000008" class="edge">
<title>Node19&#45;&gt;Node8</title>
<g id="a_edge23_Node000019_Node000008"><a xlink:title=" ">
<path fill="none" stroke="#63b8ff" d="M340.59,-462.25C355.39,-462.25 370.94,-462.25 385.77,-462.25"/>
<polygon fill="#63b8ff" stroke="#63b8ff" points="385.42,-465.75 395.42,-462.25 385.42,-458.75 385.42,-465.75"/>
</a>
</g>
</g>
<!-- Node20&#45;&gt;Node17 -->
<g id="edge26_Node000020_Node000017" class="edge">
<title>Node20&#45;&gt;Node17</title>
<g id="a_edge26_Node000020_Node000017"><a xlink:title=" ">
<path fill="none" stroke="#63b8ff" d="M318.49,-232.99C336.76,-238.47 357.41,-244.64 376.25,-250.25 382.9,-252.23 389.84,-254.29 396.77,-256.34"/>
<polygon fill="#63b8ff" stroke="#63b8ff" points="395.56,-259.63 406.15,-259.12 397.55,-252.92 395.56,-259.63"/>
</a>
</g>
</g>
<!-- Node21 -->
<g id="Node000021" class="node">
<title>Node21</title>
<g id="a_Node000021"><a xlink:href="class_big_data_stat_meth_1_1hdf5_dataset.html#a64177ae924792ea9e557febaa95ed400" target="_top" xlink:title="Close the dataset.">
<polygon fill="white" stroke="#666666" points="537,-192.5 386.75,-192.5 386.75,-162 537,-162 537,-192.5"/>
<text xml:space="preserve" text-anchor="start" x="394.75" y="-179" font-family="Helvetica,sans-Serif" font-size="10.00">BigDataStatMeth::hdf5Dataset</text>
<text xml:space="preserve" text-anchor="middle" x="461.88" y="-167.75" font-family="Helvetica,sans-Serif" font-size="10.00">::close_dataset</text>
</a>
</g>
</g>
<!-- Node20&#45;&gt;Node21 -->
<g id="edge25_Node000020_Node000021" class="edge">
<title>Node20&#45;&gt;Node21</title>
<g id="a_edge25_Node000020_Node000021"><a xlink:title=" ">
<path fill="none" stroke="#63b8ff" d="M340.59,-201.96C351.98,-199.62 363.81,-197.19 375.42,-194.8"/>
<polygon fill="#63b8ff" stroke="#63b8ff" points="375.88,-198.28 384.97,-192.84 374.47,-191.42 375.88,-198.28"/>
</a>
</g>
</g>
<!-- Node22 -->
<g id="Node000022" class="node">
<title>Node22</title>
<g id="a_Node000022"><a xlink:href="class_big_data_stat_meth_1_1hdf5_dataset.html#a94d81b72e92cb0230b4e64f37ea7d2e3" target="_top" xlink:title="Convert DataFrame to range list.">
<polygon fill="white" stroke="#666666" points="547.5,-241.5 376.25,-241.5 376.25,-211 547.5,-211 547.5,-241.5"/>
<text xml:space="preserve" text-anchor="start" x="384.25" y="-228" font-family="Helvetica,sans-Serif" font-size="10.00">BigDataStatMeth::hdf5Dataset</text>
<text xml:space="preserve" text-anchor="middle" x="461.88" y="-216.75" font-family="Helvetica,sans-Serif" font-size="10.00">::convert_DataFrame_to_RangeList</text>
</a>
</g>
</g>
<!-- Node20&#45;&gt;Node22 -->
<g id="edge27_Node000020_Node000022" class="edge">
<title>Node20&#45;&gt;Node22</title>
<g id="a_edge27_Node000020_Node000022"><a xlink:title=" ">
<path fill="none" stroke="#63b8ff" d="M340.59,-220.69C348.47,-221.06 356.56,-221.43 364.65,-221.8"/>
<polygon fill="#63b8ff" stroke="#63b8ff" points="364.38,-225.29 374.53,-222.26 364.71,-218.3 364.38,-225.29"/>
</a>
</g>
</g>
<!-- Node23 -->
<g id="Node000023" class="node">
<title>Node23</title>
<g id="a_Node000023"><a xlink:href="namespace_big_data_stat_meth.html#a2692707b3ea4aaafa09d07afaf632437" target="_top" xlink:title="Transposes a 2D matrix.">
<polygon fill="white" stroke="#666666" points="531.75,-143.88 392,-143.88 392,-124.62 531.75,-124.62 531.75,-143.88"/>
<text xml:space="preserve" text-anchor="middle" x="461.88" y="-130.38" font-family="Helvetica,sans-Serif" font-size="10.00">BigDataStatMeth::transpose</text>
</a>
</g>
</g>
<!-- Node20&#45;&gt;Node23 -->
<g id="edge28_Node000020_Node000023" class="edge">
<title>Node20&#45;&gt;Node23</title>
<g id="a_edge28_Node000020_Node000023"><a xlink:title=" ">
<path fill="none" stroke="#63b8ff" d="M288.29,-201.62C309.83,-187.12 343.93,-165.92 376.25,-153.25 381.86,-151.05 387.78,-149.08 393.78,-147.31"/>
<polygon fill="#63b8ff" stroke="#63b8ff" points="394.43,-150.76 403.15,-144.74 392.58,-144.01 394.43,-150.76"/>
</a>
</g>
</g>
<!-- Node24&#45;&gt;Node10 -->
<g id="edge31_Node000024_Node000010" class="edge">
<title>Node24&#45;&gt;Node10</title>
<g id="a_edge31_Node000024_Node000010"><a xlink:title=" ">
<path fill="none" stroke="#63b8ff" d="M340.63,-92.33C412.89,-90.08 516.07,-91.46 547.5,-115.25 585.5,-144.01 564.97,-172.34 583.5,-216.25 602.51,-261.3 628.36,-312.02 643.98,-341.71"/>
<polygon fill="#63b8ff" stroke="#63b8ff" points="640.76,-343.11 648.52,-350.32 646.94,-339.84 640.76,-343.11"/>
</a>
</g>
</g>
<!-- Node24&#45;&gt;Node11 -->
<g id="edge32_Node000024_Node000011" class="edge">
<title>Node24&#45;&gt;Node11</title>
<g id="a_edge32_Node000024_Node000011"><a xlink:title=" ">
<path fill="none" stroke="#63b8ff" d="M320.68,-80.52C379.03,-66.61 473.19,-52.71 547.5,-82.25 584.55,-96.98 616.35,-130.75 636.11,-155.83"/>
<polygon fill="#63b8ff" stroke="#63b8ff" points="633.32,-157.94 642.17,-163.76 638.88,-153.69 633.32,-157.94"/>
</a>
</g>
</g>
<!-- Node24&#45;&gt;Node23 -->
<g id="edge33_Node000024_Node000023" class="edge">
<title>Node24&#45;&gt;Node23</title>
<g id="a_edge33_Node000024_Node000023"><a xlink:title=" ">
<path fill="none" stroke="#63b8ff" d="M340.59,-110.78C359.53,-114.47 379.69,-118.41 397.99,-121.98"/>
<polygon fill="#63b8ff" stroke="#63b8ff" points="397.15,-125.38 407.63,-123.86 398.49,-118.51 397.15,-125.38"/>
</a>
</g>
</g>
<!-- Node25 -->
<g id="Node000025" class="node">
<title>Node25</title>
<g id="a_Node000025"><a xlink:href="class_big_data_stat_meth_1_1hdf5_dataset_internal.html#a0453f8502bee6dd35be2ec196e9edc55" target="_top" xlink:title="Close the dataset.">
<polygon fill="white" stroke="#666666" points="537,-30.5 386.75,-30.5 386.75,0 537,0 537,-30.5"/>
<text xml:space="preserve" text-anchor="start" x="394.75" y="-17" font-family="Helvetica,sans-Serif" font-size="10.00">BigDataStatMeth::hdf5Dataset</text>
<text xml:space="preserve" text-anchor="middle" x="461.88" y="-5.75" font-family="Helvetica,sans-Serif" font-size="10.00">Internal::close_dataset</text>
</a>
</g>
</g>
<!-- Node24&#45;&gt;Node25 -->
<g id="edge30_Node000024_Node000025" class="edge">
<title>Node24&#45;&gt;Node25</title>
<g id="a_edge30_Node000024_Node000025"><a xlink:title=" ">
<path fill="none" stroke="#63b8ff" d="M297.04,-80.52C318.89,-69.69 349.02,-55.31 376.25,-44.25 384.34,-40.96 392.97,-37.72 401.5,-34.66"/>
<polygon fill="#63b8ff" stroke="#63b8ff" points="402.5,-38.02 410.77,-31.4 400.18,-31.42 402.5,-38.02"/>
</a>
</g>
</g>
</g>
</svg>

<g id="navigator" transform="translate(0 0)" fill="#404254">
  <rect fill="#f2f5e9" fill-opacity="0.5" stroke="#606060" stroke-width=".5" x="0" y="0" width="60" height="60"/>
  <use id="zoomplus" xlink:href="#zoomPlus" x="17" y="9" onmousedown="handleZoom(evt,'in')"/>
  <use id="zoomminus" xlink:href="#zoomMin" x="42" y="9" onmousedown="handleZoom(evt,'out')"/>
  <use id="reset" xlink:href="#resetDef" x="30" y="36" onmousedown="handleReset()"/>
   <use id="arrowup" xlink:href="#arrowUp" x="0" y="0" onmousedown="handlePan(0,-1)"/>
  <use id="arrowright" xlink:href="#arrowRight" x="0" y="0" onmousedown="handlePan(1,0)"/>
  <use id="arrowdown" xlink:href="#arrowDown" x="0" y="0" onmousedown="handlePan(0,1)"/>
  <use id="arrowleft" xlink:href="#arrowLeft" x="0" y="0" onmousedown="handlePan(-1,0)"/>
</g>
<svg viewBox="0 0 15 15" width="100%" height="30px" preserveAspectRatio="xMaxYMin meet">
 <g id="arrow_out" transform="scale(0.3 0.3)">
  <a xlink:href="namespace_big_data_stat_meth_acc7302fb99432acf666987d6a505bee6_cgraph_org.svg" target="_base">
   <rect id="button" ry="5" rx="5" y="6" x="6" height="38" width="38"
        fill="#f2f5e9" fill-opacity="0.5" stroke="#606060" stroke-width="1.0"/>
   <path id="arrow"
     d="M 11.500037,31.436501 C 11.940474,20.09759 22.043105,11.32322 32.158766,21.979434 L 37.068811,17.246167 C 37.068811,17.246167 37.088388,32 37.088388,32 L 22.160133,31.978069 C 22.160133,31.978069 26.997745,27.140456 26.997745,27.140456 C 18.528582,18.264221 13.291696,25.230495 11.500037,31.436501 z"
     style="fill:#404040;"/>
  </a>
 </g>
</svg>

<style type='text/css'>
<![CDATA[
[data-mouse-over-selected='false'] { opacity: 0.7; }
[data-mouse-over-selected='true']  { opacity: 1.0; }
]]>
</style>
<script type="application/ecmascript"><![CDATA[
document.addEventListener('DOMContentLoaded', (event) => {
  highlightEdges();
  highlightAdjacentNodes();
});
]]></script>
</svg>
