<?xml version="1.0" encoding="UTF-8" standalone="no"?>
<!DOCTYPE svg PUBLIC "-//W3C//DTD SVG 1.1//EN"
 "http://www.w3.org/Graphics/SVG/1.1/DTD/svg11.dtd">
<!-- Generated by graphviz version 14.0.0 (20250921.2048)
 -->
<!-- Title: BigDataStatMeth::RcppNormalizeHdf5 Pages: 1 -->
<!--zoomable 750 -->

<svg id="main" version="1.1" xmlns="http://www.w3.org/2000/svg" xmlns:xlink="http://www.w3.org/1999/xlink" xml:space="preserve" onload="init(evt)">

<style type="text/css"><![CDATA[
.node, .edge {opacity: 0.7;}
.node.selected, .edge.selected {opacity: 1;}
.edge:hover path { stroke: red; }
.edge:hover polygon { stroke: red; fill: red; }
]]></style>

<defs>
  <circle id="rim" cx="0" cy="0" r="7"/>
  <circle id="rim2" cx="0" cy="0" r="3.5"/>
  <g id="zoomPlus">
    <use xlink:href="#rim" fill="#404040"><set attributeName="fill" to="#808080" begin="zoomplus.mouseover" end="zoomplus.mouseout"/></use>
    <path d="M-4,0h8M0,-4v8" fill="none" stroke="white" stroke-width="1.5" pointer-events="none"/>
  </g>
  <g id="zoomMin">
    <use xlink:href="#rim" fill="#404040"><set attributeName="fill" to="#808080" begin="zoomminus.mouseover" end="zoomminus.mouseout"/></use>
    <path d="M-4,0h8" fill="none" stroke="white" stroke-width="1.5" pointer-events="none"/>
  </g>
  <g id="arrowUp" transform="translate(30 24)">
    <use xlink:href="#rim"/>
    <path pointer-events="none" fill="none" stroke="white" stroke-width="1.5" d="M0,-3.0v7 M-2.5,-0.5L0,-3.0L2.5,-0.5"/>
  </g>
  <g id="arrowRight" transform="rotate(90) translate(36 -43)">
    <use xlink:href="#rim"/>
    <path pointer-events="none" fill="none" stroke="white" stroke-width="1.5" d="M0,-3.0v7 M-2.5,-0.5L0,-3.0L2.5,-0.5"/>
  </g>
  <g id="arrowDown" transform="rotate(180) translate(-30 -48)">
    <use xlink:href="#rim"/>
    <path pointer-events="none" fill="none" stroke="white" stroke-width="1.5" d="M0,-3.0v7 M-2.5,-0.5L0,-3.0L2.5,-0.5"/>
  </g>
  <g id="arrowLeft" transform="rotate(270) translate(-36 17)">
    <use xlink:href="#rim"/>
    <path pointer-events="none" fill="none" stroke="white" stroke-width="1.5" d="M0,-3.0v7 M-2.5,-0.5L0,-3.0L2.5,-0.5"/>
  </g>
  <g id="resetDef">
    <use xlink:href="#rim2" fill="#404040"><set attributeName="fill" to="#808080" begin="reset.mouseover" end="reset.mouseout"/></use>
  </g>
</defs>
<script type="application/ecmascript">
var viewWidth = 830;
var viewHeight = 750;
var sectionId = 'dynsection-160';
</script>
<script type="application/ecmascript" xlink:href="../../../../assets/svg.min.js"/>
<svg id="graph" class="graph">
<g id="viewport">
<title>BigDataStatMeth::RcppNormalizeHdf5</title>
<!-- Node1 -->
<g id="Node000001" class="node">
<title>Node1</title>
<g id="a_Node000001"><a xlink:title=" ">
<polygon fill="#999999" stroke="#666666" points="185.5,-394.88 0,-394.88 0,-375.62 185.5,-375.62 185.5,-394.88"/>
<text xml:space="preserve" text-anchor="middle" x="92.75" y="-381.38" font-family="Helvetica,sans-Serif" font-size="10.00">BigDataStatMeth::RcppNormalizeHdf5</text>
</a>
</g>
</g>
<!-- Node2 -->
<g id="Node000002" class="node">
<title>Node2</title>
<g id="a_Node000002"><a xlink:href="namespace_big_data_stat_meth.html#a304b42b14ec87d4acc6f34ff0231529d" target="_top" xlink:title="Safely close any number of dataset handles (C++17).">
<polygon fill="white" stroke="#666666" points="612.38,-704.88 445.62,-704.88 445.62,-685.62 612.38,-685.62 612.38,-704.88"/>
<text xml:space="preserve" text-anchor="middle" x="529" y="-691.38" font-family="Helvetica,sans-Serif" font-size="10.00">BigDataStatMeth::checkClose_file</text>
</a>
</g>
</g>
<!-- Node1&#45;&gt;Node2 -->
<g id="edge1_Node000001_Node000002" class="edge">
<title>Node1&#45;&gt;Node2</title>
<g id="a_edge1_Node000001_Node000002"><a xlink:title=" ">
<path fill="none" stroke="#63b8ff" d="M94.57,-395.28C98.65,-438.03 120.84,-605.97 221.5,-676.25 296.71,-728.76 409.26,-719.27 475,-707.4"/>
<polygon fill="#63b8ff" stroke="#63b8ff" points="475.26,-710.91 484.43,-705.61 473.95,-704.04 475.26,-710.91"/>
</a>
</g>
</g>
<!-- Node3 -->
<g id="Node000003" class="node">
<title>Node3</title>
<g id="a_Node000003"><a xlink:href="class_big_data_stat_meth_1_1hdf5_dataset.html#ab19bac9a31efe4a733294c1c23ff5ef7" target="_top" xlink:title="Create a new dataset with optional compression.">
<polygon fill="white" stroke="#666666" points="389.38,-300.5 239.12,-300.5 239.12,-270 389.38,-270 389.38,-300.5"/>
<text xml:space="preserve" text-anchor="start" x="247.12" y="-287" font-family="Helvetica,sans-Serif" font-size="10.00">BigDataStatMeth::hdf5Dataset</text>
<text xml:space="preserve" text-anchor="middle" x="314.25" y="-275.75" font-family="Helvetica,sans-Serif" font-size="10.00">::createDataset</text>
</a>
</g>
</g>
<!-- Node1&#45;&gt;Node3 -->
<g id="edge2_Node000001_Node000003" class="edge">
<title>Node1&#45;&gt;Node3</title>
<g id="a_edge2_Node000001_Node000003"><a xlink:title=" ">
<path fill="none" stroke="#63b8ff" d="M115.6,-375.3C151.11,-359.12 222.06,-326.8 268.58,-305.6"/>
<polygon fill="#63b8ff" stroke="#63b8ff" points="269.95,-308.82 277.6,-301.49 267.05,-302.45 269.95,-308.82"/>
</a>
</g>
</g>
<!-- Node9 -->
<g id="Node000009" class="node">
<title>Node9</title>
<g id="a_Node000009"><a xlink:href="class_big_data_stat_meth_1_1hdf5_group.html#a59995412538627e6c80f64b552c286f5" target="_top" xlink:title=" ">
<polygon fill="white" stroke="#666666" points="600,-79.5 458,-79.5 458,-49 600,-49 600,-79.5"/>
<text xml:space="preserve" text-anchor="start" x="466" y="-66" font-family="Helvetica,sans-Serif" font-size="10.00">BigDataStatMeth::hdf5Group</text>
<text xml:space="preserve" text-anchor="middle" x="529" y="-54.75" font-family="Helvetica,sans-Serif" font-size="10.00">::getGroupName</text>
</a>
</g>
</g>
<!-- Node1&#45;&gt;Node9 -->
<g id="edge29_Node000001_Node000009" class="edge">
<title>Node1&#45;&gt;Node9</title>
<g id="a_edge29_Node000001_Node000009"><a xlink:title=" ">
<path fill="none" stroke="#63b8ff" d="M100.78,-375.28C118.2,-351.36 166.03,-290.57 221.5,-261.25 295.9,-221.92 345.72,-280.93 407,-223.25 451.9,-180.98 399.91,-133.37 443,-89.25 444.75,-87.46 446.61,-85.8 448.58,-84.26"/>
<polygon fill="#63b8ff" stroke="#63b8ff" points="450.07,-87.47 456.49,-79.04 446.22,-81.62 450.07,-87.47"/>
</a>
</g>
</g>
<!-- Node11 -->
<g id="Node000011" class="node">
<title>Node11</title>
<g id="a_Node000011"><a xlink:href="class_big_data_stat_meth_1_1hdf5_dataset.html#acf9843abcb57a0090f1635cc69d95300" target="_top" xlink:title="Write data to the dataset.">
<polygon fill="white" stroke="#666666" points="604.12,-373.5 453.88,-373.5 453.88,-343 604.12,-343 604.12,-373.5"/>
<text xml:space="preserve" text-anchor="start" x="461.88" y="-360" font-family="Helvetica,sans-Serif" font-size="10.00">BigDataStatMeth::hdf5Dataset</text>
<text xml:space="preserve" text-anchor="middle" x="529" y="-348.75" font-family="Helvetica,sans-Serif" font-size="10.00">::writeDataset</text>
</a>
</g>
</g>
<!-- Node1&#45;&gt;Node11 -->
<g id="edge41_Node000001_Node000011" class="edge">
<title>Node1&#45;&gt;Node11</title>
<g id="a_edge41_Node000001_Node000011"><a xlink:title=" ">
<path fill="none" stroke="#63b8ff" d="M185.84,-379.52C261.74,-374.8 368.56,-368.16 442.57,-363.56"/>
<polygon fill="#63b8ff" stroke="#63b8ff" points="442.42,-367.08 452.19,-362.96 441.99,-360.09 442.42,-367.08"/>
</a>
</g>
</g>
<!-- Node14 -->
<g id="Node000014" class="node">
<title>Node14</title>
<g id="a_Node000014"><a xlink:href="namespace_big_data_stat_meth.html#a74ce60b67b2d8eb66be38b96cc7b3ff5" target="_top" xlink:title="Calculate column&#45;wise mean and standard deviation.">
<polygon fill="white" stroke="#666666" points="386.75,-618.5 241.75,-618.5 241.75,-588 386.75,-588 386.75,-618.5"/>
<text xml:space="preserve" text-anchor="start" x="249.75" y="-605" font-family="Helvetica,sans-Serif" font-size="10.00">BigDataStatMeth::get</text>
<text xml:space="preserve" text-anchor="middle" x="314.25" y="-593.75" font-family="Helvetica,sans-Serif" font-size="10.00">_HDF5_mean_sd_by_column</text>
</a>
</g>
</g>
<!-- Node1&#45;&gt;Node14 -->
<g id="edge14_Node000001_Node000014" class="edge">
<title>Node1&#45;&gt;Node14</title>
<g id="a_edge14_Node000001_Node000014"><a xlink:title=" ">
<path fill="none" stroke="#63b8ff" d="M99.63,-395.07C116.14,-422.09 165.43,-498.77 221.5,-548.25 236.26,-561.28 254.53,-572.94 270.87,-582.15"/>
<polygon fill="#63b8ff" stroke="#63b8ff" points="268.96,-585.09 279.42,-586.82 272.32,-578.95 268.96,-585.09"/>
</a>
</g>
</g>
<!-- Node18 -->
<g id="Node000018" class="node">
<title>Node18</title>
<g id="a_Node000018"><a xlink:href="namespace_big_data_stat_meth.html#a7cab0fb0e96ea7e4710923626e6095e6" target="_top" xlink:title="Calculate row&#45;wise mean and standard deviation.">
<polygon fill="white" stroke="#666666" points="378.88,-667.5 249.62,-667.5 249.62,-637 378.88,-637 378.88,-667.5"/>
<text xml:space="preserve" text-anchor="start" x="257.62" y="-654" font-family="Helvetica,sans-Serif" font-size="10.00">BigDataStatMeth::get</text>
<text xml:space="preserve" text-anchor="middle" x="314.25" y="-642.75" font-family="Helvetica,sans-Serif" font-size="10.00">_HDF5_mean_sd_by_row</text>
</a>
</g>
</g>
<!-- Node1&#45;&gt;Node18 -->
<g id="edge20_Node000001_Node000018" class="edge">
<title>Node1&#45;&gt;Node18</title>
<g id="a_edge20_Node000001_Node000018"><a xlink:title=" ">
<path fill="none" stroke="#63b8ff" d="M95.96,-395.13C104.7,-431.94 140.49,-562.34 221.5,-627.25 226.7,-631.42 232.54,-634.89 238.69,-637.79"/>
<polygon fill="#63b8ff" stroke="#63b8ff" points="237.29,-641 247.87,-641.56 239.96,-634.52 237.29,-641"/>
</a>
</g>
</g>
<!-- Node19 -->
<g id="Node000019" class="node">
<title>Node19</title>
<g id="a_Node000019"><a xlink:href="class_big_data_stat_meth_1_1hdf5_dataset.html#ac979eba40078c7c5974b64b2ce6347a3" target="_top" xlink:title="Get dataset name.">
<polygon fill="white" stroke="#666666" points="389.38,-214.5 239.12,-214.5 239.12,-184 389.38,-184 389.38,-214.5"/>
<text xml:space="preserve" text-anchor="start" x="247.12" y="-201" font-family="Helvetica,sans-Serif" font-size="10.00">BigDataStatMeth::hdf5Dataset</text>
<text xml:space="preserve" text-anchor="middle" x="314.25" y="-189.75" font-family="Helvetica,sans-Serif" font-size="10.00">::getDatasetName</text>
</a>
</g>
</g>
<!-- Node1&#45;&gt;Node19 -->
<g id="edge25_Node000001_Node000019" class="edge">
<title>Node1&#45;&gt;Node19</title>
<g id="a_edge25_Node000001_Node000019"><a xlink:title=" ">
<path fill="none" stroke="#63b8ff" d="M98.94,-375.49C114.05,-348.05 160.76,-269.53 221.5,-228.25 226.3,-224.99 231.48,-222.08 236.86,-219.48"/>
<polygon fill="#63b8ff" stroke="#63b8ff" points="238.25,-222.7 246.01,-215.48 235.45,-216.28 238.25,-222.7"/>
</a>
</g>
</g>
<!-- Node20 -->
<g id="Node000020" class="node">
<title>Node20</title>
<g id="a_Node000020"><a xlink:href="class_big_data_stat_meth_1_1hdf5_dataset.html#a00ef08e5d548410faaea7892c87c343a" target="_top" xlink:title="Get dataset pointer.">
<polygon fill="white" stroke="#666666" points="389.38,-165.5 239.12,-165.5 239.12,-135 389.38,-135 389.38,-165.5"/>
<text xml:space="preserve" text-anchor="start" x="247.12" y="-152" font-family="Helvetica,sans-Serif" font-size="10.00">BigDataStatMeth::hdf5Dataset</text>
<text xml:space="preserve" text-anchor="middle" x="314.25" y="-140.75" font-family="Helvetica,sans-Serif" font-size="10.00">::getDatasetptr</text>
</a>
</g>
</g>
<!-- Node1&#45;&gt;Node20 -->
<g id="edge26_Node000001_Node000020" class="edge">
<title>Node1&#45;&gt;Node20</title>
<g id="a_edge26_Node000001_Node000020"><a xlink:title=" ">
<path fill="none" stroke="#63b8ff" d="M96.74,-375.53C107.54,-342.07 147.85,-230.68 221.5,-175.25 223.81,-173.51 226.23,-171.9 228.74,-170.39"/>
<polygon fill="#63b8ff" stroke="#63b8ff" points="230.21,-173.57 237.45,-165.83 226.97,-167.37 230.21,-173.57"/>
</a>
</g>
</g>
<!-- Node21 -->
<g id="Node000021" class="node">
<title>Node21</title>
<g id="a_Node000021"><a xlink:href="class_big_data_stat_meth_1_1hdf5_dataset.html#ae7e94f6d05d1a6cff2d24ec3f1b18fca" target="_top" xlink:title="Get file name.">
<polygon fill="white" stroke="#666666" points="389.38,-61.5 239.12,-61.5 239.12,-31 389.38,-31 389.38,-61.5"/>
<text xml:space="preserve" text-anchor="start" x="247.12" y="-48" font-family="Helvetica,sans-Serif" font-size="10.00">BigDataStatMeth::hdf5Dataset</text>
<text xml:space="preserve" text-anchor="middle" x="314.25" y="-36.75" font-family="Helvetica,sans-Serif" font-size="10.00">::getFileName</text>
</a>
</g>
</g>
<!-- Node1&#45;&gt;Node21 -->
<g id="edge27_Node000001_Node000021" class="edge">
<title>Node1&#45;&gt;Node21</title>
<g id="a_edge27_Node000001_Node000021"><a xlink:title=" ">
<path fill="none" stroke="#63b8ff" d="M96.95,-375.55C109.07,-339.78 154.84,-212.87 221.5,-126.25 238.56,-104.09 262.5,-83.46 281.65,-68.7"/>
<polygon fill="#63b8ff" stroke="#63b8ff" points="283.52,-71.67 289.41,-62.86 279.31,-66.08 283.52,-71.67"/>
</a>
</g>
</g>
<!-- Node23 -->
<g id="Node000023" class="node">
<title>Node23</title>
<g id="a_Node000023"><a xlink:href="class_big_data_stat_meth_1_1hdf5_dataset.html#aa743c8c46d7ff3bb2f894145dd07fd8a" target="_top" xlink:title="Get number of columns in internal format.">
<polygon fill="white" stroke="#666666" points="604.12,-471.5 453.88,-471.5 453.88,-441 604.12,-441 604.12,-471.5"/>
<text xml:space="preserve" text-anchor="start" x="461.88" y="-458" font-family="Helvetica,sans-Serif" font-size="10.00">BigDataStatMeth::hdf5Dataset</text>
<text xml:space="preserve" text-anchor="middle" x="529" y="-446.75" font-family="Helvetica,sans-Serif" font-size="10.00">::ncols</text>
</a>
</g>
</g>
<!-- Node1&#45;&gt;Node23 -->
<g id="edge30_Node000001_Node000023" class="edge">
<title>Node1&#45;&gt;Node23</title>
<g id="a_edge30_Node000001_Node000023"><a xlink:title=" ">
<path fill="none" stroke="#63b8ff" d="M142.49,-395.31C166.27,-400.09 195.33,-405.73 221.5,-410.25 295.87,-423.1 380.76,-435.68 442.32,-444.43"/>
<polygon fill="#63b8ff" stroke="#63b8ff" points="441.64,-447.87 452.03,-445.8 442.62,-440.93 441.64,-447.87"/>
</a>
</g>
</g>
<!-- Node24 -->
<g id="Node000024" class="node">
<title>Node24</title>
<g id="a_Node000024"><a xlink:href="class_big_data_stat_meth_1_1hdf5_dataset.html#a6cbce676967d0cc4b50e2cc5282c322b" target="_top" xlink:title="Get number of rows in internal format.">
<polygon fill="white" stroke="#666666" points="604.12,-422.5 453.88,-422.5 453.88,-392 604.12,-392 604.12,-422.5"/>
<text xml:space="preserve" text-anchor="start" x="461.88" y="-409" font-family="Helvetica,sans-Serif" font-size="10.00">BigDataStatMeth::hdf5Dataset</text>
<text xml:space="preserve" text-anchor="middle" x="529" y="-397.75" font-family="Helvetica,sans-Serif" font-size="10.00">::nrows</text>
</a>
</g>
</g>
<!-- Node1&#45;&gt;Node24 -->
<g id="edge31_Node000001_Node000024" class="edge">
<title>Node1&#45;&gt;Node24</title>
<g id="a_edge31_Node000001_Node000024"><a xlink:title=" ">
<path fill="none" stroke="#63b8ff" d="M185.84,-389.92C261.74,-393.76 368.56,-399.17 442.57,-402.92"/>
<polygon fill="#63b8ff" stroke="#63b8ff" points="442.02,-406.4 452.19,-403.41 442.38,-399.41 442.02,-406.4"/>
</a>
</g>
</g>
<!-- Node25 -->
<g id="Node000025" class="node">
<title>Node25</title>
<g id="a_Node000025"><a xlink:href="namespace_big_data_stat_meth.html#aa04bdd4175075e124877dda4897c291b" target="_top" xlink:title="HDF5 matrix normalization with pre&#45;computed statistics.">
<polygon fill="white" stroke="#666666" points="407,-538.88 221.5,-538.88 221.5,-519.62 407,-519.62 407,-538.88"/>
<text xml:space="preserve" text-anchor="middle" x="314.25" y="-525.38" font-family="Helvetica,sans-Serif" font-size="10.00">BigDataStatMeth::RcppNormalizeHdf5</text>
</a>
</g>
</g>
<!-- Node1&#45;&gt;Node25 -->
<g id="edge32_Node000001_Node000025" class="edge">
<title>Node1&#45;&gt;Node25</title>
<g id="a_edge32_Node000001_Node000025"><a xlink:title=" ">
<path fill="none" stroke="#63b8ff" d="M108.84,-395.15C146.12,-419.6 242.86,-483.07 288.6,-513.08"/>
<polygon fill="#63b8ff" stroke="#63b8ff" points="286.51,-515.89 296.79,-518.45 290.35,-510.04 286.51,-515.89"/>
</a>
</g>
</g>
<!-- Node4 -->
<g id="Node000004" class="node">
<title>Node4</title>
<g id="a_Node000004"><a xlink:href="class_big_data_stat_meth_1_1hdf5_dataset.html#ac7a7f23b7e22c9b56ca6ad86592f2d52" target="_top" xlink:title="Add an attribute to the dataset.">
<polygon fill="white" stroke="#666666" points="604.12,-324.5 453.88,-324.5 453.88,-294 604.12,-294 604.12,-324.5"/>
<text xml:space="preserve" text-anchor="start" x="461.88" y="-311" font-family="Helvetica,sans-Serif" font-size="10.00">BigDataStatMeth::hdf5Dataset</text>
<text xml:space="preserve" text-anchor="middle" x="529" y="-299.75" font-family="Helvetica,sans-Serif" font-size="10.00">::addAttribute</text>
</a>
</g>
</g>
<!-- Node3&#45;&gt;Node4 -->
<g id="edge3_Node000003_Node000004" class="edge">
<title>Node3&#45;&gt;Node4</title>
<g id="a_edge3_Node000003_Node000004"><a xlink:title=" ">
<path fill="none" stroke="#63b8ff" d="M389.66,-293.64C406.66,-295.56 424.87,-297.62 442.31,-299.58"/>
<polygon fill="#63b8ff" stroke="#63b8ff" points="441.8,-303.05 452.13,-300.69 442.58,-296.09 441.8,-303.05"/>
</a>
</g>
</g>
<!-- Node5 -->
<g id="Node000005" class="node">
<title>Node5</title>
<g id="a_Node000005"><a xlink:href="class_big_data_stat_meth_1_1hdf5_file.html#abfb73b5f1eb25ee00489485c8dc56a2a" target="_top" xlink:title="Close file and cleanup resources.">
<polygon fill="white" stroke="#666666" points="594.75,-275.5 463.25,-275.5 463.25,-245 594.75,-245 594.75,-275.5"/>
<text xml:space="preserve" text-anchor="start" x="471.25" y="-262" font-family="Helvetica,sans-Serif" font-size="10.00">BigDataStatMeth::hdf5File</text>
<text xml:space="preserve" text-anchor="middle" x="529" y="-250.75" font-family="Helvetica,sans-Serif" font-size="10.00">::close_file</text>
</a>
</g>
</g>
<!-- Node3&#45;&gt;Node5 -->
<g id="edge4_Node000003_Node000005" class="edge">
<title>Node3&#45;&gt;Node5</title>
<g id="a_edge4_Node000003_Node000005"><a xlink:title=" ">
<path fill="none" stroke="#63b8ff" d="M389.66,-276.51C409.69,-274.15 431.38,-271.6 451.52,-269.24"/>
<polygon fill="#63b8ff" stroke="#63b8ff" points="451.82,-272.73 461.34,-268.08 451,-265.77 451.82,-272.73"/>
</a>
</g>
</g>
<!-- Node6 -->
<g id="Node000006" class="node">
<title>Node6</title>
<g id="a_Node000006"><a xlink:href="class_big_data_stat_meth_1_1hdf5_group.html#a27cef4d33e46c72bfd792aa49fa621a3" target="_top" xlink:title="Create multiple nested groups.">
<polygon fill="white" stroke="#666666" points="600,-226.5 458,-226.5 458,-196 600,-196 600,-226.5"/>
<text xml:space="preserve" text-anchor="start" x="466" y="-213" font-family="Helvetica,sans-Serif" font-size="10.00">BigDataStatMeth::hdf5Group</text>
<text xml:space="preserve" text-anchor="middle" x="529" y="-201.75" font-family="Helvetica,sans-Serif" font-size="10.00">::create_HDF5_groups</text>
</a>
</g>
</g>
<!-- Node3&#45;&gt;Node6 -->
<g id="edge5_Node000003_Node000006" class="edge">
<title>Node3&#45;&gt;Node6</title>
<g id="a_edge5_Node000003_Node000006"><a xlink:title=" ">
<path fill="none" stroke="#63b8ff" d="M371.22,-269.53C383.19,-265.63 395.65,-261.14 407,-256.25 423.81,-249.01 426.12,-243.32 443,-236.25 447.8,-234.24 452.82,-232.32 457.91,-230.51"/>
<polygon fill="#63b8ff" stroke="#63b8ff" points="458.65,-233.96 466.99,-227.43 456.4,-227.33 458.65,-233.96"/>
</a>
</g>
</g>
<!-- Node8 -->
<g id="Node000008" class="node">
<title>Node8</title>
<g id="a_Node000008"><a xlink:href="namespace_big_data_stat_meth.html#a89d901ab4b5e01771f4e3fc7dc84e50e" target="_top" xlink:title="Checks if an HDF5 element (group or dataset) exists.">
<polygon fill="white" stroke="#666666" points="590.62,-177.5 467.38,-177.5 467.38,-147 590.62,-147 590.62,-177.5"/>
<text xml:space="preserve" text-anchor="start" x="475.38" y="-164" font-family="Helvetica,sans-Serif" font-size="10.00">BigDataStatMeth::exists</text>
<text xml:space="preserve" text-anchor="middle" x="529" y="-152.75" font-family="Helvetica,sans-Serif" font-size="10.00">_HDF5_element</text>
</a>
</g>
</g>
<!-- Node3&#45;&gt;Node8 -->
<g id="edge7_Node000003_Node000008" class="edge">
<title>Node3&#45;&gt;Node8</title>
<g id="a_edge7_Node000003_Node000008"><a xlink:title=" ">
<path fill="none" stroke="#63b8ff" d="M385.44,-269.57C393.2,-266 400.6,-261.62 407,-256.25 433.5,-234.02 416.28,-209.21 443,-187.25 447.16,-183.83 451.78,-180.88 456.64,-178.33"/>
<polygon fill="#63b8ff" stroke="#63b8ff" points="457.89,-181.6 465.54,-174.27 454.99,-175.23 457.89,-181.6"/>
</a>
</g>
</g>
<!-- Node3&#45;&gt;Node9 -->
<g id="edge9_Node000003_Node000009" class="edge">
<title>Node3&#45;&gt;Node9</title>
<g id="a_edge9_Node000003_Node000009"><a xlink:title=" ">
<path fill="none" stroke="#63b8ff" d="M389.62,-269.71C396.09,-266.11 402.05,-261.69 407,-256.25 458.11,-200.1 391.33,-144.88 443,-89.25 444.7,-87.42 446.53,-85.72 448.46,-84.14"/>
<polygon fill="#63b8ff" stroke="#63b8ff" points="449.97,-87.35 456.27,-78.83 446.03,-81.56 449.97,-87.35"/>
</a>
</g>
</g>
<!-- Node10 -->
<g id="Node000010" class="node">
<title>Node10</title>
<g id="a_Node000010"><a xlink:href="namespace_big_data_stat_meth.html#a3d06783149029f1df2853c472d401380" target="_top" xlink:title="Removes multiple elements from an HDF5 file.">
<polygon fill="white" stroke="#666666" points="593.62,-128.5 464.38,-128.5 464.38,-98 593.62,-98 593.62,-128.5"/>
<text xml:space="preserve" text-anchor="start" x="472.38" y="-115" font-family="Helvetica,sans-Serif" font-size="10.00">BigDataStatMeth::remove</text>
<text xml:space="preserve" text-anchor="middle" x="529" y="-103.75" font-family="Helvetica,sans-Serif" font-size="10.00">_elements</text>
</a>
</g>
</g>
<!-- Node3&#45;&gt;Node10 -->
<g id="edge10_Node000003_Node000010" class="edge">
<title>Node3&#45;&gt;Node10</title>
<g id="a_edge10_Node000003_Node000010"><a xlink:title=" ">
<path fill="none" stroke="#63b8ff" d="M388.71,-269.51C395.45,-265.95 401.71,-261.59 407,-256.25 445.58,-217.28 404.03,-176.83 443,-138.25 446.38,-134.9 450.19,-132 454.27,-129.48"/>
<polygon fill="#63b8ff" stroke="#63b8ff" points="455.63,-132.72 462.86,-124.98 452.38,-126.52 455.63,-132.72"/>
</a>
</g>
</g>
<!-- Node3&#45;&gt;Node11 -->
<g id="edge11_Node000003_Node000011" class="edge">
<title>Node3&#45;&gt;Node11</title>
<g id="a_edge11_Node000003_Node000011"><a xlink:title=" ">
<path fill="none" stroke="#63b8ff" d="M354.69,-300.92C379.8,-310.69 413.12,-323.26 443,-333.25 449.07,-335.28 455.42,-337.31 461.79,-339.29"/>
<polygon fill="#63b8ff" stroke="#63b8ff" points="460.46,-342.54 471.04,-342.12 462.5,-335.85 460.46,-342.54"/>
</a>
</g>
</g>
<!-- Node7 -->
<g id="Node000007" class="node">
<title>Node7</title>
<g id="a_Node000007"><a xlink:href="namespace_big_data_stat_meth.html#abcaa4216cd52f03ebac42e4855ef846b" target="_top" xlink:title="Checks if a path exists in an HDF5 file.">
<polygon fill="white" stroke="#666666" points="808.38,-196.88 664.88,-196.88 664.88,-177.62 808.38,-177.62 808.38,-196.88"/>
<text xml:space="preserve" text-anchor="middle" x="736.62" y="-183.38" font-family="Helvetica,sans-Serif" font-size="10.00">BigDataStatMeth::pathExists</text>
</a>
</g>
</g>
<!-- Node6&#45;&gt;Node7 -->
<g id="edge6_Node000006_Node000007" class="edge">
<title>Node6&#45;&gt;Node7</title>
<g id="a_edge6_Node000006_Node000007"><a xlink:title=" ">
<path fill="none" stroke="#63b8ff" d="M600.48,-203.02C617.45,-201.04 635.74,-198.91 653.2,-196.87"/>
<polygon fill="#63b8ff" stroke="#63b8ff" points="653.51,-200.36 663.04,-195.72 652.7,-193.41 653.51,-200.36"/>
</a>
</g>
</g>
<!-- Node8&#45;&gt;Node7 -->
<g id="edge8_Node000008_Node000007" class="edge">
<title>Node8&#45;&gt;Node7</title>
<g id="a_edge8_Node000008_Node000007"><a xlink:title=" ">
<path fill="none" stroke="#63b8ff" d="M590.86,-169.65C610.34,-172.02 632.26,-174.68 653.02,-177.21"/>
<polygon fill="#63b8ff" stroke="#63b8ff" points="652.57,-180.68 662.92,-178.41 653.41,-173.73 652.57,-180.68"/>
</a>
</g>
</g>
<!-- Node12 -->
<g id="Node000012" class="node">
<title>Node12</title>
<g id="a_Node000012"><a xlink:href="class_big_data_stat_meth_1_1hdf5_dataset.html#aba39e56a580d3b1fa7f1619fc72efa3e" target="_top" xlink:title="Close dataset and file.">
<polygon fill="white" stroke="#666666" points="811.75,-569.5 661.5,-569.5 661.5,-539 811.75,-539 811.75,-569.5"/>
<text xml:space="preserve" text-anchor="start" x="669.5" y="-556" font-family="Helvetica,sans-Serif" font-size="10.00">BigDataStatMeth::hdf5Dataset</text>
<text xml:space="preserve" text-anchor="middle" x="736.62" y="-544.75" font-family="Helvetica,sans-Serif" font-size="10.00">::close_dataset_file</text>
</a>
</g>
</g>
<!-- Node11&#45;&gt;Node12 -->
<g id="edge12_Node000011_Node000012" class="edge">
<title>Node11&#45;&gt;Node12</title>
<g id="a_edge12_Node000011_Node000012"><a xlink:title=" ">
<path fill="none" stroke="#63b8ff" d="M598.74,-373.96C604.48,-376.6 610,-379.67 615,-383.25 668.37,-421.45 706.49,-490.9 724.3,-528.47"/>
<polygon fill="#63b8ff" stroke="#63b8ff" points="720.97,-529.61 728.34,-537.22 727.33,-526.68 720.97,-529.61"/>
</a>
</g>
</g>
<!-- Node13 -->
<g id="Node000013" class="node">
<title>Node13</title>
<g id="a_Node000013"><a xlink:href="class_big_data_stat_meth_1_1hdf5_dataset.html#a94d81b72e92cb0230b4e64f37ea7d2e3" target="_top" xlink:title="Convert DataFrame to range list.">
<polygon fill="white" stroke="#666666" points="822.25,-373.5 651,-373.5 651,-343 822.25,-343 822.25,-373.5"/>
<text xml:space="preserve" text-anchor="start" x="659" y="-360" font-family="Helvetica,sans-Serif" font-size="10.00">BigDataStatMeth::hdf5Dataset</text>
<text xml:space="preserve" text-anchor="middle" x="736.62" y="-348.75" font-family="Helvetica,sans-Serif" font-size="10.00">::convert_DataFrame_to_RangeList</text>
</a>
</g>
</g>
<!-- Node11&#45;&gt;Node13 -->
<g id="edge13_Node000011_Node000013" class="edge">
<title>Node11&#45;&gt;Node13</title>
<g id="a_edge13_Node000011_Node000013"><a xlink:title=" ">
<path fill="none" stroke="#63b8ff" d="M604.53,-358.25C615.85,-358.25 627.67,-358.25 639.37,-358.25"/>
<polygon fill="#63b8ff" stroke="#63b8ff" points="639.03,-361.75 649.03,-358.25 639.03,-354.75 639.03,-361.75"/>
</a>
</g>
</g>
<!-- Node14&#45;&gt;Node2 -->
<g id="edge15_Node000014_Node000002" class="edge">
<title>Node14&#45;&gt;Node2</title>
<g id="a_edge15_Node000014_Node000002"><a xlink:title=" ">
<path fill="none" stroke="#63b8ff" d="M386.97,-617.7C394.03,-620.6 400.85,-624.08 407,-628.25 429.06,-643.23 420.6,-661.78 443,-676.25 445.44,-677.83 448,-679.28 450.64,-680.61"/>
<polygon fill="#63b8ff" stroke="#63b8ff" points="449.21,-683.8 459.78,-684.57 451.99,-677.38 449.21,-683.8"/>
</a>
</g>
</g>
<!-- Node15 -->
<g id="Node000015" class="node">
<title>Node15</title>
<g id="a_Node000015"><a xlink:href="class_big_data_stat_meth_1_1hdf5_dataset.html#a7b54a6f524581d54102a1614ee44991b" target="_top" xlink:title="Get dataset dimension.">
<polygon fill="white" stroke="#666666" points="615,-741.88 443,-741.88 443,-722.62 615,-722.62 615,-741.88"/>
<text xml:space="preserve" text-anchor="middle" x="529" y="-728.38" font-family="Helvetica,sans-Serif" font-size="10.00">BigDataStatMeth::hdf5Dataset::dim</text>
</a>
</g>
</g>
<!-- Node14&#45;&gt;Node15 -->
<g id="edge16_Node000014_Node000015" class="edge">
<title>Node14&#45;&gt;Node15</title>
<g id="a_edge16_Node000014_Node000015"><a xlink:title=" ">
<path fill="none" stroke="#63b8ff" d="M387.2,-615.8C394.38,-619.05 401.17,-623.13 407,-628.25 438.15,-655.58 411.08,-687.83 443,-714.25 443.96,-715.04 444.94,-715.8 445.95,-716.53"/>
<polygon fill="#63b8ff" stroke="#63b8ff" points="443.92,-719.4 454.3,-721.52 447.51,-713.39 443.92,-719.4"/>
</a>
</g>
</g>
<!-- Node16 -->
<g id="Node000016" class="node">
<title>Node16</title>
<g id="a_Node000016"><a xlink:href="namespace_big_data_stat_meth.html#a9c15678544a0304bf01c268623b2d957" target="_top" xlink:title="Calculate optimal block size for processing.">
<polygon fill="white" stroke="#666666" points="584.25,-618.5 473.75,-618.5 473.75,-588 584.25,-588 584.25,-618.5"/>
<text xml:space="preserve" text-anchor="start" x="481.75" y="-605" font-family="Helvetica,sans-Serif" font-size="10.00">BigDataStatMeth::get</text>
<text xml:space="preserve" text-anchor="middle" x="529" y="-593.75" font-family="Helvetica,sans-Serif" font-size="10.00">_block_size</text>
</a>
</g>
</g>
<!-- Node14&#45;&gt;Node16 -->
<g id="edge17_Node000014_Node000016" class="edge">
<title>Node14&#45;&gt;Node16</title>
<g id="a_edge17_Node000014_Node000016"><a xlink:title=" ">
<path fill="none" stroke="#63b8ff" d="M386.98,-603.25C411.24,-603.25 438.2,-603.25 461.99,-603.25"/>
<polygon fill="#63b8ff" stroke="#63b8ff" points="461.88,-606.75 471.88,-603.25 461.88,-599.75 461.88,-606.75"/>
</a>
</g>
</g>
<!-- Node17 -->
<g id="Node000017" class="node">
<title>Node17</title>
<g id="a_Node000017"><a xlink:href="class_big_data_stat_meth_1_1hdf5_dataset.html#a23bea87165b8ef6b944709c5b2cbd0cf" target="_top" xlink:title=" ">
<polygon fill="white" stroke="#666666" points="604.12,-667.5 453.88,-667.5 453.88,-637 604.12,-637 604.12,-667.5"/>
<text xml:space="preserve" text-anchor="start" x="461.88" y="-654" font-family="Helvetica,sans-Serif" font-size="10.00">BigDataStatMeth::hdf5Dataset</text>
<text xml:space="preserve" text-anchor="middle" x="529" y="-642.75" font-family="Helvetica,sans-Serif" font-size="10.00">::readDatasetBlock</text>
</a>
</g>
</g>
<!-- Node14&#45;&gt;Node17 -->
<g id="edge18_Node000014_Node000017" class="edge">
<title>Node14&#45;&gt;Node17</title>
<g id="a_edge18_Node000014_Node000017"><a xlink:title=" ">
<path fill="none" stroke="#63b8ff" d="M383.44,-618.96C404.25,-623.75 427.3,-629.06 448.77,-634"/>
<polygon fill="#63b8ff" stroke="#63b8ff" points="447.82,-637.38 458.35,-636.21 449.39,-630.55 447.82,-637.38"/>
</a>
</g>
</g>
<!-- Node17&#45;&gt;Node12 -->
<g id="edge19_Node000017_Node000012" class="edge">
<title>Node17&#45;&gt;Node12</title>
<g id="a_edge19_Node000017_Node000012"><a xlink:title=" ">
<path fill="none" stroke="#63b8ff" d="M590.6,-636.53C598.92,-633.76 607.26,-630.66 615,-627.25 646.95,-613.17 680.74,-592.12 704.4,-576.24"/>
<polygon fill="#63b8ff" stroke="#63b8ff" points="706.34,-579.15 712.64,-570.63 702.4,-573.36 706.34,-579.15"/>
</a>
</g>
</g>
<!-- Node18&#45;&gt;Node2 -->
<g id="edge21_Node000018_Node000002" class="edge">
<title>Node18&#45;&gt;Node2</title>
<g id="a_edge21_Node000018_Node000002"><a xlink:title=" ">
<path fill="none" stroke="#63b8ff" d="M379.37,-665.21C407.22,-670.84 439.69,-677.4 467.16,-682.95"/>
<polygon fill="#63b8ff" stroke="#63b8ff" points="466.23,-686.34 476.72,-684.89 467.61,-679.47 466.23,-686.34"/>
</a>
</g>
</g>
<!-- Node18&#45;&gt;Node15 -->
<g id="edge22_Node000018_Node000015" class="edge">
<title>Node18&#45;&gt;Node15</title>
<g id="a_edge22_Node000018_Node000015"><a xlink:title=" ">
<path fill="none" stroke="#63b8ff" d="M342.34,-667.8C367.65,-681.74 406.85,-701.86 443,-714.25 448.39,-716.1 454.04,-717.79 459.76,-719.34"/>
<polygon fill="#63b8ff" stroke="#63b8ff" points="458.76,-722.7 469.32,-721.76 460.48,-715.91 458.76,-722.7"/>
</a>
</g>
</g>
<!-- Node18&#45;&gt;Node16 -->
<g id="edge23_Node000018_Node000016" class="edge">
<title>Node18&#45;&gt;Node16</title>
<g id="a_edge23_Node000018_Node000016"><a xlink:title=" ">
<path fill="none" stroke="#63b8ff" d="M379.37,-637.48C405.6,-631.44 435.92,-624.46 462.31,-618.38"/>
<polygon fill="#63b8ff" stroke="#63b8ff" points="462.92,-621.83 471.88,-616.18 461.35,-615.01 462.92,-621.83"/>
</a>
</g>
</g>
<!-- Node18&#45;&gt;Node17 -->
<g id="edge24_Node000018_Node000017" class="edge">
<title>Node18&#45;&gt;Node17</title>
<g id="a_edge24_Node000018_Node000017"><a xlink:title=" ">
<path fill="none" stroke="#63b8ff" d="M379.37,-652.25C399.09,-652.25 421.12,-652.25 442.05,-652.25"/>
<polygon fill="#63b8ff" stroke="#63b8ff" points="442.03,-655.75 452.03,-652.25 442.03,-648.75 442.03,-655.75"/>
</a>
</g>
</g>
<!-- Node22 -->
<g id="Node000022" class="node">
<title>Node22</title>
<g id="a_Node000022"><a xlink:href="class_big_data_stat_meth_1_1hdf5_file.html#abb50d96e6674ac770e4f27f650ad34cb" target="_top" xlink:title="Get filename.">
<polygon fill="white" stroke="#666666" points="594.75,-30.5 463.25,-30.5 463.25,0 594.75,0 594.75,-30.5"/>
<text xml:space="preserve" text-anchor="start" x="471.25" y="-17" font-family="Helvetica,sans-Serif" font-size="10.00">BigDataStatMeth::hdf5File</text>
<text xml:space="preserve" text-anchor="middle" x="529" y="-5.75" font-family="Helvetica,sans-Serif" font-size="10.00">::getFilename</text>
</a>
</g>
</g>
<!-- Node21&#45;&gt;Node22 -->
<g id="edge28_Node000021_Node000022" class="edge">
<title>Node21&#45;&gt;Node22</title>
<g id="a_edge28_Node000021_Node000022"><a xlink:title=" ">
<path fill="none" stroke="#63b8ff" d="M389.66,-35.41C409.69,-32.49 431.38,-29.33 451.52,-26.39"/>
<polygon fill="#63b8ff" stroke="#63b8ff" points="451.96,-29.87 461.35,-24.96 450.95,-22.94 451.96,-29.87"/>
</a>
</g>
</g>
<!-- Node25&#45;&gt;Node2 -->
<g id="edge33_Node000025_Node000002" class="edge">
<title>Node25&#45;&gt;Node2</title>
<g id="a_edge33_Node000025_Node000002"><a xlink:title=" ">
<path fill="none" stroke="#63b8ff" d="M345.32,-539.26C365.23,-547.27 390.61,-560.32 407,-579.25 437.1,-614.01 408.36,-646.01 443,-676.25 444.28,-677.37 445.61,-678.43 446.99,-679.42"/>
<polygon fill="#63b8ff" stroke="#63b8ff" points="444.98,-682.3 455.36,-684.43 448.57,-676.29 444.98,-682.3"/>
</a>
</g>
</g>
<!-- Node25&#45;&gt;Node16 -->
<g id="edge34_Node000025_Node000016" class="edge">
<title>Node25&#45;&gt;Node16</title>
<g id="a_edge34_Node000025_Node000016"><a xlink:title=" ">
<path fill="none" stroke="#63b8ff" d="M339.53,-539.23C365.07,-549.57 406.55,-565.92 443,-578.25 449.41,-580.42 456.12,-582.58 462.85,-584.67"/>
<polygon fill="#63b8ff" stroke="#63b8ff" points="461.35,-587.87 471.94,-587.45 463.4,-581.18 461.35,-587.87"/>
</a>
</g>
</g>
<!-- Node25&#45;&gt;Node17 -->
<g id="edge38_Node000025_Node000017" class="edge">
<title>Node25&#45;&gt;Node17</title>
<g id="a_edge38_Node000025_Node000017"><a xlink:title=" ">
<path fill="none" stroke="#63b8ff" d="M340.02,-539.24C359.57,-547.91 386.83,-561.8 407,-579.25 427.17,-596.7 421.09,-612.05 443,-627.25 445.1,-628.71 447.3,-630.09 449.55,-631.38"/>
<polygon fill="#63b8ff" stroke="#63b8ff" points="447.95,-634.5 458.46,-635.89 451.12,-628.25 447.95,-634.5"/>
</a>
</g>
</g>
<!-- Node25&#45;&gt;Node23 -->
<g id="edge35_Node000025_Node000023" class="edge">
<title>Node25&#45;&gt;Node23</title>
<g id="a_edge35_Node000025_Node000023"><a xlink:title=" ">
<path fill="none" stroke="#63b8ff" d="M340.5,-519.13C366.13,-509.02 407.05,-493.27 443,-481.25 449.07,-479.22 455.42,-477.19 461.79,-475.21"/>
<polygon fill="#63b8ff" stroke="#63b8ff" points="462.5,-478.65 471.04,-472.38 460.46,-471.96 462.5,-478.65"/>
</a>
</g>
</g>
<!-- Node25&#45;&gt;Node24 -->
<g id="edge36_Node000025_Node000024" class="edge">
<title>Node25&#45;&gt;Node24</title>
<g id="a_edge36_Node000025_Node000024"><a xlink:title=" ">
<path fill="none" stroke="#63b8ff" d="M325.61,-519.22C346.28,-499.75 394.78,-456.61 443,-432.25 446.72,-430.37 450.6,-428.61 454.58,-426.96"/>
<polygon fill="#63b8ff" stroke="#63b8ff" points="455.75,-430.26 463.83,-423.41 453.24,-423.73 455.75,-430.26"/>
</a>
</g>
</g>
<!-- Node26 -->
<g id="Node000026" class="node">
<title>Node26</title>
<g id="a_Node000026"><a xlink:href="namespace_big_data_stat_meth.html#aa109a5664920caf79ff04c997a57cc59" target="_top" xlink:title=" ">
<polygon fill="white" stroke="#666666" points="611.25,-520.5 446.75,-520.5 446.75,-490 611.25,-490 611.25,-520.5"/>
<text xml:space="preserve" text-anchor="start" x="454.75" y="-507" font-family="Helvetica,sans-Serif" font-size="10.00">BigDataStatMeth::RcppNormalize</text>
<text xml:space="preserve" text-anchor="middle" x="529" y="-495.75" font-family="Helvetica,sans-Serif" font-size="10.00">_Data_R_hdf5</text>
</a>
</g>
</g>
<!-- Node25&#45;&gt;Node26 -->
<g id="edge37_Node000025_Node000026" class="edge">
<title>Node25&#45;&gt;Node26</title>
<g id="a_edge37_Node000025_Node000026"><a xlink:title=" ">
<path fill="none" stroke="#63b8ff" d="M404.86,-519.14C414.84,-518.02 425.03,-516.87 435.05,-515.74"/>
<polygon fill="#63b8ff" stroke="#63b8ff" points="435.23,-519.24 444.78,-514.64 434.45,-512.28 435.23,-519.24"/>
</a>
</g>
</g>
<!-- Node27 -->
<g id="Node000027" class="node">
<title>Node27</title>
<g id="a_Node000027"><a xlink:href="class_big_data_stat_meth_1_1hdf5_dataset.html#ae135b5c379a5de2fa1a9e6917b624ac3" target="_top" xlink:title="Write block of data in row&#45;major order.">
<polygon fill="white" stroke="#666666" points="604.12,-569.5 453.88,-569.5 453.88,-539 604.12,-539 604.12,-569.5"/>
<text xml:space="preserve" text-anchor="start" x="461.88" y="-556" font-family="Helvetica,sans-Serif" font-size="10.00">BigDataStatMeth::hdf5Dataset</text>
<text xml:space="preserve" text-anchor="middle" x="529" y="-544.75" font-family="Helvetica,sans-Serif" font-size="10.00">::writeRowMajorDatasetBlock</text>
</a>
</g>
</g>
<!-- Node25&#45;&gt;Node27 -->
<g id="edge39_Node000025_Node000027" class="edge">
<title>Node25&#45;&gt;Node27</title>
<g id="a_edge39_Node000025_Node000027"><a xlink:title=" ">
<path fill="none" stroke="#63b8ff" d="M401.17,-539.35C414.68,-540.93 428.66,-542.58 442.17,-544.16"/>
<polygon fill="#63b8ff" stroke="#63b8ff" points="441.55,-547.62 451.89,-545.31 442.37,-540.66 441.55,-547.62"/>
</a>
</g>
</g>
<!-- Node27&#45;&gt;Node12 -->
<g id="edge40_Node000027_Node000012" class="edge">
<title>Node27&#45;&gt;Node12</title>
<g id="a_edge40_Node000027_Node000012"><a xlink:title=" ">
<path fill="none" stroke="#63b8ff" d="M604.53,-554.25C619.18,-554.25 634.67,-554.25 649.66,-554.25"/>
<polygon fill="#63b8ff" stroke="#63b8ff" points="649.49,-557.75 659.49,-554.25 649.49,-550.75 649.49,-557.75"/>
</a>
</g>
</g>
</g>
</svg>

<g id="navigator" transform="translate(0 0)" fill="#404254">
  <rect fill="#f2f5e9" fill-opacity="0.5" stroke="#606060" stroke-width=".5" x="0" y="0" width="60" height="60"/>
  <use id="zoomplus" xlink:href="#zoomPlus" x="17" y="9" onmousedown="handleZoom(evt,'in')"/>
  <use id="zoomminus" xlink:href="#zoomMin" x="42" y="9" onmousedown="handleZoom(evt,'out')"/>
  <use id="reset" xlink:href="#resetDef" x="30" y="36" onmousedown="handleReset()"/>
   <use id="arrowup" xlink:href="#arrowUp" x="0" y="0" onmousedown="handlePan(0,-1)"/>
  <use id="arrowright" xlink:href="#arrowRight" x="0" y="0" onmousedown="handlePan(1,0)"/>
  <use id="arrowdown" xlink:href="#arrowDown" x="0" y="0" onmousedown="handlePan(0,1)"/>
  <use id="arrowleft" xlink:href="#arrowLeft" x="0" y="0" onmousedown="handlePan(-1,0)"/>
</g>
<svg viewBox="0 0 15 15" width="100%" height="30px" preserveAspectRatio="xMaxYMin meet">
 <g id="arrow_out" transform="scale(0.3 0.3)">
  <a xlink:href="namespace_big_data_stat_meth_a6bc1373833a2909b57128c2656bef7ab_cgraph_org.svg" target="_base">
   <rect id="button" ry="5" rx="5" y="6" x="6" height="38" width="38"
        fill="#f2f5e9" fill-opacity="0.5" stroke="#606060" stroke-width="1.0"/>
   <path id="arrow"
     d="M 11.500037,31.436501 C 11.940474,20.09759 22.043105,11.32322 32.158766,21.979434 L 37.068811,17.246167 C 37.068811,17.246167 37.088388,32 37.088388,32 L 22.160133,31.978069 C 22.160133,31.978069 26.997745,27.140456 26.997745,27.140456 C 18.528582,18.264221 13.291696,25.230495 11.500037,31.436501 z"
     style="fill:#404040;"/>
  </a>
 </g>
</svg>

<style type='text/css'>
<![CDATA[
[data-mouse-over-selected='false'] { opacity: 0.7; }
[data-mouse-over-selected='true']  { opacity: 1.0; }
]]>
</style>
<script type="application/ecmascript"><![CDATA[
document.addEventListener('DOMContentLoaded', (event) => {
  highlightEdges();
  highlightAdjacentNodes();
});
]]></script>
</svg>
