<?xml version="1.0" encoding="UTF-8" standalone="no"?>
<!DOCTYPE svg PUBLIC "-//W3C//DTD SVG 1.1//EN"
 "http://www.w3.org/Graphics/SVG/1.1/DTD/svg11.dtd">
<!-- Generated by graphviz version 14.0.0 (20250921.2048)
 -->
<!-- Title: BigDataStatMeth::prepareForParallelization Pages: 1 -->
<!--zoomable 162 -->

<svg id="main" version="1.1" xmlns="http://www.w3.org/2000/svg" xmlns:xlink="http://www.w3.org/1999/xlink" xml:space="preserve" onload="init(evt)">

<style type="text/css"><![CDATA[
.node, .edge {opacity: 0.7;}
.node.selected, .edge.selected {opacity: 1;}
.edge:hover path { stroke: red; }
.edge:hover polygon { stroke: red; fill: red; }
]]></style>

<defs>
  <circle id="rim" cx="0" cy="0" r="7"/>
  <circle id="rim2" cx="0" cy="0" r="3.5"/>
  <g id="zoomPlus">
    <use xlink:href="#rim" fill="#404040"><set attributeName="fill" to="#808080" begin="zoomplus.mouseover" end="zoomplus.mouseout"/></use>
    <path d="M-4,0h8M0,-4v8" fill="none" stroke="white" stroke-width="1.5" pointer-events="none"/>
  </g>
  <g id="zoomMin">
    <use xlink:href="#rim" fill="#404040"><set attributeName="fill" to="#808080" begin="zoomminus.mouseover" end="zoomminus.mouseout"/></use>
    <path d="M-4,0h8" fill="none" stroke="white" stroke-width="1.5" pointer-events="none"/>
  </g>
  <g id="arrowUp" transform="translate(30 24)">
    <use xlink:href="#rim"/>
    <path pointer-events="none" fill="none" stroke="white" stroke-width="1.5" d="M0,-3.0v7 M-2.5,-0.5L0,-3.0L2.5,-0.5"/>
  </g>
  <g id="arrowRight" transform="rotate(90) translate(36 -43)">
    <use xlink:href="#rim"/>
    <path pointer-events="none" fill="none" stroke="white" stroke-width="1.5" d="M0,-3.0v7 M-2.5,-0.5L0,-3.0L2.5,-0.5"/>
  </g>
  <g id="arrowDown" transform="rotate(180) translate(-30 -48)">
    <use xlink:href="#rim"/>
    <path pointer-events="none" fill="none" stroke="white" stroke-width="1.5" d="M0,-3.0v7 M-2.5,-0.5L0,-3.0L2.5,-0.5"/>
  </g>
  <g id="arrowLeft" transform="rotate(270) translate(-36 17)">
    <use xlink:href="#rim"/>
    <path pointer-events="none" fill="none" stroke="white" stroke-width="1.5" d="M0,-3.0v7 M-2.5,-0.5L0,-3.0L2.5,-0.5"/>
  </g>
  <g id="resetDef">
    <use xlink:href="#rim2" fill="#404040"><set attributeName="fill" to="#808080" begin="reset.mouseover" end="reset.mouseout"/></use>
  </g>
</defs>
<script type="application/ecmascript">
var viewWidth = 520;
var viewHeight = 162;
var sectionId = 'dynsection-81';
</script>
<script type="application/ecmascript" xlink:href="../../../../assets/svg.min.js"/>
<svg id="graph" class="graph">
<g id="viewport">
<title>BigDataStatMeth::prepareForParallelization</title>
<!-- Node1 -->
<g id="Node000001" class="node">
<title>Node1</title>
<g id="a_Node000001"><a xlink:title=" ">
<polygon fill="#999999" stroke="#666666" points="129.25,-91.88 0,-91.88 0,-61.38 129.25,-61.38 129.25,-91.88"/>
<text xml:space="preserve" text-anchor="start" x="8" y="-78.38" font-family="Helvetica,sans-Serif" font-size="10.00">BigDataStatMeth::prepare</text>
<text xml:space="preserve" text-anchor="middle" x="64.62" y="-67.12" font-family="Helvetica,sans-Serif" font-size="10.00">ForParallelization</text>
</a>
</g>
</g>
<!-- Node2 -->
<g id="Node000002" class="node">
<title>Node2</title>
<g id="a_Node000002"><a xlink:href="namespace_big_data_stat_meth.html#a304b42b14ec87d4acc6f34ff0231529d" target="_top" xlink:title="Safely close any number of dataset handles (C++17).">
<polygon fill="white" stroke="#666666" points="332,-154.25 165.25,-154.25 165.25,-135 332,-135 332,-154.25"/>
<text xml:space="preserve" text-anchor="middle" x="248.62" y="-140.75" font-family="Helvetica,sans-Serif" font-size="10.00">BigDataStatMeth::checkClose_file</text>
</a>
</g>
</g>
<!-- Node1&#45;&gt;Node2 -->
<g id="edge1_Node000001_Node000002" class="edge">
<title>Node1&#45;&gt;Node2</title>
<g id="a_edge1_Node000001_Node000002"><a xlink:title=" ">
<path fill="none" stroke="#63b8ff" d="M93.22,-92.35C112.81,-102.97 140.01,-116.64 165.25,-125.62 171.45,-127.83 178.01,-129.85 184.6,-131.67"/>
<polygon fill="#63b8ff" stroke="#63b8ff" points="183.66,-135.05 194.22,-134.18 185.43,-128.27 183.66,-135.05"/>
</a>
</g>
</g>
<!-- Node3 -->
<g id="Node000003" class="node">
<title>Node3</title>
<g id="a_Node000003"><a xlink:href="namespace_big_data_stat_meth.html#a89d901ab4b5e01771f4e3fc7dc84e50e" target="_top" xlink:title="Checks if an HDF5 element (group or dataset) exists.">
<polygon fill="white" stroke="#666666" points="310.25,-116.88 187,-116.88 187,-86.38 310.25,-86.38 310.25,-116.88"/>
<text xml:space="preserve" text-anchor="start" x="195" y="-103.38" font-family="Helvetica,sans-Serif" font-size="10.00">BigDataStatMeth::exists</text>
<text xml:space="preserve" text-anchor="middle" x="248.62" y="-92.12" font-family="Helvetica,sans-Serif" font-size="10.00">_HDF5_element</text>
</a>
</g>
</g>
<!-- Node1&#45;&gt;Node3 -->
<g id="edge2_Node000001_Node000003" class="edge">
<title>Node1&#45;&gt;Node3</title>
<g id="a_edge2_Node000001_Node000003"><a xlink:title=" ">
<path fill="none" stroke="#63b8ff" d="M129.54,-85.4C144.31,-87.43 160.13,-89.61 175.24,-91.68"/>
<polygon fill="#63b8ff" stroke="#63b8ff" points="174.74,-95.15 185.12,-93.04 175.69,-88.21 174.74,-95.15"/>
</a>
</g>
</g>
<!-- Node5 -->
<g id="Node000005" class="node">
<title>Node5</title>
<g id="a_Node000005"><a xlink:href="namespace_big_data_stat_meth.html#a435006924343304fe972a3beabee62a9" target="_top" xlink:title="Determines initial position for matrix operations.">
<polygon fill="white" stroke="#666666" points="315.5,-67.88 181.75,-67.88 181.75,-37.38 315.5,-37.38 315.5,-67.88"/>
<text xml:space="preserve" text-anchor="start" x="189.75" y="-54.38" font-family="Helvetica,sans-Serif" font-size="10.00">BigDataStatMeth::getInitial</text>
<text xml:space="preserve" text-anchor="middle" x="248.62" y="-43.12" font-family="Helvetica,sans-Serif" font-size="10.00">Position</text>
</a>
</g>
</g>
<!-- Node1&#45;&gt;Node5 -->
<g id="edge4_Node000001_Node000005" class="edge">
<title>Node1&#45;&gt;Node5</title>
<g id="a_edge4_Node000001_Node000005"><a xlink:title=" ">
<path fill="none" stroke="#63b8ff" d="M129.54,-68.2C142.66,-66.47 156.61,-64.63 170.15,-62.84"/>
<polygon fill="#63b8ff" stroke="#63b8ff" points="170.44,-66.33 179.9,-61.56 169.53,-59.39 170.44,-66.33"/>
</a>
</g>
</g>
<!-- Node6 -->
<g id="Node000006" class="node">
<title>Node6</title>
<g id="a_Node000006"><a xlink:href="namespace_big_data_stat_meth.html#ac0c34ce0e46eff31fe19be9b5a517580" target="_top" xlink:title="Calculates dimensions for reading matrix blocks.">
<polygon fill="white" stroke="#666666" points="329.38,-19.25 167.88,-19.25 167.88,0 329.38,0 329.38,-19.25"/>
<text xml:space="preserve" text-anchor="middle" x="248.62" y="-5.75" font-family="Helvetica,sans-Serif" font-size="10.00">BigDataStatMeth::getSizetoRead</text>
</a>
</g>
</g>
<!-- Node1&#45;&gt;Node6 -->
<g id="edge5_Node000001_Node000006" class="edge">
<title>Node1&#45;&gt;Node6</title>
<g id="a_edge5_Node000001_Node000006"><a xlink:title=" ">
<path fill="none" stroke="#63b8ff" d="M93.68,-61.03C113.26,-50.67 140.25,-37.41 165.25,-28.62 171.46,-26.44 178.02,-24.44 184.62,-22.63"/>
<polygon fill="#63b8ff" stroke="#63b8ff" points="185.45,-26.03 194.24,-20.13 183.69,-19.25 185.45,-26.03"/>
</a>
</g>
</g>
<!-- Node4 -->
<g id="Node000004" class="node">
<title>Node4</title>
<g id="a_Node000004"><a xlink:href="namespace_big_data_stat_meth.html#abcaa4216cd52f03ebac42e4855ef846b" target="_top" xlink:title="Checks if a path exists in an HDF5 file.">
<polygon fill="white" stroke="#666666" points="511.5,-111.25 368,-111.25 368,-92 511.5,-92 511.5,-111.25"/>
<text xml:space="preserve" text-anchor="middle" x="439.75" y="-97.75" font-family="Helvetica,sans-Serif" font-size="10.00">BigDataStatMeth::pathExists</text>
</a>
</g>
</g>
<!-- Node3&#45;&gt;Node4 -->
<g id="edge3_Node000003_Node000004" class="edge">
<title>Node3&#45;&gt;Node4</title>
<g id="a_edge3_Node000003_Node000004"><a xlink:title=" ">
<path fill="none" stroke="#63b8ff" d="M310.51,-101.62C325.19,-101.62 341.12,-101.62 356.6,-101.62"/>
<polygon fill="#63b8ff" stroke="#63b8ff" points="356.26,-105.13 366.26,-101.63 356.26,-98.13 356.26,-105.13"/>
</a>
</g>
</g>
</g>
</svg>

<g id="navigator" transform="translate(0 0)" fill="#404254">
  <rect fill="#f2f5e9" fill-opacity="0.5" stroke="#606060" stroke-width=".5" x="0" y="0" width="60" height="60"/>
  <use id="zoomplus" xlink:href="#zoomPlus" x="17" y="9" onmousedown="handleZoom(evt,'in')"/>
  <use id="zoomminus" xlink:href="#zoomMin" x="42" y="9" onmousedown="handleZoom(evt,'out')"/>
  <use id="reset" xlink:href="#resetDef" x="30" y="36" onmousedown="handleReset()"/>
   <use id="arrowup" xlink:href="#arrowUp" x="0" y="0" onmousedown="handlePan(0,-1)"/>
  <use id="arrowright" xlink:href="#arrowRight" x="0" y="0" onmousedown="handlePan(1,0)"/>
  <use id="arrowdown" xlink:href="#arrowDown" x="0" y="0" onmousedown="handlePan(0,1)"/>
  <use id="arrowleft" xlink:href="#arrowLeft" x="0" y="0" onmousedown="handlePan(-1,0)"/>
</g>
<svg viewBox="0 0 15 15" width="100%" height="30px" preserveAspectRatio="xMaxYMin meet">
 <g id="arrow_out" transform="scale(0.3 0.3)">
  <a xlink:href="namespace_big_data_stat_meth_a3d9621d5cfca7c8611f9bdd915fb24e5_cgraph_org.svg" target="_base">
   <rect id="button" ry="5" rx="5" y="6" x="6" height="38" width="38"
        fill="#f2f5e9" fill-opacity="0.5" stroke="#606060" stroke-width="1.0"/>
   <path id="arrow"
     d="M 11.500037,31.436501 C 11.940474,20.09759 22.043105,11.32322 32.158766,21.979434 L 37.068811,17.246167 C 37.068811,17.246167 37.088388,32 37.088388,32 L 22.160133,31.978069 C 22.160133,31.978069 26.997745,27.140456 26.997745,27.140456 C 18.528582,18.264221 13.291696,25.230495 11.500037,31.436501 z"
     style="fill:#404040;"/>
  </a>
 </g>
</svg>

<style type='text/css'>
<![CDATA[
[data-mouse-over-selected='false'] { opacity: 0.7; }
[data-mouse-over-selected='true']  { opacity: 1.0; }
]]>
</style>
<script type="application/ecmascript"><![CDATA[
document.addEventListener('DOMContentLoaded', (event) => {
  highlightEdges();
  highlightAdjacentNodes();
});
]]></script>
</svg>
