<?xml version="1.0" encoding="UTF-8" standalone="no"?>
<!DOCTYPE svg PUBLIC "-//W3C//DTD SVG 1.1//EN"
 "http://www.w3.org/Graphics/SVG/1.1/DTD/svg11.dtd">
<!-- Generated by graphviz version 14.0.0 (20250921.2048)
 -->
<!-- Title: BigDataStatMeth::RcppNormalizeColwise Pages: 1 -->
<!--zoomable 249 -->

<svg id="main" version="1.1" xmlns="http://www.w3.org/2000/svg" xmlns:xlink="http://www.w3.org/1999/xlink" xml:space="preserve" onload="init(evt)">

<style type="text/css"><![CDATA[
.node, .edge {opacity: 0.7;}
.node.selected, .edge.selected {opacity: 1;}
.edge:hover path { stroke: red; }
.edge:hover polygon { stroke: red; fill: red; }
]]></style>

<defs>
  <circle id="rim" cx="0" cy="0" r="7"/>
  <circle id="rim2" cx="0" cy="0" r="3.5"/>
  <g id="zoomPlus">
    <use xlink:href="#rim" fill="#404040"><set attributeName="fill" to="#808080" begin="zoomplus.mouseover" end="zoomplus.mouseout"/></use>
    <path d="M-4,0h8M0,-4v8" fill="none" stroke="white" stroke-width="1.5" pointer-events="none"/>
  </g>
  <g id="zoomMin">
    <use xlink:href="#rim" fill="#404040"><set attributeName="fill" to="#808080" begin="zoomminus.mouseover" end="zoomminus.mouseout"/></use>
    <path d="M-4,0h8" fill="none" stroke="white" stroke-width="1.5" pointer-events="none"/>
  </g>
  <g id="arrowUp" transform="translate(30 24)">
    <use xlink:href="#rim"/>
    <path pointer-events="none" fill="none" stroke="white" stroke-width="1.5" d="M0,-3.0v7 M-2.5,-0.5L0,-3.0L2.5,-0.5"/>
  </g>
  <g id="arrowRight" transform="rotate(90) translate(36 -43)">
    <use xlink:href="#rim"/>
    <path pointer-events="none" fill="none" stroke="white" stroke-width="1.5" d="M0,-3.0v7 M-2.5,-0.5L0,-3.0L2.5,-0.5"/>
  </g>
  <g id="arrowDown" transform="rotate(180) translate(-30 -48)">
    <use xlink:href="#rim"/>
    <path pointer-events="none" fill="none" stroke="white" stroke-width="1.5" d="M0,-3.0v7 M-2.5,-0.5L0,-3.0L2.5,-0.5"/>
  </g>
  <g id="arrowLeft" transform="rotate(270) translate(-36 17)">
    <use xlink:href="#rim"/>
    <path pointer-events="none" fill="none" stroke="white" stroke-width="1.5" d="M0,-3.0v7 M-2.5,-0.5L0,-3.0L2.5,-0.5"/>
  </g>
  <g id="resetDef">
    <use xlink:href="#rim2" fill="#404040"><set attributeName="fill" to="#808080" begin="reset.mouseover" end="reset.mouseout"/></use>
  </g>
</defs>
<script type="application/ecmascript">
var viewWidth = 1433;
var viewHeight = 249;
var sectionId = 'dynsection-157';
</script>
<script type="application/ecmascript" xlink:href="../../../../assets/svg.min.js"/>
<svg id="graph" class="graph">
<g id="viewport">
<title>BigDataStatMeth::RcppNormalizeColwise</title>
<!-- Node1 -->
<g id="Node000001" class="node">
<title>Node1</title>
<g id="a_Node000001"><a xlink:title="Column&#45;wise normalization with pre&#45;computed statistics.">
<polygon fill="#999999" stroke="#666666" points="1425.25,-184.88 1260.75,-184.88 1260.75,-154.38 1425.25,-154.38 1425.25,-184.88"/>
<text xml:space="preserve" text-anchor="start" x="1268.75" y="-171.38" font-family="Helvetica,sans-Serif" font-size="10.00">BigDataStatMeth::RcppNormalize</text>
<text xml:space="preserve" text-anchor="middle" x="1343" y="-160.12" font-family="Helvetica,sans-Serif" font-size="10.00">Colwise</text>
</a>
</g>
</g>
<!-- Node2 -->
<g id="Node000002" class="node">
<title>Node2</title>
<g id="a_Node000002"><a xlink:href="namespace_big_data_stat_meth.html#a8230fb3b686276464c16ed444be03d22" target="_top" xlink:title=" ">
<polygon fill="white" stroke="#666666" points="806.5,-240.88 625.5,-240.88 625.5,-210.38 806.5,-210.38 806.5,-240.88"/>
<text xml:space="preserve" text-anchor="start" x="633.5" y="-227.38" font-family="Helvetica,sans-Serif" font-size="10.00">BigDataStatMeth::First</text>
<text xml:space="preserve" text-anchor="middle" x="716" y="-216.12" font-family="Helvetica,sans-Serif" font-size="10.00">_level_SvdBlock_decomposition_hdf5</text>
</a>
</g>
</g>
<!-- Node1&#45;&gt;Node2 -->
<g id="edge1_Node000001_Node000002" class="edge">
<title>Node1&#45;&gt;Node2</title>
<g id="a_edge1_Node000001_Node000002"><a xlink:title=" ">
<path fill="none" stroke="#63b8ff" d="M1249.2,-185.43C1240.95,-186.61 1232.71,-187.69 1224.75,-188.62 1078.81,-205.73 908.28,-216.23 806.65,-221.48"/>
<polygon fill="#63b8ff" stroke="#63b8ff" points="1249.56,-188.92 1258.95,-184 1248.55,-181.99 1249.56,-188.92"/>
</a>
</g>
</g>
<!-- Node6 -->
<g id="Node000006" class="node">
<title>Node6</title>
<g id="a_Node000006"><a xlink:href="namespace_big_data_stat_meth.html#a52e2664528abefab4dfc6c8a1df1cf93" target="_top" xlink:title=" ">
<polygon fill="white" stroke="#666666" points="1224.75,-179.25 1034,-179.25 1034,-160 1224.75,-160 1224.75,-179.25"/>
<text xml:space="preserve" text-anchor="middle" x="1129.38" y="-165.75" font-family="Helvetica,sans-Serif" font-size="10.00">BigDataStatMeth::RcppNormalize_Data</text>
</a>
</g>
</g>
<!-- Node1&#45;&gt;Node6 -->
<g id="edge5_Node000001_Node000006" class="edge">
<title>Node1&#45;&gt;Node6</title>
<g id="a_edge5_Node000001_Node000006"><a xlink:title=" ">
<path fill="none" stroke="#63b8ff" d="M1249.19,-169.62C1241.13,-169.62 1232.98,-169.62 1224.91,-169.62"/>
<polygon fill="#63b8ff" stroke="#63b8ff" points="1248.97,-173.13 1258.97,-169.63 1248.97,-166.13 1248.97,-173.13"/>
</a>
</g>
</g>
<!-- Node7 -->
<g id="Node000007" class="node">
<title>Node7</title>
<g id="a_Node000007"><a xlink:href="namespace_big_data_stat_meth.html#a1cd3f5cf856a0d1bff9e1cf956f368fd" target="_top" xlink:title="Template function for normalizing data with pre&#45;computed statistics.">
<polygon fill="white" stroke="#666666" points="1224.75,-127.25 1034,-127.25 1034,-108 1224.75,-108 1224.75,-127.25"/>
<text xml:space="preserve" text-anchor="middle" x="1129.38" y="-113.75" font-family="Helvetica,sans-Serif" font-size="10.00">BigDataStatMeth::RcppNormalize_Data</text>
</a>
</g>
</g>
<!-- Node1&#45;&gt;Node7 -->
<g id="edge6_Node000001_Node000007" class="edge">
<title>Node1&#45;&gt;Node7</title>
<g id="a_edge6_Node000001_Node000007"><a xlink:title=" ">
<path fill="none" stroke="#63b8ff" d="M1266.79,-151.14C1234.73,-143.27 1198.57,-134.38 1171.54,-127.74"/>
<polygon fill="#63b8ff" stroke="#63b8ff" points="1265.92,-154.53 1276.46,-153.52 1267.59,-147.74 1265.92,-154.53"/>
</a>
</g>
</g>
<!-- Node3 -->
<g id="Node000003" class="node">
<title>Node3</title>
<g id="a_Node000003"><a xlink:href="namespace_big_data_stat_meth.html#afbf517649a66c749830f33e4273857a7" target="_top" xlink:title="Block&#45;wise SVD decomposition for large HDF5 matrices.">
<polygon fill="white" stroke="#666666" points="575.62,-172.88 423.88,-172.88 423.88,-142.38 575.62,-142.38 575.62,-172.88"/>
<text xml:space="preserve" text-anchor="start" x="431.88" y="-159.38" font-family="Helvetica,sans-Serif" font-size="10.00">BigDataStatMeth::RcppbdSVD</text>
<text xml:space="preserve" text-anchor="middle" x="499.75" y="-148.12" font-family="Helvetica,sans-Serif" font-size="10.00">_hdf5_Block</text>
</a>
</g>
</g>
<!-- Node2&#45;&gt;Node3 -->
<g id="edge2_Node000002_Node000003" class="edge">
<title>Node2&#45;&gt;Node3</title>
<g id="a_edge2_Node000002_Node000003"><a xlink:title=" ">
<path fill="none" stroke="#63b8ff" d="M646.13,-206.84C639.15,-204.8 632.17,-202.7 625.5,-200.62 598.27,-192.14 568.02,-181.74 544.13,-173.29"/>
<polygon fill="#63b8ff" stroke="#63b8ff" points="645.05,-210.16 655.62,-209.57 646.98,-203.44 645.05,-210.16"/>
</a>
</g>
</g>
<!-- Node4 -->
<g id="Node000004" class="node">
<title>Node4</title>
<g id="a_Node000004"><a xlink:href="namespace_big_data_stat_meth.html#a05d2196df8a68f19b986fd06d8812e84" target="_top" xlink:title="Main SVD computation function for HDF5 matrices.">
<polygon fill="white" stroke="#666666" points="374,-136.25 198.25,-136.25 198.25,-117 374,-117 374,-136.25"/>
<text xml:space="preserve" text-anchor="middle" x="286.12" y="-122.75" font-family="Helvetica,sans-Serif" font-size="10.00">BigDataStatMeth::RcppbdSVD_hdf5</text>
</a>
</g>
</g>
<!-- Node3&#45;&gt;Node4 -->
<g id="edge3_Node000003_Node000004" class="edge">
<title>Node3&#45;&gt;Node4</title>
<g id="a_edge3_Node000003_Node000004"><a xlink:title=" ">
<path fill="none" stroke="#63b8ff" d="M412.32,-144.96C393.6,-142.22 374.04,-139.36 356.09,-136.73"/>
<polygon fill="#63b8ff" stroke="#63b8ff" points="411.64,-148.4 422.05,-146.39 412.66,-141.48 411.64,-148.4"/>
</a>
</g>
</g>
<!-- Node5 -->
<g id="Node000005" class="node">
<title>Node5</title>
<g id="a_Node000005"><a xlink:href="namespace_big_data_stat_meth.html#ad6b05b5b52e05bd7801b03ba6008980d" target="_top" xlink:title="Perform Principal Component Analysis.">
<polygon fill="white" stroke="#666666" points="162.25,-136.25 0,-136.25 0,-117 162.25,-117 162.25,-136.25"/>
<text xml:space="preserve" text-anchor="middle" x="81.12" y="-122.75" font-family="Helvetica,sans-Serif" font-size="10.00">BigDataStatMeth::RcppPCAHdf5</text>
</a>
</g>
</g>
<!-- Node4&#45;&gt;Node5 -->
<g id="edge4_Node000004_Node000005" class="edge">
<title>Node4&#45;&gt;Node5</title>
<g id="a_edge4_Node000004_Node000005"><a xlink:title=" ">
<path fill="none" stroke="#63b8ff" d="M186.54,-126.62C178.51,-126.62 170.46,-126.62 162.58,-126.62"/>
<polygon fill="#63b8ff" stroke="#63b8ff" points="186.34,-130.13 196.34,-126.63 186.34,-123.13 186.34,-130.13"/>
</a>
</g>
</g>
<!-- Node7&#45;&gt;Node2 -->
<g id="edge7_Node000007_Node000002" class="edge">
<title>Node7&#45;&gt;Node2</title>
<g id="a_edge7_Node000007_Node000002"><a xlink:title=" ">
<path fill="none" stroke="#63b8ff" d="M1089.48,-131.3C1054.44,-143.57 1007.08,-160.05 998,-162.62 931.39,-181.52 854.6,-198.41 798.15,-209.94"/>
<polygon fill="#63b8ff" stroke="#63b8ff" points="1090.19,-134.76 1098.47,-128.14 1087.88,-128.15 1090.19,-134.76"/>
</a>
</g>
</g>
<!-- Node8 -->
<g id="Node000008" class="node">
<title>Node8</title>
<g id="a_Node000008"><a xlink:href="namespace_big_data_stat_meth.html#af27025105c7f4730a8233cf325613694" target="_top" xlink:title="Block&#45;wise eigendecomposition for large HDF5 matrices using Spectra.">
<polygon fill="white" stroke="#666666" points="793.75,-67.88 638.25,-67.88 638.25,-37.38 793.75,-37.38 793.75,-67.88"/>
<text xml:space="preserve" text-anchor="start" x="646.25" y="-54.38" font-family="Helvetica,sans-Serif" font-size="10.00">BigDataStatMeth::RcppbdEigen</text>
<text xml:space="preserve" text-anchor="middle" x="716" y="-43.12" font-family="Helvetica,sans-Serif" font-size="10.00">_hdf5_Block</text>
</a>
</g>
</g>
<!-- Node7&#45;&gt;Node8 -->
<g id="edge8_Node000007_Node000008" class="edge">
<title>Node7&#45;&gt;Node8</title>
<g id="a_edge8_Node000007_Node000008"><a xlink:title=" ">
<path fill="none" stroke="#63b8ff" d="M1039.82,-106.01C983.27,-98.32 908.45,-87.65 842.5,-76.62 826.86,-74.01 810.16,-70.98 794.22,-67.98"/>
<polygon fill="#63b8ff" stroke="#63b8ff" points="1039,-109.43 1049.37,-107.3 1039.93,-102.49 1039,-109.43"/>
</a>
</g>
</g>
<!-- Node10 -->
<g id="Node000010" class="node">
<title>Node10</title>
<g id="a_Node000010"><a xlink:href="namespace_big_data_stat_meth.html#a050dd22b3a20be0b77d4b72fd278a214" target="_top" xlink:title="Eigenvalue decomposition using Spectra (compatible with BigDataStatMeth SVD version)">
<polygon fill="white" stroke="#666666" points="998,-67.88 842.5,-67.88 842.5,-37.38 998,-37.38 998,-67.88"/>
<text xml:space="preserve" text-anchor="start" x="850.5" y="-54.38" font-family="Helvetica,sans-Serif" font-size="10.00">BigDataStatMeth::RcppbdEigen</text>
<text xml:space="preserve" text-anchor="middle" x="920.25" y="-43.12" font-family="Helvetica,sans-Serif" font-size="10.00">_spectra</text>
</a>
</g>
</g>
<!-- Node7&#45;&gt;Node10 -->
<g id="edge10_Node000007_Node000010" class="edge">
<title>Node7&#45;&gt;Node10</title>
<g id="a_edge10_Node000007_Node000010"><a xlink:title=" ">
<path fill="none" stroke="#63b8ff" d="M1085.73,-104.24C1052.52,-93.82 1006.33,-79.32 971.35,-68.35"/>
<polygon fill="#63b8ff" stroke="#63b8ff" points="1084.43,-107.5 1095.02,-107.16 1086.53,-100.82 1084.43,-107.5"/>
</a>
</g>
</g>
<!-- Node11 -->
<g id="Node000011" class="node">
<title>Node11</title>
<g id="a_Node000011"><a xlink:href="namespace_big_data_stat_meth.html#afaec816571c5d3411749d33349ed9eda" target="_top" xlink:title="Compute SVD decomposition using Spectra eigenvalue solver.">
<polygon fill="white" stroke="#666666" points="996.12,-19.25 844.38,-19.25 844.38,0 996.12,0 996.12,-19.25"/>
<text xml:space="preserve" text-anchor="middle" x="920.25" y="-5.75" font-family="Helvetica,sans-Serif" font-size="10.00">BigDataStatMeth::RcppbdSVD</text>
</a>
</g>
</g>
<!-- Node7&#45;&gt;Node11 -->
<g id="edge13_Node000007_Node000011" class="edge">
<title>Node7&#45;&gt;Node11</title>
<g id="a_edge13_Node000007_Node000011"><a xlink:title=" ">
<path fill="none" stroke="#63b8ff" d="M1108.3,-100.51C1083.81,-80.47 1040.4,-47.6 998,-28.62 990.11,-25.09 981.45,-22.15 972.88,-19.72"/>
<polygon fill="#63b8ff" stroke="#63b8ff" points="1105.92,-103.08 1115.85,-106.78 1110.39,-97.7 1105.92,-103.08"/>
</a>
</g>
</g>
<!-- Node12 -->
<g id="Node000012" class="node">
<title>Node12</title>
<g id="a_Node000012"><a xlink:href="namespace_big_data_stat_meth.html#a818fb4dbac351735a7272343c3ad5f23" target="_top" xlink:title=" ">
<polygon fill="white" stroke="#666666" points="996.12,-153.88 844.38,-153.88 844.38,-123.38 996.12,-123.38 996.12,-153.88"/>
<text xml:space="preserve" text-anchor="start" x="852.38" y="-140.38" font-family="Helvetica,sans-Serif" font-size="10.00">BigDataStatMeth::RcppbdSVD</text>
<text xml:space="preserve" text-anchor="middle" x="920.25" y="-129.12" font-family="Helvetica,sans-Serif" font-size="10.00">_lapack</text>
</a>
</g>
</g>
<!-- Node7&#45;&gt;Node12 -->
<g id="edge14_Node000007_Node000012" class="edge">
<title>Node7&#45;&gt;Node12</title>
<g id="a_edge14_Node000007_Node000012"><a xlink:title=" ">
<path fill="none" stroke="#63b8ff" d="M1022.18,-128.39C1013.49,-129.27 1004.83,-130.15 996.43,-131"/>
<polygon fill="#63b8ff" stroke="#63b8ff" points="1022.5,-131.88 1032.1,-127.39 1021.79,-124.91 1022.5,-131.88"/>
</a>
</g>
</g>
<!-- Node9 -->
<g id="Node000009" class="node">
<title>Node9</title>
<g id="a_Node000009"><a xlink:href="namespace_big_data_stat_meth.html#a05652afd0a5a4a4afcda52b3d3bd2cc0" target="_top" xlink:title="Main eigenvalue decomposition function for HDF5 matrices using Spectra.">
<polygon fill="white" stroke="#666666" points="589.5,-41.25 410,-41.25 410,-22 589.5,-22 589.5,-41.25"/>
<text xml:space="preserve" text-anchor="middle" x="499.75" y="-27.75" font-family="Helvetica,sans-Serif" font-size="10.00">BigDataStatMeth::RcppbdEigen_hdf5</text>
</a>
</g>
</g>
<!-- Node8&#45;&gt;Node9 -->
<g id="edge9_Node000008_Node000009" class="edge">
<title>Node8&#45;&gt;Node9</title>
<g id="a_edge9_Node000008_Node000009"><a xlink:title=" ">
<path fill="none" stroke="#63b8ff" d="M626.85,-43.99C614.64,-42.79 602.09,-41.56 589.86,-40.36"/>
<polygon fill="#63b8ff" stroke="#63b8ff" points="626.15,-47.43 636.45,-44.93 626.84,-40.47 626.15,-47.43"/>
</a>
</g>
</g>
<!-- Node10&#45;&gt;Node8 -->
<g id="edge12_Node000010_Node000008" class="edge">
<title>Node10&#45;&gt;Node8</title>
<g id="a_edge12_Node000010_Node000008"><a xlink:title=" ">
<path fill="none" stroke="#63b8ff" d="M831.03,-52.62C818.75,-52.62 806.21,-52.62 794.16,-52.62"/>
<polygon fill="#63b8ff" stroke="#63b8ff" points="830.7,-56.13 840.7,-52.63 830.7,-49.13 830.7,-56.13"/>
</a>
</g>
</g>
<!-- Node10&#45;&gt;Node9 -->
<g id="edge11_Node000010_Node000009" class="edge">
<title>Node10&#45;&gt;Node9</title>
<g id="a_edge11_Node000010_Node000009"><a xlink:title=" ">
<path fill="none" stroke="#63b8ff" d="M845.5,-34.61C832.57,-32.12 819.2,-29.96 806.5,-28.62 733.91,-20.98 651.09,-22.42 589.98,-25.38"/>
<polygon fill="#63b8ff" stroke="#63b8ff" points="844.73,-38.03 855.22,-36.58 846.11,-31.17 844.73,-38.03"/>
</a>
</g>
</g>
<!-- Node12&#45;&gt;Node2 -->
<g id="edge15_Node000012_Node000002" class="edge">
<title>Node12&#45;&gt;Node2</title>
<g id="a_edge15_Node000012_Node000002"><a xlink:title=" ">
<path fill="none" stroke="#63b8ff" d="M864.72,-158.96C857.08,-162.49 849.46,-166.41 842.5,-170.62 824.69,-181.42 824.94,-190.94 806.5,-200.62 799.79,-204.15 792.52,-207.22 785.13,-209.89"/>
<polygon fill="#63b8ff" stroke="#63b8ff" points="865.99,-162.23 873.72,-154.99 863.16,-155.82 865.99,-162.23"/>
</a>
</g>
</g>
<!-- Node12&#45;&gt;Node3 -->
<g id="edge19_Node000012_Node000003" class="edge">
<title>Node12&#45;&gt;Node3</title>
<g id="a_edge19_Node000012_Node000003"><a xlink:title=" ">
<path fill="none" stroke="#63b8ff" d="M832.55,-142.56C756.78,-146 647.9,-150.94 575.8,-154.22"/>
<polygon fill="#63b8ff" stroke="#63b8ff" points="832.6,-146.06 842.44,-142.11 832.29,-139.07 832.6,-146.06"/>
</a>
</g>
</g>
<!-- Node12&#45;&gt;Node4 -->
<g id="edge18_Node000012_Node000004" class="edge">
<title>Node12&#45;&gt;Node4</title>
<g id="a_edge18_Node000012_Node000004"><a xlink:title=" ">
<path fill="none" stroke="#63b8ff" d="M832.59,-136.98C712.07,-134.69 495.1,-130.57 374.31,-128.28"/>
<polygon fill="#63b8ff" stroke="#63b8ff" points="832.36,-140.48 842.43,-137.17 832.5,-133.48 832.36,-140.48"/>
</a>
</g>
</g>
<!-- Node13 -->
<g id="Node000013" class="node">
<title>Node13</title>
<g id="a_Node000013"><a xlink:href="namespace_big_data_stat_meth.html#aba547c198a44e235965333df9d1dc146" target="_top" xlink:title=" ">
<polygon fill="white" stroke="#666666" points="806.5,-191.88 625.5,-191.88 625.5,-161.38 806.5,-161.38 806.5,-191.88"/>
<text xml:space="preserve" text-anchor="start" x="633.5" y="-178.38" font-family="Helvetica,sans-Serif" font-size="10.00">BigDataStatMeth::Next</text>
<text xml:space="preserve" text-anchor="middle" x="716" y="-167.12" font-family="Helvetica,sans-Serif" font-size="10.00">_level_SvdBlock_decomposition_hdf5</text>
</a>
</g>
</g>
<!-- Node12&#45;&gt;Node13 -->
<g id="edge16_Node000012_Node000013" class="edge">
<title>Node12&#45;&gt;Node13</title>
<g id="a_edge16_Node000012_Node000013"><a xlink:title=" ">
<path fill="none" stroke="#63b8ff" d="M832.87,-154.85C822.15,-156.87 811.21,-158.92 800.53,-160.93"/>
<polygon fill="#63b8ff" stroke="#63b8ff" points="833.27,-158.34 842.45,-153.05 831.98,-151.46 833.27,-158.34"/>
</a>
</g>
</g>
<!-- Node13&#45;&gt;Node3 -->
<g id="edge17_Node000013_Node000003" class="edge">
<title>Node13&#45;&gt;Node3</title>
<g id="a_edge17_Node000013_Node000003"><a xlink:title=" ">
<path fill="none" stroke="#63b8ff" d="M613.87,-167.66C601.08,-166.52 588.17,-165.38 575.88,-164.29"/>
<polygon fill="#63b8ff" stroke="#63b8ff" points="613.29,-171.12 623.56,-168.52 613.91,-164.15 613.29,-171.12"/>
</a>
</g>
</g>
</g>
</svg>

<g id="navigator" transform="translate(0 0)" fill="#404254">
  <rect fill="#f2f5e9" fill-opacity="0.5" stroke="#606060" stroke-width=".5" x="0" y="0" width="60" height="60"/>
  <use id="zoomplus" xlink:href="#zoomPlus" x="17" y="9" onmousedown="handleZoom(evt,'in')"/>
  <use id="zoomminus" xlink:href="#zoomMin" x="42" y="9" onmousedown="handleZoom(evt,'out')"/>
  <use id="reset" xlink:href="#resetDef" x="30" y="36" onmousedown="handleReset()"/>
   <use id="arrowup" xlink:href="#arrowUp" x="0" y="0" onmousedown="handlePan(0,-1)"/>
  <use id="arrowright" xlink:href="#arrowRight" x="0" y="0" onmousedown="handlePan(1,0)"/>
  <use id="arrowdown" xlink:href="#arrowDown" x="0" y="0" onmousedown="handlePan(0,1)"/>
  <use id="arrowleft" xlink:href="#arrowLeft" x="0" y="0" onmousedown="handlePan(-1,0)"/>
</g>
<svg viewBox="0 0 15 15" width="100%" height="30px" preserveAspectRatio="xMaxYMin meet">
 <g id="arrow_out" transform="scale(0.3 0.3)">
  <a xlink:href="namespace_big_data_stat_meth_aaac3a1d91c92fdf91f7bbc256672b68e_icgraph_org.svg" target="_base">
   <rect id="button" ry="5" rx="5" y="6" x="6" height="38" width="38"
        fill="#f2f5e9" fill-opacity="0.5" stroke="#606060" stroke-width="1.0"/>
   <path id="arrow"
     d="M 11.500037,31.436501 C 11.940474,20.09759 22.043105,11.32322 32.158766,21.979434 L 37.068811,17.246167 C 37.068811,17.246167 37.088388,32 37.088388,32 L 22.160133,31.978069 C 22.160133,31.978069 26.997745,27.140456 26.997745,27.140456 C 18.528582,18.264221 13.291696,25.230495 11.500037,31.436501 z"
     style="fill:#404040;"/>
  </a>
 </g>
</svg>

<style type='text/css'>
<![CDATA[
[data-mouse-over-selected='false'] { opacity: 0.7; }
[data-mouse-over-selected='true']  { opacity: 1.0; }
]]>
</style>
<script type="application/ecmascript"><![CDATA[
document.addEventListener('DOMContentLoaded', (event) => {
  highlightEdges();
  highlightAdjacentNodes();
});
]]></script>
</svg>
