<?xml version="1.0" encoding="UTF-8" standalone="no"?>
<!DOCTYPE svg PUBLIC "-//W3C//DTD SVG 1.1//EN"
 "http://www.w3.org/Graphics/SVG/1.1/DTD/svg11.dtd">
<!-- Generated by graphviz version 14.0.0 (20250921.2048)
 -->
<!-- Title: BigDataStatMeth::agg_block_size Pages: 1 -->
<!--zoomable 676 -->

<svg id="main" version="1.1" xmlns="http://www.w3.org/2000/svg" xmlns:xlink="http://www.w3.org/1999/xlink" xml:space="preserve" onload="init(evt)">

<style type="text/css"><![CDATA[
.node, .edge {opacity: 0.7;}
.node.selected, .edge.selected {opacity: 1;}
.edge:hover path { stroke: red; }
.edge:hover polygon { stroke: red; fill: red; }
]]></style>

<defs>
  <circle id="rim" cx="0" cy="0" r="7"/>
  <circle id="rim2" cx="0" cy="0" r="3.5"/>
  <g id="zoomPlus">
    <use xlink:href="#rim" fill="#404040"><set attributeName="fill" to="#808080" begin="zoomplus.mouseover" end="zoomplus.mouseout"/></use>
    <path d="M-4,0h8M0,-4v8" fill="none" stroke="white" stroke-width="1.5" pointer-events="none"/>
  </g>
  <g id="zoomMin">
    <use xlink:href="#rim" fill="#404040"><set attributeName="fill" to="#808080" begin="zoomminus.mouseover" end="zoomminus.mouseout"/></use>
    <path d="M-4,0h8" fill="none" stroke="white" stroke-width="1.5" pointer-events="none"/>
  </g>
  <g id="arrowUp" transform="translate(30 24)">
    <use xlink:href="#rim"/>
    <path pointer-events="none" fill="none" stroke="white" stroke-width="1.5" d="M0,-3.0v7 M-2.5,-0.5L0,-3.0L2.5,-0.5"/>
  </g>
  <g id="arrowRight" transform="rotate(90) translate(36 -43)">
    <use xlink:href="#rim"/>
    <path pointer-events="none" fill="none" stroke="white" stroke-width="1.5" d="M0,-3.0v7 M-2.5,-0.5L0,-3.0L2.5,-0.5"/>
  </g>
  <g id="arrowDown" transform="rotate(180) translate(-30 -48)">
    <use xlink:href="#rim"/>
    <path pointer-events="none" fill="none" stroke="white" stroke-width="1.5" d="M0,-3.0v7 M-2.5,-0.5L0,-3.0L2.5,-0.5"/>
  </g>
  <g id="arrowLeft" transform="rotate(270) translate(-36 17)">
    <use xlink:href="#rim"/>
    <path pointer-events="none" fill="none" stroke="white" stroke-width="1.5" d="M0,-3.0v7 M-2.5,-0.5L0,-3.0L2.5,-0.5"/>
  </g>
  <g id="resetDef">
    <use xlink:href="#rim2" fill="#404040"><set attributeName="fill" to="#808080" begin="reset.mouseover" end="reset.mouseout"/></use>
  </g>
</defs>
<script type="application/ecmascript">
var viewWidth = 414;
var viewHeight = 676;
var sectionId = 'dynsection-0';
</script>
<script type="application/ecmascript" xlink:href="../../../../assets/svg.min.js"/>
<svg id="graph" class="graph">
<g id="viewport">
<title>BigDataStatMeth::agg_block_size</title>
<!-- Node1 -->
<g id="Node000001" class="node">
<title>Node1</title>
<g id="a_Node000001"><a xlink:title="Choose a block size for aggregation.">
<polygon fill="#999999" stroke="#666666" points="405.75,-348.5 293,-348.5 293,-318 405.75,-318 405.75,-348.5"/>
<text xml:space="preserve" text-anchor="start" x="301" y="-335" font-family="Helvetica,sans-Serif" font-size="10.00">BigDataStatMeth::agg</text>
<text xml:space="preserve" text-anchor="middle" x="349.38" y="-323.75" font-family="Helvetica,sans-Serif" font-size="10.00">_block_size</text>
</a>
</g>
</g>
<!-- Node2 -->
<g id="Node000002" class="node">
<title>Node2</title>
<g id="a_Node000002"><a xlink:href="namespace_big_data_stat_meth.html#a38ca870bcb4430d2a1c464d560c084dd" target="_top" xlink:title="Column maximums of an HDF5 matrix (block&#45;wise, parallel).">
<polygon fill="white" stroke="#666666" points="257,-667.5 146.5,-667.5 146.5,-637 257,-637 257,-667.5"/>
<text xml:space="preserve" text-anchor="start" x="154.5" y="-654" font-family="Helvetica,sans-Serif" font-size="10.00">BigDataStatMeth::get</text>
<text xml:space="preserve" text-anchor="middle" x="201.75" y="-642.75" font-family="Helvetica,sans-Serif" font-size="10.00">_HDF5_colMaxs</text>
</a>
</g>
</g>
<!-- Node1&#45;&gt;Node2 -->
<g id="edge1_Node000001_Node000002" class="edge">
<title>Node1&#45;&gt;Node2</title>
<g id="a_edge1_Node000001_Node000002"><a xlink:title=" ">
<path fill="none" stroke="#63b8ff" d="M347.12,-360.21C343.14,-416.54 326.48,-548.06 257,-627.25 253.85,-630.84 250.09,-633.94 246.02,-636.62"/>
<polygon fill="#63b8ff" stroke="#63b8ff" points="350.61,-360.48 347.73,-350.28 343.63,-360.05 350.61,-360.48"/>
</a>
</g>
</g>
<!-- Node3 -->
<g id="Node000003" class="node">
<title>Node3</title>
<g id="a_Node000003"><a xlink:href="namespace_big_data_stat_meth.html#a82d012de21445dca7659eec75be0f818" target="_top" xlink:title="Column means of an HDF5 matrix (block&#45;wise, parallel, single&#45;pass).">
<polygon fill="white" stroke="#666666" points="257,-618.5 146.5,-618.5 146.5,-588 257,-588 257,-618.5"/>
<text xml:space="preserve" text-anchor="start" x="154.5" y="-605" font-family="Helvetica,sans-Serif" font-size="10.00">BigDataStatMeth::get</text>
<text xml:space="preserve" text-anchor="middle" x="201.75" y="-593.75" font-family="Helvetica,sans-Serif" font-size="10.00">_HDF5_colMeans</text>
</a>
</g>
</g>
<!-- Node1&#45;&gt;Node3 -->
<g id="edge2_Node000001_Node000003" class="edge">
<title>Node1&#45;&gt;Node3</title>
<g id="a_edge2_Node000001_Node000003"><a xlink:title=" ">
<path fill="none" stroke="#63b8ff" d="M345.13,-360.1C337.88,-409.27 316.06,-514.59 257,-578.25 253.68,-581.82 249.76,-584.93 245.56,-587.61"/>
<polygon fill="#63b8ff" stroke="#63b8ff" points="348.58,-360.75 346.47,-350.36 341.64,-359.79 348.58,-360.75"/>
</a>
</g>
</g>
<!-- Node4 -->
<g id="Node000004" class="node">
<title>Node4</title>
<g id="a_Node000004"><a xlink:href="namespace_big_data_stat_meth.html#a4a0c9bb04e9b95cbdbcb1324c85e972d" target="_top" xlink:title="Column minimums of an HDF5 matrix (block&#45;wise, parallel).">
<polygon fill="white" stroke="#666666" points="257,-569.5 146.5,-569.5 146.5,-539 257,-539 257,-569.5"/>
<text xml:space="preserve" text-anchor="start" x="154.5" y="-556" font-family="Helvetica,sans-Serif" font-size="10.00">BigDataStatMeth::get</text>
<text xml:space="preserve" text-anchor="middle" x="201.75" y="-544.75" font-family="Helvetica,sans-Serif" font-size="10.00">_HDF5_colMins</text>
</a>
</g>
</g>
<!-- Node1&#45;&gt;Node4 -->
<g id="edge3_Node000001_Node000004" class="edge">
<title>Node1&#45;&gt;Node4</title>
<g id="a_edge3_Node000001_Node000004"><a xlink:title=" ">
<path fill="none" stroke="#63b8ff" d="M342.27,-359.88C331.57,-401.1 305.79,-480.67 257,-529.25 253.47,-532.76 249.36,-535.84 245.01,-538.51"/>
<polygon fill="#63b8ff" stroke="#63b8ff" points="345.63,-360.88 344.64,-350.33 338.83,-359.19 345.63,-360.88"/>
</a>
</g>
</g>
<!-- Node5 -->
<g id="Node000005" class="node">
<title>Node5</title>
<g id="a_Node000005"><a xlink:href="namespace_big_data_stat_meth.html#af82f0e8ee954fac328c443e4cfc21a5c" target="_top" xlink:title="Column sums of an HDF5 matrix (block&#45;wise, parallel).">
<polygon fill="white" stroke="#666666" points="257,-520.5 146.5,-520.5 146.5,-490 257,-490 257,-520.5"/>
<text xml:space="preserve" text-anchor="start" x="154.5" y="-507" font-family="Helvetica,sans-Serif" font-size="10.00">BigDataStatMeth::get</text>
<text xml:space="preserve" text-anchor="middle" x="201.75" y="-495.75" font-family="Helvetica,sans-Serif" font-size="10.00">_HDF5_colSums</text>
</a>
</g>
</g>
<!-- Node1&#45;&gt;Node5 -->
<g id="edge4_Node000001_Node000005" class="edge">
<title>Node1&#45;&gt;Node5</title>
<g id="a_edge4_Node000001_Node000005"><a xlink:title=" ">
<path fill="none" stroke="#63b8ff" d="M337.99,-358.94C323.88,-391.03 295.89,-445.92 257,-480.25 253.04,-483.75 248.5,-486.85 243.77,-489.56"/>
<polygon fill="#63b8ff" stroke="#63b8ff" points="341.1,-360.57 341.8,-349.99 334.66,-357.82 341.1,-360.57"/>
</a>
</g>
</g>
<!-- Node6 -->
<g id="Node000006" class="node">
<title>Node6</title>
<g id="a_Node000006"><a xlink:href="namespace_big_data_stat_meth.html#a422df18652f8799154d7b6cb35310cd0" target="_top" xlink:title="Column variances of an HDF5 matrix (block&#45;wise, parallel).">
<polygon fill="white" stroke="#666666" points="257,-471.5 146.5,-471.5 146.5,-441 257,-441 257,-471.5"/>
<text xml:space="preserve" text-anchor="start" x="154.5" y="-458" font-family="Helvetica,sans-Serif" font-size="10.00">BigDataStatMeth::get</text>
<text xml:space="preserve" text-anchor="middle" x="201.75" y="-446.75" font-family="Helvetica,sans-Serif" font-size="10.00">_HDF5_colVars</text>
</a>
</g>
</g>
<!-- Node1&#45;&gt;Node6 -->
<g id="edge5_Node000001_Node000006" class="edge">
<title>Node1&#45;&gt;Node6</title>
<g id="a_edge5_Node000001_Node000006"><a xlink:title=" ">
<path fill="none" stroke="#63b8ff" d="M330.01,-357.82C312.96,-379.34 285.9,-410.35 257,-431.25 252.29,-434.65 247.05,-437.76 241.73,-440.55"/>
<polygon fill="#63b8ff" stroke="#63b8ff" points="332.6,-360.19 335.97,-350.15 327.07,-355.9 332.6,-360.19"/>
</a>
</g>
</g>
<!-- Node8 -->
<g id="Node000008" class="node">
<title>Node8</title>
<g id="a_Node000008"><a xlink:href="namespace_big_data_stat_meth.html#a0c5c85bade63f2f3908fe71cff8fae53" target="_top" xlink:title="Row maximums of an HDF5 matrix (block&#45;wise, parallel).">
<polygon fill="white" stroke="#666666" points="257,-422.5 146.5,-422.5 146.5,-392 257,-392 257,-422.5"/>
<text xml:space="preserve" text-anchor="start" x="154.5" y="-409" font-family="Helvetica,sans-Serif" font-size="10.00">BigDataStatMeth::get</text>
<text xml:space="preserve" text-anchor="middle" x="201.75" y="-397.75" font-family="Helvetica,sans-Serif" font-size="10.00">_HDF5_rowMaxs</text>
</a>
</g>
</g>
<!-- Node1&#45;&gt;Node8 -->
<g id="edge7_Node000001_Node000008" class="edge">
<title>Node1&#45;&gt;Node8</title>
<g id="a_edge7_Node000001_Node000008"><a xlink:title=" ">
<path fill="none" stroke="#63b8ff" d="M310.47,-354.24C294.14,-363.11 274.75,-373.41 257,-382.25 250.78,-385.35 244.1,-388.54 237.63,-391.56"/>
<polygon fill="#63b8ff" stroke="#63b8ff" points="311.78,-357.51 318.88,-349.65 308.42,-351.37 311.78,-357.51"/>
</a>
</g>
</g>
<!-- Node9 -->
<g id="Node000009" class="node">
<title>Node9</title>
<g id="a_Node000009"><a xlink:href="namespace_big_data_stat_meth.html#add035185edaee7450907ce982074ff46" target="_top" xlink:title="Row means of an HDF5 matrix (block&#45;wise, parallel, single&#45;pass).">
<polygon fill="white" stroke="#666666" points="257,-373.5 146.5,-373.5 146.5,-343 257,-343 257,-373.5"/>
<text xml:space="preserve" text-anchor="start" x="154.5" y="-360" font-family="Helvetica,sans-Serif" font-size="10.00">BigDataStatMeth::get</text>
<text xml:space="preserve" text-anchor="middle" x="201.75" y="-348.75" font-family="Helvetica,sans-Serif" font-size="10.00">_HDF5_rowMeans</text>
</a>
</g>
</g>
<!-- Node1&#45;&gt;Node9 -->
<g id="edge8_Node000001_Node000009" class="edge">
<title>Node1&#45;&gt;Node9</title>
<g id="a_edge8_Node000001_Node000009"><a xlink:title=" ">
<path fill="none" stroke="#63b8ff" d="M281.76,-344.69C273.5,-346.1 265.14,-347.54 257.1,-348.92"/>
<polygon fill="#63b8ff" stroke="#63b8ff" points="282.15,-348.17 291.41,-343.03 280.97,-341.27 282.15,-348.17"/>
</a>
</g>
</g>
<!-- Node10 -->
<g id="Node000010" class="node">
<title>Node10</title>
<g id="a_Node000010"><a xlink:href="namespace_big_data_stat_meth.html#ae73ea41e18b90a455fe641691e75ba6f" target="_top" xlink:title="Row minimums of an HDF5 matrix (block&#45;wise, parallel).">
<polygon fill="white" stroke="#666666" points="257,-324.5 146.5,-324.5 146.5,-294 257,-294 257,-324.5"/>
<text xml:space="preserve" text-anchor="start" x="154.5" y="-311" font-family="Helvetica,sans-Serif" font-size="10.00">BigDataStatMeth::get</text>
<text xml:space="preserve" text-anchor="middle" x="201.75" y="-299.75" font-family="Helvetica,sans-Serif" font-size="10.00">_HDF5_rowMins</text>
</a>
</g>
</g>
<!-- Node1&#45;&gt;Node10 -->
<g id="edge9_Node000001_Node000010" class="edge">
<title>Node1&#45;&gt;Node10</title>
<g id="a_edge9_Node000001_Node000010"><a xlink:title=" ">
<path fill="none" stroke="#63b8ff" d="M281.76,-322.27C273.5,-320.91 265.14,-319.53 257.1,-318.21"/>
<polygon fill="#63b8ff" stroke="#63b8ff" points="280.98,-325.69 291.41,-323.86 282.11,-318.78 280.98,-325.69"/>
</a>
</g>
</g>
<!-- Node11 -->
<g id="Node000011" class="node">
<title>Node11</title>
<g id="a_Node000011"><a xlink:href="namespace_big_data_stat_meth.html#a10f253b85438cc2850a8ae571f9a8fc7" target="_top" xlink:title="Row sums of an HDF5 matrix (block&#45;wise, parallel).">
<polygon fill="white" stroke="#666666" points="257,-275.5 146.5,-275.5 146.5,-245 257,-245 257,-275.5"/>
<text xml:space="preserve" text-anchor="start" x="154.5" y="-262" font-family="Helvetica,sans-Serif" font-size="10.00">BigDataStatMeth::get</text>
<text xml:space="preserve" text-anchor="middle" x="201.75" y="-250.75" font-family="Helvetica,sans-Serif" font-size="10.00">_HDF5_rowSums</text>
</a>
</g>
</g>
<!-- Node1&#45;&gt;Node11 -->
<g id="edge10_Node000001_Node000011" class="edge">
<title>Node1&#45;&gt;Node11</title>
<g id="a_edge10_Node000001_Node000011"><a xlink:title=" ">
<path fill="none" stroke="#63b8ff" d="M309.23,-312.12C293.15,-303.58 274.27,-293.76 257,-285.25 250.77,-282.18 244.08,-279 237.61,-275.99"/>
<polygon fill="#63b8ff" stroke="#63b8ff" points="307.55,-315.19 318.02,-316.8 310.84,-309.01 307.55,-315.19"/>
</a>
</g>
</g>
<!-- Node12 -->
<g id="Node000012" class="node">
<title>Node12</title>
<g id="a_Node000012"><a xlink:href="namespace_big_data_stat_meth.html#ac8d13985d47812d03cbbdfc2ff4ede28" target="_top" xlink:title="Row variances of an HDF5 matrix (block&#45;wise, parallel).">
<polygon fill="white" stroke="#666666" points="257,-226.5 146.5,-226.5 146.5,-196 257,-196 257,-226.5"/>
<text xml:space="preserve" text-anchor="start" x="154.5" y="-213" font-family="Helvetica,sans-Serif" font-size="10.00">BigDataStatMeth::get</text>
<text xml:space="preserve" text-anchor="middle" x="201.75" y="-201.75" font-family="Helvetica,sans-Serif" font-size="10.00">_HDF5_rowVars</text>
</a>
</g>
</g>
<!-- Node1&#45;&gt;Node12 -->
<g id="edge11_Node000001_Node000012" class="edge">
<title>Node1&#45;&gt;Node12</title>
<g id="a_edge11_Node000001_Node000012"><a xlink:title=" ">
<path fill="none" stroke="#63b8ff" d="M329.96,-308.95C312.87,-287.65 285.79,-256.96 257,-236.25 252.29,-232.86 247.04,-229.76 241.72,-226.98"/>
<polygon fill="#63b8ff" stroke="#63b8ff" points="327,-310.84 335.93,-316.53 332.5,-306.51 327,-310.84"/>
</a>
</g>
</g>
<!-- Node14 -->
<g id="Node000014" class="node">
<title>Node14</title>
<g id="a_Node000014"><a xlink:href="namespace_big_data_stat_meth.html#ae21d55a34725824210d64853341f571d" target="_top" xlink:title="Maximum of all elements of an HDF5 matrix.">
<polygon fill="white" stroke="#666666" points="257,-177.5 146.5,-177.5 146.5,-147 257,-147 257,-177.5"/>
<text xml:space="preserve" text-anchor="start" x="154.5" y="-164" font-family="Helvetica,sans-Serif" font-size="10.00">BigDataStatMeth::get</text>
<text xml:space="preserve" text-anchor="middle" x="201.75" y="-152.75" font-family="Helvetica,sans-Serif" font-size="10.00">_HDF5_scalar_max</text>
</a>
</g>
</g>
<!-- Node1&#45;&gt;Node14 -->
<g id="edge13_Node000001_Node000014" class="edge">
<title>Node1&#45;&gt;Node14</title>
<g id="a_edge13_Node000001_Node000014"><a xlink:title=" ">
<path fill="none" stroke="#63b8ff" d="M337.73,-307.24C323.5,-275.3 295.55,-221.18 257,-187.25 253.03,-183.76 248.49,-180.66 243.76,-177.95"/>
<polygon fill="#63b8ff" stroke="#63b8ff" points="334.4,-308.37 341.58,-316.16 340.82,-305.59 334.4,-308.37"/>
</a>
</g>
</g>
<!-- Node15 -->
<g id="Node000015" class="node">
<title>Node15</title>
<g id="a_Node000015"><a xlink:href="namespace_big_data_stat_meth.html#a306ea8da99adbfee5585101b56fa5da1" target="_top" xlink:title="Minimum of all elements of an HDF5 matrix.">
<polygon fill="white" stroke="#666666" points="257,-128.5 146.5,-128.5 146.5,-98 257,-98 257,-128.5"/>
<text xml:space="preserve" text-anchor="start" x="154.5" y="-115" font-family="Helvetica,sans-Serif" font-size="10.00">BigDataStatMeth::get</text>
<text xml:space="preserve" text-anchor="middle" x="201.75" y="-103.75" font-family="Helvetica,sans-Serif" font-size="10.00">_HDF5_scalar_min</text>
</a>
</g>
</g>
<!-- Node1&#45;&gt;Node15 -->
<g id="edge14_Node000001_Node000015" class="edge">
<title>Node1&#45;&gt;Node15</title>
<g id="a_edge14_Node000001_Node000015"><a xlink:title=" ">
<path fill="none" stroke="#63b8ff" d="M342.23,-306.75C331.48,-265.74 305.64,-186.58 257,-138.25 253.47,-134.74 249.35,-131.67 245,-128.99"/>
<polygon fill="#63b8ff" stroke="#63b8ff" points="338.79,-307.4 344.61,-316.25 345.58,-305.7 338.79,-307.4"/>
</a>
</g>
</g>
<!-- Node16 -->
<g id="Node000016" class="node">
<title>Node16</title>
<g id="a_Node000016"><a xlink:href="namespace_big_data_stat_meth.html#a9dfc8d45132a6d879870567588b0e8b7" target="_top" xlink:title="Sum of all elements of an HDF5 matrix.">
<polygon fill="white" stroke="#666666" points="257,-79.5 146.5,-79.5 146.5,-49 257,-49 257,-79.5"/>
<text xml:space="preserve" text-anchor="start" x="154.5" y="-66" font-family="Helvetica,sans-Serif" font-size="10.00">BigDataStatMeth::get</text>
<text xml:space="preserve" text-anchor="middle" x="201.75" y="-54.75" font-family="Helvetica,sans-Serif" font-size="10.00">_HDF5_scalar_sum</text>
</a>
</g>
</g>
<!-- Node1&#45;&gt;Node16 -->
<g id="edge15_Node000001_Node000016" class="edge">
<title>Node1&#45;&gt;Node16</title>
<g id="a_edge15_Node000001_Node000016"><a xlink:title=" ">
<path fill="none" stroke="#63b8ff" d="M345.1,-306.51C337.79,-257.53 315.9,-152.64 257,-89.25 253.68,-85.68 249.75,-82.58 245.55,-79.89"/>
<polygon fill="#63b8ff" stroke="#63b8ff" points="341.6,-306.78 346.45,-316.2 348.54,-305.81 341.6,-306.78"/>
</a>
</g>
</g>
<!-- Node18 -->
<g id="Node000018" class="node">
<title>Node18</title>
<g id="a_Node000018"><a xlink:href="namespace_big_data_stat_meth.html#a74797f657c7845582c747f2873007f7a" target="_top" xlink:title="Variance of all elements of an HDF5 matrix (treated as a flat vector).">
<polygon fill="white" stroke="#666666" points="257,-30.5 146.5,-30.5 146.5,0 257,0 257,-30.5"/>
<text xml:space="preserve" text-anchor="start" x="154.5" y="-17" font-family="Helvetica,sans-Serif" font-size="10.00">BigDataStatMeth::get</text>
<text xml:space="preserve" text-anchor="middle" x="201.75" y="-5.75" font-family="Helvetica,sans-Serif" font-size="10.00">_HDF5_scalar_var</text>
</a>
</g>
</g>
<!-- Node1&#45;&gt;Node18 -->
<g id="edge17_Node000001_Node000018" class="edge">
<title>Node1&#45;&gt;Node18</title>
<g id="a_edge17_Node000001_Node000018"><a xlink:title=" ">
<path fill="none" stroke="#63b8ff" d="M347.09,-306.38C343.05,-250.24 326.3,-119.16 257,-40.25 253.85,-36.67 250.08,-33.56 246.02,-30.88"/>
<polygon fill="#63b8ff" stroke="#63b8ff" points="343.6,-306.51 347.72,-316.27 350.58,-306.07 343.6,-306.51"/>
</a>
</g>
</g>
<!-- Node7 -->
<g id="Node000007" class="node">
<title>Node7</title>
<g id="a_Node000007"><a xlink:href="namespace_big_data_stat_meth.html#a7e94ee156abe0c78618aca6a57b0e70a" target="_top" xlink:title="Column standard deviations of an HDF5 matrix (block&#45;wise, parallel).">
<polygon fill="white" stroke="#666666" points="110.5,-471.5 0,-471.5 0,-441 110.5,-441 110.5,-471.5"/>
<text xml:space="preserve" text-anchor="start" x="8" y="-458" font-family="Helvetica,sans-Serif" font-size="10.00">BigDataStatMeth::get</text>
<text xml:space="preserve" text-anchor="middle" x="55.25" y="-446.75" font-family="Helvetica,sans-Serif" font-size="10.00">_HDF5_colSds</text>
</a>
</g>
</g>
<!-- Node6&#45;&gt;Node7 -->
<g id="edge6_Node000006_Node000007" class="edge">
<title>Node6&#45;&gt;Node7</title>
<g id="a_edge6_Node000006_Node000007"><a xlink:title=" ">
<path fill="none" stroke="#63b8ff" d="M134.63,-456.25C126.71,-456.25 118.69,-456.25 110.96,-456.25"/>
<polygon fill="#63b8ff" stroke="#63b8ff" points="134.61,-459.75 144.61,-456.25 134.61,-452.75 134.61,-459.75"/>
</a>
</g>
</g>
<!-- Node13 -->
<g id="Node000013" class="node">
<title>Node13</title>
<g id="a_Node000013"><a xlink:href="namespace_big_data_stat_meth.html#a14d28086dd2b1ee1526530803f042469" target="_top" xlink:title="Row standard deviations of an HDF5 matrix (block&#45;wise, parallel).">
<polygon fill="white" stroke="#666666" points="110.5,-226.5 0,-226.5 0,-196 110.5,-196 110.5,-226.5"/>
<text xml:space="preserve" text-anchor="start" x="8" y="-213" font-family="Helvetica,sans-Serif" font-size="10.00">BigDataStatMeth::get</text>
<text xml:space="preserve" text-anchor="middle" x="55.25" y="-201.75" font-family="Helvetica,sans-Serif" font-size="10.00">_HDF5_rowSds</text>
</a>
</g>
</g>
<!-- Node12&#45;&gt;Node13 -->
<g id="edge12_Node000012_Node000013" class="edge">
<title>Node12&#45;&gt;Node13</title>
<g id="a_edge12_Node000012_Node000013"><a xlink:title=" ">
<path fill="none" stroke="#63b8ff" d="M134.63,-211.25C126.71,-211.25 118.69,-211.25 110.96,-211.25"/>
<polygon fill="#63b8ff" stroke="#63b8ff" points="134.61,-214.75 144.61,-211.25 134.61,-207.75 134.61,-214.75"/>
</a>
</g>
</g>
<!-- Node17 -->
<g id="Node000017" class="node">
<title>Node17</title>
<g id="a_Node000017"><a xlink:href="namespace_big_data_stat_meth.html#a41923a8e24d8720be194c27546964906" target="_top" xlink:title="Mean of all elements of an HDF5 matrix.">
<polygon fill="white" stroke="#666666" points="110.5,-79.5 0,-79.5 0,-49 110.5,-49 110.5,-79.5"/>
<text xml:space="preserve" text-anchor="start" x="8" y="-66" font-family="Helvetica,sans-Serif" font-size="10.00">BigDataStatMeth::get</text>
<text xml:space="preserve" text-anchor="middle" x="55.25" y="-54.75" font-family="Helvetica,sans-Serif" font-size="10.00">_HDF5_scalar_mean</text>
</a>
</g>
</g>
<!-- Node16&#45;&gt;Node17 -->
<g id="edge16_Node000016_Node000017" class="edge">
<title>Node16&#45;&gt;Node17</title>
<g id="a_edge16_Node000016_Node000017"><a xlink:title=" ">
<path fill="none" stroke="#63b8ff" d="M134.63,-64.25C126.71,-64.25 118.69,-64.25 110.96,-64.25"/>
<polygon fill="#63b8ff" stroke="#63b8ff" points="134.61,-67.75 144.61,-64.25 134.61,-60.75 134.61,-67.75"/>
</a>
</g>
</g>
<!-- Node19 -->
<g id="Node000019" class="node">
<title>Node19</title>
<g id="a_Node000019"><a xlink:href="namespace_big_data_stat_meth.html#a97ddbcc269a29d368a3d91f8b3bb50c6" target="_top" xlink:title="Standard deviation of all elements of an HDF5 matrix.">
<polygon fill="white" stroke="#666666" points="110.5,-30.5 0,-30.5 0,0 110.5,0 110.5,-30.5"/>
<text xml:space="preserve" text-anchor="start" x="8" y="-17" font-family="Helvetica,sans-Serif" font-size="10.00">BigDataStatMeth::get</text>
<text xml:space="preserve" text-anchor="middle" x="55.25" y="-5.75" font-family="Helvetica,sans-Serif" font-size="10.00">_HDF5_scalar_sd</text>
</a>
</g>
</g>
<!-- Node18&#45;&gt;Node19 -->
<g id="edge18_Node000018_Node000019" class="edge">
<title>Node18&#45;&gt;Node19</title>
<g id="a_edge18_Node000018_Node000019"><a xlink:title=" ">
<path fill="none" stroke="#63b8ff" d="M134.63,-15.25C126.71,-15.25 118.69,-15.25 110.96,-15.25"/>
<polygon fill="#63b8ff" stroke="#63b8ff" points="134.61,-18.75 144.61,-15.25 134.61,-11.75 134.61,-18.75"/>
</a>
</g>
</g>
</g>
</svg>

<g id="navigator" transform="translate(0 0)" fill="#404254">
  <rect fill="#f2f5e9" fill-opacity="0.5" stroke="#606060" stroke-width=".5" x="0" y="0" width="60" height="60"/>
  <use id="zoomplus" xlink:href="#zoomPlus" x="17" y="9" onmousedown="handleZoom(evt,'in')"/>
  <use id="zoomminus" xlink:href="#zoomMin" x="42" y="9" onmousedown="handleZoom(evt,'out')"/>
  <use id="reset" xlink:href="#resetDef" x="30" y="36" onmousedown="handleReset()"/>
   <use id="arrowup" xlink:href="#arrowUp" x="0" y="0" onmousedown="handlePan(0,-1)"/>
  <use id="arrowright" xlink:href="#arrowRight" x="0" y="0" onmousedown="handlePan(1,0)"/>
  <use id="arrowdown" xlink:href="#arrowDown" x="0" y="0" onmousedown="handlePan(0,1)"/>
  <use id="arrowleft" xlink:href="#arrowLeft" x="0" y="0" onmousedown="handlePan(-1,0)"/>
</g>
<svg viewBox="0 0 15 15" width="100%" height="30px" preserveAspectRatio="xMaxYMin meet">
 <g id="arrow_out" transform="scale(0.3 0.3)">
  <a xlink:href="namespace_big_data_stat_meth_a8c0da1e3336ab75efdb53cdd7707ae99_icgraph_org.svg" target="_base">
   <rect id="button" ry="5" rx="5" y="6" x="6" height="38" width="38"
        fill="#f2f5e9" fill-opacity="0.5" stroke="#606060" stroke-width="1.0"/>
   <path id="arrow"
     d="M 11.500037,31.436501 C 11.940474,20.09759 22.043105,11.32322 32.158766,21.979434 L 37.068811,17.246167 C 37.068811,17.246167 37.088388,32 37.088388,32 L 22.160133,31.978069 C 22.160133,31.978069 26.997745,27.140456 26.997745,27.140456 C 18.528582,18.264221 13.291696,25.230495 11.500037,31.436501 z"
     style="fill:#404040;"/>
  </a>
 </g>
</svg>

<style type='text/css'>
<![CDATA[
[data-mouse-over-selected='false'] { opacity: 0.7; }
[data-mouse-over-selected='true']  { opacity: 1.0; }
]]>
</style>
<script type="application/ecmascript"><![CDATA[
document.addEventListener('DOMContentLoaded', (event) => {
  highlightEdges();
  highlightAdjacentNodes();
});
]]></script>
</svg>
