<?xml version="1.0" encoding="UTF-8" standalone="no"?>
<!DOCTYPE svg PUBLIC "-//W3C//DTD SVG 1.1//EN"
 "http://www.w3.org/Graphics/SVG/1.1/DTD/svg11.dtd">
<!-- Generated by graphviz version 14.0.0 (20250921.2048)
 -->
<!-- Title: BigDataStatMeth::RcppNormalizeHdf5 Pages: 1 -->
<!--zoomable 513 -->

<svg id="main" version="1.1" xmlns="http://www.w3.org/2000/svg" xmlns:xlink="http://www.w3.org/1999/xlink" xml:space="preserve" onload="init(evt)">

<style type="text/css"><![CDATA[
.node, .edge {opacity: 0.7;}
.node.selected, .edge.selected {opacity: 1;}
.edge:hover path { stroke: red; }
.edge:hover polygon { stroke: red; fill: red; }
]]></style>

<defs>
  <circle id="rim" cx="0" cy="0" r="7"/>
  <circle id="rim2" cx="0" cy="0" r="3.5"/>
  <g id="zoomPlus">
    <use xlink:href="#rim" fill="#404040"><set attributeName="fill" to="#808080" begin="zoomplus.mouseover" end="zoomplus.mouseout"/></use>
    <path d="M-4,0h8M0,-4v8" fill="none" stroke="white" stroke-width="1.5" pointer-events="none"/>
  </g>
  <g id="zoomMin">
    <use xlink:href="#rim" fill="#404040"><set attributeName="fill" to="#808080" begin="zoomminus.mouseover" end="zoomminus.mouseout"/></use>
    <path d="M-4,0h8" fill="none" stroke="white" stroke-width="1.5" pointer-events="none"/>
  </g>
  <g id="arrowUp" transform="translate(30 24)">
    <use xlink:href="#rim"/>
    <path pointer-events="none" fill="none" stroke="white" stroke-width="1.5" d="M0,-3.0v7 M-2.5,-0.5L0,-3.0L2.5,-0.5"/>
  </g>
  <g id="arrowRight" transform="rotate(90) translate(36 -43)">
    <use xlink:href="#rim"/>
    <path pointer-events="none" fill="none" stroke="white" stroke-width="1.5" d="M0,-3.0v7 M-2.5,-0.5L0,-3.0L2.5,-0.5"/>
  </g>
  <g id="arrowDown" transform="rotate(180) translate(-30 -48)">
    <use xlink:href="#rim"/>
    <path pointer-events="none" fill="none" stroke="white" stroke-width="1.5" d="M0,-3.0v7 M-2.5,-0.5L0,-3.0L2.5,-0.5"/>
  </g>
  <g id="arrowLeft" transform="rotate(270) translate(-36 17)">
    <use xlink:href="#rim"/>
    <path pointer-events="none" fill="none" stroke="white" stroke-width="1.5" d="M0,-3.0v7 M-2.5,-0.5L0,-3.0L2.5,-0.5"/>
  </g>
  <g id="resetDef">
    <use xlink:href="#rim2" fill="#404040"><set attributeName="fill" to="#808080" begin="reset.mouseover" end="reset.mouseout"/></use>
  </g>
</defs>
<script type="application/ecmascript">
var viewWidth = 809;
var viewHeight = 513;
var sectionId = 'dynsection-186';
</script>
<script type="application/ecmascript" xlink:href="../../../../assets/svg.min.js"/>
<svg id="graph" class="graph">
<g id="viewport">
<title>BigDataStatMeth::RcppNormalizeHdf5</title>
<!-- Node1 -->
<g id="Node000001" class="node">
<title>Node1</title>
<g id="a_Node000001"><a xlink:title=" ">
<polygon fill="#999999" stroke="#666666" points="185.5,-241.88 0,-241.88 0,-222.62 185.5,-222.62 185.5,-241.88"/>
<text xml:space="preserve" text-anchor="middle" x="92.75" y="-228.38" font-family="Helvetica,sans-Serif" font-size="10.00">BigDataStatMeth::RcppNormalizeHdf5</text>
</a>
</g>
</g>
<!-- Node2 -->
<g id="Node000002" class="node">
<title>Node2</title>
<g id="a_Node000002"><a xlink:href="namespace_big_data_stat_meth.html#a74ce60b67b2d8eb66be38b96cc7b3ff5" target="_top" xlink:title="Calculate column&#45;wise mean and standard deviation.">
<polygon fill="white" stroke="#666666" points="386.75,-467.5 241.75,-467.5 241.75,-437 386.75,-437 386.75,-467.5"/>
<text xml:space="preserve" text-anchor="start" x="249.75" y="-454" font-family="Helvetica,sans-Serif" font-size="10.00">BigDataStatMeth::get</text>
<text xml:space="preserve" text-anchor="middle" x="314.25" y="-442.75" font-family="Helvetica,sans-Serif" font-size="10.00">_HDF5_mean_sd_by_column</text>
</a>
</g>
</g>
<!-- Node1&#45;&gt;Node2 -->
<g id="edge1_Node000001_Node000002" class="edge">
<title>Node1&#45;&gt;Node2</title>
<g id="a_edge1_Node000001_Node000002"><a xlink:title=" ">
<path fill="none" stroke="#63b8ff" d="M97.28,-242.16C109.24,-274.28 151.44,-376.33 221.5,-427.25 224.5,-429.43 227.69,-431.43 231,-433.25"/>
<polygon fill="#63b8ff" stroke="#63b8ff" points="229.37,-436.34 239.89,-437.54 232.41,-430.04 229.37,-436.34"/>
</a>
</g>
</g>
<!-- Node7 -->
<g id="Node000007" class="node">
<title>Node7</title>
<g id="a_Node000007"><a xlink:href="namespace_big_data_stat_meth.html#a7cab0fb0e96ea7e4710923626e6095e6" target="_top" xlink:title="Calculate row&#45;wise mean and standard deviation.">
<polygon fill="white" stroke="#666666" points="378.88,-418.5 249.62,-418.5 249.62,-388 378.88,-388 378.88,-418.5"/>
<text xml:space="preserve" text-anchor="start" x="257.62" y="-405" font-family="Helvetica,sans-Serif" font-size="10.00">BigDataStatMeth::get</text>
<text xml:space="preserve" text-anchor="middle" x="314.25" y="-393.75" font-family="Helvetica,sans-Serif" font-size="10.00">_HDF5_mean_sd_by_row</text>
</a>
</g>
</g>
<!-- Node1&#45;&gt;Node7 -->
<g id="edge6_Node000001_Node000007" class="edge">
<title>Node1&#45;&gt;Node7</title>
<g id="a_edge6_Node000001_Node000007"><a xlink:title=" ">
<path fill="none" stroke="#63b8ff" d="M103.08,-242.09C123.38,-263.22 173.62,-313.84 221.5,-349.25 237.74,-361.26 256.85,-372.86 273.4,-382.21"/>
<polygon fill="#63b8ff" stroke="#63b8ff" points="271.57,-385.2 282.01,-386.99 274.96,-379.08 271.57,-385.2"/>
</a>
</g>
</g>
<!-- Node8 -->
<g id="Node000008" class="node">
<title>Node8</title>
<g id="a_Node000008"><a xlink:href="class_big_data_stat_meth_1_1hdf5_dataset.html#af3ab7117b94164ab629673cacd896dd9" target="_top" xlink:title="Get the current compression level for this dataset instance.">
<polygon fill="white" stroke="#666666" points="389.38,-226.5 239.12,-226.5 239.12,-196 389.38,-196 389.38,-226.5"/>
<text xml:space="preserve" text-anchor="start" x="247.12" y="-213" font-family="Helvetica,sans-Serif" font-size="10.00">BigDataStatMeth::hdf5Dataset</text>
<text xml:space="preserve" text-anchor="middle" x="314.25" y="-201.75" font-family="Helvetica,sans-Serif" font-size="10.00">::getCompressionLevel</text>
</a>
</g>
</g>
<!-- Node1&#45;&gt;Node8 -->
<g id="edge10_Node000001_Node000008" class="edge">
<title>Node1&#45;&gt;Node8</title>
<g id="a_edge10_Node000001_Node000008"><a xlink:title=" ">
<path fill="none" stroke="#63b8ff" d="M185.88,-223.44C199.63,-222.12 213.76,-220.77 227.37,-219.47"/>
<polygon fill="#63b8ff" stroke="#63b8ff" points="227.54,-222.97 237.16,-218.53 226.87,-216 227.54,-222.97"/>
</a>
</g>
</g>
<!-- Node9 -->
<g id="Node000009" class="node">
<title>Node9</title>
<g id="a_Node000009"><a xlink:href="class_big_data_stat_meth_1_1hdf5_dataset.html#ac979eba40078c7c5974b64b2ce6347a3" target="_top" xlink:title="Get dataset name.">
<polygon fill="white" stroke="#666666" points="389.38,-177.5 239.12,-177.5 239.12,-147 389.38,-147 389.38,-177.5"/>
<text xml:space="preserve" text-anchor="start" x="247.12" y="-164" font-family="Helvetica,sans-Serif" font-size="10.00">BigDataStatMeth::hdf5Dataset</text>
<text xml:space="preserve" text-anchor="middle" x="314.25" y="-152.75" font-family="Helvetica,sans-Serif" font-size="10.00">::getDatasetName</text>
</a>
</g>
</g>
<!-- Node1&#45;&gt;Node9 -->
<g id="edge11_Node000001_Node000009" class="edge">
<title>Node1&#45;&gt;Node9</title>
<g id="a_edge11_Node000001_Node000009"><a xlink:title=" ">
<path fill="none" stroke="#63b8ff" d="M120.48,-222.2C146.19,-212.68 186.26,-198.24 221.5,-187.25 228.22,-185.15 235.25,-183.06 242.3,-181.03"/>
<polygon fill="#63b8ff" stroke="#63b8ff" points="243.23,-184.41 251.89,-178.31 241.32,-177.67 243.23,-184.41"/>
</a>
</g>
</g>
<!-- Node10 -->
<g id="Node000010" class="node">
<title>Node10</title>
<g id="a_Node000010"><a xlink:href="class_big_data_stat_meth_1_1hdf5_dataset.html#a00ef08e5d548410faaea7892c87c343a" target="_top" xlink:title="Get dataset pointer.">
<polygon fill="white" stroke="#666666" points="389.38,-128.5 239.12,-128.5 239.12,-98 389.38,-98 389.38,-128.5"/>
<text xml:space="preserve" text-anchor="start" x="247.12" y="-115" font-family="Helvetica,sans-Serif" font-size="10.00">BigDataStatMeth::hdf5Dataset</text>
<text xml:space="preserve" text-anchor="middle" x="314.25" y="-103.75" font-family="Helvetica,sans-Serif" font-size="10.00">::getDatasetptr</text>
</a>
</g>
</g>
<!-- Node1&#45;&gt;Node10 -->
<g id="edge12_Node000001_Node000010" class="edge">
<title>Node1&#45;&gt;Node10</title>
<g id="a_edge12_Node000001_Node000010"><a xlink:title=" ">
<path fill="none" stroke="#63b8ff" d="M104.46,-222.17C125.34,-203.06 173.65,-161.38 221.5,-138.25 225.48,-136.32 229.64,-134.53 233.88,-132.86"/>
<polygon fill="#63b8ff" stroke="#63b8ff" points="234.97,-136.19 243.16,-129.47 232.57,-129.61 234.97,-136.19"/>
</a>
</g>
</g>
<!-- Node11 -->
<g id="Node000011" class="node">
<title>Node11</title>
<g id="a_Node000011"><a xlink:href="class_big_data_stat_meth_1_1hdf5_file.html#a2d2bd792aa9c01e459312e6727cde8af" target="_top" xlink:title="Get full file path.">
<polygon fill="white" stroke="#666666" points="380,-79.5 248.5,-79.5 248.5,-49 380,-49 380,-79.5"/>
<text xml:space="preserve" text-anchor="start" x="256.5" y="-66" font-family="Helvetica,sans-Serif" font-size="10.00">BigDataStatMeth::hdf5File</text>
<text xml:space="preserve" text-anchor="middle" x="314.25" y="-54.75" font-family="Helvetica,sans-Serif" font-size="10.00">::getFullPath</text>
</a>
</g>
</g>
<!-- Node1&#45;&gt;Node11 -->
<g id="edge13_Node000001_Node000011" class="edge">
<title>Node1&#45;&gt;Node11</title>
<g id="a_edge13_Node000001_Node000011"><a xlink:title=" ">
<path fill="none" stroke="#63b8ff" d="M99.79,-222.14C116,-195.94 163.17,-125.32 221.5,-89.25 226.59,-86.1 232.08,-83.34 237.75,-80.93"/>
<polygon fill="#63b8ff" stroke="#63b8ff" points="238.62,-84.34 246.7,-77.49 236.11,-77.81 238.62,-84.34"/>
</a>
</g>
</g>
<!-- Node12 -->
<g id="Node000012" class="node">
<title>Node12</title>
<g id="a_Node000012"><a xlink:href="class_big_data_stat_meth_1_1hdf5_group.html#a59995412538627e6c80f64b552c286f5" target="_top" xlink:title=" ">
<polygon fill="white" stroke="#666666" points="385.25,-30.5 243.25,-30.5 243.25,0 385.25,0 385.25,-30.5"/>
<text xml:space="preserve" text-anchor="start" x="251.25" y="-17" font-family="Helvetica,sans-Serif" font-size="10.00">BigDataStatMeth::hdf5Group</text>
<text xml:space="preserve" text-anchor="middle" x="314.25" y="-5.75" font-family="Helvetica,sans-Serif" font-size="10.00">::getGroupName</text>
</a>
</g>
</g>
<!-- Node1&#45;&gt;Node12 -->
<g id="edge14_Node000001_Node000012" class="edge">
<title>Node1&#45;&gt;Node12</title>
<g id="a_edge14_Node000001_Node000012"><a xlink:title=" ">
<path fill="none" stroke="#63b8ff" d="M97.33,-222.49C109.43,-190.86 152.01,-90.37 221.5,-40.25 225.09,-37.66 228.93,-35.34 232.93,-33.26"/>
<polygon fill="#63b8ff" stroke="#63b8ff" points="234.16,-36.55 241.79,-29.2 231.24,-30.19 234.16,-36.55"/>
</a>
</g>
</g>
<!-- Node13 -->
<g id="Node000013" class="node">
<title>Node13</title>
<g id="a_Node000013"><a xlink:href="class_big_data_stat_meth_1_1hdf5_dataset.html#aa743c8c46d7ff3bb2f894145dd07fd8a" target="_top" xlink:title="Get number of columns in internal format.">
<polygon fill="white" stroke="#666666" points="604.12,-271.5 453.88,-271.5 453.88,-241 604.12,-241 604.12,-271.5"/>
<text xml:space="preserve" text-anchor="start" x="461.88" y="-258" font-family="Helvetica,sans-Serif" font-size="10.00">BigDataStatMeth::hdf5Dataset</text>
<text xml:space="preserve" text-anchor="middle" x="529" y="-246.75" font-family="Helvetica,sans-Serif" font-size="10.00">::ncols</text>
</a>
</g>
</g>
<!-- Node1&#45;&gt;Node13 -->
<g id="edge15_Node000001_Node000013" class="edge">
<title>Node1&#45;&gt;Node13</title>
<g id="a_edge15_Node000001_Node000013"><a xlink:title=" ">
<path fill="none" stroke="#63b8ff" d="M121.19,-242.36C146.75,-251.19 186.12,-263.36 221.5,-268.25 295.62,-278.49 380.71,-273.88 442.39,-267.63"/>
<polygon fill="#63b8ff" stroke="#63b8ff" points="442.55,-271.13 452.13,-266.6 441.82,-264.17 442.55,-271.13"/>
</a>
</g>
</g>
<!-- Node14 -->
<g id="Node000014" class="node">
<title>Node14</title>
<g id="a_Node000014"><a xlink:href="class_big_data_stat_meth_1_1hdf5_dataset.html#a6cbce676967d0cc4b50e2cc5282c322b" target="_top" xlink:title="Get number of rows in internal format.">
<polygon fill="white" stroke="#666666" points="604.12,-222.5 453.88,-222.5 453.88,-192 604.12,-192 604.12,-222.5"/>
<text xml:space="preserve" text-anchor="start" x="461.88" y="-209" font-family="Helvetica,sans-Serif" font-size="10.00">BigDataStatMeth::hdf5Dataset</text>
<text xml:space="preserve" text-anchor="middle" x="529" y="-197.75" font-family="Helvetica,sans-Serif" font-size="10.00">::nrows</text>
</a>
</g>
</g>
<!-- Node1&#45;&gt;Node14 -->
<g id="edge16_Node000001_Node000014" class="edge">
<title>Node1&#45;&gt;Node14</title>
<g id="a_edge16_Node000001_Node000014"><a xlink:title=" ">
<path fill="none" stroke="#63b8ff" d="M185.9,-239.07C248.46,-242.25 332.97,-243.7 407,-235.25 424.83,-233.21 443.85,-229.54 461.41,-225.51"/>
<polygon fill="#63b8ff" stroke="#63b8ff" points="461.74,-229.03 470.66,-223.32 460.12,-222.22 461.74,-229.03"/>
</a>
</g>
</g>
<!-- Node15 -->
<g id="Node000015" class="node">
<title>Node15</title>
<g id="a_Node000015"><a xlink:href="namespace_big_data_stat_meth.html#aa04bdd4175075e124877dda4897c291b" target="_top" xlink:title="HDF5 matrix normalization with pre&#45;computed statistics.">
<polygon fill="white" stroke="#666666" points="407,-339.88 221.5,-339.88 221.5,-320.62 407,-320.62 407,-339.88"/>
<text xml:space="preserve" text-anchor="middle" x="314.25" y="-326.38" font-family="Helvetica,sans-Serif" font-size="10.00">BigDataStatMeth::RcppNormalizeHdf5</text>
</a>
</g>
</g>
<!-- Node1&#45;&gt;Node15 -->
<g id="edge17_Node000001_Node000015" class="edge">
<title>Node1&#45;&gt;Node15</title>
<g id="a_edge17_Node000001_Node000015"><a xlink:title=" ">
<path fill="none" stroke="#63b8ff" d="M108.03,-242.26C130.97,-257.93 177.89,-288.3 221.5,-306.25 231.78,-310.48 243.01,-314.15 253.99,-317.26"/>
<polygon fill="#63b8ff" stroke="#63b8ff" points="252.8,-320.56 263.37,-319.78 254.63,-313.8 252.8,-320.56"/>
</a>
</g>
</g>
<!-- Node3 -->
<g id="Node000003" class="node">
<title>Node3</title>
<g id="a_Node000003"><a xlink:href="class_big_data_stat_meth_1_1hdf5_dataset.html#a7b54a6f524581d54102a1614ee44991b" target="_top" xlink:title="Get dataset dimension.">
<polygon fill="white" stroke="#666666" points="615,-504.88 443,-504.88 443,-485.62 615,-485.62 615,-504.88"/>
<text xml:space="preserve" text-anchor="middle" x="529" y="-491.38" font-family="Helvetica,sans-Serif" font-size="10.00">BigDataStatMeth::hdf5Dataset::dim</text>
</a>
</g>
</g>
<!-- Node2&#45;&gt;Node3 -->
<g id="edge2_Node000002_Node000003" class="edge">
<title>Node2&#45;&gt;Node3</title>
<g id="a_edge2_Node000002_Node000003"><a xlink:title=" ">
<path fill="none" stroke="#63b8ff" d="M386.98,-466.75C412.92,-471.99 441.95,-477.86 466.9,-482.9"/>
<polygon fill="#63b8ff" stroke="#63b8ff" points="466.07,-486.3 476.56,-484.85 467.46,-479.44 466.07,-486.3"/>
</a>
</g>
</g>
<!-- Node4 -->
<g id="Node000004" class="node">
<title>Node4</title>
<g id="a_Node000004"><a xlink:href="namespace_big_data_stat_meth.html#a9c15678544a0304bf01c268623b2d957" target="_top" xlink:title="Calculate optimal block size for processing.">
<polygon fill="white" stroke="#666666" points="584.25,-467.5 473.75,-467.5 473.75,-437 584.25,-437 584.25,-467.5"/>
<text xml:space="preserve" text-anchor="start" x="481.75" y="-454" font-family="Helvetica,sans-Serif" font-size="10.00">BigDataStatMeth::get</text>
<text xml:space="preserve" text-anchor="middle" x="529" y="-442.75" font-family="Helvetica,sans-Serif" font-size="10.00">_block_size</text>
</a>
</g>
</g>
<!-- Node2&#45;&gt;Node4 -->
<g id="edge3_Node000002_Node000004" class="edge">
<title>Node2&#45;&gt;Node4</title>
<g id="a_edge3_Node000002_Node000004"><a xlink:title=" ">
<path fill="none" stroke="#63b8ff" d="M386.98,-452.25C411.24,-452.25 438.2,-452.25 461.99,-452.25"/>
<polygon fill="#63b8ff" stroke="#63b8ff" points="461.88,-455.75 471.88,-452.25 461.88,-448.75 461.88,-455.75"/>
</a>
</g>
</g>
<!-- Node5 -->
<g id="Node000005" class="node">
<title>Node5</title>
<g id="a_Node000005"><a xlink:href="class_big_data_stat_meth_1_1hdf5_dataset.html#a23bea87165b8ef6b944709c5b2cbd0cf" target="_top" xlink:title=" ">
<polygon fill="white" stroke="#666666" points="604.12,-418.5 453.88,-418.5 453.88,-388 604.12,-388 604.12,-418.5"/>
<text xml:space="preserve" text-anchor="start" x="461.88" y="-405" font-family="Helvetica,sans-Serif" font-size="10.00">BigDataStatMeth::hdf5Dataset</text>
<text xml:space="preserve" text-anchor="middle" x="529" y="-393.75" font-family="Helvetica,sans-Serif" font-size="10.00">::readDatasetBlock</text>
</a>
</g>
</g>
<!-- Node2&#45;&gt;Node5 -->
<g id="edge4_Node000002_Node000005" class="edge">
<title>Node2&#45;&gt;Node5</title>
<g id="a_edge4_Node000002_Node000005"><a xlink:title=" ">
<path fill="none" stroke="#63b8ff" d="M383.44,-436.54C404.25,-431.75 427.3,-426.44 448.77,-421.5"/>
<polygon fill="#63b8ff" stroke="#63b8ff" points="449.39,-424.95 458.35,-419.29 447.82,-418.12 449.39,-424.95"/>
</a>
</g>
</g>
<!-- Node6 -->
<g id="Node000006" class="node">
<title>Node6</title>
<g id="a_Node000006"><a xlink:href="class_big_data_stat_meth_1_1hdf5_dataset.html#aba39e56a580d3b1fa7f1619fc72efa3e" target="_top" xlink:title="Close dataset and file.">
<polygon fill="white" stroke="#666666" points="801.25,-393.5 651,-393.5 651,-363 801.25,-363 801.25,-393.5"/>
<text xml:space="preserve" text-anchor="start" x="659" y="-380" font-family="Helvetica,sans-Serif" font-size="10.00">BigDataStatMeth::hdf5Dataset</text>
<text xml:space="preserve" text-anchor="middle" x="726.12" y="-368.75" font-family="Helvetica,sans-Serif" font-size="10.00">::close_dataset_file</text>
</a>
</g>
</g>
<!-- Node5&#45;&gt;Node6 -->
<g id="edge5_Node000005_Node000006" class="edge">
<title>Node5&#45;&gt;Node6</title>
<g id="a_edge5_Node000005_Node000006"><a xlink:title=" ">
<path fill="none" stroke="#63b8ff" d="M604.6,-393.69C615.9,-392.24 627.63,-390.74 639.15,-389.27"/>
<polygon fill="#63b8ff" stroke="#63b8ff" points="639.59,-392.74 649.06,-388 638.7,-385.79 639.59,-392.74"/>
</a>
</g>
</g>
<!-- Node7&#45;&gt;Node3 -->
<g id="edge7_Node000007_Node000003" class="edge">
<title>Node7&#45;&gt;Node3</title>
<g id="a_edge7_Node000007_Node000003"><a xlink:title=" ">
<path fill="none" stroke="#63b8ff" d="M379.35,-414.82C389.1,-418.21 398.67,-422.59 407,-428.25 429.06,-443.23 420.6,-461.78 443,-476.25 445.44,-477.83 448,-479.28 450.64,-480.61"/>
<polygon fill="#63b8ff" stroke="#63b8ff" points="449.21,-483.8 459.78,-484.57 451.99,-477.38 449.21,-483.8"/>
</a>
</g>
</g>
<!-- Node7&#45;&gt;Node4 -->
<g id="edge8_Node000007_Node000004" class="edge">
<title>Node7&#45;&gt;Node4</title>
<g id="a_edge8_Node000007_Node000004"><a xlink:title=" ">
<path fill="none" stroke="#63b8ff" d="M379.37,-418.02C405.6,-424.06 435.92,-431.04 462.31,-437.12"/>
<polygon fill="#63b8ff" stroke="#63b8ff" points="461.35,-440.49 471.88,-439.32 462.92,-433.67 461.35,-440.49"/>
</a>
</g>
</g>
<!-- Node7&#45;&gt;Node5 -->
<g id="edge9_Node000007_Node000005" class="edge">
<title>Node7&#45;&gt;Node5</title>
<g id="a_edge9_Node000007_Node000005"><a xlink:title=" ">
<path fill="none" stroke="#63b8ff" d="M379.37,-403.25C399.09,-403.25 421.12,-403.25 442.05,-403.25"/>
<polygon fill="#63b8ff" stroke="#63b8ff" points="442.03,-406.75 452.03,-403.25 442.03,-399.75 442.03,-406.75"/>
</a>
</g>
</g>
<!-- Node15&#45;&gt;Node4 -->
<g id="edge18_Node000015_Node000004" class="edge">
<title>Node15&#45;&gt;Node4</title>
<g id="a_edge18_Node000015_Node000004"><a xlink:title=" ">
<path fill="none" stroke="#63b8ff" d="M340.83,-340.28C360.33,-348.75 387.12,-362.2 407,-379.25 427.24,-396.61 421.09,-412.05 443,-427.25 449.11,-431.49 455.95,-435.02 463.02,-437.96"/>
<polygon fill="#63b8ff" stroke="#63b8ff" points="461.48,-441.12 472.07,-441.33 463.92,-434.56 461.48,-441.12"/>
</a>
</g>
</g>
<!-- Node15&#45;&gt;Node5 -->
<g id="edge22_Node000015_Node000005" class="edge">
<title>Node15&#45;&gt;Node5</title>
<g id="a_edge22_Node000015_Node000005"><a xlink:title=" ">
<path fill="none" stroke="#63b8ff" d="M340.5,-340.37C366.13,-350.48 407.05,-366.23 443,-378.25 449.07,-380.28 455.42,-382.31 461.79,-384.29"/>
<polygon fill="#63b8ff" stroke="#63b8ff" points="460.46,-387.54 471.04,-387.12 462.5,-380.85 460.46,-387.54"/>
</a>
</g>
</g>
<!-- Node15&#45;&gt;Node13 -->
<g id="edge19_Node000015_Node000013" class="edge">
<title>Node15&#45;&gt;Node13</title>
<g id="a_edge19_Node000015_Node000013"><a xlink:title=" ">
<path fill="none" stroke="#63b8ff" d="M366.83,-320.14C380.24,-316.61 394.44,-312.03 407,-306.25 424.69,-298.1 425.43,-289.66 443,-281.25 446.95,-279.36 451.06,-277.58 455.27,-275.92"/>
<polygon fill="#63b8ff" stroke="#63b8ff" points="456.26,-279.28 464.42,-272.52 453.83,-272.72 456.26,-279.28"/>
</a>
</g>
</g>
<!-- Node15&#45;&gt;Node14 -->
<g id="edge20_Node000015_Node000014" class="edge">
<title>Node15&#45;&gt;Node14</title>
<g id="a_edge20_Node000015_Node000014"><a xlink:title=" ">
<path fill="none" stroke="#63b8ff" d="M332.17,-320.18C351.11,-308.6 382.38,-288.56 407,-268.25 424.45,-253.85 423.54,-243.8 443,-232.25 445.95,-230.5 449.03,-228.87 452.19,-227.34"/>
<polygon fill="#63b8ff" stroke="#63b8ff" points="453.38,-230.64 461.14,-223.43 450.58,-224.22 453.38,-230.64"/>
</a>
</g>
</g>
<!-- Node16 -->
<g id="Node000016" class="node">
<title>Node16</title>
<g id="a_Node000016"><a xlink:href="namespace_big_data_stat_meth.html#aa109a5664920caf79ff04c997a57cc59" target="_top" xlink:title=" ">
<polygon fill="white" stroke="#666666" points="611.25,-320.5 446.75,-320.5 446.75,-290 611.25,-290 611.25,-320.5"/>
<text xml:space="preserve" text-anchor="start" x="454.75" y="-307" font-family="Helvetica,sans-Serif" font-size="10.00">BigDataStatMeth::RcppNormalize</text>
<text xml:space="preserve" text-anchor="middle" x="529" y="-295.75" font-family="Helvetica,sans-Serif" font-size="10.00">_Data_R_hdf5</text>
</a>
</g>
</g>
<!-- Node15&#45;&gt;Node16 -->
<g id="edge21_Node000015_Node000016" class="edge">
<title>Node15&#45;&gt;Node16</title>
<g id="a_edge21_Node000015_Node000016"><a xlink:title=" ">
<path fill="none" stroke="#63b8ff" d="M401.17,-320.15C412.41,-318.83 423.98,-317.47 435.32,-316.14"/>
<polygon fill="#63b8ff" stroke="#63b8ff" points="435.56,-319.64 445.08,-314.99 434.74,-312.68 435.56,-319.64"/>
</a>
</g>
</g>
<!-- Node17 -->
<g id="Node000017" class="node">
<title>Node17</title>
<g id="a_Node000017"><a xlink:href="class_big_data_stat_meth_1_1hdf5_dataset.html#ae135b5c379a5de2fa1a9e6917b624ac3" target="_top" xlink:title="Write block of data in row&#45;major order.">
<polygon fill="white" stroke="#666666" points="604.12,-369.5 453.88,-369.5 453.88,-339 604.12,-339 604.12,-369.5"/>
<text xml:space="preserve" text-anchor="start" x="461.88" y="-356" font-family="Helvetica,sans-Serif" font-size="10.00">BigDataStatMeth::hdf5Dataset</text>
<text xml:space="preserve" text-anchor="middle" x="529" y="-344.75" font-family="Helvetica,sans-Serif" font-size="10.00">::writeRowMajorDatasetBlock</text>
</a>
</g>
</g>
<!-- Node15&#45;&gt;Node17 -->
<g id="edge23_Node000015_Node000017" class="edge">
<title>Node15&#45;&gt;Node17</title>
<g id="a_edge23_Node000015_Node000017"><a xlink:title=" ">
<path fill="none" stroke="#63b8ff" d="M404.86,-340.36C417.29,-341.76 430.04,-343.2 442.4,-344.59"/>
<polygon fill="#63b8ff" stroke="#63b8ff" points="441.78,-348.05 452.11,-345.69 442.57,-341.09 441.78,-348.05"/>
</a>
</g>
</g>
<!-- Node17&#45;&gt;Node6 -->
<g id="edge24_Node000017_Node000006" class="edge">
<title>Node17&#45;&gt;Node6</title>
<g id="a_edge24_Node000017_Node000006"><a xlink:title=" ">
<path fill="none" stroke="#63b8ff" d="M604.6,-363.43C615.9,-364.82 627.63,-366.26 639.15,-367.67"/>
<polygon fill="#63b8ff" stroke="#63b8ff" points="638.71,-371.15 649.06,-368.89 639.56,-364.2 638.71,-371.15"/>
</a>
</g>
</g>
</g>
</svg>

<g id="navigator" transform="translate(0 0)" fill="#404254">
  <rect fill="#f2f5e9" fill-opacity="0.5" stroke="#606060" stroke-width=".5" x="0" y="0" width="60" height="60"/>
  <use id="zoomplus" xlink:href="#zoomPlus" x="17" y="9" onmousedown="handleZoom(evt,'in')"/>
  <use id="zoomminus" xlink:href="#zoomMin" x="42" y="9" onmousedown="handleZoom(evt,'out')"/>
  <use id="reset" xlink:href="#resetDef" x="30" y="36" onmousedown="handleReset()"/>
   <use id="arrowup" xlink:href="#arrowUp" x="0" y="0" onmousedown="handlePan(0,-1)"/>
  <use id="arrowright" xlink:href="#arrowRight" x="0" y="0" onmousedown="handlePan(1,0)"/>
  <use id="arrowdown" xlink:href="#arrowDown" x="0" y="0" onmousedown="handlePan(0,1)"/>
  <use id="arrowleft" xlink:href="#arrowLeft" x="0" y="0" onmousedown="handlePan(-1,0)"/>
</g>
<svg viewBox="0 0 15 15" width="100%" height="30px" preserveAspectRatio="xMaxYMin meet">
 <g id="arrow_out" transform="scale(0.3 0.3)">
  <a xlink:href="namespace_big_data_stat_meth_a6bc1373833a2909b57128c2656bef7ab_cgraph_org.svg" target="_base">
   <rect id="button" ry="5" rx="5" y="6" x="6" height="38" width="38"
        fill="#f2f5e9" fill-opacity="0.5" stroke="#606060" stroke-width="1.0"/>
   <path id="arrow"
     d="M 11.500037,31.436501 C 11.940474,20.09759 22.043105,11.32322 32.158766,21.979434 L 37.068811,17.246167 C 37.068811,17.246167 37.088388,32 37.088388,32 L 22.160133,31.978069 C 22.160133,31.978069 26.997745,27.140456 26.997745,27.140456 C 18.528582,18.264221 13.291696,25.230495 11.500037,31.436501 z"
     style="fill:#404040;"/>
  </a>
 </g>
</svg>

<style type='text/css'>
<![CDATA[
[data-mouse-over-selected='false'] { opacity: 0.7; }
[data-mouse-over-selected='true']  { opacity: 1.0; }
]]>
</style>
<script type="application/ecmascript"><![CDATA[
document.addEventListener('DOMContentLoaded', (event) => {
  highlightEdges();
  highlightAdjacentNodes();
});
]]></script>
</svg>
