<?xml version="1.0" encoding="UTF-8" standalone="no"?>
<!DOCTYPE svg PUBLIC "-//W3C//DTD SVG 1.1//EN"
 "http://www.w3.org/Graphics/SVG/1.1/DTD/svg11.dtd">
<!-- Generated by graphviz version 14.0.0 (20250921.2048)
 -->
<!-- Title: BigDataStatMeth::Rcpp_block_matrix_vector_sum_hdf5 Pages: 1 -->
<!--zoomable 560 -->

<svg id="main" version="1.1" xmlns="http://www.w3.org/2000/svg" xmlns:xlink="http://www.w3.org/1999/xlink" xml:space="preserve" onload="init(evt)">

<style type="text/css"><![CDATA[
.node, .edge {opacity: 0.7;}
.node.selected, .edge.selected {opacity: 1;}
.edge:hover path { stroke: red; }
.edge:hover polygon { stroke: red; fill: red; }
]]></style>

<defs>
  <circle id="rim" cx="0" cy="0" r="7"/>
  <circle id="rim2" cx="0" cy="0" r="3.5"/>
  <g id="zoomPlus">
    <use xlink:href="#rim" fill="#404040"><set attributeName="fill" to="#808080" begin="zoomplus.mouseover" end="zoomplus.mouseout"/></use>
    <path d="M-4,0h8M0,-4v8" fill="none" stroke="white" stroke-width="1.5" pointer-events="none"/>
  </g>
  <g id="zoomMin">
    <use xlink:href="#rim" fill="#404040"><set attributeName="fill" to="#808080" begin="zoomminus.mouseover" end="zoomminus.mouseout"/></use>
    <path d="M-4,0h8" fill="none" stroke="white" stroke-width="1.5" pointer-events="none"/>
  </g>
  <g id="arrowUp" transform="translate(30 24)">
    <use xlink:href="#rim"/>
    <path pointer-events="none" fill="none" stroke="white" stroke-width="1.5" d="M0,-3.0v7 M-2.5,-0.5L0,-3.0L2.5,-0.5"/>
  </g>
  <g id="arrowRight" transform="rotate(90) translate(36 -43)">
    <use xlink:href="#rim"/>
    <path pointer-events="none" fill="none" stroke="white" stroke-width="1.5" d="M0,-3.0v7 M-2.5,-0.5L0,-3.0L2.5,-0.5"/>
  </g>
  <g id="arrowDown" transform="rotate(180) translate(-30 -48)">
    <use xlink:href="#rim"/>
    <path pointer-events="none" fill="none" stroke="white" stroke-width="1.5" d="M0,-3.0v7 M-2.5,-0.5L0,-3.0L2.5,-0.5"/>
  </g>
  <g id="arrowLeft" transform="rotate(270) translate(-36 17)">
    <use xlink:href="#rim"/>
    <path pointer-events="none" fill="none" stroke="white" stroke-width="1.5" d="M0,-3.0v7 M-2.5,-0.5L0,-3.0L2.5,-0.5"/>
  </g>
  <g id="resetDef">
    <use xlink:href="#rim2" fill="#404040"><set attributeName="fill" to="#808080" begin="reset.mouseover" end="reset.mouseout"/></use>
  </g>
</defs>
<script type="application/ecmascript">
var viewWidth = 725;
var viewHeight = 560;
var sectionId = 'dynsection-90';
</script>
<script type="application/ecmascript" xlink:href="../../../../assets/svg.min.js"/>
<svg id="graph" class="graph">
<g id="viewport">
<title>BigDataStatMeth::Rcpp_block_matrix_vector_sum_hdf5</title>
<!-- Node1 -->
<g id="Node000001" class="node">
<title>Node1</title>
<g id="a_Node000001"><a xlink:title="Block&#45;based matrix&#45;vector addition for HDF5 matrices.">
<polygon fill="#999999" stroke="#666666" points="120.25,-177.12 0,-177.12 0,-135.38 120.25,-135.38 120.25,-177.12"/>
<text xml:space="preserve" text-anchor="start" x="8" y="-163.62" font-family="Helvetica,sans-Serif" font-size="10.00">BigDataStatMeth::Rcpp</text>
<text xml:space="preserve" text-anchor="start" x="8" y="-152.38" font-family="Helvetica,sans-Serif" font-size="10.00">_block_matrix_vector</text>
<text xml:space="preserve" text-anchor="middle" x="60.12" y="-141.12" font-family="Helvetica,sans-Serif" font-size="10.00">_sum_hdf5</text>
</a>
</g>
</g>
<!-- Node2 -->
<g id="Node000002" class="node">
<title>Node2</title>
<g id="a_Node000002"><a xlink:href="namespace_big_data_stat_meth.html#a304b42b14ec87d4acc6f34ff0231529d" target="_top" xlink:title="Safely close any number of dataset handles (C++17).">
<polygon fill="white" stroke="#666666" points="323,-392.88 156.25,-392.88 156.25,-373.62 323,-373.62 323,-392.88"/>
<text xml:space="preserve" text-anchor="middle" x="239.62" y="-379.38" font-family="Helvetica,sans-Serif" font-size="10.00">BigDataStatMeth::checkClose_file</text>
</a>
</g>
</g>
<!-- Node1&#45;&gt;Node2 -->
<g id="edge1_Node000001_Node000002" class="edge">
<title>Node1&#45;&gt;Node2</title>
<g id="a_edge1_Node000001_Node000002"><a xlink:title=" ">
<path fill="none" stroke="#63b8ff" d="M64.47,-177.39C72.34,-219.75 96.1,-315.18 156.25,-364.25 157.77,-365.49 159.37,-366.66 161.01,-367.75"/>
<polygon fill="#63b8ff" stroke="#63b8ff" points="159.19,-370.74 169.64,-372.51 162.57,-364.61 159.19,-370.74"/>
</a>
</g>
</g>
<!-- Node3 -->
<g id="Node000003" class="node">
<title>Node3</title>
<g id="a_Node000003"><a xlink:href="class_big_data_stat_meth_1_1hdf5_dataset.html#ab19bac9a31efe4a733294c1c23ff5ef7" target="_top" xlink:title="Create a new dataset with optional compression.">
<polygon fill="white" stroke="#666666" points="314.75,-355.5 164.5,-355.5 164.5,-325 314.75,-325 314.75,-355.5"/>
<text xml:space="preserve" text-anchor="start" x="172.5" y="-342" font-family="Helvetica,sans-Serif" font-size="10.00">BigDataStatMeth::hdf5Dataset</text>
<text xml:space="preserve" text-anchor="middle" x="239.62" y="-330.75" font-family="Helvetica,sans-Serif" font-size="10.00">::createDataset</text>
</a>
</g>
</g>
<!-- Node1&#45;&gt;Node3 -->
<g id="edge2_Node000001_Node000003" class="edge">
<title>Node1&#45;&gt;Node3</title>
<g id="a_edge2_Node000001_Node000003"><a xlink:title=" ">
<path fill="none" stroke="#63b8ff" d="M81.49,-177.36C114.87,-211.96 181.01,-280.53 215.88,-316.68"/>
<polygon fill="#63b8ff" stroke="#63b8ff" points="213.12,-318.85 222.58,-323.62 218.16,-313.99 213.12,-318.85"/>
</a>
</g>
</g>
<!-- Node14 -->
<g id="Node000014" class="node">
<title>Node14</title>
<g id="a_Node000014"><a xlink:href="namespace_big_data_stat_meth.html#af64ef9879e2404a9490e6a93f7bc8807" target="_top" xlink:title="Calculate block positions and sizes for matrix operations.">
<polygon fill="white" stroke="#666666" points="307.25,-128.5 172,-128.5 172,-98 307.25,-98 307.25,-128.5"/>
<text xml:space="preserve" text-anchor="start" x="180" y="-115" font-family="Helvetica,sans-Serif" font-size="10.00">BigDataStatMeth::getBlock</text>
<text xml:space="preserve" text-anchor="middle" x="239.62" y="-103.75" font-family="Helvetica,sans-Serif" font-size="10.00">PositionsSizes</text>
</a>
</g>
</g>
<!-- Node1&#45;&gt;Node14 -->
<g id="edge14_Node000001_Node000014" class="edge">
<title>Node1&#45;&gt;Node14</title>
<g id="a_edge14_Node000001_Node000014"><a xlink:title=" ">
<path fill="none" stroke="#63b8ff" d="M120.72,-141.81C134.15,-138.56 148.59,-135.06 162.59,-131.67"/>
<polygon fill="#63b8ff" stroke="#63b8ff" points="163.33,-135.09 172.23,-129.34 161.68,-128.29 163.33,-135.09"/>
</a>
</g>
</g>
<!-- Node16 -->
<g id="Node000016" class="node">
<title>Node16</title>
<g id="a_Node000016"><a xlink:href="class_big_data_stat_meth_1_1hdf5_dataset.html#aa743c8c46d7ff3bb2f894145dd07fd8a" target="_top" xlink:title="Get number of columns in internal format.">
<polygon fill="white" stroke="#666666" points="314.75,-79.5 164.5,-79.5 164.5,-49 314.75,-49 314.75,-79.5"/>
<text xml:space="preserve" text-anchor="start" x="172.5" y="-66" font-family="Helvetica,sans-Serif" font-size="10.00">BigDataStatMeth::hdf5Dataset</text>
<text xml:space="preserve" text-anchor="middle" x="239.62" y="-54.75" font-family="Helvetica,sans-Serif" font-size="10.00">::ncols</text>
</a>
</g>
</g>
<!-- Node1&#45;&gt;Node16 -->
<g id="edge16_Node000001_Node000016" class="edge">
<title>Node1&#45;&gt;Node16</title>
<g id="a_edge16_Node000001_Node000016"><a xlink:title=" ">
<path fill="none" stroke="#63b8ff" d="M86.36,-135.09C104.77,-120.53 130.84,-101.66 156.25,-89.25 160.14,-87.35 164.21,-85.56 168.36,-83.88"/>
<polygon fill="#63b8ff" stroke="#63b8ff" points="169.28,-87.27 177.39,-80.46 166.8,-80.73 169.28,-87.27"/>
</a>
</g>
</g>
<!-- Node17 -->
<g id="Node000017" class="node">
<title>Node17</title>
<g id="a_Node000017"><a xlink:href="class_big_data_stat_meth_1_1hdf5_dataset.html#a6cbce676967d0cc4b50e2cc5282c322b" target="_top" xlink:title="Get number of rows in internal format.">
<polygon fill="white" stroke="#666666" points="314.75,-30.5 164.5,-30.5 164.5,0 314.75,0 314.75,-30.5"/>
<text xml:space="preserve" text-anchor="start" x="172.5" y="-17" font-family="Helvetica,sans-Serif" font-size="10.00">BigDataStatMeth::hdf5Dataset</text>
<text xml:space="preserve" text-anchor="middle" x="239.62" y="-5.75" font-family="Helvetica,sans-Serif" font-size="10.00">::nrows</text>
</a>
</g>
</g>
<!-- Node1&#45;&gt;Node17 -->
<g id="edge17_Node000001_Node000017" class="edge">
<title>Node1&#45;&gt;Node17</title>
<g id="a_edge17_Node000001_Node000017"><a xlink:title=" ">
<path fill="none" stroke="#63b8ff" d="M73.1,-135.02C88.87,-108.95 119.01,-65.15 156.25,-40.25 158.5,-38.74 160.85,-37.32 163.27,-35.99"/>
<polygon fill="#63b8ff" stroke="#63b8ff" points="164.74,-39.17 172.18,-31.62 161.66,-32.88 164.74,-39.17"/>
</a>
</g>
</g>
<!-- Node18 -->
<g id="Node000018" class="node">
<title>Node18</title>
<g id="a_Node000018"><a xlink:href="class_big_data_stat_meth_1_1hdf5_dataset.html#a23bea87165b8ef6b944709c5b2cbd0cf" target="_top" xlink:title=" ">
<polygon fill="white" stroke="#666666" points="314.75,-214.5 164.5,-214.5 164.5,-184 314.75,-184 314.75,-214.5"/>
<text xml:space="preserve" text-anchor="start" x="172.5" y="-201" font-family="Helvetica,sans-Serif" font-size="10.00">BigDataStatMeth::hdf5Dataset</text>
<text xml:space="preserve" text-anchor="middle" x="239.62" y="-189.75" font-family="Helvetica,sans-Serif" font-size="10.00">::readDatasetBlock</text>
</a>
</g>
</g>
<!-- Node1&#45;&gt;Node18 -->
<g id="edge18_Node000001_Node000018" class="edge">
<title>Node1&#45;&gt;Node18</title>
<g id="a_edge18_Node000001_Node000018"><a xlink:title=" ">
<path fill="none" stroke="#63b8ff" d="M120.72,-170.69C134.15,-173.94 148.59,-177.44 162.59,-180.83"/>
<polygon fill="#63b8ff" stroke="#63b8ff" points="161.68,-184.21 172.23,-183.16 163.33,-177.41 161.68,-184.21"/>
</a>
</g>
</g>
<!-- Node19 -->
<g id="Node000019" class="node">
<title>Node19</title>
<g id="a_Node000019"><a xlink:href="class_big_data_stat_meth_1_1hdf5_dataset.html#af606176d84a63561b65702b6fde3a583" target="_top" xlink:title="Write block of data with optional transposition.">
<polygon fill="white" stroke="#666666" points="509.25,-171.5 359,-171.5 359,-141 509.25,-141 509.25,-171.5"/>
<text xml:space="preserve" text-anchor="start" x="367" y="-158" font-family="Helvetica,sans-Serif" font-size="10.00">BigDataStatMeth::hdf5Dataset</text>
<text xml:space="preserve" text-anchor="middle" x="434.12" y="-146.75" font-family="Helvetica,sans-Serif" font-size="10.00">::writeDatasetBlock</text>
</a>
</g>
</g>
<!-- Node1&#45;&gt;Node19 -->
<g id="edge20_Node000001_Node000019" class="edge">
<title>Node1&#45;&gt;Node19</title>
<g id="a_edge20_Node000001_Node000019"><a xlink:title=" ">
<path fill="none" stroke="#63b8ff" d="M120.48,-156.25C181.69,-156.25 277.74,-156.25 347.24,-156.25"/>
<polygon fill="#63b8ff" stroke="#63b8ff" points="347.07,-159.75 357.07,-156.25 347.07,-152.75 347.07,-159.75"/>
</a>
</g>
</g>
<!-- Node4 -->
<g id="Node000004" class="node">
<title>Node4</title>
<g id="a_Node000004"><a xlink:href="class_big_data_stat_meth_1_1hdf5_dataset.html#ac7a7f23b7e22c9b56ca6ad86592f2d52" target="_top" xlink:title="Add an attribute to the dataset.">
<polygon fill="white" stroke="#666666" points="509.25,-502.5 359,-502.5 359,-472 509.25,-472 509.25,-502.5"/>
<text xml:space="preserve" text-anchor="start" x="367" y="-489" font-family="Helvetica,sans-Serif" font-size="10.00">BigDataStatMeth::hdf5Dataset</text>
<text xml:space="preserve" text-anchor="middle" x="434.12" y="-477.75" font-family="Helvetica,sans-Serif" font-size="10.00">::addAttribute</text>
</a>
</g>
</g>
<!-- Node3&#45;&gt;Node4 -->
<g id="edge3_Node000003_Node000004" class="edge">
<title>Node3&#45;&gt;Node4</title>
<g id="a_edge3_Node000003_Node000004"><a xlink:title=" ">
<path fill="none" stroke="#63b8ff" d="M311.85,-355.98C315.86,-358.36 319.62,-361.1 323,-364.25 356.92,-395.92 325.75,-429.88 359,-462.25 360.04,-463.26 361.12,-464.23 362.24,-465.17"/>
<polygon fill="#63b8ff" stroke="#63b8ff" points="360.01,-467.88 370.22,-470.71 364,-462.13 360.01,-467.88"/>
</a>
</g>
</g>
<!-- Node5 -->
<g id="Node000005" class="node">
<title>Node5</title>
<g id="a_Node000005"><a xlink:href="class_big_data_stat_meth_1_1hdf5_file.html#abfb73b5f1eb25ee00489485c8dc56a2a" target="_top" xlink:title="Close file and cleanup resources.">
<polygon fill="white" stroke="#666666" points="499.88,-404.5 368.38,-404.5 368.38,-374 499.88,-374 499.88,-404.5"/>
<text xml:space="preserve" text-anchor="start" x="376.38" y="-391" font-family="Helvetica,sans-Serif" font-size="10.00">BigDataStatMeth::hdf5File</text>
<text xml:space="preserve" text-anchor="middle" x="434.12" y="-379.75" font-family="Helvetica,sans-Serif" font-size="10.00">::close_file</text>
</a>
</g>
</g>
<!-- Node3&#45;&gt;Node5 -->
<g id="edge4_Node000003_Node000005" class="edge">
<title>Node3&#45;&gt;Node5</title>
<g id="a_edge4_Node000003_Node000005"><a xlink:title=" ">
<path fill="none" stroke="#63b8ff" d="M302.33,-355.96C320.81,-360.66 341.24,-365.86 360.36,-370.73"/>
<polygon fill="#63b8ff" stroke="#63b8ff" points="359.42,-374.1 369.97,-373.18 361.15,-367.32 359.42,-374.1"/>
</a>
</g>
</g>
<!-- Node6 -->
<g id="Node000006" class="node">
<title>Node6</title>
<g id="a_Node000006"><a xlink:href="class_big_data_stat_meth_1_1hdf5_group.html#a27cef4d33e46c72bfd792aa49fa621a3" target="_top" xlink:title="Create multiple nested groups.">
<polygon fill="white" stroke="#666666" points="505.12,-453.5 363.12,-453.5 363.12,-423 505.12,-423 505.12,-453.5"/>
<text xml:space="preserve" text-anchor="start" x="371.12" y="-440" font-family="Helvetica,sans-Serif" font-size="10.00">BigDataStatMeth::hdf5Group</text>
<text xml:space="preserve" text-anchor="middle" x="434.12" y="-428.75" font-family="Helvetica,sans-Serif" font-size="10.00">::create_HDF5_groups</text>
</a>
</g>
</g>
<!-- Node3&#45;&gt;Node6 -->
<g id="edge5_Node000003_Node000006" class="edge">
<title>Node3&#45;&gt;Node6</title>
<g id="a_edge5_Node000003_Node000006"><a xlink:title=" ">
<path fill="none" stroke="#63b8ff" d="M308.42,-355.96C313.55,-358.34 318.48,-361.09 323,-364.25 345.14,-379.74 337.18,-397.3 359,-413.25 360.93,-414.66 362.94,-415.99 365.02,-417.25"/>
<polygon fill="#63b8ff" stroke="#63b8ff" points="363.32,-420.31 373.79,-421.93 366.61,-414.14 363.32,-420.31"/>
</a>
</g>
</g>
<!-- Node8 -->
<g id="Node000008" class="node">
<title>Node8</title>
<g id="a_Node000008"><a xlink:href="namespace_big_data_stat_meth.html#a89d901ab4b5e01771f4e3fc7dc84e50e" target="_top" xlink:title="Checks if an HDF5 element (group or dataset) exists.">
<polygon fill="white" stroke="#666666" points="495.75,-355.5 372.5,-355.5 372.5,-325 495.75,-325 495.75,-355.5"/>
<text xml:space="preserve" text-anchor="start" x="380.5" y="-342" font-family="Helvetica,sans-Serif" font-size="10.00">BigDataStatMeth::exists</text>
<text xml:space="preserve" text-anchor="middle" x="434.12" y="-330.75" font-family="Helvetica,sans-Serif" font-size="10.00">_HDF5_element</text>
</a>
</g>
</g>
<!-- Node3&#45;&gt;Node8 -->
<g id="edge7_Node000003_Node000008" class="edge">
<title>Node3&#45;&gt;Node8</title>
<g id="a_edge7_Node000003_Node000008"><a xlink:title=" ">
<path fill="none" stroke="#63b8ff" d="M315.05,-340.25C330.14,-340.25 345.99,-340.25 361,-340.25"/>
<polygon fill="#63b8ff" stroke="#63b8ff" points="360.77,-343.75 370.77,-340.25 360.77,-336.75 360.77,-343.75"/>
</a>
</g>
</g>
<!-- Node9 -->
<g id="Node000009" class="node">
<title>Node9</title>
<g id="a_Node000009"><a xlink:href="class_big_data_stat_meth_1_1hdf5_group.html#a59995412538627e6c80f64b552c286f5" target="_top" xlink:title=" ">
<polygon fill="white" stroke="#666666" points="505.12,-306.5 363.12,-306.5 363.12,-276 505.12,-276 505.12,-306.5"/>
<text xml:space="preserve" text-anchor="start" x="371.12" y="-293" font-family="Helvetica,sans-Serif" font-size="10.00">BigDataStatMeth::hdf5Group</text>
<text xml:space="preserve" text-anchor="middle" x="434.12" y="-281.75" font-family="Helvetica,sans-Serif" font-size="10.00">::getGroupName</text>
</a>
</g>
</g>
<!-- Node3&#45;&gt;Node9 -->
<g id="edge9_Node000003_Node000009" class="edge">
<title>Node3&#45;&gt;Node9</title>
<g id="a_edge9_Node000003_Node000009"><a xlink:title=" ">
<path fill="none" stroke="#63b8ff" d="M302.33,-324.54C320.81,-319.84 341.24,-314.64 360.36,-309.77"/>
<polygon fill="#63b8ff" stroke="#63b8ff" points="361.15,-313.18 369.97,-307.32 359.42,-306.4 361.15,-313.18"/>
</a>
</g>
</g>
<!-- Node10 -->
<g id="Node000010" class="node">
<title>Node10</title>
<g id="a_Node000010"><a xlink:href="namespace_big_data_stat_meth.html#a3d06783149029f1df2853c472d401380" target="_top" xlink:title="Removes multiple elements from an HDF5 file.">
<polygon fill="white" stroke="#666666" points="498.75,-551.5 369.5,-551.5 369.5,-521 498.75,-521 498.75,-551.5"/>
<text xml:space="preserve" text-anchor="start" x="377.5" y="-538" font-family="Helvetica,sans-Serif" font-size="10.00">BigDataStatMeth::remove</text>
<text xml:space="preserve" text-anchor="middle" x="434.12" y="-526.75" font-family="Helvetica,sans-Serif" font-size="10.00">_elements</text>
</a>
</g>
</g>
<!-- Node3&#45;&gt;Node10 -->
<g id="edge10_Node000003_Node000010" class="edge">
<title>Node3&#45;&gt;Node10</title>
<g id="a_edge10_Node000003_Node000010"><a xlink:title=" ">
<path fill="none" stroke="#63b8ff" d="M312.65,-355.79C316.41,-358.22 319.91,-361.02 323,-364.25 369.52,-412.83 313.5,-461.71 359,-511.25 359.72,-512.04 360.47,-512.8 361.24,-513.54"/>
<polygon fill="#63b8ff" stroke="#63b8ff" points="359.07,-516.28 369.12,-519.65 363.36,-510.75 359.07,-516.28"/>
</a>
</g>
</g>
<!-- Node11 -->
<g id="Node000011" class="node">
<title>Node11</title>
<g id="a_Node000011"><a xlink:href="class_big_data_stat_meth_1_1hdf5_dataset.html#acf9843abcb57a0090f1635cc69d95300" target="_top" xlink:title="Write data to the dataset.">
<polygon fill="white" stroke="#666666" points="509.25,-257.5 359,-257.5 359,-227 509.25,-227 509.25,-257.5"/>
<text xml:space="preserve" text-anchor="start" x="367" y="-244" font-family="Helvetica,sans-Serif" font-size="10.00">BigDataStatMeth::hdf5Dataset</text>
<text xml:space="preserve" text-anchor="middle" x="434.12" y="-232.75" font-family="Helvetica,sans-Serif" font-size="10.00">::writeDataset</text>
</a>
</g>
</g>
<!-- Node3&#45;&gt;Node11 -->
<g id="edge11_Node000003_Node000011" class="edge">
<title>Node3&#45;&gt;Node11</title>
<g id="a_edge11_Node000003_Node000011"><a xlink:title=" ">
<path fill="none" stroke="#63b8ff" d="M262.46,-324.67C285.59,-308.69 323.59,-283.87 359,-267.25 362.79,-265.47 366.74,-263.76 370.76,-262.12"/>
<polygon fill="#63b8ff" stroke="#63b8ff" points="372.01,-265.39 380.08,-258.52 369.49,-258.86 372.01,-265.39"/>
</a>
</g>
</g>
<!-- Node7 -->
<g id="Node000007" class="node">
<title>Node7</title>
<g id="a_Node000007"><a xlink:href="namespace_big_data_stat_meth.html#abcaa4216cd52f03ebac42e4855ef846b" target="_top" xlink:title="Checks if a path exists in an HDF5 file.">
<polygon fill="white" stroke="#666666" points="702.62,-398.88 559.12,-398.88 559.12,-379.62 702.62,-379.62 702.62,-398.88"/>
<text xml:space="preserve" text-anchor="middle" x="630.88" y="-385.38" font-family="Helvetica,sans-Serif" font-size="10.00">BigDataStatMeth::pathExists</text>
</a>
</g>
</g>
<!-- Node6&#45;&gt;Node7 -->
<g id="edge6_Node000006_Node000007" class="edge">
<title>Node6&#45;&gt;Node7</title>
<g id="a_edge6_Node000006_Node000007"><a xlink:title=" ">
<path fill="none" stroke="#63b8ff" d="M497.55,-422.54C523.79,-415.94 553.94,-408.36 578.82,-402.09"/>
<polygon fill="#63b8ff" stroke="#63b8ff" points="579.54,-405.52 588.39,-399.69 577.84,-398.73 579.54,-405.52"/>
</a>
</g>
</g>
<!-- Node8&#45;&gt;Node7 -->
<g id="edge8_Node000008_Node000007" class="edge">
<title>Node8&#45;&gt;Node7</title>
<g id="a_edge8_Node000008_Node000007"><a xlink:title=" ">
<path fill="none" stroke="#63b8ff" d="M496.21,-355.62C522.84,-362.32 553.68,-370.08 579.03,-376.46"/>
<polygon fill="#63b8ff" stroke="#63b8ff" points="577.87,-379.78 588.43,-378.82 579.58,-372.99 577.87,-379.78"/>
</a>
</g>
</g>
<!-- Node12 -->
<g id="Node000012" class="node">
<title>Node12</title>
<g id="a_Node000012"><a xlink:href="class_big_data_stat_meth_1_1hdf5_dataset.html#aba39e56a580d3b1fa7f1619fc72efa3e" target="_top" xlink:title="Close dataset and file.">
<polygon fill="white" stroke="#666666" points="706,-214.5 555.75,-214.5 555.75,-184 706,-184 706,-214.5"/>
<text xml:space="preserve" text-anchor="start" x="563.75" y="-201" font-family="Helvetica,sans-Serif" font-size="10.00">BigDataStatMeth::hdf5Dataset</text>
<text xml:space="preserve" text-anchor="middle" x="630.88" y="-189.75" font-family="Helvetica,sans-Serif" font-size="10.00">::close_dataset_file</text>
</a>
</g>
</g>
<!-- Node11&#45;&gt;Node12 -->
<g id="edge12_Node000011_Node000012" class="edge">
<title>Node11&#45;&gt;Node12</title>
<g id="a_edge12_Node000011_Node000012"><a xlink:title=" ">
<path fill="none" stroke="#63b8ff" d="M506.26,-226.54C519.72,-223.57 533.91,-220.44 547.67,-217.4"/>
<polygon fill="#63b8ff" stroke="#63b8ff" points="548.12,-220.89 557.13,-215.31 546.61,-214.05 548.12,-220.89"/>
</a>
</g>
</g>
<!-- Node13 -->
<g id="Node000013" class="node">
<title>Node13</title>
<g id="a_Node000013"><a xlink:href="class_big_data_stat_meth_1_1hdf5_dataset.html#a94d81b72e92cb0230b4e64f37ea7d2e3" target="_top" xlink:title="Convert DataFrame to range list.">
<polygon fill="white" stroke="#666666" points="716.5,-263.5 545.25,-263.5 545.25,-233 716.5,-233 716.5,-263.5"/>
<text xml:space="preserve" text-anchor="start" x="553.25" y="-250" font-family="Helvetica,sans-Serif" font-size="10.00">BigDataStatMeth::hdf5Dataset</text>
<text xml:space="preserve" text-anchor="middle" x="630.88" y="-238.75" font-family="Helvetica,sans-Serif" font-size="10.00">::convert_DataFrame_to_RangeList</text>
</a>
</g>
</g>
<!-- Node11&#45;&gt;Node13 -->
<g id="edge13_Node000011_Node000013" class="edge">
<title>Node11&#45;&gt;Node13</title>
<g id="a_edge13_Node000011_Node000013"><a xlink:title=" ">
<path fill="none" stroke="#63b8ff" d="M509.59,-244.54C517.47,-244.79 525.56,-245.04 533.65,-245.29"/>
<polygon fill="#63b8ff" stroke="#63b8ff" points="533.43,-248.78 543.53,-245.59 533.65,-241.78 533.43,-248.78"/>
</a>
</g>
</g>
<!-- Node15 -->
<g id="Node000015" class="node">
<title>Node15</title>
<g id="a_Node000015"><a xlink:href="namespace_big_data_stat_meth.html#ad6e454f49b5e34a5b657df896eed7502" target="_top" xlink:title="Optimizes block size for edge cases.">
<polygon fill="white" stroke="#666666" points="502.5,-122.5 365.75,-122.5 365.75,-92 502.5,-92 502.5,-122.5"/>
<text xml:space="preserve" text-anchor="start" x="373.75" y="-109" font-family="Helvetica,sans-Serif" font-size="10.00">BigDataStatMeth::getOptim</text>
<text xml:space="preserve" text-anchor="middle" x="434.12" y="-97.75" font-family="Helvetica,sans-Serif" font-size="10.00">BlockSize</text>
</a>
</g>
</g>
<!-- Node14&#45;&gt;Node15 -->
<g id="edge15_Node000014_Node000015" class="edge">
<title>Node14&#45;&gt;Node15</title>
<g id="a_edge15_Node000014_Node000015"><a xlink:title=" ">
<path fill="none" stroke="#63b8ff" d="M307.68,-111.16C322.7,-110.69 338.77,-110.19 354.21,-109.71"/>
<polygon fill="#63b8ff" stroke="#63b8ff" points="353.93,-113.22 363.82,-109.41 353.71,-106.22 353.93,-113.22"/>
</a>
</g>
</g>
<!-- Node18&#45;&gt;Node12 -->
<g id="edge19_Node000018_Node000012" class="edge">
<title>Node18&#45;&gt;Node12</title>
<g id="a_edge19_Node000018_Node000012"><a xlink:title=" ">
<path fill="none" stroke="#63b8ff" d="M315.22,-199.25C380.67,-199.25 475.83,-199.25 544.35,-199.25"/>
<polygon fill="#63b8ff" stroke="#63b8ff" points="544.02,-202.75 554.02,-199.25 544.02,-195.75 544.02,-202.75"/>
</a>
</g>
</g>
<!-- Node19&#45;&gt;Node12 -->
<g id="edge22_Node000019_Node000012" class="edge">
<title>Node19&#45;&gt;Node12</title>
<g id="a_edge22_Node000019_Node000012"><a xlink:title=" ">
<path fill="none" stroke="#63b8ff" d="M506.26,-171.96C519.72,-174.93 533.91,-178.06 547.67,-181.1"/>
<polygon fill="#63b8ff" stroke="#63b8ff" points="546.61,-184.45 557.13,-183.19 548.12,-177.61 546.61,-184.45"/>
</a>
</g>
</g>
<!-- Node19&#45;&gt;Node13 -->
<g id="edge23_Node000019_Node000013" class="edge">
<title>Node19&#45;&gt;Node13</title>
<g id="a_edge23_Node000019_Node000013"><a xlink:title=" ">
<path fill="none" stroke="#63b8ff" d="M456.97,-171.89C478.55,-186.77 512.92,-208.93 545.25,-223.25 549.58,-225.17 554.11,-226.99 558.71,-228.71"/>
<polygon fill="#63b8ff" stroke="#63b8ff" points="557.52,-232 568.11,-232.02 559.84,-225.4 557.52,-232"/>
</a>
</g>
</g>
<!-- Node20 -->
<g id="Node000020" class="node">
<title>Node20</title>
<g id="a_Node000020"><a xlink:href="class_big_data_stat_meth_1_1hdf5_dataset.html#a64177ae924792ea9e557febaa95ed400" target="_top" xlink:title="Close the dataset.">
<polygon fill="white" stroke="#666666" points="706,-128.5 555.75,-128.5 555.75,-98 706,-98 706,-128.5"/>
<text xml:space="preserve" text-anchor="start" x="563.75" y="-115" font-family="Helvetica,sans-Serif" font-size="10.00">BigDataStatMeth::hdf5Dataset</text>
<text xml:space="preserve" text-anchor="middle" x="630.88" y="-103.75" font-family="Helvetica,sans-Serif" font-size="10.00">::close_dataset</text>
</a>
</g>
</g>
<!-- Node19&#45;&gt;Node20 -->
<g id="edge21_Node000019_Node000020" class="edge">
<title>Node19&#45;&gt;Node20</title>
<g id="a_edge21_Node000019_Node000020"><a xlink:title=" ">
<path fill="none" stroke="#63b8ff" d="M506.26,-140.54C519.72,-137.57 533.91,-134.44 547.67,-131.4"/>
<polygon fill="#63b8ff" stroke="#63b8ff" points="548.12,-134.89 557.13,-129.31 546.61,-128.05 548.12,-134.89"/>
</a>
</g>
</g>
<!-- Node21 -->
<g id="Node000021" class="node">
<title>Node21</title>
<g id="a_Node000021"><a xlink:href="namespace_big_data_stat_meth.html#a2692707b3ea4aaafa09d07afaf632437" target="_top" xlink:title="Transposes a 2D matrix.">
<polygon fill="white" stroke="#666666" points="700.75,-165.88 561,-165.88 561,-146.62 700.75,-146.62 700.75,-165.88"/>
<text xml:space="preserve" text-anchor="middle" x="630.88" y="-152.38" font-family="Helvetica,sans-Serif" font-size="10.00">BigDataStatMeth::transpose</text>
</a>
</g>
</g>
<!-- Node19&#45;&gt;Node21 -->
<g id="edge24_Node000019_Node000021" class="edge">
<title>Node19&#45;&gt;Node21</title>
<g id="a_edge24_Node000019_Node000021"><a xlink:title=" ">
<path fill="none" stroke="#63b8ff" d="M509.59,-156.25C522.54,-156.25 536.07,-156.25 549.18,-156.25"/>
<polygon fill="#63b8ff" stroke="#63b8ff" points="549.06,-159.75 559.06,-156.25 549.06,-152.75 549.06,-159.75"/>
</a>
</g>
</g>
</g>
</svg>

<g id="navigator" transform="translate(0 0)" fill="#404254">
  <rect fill="#f2f5e9" fill-opacity="0.5" stroke="#606060" stroke-width=".5" x="0" y="0" width="60" height="60"/>
  <use id="zoomplus" xlink:href="#zoomPlus" x="17" y="9" onmousedown="handleZoom(evt,'in')"/>
  <use id="zoomminus" xlink:href="#zoomMin" x="42" y="9" onmousedown="handleZoom(evt,'out')"/>
  <use id="reset" xlink:href="#resetDef" x="30" y="36" onmousedown="handleReset()"/>
   <use id="arrowup" xlink:href="#arrowUp" x="0" y="0" onmousedown="handlePan(0,-1)"/>
  <use id="arrowright" xlink:href="#arrowRight" x="0" y="0" onmousedown="handlePan(1,0)"/>
  <use id="arrowdown" xlink:href="#arrowDown" x="0" y="0" onmousedown="handlePan(0,1)"/>
  <use id="arrowleft" xlink:href="#arrowLeft" x="0" y="0" onmousedown="handlePan(-1,0)"/>
</g>
<svg viewBox="0 0 15 15" width="100%" height="30px" preserveAspectRatio="xMaxYMin meet">
 <g id="arrow_out" transform="scale(0.3 0.3)">
  <a xlink:href="namespace_big_data_stat_meth_aefec6235cbdf8698782ef6040cda64ac_cgraph_org.svg" target="_base">
   <rect id="button" ry="5" rx="5" y="6" x="6" height="38" width="38"
        fill="#f2f5e9" fill-opacity="0.5" stroke="#606060" stroke-width="1.0"/>
   <path id="arrow"
     d="M 11.500037,31.436501 C 11.940474,20.09759 22.043105,11.32322 32.158766,21.979434 L 37.068811,17.246167 C 37.068811,17.246167 37.088388,32 37.088388,32 L 22.160133,31.978069 C 22.160133,31.978069 26.997745,27.140456 26.997745,27.140456 C 18.528582,18.264221 13.291696,25.230495 11.500037,31.436501 z"
     style="fill:#404040;"/>
  </a>
 </g>
</svg>

<style type='text/css'>
<![CDATA[
[data-mouse-over-selected='false'] { opacity: 0.7; }
[data-mouse-over-selected='true']  { opacity: 1.0; }
]]>
</style>
<script type="application/ecmascript"><![CDATA[
document.addEventListener('DOMContentLoaded', (event) => {
  highlightEdges();
  highlightAdjacentNodes();
});
]]></script>
</svg>
