<?xml version="1.0" encoding="UTF-8" standalone="no"?>
<!DOCTYPE svg PUBLIC "-//W3C//DTD SVG 1.1//EN"
 "http://www.w3.org/Graphics/SVG/1.1/DTD/svg11.dtd">
<!-- Generated by graphviz version 14.0.0 (20250921.2048)
 -->
<!-- Title: BigDataStatMeth::hdf5_matrixVector_calculus Pages: 1 -->
<!--zoomable 1100 -->

<svg id="main" version="1.1" xmlns="http://www.w3.org/2000/svg" xmlns:xlink="http://www.w3.org/1999/xlink" xml:space="preserve" onload="init(evt)">

<style type="text/css"><![CDATA[
.node, .edge {opacity: 0.7;}
.node.selected, .edge.selected {opacity: 1;}
.edge:hover path { stroke: red; }
.edge:hover polygon { stroke: red; fill: red; }
]]></style>

<defs>
  <circle id="rim" cx="0" cy="0" r="7"/>
  <circle id="rim2" cx="0" cy="0" r="3.5"/>
  <g id="zoomPlus">
    <use xlink:href="#rim" fill="#404040"><set attributeName="fill" to="#808080" begin="zoomplus.mouseover" end="zoomplus.mouseout"/></use>
    <path d="M-4,0h8M0,-4v8" fill="none" stroke="white" stroke-width="1.5" pointer-events="none"/>
  </g>
  <g id="zoomMin">
    <use xlink:href="#rim" fill="#404040"><set attributeName="fill" to="#808080" begin="zoomminus.mouseover" end="zoomminus.mouseout"/></use>
    <path d="M-4,0h8" fill="none" stroke="white" stroke-width="1.5" pointer-events="none"/>
  </g>
  <g id="arrowUp" transform="translate(30 24)">
    <use xlink:href="#rim"/>
    <path pointer-events="none" fill="none" stroke="white" stroke-width="1.5" d="M0,-3.0v7 M-2.5,-0.5L0,-3.0L2.5,-0.5"/>
  </g>
  <g id="arrowRight" transform="rotate(90) translate(36 -43)">
    <use xlink:href="#rim"/>
    <path pointer-events="none" fill="none" stroke="white" stroke-width="1.5" d="M0,-3.0v7 M-2.5,-0.5L0,-3.0L2.5,-0.5"/>
  </g>
  <g id="arrowDown" transform="rotate(180) translate(-30 -48)">
    <use xlink:href="#rim"/>
    <path pointer-events="none" fill="none" stroke="white" stroke-width="1.5" d="M0,-3.0v7 M-2.5,-0.5L0,-3.0L2.5,-0.5"/>
  </g>
  <g id="arrowLeft" transform="rotate(270) translate(-36 17)">
    <use xlink:href="#rim"/>
    <path pointer-events="none" fill="none" stroke="white" stroke-width="1.5" d="M0,-3.0v7 M-2.5,-0.5L0,-3.0L2.5,-0.5"/>
  </g>
  <g id="resetDef">
    <use xlink:href="#rim2" fill="#404040"><set attributeName="fill" to="#808080" begin="reset.mouseover" end="reset.mouseout"/></use>
  </g>
</defs>
<script type="application/ecmascript">
var viewWidth = 725;
var viewHeight = 1100;
var sectionId = 'dynsection-83';
</script>
<script type="application/ecmascript" xlink:href="../../../../assets/svg.min.js"/>
<svg id="graph" class="graph">
<g id="viewport">
<title>BigDataStatMeth::hdf5_matrixVector_calculus</title>
<!-- Node1 -->
<g id="Node000001" class="node">
<title>Node1</title>
<g id="a_Node000001"><a xlink:title="Vector&#45;matrix operations for HDF5 matrices.">
<polygon fill="#999999" stroke="#666666" points="118,-422.5 0,-422.5 0,-392 118,-392 118,-422.5"/>
<text xml:space="preserve" text-anchor="start" x="8" y="-409" font-family="Helvetica,sans-Serif" font-size="10.00">BigDataStatMeth::hdf5</text>
<text xml:space="preserve" text-anchor="middle" x="59" y="-397.75" font-family="Helvetica,sans-Serif" font-size="10.00">_matrixVector_calculus</text>
</a>
</g>
</g>
<!-- Node2 -->
<g id="Node000002" class="node">
<title>Node2</title>
<g id="a_Node000002"><a xlink:href="class_big_data_stat_meth_1_1hdf5_dataset.html#a374a6cadcadfc23c1f5df858d31e20df" target="_top" xlink:title="Create a new dataset with optional compression.">
<polygon fill="white" stroke="#666666" points="314,-920.5 163.75,-920.5 163.75,-890 314,-890 314,-920.5"/>
<text xml:space="preserve" text-anchor="start" x="171.75" y="-907" font-family="Helvetica,sans-Serif" font-size="10.00">BigDataStatMeth::hdf5Dataset</text>
<text xml:space="preserve" text-anchor="middle" x="238.88" y="-895.75" font-family="Helvetica,sans-Serif" font-size="10.00">::createDataset</text>
</a>
</g>
</g>
<!-- Node1&#45;&gt;Node2 -->
<g id="edge1_Node000001_Node000002" class="edge">
<title>Node1&#45;&gt;Node2</title>
<g id="a_edge1_Node000001_Node000002"><a xlink:title=" ">
<path fill="none" stroke="#63b8ff" d="M63.05,-422.89C72.87,-471.89 105.86,-626.34 154,-747.25 173.42,-796.03 203.77,-849.29 222.15,-879.84"/>
<polygon fill="#63b8ff" stroke="#63b8ff" points="219.14,-881.63 227.32,-888.36 225.12,-878 219.14,-881.63"/>
</a>
</g>
</g>
<!-- Node13 -->
<g id="Node000013" class="node">
<title>Node13</title>
<g id="a_Node000013"><a xlink:href="class_big_data_stat_meth_1_1hdf5_dataset.html#af3ab7117b94164ab629673cacd896dd9" target="_top" xlink:title="Get the current compression level for this dataset instance.">
<polygon fill="white" stroke="#666666" points="314,-667.5 163.75,-667.5 163.75,-637 314,-637 314,-667.5"/>
<text xml:space="preserve" text-anchor="start" x="171.75" y="-654" font-family="Helvetica,sans-Serif" font-size="10.00">BigDataStatMeth::hdf5Dataset</text>
<text xml:space="preserve" text-anchor="middle" x="238.88" y="-642.75" font-family="Helvetica,sans-Serif" font-size="10.00">::getCompressionLevel</text>
</a>
</g>
</g>
<!-- Node1&#45;&gt;Node13 -->
<g id="edge13_Node000001_Node000013" class="edge">
<title>Node1&#45;&gt;Node13</title>
<g id="a_edge13_Node000001_Node000013"><a xlink:title=" ">
<path fill="none" stroke="#63b8ff" d="M62.09,-422.92C68.3,-463.07 90.3,-570.44 154,-627.25 155.28,-628.39 156.6,-629.47 157.97,-630.51"/>
<polygon fill="#63b8ff" stroke="#63b8ff" points="155.97,-633.39 166.28,-635.84 159.75,-627.5 155.97,-633.39"/>
</a>
</g>
</g>
<!-- Node14 -->
<g id="Node000014" class="node">
<title>Node14</title>
<g id="a_Node000014"><a xlink:href="class_big_data_stat_meth_1_1hdf5_dataset.html#a8cce59e2884ad1ee3b67f281566780af" target="_top" xlink:title="Inherit the compression level from an input dataset if not already set.">
<polygon fill="white" stroke="#666666" points="314,-618.5 163.75,-618.5 163.75,-588 314,-588 314,-618.5"/>
<text xml:space="preserve" text-anchor="start" x="171.75" y="-605" font-family="Helvetica,sans-Serif" font-size="10.00">BigDataStatMeth::hdf5Dataset</text>
<text xml:space="preserve" text-anchor="middle" x="238.88" y="-593.75" font-family="Helvetica,sans-Serif" font-size="10.00">::inheritCompressionLevel</text>
</a>
</g>
</g>
<!-- Node1&#45;&gt;Node14 -->
<g id="edge14_Node000001_Node000014" class="edge">
<title>Node1&#45;&gt;Node14</title>
<g id="a_edge14_Node000001_Node000014"><a xlink:title=" ">
<path fill="none" stroke="#63b8ff" d="M64.18,-422.86C73.97,-456.47 101.67,-536.02 154,-578.25 155.69,-579.61 157.44,-580.9 159.26,-582.11"/>
<polygon fill="#63b8ff" stroke="#63b8ff" points="157.06,-584.88 167.46,-586.87 160.57,-578.82 157.06,-584.88"/>
</a>
</g>
</g>
<!-- Node15 -->
<g id="Node000015" class="node">
<title>Node15</title>
<g id="a_Node000015"><a xlink:href="class_big_data_stat_meth_1_1hdf5_dataset.html#aa743c8c46d7ff3bb2f894145dd07fd8a" target="_top" xlink:title="Get number of columns in internal format.">
<polygon fill="white" stroke="#666666" points="314,-569.5 163.75,-569.5 163.75,-539 314,-539 314,-569.5"/>
<text xml:space="preserve" text-anchor="start" x="171.75" y="-556" font-family="Helvetica,sans-Serif" font-size="10.00">BigDataStatMeth::hdf5Dataset</text>
<text xml:space="preserve" text-anchor="middle" x="238.88" y="-544.75" font-family="Helvetica,sans-Serif" font-size="10.00">::ncols</text>
</a>
</g>
</g>
<!-- Node1&#45;&gt;Node15 -->
<g id="edge15_Node000001_Node000015" class="edge">
<title>Node1&#45;&gt;Node15</title>
<g id="a_edge15_Node000001_Node000015"><a xlink:title=" ">
<path fill="none" stroke="#63b8ff" d="M67.82,-422.89C81.63,-448.89 112.79,-500.94 154,-529.25 156.22,-530.77 158.53,-532.21 160.92,-533.56"/>
<polygon fill="#63b8ff" stroke="#63b8ff" points="159.2,-536.61 169.7,-537.95 162.32,-530.35 159.2,-536.61"/>
</a>
</g>
</g>
<!-- Node16 -->
<g id="Node000016" class="node">
<title>Node16</title>
<g id="a_Node000016"><a xlink:href="class_big_data_stat_meth_1_1hdf5_dataset.html#a6cbce676967d0cc4b50e2cc5282c322b" target="_top" xlink:title="Get number of rows in internal format.">
<polygon fill="white" stroke="#666666" points="314,-520.5 163.75,-520.5 163.75,-490 314,-490 314,-520.5"/>
<text xml:space="preserve" text-anchor="start" x="171.75" y="-507" font-family="Helvetica,sans-Serif" font-size="10.00">BigDataStatMeth::hdf5Dataset</text>
<text xml:space="preserve" text-anchor="middle" x="238.88" y="-495.75" font-family="Helvetica,sans-Serif" font-size="10.00">::nrows</text>
</a>
</g>
</g>
<!-- Node1&#45;&gt;Node16 -->
<g id="edge16_Node000001_Node000016" class="edge">
<title>Node1&#45;&gt;Node16</title>
<g id="a_edge16_Node000001_Node000016"><a xlink:title=" ">
<path fill="none" stroke="#63b8ff" d="M76.02,-422.75C93.76,-439.15 123.86,-464.75 154,-480.25 157.66,-482.13 161.49,-483.9 165.4,-485.55"/>
<polygon fill="#63b8ff" stroke="#63b8ff" points="163.92,-488.73 174.51,-489.1 166.46,-482.2 163.92,-488.73"/>
</a>
</g>
</g>
<!-- Node17 -->
<g id="Node000017" class="node">
<title>Node17</title>
<g id="a_Node000017"><a xlink:href="namespace_big_data_stat_meth.html#a3fe744554430007ecc64a2ff82981a1e" target="_top" xlink:title="Matrix&#45;vector division by columns.">
<polygon fill="white" stroke="#666666" points="310.25,-471.5 167.5,-471.5 167.5,-441 310.25,-441 310.25,-471.5"/>
<text xml:space="preserve" text-anchor="start" x="175.5" y="-458" font-family="Helvetica,sans-Serif" font-size="10.00">BigDataStatMeth::Rcpp</text>
<text xml:space="preserve" text-anchor="middle" x="238.88" y="-446.75" font-family="Helvetica,sans-Serif" font-size="10.00">_matrixVectorDivision_byCol</text>
</a>
</g>
</g>
<!-- Node1&#45;&gt;Node17 -->
<g id="edge17_Node000001_Node000017" class="edge">
<title>Node1&#45;&gt;Node17</title>
<g id="a_edge17_Node000001_Node000017"><a xlink:title=" ">
<path fill="none" stroke="#63b8ff" d="M116.77,-422.89C133.69,-427.55 152.41,-432.71 169.97,-437.54"/>
<polygon fill="#63b8ff" stroke="#63b8ff" points="168.7,-440.82 179.27,-440.11 170.56,-434.08 168.7,-440.82"/>
</a>
</g>
</g>
<!-- Node18 -->
<g id="Node000018" class="node">
<title>Node18</title>
<g id="a_Node000018"><a xlink:href="namespace_big_data_stat_meth.html#ad9988857d0a76311eab3417cb0ddf847" target="_top" xlink:title="Matrix&#45;vector division by rows.">
<polygon fill="white" stroke="#666666" points="312.88,-422.5 164.88,-422.5 164.88,-392 312.88,-392 312.88,-422.5"/>
<text xml:space="preserve" text-anchor="start" x="172.88" y="-409" font-family="Helvetica,sans-Serif" font-size="10.00">BigDataStatMeth::Rcpp</text>
<text xml:space="preserve" text-anchor="middle" x="238.88" y="-397.75" font-family="Helvetica,sans-Serif" font-size="10.00">_matrixVectorDivision_byRow</text>
</a>
</g>
</g>
<!-- Node1&#45;&gt;Node18 -->
<g id="edge18_Node000001_Node000018" class="edge">
<title>Node1&#45;&gt;Node18</title>
<g id="a_edge18_Node000001_Node000018"><a xlink:title=" ">
<path fill="none" stroke="#63b8ff" d="M118.24,-407.25C129.45,-407.25 141.4,-407.25 153.25,-407.25"/>
<polygon fill="#63b8ff" stroke="#63b8ff" points="153.04,-410.75 163.04,-407.25 153.04,-403.75 153.04,-410.75"/>
</a>
</g>
</g>
<!-- Node19 -->
<g id="Node000019" class="node">
<title>Node19</title>
<g id="a_Node000019"><a xlink:href="namespace_big_data_stat_meth.html#ac767afbcae7ea9b90fe7ffa805badf06" target="_top" xlink:title="Matrix&#45;vector multiplication by columns.">
<polygon fill="white" stroke="#666666" points="321.12,-373.5 156.62,-373.5 156.62,-343 321.12,-343 321.12,-373.5"/>
<text xml:space="preserve" text-anchor="start" x="164.62" y="-360" font-family="Helvetica,sans-Serif" font-size="10.00">BigDataStatMeth::Rcpp</text>
<text xml:space="preserve" text-anchor="middle" x="238.88" y="-348.75" font-family="Helvetica,sans-Serif" font-size="10.00">_matrixVectorMultiplication_byCol</text>
</a>
</g>
</g>
<!-- Node1&#45;&gt;Node19 -->
<g id="edge19_Node000001_Node000019" class="edge">
<title>Node1&#45;&gt;Node19</title>
<g id="a_edge19_Node000001_Node000019"><a xlink:title=" ">
<path fill="none" stroke="#63b8ff" d="M116.77,-391.61C133.69,-386.95 152.41,-381.79 169.97,-376.96"/>
<polygon fill="#63b8ff" stroke="#63b8ff" points="170.56,-380.42 179.27,-374.39 168.7,-373.68 170.56,-380.42"/>
</a>
</g>
</g>
<!-- Node20 -->
<g id="Node000020" class="node">
<title>Node20</title>
<g id="a_Node000020"><a xlink:href="namespace_big_data_stat_meth.html#a08552ace2edb3a4129cad9f77d1a8bb1" target="_top" xlink:title="Matrix&#45;vector multiplication by rows.">
<polygon fill="white" stroke="#666666" points="323.75,-324.5 154,-324.5 154,-294 323.75,-294 323.75,-324.5"/>
<text xml:space="preserve" text-anchor="start" x="162" y="-311" font-family="Helvetica,sans-Serif" font-size="10.00">BigDataStatMeth::Rcpp</text>
<text xml:space="preserve" text-anchor="middle" x="238.88" y="-299.75" font-family="Helvetica,sans-Serif" font-size="10.00">_matrixVectorMultiplication_byRow</text>
</a>
</g>
</g>
<!-- Node1&#45;&gt;Node20 -->
<g id="edge20_Node000001_Node000020" class="edge">
<title>Node1&#45;&gt;Node20</title>
<g id="a_edge20_Node000001_Node000020"><a xlink:title=" ">
<path fill="none" stroke="#63b8ff" d="M76.02,-391.75C93.76,-375.35 123.86,-349.75 154,-334.25 157.66,-332.37 161.49,-330.6 165.4,-328.95"/>
<polygon fill="#63b8ff" stroke="#63b8ff" points="166.46,-332.3 174.51,-325.4 163.92,-325.77 166.46,-332.3"/>
</a>
</g>
</g>
<!-- Node21 -->
<g id="Node000021" class="node">
<title>Node21</title>
<g id="a_Node000021"><a xlink:href="namespace_big_data_stat_meth.html#ae25c7bc45e1fdf9ff7c7f472f98157f4" target="_top" xlink:title="Matrix&#45;vector power by rows.">
<polygon fill="white" stroke="#666666" points="305,-275.5 172.75,-275.5 172.75,-245 305,-245 305,-275.5"/>
<text xml:space="preserve" text-anchor="start" x="180.75" y="-262" font-family="Helvetica,sans-Serif" font-size="10.00">BigDataStatMeth::Rcpp</text>
<text xml:space="preserve" text-anchor="middle" x="238.88" y="-250.75" font-family="Helvetica,sans-Serif" font-size="10.00">_matrixVectorPow_byRow</text>
</a>
</g>
</g>
<!-- Node1&#45;&gt;Node21 -->
<g id="edge21_Node000001_Node000021" class="edge">
<title>Node1&#45;&gt;Node21</title>
<g id="a_edge21_Node000001_Node000021"><a xlink:title=" ">
<path fill="none" stroke="#63b8ff" d="M67.82,-391.61C81.63,-365.61 112.79,-313.56 154,-285.25 156.55,-283.5 159.23,-281.86 162,-280.34"/>
<polygon fill="#63b8ff" stroke="#63b8ff" points="163.52,-283.49 170.99,-275.97 160.46,-277.2 163.52,-283.49"/>
</a>
</g>
</g>
<!-- Node22 -->
<g id="Node000022" class="node">
<title>Node22</title>
<g id="a_Node000022"><a xlink:href="namespace_big_data_stat_meth.html#a217a35808432b0e15b63fe4aaca064cd" target="_top" xlink:title="Matrix&#45;vector power by columns.">
<polygon fill="white" stroke="#666666" points="306.5,-226.5 171.25,-226.5 171.25,-196 306.5,-196 306.5,-226.5"/>
<text xml:space="preserve" text-anchor="start" x="179.25" y="-213" font-family="Helvetica,sans-Serif" font-size="10.00">BigDataStatMeth::Rcpp</text>
<text xml:space="preserve" text-anchor="middle" x="238.88" y="-201.75" font-family="Helvetica,sans-Serif" font-size="10.00">_matrixVectorPower_byCol</text>
</a>
</g>
</g>
<!-- Node1&#45;&gt;Node22 -->
<g id="edge22_Node000001_Node000022" class="edge">
<title>Node1&#45;&gt;Node22</title>
<g id="a_edge22_Node000001_Node000022"><a xlink:title=" ">
<path fill="none" stroke="#63b8ff" d="M64.18,-391.64C73.97,-358.03 101.67,-278.48 154,-236.25 156.22,-234.45 158.58,-232.79 161.02,-231.24"/>
<polygon fill="#63b8ff" stroke="#63b8ff" points="162.45,-234.45 169.54,-226.58 159.09,-228.31 162.45,-234.45"/>
</a>
</g>
</g>
<!-- Node23 -->
<g id="Node000023" class="node">
<title>Node23</title>
<g id="a_Node000023"><a xlink:href="namespace_big_data_stat_meth.html#ad5e2b4467fc95783ba9993258c138c5b" target="_top" xlink:title="Matrix&#45;vector subtraction by columns.">
<polygon fill="white" stroke="#666666" points="313.62,-177.5 164.12,-177.5 164.12,-147 313.62,-147 313.62,-177.5"/>
<text xml:space="preserve" text-anchor="start" x="172.12" y="-164" font-family="Helvetica,sans-Serif" font-size="10.00">BigDataStatMeth::Rcpp</text>
<text xml:space="preserve" text-anchor="middle" x="238.88" y="-152.75" font-family="Helvetica,sans-Serif" font-size="10.00">_matrixVectorSubstract_byCol</text>
</a>
</g>
</g>
<!-- Node1&#45;&gt;Node23 -->
<g id="edge23_Node000001_Node000023" class="edge">
<title>Node1&#45;&gt;Node23</title>
<g id="a_edge23_Node000001_Node000023"><a xlink:title=" ">
<path fill="none" stroke="#63b8ff" d="M62.09,-391.58C68.3,-351.43 90.3,-244.06 154,-187.25 155.28,-186.11 156.6,-185.03 157.97,-183.99"/>
<polygon fill="#63b8ff" stroke="#63b8ff" points="159.75,-187 166.28,-178.66 155.97,-181.11 159.75,-187"/>
</a>
</g>
</g>
<!-- Node24 -->
<g id="Node000024" class="node">
<title>Node24</title>
<g id="a_Node000024"><a xlink:href="namespace_big_data_stat_meth.html#a7aff8e3455f1e41dad53136d5c42e362" target="_top" xlink:title="Matrix&#45;vector subtraction by rows.">
<polygon fill="white" stroke="#666666" points="316.25,-128.5 161.5,-128.5 161.5,-98 316.25,-98 316.25,-128.5"/>
<text xml:space="preserve" text-anchor="start" x="169.5" y="-115" font-family="Helvetica,sans-Serif" font-size="10.00">BigDataStatMeth::Rcpp</text>
<text xml:space="preserve" text-anchor="middle" x="238.88" y="-103.75" font-family="Helvetica,sans-Serif" font-size="10.00">_matrixVectorSubstract_byRow</text>
</a>
</g>
</g>
<!-- Node1&#45;&gt;Node24 -->
<g id="edge24_Node000001_Node000024" class="edge">
<title>Node1&#45;&gt;Node24</title>
<g id="a_edge24_Node000001_Node000024"><a xlink:title=" ">
<path fill="none" stroke="#63b8ff" d="M60.71,-391.59C63.67,-345.69 78.67,-210.15 154,-138.25 155.05,-137.25 156.14,-136.28 157.26,-135.36"/>
<polygon fill="#63b8ff" stroke="#63b8ff" points="158.99,-138.42 165.23,-129.86 155.01,-132.66 158.99,-138.42"/>
</a>
</g>
</g>
<!-- Node25 -->
<g id="Node000025" class="node">
<title>Node25</title>
<g id="a_Node000025"><a xlink:href="namespace_big_data_stat_meth.html#a3ee1f8f71bc48460ebce4e8850dc325d" target="_top" xlink:title="Matrix&#45;vector addition by columns.">
<polygon fill="white" stroke="#666666" points="302.75,-79.5 175,-79.5 175,-49 302.75,-49 302.75,-79.5"/>
<text xml:space="preserve" text-anchor="start" x="183" y="-66" font-family="Helvetica,sans-Serif" font-size="10.00">BigDataStatMeth::Rcpp</text>
<text xml:space="preserve" text-anchor="middle" x="238.88" y="-54.75" font-family="Helvetica,sans-Serif" font-size="10.00">_matrixVectorSum_byCol</text>
</a>
</g>
</g>
<!-- Node1&#45;&gt;Node25 -->
<g id="edge25_Node000001_Node000025" class="edge">
<title>Node1&#45;&gt;Node25</title>
<g id="a_edge25_Node000001_Node000025"><a xlink:title=" ">
<path fill="none" stroke="#63b8ff" d="M59.73,-391.78C59.73,-340.85 66.78,-176.67 154,-89.25 157.23,-86.01 160.86,-83.19 164.74,-80.74"/>
<polygon fill="#63b8ff" stroke="#63b8ff" points="166.35,-83.85 173.53,-76.05 163.06,-77.67 166.35,-83.85"/>
</a>
</g>
</g>
<!-- Node26 -->
<g id="Node000026" class="node">
<title>Node26</title>
<g id="a_Node000026"><a xlink:href="namespace_big_data_stat_meth.html#a231abc3d3f97f0f9a95aa812ca41cf50" target="_top" xlink:title="Matrix&#45;vector addition by rows.">
<polygon fill="white" stroke="#666666" points="305.38,-30.5 172.38,-30.5 172.38,0 305.38,0 305.38,-30.5"/>
<text xml:space="preserve" text-anchor="start" x="180.38" y="-17" font-family="Helvetica,sans-Serif" font-size="10.00">BigDataStatMeth::Rcpp</text>
<text xml:space="preserve" text-anchor="middle" x="238.88" y="-5.75" font-family="Helvetica,sans-Serif" font-size="10.00">_matrixVectorSum_byRow</text>
</a>
</g>
</g>
<!-- Node1&#45;&gt;Node26 -->
<g id="edge26_Node000001_Node000026" class="edge">
<title>Node1&#45;&gt;Node26</title>
<g id="a_edge26_Node000001_Node000026"><a xlink:title=" ">
<path fill="none" stroke="#63b8ff" d="M61.91,-391.91C70.02,-329.15 103.51,-92.75 154,-40.25 156.58,-37.57 159.44,-35.17 162.49,-33.02"/>
<polygon fill="#63b8ff" stroke="#63b8ff" points="164.02,-36.18 170.86,-28.1 160.47,-30.15 164.02,-36.18"/>
</a>
</g>
</g>
<!-- Node27 -->
<g id="Node000027" class="node">
<title>Node27</title>
<g id="a_Node000027"><a xlink:href="class_big_data_stat_meth_1_1hdf5_dataset.html#a23bea87165b8ef6b944709c5b2cbd0cf" target="_top" xlink:title=" ">
<polygon fill="white" stroke="#666666" points="510,-748.5 359.75,-748.5 359.75,-718 510,-718 510,-748.5"/>
<text xml:space="preserve" text-anchor="start" x="367.75" y="-735" font-family="Helvetica,sans-Serif" font-size="10.00">BigDataStatMeth::hdf5Dataset</text>
<text xml:space="preserve" text-anchor="middle" x="434.88" y="-723.75" font-family="Helvetica,sans-Serif" font-size="10.00">::readDatasetBlock</text>
</a>
</g>
</g>
<!-- Node1&#45;&gt;Node27 -->
<g id="edge27_Node000001_Node000027" class="edge">
<title>Node1&#45;&gt;Node27</title>
<g id="a_edge27_Node000001_Node000027"><a xlink:title=" ">
<path fill="none" stroke="#63b8ff" d="M59.43,-422.9C58.51,-473.52 63.17,-633.82 154,-707.25 207.77,-750.72 287.74,-754.04 348.45,-748.33"/>
<polygon fill="#63b8ff" stroke="#63b8ff" points="348.47,-751.85 358.05,-747.33 347.74,-744.89 348.47,-751.85"/>
</a>
</g>
</g>
<!-- Node28 -->
<g id="Node000028" class="node">
<title>Node28</title>
<g id="a_Node000028"><a xlink:href="class_big_data_stat_meth_1_1hdf5_dataset.html#af606176d84a63561b65702b6fde3a583" target="_top" xlink:title="Write block of data with optional transposition.">
<polygon fill="white" stroke="#666666" points="510,-699.5 359.75,-699.5 359.75,-669 510,-669 510,-699.5"/>
<text xml:space="preserve" text-anchor="start" x="367.75" y="-686" font-family="Helvetica,sans-Serif" font-size="10.00">BigDataStatMeth::hdf5Dataset</text>
<text xml:space="preserve" text-anchor="middle" x="434.88" y="-674.75" font-family="Helvetica,sans-Serif" font-size="10.00">::writeDatasetBlock</text>
</a>
</g>
</g>
<!-- Node1&#45;&gt;Node28 -->
<g id="edge29_Node000001_Node000028" class="edge">
<title>Node1&#45;&gt;Node28</title>
<g id="a_edge29_Node000001_Node000028"><a xlink:title=" ">
<path fill="none" stroke="#63b8ff" d="M59.87,-422.87C60.44,-470.49 69.35,-614.33 154,-676.25 214.85,-720.76 304.69,-714.28 366.07,-702.25"/>
<polygon fill="#63b8ff" stroke="#63b8ff" points="366.62,-705.71 375.7,-700.25 365.2,-698.85 366.62,-705.71"/>
</a>
</g>
</g>
<!-- Node3 -->
<g id="Node000003" class="node">
<title>Node3</title>
<g id="a_Node000003"><a xlink:href="class_big_data_stat_meth_1_1hdf5_dataset.html#ac7a7f23b7e22c9b56ca6ad86592f2d52" target="_top" xlink:title="Add an attribute to the dataset.">
<polygon fill="white" stroke="#666666" points="510,-846.5 359.75,-846.5 359.75,-816 510,-816 510,-846.5"/>
<text xml:space="preserve" text-anchor="start" x="367.75" y="-833" font-family="Helvetica,sans-Serif" font-size="10.00">BigDataStatMeth::hdf5Dataset</text>
<text xml:space="preserve" text-anchor="middle" x="434.88" y="-821.75" font-family="Helvetica,sans-Serif" font-size="10.00">::addAttribute</text>
</a>
</g>
</g>
<!-- Node2&#45;&gt;Node3 -->
<g id="edge2_Node000002_Node000003" class="edge">
<title>Node2&#45;&gt;Node3</title>
<g id="a_edge2_Node000002_Node000003"><a xlink:title=" ">
<path fill="none" stroke="#63b8ff" d="M276.63,-889.53C300.23,-879.6 331.62,-866.73 359.75,-856.25 364.74,-854.39 369.93,-852.52 375.16,-850.67"/>
<polygon fill="#63b8ff" stroke="#63b8ff" points="376.14,-854.04 384.44,-847.45 373.85,-847.42 376.14,-854.04"/>
</a>
</g>
</g>
<!-- Node4 -->
<g id="Node000004" class="node">
<title>Node4</title>
<g id="a_Node000004"><a xlink:href="class_big_data_stat_meth_1_1hdf5_file.html#abfb73b5f1eb25ee00489485c8dc56a2a" target="_top" xlink:title="Close file and cleanup resources.">
<polygon fill="white" stroke="#666666" points="500.62,-1091.5 369.12,-1091.5 369.12,-1061 500.62,-1061 500.62,-1091.5"/>
<text xml:space="preserve" text-anchor="start" x="377.12" y="-1078" font-family="Helvetica,sans-Serif" font-size="10.00">BigDataStatMeth::hdf5File</text>
<text xml:space="preserve" text-anchor="middle" x="434.88" y="-1066.75" font-family="Helvetica,sans-Serif" font-size="10.00">::close_file</text>
</a>
</g>
</g>
<!-- Node2&#45;&gt;Node4 -->
<g id="edge3_Node000002_Node000004" class="edge">
<title>Node2&#45;&gt;Node4</title>
<g id="a_edge3_Node000002_Node000004"><a xlink:title=" ">
<path fill="none" stroke="#63b8ff" d="M248.62,-920.89C265.98,-950.57 307.66,-1015.28 359.75,-1051.25 361.84,-1052.69 364.02,-1054.06 366.26,-1055.35"/>
<polygon fill="#63b8ff" stroke="#63b8ff" points="364.6,-1058.43 375.1,-1059.86 367.78,-1052.2 364.6,-1058.43"/>
</a>
</g>
</g>
<!-- Node5 -->
<g id="Node000005" class="node">
<title>Node5</title>
<g id="a_Node000005"><a xlink:href="class_big_data_stat_meth_1_1hdf5_group.html#a27cef4d33e46c72bfd792aa49fa621a3" target="_top" xlink:title="Create multiple nested groups.">
<polygon fill="white" stroke="#666666" points="505.88,-993.5 363.88,-993.5 363.88,-963 505.88,-963 505.88,-993.5"/>
<text xml:space="preserve" text-anchor="start" x="371.88" y="-980" font-family="Helvetica,sans-Serif" font-size="10.00">BigDataStatMeth::hdf5Group</text>
<text xml:space="preserve" text-anchor="middle" x="434.88" y="-968.75" font-family="Helvetica,sans-Serif" font-size="10.00">::create_HDF5_groups</text>
</a>
</g>
</g>
<!-- Node2&#45;&gt;Node5 -->
<g id="edge4_Node000002_Node000005" class="edge">
<title>Node2&#45;&gt;Node5</title>
<g id="a_edge4_Node000002_Node000005"><a xlink:title=" ">
<path fill="none" stroke="#63b8ff" d="M277.46,-920.92C300.98,-930.58 331.98,-943.02 359.75,-953.25 364.74,-955.09 369.95,-956.95 375.17,-958.79"/>
<polygon fill="#63b8ff" stroke="#63b8ff" points="373.86,-962.04 384.46,-962 376.16,-955.42 373.86,-962.04"/>
</a>
</g>
</g>
<!-- Node7 -->
<g id="Node000007" class="node">
<title>Node7</title>
<g id="a_Node000007"><a xlink:href="namespace_big_data_stat_meth.html#a89d901ab4b5e01771f4e3fc7dc84e50e" target="_top" xlink:title="Checks if an HDF5 element (group or dataset) exists.">
<polygon fill="white" stroke="#666666" points="496.5,-1042.5 373.25,-1042.5 373.25,-1012 496.5,-1012 496.5,-1042.5"/>
<text xml:space="preserve" text-anchor="start" x="381.25" y="-1029" font-family="Helvetica,sans-Serif" font-size="10.00">BigDataStatMeth::exists</text>
<text xml:space="preserve" text-anchor="middle" x="434.88" y="-1017.75" font-family="Helvetica,sans-Serif" font-size="10.00">_HDF5_element</text>
</a>
</g>
</g>
<!-- Node2&#45;&gt;Node7 -->
<g id="edge6_Node000002_Node000007" class="edge">
<title>Node2&#45;&gt;Node7</title>
<g id="a_edge6_Node000002_Node000007"><a xlink:title=" ">
<path fill="none" stroke="#63b8ff" d="M255.21,-920.74C276.82,-941.79 318.23,-979.42 359.75,-1002.25 362.9,-1003.98 366.2,-1005.63 369.57,-1007.18"/>
<polygon fill="#63b8ff" stroke="#63b8ff" points="367.9,-1010.27 378.47,-1010.97 370.64,-1003.83 367.9,-1010.27"/>
</a>
</g>
</g>
<!-- Node8 -->
<g id="Node000008" class="node">
<title>Node8</title>
<g id="a_Node000008"><a xlink:href="class_big_data_stat_meth_1_1hdf5_group.html#a59995412538627e6c80f64b552c286f5" target="_top" xlink:title=" ">
<polygon fill="white" stroke="#666666" points="505.88,-944.5 363.88,-944.5 363.88,-914 505.88,-914 505.88,-944.5"/>
<text xml:space="preserve" text-anchor="start" x="371.88" y="-931" font-family="Helvetica,sans-Serif" font-size="10.00">BigDataStatMeth::hdf5Group</text>
<text xml:space="preserve" text-anchor="middle" x="434.88" y="-919.75" font-family="Helvetica,sans-Serif" font-size="10.00">::getGroupName</text>
</a>
</g>
</g>
<!-- Node2&#45;&gt;Node8 -->
<g id="edge8_Node000002_Node000008" class="edge">
<title>Node2&#45;&gt;Node8</title>
<g id="a_edge8_Node000002_Node000008"><a xlink:title=" ">
<path fill="none" stroke="#63b8ff" d="M314.33,-914.46C326.68,-915.99 339.55,-917.58 352.07,-919.13"/>
<polygon fill="#63b8ff" stroke="#63b8ff" points="351.59,-922.6 361.95,-920.35 352.45,-915.65 351.59,-922.6"/>
</a>
</g>
</g>
<!-- Node9 -->
<g id="Node000009" class="node">
<title>Node9</title>
<g id="a_Node000009"><a xlink:href="namespace_big_data_stat_meth.html#a3d06783149029f1df2853c472d401380" target="_top" xlink:title="Removes multiple elements from an HDF5 file.">
<polygon fill="white" stroke="#666666" points="499.5,-895.5 370.25,-895.5 370.25,-865 499.5,-865 499.5,-895.5"/>
<text xml:space="preserve" text-anchor="start" x="378.25" y="-882" font-family="Helvetica,sans-Serif" font-size="10.00">BigDataStatMeth::remove</text>
<text xml:space="preserve" text-anchor="middle" x="434.88" y="-870.75" font-family="Helvetica,sans-Serif" font-size="10.00">_elements</text>
</a>
</g>
</g>
<!-- Node2&#45;&gt;Node9 -->
<g id="edge9_Node000002_Node000009" class="edge">
<title>Node2&#45;&gt;Node9</title>
<g id="a_edge9_Node000002_Node000009"><a xlink:title=" ">
<path fill="none" stroke="#63b8ff" d="M314.33,-895.66C328.97,-893.77 344.34,-891.79 359,-889.9"/>
<polygon fill="#63b8ff" stroke="#63b8ff" points="359.08,-893.42 368.55,-888.67 358.18,-886.48 359.08,-893.42"/>
</a>
</g>
</g>
<!-- Node10 -->
<g id="Node000010" class="node">
<title>Node10</title>
<g id="a_Node000010"><a xlink:href="class_big_data_stat_meth_1_1hdf5_dataset.html#acf9843abcb57a0090f1635cc69d95300" target="_top" xlink:title="Write data to the dataset.">
<polygon fill="white" stroke="#666666" points="510,-797.5 359.75,-797.5 359.75,-767 510,-767 510,-797.5"/>
<text xml:space="preserve" text-anchor="start" x="367.75" y="-784" font-family="Helvetica,sans-Serif" font-size="10.00">BigDataStatMeth::hdf5Dataset</text>
<text xml:space="preserve" text-anchor="middle" x="434.88" y="-772.75" font-family="Helvetica,sans-Serif" font-size="10.00">::writeDataset</text>
</a>
</g>
</g>
<!-- Node2&#45;&gt;Node10 -->
<g id="edge10_Node000002_Node000010" class="edge">
<title>Node2&#45;&gt;Node10</title>
<g id="a_edge10_Node000002_Node000010"><a xlink:title=" ">
<path fill="none" stroke="#63b8ff" d="M255.18,-889.59C276.75,-868.31 318.12,-830.28 359.75,-807.25 362.9,-805.51 366.19,-803.86 369.56,-802.3"/>
<polygon fill="#63b8ff" stroke="#63b8ff" points="370.64,-805.65 378.46,-798.5 367.88,-799.21 370.64,-805.65"/>
</a>
</g>
</g>
<!-- Node6 -->
<g id="Node000006" class="node">
<title>Node6</title>
<g id="a_Node000006"><a xlink:href="namespace_big_data_stat_meth.html#abcaa4216cd52f03ebac42e4855ef846b" target="_top" xlink:title="Checks if a path exists in an HDF5 file.">
<polygon fill="white" stroke="#666666" points="703.38,-1011.88 559.88,-1011.88 559.88,-992.62 703.38,-992.62 703.38,-1011.88"/>
<text xml:space="preserve" text-anchor="middle" x="631.62" y="-998.38" font-family="Helvetica,sans-Serif" font-size="10.00">BigDataStatMeth::pathExists</text>
</a>
</g>
</g>
<!-- Node5&#45;&gt;Node6 -->
<g id="edge5_Node000005_Node000006" class="edge">
<title>Node5&#45;&gt;Node6</title>
<g id="a_edge5_Node000005_Node000006"><a xlink:title=" ">
<path fill="none" stroke="#63b8ff" d="M506.18,-986.91C519.85,-988.6 534.3,-990.38 548.31,-992.11"/>
<polygon fill="#63b8ff" stroke="#63b8ff" points="547.58,-995.54 557.94,-993.29 548.44,-988.6 547.58,-995.54"/>
</a>
</g>
</g>
<!-- Node7&#45;&gt;Node6 -->
<g id="edge7_Node000007_Node000006" class="edge">
<title>Node7&#45;&gt;Node6</title>
<g id="a_edge7_Node000007_Node000006"><a xlink:title=" ">
<path fill="none" stroke="#63b8ff" d="M496.96,-1019.41C513.25,-1017.32 531.12,-1015.02 548.34,-1012.81"/>
<polygon fill="#63b8ff" stroke="#63b8ff" points="548.57,-1016.31 558.04,-1011.57 547.68,-1009.37 548.57,-1016.31"/>
</a>
</g>
</g>
<!-- Node11 -->
<g id="Node000011" class="node">
<title>Node11</title>
<g id="a_Node000011"><a xlink:href="class_big_data_stat_meth_1_1hdf5_dataset.html#aba39e56a580d3b1fa7f1619fc72efa3e" target="_top" xlink:title="Close dataset and file.">
<polygon fill="white" stroke="#666666" points="706.75,-748.5 556.5,-748.5 556.5,-718 706.75,-718 706.75,-748.5"/>
<text xml:space="preserve" text-anchor="start" x="564.5" y="-735" font-family="Helvetica,sans-Serif" font-size="10.00">BigDataStatMeth::hdf5Dataset</text>
<text xml:space="preserve" text-anchor="middle" x="631.62" y="-723.75" font-family="Helvetica,sans-Serif" font-size="10.00">::close_dataset_file</text>
</a>
</g>
</g>
<!-- Node10&#45;&gt;Node11 -->
<g id="edge11_Node000010_Node000011" class="edge">
<title>Node10&#45;&gt;Node11</title>
<g id="a_edge11_Node000010_Node000011"><a xlink:title=" ">
<path fill="none" stroke="#63b8ff" d="M498.3,-766.54C517.08,-761.82 537.86,-756.59 557.28,-751.7"/>
<polygon fill="#63b8ff" stroke="#63b8ff" points="557.91,-755.15 566.75,-749.32 556.2,-748.37 557.91,-755.15"/>
</a>
</g>
</g>
<!-- Node12 -->
<g id="Node000012" class="node">
<title>Node12</title>
<g id="a_Node000012"><a xlink:href="class_big_data_stat_meth_1_1hdf5_dataset.html#a94d81b72e92cb0230b4e64f37ea7d2e3" target="_top" xlink:title="Convert DataFrame to range list.">
<polygon fill="white" stroke="#666666" points="717.25,-797.5 546,-797.5 546,-767 717.25,-767 717.25,-797.5"/>
<text xml:space="preserve" text-anchor="start" x="554" y="-784" font-family="Helvetica,sans-Serif" font-size="10.00">BigDataStatMeth::hdf5Dataset</text>
<text xml:space="preserve" text-anchor="middle" x="631.62" y="-772.75" font-family="Helvetica,sans-Serif" font-size="10.00">::convert_DataFrame_to_RangeList</text>
</a>
</g>
</g>
<!-- Node10&#45;&gt;Node12 -->
<g id="edge12_Node000010_Node000012" class="edge">
<title>Node10&#45;&gt;Node12</title>
<g id="a_edge12_Node000010_Node000012"><a xlink:title=" ">
<path fill="none" stroke="#63b8ff" d="M510.34,-782.25C518.22,-782.25 526.31,-782.25 534.4,-782.25"/>
<polygon fill="#63b8ff" stroke="#63b8ff" points="534.28,-785.75 544.28,-782.25 534.28,-778.75 534.28,-785.75"/>
</a>
</g>
</g>
<!-- Node27&#45;&gt;Node11 -->
<g id="edge28_Node000027_Node000011" class="edge">
<title>Node27&#45;&gt;Node11</title>
<g id="a_edge28_Node000027_Node000011"><a xlink:title=" ">
<path fill="none" stroke="#63b8ff" d="M510.34,-733.25C521.61,-733.25 533.32,-733.25 544.81,-733.25"/>
<polygon fill="#63b8ff" stroke="#63b8ff" points="544.69,-736.75 554.69,-733.25 544.69,-729.75 544.69,-736.75"/>
</a>
</g>
</g>
<!-- Node28&#45;&gt;Node11 -->
<g id="edge31_Node000028_Node000011" class="edge">
<title>Node28&#45;&gt;Node11</title>
<g id="a_edge31_Node000028_Node000011"><a xlink:title=" ">
<path fill="none" stroke="#63b8ff" d="M498.3,-699.96C517.08,-704.68 537.86,-709.91 557.28,-714.8"/>
<polygon fill="#63b8ff" stroke="#63b8ff" points="556.2,-718.13 566.75,-717.18 557.91,-711.35 556.2,-718.13"/>
</a>
</g>
</g>
<!-- Node28&#45;&gt;Node12 -->
<g id="edge32_Node000028_Node000012" class="edge">
<title>Node28&#45;&gt;Node12</title>
<g id="a_edge32_Node000028_Node000012"><a xlink:title=" ">
<path fill="none" stroke="#63b8ff" d="M493.84,-699.9C499.55,-702.57 505.05,-705.67 510,-709.25 531.61,-724.88 524.1,-742.03 546,-757.25 548.1,-758.71 550.28,-760.08 552.52,-761.37"/>
<polygon fill="#63b8ff" stroke="#63b8ff" points="550.88,-764.46 561.38,-765.87 554.05,-758.22 550.88,-764.46"/>
</a>
</g>
</g>
<!-- Node29 -->
<g id="Node000029" class="node">
<title>Node29</title>
<g id="a_Node000029"><a xlink:href="class_big_data_stat_meth_1_1hdf5_dataset.html#a64177ae924792ea9e557febaa95ed400" target="_top" xlink:title="Close the dataset.">
<polygon fill="white" stroke="#666666" points="706.75,-659.5 556.5,-659.5 556.5,-629 706.75,-629 706.75,-659.5"/>
<text xml:space="preserve" text-anchor="start" x="564.5" y="-646" font-family="Helvetica,sans-Serif" font-size="10.00">BigDataStatMeth::hdf5Dataset</text>
<text xml:space="preserve" text-anchor="middle" x="631.62" y="-634.75" font-family="Helvetica,sans-Serif" font-size="10.00">::close_dataset</text>
</a>
</g>
</g>
<!-- Node28&#45;&gt;Node29 -->
<g id="edge30_Node000028_Node000029" class="edge">
<title>Node28&#45;&gt;Node29</title>
<g id="a_edge30_Node000028_Node000029"><a xlink:title=" ">
<path fill="none" stroke="#63b8ff" d="M510.34,-668.96C521.73,-666.62 533.56,-664.19 545.17,-661.8"/>
<polygon fill="#63b8ff" stroke="#63b8ff" points="545.63,-665.28 554.72,-659.84 544.22,-658.42 545.63,-665.28"/>
</a>
</g>
</g>
<!-- Node30 -->
<g id="Node000030" class="node">
<title>Node30</title>
<g id="a_Node000030"><a xlink:href="namespace_big_data_stat_meth.html#a2692707b3ea4aaafa09d07afaf632437" target="_top" xlink:title="Transposes a 2D matrix.">
<polygon fill="white" stroke="#666666" points="701.5,-696.88 561.75,-696.88 561.75,-677.62 701.5,-677.62 701.5,-696.88"/>
<text xml:space="preserve" text-anchor="middle" x="631.62" y="-683.38" font-family="Helvetica,sans-Serif" font-size="10.00">BigDataStatMeth::transpose</text>
</a>
</g>
</g>
<!-- Node28&#45;&gt;Node30 -->
<g id="edge33_Node000028_Node000030" class="edge">
<title>Node28&#45;&gt;Node30</title>
<g id="a_edge33_Node000028_Node000030"><a xlink:title=" ">
<path fill="none" stroke="#63b8ff" d="M510.34,-685.4C523.29,-685.6 536.82,-685.81 549.93,-686.01"/>
<polygon fill="#63b8ff" stroke="#63b8ff" points="549.76,-689.5 559.81,-686.16 549.87,-682.51 549.76,-689.5"/>
</a>
</g>
</g>
</g>
</svg>

<g id="navigator" transform="translate(0 0)" fill="#404254">
  <rect fill="#f2f5e9" fill-opacity="0.5" stroke="#606060" stroke-width=".5" x="0" y="0" width="60" height="60"/>
  <use id="zoomplus" xlink:href="#zoomPlus" x="17" y="9" onmousedown="handleZoom(evt,'in')"/>
  <use id="zoomminus" xlink:href="#zoomMin" x="42" y="9" onmousedown="handleZoom(evt,'out')"/>
  <use id="reset" xlink:href="#resetDef" x="30" y="36" onmousedown="handleReset()"/>
   <use id="arrowup" xlink:href="#arrowUp" x="0" y="0" onmousedown="handlePan(0,-1)"/>
  <use id="arrowright" xlink:href="#arrowRight" x="0" y="0" onmousedown="handlePan(1,0)"/>
  <use id="arrowdown" xlink:href="#arrowDown" x="0" y="0" onmousedown="handlePan(0,1)"/>
  <use id="arrowleft" xlink:href="#arrowLeft" x="0" y="0" onmousedown="handlePan(-1,0)"/>
</g>
<svg viewBox="0 0 15 15" width="100%" height="30px" preserveAspectRatio="xMaxYMin meet">
 <g id="arrow_out" transform="scale(0.3 0.3)">
  <a xlink:href="namespace_big_data_stat_meth_a1bb4d2e3ebfcdcbe7739366846b9453e_cgraph_org.svg" target="_base">
   <rect id="button" ry="5" rx="5" y="6" x="6" height="38" width="38"
        fill="#f2f5e9" fill-opacity="0.5" stroke="#606060" stroke-width="1.0"/>
   <path id="arrow"
     d="M 11.500037,31.436501 C 11.940474,20.09759 22.043105,11.32322 32.158766,21.979434 L 37.068811,17.246167 C 37.068811,17.246167 37.088388,32 37.088388,32 L 22.160133,31.978069 C 22.160133,31.978069 26.997745,27.140456 26.997745,27.140456 C 18.528582,18.264221 13.291696,25.230495 11.500037,31.436501 z"
     style="fill:#404040;"/>
  </a>
 </g>
</svg>

<style type='text/css'>
<![CDATA[
[data-mouse-over-selected='false'] { opacity: 0.7; }
[data-mouse-over-selected='true']  { opacity: 1.0; }
]]>
</style>
<script type="application/ecmascript"><![CDATA[
document.addEventListener('DOMContentLoaded', (event) => {
  highlightEdges();
  highlightAdjacentNodes();
});
]]></script>
</svg>
