<?xml version="1.0" encoding="UTF-8" standalone="no"?>
<!DOCTYPE svg PUBLIC "-//W3C//DTD SVG 1.1//EN"
 "http://www.w3.org/Graphics/SVG/1.1/DTD/svg11.dtd">
<!-- Generated by graphviz version 14.0.0 (20250921.2048)
 -->
<!-- Title: BigDataStatMeth::join_datasets Pages: 1 -->
<!--zoomable 384 -->

<svg id="main" version="1.1" xmlns="http://www.w3.org/2000/svg" xmlns:xlink="http://www.w3.org/1999/xlink" xml:space="preserve" onload="init(evt)">

<style type="text/css"><![CDATA[
.node, .edge {opacity: 0.7;}
.node.selected, .edge.selected {opacity: 1;}
.edge:hover path { stroke: red; }
.edge:hover polygon { stroke: red; fill: red; }
]]></style>

<defs>
  <circle id="rim" cx="0" cy="0" r="7"/>
  <circle id="rim2" cx="0" cy="0" r="3.5"/>
  <g id="zoomPlus">
    <use xlink:href="#rim" fill="#404040"><set attributeName="fill" to="#808080" begin="zoomplus.mouseover" end="zoomplus.mouseout"/></use>
    <path d="M-4,0h8M0,-4v8" fill="none" stroke="white" stroke-width="1.5" pointer-events="none"/>
  </g>
  <g id="zoomMin">
    <use xlink:href="#rim" fill="#404040"><set attributeName="fill" to="#808080" begin="zoomminus.mouseover" end="zoomminus.mouseout"/></use>
    <path d="M-4,0h8" fill="none" stroke="white" stroke-width="1.5" pointer-events="none"/>
  </g>
  <g id="arrowUp" transform="translate(30 24)">
    <use xlink:href="#rim"/>
    <path pointer-events="none" fill="none" stroke="white" stroke-width="1.5" d="M0,-3.0v7 M-2.5,-0.5L0,-3.0L2.5,-0.5"/>
  </g>
  <g id="arrowRight" transform="rotate(90) translate(36 -43)">
    <use xlink:href="#rim"/>
    <path pointer-events="none" fill="none" stroke="white" stroke-width="1.5" d="M0,-3.0v7 M-2.5,-0.5L0,-3.0L2.5,-0.5"/>
  </g>
  <g id="arrowDown" transform="rotate(180) translate(-30 -48)">
    <use xlink:href="#rim"/>
    <path pointer-events="none" fill="none" stroke="white" stroke-width="1.5" d="M0,-3.0v7 M-2.5,-0.5L0,-3.0L2.5,-0.5"/>
  </g>
  <g id="arrowLeft" transform="rotate(270) translate(-36 17)">
    <use xlink:href="#rim"/>
    <path pointer-events="none" fill="none" stroke="white" stroke-width="1.5" d="M0,-3.0v7 M-2.5,-0.5L0,-3.0L2.5,-0.5"/>
  </g>
  <g id="resetDef">
    <use xlink:href="#rim2" fill="#404040"><set attributeName="fill" to="#808080" begin="reset.mouseover" end="reset.mouseout"/></use>
  </g>
</defs>
<script type="application/ecmascript">
var viewWidth = 901;
var viewHeight = 384;
var sectionId = 'dynsection-72';
</script>
<script type="application/ecmascript" xlink:href="../../../../assets/svg.min.js"/>
<svg id="graph" class="graph">
<g id="viewport">
<title>BigDataStatMeth::join_datasets</title>
<!-- Node1 -->
<g id="Node000001" class="node">
<title>Node1</title>
<g id="a_Node000001"><a xlink:title="Joins multiple HDF5 datasets into a single dataset within the same group.">
<polygon fill="#999999" stroke="#666666" points="112,-251.88 0,-251.88 0,-221.38 112,-221.38 112,-251.88"/>
<text xml:space="preserve" text-anchor="start" x="8" y="-238.38" font-family="Helvetica,sans-Serif" font-size="10.00">BigDataStatMeth::join</text>
<text xml:space="preserve" text-anchor="middle" x="56" y="-227.12" font-family="Helvetica,sans-Serif" font-size="10.00">_datasets</text>
</a>
</g>
</g>
<!-- Node2 -->
<g id="Node000002" class="node">
<title>Node2</title>
<g id="a_Node000002"><a xlink:href="namespace_big_data_stat_meth.html#a304b42b14ec87d4acc6f34ff0231529d" target="_top" xlink:title="Safely close any number of dataset handles (C++17).">
<polygon fill="white" stroke="#666666" points="317.38,-351.25 150.62,-351.25 150.62,-332 317.38,-332 317.38,-351.25"/>
<text xml:space="preserve" text-anchor="middle" x="234" y="-337.75" font-family="Helvetica,sans-Serif" font-size="10.00">BigDataStatMeth::checkClose_file</text>
</a>
</g>
</g>
<!-- Node1&#45;&gt;Node2 -->
<g id="edge1_Node000001_Node000002" class="edge">
<title>Node1&#45;&gt;Node2</title>
<g id="a_edge1_Node000001_Node000002"><a xlink:title=" ">
<path fill="none" stroke="#63b8ff" d="M68.68,-252.22C84.42,-272.06 114.37,-305.87 148,-323.62 150.72,-325.06 153.55,-326.38 156.44,-327.6"/>
<polygon fill="#63b8ff" stroke="#63b8ff" points="155.18,-330.86 165.77,-331.03 157.6,-324.29 155.18,-330.86"/>
</a>
</g>
</g>
<!-- Node3 -->
<g id="Node000003" class="node">
<title>Node3</title>
<g id="a_Node000003"><a xlink:href="class_big_data_stat_meth_1_1hdf5_dataset.html#a7b54a6f524581d54102a1614ee44991b" target="_top" xlink:title="Get dataset dimension.">
<polygon fill="white" stroke="#666666" points="320,-314.25 148,-314.25 148,-295 320,-295 320,-314.25"/>
<text xml:space="preserve" text-anchor="middle" x="234" y="-300.75" font-family="Helvetica,sans-Serif" font-size="10.00">BigDataStatMeth::hdf5Dataset::dim</text>
</a>
</g>
</g>
<!-- Node1&#45;&gt;Node3 -->
<g id="edge2_Node000001_Node000003" class="edge">
<title>Node1&#45;&gt;Node3</title>
<g id="a_edge2_Node000001_Node000003"><a xlink:title=" ">
<path fill="none" stroke="#63b8ff" d="M81.62,-252.28C99.45,-263.02 124.46,-276.85 148,-285.62 153.99,-287.86 160.32,-289.87 166.72,-291.68"/>
<polygon fill="#63b8ff" stroke="#63b8ff" points="165.46,-294.97 176.03,-294.14 167.25,-288.2 165.46,-294.97"/>
</a>
</g>
</g>
<!-- Node4 -->
<g id="Node000004" class="node">
<title>Node4</title>
<g id="a_Node000004"><a xlink:href="class_big_data_stat_meth_1_1hdf5_dataset.html#ab57cadee5e43a496eb32dbf12d603d76" target="_top" xlink:title=" ">
<polygon fill="white" stroke="#666666" points="309.12,-276.88 158.88,-276.88 158.88,-246.38 309.12,-246.38 309.12,-276.88"/>
<text xml:space="preserve" text-anchor="start" x="166.88" y="-263.38" font-family="Helvetica,sans-Serif" font-size="10.00">BigDataStatMeth::hdf5Dataset</text>
<text xml:space="preserve" text-anchor="middle" x="234" y="-252.12" font-family="Helvetica,sans-Serif" font-size="10.00">::openDataset</text>
</a>
</g>
</g>
<!-- Node1&#45;&gt;Node4 -->
<g id="edge3_Node000001_Node000004" class="edge">
<title>Node1&#45;&gt;Node4</title>
<g id="a_edge3_Node000001_Node000004"><a xlink:title=" ">
<path fill="none" stroke="#63b8ff" d="M112.2,-244.47C123.36,-246.05 135.33,-247.75 147.25,-249.44"/>
<polygon fill="#63b8ff" stroke="#63b8ff" points="146.74,-252.91 157.13,-250.85 147.73,-245.98 146.74,-252.91"/>
</a>
</g>
</g>
<!-- Node11 -->
<g id="Node000011" class="node">
<title>Node11</title>
<g id="a_Node000011"><a xlink:href="class_big_data_stat_meth_1_1hdf5_dataset.html#a23bea87165b8ef6b944709c5b2cbd0cf" target="_top" xlink:title=" ">
<polygon fill="white" stroke="#666666" points="309.12,-227.88 158.88,-227.88 158.88,-197.38 309.12,-197.38 309.12,-227.88"/>
<text xml:space="preserve" text-anchor="start" x="166.88" y="-214.38" font-family="Helvetica,sans-Serif" font-size="10.00">BigDataStatMeth::hdf5Dataset</text>
<text xml:space="preserve" text-anchor="middle" x="234" y="-203.12" font-family="Helvetica,sans-Serif" font-size="10.00">::readDatasetBlock</text>
</a>
</g>
</g>
<!-- Node1&#45;&gt;Node11 -->
<g id="edge11_Node000001_Node000011" class="edge">
<title>Node1&#45;&gt;Node11</title>
<g id="a_edge11_Node000001_Node000011"><a xlink:title=" ">
<path fill="none" stroke="#63b8ff" d="M112.2,-229.1C123.36,-227.58 135.33,-225.94 147.25,-224.32"/>
<polygon fill="#63b8ff" stroke="#63b8ff" points="147.7,-227.79 157.13,-222.97 146.75,-220.85 147.7,-227.79"/>
</a>
</g>
</g>
<!-- Node12 -->
<g id="Node000012" class="node">
<title>Node12</title>
<g id="a_Node000012"><a xlink:href="namespace_big_data_stat_meth.html#a3d06783149029f1df2853c472d401380" target="_top" xlink:title="Removes multiple elements from an HDF5 file.">
<polygon fill="white" stroke="#666666" points="298.62,-178.88 169.38,-178.88 169.38,-148.38 298.62,-148.38 298.62,-178.88"/>
<text xml:space="preserve" text-anchor="start" x="177.38" y="-165.38" font-family="Helvetica,sans-Serif" font-size="10.00">BigDataStatMeth::remove</text>
<text xml:space="preserve" text-anchor="middle" x="234" y="-154.12" font-family="Helvetica,sans-Serif" font-size="10.00">_elements</text>
</a>
</g>
</g>
<!-- Node1&#45;&gt;Node12 -->
<g id="edge13_Node000001_Node000012" class="edge">
<title>Node1&#45;&gt;Node12</title>
<g id="a_edge13_Node000001_Node000012"><a xlink:title=" ">
<path fill="none" stroke="#63b8ff" d="M83.4,-220.9C101.22,-210.74 125.49,-197.76 148,-188.62 152.91,-186.63 158.03,-184.72 163.23,-182.91"/>
<polygon fill="#63b8ff" stroke="#63b8ff" points="164.13,-186.3 172.51,-179.81 161.92,-179.66 164.13,-186.3"/>
</a>
</g>
</g>
<!-- Node13 -->
<g id="Node000013" class="node">
<title>Node13</title>
<g id="a_Node000013"><a xlink:href="class_big_data_stat_meth_1_1hdf5_dataset.html#af606176d84a63561b65702b6fde3a583" target="_top" xlink:title="Write block of data with optional transposition.">
<polygon fill="white" stroke="#666666" points="309.12,-116.88 158.88,-116.88 158.88,-86.38 309.12,-86.38 309.12,-116.88"/>
<text xml:space="preserve" text-anchor="start" x="166.88" y="-103.38" font-family="Helvetica,sans-Serif" font-size="10.00">BigDataStatMeth::hdf5Dataset</text>
<text xml:space="preserve" text-anchor="middle" x="234" y="-92.12" font-family="Helvetica,sans-Serif" font-size="10.00">::writeDatasetBlock</text>
</a>
</g>
</g>
<!-- Node1&#45;&gt;Node13 -->
<g id="edge14_Node000001_Node000013" class="edge">
<title>Node1&#45;&gt;Node13</title>
<g id="a_edge14_Node000001_Node000013"><a xlink:title=" ">
<path fill="none" stroke="#63b8ff" d="M68.41,-221.03C84.3,-200.21 114.9,-163.2 148,-139.62 157.48,-132.87 168.35,-126.92 179.08,-121.84"/>
<polygon fill="#63b8ff" stroke="#63b8ff" points="180.21,-125.16 187.89,-117.86 177.34,-118.78 180.21,-125.16"/>
</a>
</g>
</g>
<!-- Node5 -->
<g id="Node000005" class="node">
<title>Node5</title>
<g id="a_Node000005"><a xlink:href="class_big_data_stat_meth_1_1hdf5_file.html#abfb73b5f1eb25ee00489485c8dc56a2a" target="_top" xlink:title="Close file and cleanup resources.">
<polygon fill="white" stroke="#666666" points="507.38,-375.88 375.88,-375.88 375.88,-345.38 507.38,-345.38 507.38,-375.88"/>
<text xml:space="preserve" text-anchor="start" x="383.88" y="-362.38" font-family="Helvetica,sans-Serif" font-size="10.00">BigDataStatMeth::hdf5File</text>
<text xml:space="preserve" text-anchor="middle" x="441.62" y="-351.12" font-family="Helvetica,sans-Serif" font-size="10.00">::close_file</text>
</a>
</g>
</g>
<!-- Node4&#45;&gt;Node5 -->
<g id="edge4_Node000004_Node000005" class="edge">
<title>Node4&#45;&gt;Node5</title>
<g id="a_edge4_Node000004_Node000005"><a xlink:title=" ">
<path fill="none" stroke="#63b8ff" d="M304.84,-277.33C310.16,-279.72 315.29,-282.46 320,-285.62 341.56,-300.09 334.85,-316.57 356,-331.62 360.43,-334.78 365.24,-337.61 370.23,-340.16"/>
<polygon fill="#63b8ff" stroke="#63b8ff" points="368.76,-343.33 379.3,-344.34 371.69,-336.97 368.76,-343.33"/>
</a>
</g>
</g>
<!-- Node6 -->
<g id="Node000006" class="node">
<title>Node6</title>
<g id="a_Node000006"><a xlink:href="namespace_big_data_stat_meth.html#a89d901ab4b5e01771f4e3fc7dc84e50e" target="_top" xlink:title="Checks if an HDF5 element (group or dataset) exists.">
<polygon fill="white" stroke="#666666" points="700,-310.88 576.75,-310.88 576.75,-280.38 700,-280.38 700,-310.88"/>
<text xml:space="preserve" text-anchor="start" x="584.75" y="-297.38" font-family="Helvetica,sans-Serif" font-size="10.00">BigDataStatMeth::exists</text>
<text xml:space="preserve" text-anchor="middle" x="638.38" y="-286.12" font-family="Helvetica,sans-Serif" font-size="10.00">_HDF5_element</text>
</a>
</g>
</g>
<!-- Node4&#45;&gt;Node6 -->
<g id="edge5_Node000004_Node000006" class="edge">
<title>Node4&#45;&gt;Node6</title>
<g id="a_edge5_Node000004_Node000006"><a xlink:title=" ">
<path fill="none" stroke="#63b8ff" d="M292.78,-277.34C301.92,-280 311.24,-282.81 320,-285.62 336.2,-290.83 339.24,-295.69 356,-298.62 430.97,-311.75 451.15,-299.66 527.25,-298.62 539.48,-298.46 552.46,-298.19 565.07,-297.88"/>
<polygon fill="#63b8ff" stroke="#63b8ff" points="565.09,-301.38 574.99,-297.62 564.91,-294.38 565.09,-301.38"/>
</a>
</g>
</g>
<!-- Node8 -->
<g id="Node000008" class="node">
<title>Node8</title>
<g id="a_Node000008"><a xlink:href="class_big_data_stat_meth_1_1hdf5_dataset.html#a1ebc27e1f730bc4e611b844dbbb08e34" target="_top" xlink:title="Get an attribute from the dataset.">
<polygon fill="white" stroke="#666666" points="516.75,-289.88 366.5,-289.88 366.5,-259.38 516.75,-259.38 516.75,-289.88"/>
<text xml:space="preserve" text-anchor="start" x="374.5" y="-276.38" font-family="Helvetica,sans-Serif" font-size="10.00">BigDataStatMeth::hdf5Dataset</text>
<text xml:space="preserve" text-anchor="middle" x="441.62" y="-265.12" font-family="Helvetica,sans-Serif" font-size="10.00">::getAttribute</text>
</a>
</g>
</g>
<!-- Node4&#45;&gt;Node8 -->
<g id="edge7_Node000004_Node000008" class="edge">
<title>Node4&#45;&gt;Node8</title>
<g id="a_edge7_Node000004_Node000008"><a xlink:title=" ">
<path fill="none" stroke="#63b8ff" d="M309.53,-266.34C324.18,-267.26 339.67,-268.24 354.66,-269.19"/>
<polygon fill="#63b8ff" stroke="#63b8ff" points="354.3,-272.67 364.5,-269.81 354.74,-265.69 354.3,-272.67"/>
</a>
</g>
</g>
<!-- Node10 -->
<g id="Node000010" class="node">
<title>Node10</title>
<g id="a_Node000010"><a xlink:href="class_big_data_stat_meth_1_1hdf5_dataset.html#a945dd1d6f3db102a962d239045792f61" target="_top" xlink:title="Get dimensions of existing dataset.">
<polygon fill="white" stroke="#666666" points="516.75,-240.88 366.5,-240.88 366.5,-210.38 516.75,-210.38 516.75,-240.88"/>
<text xml:space="preserve" text-anchor="start" x="374.5" y="-227.38" font-family="Helvetica,sans-Serif" font-size="10.00">BigDataStatMeth::hdf5Dataset</text>
<text xml:space="preserve" text-anchor="middle" x="441.62" y="-216.12" font-family="Helvetica,sans-Serif" font-size="10.00">::getDimensExistingDataset</text>
</a>
</g>
</g>
<!-- Node4&#45;&gt;Node10 -->
<g id="edge10_Node000004_Node000010" class="edge">
<title>Node4&#45;&gt;Node10</title>
<g id="a_edge10_Node000004_Node000010"><a xlink:title=" ">
<path fill="none" stroke="#63b8ff" d="M309.53,-248.58C324.32,-245.99 339.97,-243.25 355.1,-240.6"/>
<polygon fill="#63b8ff" stroke="#63b8ff" points="355.27,-244.12 364.52,-238.95 354.06,-237.23 355.27,-244.12"/>
</a>
</g>
</g>
<!-- Node7 -->
<g id="Node000007" class="node">
<title>Node7</title>
<g id="a_Node000007"><a xlink:href="namespace_big_data_stat_meth.html#abcaa4216cd52f03ebac42e4855ef846b" target="_top" xlink:title="Checks if a path exists in an HDF5 file.">
<polygon fill="white" stroke="#666666" points="893,-305.25 749.5,-305.25 749.5,-286 893,-286 893,-305.25"/>
<text xml:space="preserve" text-anchor="middle" x="821.25" y="-291.75" font-family="Helvetica,sans-Serif" font-size="10.00">BigDataStatMeth::pathExists</text>
</a>
</g>
</g>
<!-- Node6&#45;&gt;Node7 -->
<g id="edge6_Node000006_Node000007" class="edge">
<title>Node6&#45;&gt;Node7</title>
<g id="a_edge6_Node000006_Node000007"><a xlink:title=" ">
<path fill="none" stroke="#63b8ff" d="M700.36,-295.62C712.37,-295.62 725.16,-295.62 737.75,-295.62"/>
<polygon fill="#63b8ff" stroke="#63b8ff" points="737.71,-299.13 747.71,-295.63 737.71,-292.13 737.71,-299.13"/>
</a>
</g>
</g>
<!-- Node8&#45;&gt;Node6 -->
<g id="edge9_Node000008_Node000006" class="edge">
<title>Node8&#45;&gt;Node6</title>
<g id="a_edge9_Node000008_Node000006"><a xlink:title=" ">
<path fill="none" stroke="#63b8ff" d="M517.09,-282.65C532.9,-284.36 549.57,-286.16 565.29,-287.85"/>
<polygon fill="#63b8ff" stroke="#63b8ff" points="564.72,-291.31 575.04,-288.9 565.47,-284.35 564.72,-291.31"/>
</a>
</g>
</g>
<!-- Node9 -->
<g id="Node000009" class="node">
<title>Node9</title>
<g id="a_Node000009"><a xlink:href="class_big_data_stat_meth_1_1hdf5_dataset.html#aba39e56a580d3b1fa7f1619fc72efa3e" target="_top" xlink:title="Close dataset and file.">
<polygon fill="white" stroke="#666666" points="713.5,-197.88 563.25,-197.88 563.25,-167.38 713.5,-167.38 713.5,-197.88"/>
<text xml:space="preserve" text-anchor="start" x="571.25" y="-184.38" font-family="Helvetica,sans-Serif" font-size="10.00">BigDataStatMeth::hdf5Dataset</text>
<text xml:space="preserve" text-anchor="middle" x="638.38" y="-173.12" font-family="Helvetica,sans-Serif" font-size="10.00">::close_dataset_file</text>
</a>
</g>
</g>
<!-- Node8&#45;&gt;Node9 -->
<g id="edge8_Node000008_Node000009" class="edge">
<title>Node8&#45;&gt;Node9</title>
<g id="a_edge8_Node000008_Node000009"><a xlink:title=" ">
<path fill="none" stroke="#63b8ff" d="M502.96,-258.9C511.25,-256.14 519.55,-253.04 527.25,-249.62 555.29,-237.21 584.86,-218.89 606.29,-204.54"/>
<polygon fill="#63b8ff" stroke="#63b8ff" points="607.97,-207.63 614.28,-199.12 604.04,-201.84 607.97,-207.63"/>
</a>
</g>
</g>
<!-- Node11&#45;&gt;Node9 -->
<g id="edge12_Node000011_Node000009" class="edge">
<title>Node11&#45;&gt;Node9</title>
<g id="a_edge12_Node000011_Node000009"><a xlink:title=" ">
<path fill="none" stroke="#63b8ff" d="M309.53,-205.58C324.89,-204.2 340.97,-202.82 356,-201.62 421.64,-196.43 495.97,-191.45 551.74,-187.89"/>
<polygon fill="#63b8ff" stroke="#63b8ff" points="551.72,-191.4 561.48,-187.27 551.28,-184.41 551.72,-191.4"/>
</a>
</g>
</g>
<!-- Node13&#45;&gt;Node9 -->
<g id="edge16_Node000013_Node000009" class="edge">
<title>Node13&#45;&gt;Node9</title>
<g id="a_edge16_Node000013_Node000009"><a xlink:title=" ">
<path fill="none" stroke="#63b8ff" d="M309.27,-116.58C377.96,-130.4 480,-150.94 552.01,-165.44"/>
<polygon fill="#63b8ff" stroke="#63b8ff" points="550.88,-168.78 561.37,-167.33 552.26,-161.92 550.88,-168.78"/>
</a>
</g>
</g>
<!-- Node14 -->
<g id="Node000014" class="node">
<title>Node14</title>
<g id="a_Node000014"><a xlink:href="class_big_data_stat_meth_1_1hdf5_dataset.html#a64177ae924792ea9e557febaa95ed400" target="_top" xlink:title="Close the dataset.">
<polygon fill="white" stroke="#666666" points="516.75,-116.88 366.5,-116.88 366.5,-86.38 516.75,-86.38 516.75,-116.88"/>
<text xml:space="preserve" text-anchor="start" x="374.5" y="-103.38" font-family="Helvetica,sans-Serif" font-size="10.00">BigDataStatMeth::hdf5Dataset</text>
<text xml:space="preserve" text-anchor="middle" x="441.62" y="-92.12" font-family="Helvetica,sans-Serif" font-size="10.00">::close_dataset</text>
</a>
</g>
</g>
<!-- Node13&#45;&gt;Node14 -->
<g id="edge15_Node000013_Node000014" class="edge">
<title>Node13&#45;&gt;Node14</title>
<g id="a_edge15_Node000013_Node000014"><a xlink:title=" ">
<path fill="none" stroke="#63b8ff" d="M309.53,-101.62C324.18,-101.62 339.67,-101.62 354.66,-101.62"/>
<polygon fill="#63b8ff" stroke="#63b8ff" points="354.49,-105.13 364.49,-101.63 354.49,-98.13 354.49,-105.13"/>
</a>
</g>
</g>
<!-- Node15 -->
<g id="Node000015" class="node">
<title>Node15</title>
<g id="a_Node000015"><a xlink:href="class_big_data_stat_meth_1_1hdf5_dataset.html#a94d81b72e92cb0230b4e64f37ea7d2e3" target="_top" xlink:title="Convert DataFrame to range list.">
<polygon fill="white" stroke="#666666" points="527.25,-67.88 356,-67.88 356,-37.38 527.25,-37.38 527.25,-67.88"/>
<text xml:space="preserve" text-anchor="start" x="364" y="-54.38" font-family="Helvetica,sans-Serif" font-size="10.00">BigDataStatMeth::hdf5Dataset</text>
<text xml:space="preserve" text-anchor="middle" x="441.62" y="-43.12" font-family="Helvetica,sans-Serif" font-size="10.00">::convert_DataFrame_to_RangeList</text>
</a>
</g>
</g>
<!-- Node13&#45;&gt;Node15 -->
<g id="edge17_Node000013_Node000015" class="edge">
<title>Node13&#45;&gt;Node15</title>
<g id="a_edge17_Node000013_Node000015"><a xlink:title=" ">
<path fill="none" stroke="#63b8ff" d="M300.91,-85.92C320.92,-81.15 343.09,-75.87 363.76,-70.94"/>
<polygon fill="#63b8ff" stroke="#63b8ff" points="364.35,-74.4 373.26,-68.68 362.72,-67.59 364.35,-74.4"/>
</a>
</g>
</g>
<!-- Node16 -->
<g id="Node000016" class="node">
<title>Node16</title>
<g id="a_Node000016"><a xlink:href="namespace_big_data_stat_meth.html#a2692707b3ea4aaafa09d07afaf632437" target="_top" xlink:title="Transposes a 2D matrix.">
<polygon fill="white" stroke="#666666" points="511.5,-19.25 371.75,-19.25 371.75,0 511.5,0 511.5,-19.25"/>
<text xml:space="preserve" text-anchor="middle" x="441.62" y="-5.75" font-family="Helvetica,sans-Serif" font-size="10.00">BigDataStatMeth::transpose</text>
</a>
</g>
</g>
<!-- Node13&#45;&gt;Node16 -->
<g id="edge18_Node000013_Node000016" class="edge">
<title>Node13&#45;&gt;Node16</title>
<g id="a_edge18_Node000013_Node000016"><a xlink:title=" ">
<path fill="none" stroke="#63b8ff" d="M256.18,-85.93C279.51,-69.36 318.66,-43.62 356,-28.62 361.5,-26.42 367.31,-24.44 373.21,-22.67"/>
<polygon fill="#63b8ff" stroke="#63b8ff" points="373.7,-26.16 382.4,-20.12 371.83,-19.42 373.7,-26.16"/>
</a>
</g>
</g>
</g>
</svg>

<g id="navigator" transform="translate(0 0)" fill="#404254">
  <rect fill="#f2f5e9" fill-opacity="0.5" stroke="#606060" stroke-width=".5" x="0" y="0" width="60" height="60"/>
  <use id="zoomplus" xlink:href="#zoomPlus" x="17" y="9" onmousedown="handleZoom(evt,'in')"/>
  <use id="zoomminus" xlink:href="#zoomMin" x="42" y="9" onmousedown="handleZoom(evt,'out')"/>
  <use id="reset" xlink:href="#resetDef" x="30" y="36" onmousedown="handleReset()"/>
   <use id="arrowup" xlink:href="#arrowUp" x="0" y="0" onmousedown="handlePan(0,-1)"/>
  <use id="arrowright" xlink:href="#arrowRight" x="0" y="0" onmousedown="handlePan(1,0)"/>
  <use id="arrowdown" xlink:href="#arrowDown" x="0" y="0" onmousedown="handlePan(0,1)"/>
  <use id="arrowleft" xlink:href="#arrowLeft" x="0" y="0" onmousedown="handlePan(-1,0)"/>
</g>
<svg viewBox="0 0 15 15" width="100%" height="30px" preserveAspectRatio="xMaxYMin meet">
 <g id="arrow_out" transform="scale(0.3 0.3)">
  <a xlink:href="namespace_big_data_stat_meth_ae730a6baa61d8dc91a12fbde0d8835a8_cgraph_org.svg" target="_base">
   <rect id="button" ry="5" rx="5" y="6" x="6" height="38" width="38"
        fill="#f2f5e9" fill-opacity="0.5" stroke="#606060" stroke-width="1.0"/>
   <path id="arrow"
     d="M 11.500037,31.436501 C 11.940474,20.09759 22.043105,11.32322 32.158766,21.979434 L 37.068811,17.246167 C 37.068811,17.246167 37.088388,32 37.088388,32 L 22.160133,31.978069 C 22.160133,31.978069 26.997745,27.140456 26.997745,27.140456 C 18.528582,18.264221 13.291696,25.230495 11.500037,31.436501 z"
     style="fill:#404040;"/>
  </a>
 </g>
</svg>

<style type='text/css'>
<![CDATA[
[data-mouse-over-selected='false'] { opacity: 0.7; }
[data-mouse-over-selected='true']  { opacity: 1.0; }
]]>
</style>
<script type="application/ecmascript"><![CDATA[
document.addEventListener('DOMContentLoaded', (event) => {
  highlightEdges();
  highlightAdjacentNodes();
});
]]></script>
</svg>
