<?xml version="1.0" encoding="UTF-8" standalone="no"?>
<!DOCTYPE svg PUBLIC "-//W3C//DTD SVG 1.1//EN"
 "http://www.w3.org/Graphics/SVG/1.1/DTD/svg11.dtd">
<!-- Generated by graphviz version 14.0.0 (20250921.2048)
 -->
<!-- Title: BigDataStatMeth::Inverse_Matrix_Cholesky_outofcore_hdf5 Pages: 1 -->
<!--zoomable 607 -->

<svg id="main" version="1.1" xmlns="http://www.w3.org/2000/svg" xmlns:xlink="http://www.w3.org/1999/xlink" xml:space="preserve" onload="init(evt)">

<style type="text/css"><![CDATA[
.node, .edge {opacity: 0.7;}
.node.selected, .edge.selected {opacity: 1;}
.edge:hover path { stroke: red; }
.edge:hover polygon { stroke: red; fill: red; }
]]></style>

<defs>
  <circle id="rim" cx="0" cy="0" r="7"/>
  <circle id="rim2" cx="0" cy="0" r="3.5"/>
  <g id="zoomPlus">
    <use xlink:href="#rim" fill="#404040"><set attributeName="fill" to="#808080" begin="zoomplus.mouseover" end="zoomplus.mouseout"/></use>
    <path d="M-4,0h8M0,-4v8" fill="none" stroke="white" stroke-width="1.5" pointer-events="none"/>
  </g>
  <g id="zoomMin">
    <use xlink:href="#rim" fill="#404040"><set attributeName="fill" to="#808080" begin="zoomminus.mouseover" end="zoomminus.mouseout"/></use>
    <path d="M-4,0h8" fill="none" stroke="white" stroke-width="1.5" pointer-events="none"/>
  </g>
  <g id="arrowUp" transform="translate(30 24)">
    <use xlink:href="#rim"/>
    <path pointer-events="none" fill="none" stroke="white" stroke-width="1.5" d="M0,-3.0v7 M-2.5,-0.5L0,-3.0L2.5,-0.5"/>
  </g>
  <g id="arrowRight" transform="rotate(90) translate(36 -43)">
    <use xlink:href="#rim"/>
    <path pointer-events="none" fill="none" stroke="white" stroke-width="1.5" d="M0,-3.0v7 M-2.5,-0.5L0,-3.0L2.5,-0.5"/>
  </g>
  <g id="arrowDown" transform="rotate(180) translate(-30 -48)">
    <use xlink:href="#rim"/>
    <path pointer-events="none" fill="none" stroke="white" stroke-width="1.5" d="M0,-3.0v7 M-2.5,-0.5L0,-3.0L2.5,-0.5"/>
  </g>
  <g id="arrowLeft" transform="rotate(270) translate(-36 17)">
    <use xlink:href="#rim"/>
    <path pointer-events="none" fill="none" stroke="white" stroke-width="1.5" d="M0,-3.0v7 M-2.5,-0.5L0,-3.0L2.5,-0.5"/>
  </g>
  <g id="resetDef">
    <use xlink:href="#rim2" fill="#404040"><set attributeName="fill" to="#808080" begin="reset.mouseover" end="reset.mouseout"/></use>
  </g>
</defs>
<script type="application/ecmascript">
var viewWidth = 752;
var viewHeight = 607;
var sectionId = 'dynsection-88';
</script>
<script type="application/ecmascript" xlink:href="../../../../assets/svg.min.js"/>
<svg id="graph" class="graph">
<g id="viewport">
<title>BigDataStatMeth::Inverse_Matrix_Cholesky_outofcore_hdf5</title>
<!-- Node1 -->
<g id="Node000001" class="node">
<title>Node1</title>
<g id="a_Node000001"><a xlink:title="Out&#45;of&#45;core computation of A^&#45;1 = L^&#45;T L^&#45;1 using tiles.">
<polygon fill="#999999" stroke="#666666" points="164.5,-304.5 0,-304.5 0,-274 164.5,-274 164.5,-304.5"/>
<text xml:space="preserve" text-anchor="start" x="8" y="-291" font-family="Helvetica,sans-Serif" font-size="10.00">BigDataStatMeth::Inverse</text>
<text xml:space="preserve" text-anchor="middle" x="82.25" y="-279.75" font-family="Helvetica,sans-Serif" font-size="10.00">_Matrix_Cholesky_outofcore_hdf5</text>
</a>
</g>
</g>
<!-- Node2 -->
<g id="Node000002" class="node">
<title>Node2</title>
<g id="a_Node000002"><a xlink:href="class_big_data_stat_meth_1_1hdf5_dataset_internal.html#a4e1b20deb54e3e313a02d75f092ed7f8" target="_top" xlink:title="Create a new internal dataset with optional compression.">
<polygon fill="white" stroke="#666666" points="350.75,-549.5 200.5,-549.5 200.5,-519 350.75,-519 350.75,-549.5"/>
<text xml:space="preserve" text-anchor="start" x="208.5" y="-536" font-family="Helvetica,sans-Serif" font-size="10.00">BigDataStatMeth::hdf5Dataset</text>
<text xml:space="preserve" text-anchor="middle" x="275.62" y="-524.75" font-family="Helvetica,sans-Serif" font-size="10.00">Internal::createDataset</text>
</a>
</g>
</g>
<!-- Node1&#45;&gt;Node2 -->
<g id="edge1_Node000001_Node000002" class="edge">
<title>Node1&#45;&gt;Node2</title>
<g id="a_edge1_Node000001_Node000002"><a xlink:title=" ">
<path fill="none" stroke="#63b8ff" d="M87.22,-304.84C98.18,-344.79 132.66,-451.73 200.5,-509.25 201.96,-510.49 203.48,-511.67 205.06,-512.78"/>
<polygon fill="#63b8ff" stroke="#63b8ff" points="202.93,-515.58 213.29,-517.8 206.57,-509.61 202.93,-515.58"/>
</a>
</g>
</g>
<!-- Node12 -->
<g id="Node000012" class="node">
<title>Node12</title>
<g id="a_Node000012"><a xlink:href="class_big_data_stat_meth_1_1hdf5_dataset.html#af3ab7117b94164ab629673cacd896dd9" target="_top" xlink:title="Get the current compression level for this dataset instance.">
<polygon fill="white" stroke="#666666" points="350.75,-500.5 200.5,-500.5 200.5,-470 350.75,-470 350.75,-500.5"/>
<text xml:space="preserve" text-anchor="start" x="208.5" y="-487" font-family="Helvetica,sans-Serif" font-size="10.00">BigDataStatMeth::hdf5Dataset</text>
<text xml:space="preserve" text-anchor="middle" x="275.62" y="-475.75" font-family="Helvetica,sans-Serif" font-size="10.00">::getCompressionLevel</text>
</a>
</g>
</g>
<!-- Node1&#45;&gt;Node12 -->
<g id="edge12_Node000001_Node000012" class="edge">
<title>Node1&#45;&gt;Node12</title>
<g id="a_edge12_Node000001_Node000012"><a xlink:title=" ">
<path fill="none" stroke="#63b8ff" d="M89.82,-304.98C104.6,-338.48 143.65,-417.26 200.5,-460.25 202.29,-461.6 204.15,-462.88 206.08,-464.1"/>
<polygon fill="#63b8ff" stroke="#63b8ff" points="204.35,-467.14 214.8,-468.9 207.72,-461.01 204.35,-467.14"/>
</a>
</g>
</g>
<!-- Node13 -->
<g id="Node000013" class="node">
<title>Node13</title>
<g id="a_Node000013"><a xlink:href="class_big_data_stat_meth_1_1hdf5_dataset.html#ac979eba40078c7c5974b64b2ce6347a3" target="_top" xlink:title="Get dataset name.">
<polygon fill="white" stroke="#666666" points="350.75,-451.5 200.5,-451.5 200.5,-421 350.75,-421 350.75,-451.5"/>
<text xml:space="preserve" text-anchor="start" x="208.5" y="-438" font-family="Helvetica,sans-Serif" font-size="10.00">BigDataStatMeth::hdf5Dataset</text>
<text xml:space="preserve" text-anchor="middle" x="275.62" y="-426.75" font-family="Helvetica,sans-Serif" font-size="10.00">::getDatasetName</text>
</a>
</g>
</g>
<!-- Node1&#45;&gt;Node13 -->
<g id="edge13_Node000001_Node000013" class="edge">
<title>Node1&#45;&gt;Node13</title>
<g id="a_edge13_Node000001_Node000013"><a xlink:title=" ">
<path fill="none" stroke="#63b8ff" d="M94.1,-304.65C112.93,-330.29 154.11,-381.82 200.5,-411.25 203.05,-412.87 205.71,-414.39 208.45,-415.82"/>
<polygon fill="#63b8ff" stroke="#63b8ff" points="206.73,-418.88 217.26,-419.99 209.72,-412.55 206.73,-418.88"/>
</a>
</g>
</g>
<!-- Node14 -->
<g id="Node000014" class="node">
<title>Node14</title>
<g id="a_Node000014"><a xlink:href="class_big_data_stat_meth_1_1hdf5_file.html#a2d2bd792aa9c01e459312e6727cde8af" target="_top" xlink:title="Get full file path.">
<polygon fill="white" stroke="#666666" points="341.38,-402.5 209.88,-402.5 209.88,-372 341.38,-372 341.38,-402.5"/>
<text xml:space="preserve" text-anchor="start" x="217.88" y="-389" font-family="Helvetica,sans-Serif" font-size="10.00">BigDataStatMeth::hdf5File</text>
<text xml:space="preserve" text-anchor="middle" x="275.62" y="-377.75" font-family="Helvetica,sans-Serif" font-size="10.00">::getFullPath</text>
</a>
</g>
</g>
<!-- Node1&#45;&gt;Node14 -->
<g id="edge14_Node000001_Node000014" class="edge">
<title>Node1&#45;&gt;Node14</title>
<g id="a_edge14_Node000001_Node000014"><a xlink:title=" ">
<path fill="none" stroke="#63b8ff" d="M104.86,-304.84C127.75,-320.84 165.37,-345.67 200.5,-362.25 204.28,-364.04 208.23,-365.76 212.25,-367.4"/>
<polygon fill="#63b8ff" stroke="#63b8ff" points="210.97,-370.66 221.56,-371.01 213.5,-364.13 210.97,-370.66"/>
</a>
</g>
</g>
<!-- Node15 -->
<g id="Node000015" class="node">
<title>Node15</title>
<g id="a_Node000015"><a xlink:href="class_big_data_stat_meth_1_1hdf5_dataset.html#af4869e54b1d4c01ab4caacf1939e1907" target="_top" xlink:title="Get group name.">
<polygon fill="white" stroke="#666666" points="350.75,-304.5 200.5,-304.5 200.5,-274 350.75,-274 350.75,-304.5"/>
<text xml:space="preserve" text-anchor="start" x="208.5" y="-291" font-family="Helvetica,sans-Serif" font-size="10.00">BigDataStatMeth::hdf5Dataset</text>
<text xml:space="preserve" text-anchor="middle" x="275.62" y="-279.75" font-family="Helvetica,sans-Serif" font-size="10.00">::getGroup</text>
</a>
</g>
</g>
<!-- Node1&#45;&gt;Node15 -->
<g id="edge15_Node000001_Node000015" class="edge">
<title>Node1&#45;&gt;Node15</title>
<g id="a_edge15_Node000001_Node000015"><a xlink:title=" ">
<path fill="none" stroke="#63b8ff" d="M164.97,-289.25C172.81,-289.25 180.79,-289.25 188.68,-289.25"/>
<polygon fill="#63b8ff" stroke="#63b8ff" points="188.64,-292.75 198.64,-289.25 188.64,-285.75 188.64,-292.75"/>
</a>
</g>
</g>
<!-- Node16 -->
<g id="Node000016" class="node">
<title>Node16</title>
<g id="a_Node000016"><a xlink:href="class_big_data_stat_meth_1_1hdf5_dataset.html#a23bea87165b8ef6b944709c5b2cbd0cf" target="_top" xlink:title=" ">
<polygon fill="white" stroke="#666666" points="350.75,-255.5 200.5,-255.5 200.5,-225 350.75,-225 350.75,-255.5"/>
<text xml:space="preserve" text-anchor="start" x="208.5" y="-242" font-family="Helvetica,sans-Serif" font-size="10.00">BigDataStatMeth::hdf5Dataset</text>
<text xml:space="preserve" text-anchor="middle" x="275.62" y="-230.75" font-family="Helvetica,sans-Serif" font-size="10.00">::readDatasetBlock</text>
</a>
</g>
</g>
<!-- Node1&#45;&gt;Node16 -->
<g id="edge17_Node000001_Node000016" class="edge">
<title>Node1&#45;&gt;Node16</title>
<g id="a_edge17_Node000001_Node000016"><a xlink:title=" ">
<path fill="none" stroke="#63b8ff" d="M144.59,-273.54C162.96,-268.84 183.28,-263.64 202.29,-258.77"/>
<polygon fill="#63b8ff" stroke="#63b8ff" points="203.02,-262.2 211.84,-256.33 201.28,-255.42 203.02,-262.2"/>
</a>
</g>
</g>
<!-- Node18 -->
<g id="Node000018" class="node">
<title>Node18</title>
<g id="a_Node000018"><a xlink:href="class_big_data_stat_meth_1_1hdf5_dataset_internal.html#ad96e4a35e00a9f908436172d63a125d8" target="_top" xlink:title="Read a block of data from internal dataset.">
<polygon fill="white" stroke="#666666" points="350.75,-30.5 200.5,-30.5 200.5,0 350.75,0 350.75,-30.5"/>
<text xml:space="preserve" text-anchor="start" x="208.5" y="-17" font-family="Helvetica,sans-Serif" font-size="10.00">BigDataStatMeth::hdf5Dataset</text>
<text xml:space="preserve" text-anchor="middle" x="275.62" y="-5.75" font-family="Helvetica,sans-Serif" font-size="10.00">Internal::readDatasetBlock</text>
</a>
</g>
</g>
<!-- Node1&#45;&gt;Node18 -->
<g id="edge19_Node000001_Node000018" class="edge">
<title>Node1&#45;&gt;Node18</title>
<g id="a_edge19_Node000001_Node000018"><a xlink:title=" ">
<path fill="none" stroke="#63b8ff" d="M88.73,-273.68C102.71,-235.54 142.73,-135.73 200.5,-69.25 211.07,-57.09 224.87,-46.1 237.69,-37.26"/>
<polygon fill="#63b8ff" stroke="#63b8ff" points="239.57,-40.22 245.97,-31.78 235.7,-34.38 239.57,-40.22"/>
</a>
</g>
</g>
<!-- Node19 -->
<g id="Node000019" class="node">
<title>Node19</title>
<g id="a_Node000019"><a xlink:href="class_big_data_stat_meth_1_1hdf5_dataset.html#a248d5e9f269b92ef906ab3f78b3e42d8" target="_top" xlink:title="Remove the dataset.">
<polygon fill="white" stroke="#666666" points="350.75,-353.5 200.5,-353.5 200.5,-323 350.75,-323 350.75,-353.5"/>
<text xml:space="preserve" text-anchor="start" x="208.5" y="-340" font-family="Helvetica,sans-Serif" font-size="10.00">BigDataStatMeth::hdf5Dataset</text>
<text xml:space="preserve" text-anchor="middle" x="275.62" y="-328.75" font-family="Helvetica,sans-Serif" font-size="10.00">::remove</text>
</a>
</g>
</g>
<!-- Node1&#45;&gt;Node19 -->
<g id="edge21_Node000001_Node000019" class="edge">
<title>Node1&#45;&gt;Node19</title>
<g id="a_edge21_Node000001_Node000019"><a xlink:title=" ">
<path fill="none" stroke="#63b8ff" d="M144.59,-304.96C162.96,-309.66 183.28,-314.86 202.29,-319.73"/>
<polygon fill="#63b8ff" stroke="#63b8ff" points="201.28,-323.08 211.84,-322.17 203.02,-316.3 201.28,-323.08"/>
</a>
</g>
</g>
<!-- Node20 -->
<g id="Node000020" class="node">
<title>Node20</title>
<g id="a_Node000020"><a xlink:href="class_big_data_stat_meth_1_1hdf5_dataset.html#a9b74902d79f983c5ac359b9e72199c01" target="_top" xlink:title="Set the compression level for this dataset instance.">
<polygon fill="white" stroke="#666666" points="350.75,-157.5 200.5,-157.5 200.5,-127 350.75,-127 350.75,-157.5"/>
<text xml:space="preserve" text-anchor="start" x="208.5" y="-144" font-family="Helvetica,sans-Serif" font-size="10.00">BigDataStatMeth::hdf5Dataset</text>
<text xml:space="preserve" text-anchor="middle" x="275.62" y="-132.75" font-family="Helvetica,sans-Serif" font-size="10.00">::setCompressionLevel</text>
</a>
</g>
</g>
<!-- Node1&#45;&gt;Node20 -->
<g id="edge24_Node000001_Node000020" class="edge">
<title>Node1&#45;&gt;Node20</title>
<g id="a_edge24_Node000001_Node000020"><a xlink:title=" ">
<path fill="none" stroke="#63b8ff" d="M94.1,-273.85C112.93,-248.21 154.11,-196.68 200.5,-167.25 203.05,-165.63 205.71,-164.11 208.45,-162.68"/>
<polygon fill="#63b8ff" stroke="#63b8ff" points="209.72,-165.95 217.26,-158.51 206.73,-159.62 209.72,-165.95"/>
</a>
</g>
</g>
<!-- Node21 -->
<g id="Node000021" class="node">
<title>Node21</title>
<g id="a_Node000021"><a xlink:href="class_big_data_stat_meth_1_1hdf5_dataset.html#af606176d84a63561b65702b6fde3a583" target="_top" xlink:title="Write block of data with optional transposition.">
<polygon fill="white" stroke="#666666" points="350.75,-206.5 200.5,-206.5 200.5,-176 350.75,-176 350.75,-206.5"/>
<text xml:space="preserve" text-anchor="start" x="208.5" y="-193" font-family="Helvetica,sans-Serif" font-size="10.00">BigDataStatMeth::hdf5Dataset</text>
<text xml:space="preserve" text-anchor="middle" x="275.62" y="-181.75" font-family="Helvetica,sans-Serif" font-size="10.00">::writeDatasetBlock</text>
</a>
</g>
</g>
<!-- Node1&#45;&gt;Node21 -->
<g id="edge25_Node000001_Node000021" class="edge">
<title>Node1&#45;&gt;Node21</title>
<g id="a_edge25_Node000001_Node000021"><a xlink:title=" ">
<path fill="none" stroke="#63b8ff" d="M104.86,-273.66C127.75,-257.66 165.37,-232.83 200.5,-216.25 204.28,-214.46 208.23,-212.74 212.25,-211.1"/>
<polygon fill="#63b8ff" stroke="#63b8ff" points="213.5,-214.37 221.56,-207.49 210.97,-207.84 213.5,-214.37"/>
</a>
</g>
</g>
<!-- Node25 -->
<g id="Node000025" class="node">
<title>Node25</title>
<g id="a_Node000025"><a xlink:href="class_big_data_stat_meth_1_1hdf5_dataset_internal.html#a4f988a5f93c2870e87c14d84f00e441c" target="_top" xlink:title="Write block of data to internal dataset.">
<polygon fill="white" stroke="#666666" points="350.75,-108.5 200.5,-108.5 200.5,-78 350.75,-78 350.75,-108.5"/>
<text xml:space="preserve" text-anchor="start" x="208.5" y="-95" font-family="Helvetica,sans-Serif" font-size="10.00">BigDataStatMeth::hdf5Dataset</text>
<text xml:space="preserve" text-anchor="middle" x="275.62" y="-83.75" font-family="Helvetica,sans-Serif" font-size="10.00">Internal::writeDatasetBlock</text>
</a>
</g>
</g>
<!-- Node1&#45;&gt;Node25 -->
<g id="edge30_Node000001_Node000025" class="edge">
<title>Node1&#45;&gt;Node25</title>
<g id="a_edge30_Node000001_Node000025"><a xlink:title=" ">
<path fill="none" stroke="#63b8ff" d="M89.82,-273.52C104.6,-240.02 143.65,-161.24 200.5,-118.25 202.29,-116.9 204.15,-115.62 206.08,-114.4"/>
<polygon fill="#63b8ff" stroke="#63b8ff" points="207.72,-117.49 214.8,-109.6 204.35,-111.36 207.72,-117.49"/>
</a>
</g>
</g>
<!-- Node3 -->
<g id="Node000003" class="node">
<title>Node3</title>
<g id="a_Node000003"><a xlink:href="class_big_data_stat_meth_1_1hdf5_dataset.html#ac7a7f23b7e22c9b56ca6ad86592f2d52" target="_top" xlink:title="Add an attribute to the dataset.">
<polygon fill="white" stroke="#666666" points="547.5,-500.5 397.25,-500.5 397.25,-470 547.5,-470 547.5,-500.5"/>
<text xml:space="preserve" text-anchor="start" x="405.25" y="-487" font-family="Helvetica,sans-Serif" font-size="10.00">BigDataStatMeth::hdf5Dataset</text>
<text xml:space="preserve" text-anchor="middle" x="472.38" y="-475.75" font-family="Helvetica,sans-Serif" font-size="10.00">::addAttribute</text>
</a>
</g>
</g>
<!-- Node2&#45;&gt;Node3 -->
<g id="edge2_Node000002_Node000003" class="edge">
<title>Node2&#45;&gt;Node3</title>
<g id="a_edge2_Node000002_Node000003"><a xlink:title=" ">
<path fill="none" stroke="#63b8ff" d="M339.05,-518.54C357.83,-513.82 378.61,-508.59 398.03,-503.7"/>
<polygon fill="#63b8ff" stroke="#63b8ff" points="398.66,-507.15 407.5,-501.32 396.95,-500.37 398.66,-507.15"/>
</a>
</g>
</g>
<!-- Node4 -->
<g id="Node000004" class="node">
<title>Node4</title>
<g id="a_Node000004"><a xlink:href="class_big_data_stat_meth_1_1hdf5_group.html#a27cef4d33e46c72bfd792aa49fa621a3" target="_top" xlink:title="Create multiple nested groups.">
<polygon fill="white" stroke="#666666" points="543.38,-598.5 401.38,-598.5 401.38,-568 543.38,-568 543.38,-598.5"/>
<text xml:space="preserve" text-anchor="start" x="409.38" y="-585" font-family="Helvetica,sans-Serif" font-size="10.00">BigDataStatMeth::hdf5Group</text>
<text xml:space="preserve" text-anchor="middle" x="472.38" y="-573.75" font-family="Helvetica,sans-Serif" font-size="10.00">::create_HDF5_groups</text>
</a>
</g>
</g>
<!-- Node2&#45;&gt;Node4 -->
<g id="edge3_Node000002_Node000004" class="edge">
<title>Node2&#45;&gt;Node4</title>
<g id="a_edge3_Node000002_Node000004"><a xlink:title=" ">
<path fill="none" stroke="#63b8ff" d="M339.05,-549.96C357.83,-554.68 378.61,-559.91 398.03,-564.8"/>
<polygon fill="#63b8ff" stroke="#63b8ff" points="396.95,-568.13 407.5,-567.18 398.66,-561.35 396.95,-568.13"/>
</a>
</g>
</g>
<!-- Node6 -->
<g id="Node000006" class="node">
<title>Node6</title>
<g id="a_Node000006"><a xlink:href="namespace_big_data_stat_meth.html#a89d901ab4b5e01771f4e3fc7dc84e50e" target="_top" xlink:title="Checks if an HDF5 element (group or dataset) exists.">
<polygon fill="white" stroke="#666666" points="534,-549.5 410.75,-549.5 410.75,-519 534,-519 534,-549.5"/>
<text xml:space="preserve" text-anchor="start" x="418.75" y="-536" font-family="Helvetica,sans-Serif" font-size="10.00">BigDataStatMeth::exists</text>
<text xml:space="preserve" text-anchor="middle" x="472.38" y="-524.75" font-family="Helvetica,sans-Serif" font-size="10.00">_HDF5_element</text>
</a>
</g>
</g>
<!-- Node2&#45;&gt;Node6 -->
<g id="edge5_Node000002_Node000006" class="edge">
<title>Node2&#45;&gt;Node6</title>
<g id="a_edge5_Node000002_Node000006"><a xlink:title=" ">
<path fill="none" stroke="#63b8ff" d="M351.09,-534.25C366.9,-534.25 383.57,-534.25 399.29,-534.25"/>
<polygon fill="#63b8ff" stroke="#63b8ff" points="399.03,-537.75 409.03,-534.25 399.03,-530.75 399.03,-537.75"/>
</a>
</g>
</g>
<!-- Node7 -->
<g id="Node000007" class="node">
<title>Node7</title>
<g id="a_Node000007"><a xlink:href="class_big_data_stat_meth_1_1hdf5_group.html#a59995412538627e6c80f64b552c286f5" target="_top" xlink:title=" ">
<polygon fill="white" stroke="#666666" points="543.38,-353.5 401.38,-353.5 401.38,-323 543.38,-323 543.38,-353.5"/>
<text xml:space="preserve" text-anchor="start" x="409.38" y="-340" font-family="Helvetica,sans-Serif" font-size="10.00">BigDataStatMeth::hdf5Group</text>
<text xml:space="preserve" text-anchor="middle" x="472.38" y="-328.75" font-family="Helvetica,sans-Serif" font-size="10.00">::getGroupName</text>
</a>
</g>
</g>
<!-- Node2&#45;&gt;Node7 -->
<g id="edge7_Node000002_Node000007" class="edge">
<title>Node2&#45;&gt;Node7</title>
<g id="a_edge7_Node000002_Node000007"><a xlink:title=" ">
<path fill="none" stroke="#63b8ff" d="M339.43,-518.57C343.6,-515.93 347.44,-512.85 350.75,-509.25 395.99,-460.06 340.58,-411.57 386.75,-363.25 388.3,-361.63 389.94,-360.11 391.68,-358.69"/>
<polygon fill="#63b8ff" stroke="#63b8ff" points="393.4,-361.75 399.69,-353.23 389.46,-355.97 393.4,-361.75"/>
</a>
</g>
</g>
<!-- Node8 -->
<g id="Node000008" class="node">
<title>Node8</title>
<g id="a_Node000008"><a xlink:href="namespace_big_data_stat_meth.html#a3d06783149029f1df2853c472d401380" target="_top" xlink:title="Removes multiple elements from an HDF5 file.">
<polygon fill="white" stroke="#666666" points="537,-402.5 407.75,-402.5 407.75,-372 537,-372 537,-402.5"/>
<text xml:space="preserve" text-anchor="start" x="415.75" y="-389" font-family="Helvetica,sans-Serif" font-size="10.00">BigDataStatMeth::remove</text>
<text xml:space="preserve" text-anchor="middle" x="472.38" y="-377.75" font-family="Helvetica,sans-Serif" font-size="10.00">_elements</text>
</a>
</g>
</g>
<!-- Node2&#45;&gt;Node8 -->
<g id="edge8_Node000002_Node000008" class="edge">
<title>Node2&#45;&gt;Node8</title>
<g id="a_edge8_Node000002_Node000008"><a xlink:title=" ">
<path fill="none" stroke="#63b8ff" d="M338.28,-518.56C342.81,-515.92 347.05,-512.84 350.75,-509.25 383.75,-477.23 353.15,-443.64 386.75,-412.25 389.99,-409.22 393.59,-406.55 397.41,-404.21"/>
<polygon fill="#63b8ff" stroke="#63b8ff" points="398.75,-407.46 405.98,-399.73 395.5,-401.26 398.75,-407.46"/>
</a>
</g>
</g>
<!-- Node9 -->
<g id="Node000009" class="node">
<title>Node9</title>
<g id="a_Node000009"><a xlink:href="class_big_data_stat_meth_1_1hdf5_dataset_internal.html#a349b08ecc0bed2df5283e56fb9e9d178" target="_top" xlink:title="Write data to the internal dataset.">
<polygon fill="white" stroke="#666666" points="547.5,-451.5 397.25,-451.5 397.25,-421 547.5,-421 547.5,-451.5"/>
<text xml:space="preserve" text-anchor="start" x="405.25" y="-438" font-family="Helvetica,sans-Serif" font-size="10.00">BigDataStatMeth::hdf5Dataset</text>
<text xml:space="preserve" text-anchor="middle" x="472.38" y="-426.75" font-family="Helvetica,sans-Serif" font-size="10.00">Internal::writeDataset</text>
</a>
</g>
</g>
<!-- Node2&#45;&gt;Node9 -->
<g id="edge9_Node000002_Node000009" class="edge">
<title>Node2&#45;&gt;Node9</title>
<g id="a_edge9_Node000002_Node000009"><a xlink:title=" ">
<path fill="none" stroke="#63b8ff" d="M334.59,-518.6C340.3,-515.93 345.8,-512.83 350.75,-509.25 372.36,-493.62 364.85,-476.47 386.75,-461.25 388.85,-459.79 391.03,-458.42 393.27,-457.13"/>
<polygon fill="#63b8ff" stroke="#63b8ff" points="394.8,-460.28 402.13,-452.63 391.63,-454.04 394.8,-460.28"/>
</a>
</g>
</g>
<!-- Node5 -->
<g id="Node000005" class="node">
<title>Node5</title>
<g id="a_Node000005"><a xlink:href="namespace_big_data_stat_meth.html#abcaa4216cd52f03ebac42e4855ef846b" target="_top" xlink:title="Checks if a path exists in an HDF5 file.">
<polygon fill="white" stroke="#666666" points="740.88,-567.88 597.38,-567.88 597.38,-548.62 740.88,-548.62 740.88,-567.88"/>
<text xml:space="preserve" text-anchor="middle" x="669.12" y="-554.38" font-family="Helvetica,sans-Serif" font-size="10.00">BigDataStatMeth::pathExists</text>
</a>
</g>
</g>
<!-- Node4&#45;&gt;Node5 -->
<g id="edge4_Node000004_Node000005" class="edge">
<title>Node4&#45;&gt;Node5</title>
<g id="a_edge4_Node000004_Node000005"><a xlink:title=" ">
<path fill="none" stroke="#63b8ff" d="M543.68,-574.22C557.35,-572.47 571.8,-570.62 585.81,-568.82"/>
<polygon fill="#63b8ff" stroke="#63b8ff" points="585.96,-572.33 595.44,-567.58 585.07,-565.38 585.96,-572.33"/>
</a>
</g>
</g>
<!-- Node6&#45;&gt;Node5 -->
<g id="edge6_Node000006_Node000005" class="edge">
<title>Node6&#45;&gt;Node5</title>
<g id="a_edge6_Node000006_Node000005"><a xlink:title=" ">
<path fill="none" stroke="#63b8ff" d="M534.46,-541.78C550.75,-543.79 568.62,-545.99 585.84,-548.11"/>
<polygon fill="#63b8ff" stroke="#63b8ff" points="585.19,-551.56 595.54,-549.31 586.04,-544.61 585.19,-551.56"/>
</a>
</g>
</g>
<!-- Node10 -->
<g id="Node000010" class="node">
<title>Node10</title>
<g id="a_Node000010"><a xlink:href="class_big_data_stat_meth_1_1hdf5_dataset_internal.html#a91d48a0c7186c87eb0af78f426ce6a4d" target="_top" xlink:title="Close dataset and file.">
<polygon fill="white" stroke="#666666" points="744.25,-39.5 594,-39.5 594,-9 744.25,-9 744.25,-39.5"/>
<text xml:space="preserve" text-anchor="start" x="602" y="-26" font-family="Helvetica,sans-Serif" font-size="10.00">BigDataStatMeth::hdf5Dataset</text>
<text xml:space="preserve" text-anchor="middle" x="669.12" y="-14.75" font-family="Helvetica,sans-Serif" font-size="10.00">Internal::close_dataset_file</text>
</a>
</g>
</g>
<!-- Node9&#45;&gt;Node10 -->
<g id="edge10_Node000009_Node000010" class="edge">
<title>Node9&#45;&gt;Node10</title>
<g id="a_edge10_Node000009_Node000010"><a xlink:title=" ">
<path fill="none" stroke="#63b8ff" d="M546.71,-420.58C550.85,-417.93 554.67,-414.85 558,-411.25 609.9,-355.24 573.73,-316.87 594,-243.25 613.44,-172.65 642.81,-91.47 658.09,-50.63"/>
<polygon fill="#63b8ff" stroke="#63b8ff" points="661.32,-52 661.56,-41.41 654.76,-49.54 661.32,-52"/>
</a>
</g>
</g>
<!-- Node11 -->
<g id="Node000011" class="node">
<title>Node11</title>
<g id="a_Node000011"><a xlink:href="class_big_data_stat_meth_1_1hdf5_dataset_internal.html#a152c59a2a409e1883e3834a26170ed59" target="_top" xlink:title="Convert DataFrame to range list.">
<polygon fill="white" stroke="#666666" points="744.25,-294.12 594,-294.12 594,-252.38 744.25,-252.38 744.25,-294.12"/>
<text xml:space="preserve" text-anchor="start" x="602" y="-280.62" font-family="Helvetica,sans-Serif" font-size="10.00">BigDataStatMeth::hdf5Dataset</text>
<text xml:space="preserve" text-anchor="start" x="602" y="-269.38" font-family="Helvetica,sans-Serif" font-size="10.00">Internal::convert_DataFrame</text>
<text xml:space="preserve" text-anchor="middle" x="669.12" y="-258.12" font-family="Helvetica,sans-Serif" font-size="10.00">_to_RangeList</text>
</a>
</g>
</g>
<!-- Node9&#45;&gt;Node11 -->
<g id="edge11_Node000009_Node000011" class="edge">
<title>Node9&#45;&gt;Node11</title>
<g id="a_edge11_Node000009_Node000011"><a xlink:title=" ">
<path fill="none" stroke="#63b8ff" d="M540.72,-420.58C546.8,-417.93 552.66,-414.84 558,-411.25 599.31,-383.46 632.53,-335.38 651.3,-303.95"/>
<polygon fill="#63b8ff" stroke="#63b8ff" points="654.1,-306.08 656.11,-295.68 648.05,-302.56 654.1,-306.08"/>
</a>
</g>
</g>
<!-- Node15&#45;&gt;Node7 -->
<g id="edge16_Node000015_Node000007" class="edge">
<title>Node15&#45;&gt;Node7</title>
<g id="a_edge16_Node000015_Node000007"><a xlink:title=" ">
<path fill="none" stroke="#63b8ff" d="M339.05,-304.96C357.83,-309.68 378.61,-314.91 398.03,-319.8"/>
<polygon fill="#63b8ff" stroke="#63b8ff" points="396.95,-323.13 407.5,-322.18 398.66,-316.35 396.95,-323.13"/>
</a>
</g>
</g>
<!-- Node17 -->
<g id="Node000017" class="node">
<title>Node17</title>
<g id="a_Node000017"><a xlink:href="class_big_data_stat_meth_1_1hdf5_dataset.html#aba39e56a580d3b1fa7f1619fc72efa3e" target="_top" xlink:title="Close dataset and file.">
<polygon fill="white" stroke="#666666" points="547.5,-304.5 397.25,-304.5 397.25,-274 547.5,-274 547.5,-304.5"/>
<text xml:space="preserve" text-anchor="start" x="405.25" y="-291" font-family="Helvetica,sans-Serif" font-size="10.00">BigDataStatMeth::hdf5Dataset</text>
<text xml:space="preserve" text-anchor="middle" x="472.38" y="-279.75" font-family="Helvetica,sans-Serif" font-size="10.00">::close_dataset_file</text>
</a>
</g>
</g>
<!-- Node16&#45;&gt;Node17 -->
<g id="edge18_Node000016_Node000017" class="edge">
<title>Node16&#45;&gt;Node17</title>
<g id="a_edge18_Node000016_Node000017"><a xlink:title=" ">
<path fill="none" stroke="#63b8ff" d="M339.05,-255.96C357.83,-260.68 378.61,-265.91 398.03,-270.8"/>
<polygon fill="#63b8ff" stroke="#63b8ff" points="396.95,-274.13 407.5,-273.18 398.66,-267.35 396.95,-274.13"/>
</a>
</g>
</g>
<!-- Node18&#45;&gt;Node10 -->
<g id="edge20_Node000018_Node000010" class="edge">
<title>Node18&#45;&gt;Node10</title>
<g id="a_edge20_Node000018_Node000010"><a xlink:title=" ">
<path fill="none" stroke="#63b8ff" d="M351.05,-10.65C407.81,-7.94 487.91,-5.81 558,-10.25 565.93,-10.75 574.17,-11.46 582.41,-12.28"/>
<polygon fill="#63b8ff" stroke="#63b8ff" points="581.79,-15.74 592.1,-13.32 582.53,-8.78 581.79,-15.74"/>
</a>
</g>
</g>
<!-- Node19&#45;&gt;Node7 -->
<g id="edge22_Node000019_Node000007" class="edge">
<title>Node19&#45;&gt;Node7</title>
<g id="a_edge22_Node000019_Node000007"><a xlink:title=" ">
<path fill="none" stroke="#63b8ff" d="M351.09,-338.25C363.79,-338.25 377.05,-338.25 389.93,-338.25"/>
<polygon fill="#63b8ff" stroke="#63b8ff" points="389.61,-341.75 399.61,-338.25 389.61,-334.75 389.61,-341.75"/>
</a>
</g>
</g>
<!-- Node19&#45;&gt;Node8 -->
<g id="edge23_Node000019_Node000008" class="edge">
<title>Node19&#45;&gt;Node8</title>
<g id="a_edge23_Node000019_Node000008"><a xlink:title=" ">
<path fill="none" stroke="#63b8ff" d="M339.05,-353.96C357.83,-358.68 378.61,-363.91 398.03,-368.8"/>
<polygon fill="#63b8ff" stroke="#63b8ff" points="396.95,-372.13 407.5,-371.18 398.66,-365.35 396.95,-372.13"/>
</a>
</g>
</g>
<!-- Node21&#45;&gt;Node17 -->
<g id="edge27_Node000021_Node000017" class="edge">
<title>Node21&#45;&gt;Node17</title>
<g id="a_edge27_Node000021_Node000017"><a xlink:title=" ">
<path fill="none" stroke="#63b8ff" d="M334.59,-206.9C340.3,-209.57 345.8,-212.67 350.75,-216.25 372.36,-231.88 364.85,-249.03 386.75,-264.25 388.85,-265.71 391.03,-267.08 393.27,-268.37"/>
<polygon fill="#63b8ff" stroke="#63b8ff" points="391.63,-271.46 402.13,-272.87 394.8,-265.22 391.63,-271.46"/>
</a>
</g>
</g>
<!-- Node22 -->
<g id="Node000022" class="node">
<title>Node22</title>
<g id="a_Node000022"><a xlink:href="class_big_data_stat_meth_1_1hdf5_dataset.html#a64177ae924792ea9e557febaa95ed400" target="_top" xlink:title="Close the dataset.">
<polygon fill="white" stroke="#666666" points="547.5,-255.5 397.25,-255.5 397.25,-225 547.5,-225 547.5,-255.5"/>
<text xml:space="preserve" text-anchor="start" x="405.25" y="-242" font-family="Helvetica,sans-Serif" font-size="10.00">BigDataStatMeth::hdf5Dataset</text>
<text xml:space="preserve" text-anchor="middle" x="472.38" y="-230.75" font-family="Helvetica,sans-Serif" font-size="10.00">::close_dataset</text>
</a>
</g>
</g>
<!-- Node21&#45;&gt;Node22 -->
<g id="edge26_Node000021_Node000022" class="edge">
<title>Node21&#45;&gt;Node22</title>
<g id="a_edge26_Node000021_Node000022"><a xlink:title=" ">
<path fill="none" stroke="#63b8ff" d="M339.05,-206.96C357.83,-211.68 378.61,-216.91 398.03,-221.8"/>
<polygon fill="#63b8ff" stroke="#63b8ff" points="396.95,-225.13 407.5,-224.18 398.66,-218.35 396.95,-225.13"/>
</a>
</g>
</g>
<!-- Node23 -->
<g id="Node000023" class="node">
<title>Node23</title>
<g id="a_Node000023"><a xlink:href="class_big_data_stat_meth_1_1hdf5_dataset.html#a94d81b72e92cb0230b4e64f37ea7d2e3" target="_top" xlink:title="Convert DataFrame to range list.">
<polygon fill="white" stroke="#666666" points="558,-206.5 386.75,-206.5 386.75,-176 558,-176 558,-206.5"/>
<text xml:space="preserve" text-anchor="start" x="394.75" y="-193" font-family="Helvetica,sans-Serif" font-size="10.00">BigDataStatMeth::hdf5Dataset</text>
<text xml:space="preserve" text-anchor="middle" x="472.38" y="-181.75" font-family="Helvetica,sans-Serif" font-size="10.00">::convert_DataFrame_to_RangeList</text>
</a>
</g>
</g>
<!-- Node21&#45;&gt;Node23 -->
<g id="edge28_Node000021_Node000023" class="edge">
<title>Node21&#45;&gt;Node23</title>
<g id="a_edge28_Node000021_Node000023"><a xlink:title=" ">
<path fill="none" stroke="#63b8ff" d="M351.09,-191.25C358.97,-191.25 367.06,-191.25 375.15,-191.25"/>
<polygon fill="#63b8ff" stroke="#63b8ff" points="375.03,-194.75 385.03,-191.25 375.03,-187.75 375.03,-194.75"/>
</a>
</g>
</g>
<!-- Node24 -->
<g id="Node000024" class="node">
<title>Node24</title>
<g id="a_Node000024"><a xlink:href="namespace_big_data_stat_meth.html#a2692707b3ea4aaafa09d07afaf632437" target="_top" xlink:title="Transposes a 2D matrix.">
<polygon fill="white" stroke="#666666" points="542.25,-157.88 402.5,-157.88 402.5,-138.62 542.25,-138.62 542.25,-157.88"/>
<text xml:space="preserve" text-anchor="middle" x="472.38" y="-144.38" font-family="Helvetica,sans-Serif" font-size="10.00">BigDataStatMeth::transpose</text>
</a>
</g>
</g>
<!-- Node21&#45;&gt;Node24 -->
<g id="edge29_Node000021_Node000024" class="edge">
<title>Node21&#45;&gt;Node24</title>
<g id="a_edge29_Node000021_Node000024"><a xlink:title=" ">
<path fill="none" stroke="#63b8ff" d="M347.76,-175.54C369.67,-170.71 393.5,-165.44 414.33,-160.84"/>
<polygon fill="#63b8ff" stroke="#63b8ff" points="415.08,-164.26 424.09,-158.69 413.57,-157.43 415.08,-164.26"/>
</a>
</g>
</g>
<!-- Node25&#45;&gt;Node10 -->
<g id="edge32_Node000025_Node000010" class="edge">
<title>Node25&#45;&gt;Node10</title>
<g id="a_edge32_Node000025_Node000010"><a xlink:title=" ">
<path fill="none" stroke="#63b8ff" d="M303.68,-77.64C325.38,-65.95 357.02,-50.74 386.75,-43.25 450.93,-27.08 525.79,-22.69 582.16,-22.15"/>
<polygon fill="#63b8ff" stroke="#63b8ff" points="582.04,-25.65 592.02,-22.09 582,-18.65 582.04,-25.65"/>
</a>
</g>
</g>
<!-- Node25&#45;&gt;Node11 -->
<g id="edge33_Node000025_Node000011" class="edge">
<title>Node25&#45;&gt;Node11</title>
<g id="a_edge33_Node000025_Node000011"><a xlink:title=" ">
<path fill="none" stroke="#63b8ff" d="M350.92,-96.33C422.17,-100.41 523.81,-109.55 558,-129.25 603.35,-155.37 636.25,-208.32 653.74,-242.22"/>
<polygon fill="#63b8ff" stroke="#63b8ff" points="650.39,-243.35 657.99,-250.73 656.65,-240.22 650.39,-243.35"/>
</a>
</g>
</g>
<!-- Node25&#45;&gt;Node24 -->
<g id="edge34_Node000025_Node000024" class="edge">
<title>Node25&#45;&gt;Node24</title>
<g id="a_edge34_Node000025_Node000024"><a xlink:title=" ">
<path fill="none" stroke="#63b8ff" d="M332.17,-108.94C361.42,-117.2 396.89,-127.21 424.7,-135.07"/>
<polygon fill="#63b8ff" stroke="#63b8ff" points="423.69,-138.42 434.27,-137.77 425.59,-131.68 423.69,-138.42"/>
</a>
</g>
</g>
<!-- Node26 -->
<g id="Node000026" class="node">
<title>Node26</title>
<g id="a_Node000026"><a xlink:href="class_big_data_stat_meth_1_1hdf5_dataset_internal.html#a0453f8502bee6dd35be2ec196e9edc55" target="_top" xlink:title="Close the dataset.">
<polygon fill="white" stroke="#666666" points="547.5,-82.5 397.25,-82.5 397.25,-52 547.5,-52 547.5,-82.5"/>
<text xml:space="preserve" text-anchor="start" x="405.25" y="-69" font-family="Helvetica,sans-Serif" font-size="10.00">BigDataStatMeth::hdf5Dataset</text>
<text xml:space="preserve" text-anchor="middle" x="472.38" y="-57.75" font-family="Helvetica,sans-Serif" font-size="10.00">Internal::close_dataset</text>
</a>
</g>
</g>
<!-- Node25&#45;&gt;Node26 -->
<g id="edge31_Node000025_Node000026" class="edge">
<title>Node25&#45;&gt;Node26</title>
<g id="a_edge31_Node000025_Node000026"><a xlink:title=" ">
<path fill="none" stroke="#63b8ff" d="M351.09,-83.31C362.36,-81.8 374.07,-80.24 385.56,-78.71"/>
<polygon fill="#63b8ff" stroke="#63b8ff" points="386.01,-82.18 395.46,-77.39 385.08,-75.24 386.01,-82.18"/>
</a>
</g>
</g>
</g>
</svg>

<g id="navigator" transform="translate(0 0)" fill="#404254">
  <rect fill="#f2f5e9" fill-opacity="0.5" stroke="#606060" stroke-width=".5" x="0" y="0" width="60" height="60"/>
  <use id="zoomplus" xlink:href="#zoomPlus" x="17" y="9" onmousedown="handleZoom(evt,'in')"/>
  <use id="zoomminus" xlink:href="#zoomMin" x="42" y="9" onmousedown="handleZoom(evt,'out')"/>
  <use id="reset" xlink:href="#resetDef" x="30" y="36" onmousedown="handleReset()"/>
   <use id="arrowup" xlink:href="#arrowUp" x="0" y="0" onmousedown="handlePan(0,-1)"/>
  <use id="arrowright" xlink:href="#arrowRight" x="0" y="0" onmousedown="handlePan(1,0)"/>
  <use id="arrowdown" xlink:href="#arrowDown" x="0" y="0" onmousedown="handlePan(0,1)"/>
  <use id="arrowleft" xlink:href="#arrowLeft" x="0" y="0" onmousedown="handlePan(-1,0)"/>
</g>
<svg viewBox="0 0 15 15" width="100%" height="30px" preserveAspectRatio="xMaxYMin meet">
 <g id="arrow_out" transform="scale(0.3 0.3)">
  <a xlink:href="namespace_big_data_stat_meth_a6cf11002c5ce11473daebd0aefb52444_cgraph_org.svg" target="_base">
   <rect id="button" ry="5" rx="5" y="6" x="6" height="38" width="38"
        fill="#f2f5e9" fill-opacity="0.5" stroke="#606060" stroke-width="1.0"/>
   <path id="arrow"
     d="M 11.500037,31.436501 C 11.940474,20.09759 22.043105,11.32322 32.158766,21.979434 L 37.068811,17.246167 C 37.068811,17.246167 37.088388,32 37.088388,32 L 22.160133,31.978069 C 22.160133,31.978069 26.997745,27.140456 26.997745,27.140456 C 18.528582,18.264221 13.291696,25.230495 11.500037,31.436501 z"
     style="fill:#404040;"/>
  </a>
 </g>
</svg>

<style type='text/css'>
<![CDATA[
[data-mouse-over-selected='false'] { opacity: 0.7; }
[data-mouse-over-selected='true']  { opacity: 1.0; }
]]>
</style>
<script type="application/ecmascript"><![CDATA[
document.addEventListener('DOMContentLoaded', (event) => {
  highlightEdges();
  highlightAdjacentNodes();
});
]]></script>
</svg>
