<?xml version="1.0" encoding="UTF-8" standalone="no"?>
<!DOCTYPE svg PUBLIC "-//W3C//DTD SVG 1.1//EN"
 "http://www.w3.org/Graphics/SVG/1.1/DTD/svg11.dtd">
<!-- Generated by graphviz version 14.0.0 (20250921.2048)
 -->
<!-- Title: BigDataStatMeth::RcppbdCorr_hdf5_Block_single Pages: 1 -->
<!--zoomable 580 -->

<svg id="main" version="1.1" xmlns="http://www.w3.org/2000/svg" xmlns:xlink="http://www.w3.org/1999/xlink" xml:space="preserve" onload="init(evt)">

<style type="text/css"><![CDATA[
.node, .edge {opacity: 0.7;}
.node.selected, .edge.selected {opacity: 1;}
.edge:hover path { stroke: red; }
.edge:hover polygon { stroke: red; fill: red; }
]]></style>

<defs>
  <circle id="rim" cx="0" cy="0" r="7"/>
  <circle id="rim2" cx="0" cy="0" r="3.5"/>
  <g id="zoomPlus">
    <use xlink:href="#rim" fill="#404040"><set attributeName="fill" to="#808080" begin="zoomplus.mouseover" end="zoomplus.mouseout"/></use>
    <path d="M-4,0h8M0,-4v8" fill="none" stroke="white" stroke-width="1.5" pointer-events="none"/>
  </g>
  <g id="zoomMin">
    <use xlink:href="#rim" fill="#404040"><set attributeName="fill" to="#808080" begin="zoomminus.mouseover" end="zoomminus.mouseout"/></use>
    <path d="M-4,0h8" fill="none" stroke="white" stroke-width="1.5" pointer-events="none"/>
  </g>
  <g id="arrowUp" transform="translate(30 24)">
    <use xlink:href="#rim"/>
    <path pointer-events="none" fill="none" stroke="white" stroke-width="1.5" d="M0,-3.0v7 M-2.5,-0.5L0,-3.0L2.5,-0.5"/>
  </g>
  <g id="arrowRight" transform="rotate(90) translate(36 -43)">
    <use xlink:href="#rim"/>
    <path pointer-events="none" fill="none" stroke="white" stroke-width="1.5" d="M0,-3.0v7 M-2.5,-0.5L0,-3.0L2.5,-0.5"/>
  </g>
  <g id="arrowDown" transform="rotate(180) translate(-30 -48)">
    <use xlink:href="#rim"/>
    <path pointer-events="none" fill="none" stroke="white" stroke-width="1.5" d="M0,-3.0v7 M-2.5,-0.5L0,-3.0L2.5,-0.5"/>
  </g>
  <g id="arrowLeft" transform="rotate(270) translate(-36 17)">
    <use xlink:href="#rim"/>
    <path pointer-events="none" fill="none" stroke="white" stroke-width="1.5" d="M0,-3.0v7 M-2.5,-0.5L0,-3.0L2.5,-0.5"/>
  </g>
  <g id="resetDef">
    <use xlink:href="#rim2" fill="#404040"><set attributeName="fill" to="#808080" begin="reset.mouseover" end="reset.mouseout"/></use>
  </g>
</defs>
<script type="application/ecmascript">
var viewWidth = 831;
var viewHeight = 580;
var sectionId = 'dynsection-152';
</script>
<script type="application/ecmascript" xlink:href="../../../../assets/svg.min.js"/>
<svg id="graph" class="graph">
<g id="viewport">
<title>BigDataStatMeth::RcppbdCorr_hdf5_Block_single</title>
<!-- Node1 -->
<g id="Node000001" class="node">
<title>Node1</title>
<g id="a_Node000001"><a xlink:title=" ">
<polygon fill="#999999" stroke="#666666" points="149.5,-352.88 0,-352.88 0,-322.38 149.5,-322.38 149.5,-352.88"/>
<text xml:space="preserve" text-anchor="start" x="8" y="-339.38" font-family="Helvetica,sans-Serif" font-size="10.00">BigDataStatMeth::RcppbdCorr</text>
<text xml:space="preserve" text-anchor="middle" x="74.75" y="-328.12" font-family="Helvetica,sans-Serif" font-size="10.00">_hdf5_Block_single</text>
</a>
</g>
</g>
<!-- Node2 -->
<g id="Node000002" class="node">
<title>Node2</title>
<g id="a_Node000002"><a xlink:href="namespace_big_data_stat_meth.html#a548baec51dfdb0481a3632cc50faed4c" target="_top" xlink:title="Optimized p&#45;value computation for correlation matrices using Eigen.">
<polygon fill="white" stroke="#666666" points="514.12,-571.88 379.62,-571.88 379.62,-541.38 514.12,-541.38 514.12,-571.88"/>
<text xml:space="preserve" text-anchor="start" x="387.62" y="-558.38" font-family="Helvetica,sans-Serif" font-size="10.00">BigDataStatMeth::compute</text>
<text xml:space="preserve" text-anchor="middle" x="446.88" y="-547.12" font-family="Helvetica,sans-Serif" font-size="10.00">_pvalues_optimized</text>
</a>
</g>
</g>
<!-- Node1&#45;&gt;Node2 -->
<g id="edge1_Node000001_Node000002" class="edge">
<title>Node1&#45;&gt;Node2</title>
<g id="a_edge1_Node000001_Node000002"><a xlink:title=" ">
<path fill="none" stroke="#63b8ff" d="M79.59,-353.24C89.69,-390.63 120.77,-485.31 185.5,-527.62 239.08,-562.65 312.44,-567.93 367.64,-565.58"/>
<polygon fill="#63b8ff" stroke="#63b8ff" points="367.82,-569.08 377.62,-565.05 367.45,-562.09 367.82,-569.08"/>
</a>
</g>
</g>
<!-- Node4 -->
<g id="Node000004" class="node">
<title>Node4</title>
<g id="a_Node000004"><a xlink:href="class_big_data_stat_meth_1_1hdf5_dataset.html#a374a6cadcadfc23c1f5df858d31e20df" target="_top" xlink:title="Create a new dataset with optional compression.">
<polygon fill="white" stroke="#666666" points="335.75,-300.88 185.5,-300.88 185.5,-270.38 335.75,-270.38 335.75,-300.88"/>
<text xml:space="preserve" text-anchor="start" x="193.5" y="-287.38" font-family="Helvetica,sans-Serif" font-size="10.00">BigDataStatMeth::hdf5Dataset</text>
<text xml:space="preserve" text-anchor="middle" x="260.62" y="-276.12" font-family="Helvetica,sans-Serif" font-size="10.00">::createDataset</text>
</a>
</g>
</g>
<!-- Node1&#45;&gt;Node4 -->
<g id="edge3_Node000001_Node000004" class="edge">
<title>Node1&#45;&gt;Node4</title>
<g id="a_edge3_Node000001_Node000004"><a xlink:title=" ">
<path fill="none" stroke="#63b8ff" d="M131.42,-321.88C150.86,-316.38 172.88,-310.16 193.12,-304.43"/>
<polygon fill="#63b8ff" stroke="#63b8ff" points="194.02,-307.82 202.69,-301.73 192.12,-301.08 194.02,-307.82"/>
</a>
</g>
</g>
<!-- Node12 -->
<g id="Node000012" class="node">
<title>Node12</title>
<g id="a_Node000012"><a xlink:href="class_big_data_stat_meth_1_1hdf5_dataset.html#acf9843abcb57a0090f1635cc69d95300" target="_top" xlink:title="Write data to the dataset.">
<polygon fill="white" stroke="#666666" points="522,-104.88 371.75,-104.88 371.75,-74.38 522,-74.38 522,-104.88"/>
<text xml:space="preserve" text-anchor="start" x="379.75" y="-91.38" font-family="Helvetica,sans-Serif" font-size="10.00">BigDataStatMeth::hdf5Dataset</text>
<text xml:space="preserve" text-anchor="middle" x="446.88" y="-80.12" font-family="Helvetica,sans-Serif" font-size="10.00">::writeDataset</text>
</a>
</g>
</g>
<!-- Node1&#45;&gt;Node12 -->
<g id="edge29_Node000001_Node000012" class="edge">
<title>Node1&#45;&gt;Node12</title>
<g id="a_edge29_Node000001_Node000012"><a xlink:title=" ">
<path fill="none" stroke="#63b8ff" d="M93.92,-321.95C114.73,-304.78 150.48,-277.55 185.5,-261.62 248.2,-233.12 285.34,-270.56 335.75,-223.62 373.09,-188.86 335.79,-150.81 371.75,-114.62 372.77,-113.6 373.84,-112.61 374.95,-111.66"/>
<polygon fill="#63b8ff" stroke="#63b8ff" points="376.72,-114.69 382.84,-106.05 372.67,-108.99 376.72,-114.69"/>
</a>
</g>
</g>
<!-- Node15 -->
<g id="Node000015" class="node">
<title>Node15</title>
<g id="a_Node000015"><a xlink:href="openme-utils_8hpp.html#a172daf6d039501f511eff563e5de2ae7" target="_top" xlink:title=" ">
<polygon fill="white" stroke="#666666" points="312.88,-214.25 208.38,-214.25 208.38,-195 312.88,-195 312.88,-214.25"/>
<text xml:space="preserve" text-anchor="middle" x="260.62" y="-200.75" font-family="Helvetica,sans-Serif" font-size="10.00">get_number_threads</text>
</a>
</g>
</g>
<!-- Node1&#45;&gt;Node15 -->
<g id="edge15_Node000001_Node000015" class="edge">
<title>Node1&#45;&gt;Node15</title>
<g id="a_edge15_Node000001_Node000015"><a xlink:title=" ">
<path fill="none" stroke="#63b8ff" d="M87.5,-321.95C105.9,-298.43 143.77,-254.07 185.5,-228.62 191.94,-224.7 199.09,-221.34 206.34,-218.5"/>
<polygon fill="#63b8ff" stroke="#63b8ff" points="207.3,-221.87 215.53,-215.2 204.94,-215.28 207.3,-221.87"/>
</a>
</g>
</g>
<!-- Node21 -->
<g id="Node000021" class="node">
<title>Node21</title>
<g id="a_Node000021"><a xlink:href="class_big_data_stat_meth_1_1hdf5_dataset.html#a8cce59e2884ad1ee3b67f281566780af" target="_top" xlink:title="Inherit the compression level from an input dataset if not already set.">
<polygon fill="white" stroke="#666666" points="335.75,-176.88 185.5,-176.88 185.5,-146.38 335.75,-146.38 335.75,-176.88"/>
<text xml:space="preserve" text-anchor="start" x="193.5" y="-163.38" font-family="Helvetica,sans-Serif" font-size="10.00">BigDataStatMeth::hdf5Dataset</text>
<text xml:space="preserve" text-anchor="middle" x="260.62" y="-152.12" font-family="Helvetica,sans-Serif" font-size="10.00">::inheritCompressionLevel</text>
</a>
</g>
</g>
<!-- Node1&#45;&gt;Node21 -->
<g id="edge21_Node000001_Node000021" class="edge">
<title>Node1&#45;&gt;Node21</title>
<g id="a_edge21_Node000001_Node000021"><a xlink:title=" ">
<path fill="none" stroke="#63b8ff" d="M82.73,-322.21C97.37,-291.62 134.19,-222.98 185.5,-185.62 186.87,-184.63 188.28,-183.67 189.72,-182.76"/>
<polygon fill="#63b8ff" stroke="#63b8ff" points="191.32,-185.88 198.38,-177.98 187.93,-179.75 191.32,-185.88"/>
</a>
</g>
</g>
<!-- Node22 -->
<g id="Node000022" class="node">
<title>Node22</title>
<g id="a_Node000022"><a xlink:href="namespace_big_data_stat_meth.html#a69e49b89327966eb689525e63dea8656" target="_top" xlink:title=" ">
<polygon fill="white" stroke="#666666" points="709.38,-490.88 577.88,-490.88 577.88,-460.38 709.38,-460.38 709.38,-490.88"/>
<text xml:space="preserve" text-anchor="start" x="585.88" y="-477.38" font-family="Helvetica,sans-Serif" font-size="10.00">BigDataStatMeth::pearson</text>
<text xml:space="preserve" text-anchor="middle" x="643.62" y="-466.12" font-family="Helvetica,sans-Serif" font-size="10.00">_correlation</text>
</a>
</g>
</g>
<!-- Node1&#45;&gt;Node22 -->
<g id="edge22_Node000001_Node000022" class="edge">
<title>Node1&#45;&gt;Node22</title>
<g id="a_edge22_Node000001_Node000022"><a xlink:title=" ">
<path fill="none" stroke="#63b8ff" d="M82.34,-352.93C96.27,-383.06 131.88,-449.4 185.5,-475.62 310.53,-536.77 478.78,-514.14 572.36,-493.82"/>
<polygon fill="#63b8ff" stroke="#63b8ff" points="572.92,-497.28 581.92,-491.69 571.39,-490.45 572.92,-497.28"/>
</a>
</g>
</g>
<!-- Node23 -->
<g id="Node000023" class="node">
<title>Node23</title>
<g id="a_Node000023"><a xlink:href="namespace_big_data_stat_meth.html#aa890111706f3d0e5cc011df4d78689f0" target="_top" xlink:title=" ">
<polygon fill="white" stroke="#666666" points="335.38,-466.88 185.88,-466.88 185.88,-436.38 335.38,-436.38 335.38,-466.88"/>
<text xml:space="preserve" text-anchor="start" x="193.88" y="-453.38" font-family="Helvetica,sans-Serif" font-size="10.00">BigDataStatMeth::RcppbdCorr</text>
<text xml:space="preserve" text-anchor="middle" x="260.62" y="-442.12" font-family="Helvetica,sans-Serif" font-size="10.00">_matrix_single</text>
</a>
</g>
</g>
<!-- Node1&#45;&gt;Node23 -->
<g id="edge23_Node000001_Node000023" class="edge">
<title>Node1&#45;&gt;Node23</title>
<g id="a_edge23_Node000001_Node000023"><a xlink:title=" ">
<path fill="none" stroke="#63b8ff" d="M100.93,-353.24C133.03,-373.14 188.67,-407.64 224.81,-430.04"/>
<polygon fill="#63b8ff" stroke="#63b8ff" points="222.82,-432.93 233.17,-435.22 226.51,-426.98 222.82,-432.93"/>
</a>
</g>
</g>
<!-- Node24 -->
<g id="Node000024" class="node">
<title>Node24</title>
<g id="a_Node000024"><a xlink:href="namespace_big_data_stat_meth.html#a73e0308254294ed4603750e0595b9802" target="_top" xlink:title=" ">
<polygon fill="white" stroke="#666666" points="516.75,-447.88 377,-447.88 377,-417.38 516.75,-417.38 516.75,-447.88"/>
<text xml:space="preserve" text-anchor="start" x="385" y="-434.38" font-family="Helvetica,sans-Serif" font-size="10.00">BigDataStatMeth::spearman</text>
<text xml:space="preserve" text-anchor="middle" x="446.88" y="-423.12" font-family="Helvetica,sans-Serif" font-size="10.00">_correlation</text>
</a>
</g>
</g>
<!-- Node1&#45;&gt;Node24 -->
<g id="edge28_Node000001_Node000024" class="edge">
<title>Node1&#45;&gt;Node24</title>
<g id="a_edge28_Node000001_Node000024"><a xlink:title=" ">
<path fill="none" stroke="#63b8ff" d="M136.87,-353.31C201.96,-370.02 304.93,-396.45 373.9,-414.15"/>
<polygon fill="#63b8ff" stroke="#63b8ff" points="372.64,-417.44 383.2,-416.54 374.38,-410.66 372.64,-417.44"/>
</a>
</g>
</g>
<!-- Node3 -->
<g id="Node000003" class="node">
<title>Node3</title>
<g id="a_Node000003"><a xlink:href="namespace_big_data_stat_meth.html#a58690697a1eec1b3feefdc089d056905" target="_top" xlink:title="Compute p&#45;value for correlation coefficient using t&#45;distribution.">
<polygon fill="white" stroke="#666666" points="693.62,-571.88 593.62,-571.88 593.62,-541.38 693.62,-541.38 693.62,-571.88"/>
<text xml:space="preserve" text-anchor="start" x="601.62" y="-558.38" font-family="Helvetica,sans-Serif" font-size="10.00">BigDataStatMeth::t</text>
<text xml:space="preserve" text-anchor="middle" x="643.62" y="-547.12" font-family="Helvetica,sans-Serif" font-size="10.00">_distribution_cdf</text>
</a>
</g>
</g>
<!-- Node2&#45;&gt;Node3 -->
<g id="edge2_Node000002_Node000003" class="edge">
<title>Node2&#45;&gt;Node3</title>
<g id="a_edge2_Node000002_Node000003"><a xlink:title=" ">
<path fill="none" stroke="#63b8ff" d="M514.62,-556.62C536.46,-556.62 560.59,-556.62 581.96,-556.62"/>
<polygon fill="#63b8ff" stroke="#63b8ff" points="581.67,-560.13 591.67,-556.63 581.67,-553.13 581.67,-560.13"/>
</a>
</g>
</g>
<!-- Node5 -->
<g id="Node000005" class="node">
<title>Node5</title>
<g id="a_Node000005"><a xlink:href="class_big_data_stat_meth_1_1hdf5_dataset.html#ac7a7f23b7e22c9b56ca6ad86592f2d52" target="_top" xlink:title="Add an attribute to the dataset.">
<polygon fill="white" stroke="#666666" points="522,-398.88 371.75,-398.88 371.75,-368.38 522,-368.38 522,-398.88"/>
<text xml:space="preserve" text-anchor="start" x="379.75" y="-385.38" font-family="Helvetica,sans-Serif" font-size="10.00">BigDataStatMeth::hdf5Dataset</text>
<text xml:space="preserve" text-anchor="middle" x="446.88" y="-374.12" font-family="Helvetica,sans-Serif" font-size="10.00">::addAttribute</text>
</a>
</g>
</g>
<!-- Node4&#45;&gt;Node5 -->
<g id="edge4_Node000004_Node000005" class="edge">
<title>Node4&#45;&gt;Node5</title>
<g id="a_edge4_Node000004_Node000005"><a xlink:title=" ">
<path fill="none" stroke="#63b8ff" d="M281.77,-301.31C303.14,-317.39 338.38,-342.28 371.75,-358.62 375.44,-360.43 379.3,-362.16 383.23,-363.81"/>
<polygon fill="#63b8ff" stroke="#63b8ff" points="381.75,-366.99 392.33,-367.41 384.32,-360.48 381.75,-366.99"/>
</a>
</g>
</g>
<!-- Node6 -->
<g id="Node000006" class="node">
<title>Node6</title>
<g id="a_Node000006"><a xlink:href="class_big_data_stat_meth_1_1hdf5_file.html#abfb73b5f1eb25ee00489485c8dc56a2a" target="_top" xlink:title="Close file and cleanup resources.">
<polygon fill="white" stroke="#666666" points="512.62,-349.88 381.12,-349.88 381.12,-319.38 512.62,-319.38 512.62,-349.88"/>
<text xml:space="preserve" text-anchor="start" x="389.12" y="-336.38" font-family="Helvetica,sans-Serif" font-size="10.00">BigDataStatMeth::hdf5File</text>
<text xml:space="preserve" text-anchor="middle" x="446.88" y="-325.12" font-family="Helvetica,sans-Serif" font-size="10.00">::close_file</text>
</a>
</g>
</g>
<!-- Node4&#45;&gt;Node6 -->
<g id="edge5_Node000004_Node000006" class="edge">
<title>Node4&#45;&gt;Node6</title>
<g id="a_edge5_Node000004_Node000006"><a xlink:title=" ">
<path fill="none" stroke="#63b8ff" d="M320.68,-301.33C338.2,-305.99 357.56,-311.14 375.72,-315.97"/>
<polygon fill="#63b8ff" stroke="#63b8ff" points="374.81,-319.35 385.37,-318.53 376.61,-312.58 374.81,-319.35"/>
</a>
</g>
</g>
<!-- Node7 -->
<g id="Node000007" class="node">
<title>Node7</title>
<g id="a_Node000007"><a xlink:href="class_big_data_stat_meth_1_1hdf5_group.html#a27cef4d33e46c72bfd792aa49fa621a3" target="_top" xlink:title="Create multiple nested groups.">
<polygon fill="white" stroke="#666666" points="517.88,-300.88 375.88,-300.88 375.88,-270.38 517.88,-270.38 517.88,-300.88"/>
<text xml:space="preserve" text-anchor="start" x="383.88" y="-287.38" font-family="Helvetica,sans-Serif" font-size="10.00">BigDataStatMeth::hdf5Group</text>
<text xml:space="preserve" text-anchor="middle" x="446.88" y="-276.12" font-family="Helvetica,sans-Serif" font-size="10.00">::create_HDF5_groups</text>
</a>
</g>
</g>
<!-- Node4&#45;&gt;Node7 -->
<g id="edge6_Node000004_Node000007" class="edge">
<title>Node4&#45;&gt;Node7</title>
<g id="a_edge6_Node000004_Node000007"><a xlink:title=" ">
<path fill="none" stroke="#63b8ff" d="M336.04,-285.62C345.34,-285.62 354.89,-285.62 364.29,-285.62"/>
<polygon fill="#63b8ff" stroke="#63b8ff" points="364.15,-289.13 374.15,-285.63 364.15,-282.13 364.15,-289.13"/>
</a>
</g>
</g>
<!-- Node9 -->
<g id="Node000009" class="node">
<title>Node9</title>
<g id="a_Node000009"><a xlink:href="namespace_big_data_stat_meth.html#a89d901ab4b5e01771f4e3fc7dc84e50e" target="_top" xlink:title="Checks if an HDF5 element (group or dataset) exists.">
<polygon fill="white" stroke="#666666" points="508.5,-251.88 385.25,-251.88 385.25,-221.38 508.5,-221.38 508.5,-251.88"/>
<text xml:space="preserve" text-anchor="start" x="393.25" y="-238.38" font-family="Helvetica,sans-Serif" font-size="10.00">BigDataStatMeth::exists</text>
<text xml:space="preserve" text-anchor="middle" x="446.88" y="-227.12" font-family="Helvetica,sans-Serif" font-size="10.00">_HDF5_element</text>
</a>
</g>
</g>
<!-- Node4&#45;&gt;Node9 -->
<g id="edge8_Node000004_Node000009" class="edge">
<title>Node4&#45;&gt;Node9</title>
<g id="a_edge8_Node000004_Node000009"><a xlink:title=" ">
<path fill="none" stroke="#63b8ff" d="M320.68,-269.92C338.2,-265.26 357.56,-260.11 375.72,-255.28"/>
<polygon fill="#63b8ff" stroke="#63b8ff" points="376.61,-258.67 385.37,-252.72 374.81,-251.9 376.61,-258.67"/>
</a>
</g>
</g>
<!-- Node10 -->
<g id="Node000010" class="node">
<title>Node10</title>
<g id="a_Node000010"><a xlink:href="class_big_data_stat_meth_1_1hdf5_group.html#a59995412538627e6c80f64b552c286f5" target="_top" xlink:title=" ">
<polygon fill="white" stroke="#666666" points="517.88,-202.88 375.88,-202.88 375.88,-172.38 517.88,-172.38 517.88,-202.88"/>
<text xml:space="preserve" text-anchor="start" x="383.88" y="-189.38" font-family="Helvetica,sans-Serif" font-size="10.00">BigDataStatMeth::hdf5Group</text>
<text xml:space="preserve" text-anchor="middle" x="446.88" y="-178.12" font-family="Helvetica,sans-Serif" font-size="10.00">::getGroupName</text>
</a>
</g>
</g>
<!-- Node4&#45;&gt;Node10 -->
<g id="edge10_Node000004_Node000010" class="edge">
<title>Node4&#45;&gt;Node10</title>
<g id="a_edge10_Node000004_Node000010"><a xlink:title=" ">
<path fill="none" stroke="#63b8ff" d="M312.1,-269.94C320.39,-266.24 328.6,-261.83 335.75,-256.62 356.18,-241.76 350.97,-227 371.75,-212.62 373.84,-211.18 376.01,-209.81 378.26,-208.52"/>
<polygon fill="#63b8ff" stroke="#63b8ff" points="379.78,-211.67 387.09,-204.01 376.6,-205.44 379.78,-211.67"/>
</a>
</g>
</g>
<!-- Node11 -->
<g id="Node000011" class="node">
<title>Node11</title>
<g id="a_Node000011"><a xlink:href="namespace_big_data_stat_meth.html#a3d06783149029f1df2853c472d401380" target="_top" xlink:title="Removes multiple elements from an HDF5 file.">
<polygon fill="white" stroke="#666666" points="511.5,-153.88 382.25,-153.88 382.25,-123.38 511.5,-123.38 511.5,-153.88"/>
<text xml:space="preserve" text-anchor="start" x="390.25" y="-140.38" font-family="Helvetica,sans-Serif" font-size="10.00">BigDataStatMeth::remove</text>
<text xml:space="preserve" text-anchor="middle" x="446.88" y="-129.12" font-family="Helvetica,sans-Serif" font-size="10.00">_elements</text>
</a>
</g>
</g>
<!-- Node4&#45;&gt;Node11 -->
<g id="edge11_Node000004_Node000011" class="edge">
<title>Node4&#45;&gt;Node11</title>
<g id="a_edge11_Node000004_Node000011"><a xlink:title=" ">
<path fill="none" stroke="#63b8ff" d="M317.03,-270.02C323.9,-266.42 330.39,-262.01 335.75,-256.62 367.03,-225.23 339.73,-194.27 371.75,-163.62 372.8,-162.62 373.89,-161.66 375.02,-160.73"/>
<polygon fill="#63b8ff" stroke="#63b8ff" points="376.77,-163.78 383.03,-155.23 372.8,-158.01 376.77,-163.78"/>
</a>
</g>
</g>
<!-- Node4&#45;&gt;Node12 -->
<g id="edge12_Node000004_Node000012" class="edge">
<title>Node4&#45;&gt;Node12</title>
<g id="a_edge12_Node000004_Node000012"><a xlink:title=" ">
<path fill="none" stroke="#63b8ff" d="M318.76,-269.99C325.11,-266.41 331,-262.01 335.75,-256.62 378.83,-207.81 327.52,-162.4 371.75,-114.62 372.48,-113.84 373.23,-113.08 374,-112.34"/>
<polygon fill="#63b8ff" stroke="#63b8ff" points="376.12,-115.14 381.9,-106.26 371.84,-109.59 376.12,-115.14"/>
</a>
</g>
</g>
<!-- Node8 -->
<g id="Node000008" class="node">
<title>Node8</title>
<g id="a_Node000008"><a xlink:href="namespace_big_data_stat_meth.html#abcaa4216cd52f03ebac42e4855ef846b" target="_top" xlink:title="Checks if a path exists in an HDF5 file.">
<polygon fill="white" stroke="#666666" points="715.38,-270.25 571.88,-270.25 571.88,-251 715.38,-251 715.38,-270.25"/>
<text xml:space="preserve" text-anchor="middle" x="643.62" y="-256.75" font-family="Helvetica,sans-Serif" font-size="10.00">BigDataStatMeth::pathExists</text>
</a>
</g>
</g>
<!-- Node7&#45;&gt;Node8 -->
<g id="edge7_Node000007_Node000008" class="edge">
<title>Node7&#45;&gt;Node8</title>
<g id="a_edge7_Node000007_Node000008"><a xlink:title=" ">
<path fill="none" stroke="#63b8ff" d="M518.18,-276.6C531.85,-274.84 546.3,-272.99 560.31,-271.19"/>
<polygon fill="#63b8ff" stroke="#63b8ff" points="560.46,-274.7 569.94,-269.96 559.57,-267.76 560.46,-274.7"/>
</a>
</g>
</g>
<!-- Node9&#45;&gt;Node8 -->
<g id="edge9_Node000009_Node000008" class="edge">
<title>Node9&#45;&gt;Node8</title>
<g id="a_edge9_Node000009_Node000008"><a xlink:title=" ">
<path fill="none" stroke="#63b8ff" d="M508.96,-244.15C525.25,-246.16 543.12,-248.36 560.34,-250.48"/>
<polygon fill="#63b8ff" stroke="#63b8ff" points="559.69,-253.93 570.04,-251.68 560.54,-246.98 559.69,-253.93"/>
</a>
</g>
</g>
<!-- Node13 -->
<g id="Node000013" class="node">
<title>Node13</title>
<g id="a_Node000013"><a xlink:href="class_big_data_stat_meth_1_1hdf5_dataset.html#aba39e56a580d3b1fa7f1619fc72efa3e" target="_top" xlink:title="Close dataset and file.">
<polygon fill="white" stroke="#666666" points="718.75,-153.88 568.5,-153.88 568.5,-123.38 718.75,-123.38 718.75,-153.88"/>
<text xml:space="preserve" text-anchor="start" x="576.5" y="-140.38" font-family="Helvetica,sans-Serif" font-size="10.00">BigDataStatMeth::hdf5Dataset</text>
<text xml:space="preserve" text-anchor="middle" x="643.62" y="-129.12" font-family="Helvetica,sans-Serif" font-size="10.00">::close_dataset_file</text>
</a>
</g>
</g>
<!-- Node12&#45;&gt;Node13 -->
<g id="edge13_Node000012_Node000013" class="edge">
<title>Node12&#45;&gt;Node13</title>
<g id="a_edge13_Node000012_Node000013"><a xlink:title=" ">
<path fill="none" stroke="#63b8ff" d="M510.3,-105.33C529.08,-110.06 549.86,-115.29 569.28,-120.17"/>
<polygon fill="#63b8ff" stroke="#63b8ff" points="568.2,-123.51 578.75,-122.55 569.91,-116.72 568.2,-123.51"/>
</a>
</g>
</g>
<!-- Node14 -->
<g id="Node000014" class="node">
<title>Node14</title>
<g id="a_Node000014"><a xlink:href="class_big_data_stat_meth_1_1hdf5_dataset.html#a94d81b72e92cb0230b4e64f37ea7d2e3" target="_top" xlink:title="Convert DataFrame to range list.">
<polygon fill="white" stroke="#666666" points="729.25,-104.88 558,-104.88 558,-74.38 729.25,-74.38 729.25,-104.88"/>
<text xml:space="preserve" text-anchor="start" x="566" y="-91.38" font-family="Helvetica,sans-Serif" font-size="10.00">BigDataStatMeth::hdf5Dataset</text>
<text xml:space="preserve" text-anchor="middle" x="643.62" y="-80.12" font-family="Helvetica,sans-Serif" font-size="10.00">::convert_DataFrame_to_RangeList</text>
</a>
</g>
</g>
<!-- Node12&#45;&gt;Node14 -->
<g id="edge14_Node000012_Node000014" class="edge">
<title>Node12&#45;&gt;Node14</title>
<g id="a_edge14_Node000012_Node000014"><a xlink:title=" ">
<path fill="none" stroke="#63b8ff" d="M522.34,-89.62C530.22,-89.62 538.31,-89.62 546.4,-89.62"/>
<polygon fill="#63b8ff" stroke="#63b8ff" points="546.28,-93.13 556.28,-89.63 546.28,-86.13 546.28,-93.13"/>
</a>
</g>
</g>
<!-- Node16 -->
<g id="Node000016" class="node">
<title>Node16</title>
<g id="a_Node000016"><a xlink:href="openme-utils_8hpp.html#a7d6263da9da6b46b945746e3abdea4ca" target="_top" xlink:title="Determines number of threads for parallel operations.">
<polygon fill="white" stroke="#666666" points="484.5,-56.25 409.25,-56.25 409.25,-37 484.5,-37 484.5,-56.25"/>
<text xml:space="preserve" text-anchor="middle" x="446.88" y="-42.75" font-family="Helvetica,sans-Serif" font-size="10.00">getDTthreads</text>
</a>
</g>
</g>
<!-- Node15&#45;&gt;Node16 -->
<g id="edge16_Node000015_Node000016" class="edge">
<title>Node15&#45;&gt;Node16</title>
<g id="a_edge16_Node000015_Node000016"><a xlink:title=" ">
<path fill="none" stroke="#63b8ff" d="M313.06,-198.8C321.44,-195.9 329.43,-191.7 335.75,-185.62 375.91,-147.06 331.59,-104.19 371.75,-65.62 378.99,-58.67 388.41,-54.17 398.1,-51.27"/>
<polygon fill="#63b8ff" stroke="#63b8ff" points="398.67,-54.74 407.58,-49 397.04,-47.93 398.67,-54.74"/>
</a>
</g>
</g>
<!-- Node17 -->
<g id="Node000017" class="node">
<title>Node17</title>
<g id="a_Node000017"><a xlink:href="openme-utils_8hpp.html#a32e65a19d36ceec1952e48362e4153b8" target="_top" xlink:title="Initializes thread configuration based on environment and system state.">
<polygon fill="white" stroke="#666666" points="680.88,-56.25 606.38,-56.25 606.38,-37 680.88,-37 680.88,-56.25"/>
<text xml:space="preserve" text-anchor="middle" x="643.62" y="-42.75" font-family="Helvetica,sans-Serif" font-size="10.00">initDTthreads</text>
</a>
</g>
</g>
<!-- Node16&#45;&gt;Node17 -->
<g id="edge17_Node000016_Node000017" class="edge">
<title>Node16&#45;&gt;Node17</title>
<g id="a_edge17_Node000016_Node000017"><a xlink:title=" ">
<path fill="none" stroke="#63b8ff" d="M484.96,-46.62C516.06,-46.62 560.68,-46.62 594.52,-46.62"/>
<polygon fill="#63b8ff" stroke="#63b8ff" points="594.49,-50.13 604.49,-46.63 594.49,-43.13 594.49,-50.13"/>
</a>
</g>
</g>
<!-- Node18 -->
<g id="Node000018" class="node">
<title>Node18</title>
<g id="a_Node000018"><a xlink:href="openme-utils_8hpp.html#a62643b5f3a2b3d36929fed3c368c2cfc" target="_top" xlink:title="Retrieves integer value from environment variable.">
<polygon fill="white" stroke="#666666" points="823.25,-93.25 765.25,-93.25 765.25,-74 823.25,-74 823.25,-93.25"/>
<text xml:space="preserve" text-anchor="middle" x="794.25" y="-79.75" font-family="Helvetica,sans-Serif" font-size="10.00">getIntEnv</text>
</a>
</g>
</g>
<!-- Node17&#45;&gt;Node18 -->
<g id="edge18_Node000017_Node000018" class="edge">
<title>Node17&#45;&gt;Node18</title>
<g id="a_edge18_Node000017_Node000018"><a xlink:title=" ">
<path fill="none" stroke="#63b8ff" d="M680.96,-54.34C695.96,-57.64 713.48,-61.64 729.25,-65.62 737.33,-67.67 745.94,-69.99 754.14,-72.27"/>
<polygon fill="#63b8ff" stroke="#63b8ff" points="752.95,-75.57 763.53,-74.91 754.85,-68.83 752.95,-75.57"/>
</a>
</g>
</g>
<!-- Node19 -->
<g id="Node000019" class="node">
<title>Node19</title>
<g id="a_Node000019"><a xlink:href="openme-utils_8hpp.html#afca01a231aef5cdbcbb5c23a7134e9d4" target="_top" xlink:title="Maximum of two integers.">
<polygon fill="white" stroke="#666666" points="812.75,-56.25 775.75,-56.25 775.75,-37 812.75,-37 812.75,-56.25"/>
<text xml:space="preserve" text-anchor="middle" x="794.25" y="-42.75" font-family="Helvetica,sans-Serif" font-size="10.00">imax</text>
</a>
</g>
</g>
<!-- Node17&#45;&gt;Node19 -->
<g id="edge19_Node000017_Node000019" class="edge">
<title>Node17&#45;&gt;Node19</title>
<g id="a_edge19_Node000017_Node000019"><a xlink:title=" ">
<path fill="none" stroke="#63b8ff" d="M681.36,-46.62C706.84,-46.62 740.31,-46.62 763.98,-46.62"/>
<polygon fill="#63b8ff" stroke="#63b8ff" points="763.86,-50.13 773.86,-46.63 763.86,-43.13 763.86,-50.13"/>
</a>
</g>
</g>
<!-- Node20 -->
<g id="Node000020" class="node">
<title>Node20</title>
<g id="a_Node000020"><a xlink:href="openme-utils_8hpp.html#aa011f843a2a959cc6f8c226f60e96224" target="_top" xlink:title="Minimum of two integers.">
<polygon fill="white" stroke="#666666" points="811.25,-19.25 777.25,-19.25 777.25,0 811.25,0 811.25,-19.25"/>
<text xml:space="preserve" text-anchor="middle" x="794.25" y="-5.75" font-family="Helvetica,sans-Serif" font-size="10.00">imin</text>
</a>
</g>
</g>
<!-- Node17&#45;&gt;Node20 -->
<g id="edge20_Node000017_Node000020" class="edge">
<title>Node17&#45;&gt;Node20</title>
<g id="a_edge20_Node000017_Node000020"><a xlink:title=" ">
<path fill="none" stroke="#63b8ff" d="M681.36,-37.48C707.54,-30.96 742.16,-22.34 765.92,-16.43"/>
<polygon fill="#63b8ff" stroke="#63b8ff" points="766.61,-19.86 775.47,-14.05 764.92,-13.07 766.61,-19.86"/>
</a>
</g>
</g>
<!-- Node23&#45;&gt;Node2 -->
<g id="edge24_Node000023_Node000002" class="edge">
<title>Node23&#45;&gt;Node2</title>
<g id="a_edge24_Node000023_Node000002"><a xlink:title=" ">
<path fill="none" stroke="#63b8ff" d="M289.21,-467.34C320.91,-485.41 373.12,-515.16 408.46,-535.31"/>
<polygon fill="#63b8ff" stroke="#63b8ff" points="406.67,-538.31 417.09,-540.22 410.13,-532.23 406.67,-538.31"/>
</a>
</g>
</g>
<!-- Node23&#45;&gt;Node22 -->
<g id="edge25_Node000023_Node000022" class="edge">
<title>Node23&#45;&gt;Node22</title>
<g id="a_edge25_Node000023_Node000022"><a xlink:title=" ">
<path fill="none" stroke="#63b8ff" d="M335.54,-456.28C401.92,-460.46 498.99,-466.58 566.15,-470.81"/>
<polygon fill="#63b8ff" stroke="#63b8ff" points="565.78,-474.29 575.98,-471.43 566.22,-467.31 565.78,-474.29"/>
</a>
</g>
</g>
<!-- Node23&#45;&gt;Node24 -->
<g id="edge26_Node000023_Node000024" class="edge">
<title>Node23&#45;&gt;Node24</title>
<g id="a_edge26_Node000023_Node000024"><a xlink:title=" ">
<path fill="none" stroke="#63b8ff" d="M335.77,-443.98C345.47,-442.98 355.45,-441.95 365.26,-440.94"/>
<polygon fill="#63b8ff" stroke="#63b8ff" points="365.56,-444.43 375.15,-439.92 364.84,-437.46 365.56,-444.43"/>
</a>
</g>
</g>
<!-- Node24&#45;&gt;Node22 -->
<g id="edge27_Node000024_Node000022" class="edge">
<title>Node24&#45;&gt;Node22</title>
<g id="a_edge27_Node000024_Node000022"><a xlink:title=" ">
<path fill="none" stroke="#63b8ff" d="M517.08,-447.91C533.07,-451.44 550.17,-455.21 566.44,-458.8"/>
<polygon fill="#63b8ff" stroke="#63b8ff" points="565.55,-462.19 576.07,-460.93 567.06,-455.36 565.55,-462.19"/>
</a>
</g>
</g>
</g>
</svg>

<g id="navigator" transform="translate(0 0)" fill="#404254">
  <rect fill="#f2f5e9" fill-opacity="0.5" stroke="#606060" stroke-width=".5" x="0" y="0" width="60" height="60"/>
  <use id="zoomplus" xlink:href="#zoomPlus" x="17" y="9" onmousedown="handleZoom(evt,'in')"/>
  <use id="zoomminus" xlink:href="#zoomMin" x="42" y="9" onmousedown="handleZoom(evt,'out')"/>
  <use id="reset" xlink:href="#resetDef" x="30" y="36" onmousedown="handleReset()"/>
   <use id="arrowup" xlink:href="#arrowUp" x="0" y="0" onmousedown="handlePan(0,-1)"/>
  <use id="arrowright" xlink:href="#arrowRight" x="0" y="0" onmousedown="handlePan(1,0)"/>
  <use id="arrowdown" xlink:href="#arrowDown" x="0" y="0" onmousedown="handlePan(0,1)"/>
  <use id="arrowleft" xlink:href="#arrowLeft" x="0" y="0" onmousedown="handlePan(-1,0)"/>
</g>
<svg viewBox="0 0 15 15" width="100%" height="30px" preserveAspectRatio="xMaxYMin meet">
 <g id="arrow_out" transform="scale(0.3 0.3)">
  <a xlink:href="namespace_big_data_stat_meth_a11cc183caa903c10f78ffdb7969d0266_cgraph_org.svg" target="_base">
   <rect id="button" ry="5" rx="5" y="6" x="6" height="38" width="38"
        fill="#f2f5e9" fill-opacity="0.5" stroke="#606060" stroke-width="1.0"/>
   <path id="arrow"
     d="M 11.500037,31.436501 C 11.940474,20.09759 22.043105,11.32322 32.158766,21.979434 L 37.068811,17.246167 C 37.068811,17.246167 37.088388,32 37.088388,32 L 22.160133,31.978069 C 22.160133,31.978069 26.997745,27.140456 26.997745,27.140456 C 18.528582,18.264221 13.291696,25.230495 11.500037,31.436501 z"
     style="fill:#404040;"/>
  </a>
 </g>
</svg>

<style type='text/css'>
<![CDATA[
[data-mouse-over-selected='false'] { opacity: 0.7; }
[data-mouse-over-selected='true']  { opacity: 1.0; }
]]>
</style>
<script type="application/ecmascript"><![CDATA[
document.addEventListener('DOMContentLoaded', (event) => {
  highlightEdges();
  highlightAdjacentNodes();
});
]]></script>
</svg>
