<?xml version="1.0" encoding="UTF-8" standalone="no"?>
<!DOCTYPE svg PUBLIC "-//W3C//DTD SVG 1.1//EN"
 "http://www.w3.org/Graphics/SVG/1.1/DTD/svg11.dtd">
<!-- Generated by graphviz version 14.0.0 (20250921.2048)
 -->
<!-- Title: BigDataStatMeth::RcppGetPCAVariablesHdf5 Pages: 1 -->
<!--zoomable 530 -->

<svg id="main" version="1.1" xmlns="http://www.w3.org/2000/svg" xmlns:xlink="http://www.w3.org/1999/xlink" xml:space="preserve" onload="init(evt)">

<style type="text/css"><![CDATA[
.node, .edge {opacity: 0.7;}
.node.selected, .edge.selected {opacity: 1;}
.edge:hover path { stroke: red; }
.edge:hover polygon { stroke: red; fill: red; }
]]></style>

<defs>
  <circle id="rim" cx="0" cy="0" r="7"/>
  <circle id="rim2" cx="0" cy="0" r="3.5"/>
  <g id="zoomPlus">
    <use xlink:href="#rim" fill="#404040"><set attributeName="fill" to="#808080" begin="zoomplus.mouseover" end="zoomplus.mouseout"/></use>
    <path d="M-4,0h8M0,-4v8" fill="none" stroke="white" stroke-width="1.5" pointer-events="none"/>
  </g>
  <g id="zoomMin">
    <use xlink:href="#rim" fill="#404040"><set attributeName="fill" to="#808080" begin="zoomminus.mouseover" end="zoomminus.mouseout"/></use>
    <path d="M-4,0h8" fill="none" stroke="white" stroke-width="1.5" pointer-events="none"/>
  </g>
  <g id="arrowUp" transform="translate(30 24)">
    <use xlink:href="#rim"/>
    <path pointer-events="none" fill="none" stroke="white" stroke-width="1.5" d="M0,-3.0v7 M-2.5,-0.5L0,-3.0L2.5,-0.5"/>
  </g>
  <g id="arrowRight" transform="rotate(90) translate(36 -43)">
    <use xlink:href="#rim"/>
    <path pointer-events="none" fill="none" stroke="white" stroke-width="1.5" d="M0,-3.0v7 M-2.5,-0.5L0,-3.0L2.5,-0.5"/>
  </g>
  <g id="arrowDown" transform="rotate(180) translate(-30 -48)">
    <use xlink:href="#rim"/>
    <path pointer-events="none" fill="none" stroke="white" stroke-width="1.5" d="M0,-3.0v7 M-2.5,-0.5L0,-3.0L2.5,-0.5"/>
  </g>
  <g id="arrowLeft" transform="rotate(270) translate(-36 17)">
    <use xlink:href="#rim"/>
    <path pointer-events="none" fill="none" stroke="white" stroke-width="1.5" d="M0,-3.0v7 M-2.5,-0.5L0,-3.0L2.5,-0.5"/>
  </g>
  <g id="resetDef">
    <use xlink:href="#rim2" fill="#404040"><set attributeName="fill" to="#808080" begin="reset.mouseover" end="reset.mouseout"/></use>
  </g>
</defs>
<script type="application/ecmascript">
var viewWidth = 743;
var viewHeight = 530;
var sectionId = 'dynsection-151';
</script>
<script type="application/ecmascript" xlink:href="../../../../assets/svg.min.js"/>
<svg id="graph" class="graph">
<g id="viewport">
<title>BigDataStatMeth::RcppGetPCAVariablesHdf5</title>
<!-- Node1 -->
<g id="Node000001" class="node">
<title>Node1</title>
<g id="a_Node000001"><a xlink:title="Calculate PCA variables statistics.">
<polygon fill="#999999" stroke="#666666" points="136,-226.5 0,-226.5 0,-196 136,-196 136,-226.5"/>
<text xml:space="preserve" text-anchor="start" x="8" y="-213" font-family="Helvetica,sans-Serif" font-size="10.00">BigDataStatMeth::RcppGet</text>
<text xml:space="preserve" text-anchor="middle" x="68" y="-201.75" font-family="Helvetica,sans-Serif" font-size="10.00">PCAVariablesHdf5</text>
</a>
</g>
</g>
<!-- Node2 -->
<g id="Node000002" class="node">
<title>Node2</title>
<g id="a_Node000002"><a xlink:href="namespace_big_data_stat_meth.html#a304b42b14ec87d4acc6f34ff0231529d" target="_top" xlink:title="Safely close any number of dataset handles (C++17).">
<polygon fill="white" stroke="#666666" points="340.25,-387.88 173.5,-387.88 173.5,-368.62 340.25,-368.62 340.25,-387.88"/>
<text xml:space="preserve" text-anchor="middle" x="256.88" y="-374.38" font-family="Helvetica,sans-Serif" font-size="10.00">BigDataStatMeth::checkClose_file</text>
</a>
</g>
</g>
<!-- Node1&#45;&gt;Node2 -->
<g id="edge1_Node000001_Node000002" class="edge">
<title>Node1&#45;&gt;Node2</title>
<g id="a_edge1_Node000001_Node000002"><a xlink:title=" ">
<path fill="none" stroke="#63b8ff" d="M75.13,-226.65C88.11,-257.13 121.37,-325.15 172,-359.25 174.25,-360.76 176.6,-362.16 179.02,-363.44"/>
<polygon fill="#63b8ff" stroke="#63b8ff" points="177.43,-366.56 187.98,-367.5 180.32,-360.19 177.43,-366.56"/>
</a>
</g>
</g>
<!-- Node3 -->
<g id="Node000003" class="node">
<title>Node3</title>
<g id="a_Node000003"><a xlink:href="class_big_data_stat_meth_1_1hdf5_dataset.html#ab19bac9a31efe4a733294c1c23ff5ef7" target="_top" xlink:title="Create a new dataset with optional compression.">
<polygon fill="white" stroke="#666666" points="332,-350.5 181.75,-350.5 181.75,-320 332,-320 332,-350.5"/>
<text xml:space="preserve" text-anchor="start" x="189.75" y="-337" font-family="Helvetica,sans-Serif" font-size="10.00">BigDataStatMeth::hdf5Dataset</text>
<text xml:space="preserve" text-anchor="middle" x="256.88" y="-325.75" font-family="Helvetica,sans-Serif" font-size="10.00">::createDataset</text>
</a>
</g>
</g>
<!-- Node1&#45;&gt;Node3 -->
<g id="edge2_Node000001_Node000003" class="edge">
<title>Node1&#45;&gt;Node3</title>
<g id="a_edge2_Node000001_Node000003"><a xlink:title=" ">
<path fill="none" stroke="#63b8ff" d="M82.12,-226.85C100.35,-247.61 135.25,-284.28 172,-306.25 177.59,-309.59 183.62,-312.62 189.8,-315.35"/>
<polygon fill="#63b8ff" stroke="#63b8ff" points="188.29,-318.52 198.87,-319.09 190.96,-312.04 188.29,-318.52"/>
</a>
</g>
</g>
<!-- Node11 -->
<g id="Node000011" class="node">
<title>Node11</title>
<g id="a_Node000011"><a xlink:href="class_big_data_stat_meth_1_1hdf5_dataset.html#acf9843abcb57a0090f1635cc69d95300" target="_top" xlink:title="Write data to the dataset.">
<polygon fill="white" stroke="#666666" points="528,-227.5 377.75,-227.5 377.75,-197 528,-197 528,-227.5"/>
<text xml:space="preserve" text-anchor="start" x="385.75" y="-214" font-family="Helvetica,sans-Serif" font-size="10.00">BigDataStatMeth::hdf5Dataset</text>
<text xml:space="preserve" text-anchor="middle" x="452.88" y="-202.75" font-family="Helvetica,sans-Serif" font-size="10.00">::writeDataset</text>
</a>
</g>
</g>
<!-- Node1&#45;&gt;Node11 -->
<g id="edge22_Node000001_Node000011" class="edge">
<title>Node1&#45;&gt;Node11</title>
<g id="a_edge22_Node000001_Node000011"><a xlink:title=" ">
<path fill="none" stroke="#63b8ff" d="M87.65,-226.81C107.23,-242.05 139.62,-264.26 172,-273.25 244.69,-293.44 272.05,-302.12 341.75,-273.25 362.66,-264.59 358.52,-249.18 377.75,-237.25 380.31,-235.66 382.99,-234.16 385.74,-232.74"/>
<polygon fill="#63b8ff" stroke="#63b8ff" points="387,-236.01 394.58,-228.61 384.04,-229.67 387,-236.01"/>
</a>
</g>
</g>
<!-- Node14 -->
<g id="Node000014" class="node">
<title>Node14</title>
<g id="a_Node000014"><a xlink:href="namespace_big_data_stat_meth.html#aee22711cb348213d6d99810104238398" target="_top" xlink:title="Compute cumulative sum of a vector.">
<polygon fill="white" stroke="#666666" points="324.12,-263.88 189.62,-263.88 189.62,-244.62 324.12,-244.62 324.12,-263.88"/>
<text xml:space="preserve" text-anchor="middle" x="256.88" y="-250.38" font-family="Helvetica,sans-Serif" font-size="10.00">BigDataStatMeth::cumsum</text>
</a>
</g>
</g>
<!-- Node1&#45;&gt;Node14 -->
<g id="edge14_Node000001_Node000014" class="edge">
<title>Node1&#45;&gt;Node14</title>
<g id="a_edge14_Node000001_Node000014"><a xlink:title=" ">
<path fill="none" stroke="#63b8ff" d="M136.3,-227C148.19,-229.76 160.46,-232.6 172,-235.25 181,-237.32 190.55,-239.5 199.85,-241.61"/>
<polygon fill="#63b8ff" stroke="#63b8ff" points="199.03,-245.01 209.55,-243.81 200.57,-238.18 199.03,-245.01"/>
</a>
</g>
</g>
<!-- Node15 -->
<g id="Node000015" class="node">
<title>Node15</title>
<g id="a_Node000015"><a xlink:href="class_big_data_stat_meth_1_1hdf5_dataset.html#ae7e94f6d05d1a6cff2d24ec3f1b18fca" target="_top" xlink:title="Get file name.">
<polygon fill="white" stroke="#666666" points="332,-226.5 181.75,-226.5 181.75,-196 332,-196 332,-226.5"/>
<text xml:space="preserve" text-anchor="start" x="189.75" y="-213" font-family="Helvetica,sans-Serif" font-size="10.00">BigDataStatMeth::hdf5Dataset</text>
<text xml:space="preserve" text-anchor="middle" x="256.88" y="-201.75" font-family="Helvetica,sans-Serif" font-size="10.00">::getFileName</text>
</a>
</g>
</g>
<!-- Node1&#45;&gt;Node15 -->
<g id="edge15_Node000001_Node000015" class="edge">
<title>Node1&#45;&gt;Node15</title>
<g id="a_edge15_Node000001_Node000015"><a xlink:title=" ">
<path fill="none" stroke="#63b8ff" d="M136.47,-211.25C147.44,-211.25 158.94,-211.25 170.28,-211.25"/>
<polygon fill="#63b8ff" stroke="#63b8ff" points="170.03,-214.75 180.03,-211.25 170.03,-207.75 170.03,-214.75"/>
</a>
</g>
</g>
<!-- Node17 -->
<g id="Node000017" class="node">
<title>Node17</title>
<g id="a_Node000017"><a xlink:href="class_big_data_stat_meth_1_1hdf5_dataset.html#aa743c8c46d7ff3bb2f894145dd07fd8a" target="_top" xlink:title="Get number of columns in internal format.">
<polygon fill="white" stroke="#666666" points="332,-177.5 181.75,-177.5 181.75,-147 332,-147 332,-177.5"/>
<text xml:space="preserve" text-anchor="start" x="189.75" y="-164" font-family="Helvetica,sans-Serif" font-size="10.00">BigDataStatMeth::hdf5Dataset</text>
<text xml:space="preserve" text-anchor="middle" x="256.88" y="-152.75" font-family="Helvetica,sans-Serif" font-size="10.00">::ncols</text>
</a>
</g>
</g>
<!-- Node1&#45;&gt;Node17 -->
<g id="edge17_Node000001_Node000017" class="edge">
<title>Node1&#45;&gt;Node17</title>
<g id="a_edge17_Node000001_Node000017"><a xlink:title=" ">
<path fill="none" stroke="#63b8ff" d="M128.9,-195.54C146.75,-190.86 166.49,-185.69 184.98,-180.84"/>
<polygon fill="#63b8ff" stroke="#63b8ff" points="185.74,-184.26 194.53,-178.34 183.97,-177.49 185.74,-184.26"/>
</a>
</g>
</g>
<!-- Node18 -->
<g id="Node000018" class="node">
<title>Node18</title>
<g id="a_Node000018"><a xlink:href="class_big_data_stat_meth_1_1hdf5_dataset.html#a6cbce676967d0cc4b50e2cc5282c322b" target="_top" xlink:title="Get number of rows in internal format.">
<polygon fill="white" stroke="#666666" points="332,-128.5 181.75,-128.5 181.75,-98 332,-98 332,-128.5"/>
<text xml:space="preserve" text-anchor="start" x="189.75" y="-115" font-family="Helvetica,sans-Serif" font-size="10.00">BigDataStatMeth::hdf5Dataset</text>
<text xml:space="preserve" text-anchor="middle" x="256.88" y="-103.75" font-family="Helvetica,sans-Serif" font-size="10.00">::nrows</text>
</a>
</g>
</g>
<!-- Node1&#45;&gt;Node18 -->
<g id="edge18_Node000001_Node000018" class="edge">
<title>Node1&#45;&gt;Node18</title>
<g id="a_edge18_Node000001_Node000018"><a xlink:title=" ">
<path fill="none" stroke="#63b8ff" d="M87.19,-195.54C106.91,-179.21 139.88,-153.89 172,-138.25 175.88,-136.36 179.94,-134.58 184.08,-132.91"/>
<polygon fill="#63b8ff" stroke="#63b8ff" points="184.97,-136.32 193.09,-129.52 182.5,-129.77 184.97,-136.32"/>
</a>
</g>
</g>
<!-- Node19 -->
<g id="Node000019" class="node">
<title>Node19</title>
<g id="a_Node000019"><a xlink:href="namespace_big_data_stat_meth.html#a08552ace2edb3a4129cad9f77d1a8bb1" target="_top" xlink:title="Matrix&#45;vector multiplication by rows.">
<polygon fill="white" stroke="#666666" points="341.75,-79.5 172,-79.5 172,-49 341.75,-49 341.75,-79.5"/>
<text xml:space="preserve" text-anchor="start" x="180" y="-66" font-family="Helvetica,sans-Serif" font-size="10.00">BigDataStatMeth::Rcpp</text>
<text xml:space="preserve" text-anchor="middle" x="256.88" y="-54.75" font-family="Helvetica,sans-Serif" font-size="10.00">_matrixVectorMultiplication_byRow</text>
</a>
</g>
</g>
<!-- Node1&#45;&gt;Node19 -->
<g id="edge19_Node000001_Node000019" class="edge">
<title>Node1&#45;&gt;Node19</title>
<g id="a_edge19_Node000001_Node000019"><a xlink:title=" ">
<path fill="none" stroke="#63b8ff" d="M77.96,-195.63C93.66,-169.65 128.63,-117.64 172,-89.25 174.39,-87.68 176.88,-86.21 179.45,-84.83"/>
<polygon fill="#63b8ff" stroke="#63b8ff" points="180.79,-88.07 188.29,-80.59 177.76,-81.76 180.79,-88.07"/>
</a>
</g>
</g>
<!-- Node20 -->
<g id="Node000020" class="node">
<title>Node20</title>
<g id="a_Node000020"><a xlink:href="class_big_data_stat_meth_1_1hdf5_dataset.html#a23bea87165b8ef6b944709c5b2cbd0cf" target="_top" xlink:title=" ">
<polygon fill="white" stroke="#666666" points="332,-30.5 181.75,-30.5 181.75,0 332,0 332,-30.5"/>
<text xml:space="preserve" text-anchor="start" x="189.75" y="-17" font-family="Helvetica,sans-Serif" font-size="10.00">BigDataStatMeth::hdf5Dataset</text>
<text xml:space="preserve" text-anchor="middle" x="256.88" y="-5.75" font-family="Helvetica,sans-Serif" font-size="10.00">::readDatasetBlock</text>
</a>
</g>
</g>
<!-- Node1&#45;&gt;Node20 -->
<g id="edge20_Node000001_Node000020" class="edge">
<title>Node1&#45;&gt;Node20</title>
<g id="a_edge20_Node000001_Node000020"><a xlink:title=" ">
<path fill="none" stroke="#63b8ff" d="M74.02,-195.62C85.64,-161.99 117.62,-82.38 172,-40.25 173.76,-38.89 175.59,-37.6 177.48,-36.38"/>
<polygon fill="#63b8ff" stroke="#63b8ff" points="179.01,-39.54 186.02,-31.6 175.59,-33.43 179.01,-39.54"/>
</a>
</g>
</g>
<!-- Node4 -->
<g id="Node000004" class="node">
<title>Node4</title>
<g id="a_Node000004"><a xlink:href="class_big_data_stat_meth_1_1hdf5_dataset.html#ac7a7f23b7e22c9b56ca6ad86592f2d52" target="_top" xlink:title="Add an attribute to the dataset.">
<polygon fill="white" stroke="#666666" points="528,-521.5 377.75,-521.5 377.75,-491 528,-491 528,-521.5"/>
<text xml:space="preserve" text-anchor="start" x="385.75" y="-508" font-family="Helvetica,sans-Serif" font-size="10.00">BigDataStatMeth::hdf5Dataset</text>
<text xml:space="preserve" text-anchor="middle" x="452.88" y="-496.75" font-family="Helvetica,sans-Serif" font-size="10.00">::addAttribute</text>
</a>
</g>
</g>
<!-- Node3&#45;&gt;Node4 -->
<g id="edge3_Node000003_Node000004" class="edge">
<title>Node3&#45;&gt;Node4</title>
<g id="a_edge3_Node000003_Node000004"><a xlink:title=" ">
<path fill="none" stroke="#63b8ff" d="M331.02,-350.86C334.9,-353.27 338.52,-356.05 341.75,-359.25 381.89,-399.06 338.55,-440.52 377.75,-481.25 378.62,-482.16 379.53,-483.03 380.46,-483.87"/>
<polygon fill="#63b8ff" stroke="#63b8ff" points="378.26,-486.59 388.38,-489.72 382.41,-480.96 378.26,-486.59"/>
</a>
</g>
</g>
<!-- Node5 -->
<g id="Node000005" class="node">
<title>Node5</title>
<g id="a_Node000005"><a xlink:href="class_big_data_stat_meth_1_1hdf5_file.html#abfb73b5f1eb25ee00489485c8dc56a2a" target="_top" xlink:title="Close file and cleanup resources.">
<polygon fill="white" stroke="#666666" points="518.62,-472.5 387.12,-472.5 387.12,-442 518.62,-442 518.62,-472.5"/>
<text xml:space="preserve" text-anchor="start" x="395.12" y="-459" font-family="Helvetica,sans-Serif" font-size="10.00">BigDataStatMeth::hdf5File</text>
<text xml:space="preserve" text-anchor="middle" x="452.88" y="-447.75" font-family="Helvetica,sans-Serif" font-size="10.00">::close_file</text>
</a>
</g>
</g>
<!-- Node3&#45;&gt;Node5 -->
<g id="edge4_Node000003_Node000005" class="edge">
<title>Node3&#45;&gt;Node5</title>
<g id="a_edge4_Node000003_Node000005"><a xlink:title=" ">
<path fill="none" stroke="#63b8ff" d="M329.19,-350.86C333.67,-353.27 337.91,-356.05 341.75,-359.25 369.52,-382.43 350.53,-408.42 377.75,-432.25 379.03,-433.37 380.36,-434.44 381.73,-435.46"/>
<polygon fill="#63b8ff" stroke="#63b8ff" points="379.74,-438.34 390.06,-440.72 383.48,-432.42 379.74,-438.34"/>
</a>
</g>
</g>
<!-- Node6 -->
<g id="Node000006" class="node">
<title>Node6</title>
<g id="a_Node000006"><a xlink:href="class_big_data_stat_meth_1_1hdf5_group.html#a27cef4d33e46c72bfd792aa49fa621a3" target="_top" xlink:title="Create multiple nested groups.">
<polygon fill="white" stroke="#666666" points="523.88,-423.5 381.88,-423.5 381.88,-393 523.88,-393 523.88,-423.5"/>
<text xml:space="preserve" text-anchor="start" x="389.88" y="-410" font-family="Helvetica,sans-Serif" font-size="10.00">BigDataStatMeth::hdf5Group</text>
<text xml:space="preserve" text-anchor="middle" x="452.88" y="-398.75" font-family="Helvetica,sans-Serif" font-size="10.00">::create_HDF5_groups</text>
</a>
</g>
</g>
<!-- Node3&#45;&gt;Node6 -->
<g id="edge5_Node000003_Node000006" class="edge">
<title>Node3&#45;&gt;Node6</title>
<g id="a_edge5_Node000003_Node000006"><a xlink:title=" ">
<path fill="none" stroke="#63b8ff" d="M320.94,-350.99C328.08,-353.45 335.15,-356.2 341.75,-359.25 359.2,-367.32 360.49,-374.77 377.75,-383.25 381.44,-385.06 385.3,-386.8 389.22,-388.45"/>
<polygon fill="#63b8ff" stroke="#63b8ff" points="387.74,-391.62 398.33,-392.05 390.32,-385.11 387.74,-391.62"/>
</a>
</g>
</g>
<!-- Node8 -->
<g id="Node000008" class="node">
<title>Node8</title>
<g id="a_Node000008"><a xlink:href="namespace_big_data_stat_meth.html#a89d901ab4b5e01771f4e3fc7dc84e50e" target="_top" xlink:title="Checks if an HDF5 element (group or dataset) exists.">
<polygon fill="white" stroke="#666666" points="514.5,-374.5 391.25,-374.5 391.25,-344 514.5,-344 514.5,-374.5"/>
<text xml:space="preserve" text-anchor="start" x="399.25" y="-361" font-family="Helvetica,sans-Serif" font-size="10.00">BigDataStatMeth::exists</text>
<text xml:space="preserve" text-anchor="middle" x="452.88" y="-349.75" font-family="Helvetica,sans-Serif" font-size="10.00">_HDF5_element</text>
</a>
</g>
</g>
<!-- Node3&#45;&gt;Node8 -->
<g id="edge7_Node000003_Node000008" class="edge">
<title>Node3&#45;&gt;Node8</title>
<g id="a_edge7_Node000003_Node000008"><a xlink:title=" ">
<path fill="none" stroke="#63b8ff" d="M332.33,-344.46C347.89,-346.39 364.27,-348.41 379.75,-350.33"/>
<polygon fill="#63b8ff" stroke="#63b8ff" points="378.98,-353.76 389.33,-351.51 379.84,-346.81 378.98,-353.76"/>
</a>
</g>
</g>
<!-- Node9 -->
<g id="Node000009" class="node">
<title>Node9</title>
<g id="a_Node000009"><a xlink:href="class_big_data_stat_meth_1_1hdf5_group.html#a59995412538627e6c80f64b552c286f5" target="_top" xlink:title=" ">
<polygon fill="white" stroke="#666666" points="523.88,-325.5 381.88,-325.5 381.88,-295 523.88,-295 523.88,-325.5"/>
<text xml:space="preserve" text-anchor="start" x="389.88" y="-312" font-family="Helvetica,sans-Serif" font-size="10.00">BigDataStatMeth::hdf5Group</text>
<text xml:space="preserve" text-anchor="middle" x="452.88" y="-300.75" font-family="Helvetica,sans-Serif" font-size="10.00">::getGroupName</text>
</a>
</g>
</g>
<!-- Node3&#45;&gt;Node9 -->
<g id="edge9_Node000003_Node000009" class="edge">
<title>Node3&#45;&gt;Node9</title>
<g id="a_edge9_Node000003_Node000009"><a xlink:title=" ">
<path fill="none" stroke="#63b8ff" d="M332.33,-325.66C344.68,-324.06 357.55,-322.41 370.07,-320.79"/>
<polygon fill="#63b8ff" stroke="#63b8ff" points="370.48,-324.27 379.95,-319.52 369.58,-317.33 370.48,-324.27"/>
</a>
</g>
</g>
<!-- Node10 -->
<g id="Node000010" class="node">
<title>Node10</title>
<g id="a_Node000010"><a xlink:href="namespace_big_data_stat_meth.html#a3d06783149029f1df2853c472d401380" target="_top" xlink:title="Removes multiple elements from an HDF5 file.">
<polygon fill="white" stroke="#666666" points="517.5,-276.5 388.25,-276.5 388.25,-246 517.5,-246 517.5,-276.5"/>
<text xml:space="preserve" text-anchor="start" x="396.25" y="-263" font-family="Helvetica,sans-Serif" font-size="10.00">BigDataStatMeth::remove</text>
<text xml:space="preserve" text-anchor="middle" x="452.88" y="-251.75" font-family="Helvetica,sans-Serif" font-size="10.00">_elements</text>
</a>
</g>
</g>
<!-- Node3&#45;&gt;Node10 -->
<g id="edge10_Node000003_Node000010" class="edge">
<title>Node3&#45;&gt;Node10</title>
<g id="a_edge10_Node000003_Node000010"><a xlink:title=" ">
<path fill="none" stroke="#63b8ff" d="M307.66,-319.64C319.01,-315.64 330.92,-311.09 341.75,-306.25 358.46,-298.79 361.01,-293.65 377.75,-286.25 381.83,-284.45 386.07,-282.7 390.39,-281.02"/>
<polygon fill="#63b8ff" stroke="#63b8ff" points="391.61,-284.29 399.75,-277.51 389.15,-277.74 391.61,-284.29"/>
</a>
</g>
</g>
<!-- Node3&#45;&gt;Node11 -->
<g id="edge11_Node000003_Node000011" class="edge">
<title>Node3&#45;&gt;Node11</title>
<g id="a_edge11_Node000003_Node000011"><a xlink:title=" ">
<path fill="none" stroke="#63b8ff" d="M320.79,-319.52C328.35,-315.95 335.56,-311.58 341.75,-306.25 367.95,-283.67 351.46,-259.73 377.75,-237.25 379.2,-236.01 380.72,-234.82 382.3,-233.7"/>
<polygon fill="#63b8ff" stroke="#63b8ff" points="383.81,-236.87 390.51,-228.66 380.15,-230.91 383.81,-236.87"/>
</a>
</g>
</g>
<!-- Node7 -->
<g id="Node000007" class="node">
<title>Node7</title>
<g id="a_Node000007"><a xlink:href="namespace_big_data_stat_meth.html#abcaa4216cd52f03ebac42e4855ef846b" target="_top" xlink:title="Checks if a path exists in an HDF5 file.">
<polygon fill="white" stroke="#666666" points="721.38,-392.88 577.88,-392.88 577.88,-373.62 721.38,-373.62 721.38,-392.88"/>
<text xml:space="preserve" text-anchor="middle" x="649.62" y="-379.38" font-family="Helvetica,sans-Serif" font-size="10.00">BigDataStatMeth::pathExists</text>
</a>
</g>
</g>
<!-- Node6&#45;&gt;Node7 -->
<g id="edge6_Node000006_Node000007" class="edge">
<title>Node6&#45;&gt;Node7</title>
<g id="a_edge6_Node000006_Node000007"><a xlink:title=" ">
<path fill="none" stroke="#63b8ff" d="M524.18,-399.22C537.85,-397.47 552.3,-395.62 566.31,-393.82"/>
<polygon fill="#63b8ff" stroke="#63b8ff" points="566.46,-397.33 575.94,-392.58 565.57,-390.38 566.46,-397.33"/>
</a>
</g>
</g>
<!-- Node8&#45;&gt;Node7 -->
<g id="edge8_Node000008_Node000007" class="edge">
<title>Node8&#45;&gt;Node7</title>
<g id="a_edge8_Node000008_Node000007"><a xlink:title=" ">
<path fill="none" stroke="#63b8ff" d="M514.96,-366.78C531.25,-368.79 549.12,-370.99 566.34,-373.11"/>
<polygon fill="#63b8ff" stroke="#63b8ff" points="565.69,-376.56 576.04,-374.31 566.54,-369.61 565.69,-376.56"/>
</a>
</g>
</g>
<!-- Node12 -->
<g id="Node000012" class="node">
<title>Node12</title>
<g id="a_Node000012"><a xlink:href="class_big_data_stat_meth_1_1hdf5_dataset.html#aba39e56a580d3b1fa7f1619fc72efa3e" target="_top" xlink:title="Close dataset and file.">
<polygon fill="white" stroke="#666666" points="724.75,-157.5 574.5,-157.5 574.5,-127 724.75,-127 724.75,-157.5"/>
<text xml:space="preserve" text-anchor="start" x="582.5" y="-144" font-family="Helvetica,sans-Serif" font-size="10.00">BigDataStatMeth::hdf5Dataset</text>
<text xml:space="preserve" text-anchor="middle" x="649.62" y="-132.75" font-family="Helvetica,sans-Serif" font-size="10.00">::close_dataset_file</text>
</a>
</g>
</g>
<!-- Node11&#45;&gt;Node12 -->
<g id="edge12_Node000011_Node000012" class="edge">
<title>Node11&#45;&gt;Node12</title>
<g id="a_edge12_Node000011_Node000012"><a xlink:title=" ">
<path fill="none" stroke="#63b8ff" d="M501.01,-196.6C509.99,-193.55 519.3,-190.34 528,-187.25 550.6,-179.23 575.45,-170.02 596.68,-162.04"/>
<polygon fill="#63b8ff" stroke="#63b8ff" points="597.89,-165.32 606.01,-158.52 595.42,-158.77 597.89,-165.32"/>
</a>
</g>
</g>
<!-- Node13 -->
<g id="Node000013" class="node">
<title>Node13</title>
<g id="a_Node000013"><a xlink:href="class_big_data_stat_meth_1_1hdf5_dataset.html#a94d81b72e92cb0230b4e64f37ea7d2e3" target="_top" xlink:title="Convert DataFrame to range list.">
<polygon fill="white" stroke="#666666" points="735.25,-227.5 564,-227.5 564,-197 735.25,-197 735.25,-227.5"/>
<text xml:space="preserve" text-anchor="start" x="572" y="-214" font-family="Helvetica,sans-Serif" font-size="10.00">BigDataStatMeth::hdf5Dataset</text>
<text xml:space="preserve" text-anchor="middle" x="649.62" y="-202.75" font-family="Helvetica,sans-Serif" font-size="10.00">::convert_DataFrame_to_RangeList</text>
</a>
</g>
</g>
<!-- Node11&#45;&gt;Node13 -->
<g id="edge13_Node000011_Node000013" class="edge">
<title>Node11&#45;&gt;Node13</title>
<g id="a_edge13_Node000011_Node000013"><a xlink:title=" ">
<path fill="none" stroke="#63b8ff" d="M528.34,-212.25C536.22,-212.25 544.31,-212.25 552.4,-212.25"/>
<polygon fill="#63b8ff" stroke="#63b8ff" points="552.28,-215.75 562.28,-212.25 552.28,-208.75 552.28,-215.75"/>
</a>
</g>
</g>
<!-- Node16 -->
<g id="Node000016" class="node">
<title>Node16</title>
<g id="a_Node000016"><a xlink:href="class_big_data_stat_meth_1_1hdf5_file.html#abb50d96e6674ac770e4f27f650ad34cb" target="_top" xlink:title="Get filename.">
<polygon fill="white" stroke="#666666" points="518.62,-178.5 387.12,-178.5 387.12,-148 518.62,-148 518.62,-178.5"/>
<text xml:space="preserve" text-anchor="start" x="395.12" y="-165" font-family="Helvetica,sans-Serif" font-size="10.00">BigDataStatMeth::hdf5File</text>
<text xml:space="preserve" text-anchor="middle" x="452.88" y="-153.75" font-family="Helvetica,sans-Serif" font-size="10.00">::getFilename</text>
</a>
</g>
</g>
<!-- Node15&#45;&gt;Node16 -->
<g id="edge16_Node000015_Node000016" class="edge">
<title>Node15&#45;&gt;Node16</title>
<g id="a_edge16_Node000015_Node000016"><a xlink:title=" ">
<path fill="none" stroke="#63b8ff" d="M321.4,-195.53C339.33,-191.1 359,-186.23 377.5,-181.65"/>
<polygon fill="#63b8ff" stroke="#63b8ff" points="378.21,-185.08 387.07,-179.28 376.52,-178.29 378.21,-185.08"/>
</a>
</g>
</g>
<!-- Node20&#45;&gt;Node12 -->
<g id="edge21_Node000020_Node000012" class="edge">
<title>Node20&#45;&gt;Node12</title>
<g id="a_edge21_Node000020_Node000012"><a xlink:title=" ">
<path fill="none" stroke="#63b8ff" d="M311.2,-30.87C321.36,-33.92 331.9,-37.14 341.75,-40.25 429.52,-67.91 530.7,-101.96 592.13,-122.89"/>
<polygon fill="#63b8ff" stroke="#63b8ff" points="590.73,-126.11 601.33,-126.02 592.99,-119.48 590.73,-126.11"/>
</a>
</g>
</g>
</g>
</svg>

<g id="navigator" transform="translate(0 0)" fill="#404254">
  <rect fill="#f2f5e9" fill-opacity="0.5" stroke="#606060" stroke-width=".5" x="0" y="0" width="60" height="60"/>
  <use id="zoomplus" xlink:href="#zoomPlus" x="17" y="9" onmousedown="handleZoom(evt,'in')"/>
  <use id="zoomminus" xlink:href="#zoomMin" x="42" y="9" onmousedown="handleZoom(evt,'out')"/>
  <use id="reset" xlink:href="#resetDef" x="30" y="36" onmousedown="handleReset()"/>
   <use id="arrowup" xlink:href="#arrowUp" x="0" y="0" onmousedown="handlePan(0,-1)"/>
  <use id="arrowright" xlink:href="#arrowRight" x="0" y="0" onmousedown="handlePan(1,0)"/>
  <use id="arrowdown" xlink:href="#arrowDown" x="0" y="0" onmousedown="handlePan(0,1)"/>
  <use id="arrowleft" xlink:href="#arrowLeft" x="0" y="0" onmousedown="handlePan(-1,0)"/>
</g>
<svg viewBox="0 0 15 15" width="100%" height="30px" preserveAspectRatio="xMaxYMin meet">
 <g id="arrow_out" transform="scale(0.3 0.3)">
  <a xlink:href="namespace_big_data_stat_meth_abe99a303ff3665b58cf6e98dc29ef1bc_cgraph_org.svg" target="_base">
   <rect id="button" ry="5" rx="5" y="6" x="6" height="38" width="38"
        fill="#f2f5e9" fill-opacity="0.5" stroke="#606060" stroke-width="1.0"/>
   <path id="arrow"
     d="M 11.500037,31.436501 C 11.940474,20.09759 22.043105,11.32322 32.158766,21.979434 L 37.068811,17.246167 C 37.068811,17.246167 37.088388,32 37.088388,32 L 22.160133,31.978069 C 22.160133,31.978069 26.997745,27.140456 26.997745,27.140456 C 18.528582,18.264221 13.291696,25.230495 11.500037,31.436501 z"
     style="fill:#404040;"/>
  </a>
 </g>
</svg>

<style type='text/css'>
<![CDATA[
[data-mouse-over-selected='false'] { opacity: 0.7; }
[data-mouse-over-selected='true']  { opacity: 1.0; }
]]>
</style>
<script type="application/ecmascript"><![CDATA[
document.addEventListener('DOMContentLoaded', (event) => {
  highlightEdges();
  highlightAdjacentNodes();
});
]]></script>
</svg>
