<?xml version="1.0" encoding="UTF-8" standalone="no"?>
<!DOCTYPE svg PUBLIC "-//W3C//DTD SVG 1.1//EN"
 "http://www.w3.org/Graphics/SVG/1.1/DTD/svg11.dtd">
<!-- Generated by graphviz version 14.0.0 (20250921.2048)
 -->
<!-- Title: BigDataStatMeth::Rcpp_Remove_Low_Data_hdf5 Pages: 1 -->
<!--zoomable 590 -->

<svg id="main" version="1.1" xmlns="http://www.w3.org/2000/svg" xmlns:xlink="http://www.w3.org/1999/xlink" xml:space="preserve" onload="init(evt)">

<style type="text/css"><![CDATA[
.node, .edge {opacity: 0.7;}
.node.selected, .edge.selected {opacity: 1;}
.edge:hover path { stroke: red; }
.edge:hover polygon { stroke: red; fill: red; }
]]></style>

<defs>
  <circle id="rim" cx="0" cy="0" r="7"/>
  <circle id="rim2" cx="0" cy="0" r="3.5"/>
  <g id="zoomPlus">
    <use xlink:href="#rim" fill="#404040"><set attributeName="fill" to="#808080" begin="zoomplus.mouseover" end="zoomplus.mouseout"/></use>
    <path d="M-4,0h8M0,-4v8" fill="none" stroke="white" stroke-width="1.5" pointer-events="none"/>
  </g>
  <g id="zoomMin">
    <use xlink:href="#rim" fill="#404040"><set attributeName="fill" to="#808080" begin="zoomminus.mouseover" end="zoomminus.mouseout"/></use>
    <path d="M-4,0h8" fill="none" stroke="white" stroke-width="1.5" pointer-events="none"/>
  </g>
  <g id="arrowUp" transform="translate(30 24)">
    <use xlink:href="#rim"/>
    <path pointer-events="none" fill="none" stroke="white" stroke-width="1.5" d="M0,-3.0v7 M-2.5,-0.5L0,-3.0L2.5,-0.5"/>
  </g>
  <g id="arrowRight" transform="rotate(90) translate(36 -43)">
    <use xlink:href="#rim"/>
    <path pointer-events="none" fill="none" stroke="white" stroke-width="1.5" d="M0,-3.0v7 M-2.5,-0.5L0,-3.0L2.5,-0.5"/>
  </g>
  <g id="arrowDown" transform="rotate(180) translate(-30 -48)">
    <use xlink:href="#rim"/>
    <path pointer-events="none" fill="none" stroke="white" stroke-width="1.5" d="M0,-3.0v7 M-2.5,-0.5L0,-3.0L2.5,-0.5"/>
  </g>
  <g id="arrowLeft" transform="rotate(270) translate(-36 17)">
    <use xlink:href="#rim"/>
    <path pointer-events="none" fill="none" stroke="white" stroke-width="1.5" d="M0,-3.0v7 M-2.5,-0.5L0,-3.0L2.5,-0.5"/>
  </g>
  <g id="resetDef">
    <use xlink:href="#rim2" fill="#404040"><set attributeName="fill" to="#808080" begin="reset.mouseover" end="reset.mouseout"/></use>
  </g>
</defs>
<script type="application/ecmascript">
var viewWidth = 921;
var viewHeight = 590;
var sectionId = 'dynsection-137';
</script>
<script type="application/ecmascript" xlink:href="../../../../assets/svg.min.js"/>
<svg id="graph" class="graph">
<g id="viewport">
<title>BigDataStatMeth::Rcpp_Remove_Low_Data_hdf5</title>
<!-- Node1 -->
<g id="Node000001" class="node">
<title>Node1</title>
<g id="a_Node000001"><a xlink:title="Removes rows or columns with high percentage of missing data from HDF5 dataset.">
<polygon fill="#999999" stroke="#666666" points="131.5,-261.5 0,-261.5 0,-231 131.5,-231 131.5,-261.5"/>
<text xml:space="preserve" text-anchor="start" x="8" y="-248" font-family="Helvetica,sans-Serif" font-size="10.00">BigDataStatMeth::Rcpp</text>
<text xml:space="preserve" text-anchor="middle" x="65.75" y="-236.75" font-family="Helvetica,sans-Serif" font-size="10.00">_Remove_Low_Data_hdf5</text>
</a>
</g>
</g>
<!-- Node2 -->
<g id="Node000002" class="node">
<title>Node2</title>
<g id="a_Node000002"><a xlink:href="class_big_data_stat_meth_1_1hdf5_dataset.html#a27b2a71abcad756b7031b02c92130536" target="_top" xlink:title="Create an unlimited dataset with optional compression.">
<polygon fill="white" stroke="#666666" points="328.62,-488.5 178.38,-488.5 178.38,-458 328.62,-458 328.62,-488.5"/>
<text xml:space="preserve" text-anchor="start" x="186.38" y="-475" font-family="Helvetica,sans-Serif" font-size="10.00">BigDataStatMeth::hdf5Dataset</text>
<text xml:space="preserve" text-anchor="middle" x="253.5" y="-463.75" font-family="Helvetica,sans-Serif" font-size="10.00">::createUnlimitedDataset</text>
</a>
</g>
</g>
<!-- Node1&#45;&gt;Node2 -->
<g id="edge1_Node000001_Node000002" class="edge">
<title>Node1&#45;&gt;Node2</title>
<g id="a_edge1_Node000001_Node000002"><a xlink:title=" ">
<path fill="none" stroke="#63b8ff" d="M71.88,-261.81C83.78,-295.86 116.21,-377.91 167.5,-428.25 177.28,-437.84 189.51,-445.91 201.63,-452.44"/>
<polygon fill="#63b8ff" stroke="#63b8ff" points="199.88,-455.48 210.38,-456.88 203.05,-449.24 199.88,-455.48"/>
</a>
</g>
</g>
<!-- Node9 -->
<g id="Node000009" class="node">
<title>Node9</title>
<g id="a_Node000009"><a xlink:href="class_big_data_stat_meth_1_1hdf5_dataset.html#a7b54a6f524581d54102a1614ee44991b" target="_top" xlink:title="Get dataset dimension.">
<polygon fill="white" stroke="#666666" points="339.5,-418.88 167.5,-418.88 167.5,-399.62 339.5,-399.62 339.5,-418.88"/>
<text xml:space="preserve" text-anchor="middle" x="253.5" y="-405.38" font-family="Helvetica,sans-Serif" font-size="10.00">BigDataStatMeth::hdf5Dataset::dim</text>
</a>
</g>
</g>
<!-- Node1&#45;&gt;Node9 -->
<g id="edge9_Node000001_Node000009" class="edge">
<title>Node1&#45;&gt;Node9</title>
<g id="a_edge9_Node000001_Node000009"><a xlink:title=" ">
<path fill="none" stroke="#63b8ff" d="M72.96,-261.7C85.82,-291.6 118.32,-357.31 167.5,-390.25 169.78,-391.78 172.16,-393.18 174.62,-394.48"/>
<polygon fill="#63b8ff" stroke="#63b8ff" points="173.17,-397.66 183.73,-398.57 176.04,-391.28 173.17,-397.66"/>
</a>
</g>
</g>
<!-- Node10 -->
<g id="Node000010" class="node">
<title>Node10</title>
<g id="a_Node000010"><a xlink:href="class_big_data_stat_meth_1_1hdf5_dataset.html#a5235fb1fb8b567325b1405bcef9f061d" target="_top" xlink:title="Extend an unlimited dataset.">
<polygon fill="white" stroke="#666666" points="536.25,-240.5 386,-240.5 386,-210 536.25,-210 536.25,-240.5"/>
<text xml:space="preserve" text-anchor="start" x="394" y="-227" font-family="Helvetica,sans-Serif" font-size="10.00">BigDataStatMeth::hdf5Dataset</text>
<text xml:space="preserve" text-anchor="middle" x="461.12" y="-215.75" font-family="Helvetica,sans-Serif" font-size="10.00">::extendUnlimitedDataset</text>
</a>
</g>
</g>
<!-- Node1&#45;&gt;Node10 -->
<g id="edge10_Node000001_Node000010" class="edge">
<title>Node1&#45;&gt;Node10</title>
<g id="a_edge10_Node000001_Node000010"><a xlink:title=" ">
<path fill="none" stroke="#63b8ff" d="M131.71,-242.78C197.99,-239.24 301.22,-233.73 374.22,-229.84"/>
<polygon fill="#63b8ff" stroke="#63b8ff" points="374.36,-233.33 384.16,-229.31 373.99,-226.34 374.36,-233.33"/>
</a>
</g>
</g>
<!-- Node12 -->
<g id="Node000012" class="node">
<title>Node12</title>
<g id="a_Node000012"><a xlink:href="class_big_data_stat_meth_1_1hdf5_dataset.html#af3ab7117b94164ab629673cacd896dd9" target="_top" xlink:title="Get the current compression level for this dataset instance.">
<polygon fill="white" stroke="#666666" points="328.62,-332.5 178.38,-332.5 178.38,-302 328.62,-302 328.62,-332.5"/>
<text xml:space="preserve" text-anchor="start" x="186.38" y="-319" font-family="Helvetica,sans-Serif" font-size="10.00">BigDataStatMeth::hdf5Dataset</text>
<text xml:space="preserve" text-anchor="middle" x="253.5" y="-307.75" font-family="Helvetica,sans-Serif" font-size="10.00">::getCompressionLevel</text>
</a>
</g>
</g>
<!-- Node1&#45;&gt;Node12 -->
<g id="edge12_Node000001_Node000012" class="edge">
<title>Node1&#45;&gt;Node12</title>
<g id="a_edge12_Node000001_Node000012"><a xlink:title=" ">
<path fill="none" stroke="#63b8ff" d="M98.03,-261.93C117.68,-271.42 143.72,-283.38 167.5,-292.25 172.86,-294.25 178.45,-296.19 184.1,-298.06"/>
<polygon fill="#63b8ff" stroke="#63b8ff" points="182.95,-301.37 193.54,-301.08 185.08,-294.7 182.95,-301.37"/>
</a>
</g>
</g>
<!-- Node13 -->
<g id="Node000013" class="node">
<title>Node13</title>
<g id="a_Node000013"><a xlink:href="class_big_data_stat_meth_1_1hdf5_dataset.html#a8cce59e2884ad1ee3b67f281566780af" target="_top" xlink:title="Inherit the compression level from an input dataset if not already set.">
<polygon fill="white" stroke="#666666" points="328.62,-283.5 178.38,-283.5 178.38,-253 328.62,-253 328.62,-283.5"/>
<text xml:space="preserve" text-anchor="start" x="186.38" y="-270" font-family="Helvetica,sans-Serif" font-size="10.00">BigDataStatMeth::hdf5Dataset</text>
<text xml:space="preserve" text-anchor="middle" x="253.5" y="-258.75" font-family="Helvetica,sans-Serif" font-size="10.00">::inheritCompressionLevel</text>
</a>
</g>
</g>
<!-- Node1&#45;&gt;Node13 -->
<g id="edge13_Node000001_Node000013" class="edge">
<title>Node1&#45;&gt;Node13</title>
<g id="a_edge13_Node000001_Node000013"><a xlink:title=" ">
<path fill="none" stroke="#63b8ff" d="M131.98,-253.98C143.23,-255.31 155.07,-256.71 166.76,-258.1"/>
<polygon fill="#63b8ff" stroke="#63b8ff" points="166.06,-261.54 176.4,-259.24 166.88,-254.58 166.06,-261.54"/>
</a>
</g>
</g>
<!-- Node14 -->
<g id="Node000014" class="node">
<title>Node14</title>
<g id="a_Node000014"><a xlink:href="class_big_data_stat_meth_1_1hdf5_dataset.html#ab57cadee5e43a496eb32dbf12d603d76" target="_top" xlink:title=" ">
<polygon fill="white" stroke="#666666" points="328.62,-381.5 178.38,-381.5 178.38,-351 328.62,-351 328.62,-381.5"/>
<text xml:space="preserve" text-anchor="start" x="186.38" y="-368" font-family="Helvetica,sans-Serif" font-size="10.00">BigDataStatMeth::hdf5Dataset</text>
<text xml:space="preserve" text-anchor="middle" x="253.5" y="-356.75" font-family="Helvetica,sans-Serif" font-size="10.00">::openDataset</text>
</a>
</g>
</g>
<!-- Node1&#45;&gt;Node14 -->
<g id="edge14_Node000001_Node000014" class="edge">
<title>Node1&#45;&gt;Node14</title>
<g id="a_edge14_Node000001_Node000014"><a xlink:title=" ">
<path fill="none" stroke="#63b8ff" d="M79.07,-261.76C96.56,-282.76 130.59,-320.07 167.5,-341.25 170.64,-343.05 173.91,-344.73 177.28,-346.3"/>
<polygon fill="#63b8ff" stroke="#63b8ff" points="175.61,-349.39 186.19,-350.07 178.35,-342.95 175.61,-349.39"/>
</a>
</g>
</g>
<!-- Node17 -->
<g id="Node000017" class="node">
<title>Node17</title>
<g id="a_Node000017"><a xlink:href="class_big_data_stat_meth_1_1hdf5_dataset.html#a23bea87165b8ef6b944709c5b2cbd0cf" target="_top" xlink:title=" ">
<polygon fill="white" stroke="#666666" points="328.62,-197.5 178.38,-197.5 178.38,-167 328.62,-167 328.62,-197.5"/>
<text xml:space="preserve" text-anchor="start" x="186.38" y="-184" font-family="Helvetica,sans-Serif" font-size="10.00">BigDataStatMeth::hdf5Dataset</text>
<text xml:space="preserve" text-anchor="middle" x="253.5" y="-172.75" font-family="Helvetica,sans-Serif" font-size="10.00">::readDatasetBlock</text>
</a>
</g>
</g>
<!-- Node1&#45;&gt;Node17 -->
<g id="edge21_Node000001_Node000017" class="edge">
<title>Node1&#45;&gt;Node17</title>
<g id="a_edge21_Node000001_Node000017"><a xlink:title=" ">
<path fill="none" stroke="#63b8ff" d="M111.87,-230.52C129.25,-224.47 149.29,-217.52 167.5,-211.25 176.71,-208.08 186.49,-204.73 196.01,-201.47"/>
<polygon fill="#63b8ff" stroke="#63b8ff" points="196.84,-204.89 205.17,-198.34 194.58,-198.26 196.84,-204.89"/>
</a>
</g>
</g>
<!-- Node18 -->
<g id="Node000018" class="node">
<title>Node18</title>
<g id="a_Node000018"><a xlink:href="namespace_big_data_stat_meth.html#a962551a78d986ff03e179f2d6df2af52" target="_top" xlink:title="Removes a column from an Eigen matrix.">
<polygon fill="white" stroke="#666666" points="335,-148.88 172,-148.88 172,-129.62 335,-129.62 335,-148.88"/>
<text xml:space="preserve" text-anchor="middle" x="253.5" y="-135.38" font-family="Helvetica,sans-Serif" font-size="10.00">BigDataStatMeth::removeColumn</text>
</a>
</g>
</g>
<!-- Node1&#45;&gt;Node18 -->
<g id="edge23_Node000001_Node000018" class="edge">
<title>Node1&#45;&gt;Node18</title>
<g id="a_edge23_Node000001_Node000018"><a xlink:title=" ">
<path fill="none" stroke="#63b8ff" d="M80.04,-230.57C97.86,-210.6 131.45,-176.51 167.5,-158.25 171.41,-156.27 175.52,-154.49 179.75,-152.9"/>
<polygon fill="#63b8ff" stroke="#63b8ff" points="180.61,-156.3 188.97,-149.79 178.38,-149.67 180.61,-156.3"/>
</a>
</g>
</g>
<!-- Node19 -->
<g id="Node000019" class="node">
<title>Node19</title>
<g id="a_Node000019"><a xlink:href="namespace_big_data_stat_meth.html#a5e29fef215232998153a651719685521" target="_top" xlink:title="Removes a row from an Eigen matrix.">
<polygon fill="white" stroke="#666666" points="328.25,-111.88 178.75,-111.88 178.75,-92.62 328.25,-92.62 328.25,-111.88"/>
<text xml:space="preserve" text-anchor="middle" x="253.5" y="-98.38" font-family="Helvetica,sans-Serif" font-size="10.00">BigDataStatMeth::removeRow</text>
</a>
</g>
</g>
<!-- Node1&#45;&gt;Node19 -->
<g id="edge24_Node000001_Node000019" class="edge">
<title>Node1&#45;&gt;Node19</title>
<g id="a_edge24_Node000001_Node000019"><a xlink:title=" ">
<path fill="none" stroke="#63b8ff" d="M74.58,-230.58C89,-203.47 122.44,-148.03 167.5,-120.25 169.51,-119.01 171.58,-117.86 173.72,-116.79"/>
<polygon fill="#63b8ff" stroke="#63b8ff" points="174.88,-120.1 182.66,-112.91 172.09,-113.68 174.88,-120.1"/>
</a>
</g>
</g>
<!-- Node20 -->
<g id="Node000020" class="node">
<title>Node20</title>
<g id="a_Node000020"><a xlink:href="class_big_data_stat_meth_1_1hdf5_dataset.html#af606176d84a63561b65702b6fde3a583" target="_top" xlink:title="Write block of data with optional transposition.">
<polygon fill="white" stroke="#666666" points="328.62,-74.5 178.38,-74.5 178.38,-44 328.62,-44 328.62,-74.5"/>
<text xml:space="preserve" text-anchor="start" x="186.38" y="-61" font-family="Helvetica,sans-Serif" font-size="10.00">BigDataStatMeth::hdf5Dataset</text>
<text xml:space="preserve" text-anchor="middle" x="253.5" y="-49.75" font-family="Helvetica,sans-Serif" font-size="10.00">::writeDatasetBlock</text>
</a>
</g>
</g>
<!-- Node1&#45;&gt;Node20 -->
<g id="edge25_Node000001_Node000020" class="edge">
<title>Node1&#45;&gt;Node20</title>
<g id="a_edge25_Node000001_Node000020"><a xlink:title=" ">
<path fill="none" stroke="#63b8ff" d="M72,-230.56C83.72,-197.97 115.18,-122.71 167.5,-83.25 168.84,-82.24 170.22,-81.27 171.63,-80.35"/>
<polygon fill="#63b8ff" stroke="#63b8ff" points="173.12,-83.53 180.1,-75.55 169.67,-77.44 173.12,-83.53"/>
</a>
</g>
</g>
<!-- Node3 -->
<g id="Node000003" class="node">
<title>Node3</title>
<g id="a_Node000003"><a xlink:href="class_big_data_stat_meth_1_1hdf5_dataset.html#ac7a7f23b7e22c9b56ca6ad86592f2d52" target="_top" xlink:title="Add an attribute to the dataset.">
<polygon fill="white" stroke="#666666" points="536.25,-510.5 386,-510.5 386,-480 536.25,-480 536.25,-510.5"/>
<text xml:space="preserve" text-anchor="start" x="394" y="-497" font-family="Helvetica,sans-Serif" font-size="10.00">BigDataStatMeth::hdf5Dataset</text>
<text xml:space="preserve" text-anchor="middle" x="461.12" y="-485.75" font-family="Helvetica,sans-Serif" font-size="10.00">::addAttribute</text>
</a>
</g>
</g>
<!-- Node2&#45;&gt;Node3 -->
<g id="edge2_Node000002_Node000003" class="edge">
<title>Node2&#45;&gt;Node3</title>
<g id="a_edge2_Node000002_Node000003"><a xlink:title=" ">
<path fill="none" stroke="#63b8ff" d="M329.03,-481.22C343.68,-482.79 359.17,-484.45 374.16,-486.05"/>
<polygon fill="#63b8ff" stroke="#63b8ff" points="373.69,-489.52 384,-487.11 374.43,-482.56 373.69,-489.52"/>
</a>
</g>
</g>
<!-- Node4 -->
<g id="Node000004" class="node">
<title>Node4</title>
<g id="a_Node000004"><a xlink:href="class_big_data_stat_meth_1_1hdf5_file.html#abfb73b5f1eb25ee00489485c8dc56a2a" target="_top" xlink:title="Close file and cleanup resources.">
<polygon fill="white" stroke="#666666" points="526.88,-424.5 395.38,-424.5 395.38,-394 526.88,-394 526.88,-424.5"/>
<text xml:space="preserve" text-anchor="start" x="403.38" y="-411" font-family="Helvetica,sans-Serif" font-size="10.00">BigDataStatMeth::hdf5File</text>
<text xml:space="preserve" text-anchor="middle" x="461.12" y="-399.75" font-family="Helvetica,sans-Serif" font-size="10.00">::close_file</text>
</a>
</g>
</g>
<!-- Node2&#45;&gt;Node4 -->
<g id="edge3_Node000002_Node000004" class="edge">
<title>Node2&#45;&gt;Node4</title>
<g id="a_edge3_Node000002_Node000004"><a xlink:title=" ">
<path fill="none" stroke="#63b8ff" d="M305.06,-457.51C333.45,-448.68 369.07,-437.59 399.01,-428.27"/>
<polygon fill="#63b8ff" stroke="#63b8ff" points="399.8,-431.69 408.31,-425.38 397.72,-425.01 399.8,-431.69"/>
</a>
</g>
</g>
<!-- Node5 -->
<g id="Node000005" class="node">
<title>Node5</title>
<g id="a_Node000005"><a xlink:href="class_big_data_stat_meth_1_1hdf5_group.html#a27cef4d33e46c72bfd792aa49fa621a3" target="_top" xlink:title="Create multiple nested groups.">
<polygon fill="white" stroke="#666666" points="728.88,-559.5 586.88,-559.5 586.88,-529 728.88,-529 728.88,-559.5"/>
<text xml:space="preserve" text-anchor="start" x="594.88" y="-546" font-family="Helvetica,sans-Serif" font-size="10.00">BigDataStatMeth::hdf5Group</text>
<text xml:space="preserve" text-anchor="middle" x="657.88" y="-534.75" font-family="Helvetica,sans-Serif" font-size="10.00">::create_HDF5_groups</text>
</a>
</g>
</g>
<!-- Node2&#45;&gt;Node5 -->
<g id="edge4_Node000002_Node000005" class="edge">
<title>Node2&#45;&gt;Node5</title>
<g id="a_edge4_Node000002_Node000005"><a xlink:title=" ">
<path fill="none" stroke="#63b8ff" d="M267.81,-488.87C288.24,-511.51 329.81,-552.46 375.5,-568.25 449.18,-593.72 539.88,-578.29 598.03,-562.94"/>
<polygon fill="#63b8ff" stroke="#63b8ff" points="598.67,-566.4 607.4,-560.39 596.83,-559.64 598.67,-566.4"/>
</a>
</g>
</g>
<!-- Node7 -->
<g id="Node000007" class="node">
<title>Node7</title>
<g id="a_Node000007"><a xlink:href="namespace_big_data_stat_meth.html#a89d901ab4b5e01771f4e3fc7dc84e50e" target="_top" xlink:title="Checks if an HDF5 element (group or dataset) exists.">
<polygon fill="white" stroke="#666666" points="719.5,-424.5 596.25,-424.5 596.25,-394 719.5,-394 719.5,-424.5"/>
<text xml:space="preserve" text-anchor="start" x="604.25" y="-411" font-family="Helvetica,sans-Serif" font-size="10.00">BigDataStatMeth::exists</text>
<text xml:space="preserve" text-anchor="middle" x="657.88" y="-399.75" font-family="Helvetica,sans-Serif" font-size="10.00">_HDF5_element</text>
</a>
</g>
</g>
<!-- Node2&#45;&gt;Node7 -->
<g id="edge6_Node000002_Node000007" class="edge">
<title>Node2&#45;&gt;Node7</title>
<g id="a_edge6_Node000002_Node000007"><a xlink:title=" ">
<path fill="none" stroke="#63b8ff" d="M328.92,-464.7C388.13,-457.5 473,-446.31 546.75,-433.25 559.12,-431.06 572.21,-428.46 584.88,-425.79"/>
<polygon fill="#63b8ff" stroke="#63b8ff" points="585.36,-429.27 594.4,-423.75 583.89,-422.42 585.36,-429.27"/>
</a>
</g>
</g>
<!-- Node8 -->
<g id="Node000008" class="node">
<title>Node8</title>
<g id="a_Node000008"><a xlink:href="namespace_big_data_stat_meth.html#a3d06783149029f1df2853c472d401380" target="_top" xlink:title="Removes multiple elements from an HDF5 file.">
<polygon fill="white" stroke="#666666" points="525.75,-559.5 396.5,-559.5 396.5,-529 525.75,-529 525.75,-559.5"/>
<text xml:space="preserve" text-anchor="start" x="404.5" y="-546" font-family="Helvetica,sans-Serif" font-size="10.00">BigDataStatMeth::remove</text>
<text xml:space="preserve" text-anchor="middle" x="461.12" y="-534.75" font-family="Helvetica,sans-Serif" font-size="10.00">_elements</text>
</a>
</g>
</g>
<!-- Node2&#45;&gt;Node8 -->
<g id="edge8_Node000002_Node000008" class="edge">
<title>Node2&#45;&gt;Node8</title>
<g id="a_edge8_Node000002_Node000008"><a xlink:title=" ">
<path fill="none" stroke="#63b8ff" d="M293.46,-488.93C317.05,-498.2 347.82,-509.91 375.5,-519.25 381.54,-521.29 387.86,-523.33 394.2,-525.31"/>
<polygon fill="#63b8ff" stroke="#63b8ff" points="392.82,-528.54 403.41,-528.14 394.88,-521.85 392.82,-528.54"/>
</a>
</g>
</g>
<!-- Node6 -->
<g id="Node000006" class="node">
<title>Node6</title>
<g id="a_Node000006"><a xlink:href="namespace_big_data_stat_meth.html#abcaa4216cd52f03ebac42e4855ef846b" target="_top" xlink:title="Checks if a path exists in an HDF5 file.">
<polygon fill="white" stroke="#666666" points="912.5,-485.88 769,-485.88 769,-466.62 912.5,-466.62 912.5,-485.88"/>
<text xml:space="preserve" text-anchor="middle" x="840.75" y="-472.38" font-family="Helvetica,sans-Serif" font-size="10.00">BigDataStatMeth::pathExists</text>
</a>
</g>
</g>
<!-- Node5&#45;&gt;Node6 -->
<g id="edge5_Node000005_Node000006" class="edge">
<title>Node5&#45;&gt;Node6</title>
<g id="a_edge5_Node000005_Node000006"><a xlink:title=" ">
<path fill="none" stroke="#63b8ff" d="M700.37,-528.65C731.08,-517.11 772.55,-501.51 802.26,-490.34"/>
<polygon fill="#63b8ff" stroke="#63b8ff" points="803.48,-493.63 811.61,-486.83 801.01,-487.07 803.48,-493.63"/>
</a>
</g>
</g>
<!-- Node7&#45;&gt;Node6 -->
<g id="edge7_Node000007_Node000006" class="edge">
<title>Node7&#45;&gt;Node6</title>
<g id="a_edge7_Node000007_Node000006"><a xlink:title=" ">
<path fill="none" stroke="#63b8ff" d="M701.28,-424.96C731.74,-436.24 772.45,-451.32 801.83,-462.2"/>
<polygon fill="#63b8ff" stroke="#63b8ff" points="800.48,-465.44 811.07,-465.63 802.91,-458.87 800.48,-465.44"/>
</a>
</g>
</g>
<!-- Node11 -->
<g id="Node000011" class="node">
<title>Node11</title>
<g id="a_Node000011"><a xlink:href="class_big_data_stat_meth_1_1hdf5_dataset.html#aba39e56a580d3b1fa7f1619fc72efa3e" target="_top" xlink:title="Close dataset and file.">
<polygon fill="white" stroke="#666666" points="733,-219.5 582.75,-219.5 582.75,-189 733,-189 733,-219.5"/>
<text xml:space="preserve" text-anchor="start" x="590.75" y="-206" font-family="Helvetica,sans-Serif" font-size="10.00">BigDataStatMeth::hdf5Dataset</text>
<text xml:space="preserve" text-anchor="middle" x="657.88" y="-194.75" font-family="Helvetica,sans-Serif" font-size="10.00">::close_dataset_file</text>
</a>
</g>
</g>
<!-- Node10&#45;&gt;Node11 -->
<g id="edge11_Node000010_Node000011" class="edge">
<title>Node10&#45;&gt;Node11</title>
<g id="a_edge11_Node000010_Node000011"><a xlink:title=" ">
<path fill="none" stroke="#63b8ff" d="M536.59,-217.22C547.86,-216.01 559.57,-214.74 571.06,-213.5"/>
<polygon fill="#63b8ff" stroke="#63b8ff" points="571.38,-216.99 580.95,-212.44 570.63,-210.03 571.38,-216.99"/>
</a>
</g>
</g>
<!-- Node14&#45;&gt;Node4 -->
<g id="edge15_Node000014_Node000004" class="edge">
<title>Node14&#45;&gt;Node4</title>
<g id="a_edge15_Node000014_Node000004"><a xlink:title=" ">
<path fill="none" stroke="#63b8ff" d="M329.03,-381.83C346.84,-385.56 365.87,-389.54 383.76,-393.28"/>
<polygon fill="#63b8ff" stroke="#63b8ff" points="383.04,-396.71 393.55,-395.33 384.48,-389.85 383.04,-396.71"/>
</a>
</g>
</g>
<!-- Node14&#45;&gt;Node7 -->
<g id="edge16_Node000014_Node000007" class="edge">
<title>Node14&#45;&gt;Node7</title>
<g id="a_edge16_Node000014_Node000007"><a xlink:title=" ">
<path fill="none" stroke="#63b8ff" d="M328.98,-368.02C388.23,-370.17 473.11,-374.89 546.75,-385.25 559.19,-387 572.31,-389.38 585,-391.97"/>
<polygon fill="#63b8ff" stroke="#63b8ff" points="584.02,-395.34 594.52,-393.97 585.46,-388.49 584.02,-395.34"/>
</a>
</g>
</g>
<!-- Node15 -->
<g id="Node000015" class="node">
<title>Node15</title>
<g id="a_Node000015"><a xlink:href="class_big_data_stat_meth_1_1hdf5_dataset.html#a1ebc27e1f730bc4e611b844dbbb08e34" target="_top" xlink:title="Get an attribute from the dataset.">
<polygon fill="white" stroke="#666666" points="536.25,-338.5 386,-338.5 386,-308 536.25,-308 536.25,-338.5"/>
<text xml:space="preserve" text-anchor="start" x="394" y="-325" font-family="Helvetica,sans-Serif" font-size="10.00">BigDataStatMeth::hdf5Dataset</text>
<text xml:space="preserve" text-anchor="middle" x="461.12" y="-313.75" font-family="Helvetica,sans-Serif" font-size="10.00">::getAttribute</text>
</a>
</g>
</g>
<!-- Node14&#45;&gt;Node15 -->
<g id="edge17_Node000014_Node000015" class="edge">
<title>Node14&#45;&gt;Node15</title>
<g id="a_edge17_Node000014_Node000015"><a xlink:title=" ">
<path fill="none" stroke="#63b8ff" d="M329.03,-350.67C343.82,-347.57 359.47,-344.3 374.6,-341.13"/>
<polygon fill="#63b8ff" stroke="#63b8ff" points="374.95,-344.64 384.03,-339.16 373.52,-337.78 374.95,-344.64"/>
</a>
</g>
</g>
<!-- Node16 -->
<g id="Node000016" class="node">
<title>Node16</title>
<g id="a_Node000016"><a xlink:href="class_big_data_stat_meth_1_1hdf5_dataset.html#a945dd1d6f3db102a962d239045792f61" target="_top" xlink:title="Get dimensions of existing dataset.">
<polygon fill="white" stroke="#666666" points="536.25,-289.5 386,-289.5 386,-259 536.25,-259 536.25,-289.5"/>
<text xml:space="preserve" text-anchor="start" x="394" y="-276" font-family="Helvetica,sans-Serif" font-size="10.00">BigDataStatMeth::hdf5Dataset</text>
<text xml:space="preserve" text-anchor="middle" x="461.12" y="-264.75" font-family="Helvetica,sans-Serif" font-size="10.00">::getDimensExistingDataset</text>
</a>
</g>
</g>
<!-- Node14&#45;&gt;Node16 -->
<g id="edge20_Node000014_Node000016" class="edge">
<title>Node14&#45;&gt;Node16</title>
<g id="a_edge20_Node000014_Node000016"><a xlink:title=" ">
<path fill="none" stroke="#63b8ff" d="M321.58,-350.59C327.86,-347.93 333.95,-344.84 339.5,-341.25 360.14,-327.9 354.86,-312.61 375.5,-299.25 377.92,-297.68 380.44,-296.21 383.03,-294.83"/>
<polygon fill="#63b8ff" stroke="#63b8ff" points="384.44,-298.03 391.98,-290.58 381.44,-291.71 384.44,-298.03"/>
</a>
</g>
</g>
<!-- Node15&#45;&gt;Node7 -->
<g id="edge19_Node000015_Node000007" class="edge">
<title>Node15&#45;&gt;Node7</title>
<g id="a_edge19_Node000015_Node000007"><a xlink:title=" ">
<path fill="none" stroke="#63b8ff" d="M511.81,-338.91C523.4,-342.94 535.61,-347.49 546.75,-352.25 571.47,-362.82 598.29,-376.64 619.26,-388.03"/>
<polygon fill="#63b8ff" stroke="#63b8ff" points="617.58,-391.1 628.03,-392.84 620.95,-384.96 617.58,-391.1"/>
</a>
</g>
</g>
<!-- Node15&#45;&gt;Node11 -->
<g id="edge18_Node000015_Node000011" class="edge">
<title>Node15&#45;&gt;Node11</title>
<g id="a_edge18_Node000015_Node000011"><a xlink:title=" ">
<path fill="none" stroke="#63b8ff" d="M525.69,-307.67C532.98,-304.95 540.15,-301.83 546.75,-298.25 580.93,-279.71 614.01,-249.26 634.84,-228.05"/>
<polygon fill="#63b8ff" stroke="#63b8ff" points="637.26,-230.59 641.68,-220.96 632.22,-225.74 637.26,-230.59"/>
</a>
</g>
</g>
<!-- Node17&#45;&gt;Node11 -->
<g id="edge22_Node000017_Node000011" class="edge">
<title>Node17&#45;&gt;Node11</title>
<g id="a_edge22_Node000017_Node000011"><a xlink:title=" ">
<path fill="none" stroke="#63b8ff" d="M328.77,-186.31C397.31,-190.06 499.08,-195.62 571.07,-199.56"/>
<polygon fill="#63b8ff" stroke="#63b8ff" points="570.67,-203.04 580.85,-200.09 571.05,-196.05 570.67,-203.04"/>
</a>
</g>
</g>
<!-- Node20&#45;&gt;Node11 -->
<g id="edge27_Node000020_Node000011" class="edge">
<title>Node20&#45;&gt;Node11</title>
<g id="a_edge27_Node000020_Node000011"><a xlink:title=" ">
<path fill="none" stroke="#63b8ff" d="M329.09,-48.5C390.69,-43.1 478.73,-43.64 546.75,-77.25 591.45,-99.34 625.54,-148.51 643.27,-178.78"/>
<polygon fill="#63b8ff" stroke="#63b8ff" points="640.12,-180.33 648.1,-187.3 646.21,-176.88 640.12,-180.33"/>
</a>
</g>
</g>
<!-- Node21 -->
<g id="Node000021" class="node">
<title>Node21</title>
<g id="a_Node000021"><a xlink:href="class_big_data_stat_meth_1_1hdf5_dataset.html#a64177ae924792ea9e557febaa95ed400" target="_top" xlink:title="Close the dataset.">
<polygon fill="white" stroke="#666666" points="536.25,-30.5 386,-30.5 386,0 536.25,0 536.25,-30.5"/>
<text xml:space="preserve" text-anchor="start" x="394" y="-17" font-family="Helvetica,sans-Serif" font-size="10.00">BigDataStatMeth::hdf5Dataset</text>
<text xml:space="preserve" text-anchor="middle" x="461.12" y="-5.75" font-family="Helvetica,sans-Serif" font-size="10.00">::close_dataset</text>
</a>
</g>
</g>
<!-- Node20&#45;&gt;Node21 -->
<g id="edge26_Node000020_Node000021" class="edge">
<title>Node20&#45;&gt;Node21</title>
<g id="a_edge26_Node000020_Node000021"><a xlink:title=" ">
<path fill="none" stroke="#63b8ff" d="M327.86,-43.55C343.42,-40.22 359.96,-36.68 375.88,-33.28"/>
<polygon fill="#63b8ff" stroke="#63b8ff" points="376.26,-36.77 385.31,-31.26 374.8,-29.93 376.26,-36.77"/>
</a>
</g>
</g>
<!-- Node22 -->
<g id="Node000022" class="node">
<title>Node22</title>
<g id="a_Node000022"><a xlink:href="class_big_data_stat_meth_1_1hdf5_dataset.html#a94d81b72e92cb0230b4e64f37ea7d2e3" target="_top" xlink:title="Convert DataFrame to range list.">
<polygon fill="white" stroke="#666666" points="546.75,-154.5 375.5,-154.5 375.5,-124 546.75,-124 546.75,-154.5"/>
<text xml:space="preserve" text-anchor="start" x="383.5" y="-141" font-family="Helvetica,sans-Serif" font-size="10.00">BigDataStatMeth::hdf5Dataset</text>
<text xml:space="preserve" text-anchor="middle" x="461.12" y="-129.75" font-family="Helvetica,sans-Serif" font-size="10.00">::convert_DataFrame_to_RangeList</text>
</a>
</g>
</g>
<!-- Node20&#45;&gt;Node22 -->
<g id="edge28_Node000020_Node000022" class="edge">
<title>Node20&#45;&gt;Node22</title>
<g id="a_edge28_Node000020_Node000022"><a xlink:title=" ">
<path fill="none" stroke="#63b8ff" d="M321.1,-74.87C327.48,-77.3 333.72,-80.08 339.5,-83.25 358.28,-93.53 356.73,-104.96 375.5,-115.25 378.02,-116.63 380.63,-117.94 383.29,-119.18"/>
<polygon fill="#63b8ff" stroke="#63b8ff" points="381.85,-122.37 392.42,-123.02 384.57,-115.92 381.85,-122.37"/>
</a>
</g>
</g>
<!-- Node23 -->
<g id="Node000023" class="node">
<title>Node23</title>
<g id="a_Node000023"><a xlink:href="namespace_big_data_stat_meth.html#a2692707b3ea4aaafa09d07afaf632437" target="_top" xlink:title="Transposes a 2D matrix.">
<polygon fill="white" stroke="#666666" points="531,-105.88 391.25,-105.88 391.25,-86.62 531,-86.62 531,-105.88"/>
<text xml:space="preserve" text-anchor="middle" x="461.12" y="-92.38" font-family="Helvetica,sans-Serif" font-size="10.00">BigDataStatMeth::transpose</text>
</a>
</g>
</g>
<!-- Node20&#45;&gt;Node23 -->
<g id="edge29_Node000020_Node000023" class="edge">
<title>Node20&#45;&gt;Node23</title>
<g id="a_edge29_Node000020_Node000023"><a xlink:title=" ">
<path fill="none" stroke="#63b8ff" d="M329.03,-72.66C349.88,-76.41 372.41,-80.47 392.81,-84.14"/>
<polygon fill="#63b8ff" stroke="#63b8ff" points="391.96,-87.54 402.42,-85.87 393.2,-80.65 391.96,-87.54"/>
</a>
</g>
</g>
</g>
</svg>

<g id="navigator" transform="translate(0 0)" fill="#404254">
  <rect fill="#f2f5e9" fill-opacity="0.5" stroke="#606060" stroke-width=".5" x="0" y="0" width="60" height="60"/>
  <use id="zoomplus" xlink:href="#zoomPlus" x="17" y="9" onmousedown="handleZoom(evt,'in')"/>
  <use id="zoomminus" xlink:href="#zoomMin" x="42" y="9" onmousedown="handleZoom(evt,'out')"/>
  <use id="reset" xlink:href="#resetDef" x="30" y="36" onmousedown="handleReset()"/>
   <use id="arrowup" xlink:href="#arrowUp" x="0" y="0" onmousedown="handlePan(0,-1)"/>
  <use id="arrowright" xlink:href="#arrowRight" x="0" y="0" onmousedown="handlePan(1,0)"/>
  <use id="arrowdown" xlink:href="#arrowDown" x="0" y="0" onmousedown="handlePan(0,1)"/>
  <use id="arrowleft" xlink:href="#arrowLeft" x="0" y="0" onmousedown="handlePan(-1,0)"/>
</g>
<svg viewBox="0 0 15 15" width="100%" height="30px" preserveAspectRatio="xMaxYMin meet">
 <g id="arrow_out" transform="scale(0.3 0.3)">
  <a xlink:href="namespace_big_data_stat_meth_ace4db0f090681bfd8437fec76e8807bf_cgraph_org.svg" target="_base">
   <rect id="button" ry="5" rx="5" y="6" x="6" height="38" width="38"
        fill="#f2f5e9" fill-opacity="0.5" stroke="#606060" stroke-width="1.0"/>
   <path id="arrow"
     d="M 11.500037,31.436501 C 11.940474,20.09759 22.043105,11.32322 32.158766,21.979434 L 37.068811,17.246167 C 37.068811,17.246167 37.088388,32 37.088388,32 L 22.160133,31.978069 C 22.160133,31.978069 26.997745,27.140456 26.997745,27.140456 C 18.528582,18.264221 13.291696,25.230495 11.500037,31.436501 z"
     style="fill:#404040;"/>
  </a>
 </g>
</svg>

<style type='text/css'>
<![CDATA[
[data-mouse-over-selected='false'] { opacity: 0.7; }
[data-mouse-over-selected='true']  { opacity: 1.0; }
]]>
</style>
<script type="application/ecmascript"><![CDATA[
document.addEventListener('DOMContentLoaded', (event) => {
  highlightEdges();
  highlightAdjacentNodes();
});
]]></script>
</svg>
