<?xml version="1.0" encoding="UTF-8" standalone="no"?>
<!DOCTYPE svg PUBLIC "-//W3C//DTD SVG 1.1//EN"
 "http://www.w3.org/Graphics/SVG/1.1/DTD/svg11.dtd">
<!-- Generated by graphviz version 14.0.0 (20250921.2048)
 -->
<!-- Title: BigDataStatMeth::Rcpp_vector_add_hdf5 Pages: 1 -->
<!--zoomable 529 -->

<svg id="main" version="1.1" xmlns="http://www.w3.org/2000/svg" xmlns:xlink="http://www.w3.org/1999/xlink" xml:space="preserve" onload="init(evt)">

<style type="text/css"><![CDATA[
.node, .edge {opacity: 0.7;}
.node.selected, .edge.selected {opacity: 1;}
.edge:hover path { stroke: red; }
.edge:hover polygon { stroke: red; fill: red; }
]]></style>

<defs>
  <circle id="rim" cx="0" cy="0" r="7"/>
  <circle id="rim2" cx="0" cy="0" r="3.5"/>
  <g id="zoomPlus">
    <use xlink:href="#rim" fill="#404040"><set attributeName="fill" to="#808080" begin="zoomplus.mouseover" end="zoomplus.mouseout"/></use>
    <path d="M-4,0h8M0,-4v8" fill="none" stroke="white" stroke-width="1.5" pointer-events="none"/>
  </g>
  <g id="zoomMin">
    <use xlink:href="#rim" fill="#404040"><set attributeName="fill" to="#808080" begin="zoomminus.mouseover" end="zoomminus.mouseout"/></use>
    <path d="M-4,0h8" fill="none" stroke="white" stroke-width="1.5" pointer-events="none"/>
  </g>
  <g id="arrowUp" transform="translate(30 24)">
    <use xlink:href="#rim"/>
    <path pointer-events="none" fill="none" stroke="white" stroke-width="1.5" d="M0,-3.0v7 M-2.5,-0.5L0,-3.0L2.5,-0.5"/>
  </g>
  <g id="arrowRight" transform="rotate(90) translate(36 -43)">
    <use xlink:href="#rim"/>
    <path pointer-events="none" fill="none" stroke="white" stroke-width="1.5" d="M0,-3.0v7 M-2.5,-0.5L0,-3.0L2.5,-0.5"/>
  </g>
  <g id="arrowDown" transform="rotate(180) translate(-30 -48)">
    <use xlink:href="#rim"/>
    <path pointer-events="none" fill="none" stroke="white" stroke-width="1.5" d="M0,-3.0v7 M-2.5,-0.5L0,-3.0L2.5,-0.5"/>
  </g>
  <g id="arrowLeft" transform="rotate(270) translate(-36 17)">
    <use xlink:href="#rim"/>
    <path pointer-events="none" fill="none" stroke="white" stroke-width="1.5" d="M0,-3.0v7 M-2.5,-0.5L0,-3.0L2.5,-0.5"/>
  </g>
  <g id="resetDef">
    <use xlink:href="#rim2" fill="#404040"><set attributeName="fill" to="#808080" begin="reset.mouseover" end="reset.mouseout"/></use>
  </g>
</defs>
<script type="application/ecmascript">
var viewWidth = 725;
var viewHeight = 529;
var sectionId = 'dynsection-113';
</script>
<script type="application/ecmascript" xlink:href="../../../../assets/svg.min.js"/>
<svg id="graph" class="graph">
<g id="viewport">
<title>BigDataStatMeth::Rcpp_vector_add_hdf5</title>
<!-- Node1 -->
<g id="Node000001" class="node">
<title>Node1</title>
<g id="a_Node000001"><a xlink:title="Pure vector addition for HDF5 vectors.">
<polygon fill="#999999" stroke="#666666" points="120.25,-144.87 0,-144.87 0,-114.37 120.25,-114.37 120.25,-144.87"/>
<text xml:space="preserve" text-anchor="start" x="8" y="-131.37" font-family="Helvetica,sans-Serif" font-size="10.00">BigDataStatMeth::Rcpp</text>
<text xml:space="preserve" text-anchor="middle" x="60.12" y="-120.12" font-family="Helvetica,sans-Serif" font-size="10.00">_vector_add_hdf5</text>
</a>
</g>
</g>
<!-- Node2 -->
<g id="Node000002" class="node">
<title>Node2</title>
<g id="a_Node000002"><a xlink:href="namespace_big_data_stat_meth.html#a304b42b14ec87d4acc6f34ff0231529d" target="_top" xlink:title="Safely close any number of dataset handles (C++17).">
<polygon fill="white" stroke="#666666" points="323,-362.25 156.25,-362.25 156.25,-343 323,-343 323,-362.25"/>
<text xml:space="preserve" text-anchor="middle" x="239.62" y="-348.75" font-family="Helvetica,sans-Serif" font-size="10.00">BigDataStatMeth::checkClose_file</text>
</a>
</g>
</g>
<!-- Node1&#45;&gt;Node2 -->
<g id="edge1_Node000001_Node000002" class="edge">
<title>Node1&#45;&gt;Node2</title>
<g id="a_edge1_Node000001_Node000002"><a xlink:title=" ">
<path fill="none" stroke="#63b8ff" d="M63.64,-145.25C70.67,-183.7 94.29,-283.46 156.25,-333.62 157.78,-334.86 159.37,-336.02 161.02,-337.11"/>
<polygon fill="#63b8ff" stroke="#63b8ff" points="159.21,-340.11 169.67,-341.85 162.58,-333.97 159.21,-340.11"/>
</a>
</g>
</g>
<!-- Node3 -->
<g id="Node000003" class="node">
<title>Node3</title>
<g id="a_Node000003"><a xlink:href="class_big_data_stat_meth_1_1hdf5_dataset.html#ab19bac9a31efe4a733294c1c23ff5ef7" target="_top" xlink:title="Create a new dataset with optional compression.">
<polygon fill="white" stroke="#666666" points="314.75,-324.87 164.5,-324.87 164.5,-294.37 314.75,-294.37 314.75,-324.87"/>
<text xml:space="preserve" text-anchor="start" x="172.5" y="-311.37" font-family="Helvetica,sans-Serif" font-size="10.00">BigDataStatMeth::hdf5Dataset</text>
<text xml:space="preserve" text-anchor="middle" x="239.62" y="-300.12" font-family="Helvetica,sans-Serif" font-size="10.00">::createDataset</text>
</a>
</g>
</g>
<!-- Node1&#45;&gt;Node3 -->
<g id="edge2_Node000001_Node000003" class="edge">
<title>Node1&#45;&gt;Node3</title>
<g id="a_edge2_Node000001_Node000003"><a xlink:title=" ">
<path fill="none" stroke="#63b8ff" d="M76.57,-145.28C107.85,-177.01 178.87,-249.03 215.63,-286.3"/>
<polygon fill="#63b8ff" stroke="#63b8ff" points="212.77,-288.39 222.28,-293.05 217.75,-283.47 212.77,-288.39"/>
</a>
</g>
</g>
<!-- Node14 -->
<g id="Node000014" class="node">
<title>Node14</title>
<g id="a_Node000014"><a xlink:href="class_big_data_stat_meth_1_1hdf5_dataset.html#aa743c8c46d7ff3bb2f894145dd07fd8a" target="_top" xlink:title="Get number of columns in internal format.">
<polygon fill="white" stroke="#666666" points="509.25,-88.87 359,-88.87 359,-58.37 509.25,-58.37 509.25,-88.87"/>
<text xml:space="preserve" text-anchor="start" x="367" y="-75.37" font-family="Helvetica,sans-Serif" font-size="10.00">BigDataStatMeth::hdf5Dataset</text>
<text xml:space="preserve" text-anchor="middle" x="434.12" y="-64.12" font-family="Helvetica,sans-Serif" font-size="10.00">::ncols</text>
</a>
</g>
</g>
<!-- Node1&#45;&gt;Node14 -->
<g id="edge14_Node000001_Node000014" class="edge">
<title>Node1&#45;&gt;Node14</title>
<g id="a_edge14_Node000001_Node000014"><a xlink:title=" ">
<path fill="none" stroke="#63b8ff" d="M120.48,-120.69C181.69,-111.48 277.74,-97.02 347.24,-86.55"/>
<polygon fill="#63b8ff" stroke="#63b8ff" points="347.72,-90.02 357.09,-85.07 346.68,-83.1 347.72,-90.02"/>
</a>
</g>
</g>
<!-- Node15 -->
<g id="Node000015" class="node">
<title>Node15</title>
<g id="a_Node000015"><a xlink:href="class_big_data_stat_meth_1_1hdf5_dataset.html#a6cbce676967d0cc4b50e2cc5282c322b" target="_top" xlink:title="Get number of rows in internal format.">
<polygon fill="white" stroke="#666666" points="509.25,-33.87 359,-33.87 359,-3.37 509.25,-3.37 509.25,-33.87"/>
<text xml:space="preserve" text-anchor="start" x="367" y="-20.37" font-family="Helvetica,sans-Serif" font-size="10.00">BigDataStatMeth::hdf5Dataset</text>
<text xml:space="preserve" text-anchor="middle" x="434.12" y="-9.12" font-family="Helvetica,sans-Serif" font-size="10.00">::nrows</text>
</a>
</g>
</g>
<!-- Node1&#45;&gt;Node15 -->
<g id="edge15_Node000001_Node000015" class="edge">
<title>Node1&#45;&gt;Node15</title>
<g id="a_edge15_Node000001_Node000015"><a xlink:title=" ">
<path fill="none" stroke="#63b8ff" d="M69.46,-114.24C83.61,-89.94 114.85,-43.52 156.25,-24.62 216.02,2.65 290.86,2.52 347.66,-3.53"/>
<polygon fill="#63b8ff" stroke="#63b8ff" points="346.93,-6.97 357.27,-4.64 347.73,-0.02 346.93,-6.97"/>
</a>
</g>
</g>
<!-- Node16 -->
<g id="Node000016" class="node">
<title>Node16</title>
<g id="a_Node000016"><a xlink:href="class_big_data_stat_meth_1_1hdf5_dataset.html#a23bea87165b8ef6b944709c5b2cbd0cf" target="_top" xlink:title=" ">
<polygon fill="white" stroke="#666666" points="314.75,-187.87 164.5,-187.87 164.5,-157.37 314.75,-157.37 314.75,-187.87"/>
<text xml:space="preserve" text-anchor="start" x="172.5" y="-174.37" font-family="Helvetica,sans-Serif" font-size="10.00">BigDataStatMeth::hdf5Dataset</text>
<text xml:space="preserve" text-anchor="middle" x="239.62" y="-163.12" font-family="Helvetica,sans-Serif" font-size="10.00">::readDatasetBlock</text>
</a>
</g>
</g>
<!-- Node1&#45;&gt;Node16 -->
<g id="edge16_Node000001_Node000016" class="edge">
<title>Node1&#45;&gt;Node16</title>
<g id="a_edge16_Node000001_Node000016"><a xlink:title=" ">
<path fill="none" stroke="#63b8ff" d="M120.72,-144.06C134.15,-147.32 148.59,-150.81 162.59,-154.2"/>
<polygon fill="#63b8ff" stroke="#63b8ff" points="161.68,-157.59 172.23,-156.54 163.33,-150.78 161.68,-157.59"/>
</a>
</g>
</g>
<!-- Node17 -->
<g id="Node000017" class="node">
<title>Node17</title>
<g id="a_Node000017"><a xlink:href="namespace_big_data_stat_meth.html#a3e971b9e18c173dc231e115d07b622fd" target="_top" xlink:title="Validates that dataset is a vector and returns its size.">
<polygon fill="white" stroke="#666666" points="305,-63.87 174.25,-63.87 174.25,-33.37 305,-33.37 305,-63.87"/>
<text xml:space="preserve" text-anchor="start" x="182.25" y="-50.37" font-family="Helvetica,sans-Serif" font-size="10.00">BigDataStatMeth::validate</text>
<text xml:space="preserve" text-anchor="middle" x="239.62" y="-39.12" font-family="Helvetica,sans-Serif" font-size="10.00">Vector</text>
</a>
</g>
</g>
<!-- Node1&#45;&gt;Node17 -->
<g id="edge18_Node000001_Node000017" class="edge">
<title>Node1&#45;&gt;Node17</title>
<g id="a_edge18_Node000001_Node000017"><a xlink:title=" ">
<path fill="none" stroke="#63b8ff" d="M87.19,-113.88C105.99,-102.9 132.18,-88.35 156.25,-77.62 163.58,-74.36 171.4,-71.2 179.2,-68.25"/>
<polygon fill="#63b8ff" stroke="#63b8ff" points="180.17,-71.62 188.34,-64.88 177.75,-65.05 180.17,-71.62"/>
</a>
</g>
</g>
<!-- Node18 -->
<g id="Node000018" class="node">
<title>Node18</title>
<g id="a_Node000018"><a xlink:href="class_big_data_stat_meth_1_1hdf5_dataset.html#af606176d84a63561b65702b6fde3a583" target="_top" xlink:title="Write block of data with optional transposition.">
<polygon fill="white" stroke="#666666" points="509.25,-140.87 359,-140.87 359,-110.37 509.25,-110.37 509.25,-140.87"/>
<text xml:space="preserve" text-anchor="start" x="367" y="-127.37" font-family="Helvetica,sans-Serif" font-size="10.00">BigDataStatMeth::hdf5Dataset</text>
<text xml:space="preserve" text-anchor="middle" x="434.12" y="-116.12" font-family="Helvetica,sans-Serif" font-size="10.00">::writeDatasetBlock</text>
</a>
</g>
</g>
<!-- Node1&#45;&gt;Node18 -->
<g id="edge21_Node000001_Node000018" class="edge">
<title>Node1&#45;&gt;Node18</title>
<g id="a_edge21_Node000001_Node000018"><a xlink:title=" ">
<path fill="none" stroke="#63b8ff" d="M120.48,-128.99C181.69,-128.33 277.74,-127.3 347.24,-126.55"/>
<polygon fill="#63b8ff" stroke="#63b8ff" points="347.11,-130.05 357.07,-126.44 347.03,-123.05 347.11,-130.05"/>
</a>
</g>
</g>
<!-- Node4 -->
<g id="Node000004" class="node">
<title>Node4</title>
<g id="a_Node000004"><a xlink:href="class_big_data_stat_meth_1_1hdf5_dataset.html#ac7a7f23b7e22c9b56ca6ad86592f2d52" target="_top" xlink:title="Add an attribute to the dataset.">
<polygon fill="white" stroke="#666666" points="509.25,-324.87 359,-324.87 359,-294.37 509.25,-294.37 509.25,-324.87"/>
<text xml:space="preserve" text-anchor="start" x="367" y="-311.37" font-family="Helvetica,sans-Serif" font-size="10.00">BigDataStatMeth::hdf5Dataset</text>
<text xml:space="preserve" text-anchor="middle" x="434.12" y="-300.12" font-family="Helvetica,sans-Serif" font-size="10.00">::addAttribute</text>
</a>
</g>
</g>
<!-- Node3&#45;&gt;Node4 -->
<g id="edge3_Node000003_Node000004" class="edge">
<title>Node3&#45;&gt;Node4</title>
<g id="a_edge3_Node000003_Node000004"><a xlink:title=" ">
<path fill="none" stroke="#63b8ff" d="M315.05,-309.62C325.54,-309.62 336.39,-309.62 347.08,-309.62"/>
<polygon fill="#63b8ff" stroke="#63b8ff" points="347.07,-313.12 357.07,-309.62 347.07,-306.12 347.07,-313.12"/>
</a>
</g>
</g>
<!-- Node5 -->
<g id="Node000005" class="node">
<title>Node5</title>
<g id="a_Node000005"><a xlink:href="class_big_data_stat_meth_1_1hdf5_file.html#abfb73b5f1eb25ee00489485c8dc56a2a" target="_top" xlink:title="Close file and cleanup resources.">
<polygon fill="white" stroke="#666666" points="499.88,-275.87 368.38,-275.87 368.38,-245.37 499.88,-245.37 499.88,-275.87"/>
<text xml:space="preserve" text-anchor="start" x="376.38" y="-262.37" font-family="Helvetica,sans-Serif" font-size="10.00">BigDataStatMeth::hdf5File</text>
<text xml:space="preserve" text-anchor="middle" x="434.12" y="-251.12" font-family="Helvetica,sans-Serif" font-size="10.00">::close_file</text>
</a>
</g>
</g>
<!-- Node3&#45;&gt;Node5 -->
<g id="edge4_Node000003_Node000005" class="edge">
<title>Node3&#45;&gt;Node5</title>
<g id="a_edge4_Node000003_Node000005"><a xlink:title=" ">
<path fill="none" stroke="#63b8ff" d="M302.33,-293.92C320.81,-289.22 341.24,-284.01 360.36,-279.15"/>
<polygon fill="#63b8ff" stroke="#63b8ff" points="361.15,-282.56 369.97,-276.7 359.42,-275.77 361.15,-282.56"/>
</a>
</g>
</g>
<!-- Node6 -->
<g id="Node000006" class="node">
<title>Node6</title>
<g id="a_Node000006"><a xlink:href="class_big_data_stat_meth_1_1hdf5_group.html#a27cef4d33e46c72bfd792aa49fa621a3" target="_top" xlink:title="Create multiple nested groups.">
<polygon fill="white" stroke="#666666" points="505.12,-520.87 363.12,-520.87 363.12,-490.37 505.12,-490.37 505.12,-520.87"/>
<text xml:space="preserve" text-anchor="start" x="371.12" y="-507.37" font-family="Helvetica,sans-Serif" font-size="10.00">BigDataStatMeth::hdf5Group</text>
<text xml:space="preserve" text-anchor="middle" x="434.12" y="-496.12" font-family="Helvetica,sans-Serif" font-size="10.00">::create_HDF5_groups</text>
</a>
</g>
</g>
<!-- Node3&#45;&gt;Node6 -->
<g id="edge5_Node000003_Node000006" class="edge">
<title>Node3&#45;&gt;Node6</title>
<g id="a_edge5_Node000003_Node000006"><a xlink:title=" ">
<path fill="none" stroke="#63b8ff" d="M312.65,-325.17C316.41,-327.6 319.91,-330.4 323,-333.62 369.52,-382.21 313.5,-431.08 359,-480.62 359.72,-481.41 360.47,-482.18 361.24,-482.91"/>
<polygon fill="#63b8ff" stroke="#63b8ff" points="359.07,-485.66 369.12,-489.02 363.36,-480.13 359.07,-485.66"/>
</a>
</g>
</g>
<!-- Node8 -->
<g id="Node000008" class="node">
<title>Node8</title>
<g id="a_Node000008"><a xlink:href="namespace_big_data_stat_meth.html#a89d901ab4b5e01771f4e3fc7dc84e50e" target="_top" xlink:title="Checks if an HDF5 element (group or dataset) exists.">
<polygon fill="white" stroke="#666666" points="495.75,-373.87 372.5,-373.87 372.5,-343.37 495.75,-343.37 495.75,-373.87"/>
<text xml:space="preserve" text-anchor="start" x="380.5" y="-360.37" font-family="Helvetica,sans-Serif" font-size="10.00">BigDataStatMeth::exists</text>
<text xml:space="preserve" text-anchor="middle" x="434.12" y="-349.12" font-family="Helvetica,sans-Serif" font-size="10.00">_HDF5_element</text>
</a>
</g>
</g>
<!-- Node3&#45;&gt;Node8 -->
<g id="edge7_Node000003_Node000008" class="edge">
<title>Node3&#45;&gt;Node8</title>
<g id="a_edge7_Node000003_Node000008"><a xlink:title=" ">
<path fill="none" stroke="#63b8ff" d="M302.33,-325.33C321.08,-330.1 341.84,-335.39 361.2,-340.32"/>
<polygon fill="#63b8ff" stroke="#63b8ff" points="360.08,-343.64 370.63,-342.72 361.81,-336.86 360.08,-343.64"/>
</a>
</g>
</g>
<!-- Node9 -->
<g id="Node000009" class="node">
<title>Node9</title>
<g id="a_Node000009"><a xlink:href="class_big_data_stat_meth_1_1hdf5_group.html#a59995412538627e6c80f64b552c286f5" target="_top" xlink:title=" ">
<polygon fill="white" stroke="#666666" points="505.12,-471.87 363.12,-471.87 363.12,-441.37 505.12,-441.37 505.12,-471.87"/>
<text xml:space="preserve" text-anchor="start" x="371.12" y="-458.37" font-family="Helvetica,sans-Serif" font-size="10.00">BigDataStatMeth::hdf5Group</text>
<text xml:space="preserve" text-anchor="middle" x="434.12" y="-447.12" font-family="Helvetica,sans-Serif" font-size="10.00">::getGroupName</text>
</a>
</g>
</g>
<!-- Node3&#45;&gt;Node9 -->
<g id="edge9_Node000003_Node000009" class="edge">
<title>Node3&#45;&gt;Node9</title>
<g id="a_edge9_Node000003_Node000009"><a xlink:title=" ">
<path fill="none" stroke="#63b8ff" d="M311.85,-325.35C315.86,-327.73 319.62,-330.47 323,-333.62 356.92,-365.29 325.75,-399.26 359,-431.62 360.04,-432.64 361.12,-433.61 362.24,-434.54"/>
<polygon fill="#63b8ff" stroke="#63b8ff" points="360.01,-437.25 370.22,-440.08 364,-431.5 360.01,-437.25"/>
</a>
</g>
</g>
<!-- Node10 -->
<g id="Node000010" class="node">
<title>Node10</title>
<g id="a_Node000010"><a xlink:href="namespace_big_data_stat_meth.html#a3d06783149029f1df2853c472d401380" target="_top" xlink:title="Removes multiple elements from an HDF5 file.">
<polygon fill="white" stroke="#666666" points="498.75,-422.87 369.5,-422.87 369.5,-392.37 498.75,-392.37 498.75,-422.87"/>
<text xml:space="preserve" text-anchor="start" x="377.5" y="-409.37" font-family="Helvetica,sans-Serif" font-size="10.00">BigDataStatMeth::remove</text>
<text xml:space="preserve" text-anchor="middle" x="434.12" y="-398.12" font-family="Helvetica,sans-Serif" font-size="10.00">_elements</text>
</a>
</g>
</g>
<!-- Node3&#45;&gt;Node10 -->
<g id="edge10_Node000003_Node000010" class="edge">
<title>Node3&#45;&gt;Node10</title>
<g id="a_edge10_Node000003_Node000010"><a xlink:title=" ">
<path fill="none" stroke="#63b8ff" d="M308.42,-325.33C313.55,-327.72 318.48,-330.47 323,-333.62 345.14,-349.11 337.18,-366.68 359,-382.62 360.93,-384.03 362.94,-385.37 365.02,-386.63"/>
<polygon fill="#63b8ff" stroke="#63b8ff" points="363.32,-389.69 373.79,-391.31 366.61,-383.51 363.32,-389.69"/>
</a>
</g>
</g>
<!-- Node11 -->
<g id="Node000011" class="node">
<title>Node11</title>
<g id="a_Node000011"><a xlink:href="class_big_data_stat_meth_1_1hdf5_dataset.html#acf9843abcb57a0090f1635cc69d95300" target="_top" xlink:title="Write data to the dataset.">
<polygon fill="white" stroke="#666666" points="509.25,-226.87 359,-226.87 359,-196.37 509.25,-196.37 509.25,-226.87"/>
<text xml:space="preserve" text-anchor="start" x="367" y="-213.37" font-family="Helvetica,sans-Serif" font-size="10.00">BigDataStatMeth::hdf5Dataset</text>
<text xml:space="preserve" text-anchor="middle" x="434.12" y="-202.12" font-family="Helvetica,sans-Serif" font-size="10.00">::writeDataset</text>
</a>
</g>
</g>
<!-- Node3&#45;&gt;Node11 -->
<g id="edge11_Node000003_Node000011" class="edge">
<title>Node3&#45;&gt;Node11</title>
<g id="a_edge11_Node000003_Node000011"><a xlink:title=" ">
<path fill="none" stroke="#63b8ff" d="M262.46,-294.05C285.59,-278.07 323.59,-253.25 359,-236.62 362.79,-234.85 366.74,-233.13 370.76,-231.5"/>
<polygon fill="#63b8ff" stroke="#63b8ff" points="372.01,-234.76 380.08,-227.89 369.49,-228.24 372.01,-234.76"/>
</a>
</g>
</g>
<!-- Node7 -->
<g id="Node000007" class="node">
<title>Node7</title>
<g id="a_Node000007"><a xlink:href="namespace_big_data_stat_meth.html#abcaa4216cd52f03ebac42e4855ef846b" target="_top" xlink:title="Checks if a path exists in an HDF5 file.">
<polygon fill="white" stroke="#666666" points="702.62,-441.25 559.12,-441.25 559.12,-422 702.62,-422 702.62,-441.25"/>
<text xml:space="preserve" text-anchor="middle" x="630.88" y="-427.75" font-family="Helvetica,sans-Serif" font-size="10.00">BigDataStatMeth::pathExists</text>
</a>
</g>
</g>
<!-- Node6&#45;&gt;Node7 -->
<g id="edge6_Node000006_Node000007" class="edge">
<title>Node6&#45;&gt;Node7</title>
<g id="a_edge6_Node000006_Node000007"><a xlink:title=" ">
<path fill="none" stroke="#63b8ff" d="M483.12,-489.91C491.85,-486.92 500.85,-483.75 509.25,-480.62 538.83,-469.64 572.03,-456.06 596.09,-445.99"/>
<polygon fill="#63b8ff" stroke="#63b8ff" points="597.21,-449.32 605.07,-442.21 594.49,-442.86 597.21,-449.32"/>
</a>
</g>
</g>
<!-- Node8&#45;&gt;Node7 -->
<g id="edge8_Node000008_Node000007" class="edge">
<title>Node8&#45;&gt;Node7</title>
<g id="a_edge8_Node000008_Node000007"><a xlink:title=" ">
<path fill="none" stroke="#63b8ff" d="M482.71,-374.25C491.56,-377.28 500.71,-380.49 509.25,-383.62 538.61,-394.41 571.57,-407.6 595.62,-417.43"/>
<polygon fill="#63b8ff" stroke="#63b8ff" points="594.01,-420.55 604.59,-421.11 596.67,-414.07 594.01,-420.55"/>
</a>
</g>
</g>
<!-- Node12 -->
<g id="Node000012" class="node">
<title>Node12</title>
<g id="a_Node000012"><a xlink:href="class_big_data_stat_meth_1_1hdf5_dataset.html#aba39e56a580d3b1fa7f1619fc72efa3e" target="_top" xlink:title="Close dataset and file.">
<polygon fill="white" stroke="#666666" points="706,-183.87 555.75,-183.87 555.75,-153.37 706,-153.37 706,-183.87"/>
<text xml:space="preserve" text-anchor="start" x="563.75" y="-170.37" font-family="Helvetica,sans-Serif" font-size="10.00">BigDataStatMeth::hdf5Dataset</text>
<text xml:space="preserve" text-anchor="middle" x="630.88" y="-159.12" font-family="Helvetica,sans-Serif" font-size="10.00">::close_dataset_file</text>
</a>
</g>
</g>
<!-- Node11&#45;&gt;Node12 -->
<g id="edge12_Node000011_Node000012" class="edge">
<title>Node11&#45;&gt;Node12</title>
<g id="a_edge12_Node000011_Node000012"><a xlink:title=" ">
<path fill="none" stroke="#63b8ff" d="M506.26,-195.92C519.72,-192.95 533.91,-189.81 547.67,-186.77"/>
<polygon fill="#63b8ff" stroke="#63b8ff" points="548.12,-190.26 557.13,-184.69 546.61,-183.43 548.12,-190.26"/>
</a>
</g>
</g>
<!-- Node13 -->
<g id="Node000013" class="node">
<title>Node13</title>
<g id="a_Node000013"><a xlink:href="class_big_data_stat_meth_1_1hdf5_dataset.html#a94d81b72e92cb0230b4e64f37ea7d2e3" target="_top" xlink:title="Convert DataFrame to range list.">
<polygon fill="white" stroke="#666666" points="716.5,-232.87 545.25,-232.87 545.25,-202.37 716.5,-202.37 716.5,-232.87"/>
<text xml:space="preserve" text-anchor="start" x="553.25" y="-219.37" font-family="Helvetica,sans-Serif" font-size="10.00">BigDataStatMeth::hdf5Dataset</text>
<text xml:space="preserve" text-anchor="middle" x="630.88" y="-208.12" font-family="Helvetica,sans-Serif" font-size="10.00">::convert_DataFrame_to_RangeList</text>
</a>
</g>
</g>
<!-- Node11&#45;&gt;Node13 -->
<g id="edge13_Node000011_Node000013" class="edge">
<title>Node11&#45;&gt;Node13</title>
<g id="a_edge13_Node000011_Node000013"><a xlink:title=" ">
<path fill="none" stroke="#63b8ff" d="M509.59,-213.92C517.47,-214.16 525.56,-214.41 533.65,-214.66"/>
<polygon fill="#63b8ff" stroke="#63b8ff" points="533.43,-218.15 543.53,-214.96 533.65,-211.16 533.43,-218.15"/>
</a>
</g>
</g>
<!-- Node16&#45;&gt;Node12 -->
<g id="edge17_Node000016_Node000012" class="edge">
<title>Node16&#45;&gt;Node12</title>
<g id="a_edge17_Node000016_Node000012"><a xlink:title=" ">
<path fill="none" stroke="#63b8ff" d="M315.22,-171.86C380.67,-171.19 475.83,-170.21 544.35,-169.5"/>
<polygon fill="#63b8ff" stroke="#63b8ff" points="544.06,-173.01 554.02,-169.4 543.99,-166.01 544.06,-173.01"/>
</a>
</g>
</g>
<!-- Node17&#45;&gt;Node14 -->
<g id="edge19_Node000017_Node000014" class="edge">
<title>Node17&#45;&gt;Node14</title>
<g id="a_edge19_Node000017_Node000014"><a xlink:title=" ">
<path fill="none" stroke="#63b8ff" d="M305.26,-57.02C318.79,-58.78 333.26,-60.66 347.42,-62.49"/>
<polygon fill="#63b8ff" stroke="#63b8ff" points="346.82,-65.95 357.19,-63.76 347.72,-59 346.82,-65.95"/>
</a>
</g>
</g>
<!-- Node17&#45;&gt;Node15 -->
<g id="edge20_Node000017_Node000015" class="edge">
<title>Node17&#45;&gt;Node15</title>
<g id="a_edge20_Node000017_Node000015"><a xlink:title=" ">
<path fill="none" stroke="#63b8ff" d="M305.26,-38.55C318.79,-36.44 333.26,-34.19 347.42,-31.98"/>
<polygon fill="#63b8ff" stroke="#63b8ff" points="347.85,-35.46 357.19,-30.46 346.77,-28.54 347.85,-35.46"/>
</a>
</g>
</g>
<!-- Node18&#45;&gt;Node12 -->
<g id="edge23_Node000018_Node000012" class="edge">
<title>Node18&#45;&gt;Node12</title>
<g id="a_edge23_Node000018_Node000012"><a xlink:title=" ">
<path fill="none" stroke="#63b8ff" d="M506.26,-141.33C519.72,-144.3 533.91,-147.43 547.67,-150.48"/>
<polygon fill="#63b8ff" stroke="#63b8ff" points="546.61,-153.82 557.13,-152.56 548.12,-146.99 546.61,-153.82"/>
</a>
</g>
</g>
<!-- Node18&#45;&gt;Node13 -->
<g id="edge24_Node000018_Node000013" class="edge">
<title>Node18&#45;&gt;Node13</title>
<g id="a_edge24_Node000018_Node000013"><a xlink:title=" ">
<path fill="none" stroke="#63b8ff" d="M456.97,-141.27C478.55,-156.14 512.92,-178.31 545.25,-192.62 549.58,-194.54 554.11,-196.36 558.71,-198.08"/>
<polygon fill="#63b8ff" stroke="#63b8ff" points="557.52,-201.37 568.11,-201.4 559.84,-194.77 557.52,-201.37"/>
</a>
</g>
</g>
<!-- Node19 -->
<g id="Node000019" class="node">
<title>Node19</title>
<g id="a_Node000019"><a xlink:href="class_big_data_stat_meth_1_1hdf5_dataset.html#a64177ae924792ea9e557febaa95ed400" target="_top" xlink:title="Close the dataset.">
<polygon fill="white" stroke="#666666" points="706,-97.87 555.75,-97.87 555.75,-67.37 706,-67.37 706,-97.87"/>
<text xml:space="preserve" text-anchor="start" x="563.75" y="-84.37" font-family="Helvetica,sans-Serif" font-size="10.00">BigDataStatMeth::hdf5Dataset</text>
<text xml:space="preserve" text-anchor="middle" x="630.88" y="-73.12" font-family="Helvetica,sans-Serif" font-size="10.00">::close_dataset</text>
</a>
</g>
</g>
<!-- Node18&#45;&gt;Node19 -->
<g id="edge22_Node000018_Node000019" class="edge">
<title>Node18&#45;&gt;Node19</title>
<g id="a_edge22_Node000018_Node000019"><a xlink:title=" ">
<path fill="none" stroke="#63b8ff" d="M506.26,-109.92C519.72,-106.95 533.91,-103.81 547.67,-100.77"/>
<polygon fill="#63b8ff" stroke="#63b8ff" points="548.12,-104.26 557.13,-98.69 546.61,-97.43 548.12,-104.26"/>
</a>
</g>
</g>
<!-- Node20 -->
<g id="Node000020" class="node">
<title>Node20</title>
<g id="a_Node000020"><a xlink:href="namespace_big_data_stat_meth.html#a2692707b3ea4aaafa09d07afaf632437" target="_top" xlink:title="Transposes a 2D matrix.">
<polygon fill="white" stroke="#666666" points="700.75,-135.25 561,-135.25 561,-116 700.75,-116 700.75,-135.25"/>
<text xml:space="preserve" text-anchor="middle" x="630.88" y="-121.75" font-family="Helvetica,sans-Serif" font-size="10.00">BigDataStatMeth::transpose</text>
</a>
</g>
</g>
<!-- Node18&#45;&gt;Node20 -->
<g id="edge25_Node000018_Node000020" class="edge">
<title>Node18&#45;&gt;Node20</title>
<g id="a_edge25_Node000018_Node000020"><a xlink:title=" ">
<path fill="none" stroke="#63b8ff" d="M509.59,-125.62C522.54,-125.62 536.07,-125.62 549.18,-125.62"/>
<polygon fill="#63b8ff" stroke="#63b8ff" points="549.06,-129.12 559.06,-125.62 549.06,-122.12 549.06,-129.12"/>
</a>
</g>
</g>
</g>
</svg>

<g id="navigator" transform="translate(0 0)" fill="#404254">
  <rect fill="#f2f5e9" fill-opacity="0.5" stroke="#606060" stroke-width=".5" x="0" y="0" width="60" height="60"/>
  <use id="zoomplus" xlink:href="#zoomPlus" x="17" y="9" onmousedown="handleZoom(evt,'in')"/>
  <use id="zoomminus" xlink:href="#zoomMin" x="42" y="9" onmousedown="handleZoom(evt,'out')"/>
  <use id="reset" xlink:href="#resetDef" x="30" y="36" onmousedown="handleReset()"/>
   <use id="arrowup" xlink:href="#arrowUp" x="0" y="0" onmousedown="handlePan(0,-1)"/>
  <use id="arrowright" xlink:href="#arrowRight" x="0" y="0" onmousedown="handlePan(1,0)"/>
  <use id="arrowdown" xlink:href="#arrowDown" x="0" y="0" onmousedown="handlePan(0,1)"/>
  <use id="arrowleft" xlink:href="#arrowLeft" x="0" y="0" onmousedown="handlePan(-1,0)"/>
</g>
<svg viewBox="0 0 15 15" width="100%" height="30px" preserveAspectRatio="xMaxYMin meet">
 <g id="arrow_out" transform="scale(0.3 0.3)">
  <a xlink:href="namespace_big_data_stat_meth_ae1e8ca2d8ca9555a0a0ad98fa516f673_cgraph_org.svg" target="_base">
   <rect id="button" ry="5" rx="5" y="6" x="6" height="38" width="38"
        fill="#f2f5e9" fill-opacity="0.5" stroke="#606060" stroke-width="1.0"/>
   <path id="arrow"
     d="M 11.500037,31.436501 C 11.940474,20.09759 22.043105,11.32322 32.158766,21.979434 L 37.068811,17.246167 C 37.068811,17.246167 37.088388,32 37.088388,32 L 22.160133,31.978069 C 22.160133,31.978069 26.997745,27.140456 26.997745,27.140456 C 18.528582,18.264221 13.291696,25.230495 11.500037,31.436501 z"
     style="fill:#404040;"/>
  </a>
 </g>
</svg>

<style type='text/css'>
<![CDATA[
[data-mouse-over-selected='false'] { opacity: 0.7; }
[data-mouse-over-selected='true']  { opacity: 1.0; }
]]>
</style>
<script type="application/ecmascript"><![CDATA[
document.addEventListener('DOMContentLoaded', (event) => {
  highlightEdges();
  highlightAdjacentNodes();
});
]]></script>
</svg>
