<?xml version="1.0" encoding="UTF-8" standalone="no"?>
<!DOCTYPE svg PUBLIC "-//W3C//DTD SVG 1.1//EN"
 "http://www.w3.org/Graphics/SVG/1.1/DTD/svg11.dtd">
<!-- Generated by graphviz version 14.0.0 (20250921.2048)
 -->
<!-- Title: BigDataStatMeth::RcppGetPCAIndividualsHdf5 Pages: 1 -->
<!--zoomable 567 -->

<svg id="main" version="1.1" xmlns="http://www.w3.org/2000/svg" xmlns:xlink="http://www.w3.org/1999/xlink" xml:space="preserve" onload="init(evt)">

<style type="text/css"><![CDATA[
.node, .edge {opacity: 0.7;}
.node.selected, .edge.selected {opacity: 1;}
.edge:hover path { stroke: red; }
.edge:hover polygon { stroke: red; fill: red; }
]]></style>

<defs>
  <circle id="rim" cx="0" cy="0" r="7"/>
  <circle id="rim2" cx="0" cy="0" r="3.5"/>
  <g id="zoomPlus">
    <use xlink:href="#rim" fill="#404040"><set attributeName="fill" to="#808080" begin="zoomplus.mouseover" end="zoomplus.mouseout"/></use>
    <path d="M-4,0h8M0,-4v8" fill="none" stroke="white" stroke-width="1.5" pointer-events="none"/>
  </g>
  <g id="zoomMin">
    <use xlink:href="#rim" fill="#404040"><set attributeName="fill" to="#808080" begin="zoomminus.mouseover" end="zoomminus.mouseout"/></use>
    <path d="M-4,0h8" fill="none" stroke="white" stroke-width="1.5" pointer-events="none"/>
  </g>
  <g id="arrowUp" transform="translate(30 24)">
    <use xlink:href="#rim"/>
    <path pointer-events="none" fill="none" stroke="white" stroke-width="1.5" d="M0,-3.0v7 M-2.5,-0.5L0,-3.0L2.5,-0.5"/>
  </g>
  <g id="arrowRight" transform="rotate(90) translate(36 -43)">
    <use xlink:href="#rim"/>
    <path pointer-events="none" fill="none" stroke="white" stroke-width="1.5" d="M0,-3.0v7 M-2.5,-0.5L0,-3.0L2.5,-0.5"/>
  </g>
  <g id="arrowDown" transform="rotate(180) translate(-30 -48)">
    <use xlink:href="#rim"/>
    <path pointer-events="none" fill="none" stroke="white" stroke-width="1.5" d="M0,-3.0v7 M-2.5,-0.5L0,-3.0L2.5,-0.5"/>
  </g>
  <g id="arrowLeft" transform="rotate(270) translate(-36 17)">
    <use xlink:href="#rim"/>
    <path pointer-events="none" fill="none" stroke="white" stroke-width="1.5" d="M0,-3.0v7 M-2.5,-0.5L0,-3.0L2.5,-0.5"/>
  </g>
  <g id="resetDef">
    <use xlink:href="#rim2" fill="#404040"><set attributeName="fill" to="#808080" begin="reset.mouseover" end="reset.mouseout"/></use>
  </g>
</defs>
<script type="application/ecmascript">
var viewWidth = 743;
var viewHeight = 567;
var sectionId = 'dynsection-149';
</script>
<script type="application/ecmascript" xlink:href="../../../../assets/svg.min.js"/>
<svg id="graph" class="graph">
<g id="viewport">
<title>BigDataStatMeth::RcppGetPCAIndividualsHdf5</title>
<!-- Node1 -->
<g id="Node000001" class="node">
<title>Node1</title>
<g id="a_Node000001"><a xlink:title="Calculate PCA individuals statistics.">
<polygon fill="#999999" stroke="#666666" points="136,-227.88 0,-227.88 0,-197.38 136,-197.38 136,-227.88"/>
<text xml:space="preserve" text-anchor="start" x="8" y="-214.38" font-family="Helvetica,sans-Serif" font-size="10.00">BigDataStatMeth::RcppGet</text>
<text xml:space="preserve" text-anchor="middle" x="68" y="-203.12" font-family="Helvetica,sans-Serif" font-size="10.00">PCAIndividualsHdf5</text>
</a>
</g>
</g>
<!-- Node2 -->
<g id="Node000002" class="node">
<title>Node2</title>
<g id="a_Node000002"><a xlink:href="namespace_big_data_stat_meth.html#a304b42b14ec87d4acc6f34ff0231529d" target="_top" xlink:title="Safely close any number of dataset handles (C++17).">
<polygon fill="white" stroke="#666666" points="340.25,-425.25 173.5,-425.25 173.5,-406 340.25,-406 340.25,-425.25"/>
<text xml:space="preserve" text-anchor="middle" x="256.88" y="-411.75" font-family="Helvetica,sans-Serif" font-size="10.00">BigDataStatMeth::checkClose_file</text>
</a>
</g>
</g>
<!-- Node1&#45;&gt;Node2 -->
<g id="edge1_Node000001_Node000002" class="edge">
<title>Node1&#45;&gt;Node2</title>
<g id="a_edge1_Node000001_Node000002"><a xlink:title=" ">
<path fill="none" stroke="#63b8ff" d="M73.06,-228.36C83.17,-264.27 113.05,-352.59 172,-396.62 173.79,-397.97 175.67,-399.21 177.6,-400.38"/>
<polygon fill="#63b8ff" stroke="#63b8ff" points="175.87,-403.42 186.37,-404.82 179.03,-397.18 175.87,-403.42"/>
</a>
</g>
</g>
<!-- Node3 -->
<g id="Node000003" class="node">
<title>Node3</title>
<g id="a_Node000003"><a xlink:href="class_big_data_stat_meth_1_1hdf5_dataset.html#ab19bac9a31efe4a733294c1c23ff5ef7" target="_top" xlink:title="Create a new dataset with optional compression.">
<polygon fill="white" stroke="#666666" points="332,-387.88 181.75,-387.88 181.75,-357.38 332,-357.38 332,-387.88"/>
<text xml:space="preserve" text-anchor="start" x="189.75" y="-374.38" font-family="Helvetica,sans-Serif" font-size="10.00">BigDataStatMeth::hdf5Dataset</text>
<text xml:space="preserve" text-anchor="middle" x="256.88" y="-363.12" font-family="Helvetica,sans-Serif" font-size="10.00">::createDataset</text>
</a>
</g>
</g>
<!-- Node1&#45;&gt;Node3 -->
<g id="edge2_Node000001_Node000003" class="edge">
<title>Node1&#45;&gt;Node3</title>
<g id="a_edge2_Node000001_Node000003"><a xlink:title=" ">
<path fill="none" stroke="#63b8ff" d="M77.32,-228.33C92.54,-255.62 127.46,-311.91 172,-343.62 176.4,-346.76 181.16,-349.57 186.11,-352.1"/>
<polygon fill="#63b8ff" stroke="#63b8ff" points="184.55,-355.24 195.09,-356.27 187.49,-348.89 184.55,-355.24"/>
</a>
</g>
</g>
<!-- Node11 -->
<g id="Node000011" class="node">
<title>Node11</title>
<g id="a_Node000011"><a xlink:href="class_big_data_stat_meth_1_1hdf5_dataset.html#acf9843abcb57a0090f1635cc69d95300" target="_top" xlink:title="Write data to the dataset.">
<polygon fill="white" stroke="#666666" points="528,-264.88 377.75,-264.88 377.75,-234.38 528,-234.38 528,-264.88"/>
<text xml:space="preserve" text-anchor="start" x="385.75" y="-251.38" font-family="Helvetica,sans-Serif" font-size="10.00">BigDataStatMeth::hdf5Dataset</text>
<text xml:space="preserve" text-anchor="middle" x="452.88" y="-240.12" font-family="Helvetica,sans-Serif" font-size="10.00">::writeDataset</text>
</a>
</g>
</g>
<!-- Node1&#45;&gt;Node11 -->
<g id="edge23_Node000001_Node000011" class="edge">
<title>Node1&#45;&gt;Node11</title>
<g id="a_edge23_Node000001_Node000011"><a xlink:title=" ">
<path fill="none" stroke="#63b8ff" d="M79.39,-228.28C95.82,-251.45 130.29,-293.95 172,-310.62 242.06,-338.63 272.05,-339.5 341.75,-310.62 362.66,-301.97 358.52,-286.55 377.75,-274.62 380.31,-273.04 382.99,-271.53 385.74,-270.12"/>
<polygon fill="#63b8ff" stroke="#63b8ff" points="387,-273.39 394.58,-265.99 384.04,-267.05 387,-273.39"/>
</a>
</g>
</g>
<!-- Node14 -->
<g id="Node000014" class="node">
<title>Node14</title>
<g id="a_Node000014"><a xlink:href="class_big_data_stat_meth_1_1hdf5_dataset.html#ae7e94f6d05d1a6cff2d24ec3f1b18fca" target="_top" xlink:title="Get file name.">
<polygon fill="white" stroke="#666666" points="332,-301.88 181.75,-301.88 181.75,-271.38 332,-271.38 332,-301.88"/>
<text xml:space="preserve" text-anchor="start" x="189.75" y="-288.38" font-family="Helvetica,sans-Serif" font-size="10.00">BigDataStatMeth::hdf5Dataset</text>
<text xml:space="preserve" text-anchor="middle" x="256.88" y="-277.12" font-family="Helvetica,sans-Serif" font-size="10.00">::getFileName</text>
</a>
</g>
</g>
<!-- Node1&#45;&gt;Node14 -->
<g id="edge14_Node000001_Node000014" class="edge">
<title>Node1&#45;&gt;Node14</title>
<g id="a_edge14_Node000001_Node000014"><a xlink:title=" ">
<path fill="none" stroke="#63b8ff" d="M98.66,-228.24C118.96,-238.55 146.68,-251.89 172,-261.62 177.27,-263.65 182.78,-265.62 188.35,-267.49"/>
<polygon fill="#63b8ff" stroke="#63b8ff" points="187.05,-270.75 197.64,-270.52 189.22,-264.1 187.05,-270.75"/>
</a>
</g>
</g>
<!-- Node16 -->
<g id="Node000016" class="node">
<title>Node16</title>
<g id="a_Node000016"><a xlink:href="class_big_data_stat_meth_1_1hdf5_dataset.html#aa743c8c46d7ff3bb2f894145dd07fd8a" target="_top" xlink:title="Get number of columns in internal format.">
<polygon fill="white" stroke="#666666" points="332,-252.88 181.75,-252.88 181.75,-222.38 332,-222.38 332,-252.88"/>
<text xml:space="preserve" text-anchor="start" x="189.75" y="-239.38" font-family="Helvetica,sans-Serif" font-size="10.00">BigDataStatMeth::hdf5Dataset</text>
<text xml:space="preserve" text-anchor="middle" x="256.88" y="-228.12" font-family="Helvetica,sans-Serif" font-size="10.00">::ncols</text>
</a>
</g>
</g>
<!-- Node1&#45;&gt;Node16 -->
<g id="edge16_Node000001_Node000016" class="edge">
<title>Node1&#45;&gt;Node16</title>
<g id="a_edge16_Node000001_Node000016"><a xlink:title=" ">
<path fill="none" stroke="#63b8ff" d="M136.47,-221.65C147.44,-223.12 158.94,-224.66 170.28,-226.17"/>
<polygon fill="#63b8ff" stroke="#63b8ff" points="169.67,-229.62 180.05,-227.48 170.6,-222.69 169.67,-229.62"/>
</a>
</g>
</g>
<!-- Node17 -->
<g id="Node000017" class="node">
<title>Node17</title>
<g id="a_Node000017"><a xlink:href="class_big_data_stat_meth_1_1hdf5_dataset.html#a6cbce676967d0cc4b50e2cc5282c322b" target="_top" xlink:title="Get number of rows in internal format.">
<polygon fill="white" stroke="#666666" points="332,-203.88 181.75,-203.88 181.75,-173.38 332,-173.38 332,-203.88"/>
<text xml:space="preserve" text-anchor="start" x="189.75" y="-190.38" font-family="Helvetica,sans-Serif" font-size="10.00">BigDataStatMeth::hdf5Dataset</text>
<text xml:space="preserve" text-anchor="middle" x="256.88" y="-179.12" font-family="Helvetica,sans-Serif" font-size="10.00">::nrows</text>
</a>
</g>
</g>
<!-- Node1&#45;&gt;Node17 -->
<g id="edge17_Node000001_Node000017" class="edge">
<title>Node1&#45;&gt;Node17</title>
<g id="a_edge17_Node000001_Node000017"><a xlink:title=" ">
<path fill="none" stroke="#63b8ff" d="M136.47,-203.96C147.44,-202.55 158.94,-201.07 170.28,-199.62"/>
<polygon fill="#63b8ff" stroke="#63b8ff" points="170.57,-203.11 180.05,-198.36 169.68,-196.17 170.57,-203.11"/>
</a>
</g>
</g>
<!-- Node18 -->
<g id="Node000018" class="node">
<title>Node18</title>
<g id="a_Node000018"><a xlink:href="namespace_big_data_stat_meth.html#a08552ace2edb3a4129cad9f77d1a8bb1" target="_top" xlink:title="Matrix&#45;vector multiplication by rows.">
<polygon fill="white" stroke="#666666" points="341.75,-154.88 172,-154.88 172,-124.38 341.75,-124.38 341.75,-154.88"/>
<text xml:space="preserve" text-anchor="start" x="180" y="-141.38" font-family="Helvetica,sans-Serif" font-size="10.00">BigDataStatMeth::Rcpp</text>
<text xml:space="preserve" text-anchor="middle" x="256.88" y="-130.12" font-family="Helvetica,sans-Serif" font-size="10.00">_matrixVectorMultiplication_byRow</text>
</a>
</g>
</g>
<!-- Node1&#45;&gt;Node18 -->
<g id="edge18_Node000001_Node000018" class="edge">
<title>Node1&#45;&gt;Node18</title>
<g id="a_edge18_Node000001_Node000018"><a xlink:title=" ">
<path fill="none" stroke="#63b8ff" d="M99.59,-196.93C119.82,-186.91 147.1,-174.08 172,-164.62 177.28,-162.62 182.8,-160.67 188.37,-158.8"/>
<polygon fill="#63b8ff" stroke="#63b8ff" points="189.23,-162.2 197.66,-155.78 187.07,-155.54 189.23,-162.2"/>
</a>
</g>
</g>
<!-- Node19 -->
<g id="Node000019" class="node">
<title>Node19</title>
<g id="a_Node000019"><a xlink:href="namespace_big_data_stat_meth.html#a44b65a910276a5b61d0c3877b810eaeb" target="_top" xlink:title=" ">
<polygon fill="white" stroke="#666666" points="339.12,-105.88 174.62,-105.88 174.62,-75.38 339.12,-75.38 339.12,-105.88"/>
<text xml:space="preserve" text-anchor="start" x="182.62" y="-92.38" font-family="Helvetica,sans-Serif" font-size="10.00">BigDataStatMeth::RcppNormalize</text>
<text xml:space="preserve" text-anchor="middle" x="256.88" y="-81.12" font-family="Helvetica,sans-Serif" font-size="10.00">Rowwise</text>
</a>
</g>
</g>
<!-- Node1&#45;&gt;Node19 -->
<g id="edge19_Node000001_Node000019" class="edge">
<title>Node1&#45;&gt;Node19</title>
<g id="a_edge19_Node000001_Node000019"><a xlink:title=" ">
<path fill="none" stroke="#63b8ff" d="M81.31,-197.17C99.12,-175.82 134.11,-137.45 172,-115.62 175,-113.9 178.13,-112.28 181.34,-110.77"/>
<polygon fill="#63b8ff" stroke="#63b8ff" points="182.61,-114.03 190.43,-106.88 179.86,-107.59 182.61,-114.03"/>
</a>
</g>
</g>
<!-- Node20 -->
<g id="Node000020" class="node">
<title>Node20</title>
<g id="a_Node000020"><a xlink:href="class_big_data_stat_meth_1_1hdf5_dataset.html#a23bea87165b8ef6b944709c5b2cbd0cf" target="_top" xlink:title=" ">
<polygon fill="white" stroke="#666666" points="528,-126.88 377.75,-126.88 377.75,-96.38 528,-96.38 528,-126.88"/>
<text xml:space="preserve" text-anchor="start" x="385.75" y="-113.38" font-family="Helvetica,sans-Serif" font-size="10.00">BigDataStatMeth::hdf5Dataset</text>
<text xml:space="preserve" text-anchor="middle" x="452.88" y="-102.12" font-family="Helvetica,sans-Serif" font-size="10.00">::readDatasetBlock</text>
</a>
</g>
</g>
<!-- Node1&#45;&gt;Node20 -->
<g id="edge20_Node000001_Node000020" class="edge">
<title>Node1&#45;&gt;Node20</title>
<g id="a_edge20_Node000001_Node000020"><a xlink:title=" ">
<path fill="none" stroke="#63b8ff" d="M74.43,-196.94C86.32,-165.32 118.02,-94.6 172,-66.62 250.4,-25.99 356.4,-64.43 412.78,-91.05"/>
<polygon fill="#63b8ff" stroke="#63b8ff" points="411.16,-94.15 421.69,-95.37 414.22,-87.86 411.16,-94.15"/>
</a>
</g>
</g>
<!-- Node21 -->
<g id="Node000021" class="node">
<title>Node21</title>
<g id="a_Node000021"><a xlink:href="namespace_big_data_stat_meth.html#a2692707b3ea4aaafa09d07afaf632437" target="_top" xlink:title="Transposes a 2D matrix.">
<polygon fill="white" stroke="#666666" points="326.75,-19.25 187,-19.25 187,0 326.75,0 326.75,-19.25"/>
<text xml:space="preserve" text-anchor="middle" x="256.88" y="-5.75" font-family="Helvetica,sans-Serif" font-size="10.00">BigDataStatMeth::transpose</text>
</a>
</g>
</g>
<!-- Node1&#45;&gt;Node21 -->
<g id="edge22_Node000001_Node000021" class="edge">
<title>Node1&#45;&gt;Node21</title>
<g id="a_edge22_Node000001_Node000021"><a xlink:title=" ">
<path fill="none" stroke="#63b8ff" d="M73.52,-197.02C84.42,-162.2 115.51,-77.8 172,-33.62 176.85,-29.83 182.27,-26.64 187.96,-23.96"/>
<polygon fill="#63b8ff" stroke="#63b8ff" points="189.12,-27.26 197.03,-20.22 186.45,-20.79 189.12,-27.26"/>
</a>
</g>
</g>
<!-- Node4 -->
<g id="Node000004" class="node">
<title>Node4</title>
<g id="a_Node000004"><a xlink:href="class_big_data_stat_meth_1_1hdf5_dataset.html#ac7a7f23b7e22c9b56ca6ad86592f2d52" target="_top" xlink:title="Add an attribute to the dataset.">
<polygon fill="white" stroke="#666666" points="528,-558.88 377.75,-558.88 377.75,-528.38 528,-528.38 528,-558.88"/>
<text xml:space="preserve" text-anchor="start" x="385.75" y="-545.38" font-family="Helvetica,sans-Serif" font-size="10.00">BigDataStatMeth::hdf5Dataset</text>
<text xml:space="preserve" text-anchor="middle" x="452.88" y="-534.12" font-family="Helvetica,sans-Serif" font-size="10.00">::addAttribute</text>
</a>
</g>
</g>
<!-- Node3&#45;&gt;Node4 -->
<g id="edge3_Node000003_Node000004" class="edge">
<title>Node3&#45;&gt;Node4</title>
<g id="a_edge3_Node000003_Node000004"><a xlink:title=" ">
<path fill="none" stroke="#63b8ff" d="M331.02,-388.23C334.9,-390.65 338.52,-393.43 341.75,-396.62 381.89,-436.44 338.55,-477.89 377.75,-518.62 378.62,-519.53 379.53,-520.4 380.46,-521.24"/>
<polygon fill="#63b8ff" stroke="#63b8ff" points="378.26,-523.97 388.38,-527.09 382.41,-518.34 378.26,-523.97"/>
</a>
</g>
</g>
<!-- Node5 -->
<g id="Node000005" class="node">
<title>Node5</title>
<g id="a_Node000005"><a xlink:href="class_big_data_stat_meth_1_1hdf5_file.html#abfb73b5f1eb25ee00489485c8dc56a2a" target="_top" xlink:title="Close file and cleanup resources.">
<polygon fill="white" stroke="#666666" points="518.62,-509.88 387.12,-509.88 387.12,-479.38 518.62,-479.38 518.62,-509.88"/>
<text xml:space="preserve" text-anchor="start" x="395.12" y="-496.38" font-family="Helvetica,sans-Serif" font-size="10.00">BigDataStatMeth::hdf5File</text>
<text xml:space="preserve" text-anchor="middle" x="452.88" y="-485.12" font-family="Helvetica,sans-Serif" font-size="10.00">::close_file</text>
</a>
</g>
</g>
<!-- Node3&#45;&gt;Node5 -->
<g id="edge4_Node000003_Node000005" class="edge">
<title>Node3&#45;&gt;Node5</title>
<g id="a_edge4_Node000003_Node000005"><a xlink:title=" ">
<path fill="none" stroke="#63b8ff" d="M329.19,-388.24C333.67,-390.65 337.91,-393.42 341.75,-396.62 369.52,-419.81 350.53,-445.8 377.75,-469.62 379.03,-470.74 380.36,-471.81 381.73,-472.83"/>
<polygon fill="#63b8ff" stroke="#63b8ff" points="379.74,-475.72 390.06,-478.1 383.48,-469.8 379.74,-475.72"/>
</a>
</g>
</g>
<!-- Node6 -->
<g id="Node000006" class="node">
<title>Node6</title>
<g id="a_Node000006"><a xlink:href="class_big_data_stat_meth_1_1hdf5_group.html#a27cef4d33e46c72bfd792aa49fa621a3" target="_top" xlink:title="Create multiple nested groups.">
<polygon fill="white" stroke="#666666" points="523.88,-460.88 381.88,-460.88 381.88,-430.38 523.88,-430.38 523.88,-460.88"/>
<text xml:space="preserve" text-anchor="start" x="389.88" y="-447.38" font-family="Helvetica,sans-Serif" font-size="10.00">BigDataStatMeth::hdf5Group</text>
<text xml:space="preserve" text-anchor="middle" x="452.88" y="-436.12" font-family="Helvetica,sans-Serif" font-size="10.00">::create_HDF5_groups</text>
</a>
</g>
</g>
<!-- Node3&#45;&gt;Node6 -->
<g id="edge5_Node000003_Node000006" class="edge">
<title>Node3&#45;&gt;Node6</title>
<g id="a_edge5_Node000003_Node000006"><a xlink:title=" ">
<path fill="none" stroke="#63b8ff" d="M320.94,-388.36C328.08,-390.82 335.15,-393.57 341.75,-396.62 359.2,-404.7 360.49,-412.15 377.75,-420.62 381.44,-422.44 385.3,-424.17 389.22,-425.82"/>
<polygon fill="#63b8ff" stroke="#63b8ff" points="387.74,-429 398.33,-429.42 390.32,-422.49 387.74,-429"/>
</a>
</g>
</g>
<!-- Node8 -->
<g id="Node000008" class="node">
<title>Node8</title>
<g id="a_Node000008"><a xlink:href="namespace_big_data_stat_meth.html#a89d901ab4b5e01771f4e3fc7dc84e50e" target="_top" xlink:title="Checks if an HDF5 element (group or dataset) exists.">
<polygon fill="white" stroke="#666666" points="514.5,-411.88 391.25,-411.88 391.25,-381.38 514.5,-381.38 514.5,-411.88"/>
<text xml:space="preserve" text-anchor="start" x="399.25" y="-398.38" font-family="Helvetica,sans-Serif" font-size="10.00">BigDataStatMeth::exists</text>
<text xml:space="preserve" text-anchor="middle" x="452.88" y="-387.12" font-family="Helvetica,sans-Serif" font-size="10.00">_HDF5_element</text>
</a>
</g>
</g>
<!-- Node3&#45;&gt;Node8 -->
<g id="edge7_Node000003_Node000008" class="edge">
<title>Node3&#45;&gt;Node8</title>
<g id="a_edge7_Node000003_Node000008"><a xlink:title=" ">
<path fill="none" stroke="#63b8ff" d="M332.33,-381.84C347.89,-383.76 364.27,-385.79 379.75,-387.7"/>
<polygon fill="#63b8ff" stroke="#63b8ff" points="378.98,-391.13 389.33,-388.89 379.84,-384.19 378.98,-391.13"/>
</a>
</g>
</g>
<!-- Node9 -->
<g id="Node000009" class="node">
<title>Node9</title>
<g id="a_Node000009"><a xlink:href="class_big_data_stat_meth_1_1hdf5_group.html#a59995412538627e6c80f64b552c286f5" target="_top" xlink:title=" ">
<polygon fill="white" stroke="#666666" points="523.88,-362.88 381.88,-362.88 381.88,-332.38 523.88,-332.38 523.88,-362.88"/>
<text xml:space="preserve" text-anchor="start" x="389.88" y="-349.38" font-family="Helvetica,sans-Serif" font-size="10.00">BigDataStatMeth::hdf5Group</text>
<text xml:space="preserve" text-anchor="middle" x="452.88" y="-338.12" font-family="Helvetica,sans-Serif" font-size="10.00">::getGroupName</text>
</a>
</g>
</g>
<!-- Node3&#45;&gt;Node9 -->
<g id="edge9_Node000003_Node000009" class="edge">
<title>Node3&#45;&gt;Node9</title>
<g id="a_edge9_Node000003_Node000009"><a xlink:title=" ">
<path fill="none" stroke="#63b8ff" d="M332.33,-363.03C344.68,-361.44 357.55,-359.78 370.07,-358.17"/>
<polygon fill="#63b8ff" stroke="#63b8ff" points="370.48,-361.64 379.95,-356.89 369.58,-354.7 370.48,-361.64"/>
</a>
</g>
</g>
<!-- Node10 -->
<g id="Node000010" class="node">
<title>Node10</title>
<g id="a_Node000010"><a xlink:href="namespace_big_data_stat_meth.html#a3d06783149029f1df2853c472d401380" target="_top" xlink:title="Removes multiple elements from an HDF5 file.">
<polygon fill="white" stroke="#666666" points="517.5,-313.88 388.25,-313.88 388.25,-283.38 517.5,-283.38 517.5,-313.88"/>
<text xml:space="preserve" text-anchor="start" x="396.25" y="-300.38" font-family="Helvetica,sans-Serif" font-size="10.00">BigDataStatMeth::remove</text>
<text xml:space="preserve" text-anchor="middle" x="452.88" y="-289.12" font-family="Helvetica,sans-Serif" font-size="10.00">_elements</text>
</a>
</g>
</g>
<!-- Node3&#45;&gt;Node10 -->
<g id="edge10_Node000003_Node000010" class="edge">
<title>Node3&#45;&gt;Node10</title>
<g id="a_edge10_Node000003_Node000010"><a xlink:title=" ">
<path fill="none" stroke="#63b8ff" d="M307.66,-357.01C319.01,-353.01 330.92,-348.46 341.75,-343.62 358.46,-336.16 361.01,-331.02 377.75,-323.62 381.83,-321.82 386.07,-320.07 390.39,-318.39"/>
<polygon fill="#63b8ff" stroke="#63b8ff" points="391.61,-321.67 399.75,-314.89 389.15,-315.11 391.61,-321.67"/>
</a>
</g>
</g>
<!-- Node3&#45;&gt;Node11 -->
<g id="edge11_Node000003_Node000011" class="edge">
<title>Node3&#45;&gt;Node11</title>
<g id="a_edge11_Node000003_Node000011"><a xlink:title=" ">
<path fill="none" stroke="#63b8ff" d="M320.79,-356.9C328.35,-353.32 335.56,-348.96 341.75,-343.62 367.95,-321.04 351.46,-297.11 377.75,-274.62 379.2,-273.38 380.72,-272.2 382.3,-271.07"/>
<polygon fill="#63b8ff" stroke="#63b8ff" points="383.81,-274.25 390.51,-266.04 380.15,-268.28 383.81,-274.25"/>
</a>
</g>
</g>
<!-- Node7 -->
<g id="Node000007" class="node">
<title>Node7</title>
<g id="a_Node000007"><a xlink:href="namespace_big_data_stat_meth.html#abcaa4216cd52f03ebac42e4855ef846b" target="_top" xlink:title="Checks if a path exists in an HDF5 file.">
<polygon fill="white" stroke="#666666" points="721.38,-430.25 577.88,-430.25 577.88,-411 721.38,-411 721.38,-430.25"/>
<text xml:space="preserve" text-anchor="middle" x="649.62" y="-416.75" font-family="Helvetica,sans-Serif" font-size="10.00">BigDataStatMeth::pathExists</text>
</a>
</g>
</g>
<!-- Node6&#45;&gt;Node7 -->
<g id="edge6_Node000006_Node000007" class="edge">
<title>Node6&#45;&gt;Node7</title>
<g id="a_edge6_Node000006_Node000007"><a xlink:title=" ">
<path fill="none" stroke="#63b8ff" d="M524.18,-436.6C537.85,-434.84 552.3,-432.99 566.31,-431.19"/>
<polygon fill="#63b8ff" stroke="#63b8ff" points="566.46,-434.7 575.94,-429.96 565.57,-427.76 566.46,-434.7"/>
</a>
</g>
</g>
<!-- Node8&#45;&gt;Node7 -->
<g id="edge8_Node000008_Node000007" class="edge">
<title>Node8&#45;&gt;Node7</title>
<g id="a_edge8_Node000008_Node000007"><a xlink:title=" ">
<path fill="none" stroke="#63b8ff" d="M514.96,-404.15C531.25,-406.16 549.12,-408.36 566.34,-410.48"/>
<polygon fill="#63b8ff" stroke="#63b8ff" points="565.69,-413.93 576.04,-411.68 566.54,-406.98 565.69,-413.93"/>
</a>
</g>
</g>
<!-- Node12 -->
<g id="Node000012" class="node">
<title>Node12</title>
<g id="a_Node000012"><a xlink:href="class_big_data_stat_meth_1_1hdf5_dataset.html#aba39e56a580d3b1fa7f1619fc72efa3e" target="_top" xlink:title="Close dataset and file.">
<polygon fill="white" stroke="#666666" points="724.75,-191.88 574.5,-191.88 574.5,-161.38 724.75,-161.38 724.75,-191.88"/>
<text xml:space="preserve" text-anchor="start" x="582.5" y="-178.38" font-family="Helvetica,sans-Serif" font-size="10.00">BigDataStatMeth::hdf5Dataset</text>
<text xml:space="preserve" text-anchor="middle" x="649.62" y="-167.12" font-family="Helvetica,sans-Serif" font-size="10.00">::close_dataset_file</text>
</a>
</g>
</g>
<!-- Node11&#45;&gt;Node12 -->
<g id="edge12_Node000011_Node000012" class="edge">
<title>Node11&#45;&gt;Node12</title>
<g id="a_edge12_Node000011_Node000012"><a xlink:title=" ">
<path fill="none" stroke="#63b8ff" d="M501.46,-234C510.31,-230.97 519.46,-227.76 528,-224.62 552,-215.81 578.42,-205.38 600.39,-196.5"/>
<polygon fill="#63b8ff" stroke="#63b8ff" points="601.44,-199.85 609.39,-192.85 598.81,-193.37 601.44,-199.85"/>
</a>
</g>
</g>
<!-- Node13 -->
<g id="Node000013" class="node">
<title>Node13</title>
<g id="a_Node000013"><a xlink:href="class_big_data_stat_meth_1_1hdf5_dataset.html#a94d81b72e92cb0230b4e64f37ea7d2e3" target="_top" xlink:title="Convert DataFrame to range list.">
<polygon fill="white" stroke="#666666" points="735.25,-264.88 564,-264.88 564,-234.38 735.25,-234.38 735.25,-264.88"/>
<text xml:space="preserve" text-anchor="start" x="572" y="-251.38" font-family="Helvetica,sans-Serif" font-size="10.00">BigDataStatMeth::hdf5Dataset</text>
<text xml:space="preserve" text-anchor="middle" x="649.62" y="-240.12" font-family="Helvetica,sans-Serif" font-size="10.00">::convert_DataFrame_to_RangeList</text>
</a>
</g>
</g>
<!-- Node11&#45;&gt;Node13 -->
<g id="edge13_Node000011_Node000013" class="edge">
<title>Node11&#45;&gt;Node13</title>
<g id="a_edge13_Node000011_Node000013"><a xlink:title=" ">
<path fill="none" stroke="#63b8ff" d="M528.34,-249.62C536.22,-249.62 544.31,-249.62 552.4,-249.62"/>
<polygon fill="#63b8ff" stroke="#63b8ff" points="552.28,-253.13 562.28,-249.63 552.28,-246.13 552.28,-253.13"/>
</a>
</g>
</g>
<!-- Node15 -->
<g id="Node000015" class="node">
<title>Node15</title>
<g id="a_Node000015"><a xlink:href="class_big_data_stat_meth_1_1hdf5_file.html#abb50d96e6674ac770e4f27f650ad34cb" target="_top" xlink:title="Get filename.">
<polygon fill="white" stroke="#666666" points="518.62,-215.88 387.12,-215.88 387.12,-185.38 518.62,-185.38 518.62,-215.88"/>
<text xml:space="preserve" text-anchor="start" x="395.12" y="-202.38" font-family="Helvetica,sans-Serif" font-size="10.00">BigDataStatMeth::hdf5File</text>
<text xml:space="preserve" text-anchor="middle" x="452.88" y="-191.12" font-family="Helvetica,sans-Serif" font-size="10.00">::getFilename</text>
</a>
</g>
</g>
<!-- Node14&#45;&gt;Node15 -->
<g id="edge15_Node000014_Node000015" class="edge">
<title>Node14&#45;&gt;Node15</title>
<g id="a_edge15_Node000014_Node000015"><a xlink:title=" ">
<path fill="none" stroke="#63b8ff" d="M322.48,-270.98C329.19,-268.3 335.75,-265.2 341.75,-261.62 361.19,-250.04 358.52,-237.55 377.75,-225.62 380.31,-224.04 382.99,-222.53 385.74,-221.12"/>
<polygon fill="#63b8ff" stroke="#63b8ff" points="387,-224.39 394.58,-216.99 384.04,-218.05 387,-224.39"/>
</a>
</g>
</g>
<!-- Node20&#45;&gt;Node12 -->
<g id="edge21_Node000020_Node000012" class="edge">
<title>Node20&#45;&gt;Node12</title>
<g id="a_edge21_Node000020_Node000012"><a xlink:title=" ">
<path fill="none" stroke="#63b8ff" d="M501.02,-127.36C528.07,-136.39 562.24,-147.79 590.89,-157.36"/>
<polygon fill="#63b8ff" stroke="#63b8ff" points="589.55,-160.6 600.14,-160.44 591.77,-153.96 589.55,-160.6"/>
</a>
</g>
</g>
</g>
</svg>

<g id="navigator" transform="translate(0 0)" fill="#404254">
  <rect fill="#f2f5e9" fill-opacity="0.5" stroke="#606060" stroke-width=".5" x="0" y="0" width="60" height="60"/>
  <use id="zoomplus" xlink:href="#zoomPlus" x="17" y="9" onmousedown="handleZoom(evt,'in')"/>
  <use id="zoomminus" xlink:href="#zoomMin" x="42" y="9" onmousedown="handleZoom(evt,'out')"/>
  <use id="reset" xlink:href="#resetDef" x="30" y="36" onmousedown="handleReset()"/>
   <use id="arrowup" xlink:href="#arrowUp" x="0" y="0" onmousedown="handlePan(0,-1)"/>
  <use id="arrowright" xlink:href="#arrowRight" x="0" y="0" onmousedown="handlePan(1,0)"/>
  <use id="arrowdown" xlink:href="#arrowDown" x="0" y="0" onmousedown="handlePan(0,1)"/>
  <use id="arrowleft" xlink:href="#arrowLeft" x="0" y="0" onmousedown="handlePan(-1,0)"/>
</g>
<svg viewBox="0 0 15 15" width="100%" height="30px" preserveAspectRatio="xMaxYMin meet">
 <g id="arrow_out" transform="scale(0.3 0.3)">
  <a xlink:href="namespace_big_data_stat_meth_a04d836f0bf408e66c56001bbbaa5bb41_cgraph_org.svg" target="_base">
   <rect id="button" ry="5" rx="5" y="6" x="6" height="38" width="38"
        fill="#f2f5e9" fill-opacity="0.5" stroke="#606060" stroke-width="1.0"/>
   <path id="arrow"
     d="M 11.500037,31.436501 C 11.940474,20.09759 22.043105,11.32322 32.158766,21.979434 L 37.068811,17.246167 C 37.068811,17.246167 37.088388,32 37.088388,32 L 22.160133,31.978069 C 22.160133,31.978069 26.997745,27.140456 26.997745,27.140456 C 18.528582,18.264221 13.291696,25.230495 11.500037,31.436501 z"
     style="fill:#404040;"/>
  </a>
 </g>
</svg>

<style type='text/css'>
<![CDATA[
[data-mouse-over-selected='false'] { opacity: 0.7; }
[data-mouse-over-selected='true']  { opacity: 1.0; }
]]>
</style>
<script type="application/ecmascript"><![CDATA[
document.addEventListener('DOMContentLoaded', (event) => {
  highlightEdges();
  highlightAdjacentNodes();
});
]]></script>
</svg>
