<?xml version="1.0" encoding="UTF-8" standalone="no"?>
<!DOCTYPE svg PUBLIC "-//W3C//DTD SVG 1.1//EN"
 "http://www.w3.org/Graphics/SVG/1.1/DTD/svg11.dtd">
<!-- Generated by graphviz version 14.0.0 (20250921.2048)
 -->
<!-- Title: BigDataStatMeth::RcppbdCorr_hdf5_Block_single Pages: 1 -->
<!--zoomable 494 -->

<svg id="main" version="1.1" xmlns="http://www.w3.org/2000/svg" xmlns:xlink="http://www.w3.org/1999/xlink" xml:space="preserve" onload="init(evt)">

<style type="text/css"><![CDATA[
.node, .edge {opacity: 0.7;}
.node.selected, .edge.selected {opacity: 1;}
.edge:hover path { stroke: red; }
.edge:hover polygon { stroke: red; fill: red; }
]]></style>

<defs>
  <circle id="rim" cx="0" cy="0" r="7"/>
  <circle id="rim2" cx="0" cy="0" r="3.5"/>
  <g id="zoomPlus">
    <use xlink:href="#rim" fill="#404040"><set attributeName="fill" to="#808080" begin="zoomplus.mouseover" end="zoomplus.mouseout"/></use>
    <path d="M-4,0h8M0,-4v8" fill="none" stroke="white" stroke-width="1.5" pointer-events="none"/>
  </g>
  <g id="zoomMin">
    <use xlink:href="#rim" fill="#404040"><set attributeName="fill" to="#808080" begin="zoomminus.mouseover" end="zoomminus.mouseout"/></use>
    <path d="M-4,0h8" fill="none" stroke="white" stroke-width="1.5" pointer-events="none"/>
  </g>
  <g id="arrowUp" transform="translate(30 24)">
    <use xlink:href="#rim"/>
    <path pointer-events="none" fill="none" stroke="white" stroke-width="1.5" d="M0,-3.0v7 M-2.5,-0.5L0,-3.0L2.5,-0.5"/>
  </g>
  <g id="arrowRight" transform="rotate(90) translate(36 -43)">
    <use xlink:href="#rim"/>
    <path pointer-events="none" fill="none" stroke="white" stroke-width="1.5" d="M0,-3.0v7 M-2.5,-0.5L0,-3.0L2.5,-0.5"/>
  </g>
  <g id="arrowDown" transform="rotate(180) translate(-30 -48)">
    <use xlink:href="#rim"/>
    <path pointer-events="none" fill="none" stroke="white" stroke-width="1.5" d="M0,-3.0v7 M-2.5,-0.5L0,-3.0L2.5,-0.5"/>
  </g>
  <g id="arrowLeft" transform="rotate(270) translate(-36 17)">
    <use xlink:href="#rim"/>
    <path pointer-events="none" fill="none" stroke="white" stroke-width="1.5" d="M0,-3.0v7 M-2.5,-0.5L0,-3.0L2.5,-0.5"/>
  </g>
  <g id="resetDef">
    <use xlink:href="#rim2" fill="#404040"><set attributeName="fill" to="#808080" begin="reset.mouseover" end="reset.mouseout"/></use>
  </g>
</defs>
<script type="application/ecmascript">
var viewWidth = 754;
var viewHeight = 494;
var sectionId = 'dynsection-126';
</script>
<script type="application/ecmascript" xlink:href="../../../../assets/svg.min.js"/>
<svg id="graph" class="graph">
<g id="viewport">
<title>BigDataStatMeth::RcppbdCorr_hdf5_Block_single</title>
<!-- Node1 -->
<g id="Node000001" class="node">
<title>Node1</title>
<g id="a_Node000001"><a xlink:title=" ">
<polygon fill="#999999" stroke="#666666" points="149.5,-143.37 0,-143.37 0,-112.87 149.5,-112.87 149.5,-143.37"/>
<text xml:space="preserve" text-anchor="start" x="8" y="-129.87" font-family="Helvetica,sans-Serif" font-size="10.00">BigDataStatMeth::RcppbdCorr</text>
<text xml:space="preserve" text-anchor="middle" x="74.75" y="-118.62" font-family="Helvetica,sans-Serif" font-size="10.00">_hdf5_Block_single</text>
</a>
</g>
</g>
<!-- Node2 -->
<g id="Node000002" class="node">
<title>Node2</title>
<g id="a_Node000002"><a xlink:href="namespace_big_data_stat_meth.html#a304b42b14ec87d4acc6f34ff0231529d" target="_top" xlink:title="Safely close any number of dataset handles (C++17).">
<polygon fill="white" stroke="#666666" points="352.25,-327.74 185.5,-327.74 185.5,-308.49 352.25,-308.49 352.25,-327.74"/>
<text xml:space="preserve" text-anchor="middle" x="268.88" y="-314.24" font-family="Helvetica,sans-Serif" font-size="10.00">BigDataStatMeth::checkClose_file</text>
</a>
</g>
</g>
<!-- Node1&#45;&gt;Node2 -->
<g id="edge1_Node000001_Node000002" class="edge">
<title>Node1&#45;&gt;Node2</title>
<g id="a_edge1_Node000001_Node000002"><a xlink:title=" ">
<path fill="none" stroke="#63b8ff" d="M81.11,-143.76C93.62,-177.79 128.1,-258.7 185.5,-299.12 187.6,-300.59 189.79,-301.96 192.06,-303.21"/>
<polygon fill="#63b8ff" stroke="#63b8ff" points="190.5,-306.35 201.04,-307.45 193.48,-300.02 190.5,-306.35"/>
</a>
</g>
</g>
<!-- Node3 -->
<g id="Node000003" class="node">
<title>Node3</title>
<g id="a_Node000003"><a xlink:href="namespace_big_data_stat_meth.html#a548baec51dfdb0481a3632cc50faed4c" target="_top" xlink:title="Optimized p&#45;value computation for correlation matrices using Eigen.">
<polygon fill="white" stroke="#666666" points="530.62,-143.37 396.12,-143.37 396.12,-112.87 530.62,-112.87 530.62,-143.37"/>
<text xml:space="preserve" text-anchor="start" x="404.12" y="-129.87" font-family="Helvetica,sans-Serif" font-size="10.00">BigDataStatMeth::compute</text>
<text xml:space="preserve" text-anchor="middle" x="463.38" y="-118.62" font-family="Helvetica,sans-Serif" font-size="10.00">_pvalues_optimized</text>
</a>
</g>
</g>
<!-- Node1&#45;&gt;Node3 -->
<g id="edge2_Node000001_Node000003" class="edge">
<title>Node1&#45;&gt;Node3</title>
<g id="a_edge2_Node000001_Node000003"><a xlink:title=" ">
<path fill="none" stroke="#63b8ff" d="M149.84,-128.12C217.13,-128.12 316.05,-128.12 384.5,-128.12"/>
<polygon fill="#63b8ff" stroke="#63b8ff" points="384.13,-131.62 394.13,-128.12 384.13,-124.62 384.13,-131.62"/>
</a>
</g>
</g>
<!-- Node5 -->
<g id="Node000005" class="node">
<title>Node5</title>
<g id="a_Node000005"><a xlink:href="class_big_data_stat_meth_1_1hdf5_dataset.html#ab19bac9a31efe4a733294c1c23ff5ef7" target="_top" xlink:title="Create a new dataset with optional compression.">
<polygon fill="white" stroke="#666666" points="344,-290.37 193.75,-290.37 193.75,-259.87 344,-259.87 344,-290.37"/>
<text xml:space="preserve" text-anchor="start" x="201.75" y="-276.87" font-family="Helvetica,sans-Serif" font-size="10.00">BigDataStatMeth::hdf5Dataset</text>
<text xml:space="preserve" text-anchor="middle" x="268.88" y="-265.62" font-family="Helvetica,sans-Serif" font-size="10.00">::createDataset</text>
</a>
</g>
</g>
<!-- Node1&#45;&gt;Node5 -->
<g id="edge4_Node000001_Node000005" class="edge">
<title>Node1&#45;&gt;Node5</title>
<g id="a_edge4_Node000001_Node000005"><a xlink:title=" ">
<path fill="none" stroke="#63b8ff" d="M96.31,-143.85C130.54,-170.04 199.34,-222.68 238.62,-252.73"/>
<polygon fill="#63b8ff" stroke="#63b8ff" points="236.19,-255.28 246.26,-258.58 240.44,-249.72 236.19,-255.28"/>
</a>
</g>
</g>
<!-- Node13 -->
<g id="Node000013" class="node">
<title>Node13</title>
<g id="a_Node000013"><a xlink:href="class_big_data_stat_meth_1_1hdf5_dataset.html#acf9843abcb57a0090f1635cc69d95300" target="_top" xlink:title="Write data to the dataset.">
<polygon fill="white" stroke="#666666" points="538.5,-192.37 388.25,-192.37 388.25,-161.87 538.5,-161.87 538.5,-192.37"/>
<text xml:space="preserve" text-anchor="start" x="396.25" y="-178.87" font-family="Helvetica,sans-Serif" font-size="10.00">BigDataStatMeth::hdf5Dataset</text>
<text xml:space="preserve" text-anchor="middle" x="463.38" y="-167.62" font-family="Helvetica,sans-Serif" font-size="10.00">::writeDataset</text>
</a>
</g>
</g>
<!-- Node1&#45;&gt;Node13 -->
<g id="edge23_Node000001_Node000013" class="edge">
<title>Node1&#45;&gt;Node13</title>
<g id="a_edge23_Node000001_Node000013"><a xlink:title=" ">
<path fill="none" stroke="#63b8ff" d="M149.84,-137.58C161.76,-139.1 173.97,-140.65 185.5,-142.12 249.44,-150.24 321.7,-159.37 376.36,-166.27"/>
<polygon fill="#63b8ff" stroke="#63b8ff" points="375.89,-169.74 386.25,-167.52 376.77,-162.79 375.89,-169.74"/>
</a>
</g>
</g>
<!-- Node16 -->
<g id="Node000016" class="node">
<title>Node16</title>
<g id="a_Node000016"><a xlink:href="namespace_big_data_stat_meth.html#a69e49b89327966eb689525e63dea8656" target="_top" xlink:title=" ">
<polygon fill="white" stroke="#666666" points="725.88,-57.37 594.38,-57.37 594.38,-26.87 725.88,-26.87 725.88,-57.37"/>
<text xml:space="preserve" text-anchor="start" x="602.38" y="-43.87" font-family="Helvetica,sans-Serif" font-size="10.00">BigDataStatMeth::pearson</text>
<text xml:space="preserve" text-anchor="middle" x="660.12" y="-32.62" font-family="Helvetica,sans-Serif" font-size="10.00">_correlation</text>
</a>
</g>
</g>
<!-- Node1&#45;&gt;Node16 -->
<g id="edge16_Node000001_Node000016" class="edge">
<title>Node1&#45;&gt;Node16</title>
<g id="a_edge16_Node000001_Node000016"><a xlink:title=" ">
<path fill="none" stroke="#63b8ff" d="M88.31,-112.39C106.89,-90.43 144.03,-51.34 185.5,-34.12 319.02,21.31 492.5,-3.15 588.1,-23.93"/>
<polygon fill="#63b8ff" stroke="#63b8ff" points="587.08,-27.29 597.6,-26.04 588.6,-20.45 587.08,-27.29"/>
</a>
</g>
</g>
<!-- Node17 -->
<g id="Node000017" class="node">
<title>Node17</title>
<g id="a_Node000017"><a xlink:href="namespace_big_data_stat_meth.html#aa890111706f3d0e5cc011df4d78689f0" target="_top" xlink:title=" ">
<polygon fill="white" stroke="#666666" points="343.62,-100.37 194.12,-100.37 194.12,-69.87 343.62,-69.87 343.62,-100.37"/>
<text xml:space="preserve" text-anchor="start" x="202.12" y="-86.87" font-family="Helvetica,sans-Serif" font-size="10.00">BigDataStatMeth::RcppbdCorr</text>
<text xml:space="preserve" text-anchor="middle" x="268.88" y="-75.62" font-family="Helvetica,sans-Serif" font-size="10.00">_matrix_single</text>
</a>
</g>
</g>
<!-- Node1&#45;&gt;Node17 -->
<g id="edge17_Node000001_Node000017" class="edge">
<title>Node1&#45;&gt;Node17</title>
<g id="a_edge17_Node000001_Node000017"><a xlink:title=" ">
<path fill="none" stroke="#63b8ff" d="M145.93,-112.41C159.08,-109.47 172.92,-106.37 186.38,-103.36"/>
<polygon fill="#63b8ff" stroke="#63b8ff" points="187.1,-106.78 196.09,-101.18 185.57,-99.95 187.1,-106.78"/>
</a>
</g>
</g>
<!-- Node18 -->
<g id="Node000018" class="node">
<title>Node18</title>
<g id="a_Node000018"><a xlink:href="namespace_big_data_stat_meth.html#a73e0308254294ed4603750e0595b9802" target="_top" xlink:title=" ">
<polygon fill="white" stroke="#666666" points="533.25,-57.37 393.5,-57.37 393.5,-26.87 533.25,-26.87 533.25,-57.37"/>
<text xml:space="preserve" text-anchor="start" x="401.5" y="-43.87" font-family="Helvetica,sans-Serif" font-size="10.00">BigDataStatMeth::spearman</text>
<text xml:space="preserve" text-anchor="middle" x="463.38" y="-32.62" font-family="Helvetica,sans-Serif" font-size="10.00">_correlation</text>
</a>
</g>
</g>
<!-- Node1&#45;&gt;Node18 -->
<g id="edge22_Node000001_Node000018" class="edge">
<title>Node1&#45;&gt;Node18</title>
<g id="a_edge22_Node000001_Node000018"><a xlink:title=" ">
<path fill="none" stroke="#63b8ff" d="M94.95,-112.39C115.81,-96.3 150.83,-72.16 185.5,-61.12 249.39,-40.77 325.64,-36.93 381.92,-37.66"/>
<polygon fill="#63b8ff" stroke="#63b8ff" points="381.69,-41.16 391.75,-37.85 381.82,-34.16 381.69,-41.16"/>
</a>
</g>
</g>
<!-- Node4 -->
<g id="Node000004" class="node">
<title>Node4</title>
<g id="a_Node000004"><a xlink:href="namespace_big_data_stat_meth.html#a58690697a1eec1b3feefdc089d056905" target="_top" xlink:title="Compute p&#45;value for correlation coefficient using t&#45;distribution.">
<polygon fill="white" stroke="#666666" points="710.12,-143.37 610.12,-143.37 610.12,-112.87 710.12,-112.87 710.12,-143.37"/>
<text xml:space="preserve" text-anchor="start" x="618.12" y="-129.87" font-family="Helvetica,sans-Serif" font-size="10.00">BigDataStatMeth::t</text>
<text xml:space="preserve" text-anchor="middle" x="660.12" y="-118.62" font-family="Helvetica,sans-Serif" font-size="10.00">_distribution_cdf</text>
</a>
</g>
</g>
<!-- Node3&#45;&gt;Node4 -->
<g id="edge3_Node000003_Node000004" class="edge">
<title>Node3&#45;&gt;Node4</title>
<g id="a_edge3_Node000003_Node000004"><a xlink:title=" ">
<path fill="none" stroke="#63b8ff" d="M531.12,-128.12C552.96,-128.12 577.09,-128.12 598.46,-128.12"/>
<polygon fill="#63b8ff" stroke="#63b8ff" points="598.17,-131.62 608.17,-128.12 598.17,-124.62 598.17,-131.62"/>
</a>
</g>
</g>
<!-- Node6 -->
<g id="Node000006" class="node">
<title>Node6</title>
<g id="a_Node000006"><a xlink:href="class_big_data_stat_meth_1_1hdf5_dataset.html#ac7a7f23b7e22c9b56ca6ad86592f2d52" target="_top" xlink:title="Add an attribute to the dataset.">
<polygon fill="white" stroke="#666666" points="538.5,-241.37 388.25,-241.37 388.25,-210.87 538.5,-210.87 538.5,-241.37"/>
<text xml:space="preserve" text-anchor="start" x="396.25" y="-227.87" font-family="Helvetica,sans-Serif" font-size="10.00">BigDataStatMeth::hdf5Dataset</text>
<text xml:space="preserve" text-anchor="middle" x="463.38" y="-216.62" font-family="Helvetica,sans-Serif" font-size="10.00">::addAttribute</text>
</a>
</g>
</g>
<!-- Node5&#45;&gt;Node6 -->
<g id="edge5_Node000005_Node000006" class="edge">
<title>Node5&#45;&gt;Node6</title>
<g id="a_edge5_Node000005_Node000006"><a xlink:title=" ">
<path fill="none" stroke="#63b8ff" d="M331.58,-259.41C350.06,-254.71 370.49,-249.51 389.61,-244.64"/>
<polygon fill="#63b8ff" stroke="#63b8ff" points="390.4,-248.05 399.22,-242.19 388.67,-241.27 390.4,-248.05"/>
</a>
</g>
</g>
<!-- Node7 -->
<g id="Node000007" class="node">
<title>Node7</title>
<g id="a_Node000007"><a xlink:href="class_big_data_stat_meth_1_1hdf5_file.html#abfb73b5f1eb25ee00489485c8dc56a2a" target="_top" xlink:title="Close file and cleanup resources.">
<polygon fill="white" stroke="#666666" points="529.12,-486.37 397.62,-486.37 397.62,-455.87 529.12,-455.87 529.12,-486.37"/>
<text xml:space="preserve" text-anchor="start" x="405.62" y="-472.87" font-family="Helvetica,sans-Serif" font-size="10.00">BigDataStatMeth::hdf5File</text>
<text xml:space="preserve" text-anchor="middle" x="463.38" y="-461.62" font-family="Helvetica,sans-Serif" font-size="10.00">::close_file</text>
</a>
</g>
</g>
<!-- Node5&#45;&gt;Node7 -->
<g id="edge6_Node000005_Node000007" class="edge">
<title>Node5&#45;&gt;Node7</title>
<g id="a_edge6_Node000005_Node000007"><a xlink:title=" ">
<path fill="none" stroke="#63b8ff" d="M341.9,-290.66C345.66,-293.09 349.16,-295.89 352.25,-299.12 398.77,-347.7 342.75,-396.57 388.25,-446.12 388.97,-446.9 389.72,-447.67 390.49,-448.41"/>
<polygon fill="#63b8ff" stroke="#63b8ff" points="388.32,-451.15 398.37,-454.51 392.61,-445.62 388.32,-451.15"/>
</a>
</g>
</g>
<!-- Node8 -->
<g id="Node000008" class="node">
<title>Node8</title>
<g id="a_Node000008"><a xlink:href="class_big_data_stat_meth_1_1hdf5_group.html#a27cef4d33e46c72bfd792aa49fa621a3" target="_top" xlink:title="Create multiple nested groups.">
<polygon fill="white" stroke="#666666" points="534.38,-388.37 392.38,-388.37 392.38,-357.87 534.38,-357.87 534.38,-388.37"/>
<text xml:space="preserve" text-anchor="start" x="400.38" y="-374.87" font-family="Helvetica,sans-Serif" font-size="10.00">BigDataStatMeth::hdf5Group</text>
<text xml:space="preserve" text-anchor="middle" x="463.38" y="-363.62" font-family="Helvetica,sans-Serif" font-size="10.00">::create_HDF5_groups</text>
</a>
</g>
</g>
<!-- Node5&#45;&gt;Node8 -->
<g id="edge7_Node000005_Node000008" class="edge">
<title>Node5&#45;&gt;Node8</title>
<g id="a_edge7_Node000005_Node000008"><a xlink:title=" ">
<path fill="none" stroke="#63b8ff" d="M337.67,-290.82C342.8,-293.21 347.73,-295.96 352.25,-299.12 374.39,-314.61 366.43,-332.17 388.25,-348.12 390.18,-349.53 392.19,-350.86 394.27,-352.12"/>
<polygon fill="#63b8ff" stroke="#63b8ff" points="392.57,-355.18 403.04,-356.8 395.86,-349 392.57,-355.18"/>
</a>
</g>
</g>
<!-- Node10 -->
<g id="Node000010" class="node">
<title>Node10</title>
<g id="a_Node000010"><a xlink:href="namespace_big_data_stat_meth.html#a89d901ab4b5e01771f4e3fc7dc84e50e" target="_top" xlink:title="Checks if an HDF5 element (group or dataset) exists.">
<polygon fill="white" stroke="#666666" points="525,-437.37 401.75,-437.37 401.75,-406.87 525,-406.87 525,-437.37"/>
<text xml:space="preserve" text-anchor="start" x="409.75" y="-423.87" font-family="Helvetica,sans-Serif" font-size="10.00">BigDataStatMeth::exists</text>
<text xml:space="preserve" text-anchor="middle" x="463.38" y="-412.62" font-family="Helvetica,sans-Serif" font-size="10.00">_HDF5_element</text>
</a>
</g>
</g>
<!-- Node5&#45;&gt;Node10 -->
<g id="edge9_Node000005_Node000010" class="edge">
<title>Node5&#45;&gt;Node10</title>
<g id="a_edge9_Node000005_Node000010"><a xlink:title=" ">
<path fill="none" stroke="#63b8ff" d="M341.1,-290.84C345.11,-293.23 348.87,-295.97 352.25,-299.12 386.17,-330.78 355,-364.75 388.25,-397.12 389.47,-398.3 390.74,-399.43 392.06,-400.5"/>
<polygon fill="#63b8ff" stroke="#63b8ff" points="389.93,-403.29 400.17,-406 393.86,-397.49 389.93,-403.29"/>
</a>
</g>
</g>
<!-- Node11 -->
<g id="Node000011" class="node">
<title>Node11</title>
<g id="a_Node000011"><a xlink:href="class_big_data_stat_meth_1_1hdf5_group.html#a59995412538627e6c80f64b552c286f5" target="_top" xlink:title=" ">
<polygon fill="white" stroke="#666666" points="534.38,-339.37 392.38,-339.37 392.38,-308.87 534.38,-308.87 534.38,-339.37"/>
<text xml:space="preserve" text-anchor="start" x="400.38" y="-325.87" font-family="Helvetica,sans-Serif" font-size="10.00">BigDataStatMeth::hdf5Group</text>
<text xml:space="preserve" text-anchor="middle" x="463.38" y="-314.62" font-family="Helvetica,sans-Serif" font-size="10.00">::getGroupName</text>
</a>
</g>
</g>
<!-- Node5&#45;&gt;Node11 -->
<g id="edge11_Node000005_Node000011" class="edge">
<title>Node5&#45;&gt;Node11</title>
<g id="a_edge11_Node000005_Node000011"><a xlink:title=" ">
<path fill="none" stroke="#63b8ff" d="M331.58,-290.82C350.06,-295.53 370.49,-300.73 389.61,-305.6"/>
<polygon fill="#63b8ff" stroke="#63b8ff" points="388.67,-308.97 399.22,-308.04 390.4,-302.18 388.67,-308.97"/>
</a>
</g>
</g>
<!-- Node12 -->
<g id="Node000012" class="node">
<title>Node12</title>
<g id="a_Node000012"><a xlink:href="namespace_big_data_stat_meth.html#a3d06783149029f1df2853c472d401380" target="_top" xlink:title="Removes multiple elements from an HDF5 file.">
<polygon fill="white" stroke="#666666" points="528,-290.37 398.75,-290.37 398.75,-259.87 528,-259.87 528,-290.37"/>
<text xml:space="preserve" text-anchor="start" x="406.75" y="-276.87" font-family="Helvetica,sans-Serif" font-size="10.00">BigDataStatMeth::remove</text>
<text xml:space="preserve" text-anchor="middle" x="463.38" y="-265.62" font-family="Helvetica,sans-Serif" font-size="10.00">_elements</text>
</a>
</g>
</g>
<!-- Node5&#45;&gt;Node12 -->
<g id="edge12_Node000005_Node000012" class="edge">
<title>Node5&#45;&gt;Node12</title>
<g id="a_edge12_Node000005_Node000012"><a xlink:title=" ">
<path fill="none" stroke="#63b8ff" d="M344.3,-275.12C358.41,-275.12 373.18,-275.12 387.31,-275.12"/>
<polygon fill="#63b8ff" stroke="#63b8ff" points="386.96,-278.62 396.96,-275.12 386.96,-271.62 386.96,-278.62"/>
</a>
</g>
</g>
<!-- Node5&#45;&gt;Node13 -->
<g id="edge13_Node000005_Node000013" class="edge">
<title>Node5&#45;&gt;Node13</title>
<g id="a_edge13_Node000005_Node000013"><a xlink:title=" ">
<path fill="none" stroke="#63b8ff" d="M291.71,-259.54C314.84,-243.56 352.84,-218.74 388.25,-202.12 392.04,-200.34 395.99,-198.63 400.01,-196.99"/>
<polygon fill="#63b8ff" stroke="#63b8ff" points="401.26,-200.26 409.33,-193.39 398.74,-193.73 401.26,-200.26"/>
</a>
</g>
</g>
<!-- Node9 -->
<g id="Node000009" class="node">
<title>Node9</title>
<g id="a_Node000009"><a xlink:href="namespace_big_data_stat_meth.html#abcaa4216cd52f03ebac42e4855ef846b" target="_top" xlink:title="Checks if a path exists in an HDF5 file.">
<polygon fill="white" stroke="#666666" points="731.88,-406.74 588.38,-406.74 588.38,-387.49 731.88,-387.49 731.88,-406.74"/>
<text xml:space="preserve" text-anchor="middle" x="660.12" y="-393.24" font-family="Helvetica,sans-Serif" font-size="10.00">BigDataStatMeth::pathExists</text>
</a>
</g>
</g>
<!-- Node8&#45;&gt;Node9 -->
<g id="edge8_Node000008_Node000009" class="edge">
<title>Node8&#45;&gt;Node9</title>
<g id="a_edge8_Node000008_Node000009"><a xlink:title=" ">
<path fill="none" stroke="#63b8ff" d="M534.68,-381.78C548.35,-383.47 562.8,-385.25 576.81,-386.97"/>
<polygon fill="#63b8ff" stroke="#63b8ff" points="576.08,-390.41 586.44,-388.16 576.94,-383.46 576.08,-390.41"/>
</a>
</g>
</g>
<!-- Node10&#45;&gt;Node9 -->
<g id="edge10_Node000010_Node000009" class="edge">
<title>Node10&#45;&gt;Node9</title>
<g id="a_edge10_Node000010_Node000009"><a xlink:title=" ">
<path fill="none" stroke="#63b8ff" d="M525.46,-414.28C541.75,-412.18 559.62,-409.89 576.84,-407.68"/>
<polygon fill="#63b8ff" stroke="#63b8ff" points="577.07,-411.18 586.54,-406.43 576.18,-404.24 577.07,-411.18"/>
</a>
</g>
</g>
<!-- Node14 -->
<g id="Node000014" class="node">
<title>Node14</title>
<g id="a_Node000014"><a xlink:href="class_big_data_stat_meth_1_1hdf5_dataset.html#aba39e56a580d3b1fa7f1619fc72efa3e" target="_top" xlink:title="Close dataset and file.">
<polygon fill="white" stroke="#666666" points="735.25,-192.37 585,-192.37 585,-161.87 735.25,-161.87 735.25,-192.37"/>
<text xml:space="preserve" text-anchor="start" x="593" y="-178.87" font-family="Helvetica,sans-Serif" font-size="10.00">BigDataStatMeth::hdf5Dataset</text>
<text xml:space="preserve" text-anchor="middle" x="660.12" y="-167.62" font-family="Helvetica,sans-Serif" font-size="10.00">::close_dataset_file</text>
</a>
</g>
</g>
<!-- Node13&#45;&gt;Node14 -->
<g id="edge14_Node000013_Node000014" class="edge">
<title>Node13&#45;&gt;Node14</title>
<g id="a_edge14_Node000013_Node000014"><a xlink:title=" ">
<path fill="none" stroke="#63b8ff" d="M538.84,-177.12C550.11,-177.12 561.82,-177.12 573.31,-177.12"/>
<polygon fill="#63b8ff" stroke="#63b8ff" points="573.19,-180.62 583.19,-177.12 573.19,-173.62 573.19,-180.62"/>
</a>
</g>
</g>
<!-- Node15 -->
<g id="Node000015" class="node">
<title>Node15</title>
<g id="a_Node000015"><a xlink:href="class_big_data_stat_meth_1_1hdf5_dataset.html#a94d81b72e92cb0230b4e64f37ea7d2e3" target="_top" xlink:title="Convert DataFrame to range list.">
<polygon fill="white" stroke="#666666" points="745.75,-241.37 574.5,-241.37 574.5,-210.87 745.75,-210.87 745.75,-241.37"/>
<text xml:space="preserve" text-anchor="start" x="582.5" y="-227.87" font-family="Helvetica,sans-Serif" font-size="10.00">BigDataStatMeth::hdf5Dataset</text>
<text xml:space="preserve" text-anchor="middle" x="660.12" y="-216.62" font-family="Helvetica,sans-Serif" font-size="10.00">::convert_DataFrame_to_RangeList</text>
</a>
</g>
</g>
<!-- Node13&#45;&gt;Node15 -->
<g id="edge15_Node000013_Node000015" class="edge">
<title>Node13&#45;&gt;Node15</title>
<g id="a_edge15_Node000013_Node000015"><a xlink:title=" ">
<path fill="none" stroke="#63b8ff" d="M526.8,-192.82C545.58,-197.55 566.36,-202.78 585.78,-207.66"/>
<polygon fill="#63b8ff" stroke="#63b8ff" points="584.7,-211 595.25,-210.05 586.41,-204.21 584.7,-211"/>
</a>
</g>
</g>
<!-- Node17&#45;&gt;Node3 -->
<g id="edge18_Node000017_Node000003" class="edge">
<title>Node17&#45;&gt;Node3</title>
<g id="a_edge18_Node000017_Node000003"><a xlink:title=" ">
<path fill="none" stroke="#63b8ff" d="M340.19,-100.82C354.65,-104.05 369.96,-107.47 384.67,-110.76"/>
<polygon fill="#63b8ff" stroke="#63b8ff" points="383.78,-114.15 394.3,-112.91 385.3,-107.31 383.78,-114.15"/>
</a>
</g>
</g>
<!-- Node17&#45;&gt;Node16 -->
<g id="edge19_Node000017_Node000016" class="edge">
<title>Node17&#45;&gt;Node16</title>
<g id="a_edge19_Node000017_Node000016"><a xlink:title=" ">
<path fill="none" stroke="#63b8ff" d="M343.96,-82.39C398.05,-79.78 473.05,-74.91 538.5,-66.12 552.92,-64.18 568.21,-61.58 582.88,-58.79"/>
<polygon fill="#63b8ff" stroke="#63b8ff" points="583.32,-62.27 592.47,-56.93 581.99,-55.4 583.32,-62.27"/>
</a>
</g>
</g>
<!-- Node17&#45;&gt;Node18 -->
<g id="edge20_Node000017_Node000018" class="edge">
<title>Node17&#45;&gt;Node18</title>
<g id="a_edge20_Node000017_Node000018"><a xlink:title=" ">
<path fill="none" stroke="#63b8ff" d="M340.19,-69.41C353.83,-66.36 368.23,-63.15 382.16,-60.03"/>
<polygon fill="#63b8ff" stroke="#63b8ff" points="382.74,-63.49 391.74,-57.9 381.22,-56.66 382.74,-63.49"/>
</a>
</g>
</g>
<!-- Node18&#45;&gt;Node16 -->
<g id="edge21_Node000018_Node000016" class="edge">
<title>Node18&#45;&gt;Node16</title>
<g id="a_edge21_Node000018_Node000016"><a xlink:title=" ">
<path fill="none" stroke="#63b8ff" d="M533.58,-42.12C549.57,-42.12 566.67,-42.12 582.94,-42.12"/>
<polygon fill="#63b8ff" stroke="#63b8ff" points="582.53,-45.62 592.53,-42.12 582.53,-38.62 582.53,-45.62"/>
</a>
</g>
</g>
</g>
</svg>

<g id="navigator" transform="translate(0 0)" fill="#404254">
  <rect fill="#f2f5e9" fill-opacity="0.5" stroke="#606060" stroke-width=".5" x="0" y="0" width="60" height="60"/>
  <use id="zoomplus" xlink:href="#zoomPlus" x="17" y="9" onmousedown="handleZoom(evt,'in')"/>
  <use id="zoomminus" xlink:href="#zoomMin" x="42" y="9" onmousedown="handleZoom(evt,'out')"/>
  <use id="reset" xlink:href="#resetDef" x="30" y="36" onmousedown="handleReset()"/>
   <use id="arrowup" xlink:href="#arrowUp" x="0" y="0" onmousedown="handlePan(0,-1)"/>
  <use id="arrowright" xlink:href="#arrowRight" x="0" y="0" onmousedown="handlePan(1,0)"/>
  <use id="arrowdown" xlink:href="#arrowDown" x="0" y="0" onmousedown="handlePan(0,1)"/>
  <use id="arrowleft" xlink:href="#arrowLeft" x="0" y="0" onmousedown="handlePan(-1,0)"/>
</g>
<svg viewBox="0 0 15 15" width="100%" height="30px" preserveAspectRatio="xMaxYMin meet">
 <g id="arrow_out" transform="scale(0.3 0.3)">
  <a xlink:href="namespace_big_data_stat_meth_a11cc183caa903c10f78ffdb7969d0266_cgraph_org.svg" target="_base">
   <rect id="button" ry="5" rx="5" y="6" x="6" height="38" width="38"
        fill="#f2f5e9" fill-opacity="0.5" stroke="#606060" stroke-width="1.0"/>
   <path id="arrow"
     d="M 11.500037,31.436501 C 11.940474,20.09759 22.043105,11.32322 32.158766,21.979434 L 37.068811,17.246167 C 37.068811,17.246167 37.088388,32 37.088388,32 L 22.160133,31.978069 C 22.160133,31.978069 26.997745,27.140456 26.997745,27.140456 C 18.528582,18.264221 13.291696,25.230495 11.500037,31.436501 z"
     style="fill:#404040;"/>
  </a>
 </g>
</svg>

<style type='text/css'>
<![CDATA[
[data-mouse-over-selected='false'] { opacity: 0.7; }
[data-mouse-over-selected='true']  { opacity: 1.0; }
]]>
</style>
<script type="application/ecmascript"><![CDATA[
document.addEventListener('DOMContentLoaded', (event) => {
  highlightEdges();
  highlightAdjacentNodes();
});
]]></script>
</svg>
