<?xml version="1.0" encoding="UTF-8" standalone="no"?>
<!DOCTYPE svg PUBLIC "-//W3C//DTD SVG 1.1//EN"
 "http://www.w3.org/Graphics/SVG/1.1/DTD/svg11.dtd">
<!-- Generated by graphviz version 14.0.0 (20250921.2048)
 -->
<!-- Title: BigDataStatMeth::validateSpectraParams Pages: 1 -->
<!--zoomable 95 -->

<svg id="main" version="1.1" xmlns="http://www.w3.org/2000/svg" xmlns:xlink="http://www.w3.org/1999/xlink" xml:space="preserve" onload="init(evt)">

<style type="text/css"><![CDATA[
.node, .edge {opacity: 0.7;}
.node.selected, .edge.selected {opacity: 1;}
.edge:hover path { stroke: red; }
.edge:hover polygon { stroke: red; fill: red; }
]]></style>

<defs>
  <circle id="rim" cx="0" cy="0" r="7"/>
  <circle id="rim2" cx="0" cy="0" r="3.5"/>
  <g id="zoomPlus">
    <use xlink:href="#rim" fill="#404040"><set attributeName="fill" to="#808080" begin="zoomplus.mouseover" end="zoomplus.mouseout"/></use>
    <path d="M-4,0h8M0,-4v8" fill="none" stroke="white" stroke-width="1.5" pointer-events="none"/>
  </g>
  <g id="zoomMin">
    <use xlink:href="#rim" fill="#404040"><set attributeName="fill" to="#808080" begin="zoomminus.mouseover" end="zoomminus.mouseout"/></use>
    <path d="M-4,0h8" fill="none" stroke="white" stroke-width="1.5" pointer-events="none"/>
  </g>
  <g id="arrowUp" transform="translate(30 24)">
    <use xlink:href="#rim"/>
    <path pointer-events="none" fill="none" stroke="white" stroke-width="1.5" d="M0,-3.0v7 M-2.5,-0.5L0,-3.0L2.5,-0.5"/>
  </g>
  <g id="arrowRight" transform="rotate(90) translate(36 -43)">
    <use xlink:href="#rim"/>
    <path pointer-events="none" fill="none" stroke="white" stroke-width="1.5" d="M0,-3.0v7 M-2.5,-0.5L0,-3.0L2.5,-0.5"/>
  </g>
  <g id="arrowDown" transform="rotate(180) translate(-30 -48)">
    <use xlink:href="#rim"/>
    <path pointer-events="none" fill="none" stroke="white" stroke-width="1.5" d="M0,-3.0v7 M-2.5,-0.5L0,-3.0L2.5,-0.5"/>
  </g>
  <g id="arrowLeft" transform="rotate(270) translate(-36 17)">
    <use xlink:href="#rim"/>
    <path pointer-events="none" fill="none" stroke="white" stroke-width="1.5" d="M0,-3.0v7 M-2.5,-0.5L0,-3.0L2.5,-0.5"/>
  </g>
  <g id="resetDef">
    <use xlink:href="#rim2" fill="#404040"><set attributeName="fill" to="#808080" begin="reset.mouseover" end="reset.mouseout"/></use>
  </g>
</defs>
<script type="application/ecmascript">
var viewWidth = 737;
var viewHeight = 95;
var sectionId = 'dynsection-191';
</script>
<script type="application/ecmascript" xlink:href="../../../../assets/svg.min.js"/>
<svg id="graph" class="graph">
<g id="viewport">
<title>BigDataStatMeth::validateSpectraParams</title>
<!-- Node1 -->
<g id="Node000001" class="node">
<title>Node1</title>
<g id="a_Node000001"><a xlink:title="Validate and adjust Spectra parameters for convergence.">
<polygon fill="#999999" stroke="#666666" points="729.25,-73.5 598.5,-73.5 598.5,-43 729.25,-43 729.25,-73.5"/>
<text xml:space="preserve" text-anchor="start" x="606.5" y="-60" font-family="Helvetica,sans-Serif" font-size="10.00">BigDataStatMeth::validate</text>
<text xml:space="preserve" text-anchor="middle" x="663.88" y="-48.75" font-family="Helvetica,sans-Serif" font-size="10.00">SpectraParams</text>
</a>
</g>
</g>
<!-- Node2 -->
<g id="Node000002" class="node">
<title>Node2</title>
<g id="a_Node000002"><a xlink:href="namespace_big_data_stat_meth.html#a05652afd0a5a4a4afcda52b3d3bd2cc0" target="_top" xlink:title="Main eigenvalue decomposition function for HDF5 matrices using Spectra.">
<polygon fill="white" stroke="#666666" points="179.5,-64.88 0,-64.88 0,-45.62 179.5,-45.62 179.5,-64.88"/>
<text xml:space="preserve" text-anchor="middle" x="89.75" y="-51.38" font-family="Helvetica,sans-Serif" font-size="10.00">BigDataStatMeth::RcppbdEigen_hdf5</text>
</a>
</g>
</g>
<!-- Node1&#45;&gt;Node2 -->
<g id="edge1_Node000001_Node000002" class="edge">
<title>Node1&#45;&gt;Node2</title>
<g id="a_edge1_Node000001_Node000002"><a xlink:title=" ">
<path fill="none" stroke="#63b8ff" d="M586.98,-68.79C578.73,-69.72 570.44,-70.57 562.5,-71.25 408.8,-84.39 369.07,-93.89 215.5,-79.25 187.62,-76.59 156.7,-70.66 132.62,-65.37"/>
<polygon fill="#63b8ff" stroke="#63b8ff" points="587.15,-72.29 596.67,-67.65 586.33,-65.34 587.15,-72.29"/>
</a>
</g>
</g>
<!-- Node3 -->
<g id="Node000003" class="node">
<title>Node3</title>
<g id="a_Node000003"><a xlink:href="namespace_big_data_stat_meth.html#af27025105c7f4730a8233cf325613694" target="_top" xlink:title="Block&#45;wise eigendecomposition for large HDF5 matrices using Spectra.">
<polygon fill="white" stroke="#666666" points="371,-70.5 215.5,-70.5 215.5,-40 371,-40 371,-70.5"/>
<text xml:space="preserve" text-anchor="start" x="223.5" y="-57" font-family="Helvetica,sans-Serif" font-size="10.00">BigDataStatMeth::RcppbdEigen</text>
<text xml:space="preserve" text-anchor="middle" x="293.25" y="-45.75" font-family="Helvetica,sans-Serif" font-size="10.00">_hdf5_Block</text>
</a>
</g>
</g>
<!-- Node1&#45;&gt;Node3 -->
<g id="edge2_Node000001_Node000003" class="edge">
<title>Node1&#45;&gt;Node3</title>
<g id="a_edge2_Node000001_Node000003"><a xlink:title=" ">
<path fill="none" stroke="#63b8ff" d="M586.79,-57.63C523.75,-57.12 434.56,-56.39 371.27,-55.88"/>
<polygon fill="#63b8ff" stroke="#63b8ff" points="586.7,-61.13 596.73,-57.71 586.76,-54.13 586.7,-61.13"/>
</a>
</g>
</g>
<!-- Node4 -->
<g id="Node000004" class="node">
<title>Node4</title>
<g id="a_Node000004"><a xlink:href="namespace_big_data_stat_meth.html#a050dd22b3a20be0b77d4b72fd278a214" target="_top" xlink:title="Eigenvalue decomposition using Spectra (compatible with BigDataStatMeth SVD version)">
<polygon fill="white" stroke="#666666" points="562.5,-30.5 407,-30.5 407,0 562.5,0 562.5,-30.5"/>
<text xml:space="preserve" text-anchor="start" x="415" y="-17" font-family="Helvetica,sans-Serif" font-size="10.00">BigDataStatMeth::RcppbdEigen</text>
<text xml:space="preserve" text-anchor="middle" x="484.75" y="-5.75" font-family="Helvetica,sans-Serif" font-size="10.00">_spectra</text>
</a>
</g>
</g>
<!-- Node1&#45;&gt;Node4 -->
<g id="edge4_Node000001_Node000004" class="edge">
<title>Node1&#45;&gt;Node4</title>
<g id="a_edge4_Node000001_Node000004"><a xlink:title=" ">
<path fill="none" stroke="#63b8ff" d="M587.12,-39.86C574.95,-36.91 562.45,-33.87 550.57,-30.99"/>
<polygon fill="#63b8ff" stroke="#63b8ff" points="586.16,-43.23 596.71,-42.19 587.81,-36.43 586.16,-43.23"/>
</a>
</g>
</g>
<!-- Node3&#45;&gt;Node2 -->
<g id="edge3_Node000003_Node000002" class="edge">
<title>Node3&#45;&gt;Node2</title>
<g id="a_edge3_Node000003_Node000002"><a xlink:title=" ">
<path fill="none" stroke="#63b8ff" d="M203.72,-55.25C195.81,-55.25 187.79,-55.25 179.88,-55.25"/>
<polygon fill="#63b8ff" stroke="#63b8ff" points="203.7,-58.75 213.7,-55.25 203.7,-51.75 203.7,-58.75"/>
</a>
</g>
</g>
<!-- Node4&#45;&gt;Node2 -->
<g id="edge5_Node000004_Node000002" class="edge">
<title>Node4&#45;&gt;Node2</title>
<g id="a_edge5_Node000004_Node000002"><a xlink:title=" ">
<path fill="none" stroke="#63b8ff" d="M395.33,-17.62C342.9,-19.75 275.23,-23.76 215.5,-31.25 188.8,-34.6 159.22,-40.21 135.56,-45.16"/>
<polygon fill="#63b8ff" stroke="#63b8ff" points="395.24,-21.13 405.1,-17.24 394.97,-14.13 395.24,-21.13"/>
</a>
</g>
</g>
<!-- Node4&#45;&gt;Node3 -->
<g id="edge6_Node000004_Node000003" class="edge">
<title>Node4&#45;&gt;Node3</title>
<g id="a_edge6_Node000004_Node000003"><a xlink:title=" ">
<path fill="none" stroke="#63b8ff" d="M398.32,-33.28C388.44,-35.37 378.42,-37.48 368.7,-39.54"/>
<polygon fill="#63b8ff" stroke="#63b8ff" points="398.86,-36.75 407.92,-31.26 397.41,-29.9 398.86,-36.75"/>
</a>
</g>
</g>
</g>
</svg>

<g id="navigator" transform="translate(0 0)" fill="#404254">
  <rect fill="#f2f5e9" fill-opacity="0.5" stroke="#606060" stroke-width=".5" x="0" y="0" width="60" height="60"/>
  <use id="zoomplus" xlink:href="#zoomPlus" x="17" y="9" onmousedown="handleZoom(evt,'in')"/>
  <use id="zoomminus" xlink:href="#zoomMin" x="42" y="9" onmousedown="handleZoom(evt,'out')"/>
  <use id="reset" xlink:href="#resetDef" x="30" y="36" onmousedown="handleReset()"/>
   <use id="arrowup" xlink:href="#arrowUp" x="0" y="0" onmousedown="handlePan(0,-1)"/>
  <use id="arrowright" xlink:href="#arrowRight" x="0" y="0" onmousedown="handlePan(1,0)"/>
  <use id="arrowdown" xlink:href="#arrowDown" x="0" y="0" onmousedown="handlePan(0,1)"/>
  <use id="arrowleft" xlink:href="#arrowLeft" x="0" y="0" onmousedown="handlePan(-1,0)"/>
</g>
<svg viewBox="0 0 15 15" width="100%" height="30px" preserveAspectRatio="xMaxYMin meet">
 <g id="arrow_out" transform="scale(0.3 0.3)">
  <a xlink:href="namespace_big_data_stat_meth_afb53700b444c5257b41f07f12a84bdaa_icgraph_org.svg" target="_base">
   <rect id="button" ry="5" rx="5" y="6" x="6" height="38" width="38"
        fill="#f2f5e9" fill-opacity="0.5" stroke="#606060" stroke-width="1.0"/>
   <path id="arrow"
     d="M 11.500037,31.436501 C 11.940474,20.09759 22.043105,11.32322 32.158766,21.979434 L 37.068811,17.246167 C 37.068811,17.246167 37.088388,32 37.088388,32 L 22.160133,31.978069 C 22.160133,31.978069 26.997745,27.140456 26.997745,27.140456 C 18.528582,18.264221 13.291696,25.230495 11.500037,31.436501 z"
     style="fill:#404040;"/>
  </a>
 </g>
</svg>

<style type='text/css'>
<![CDATA[
[data-mouse-over-selected='false'] { opacity: 0.7; }
[data-mouse-over-selected='true']  { opacity: 1.0; }
]]>
</style>
<script type="application/ecmascript"><![CDATA[
document.addEventListener('DOMContentLoaded', (event) => {
  highlightEdges();
  highlightAdjacentNodes();
});
]]></script>
</svg>
