<?xml version="1.0" encoding="UTF-8" standalone="no"?>
<!DOCTYPE svg PUBLIC "-//W3C//DTD SVG 1.1//EN"
 "http://www.w3.org/Graphics/SVG/1.1/DTD/svg11.dtd">
<!-- Generated by graphviz version 14.0.0 (20250921.2048)
 -->
<!-- Title: BigDataStatMeth::RcppNormalize_Data_R_hdf5 Pages: 1 -->
<!--zoomable 76 -->

<svg id="main" version="1.1" xmlns="http://www.w3.org/2000/svg" xmlns:xlink="http://www.w3.org/1999/xlink" xml:space="preserve" onload="init(evt)">

<style type="text/css"><![CDATA[
.node, .edge {opacity: 0.7;}
.node.selected, .edge.selected {opacity: 1;}
.edge:hover path { stroke: red; }
.edge:hover polygon { stroke: red; fill: red; }
]]></style>

<defs>
  <circle id="rim" cx="0" cy="0" r="7"/>
  <circle id="rim2" cx="0" cy="0" r="3.5"/>
  <g id="zoomPlus">
    <use xlink:href="#rim" fill="#404040"><set attributeName="fill" to="#808080" begin="zoomplus.mouseover" end="zoomplus.mouseout"/></use>
    <path d="M-4,0h8M0,-4v8" fill="none" stroke="white" stroke-width="1.5" pointer-events="none"/>
  </g>
  <g id="zoomMin">
    <use xlink:href="#rim" fill="#404040"><set attributeName="fill" to="#808080" begin="zoomminus.mouseover" end="zoomminus.mouseout"/></use>
    <path d="M-4,0h8" fill="none" stroke="white" stroke-width="1.5" pointer-events="none"/>
  </g>
  <g id="arrowUp" transform="translate(30 24)">
    <use xlink:href="#rim"/>
    <path pointer-events="none" fill="none" stroke="white" stroke-width="1.5" d="M0,-3.0v7 M-2.5,-0.5L0,-3.0L2.5,-0.5"/>
  </g>
  <g id="arrowRight" transform="rotate(90) translate(36 -43)">
    <use xlink:href="#rim"/>
    <path pointer-events="none" fill="none" stroke="white" stroke-width="1.5" d="M0,-3.0v7 M-2.5,-0.5L0,-3.0L2.5,-0.5"/>
  </g>
  <g id="arrowDown" transform="rotate(180) translate(-30 -48)">
    <use xlink:href="#rim"/>
    <path pointer-events="none" fill="none" stroke="white" stroke-width="1.5" d="M0,-3.0v7 M-2.5,-0.5L0,-3.0L2.5,-0.5"/>
  </g>
  <g id="arrowLeft" transform="rotate(270) translate(-36 17)">
    <use xlink:href="#rim"/>
    <path pointer-events="none" fill="none" stroke="white" stroke-width="1.5" d="M0,-3.0v7 M-2.5,-0.5L0,-3.0L2.5,-0.5"/>
  </g>
  <g id="resetDef">
    <use xlink:href="#rim2" fill="#404040"><set attributeName="fill" to="#808080" begin="reset.mouseover" end="reset.mouseout"/></use>
  </g>
</defs>
<script type="application/ecmascript">
var viewWidth = 814;
var viewHeight = 76;
var sectionId = 'dynsection-156';
</script>
<script type="application/ecmascript" xlink:href="../../../../assets/svg.min.js"/>
<svg id="graph" class="graph">
<g id="viewport">
<title>BigDataStatMeth::RcppNormalize_Data_R_hdf5</title>
<!-- Node1 -->
<g id="Node000001" class="node">
<title>Node1</title>
<g id="a_Node000001"><a xlink:title=" ">
<polygon fill="#999999" stroke="#666666" points="805.75,-51.5 641.25,-51.5 641.25,-21 805.75,-21 805.75,-51.5"/>
<text xml:space="preserve" text-anchor="start" x="649.25" y="-38" font-family="Helvetica,sans-Serif" font-size="10.00">BigDataStatMeth::RcppNormalize</text>
<text xml:space="preserve" text-anchor="middle" x="723.5" y="-26.75" font-family="Helvetica,sans-Serif" font-size="10.00">_Data_R_hdf5</text>
</a>
</g>
</g>
<!-- Node2 -->
<g id="Node000002" class="node">
<title>Node2</title>
<g id="a_Node000002"><a xlink:href="namespace_big_data_stat_meth.html#aa04bdd4175075e124877dda4897c291b" target="_top" xlink:title="HDF5 matrix normalization with pre&#45;computed statistics.">
<polygon fill="white" stroke="#666666" points="605.25,-45.88 419.75,-45.88 419.75,-26.62 605.25,-26.62 605.25,-45.88"/>
<text xml:space="preserve" text-anchor="middle" x="512.5" y="-32.38" font-family="Helvetica,sans-Serif" font-size="10.00">BigDataStatMeth::RcppNormalizeHdf5</text>
</a>
</g>
</g>
<!-- Node1&#45;&gt;Node2 -->
<g id="edge1_Node000001_Node000002" class="edge">
<title>Node1&#45;&gt;Node2</title>
<g id="a_edge1_Node000001_Node000002"><a xlink:title=" ">
<path fill="none" stroke="#63b8ff" d="M629.31,-36.25C621.41,-36.25 613.43,-36.25 605.54,-36.25"/>
<polygon fill="#63b8ff" stroke="#63b8ff" points="629.28,-39.75 639.28,-36.25 629.28,-32.75 629.28,-39.75"/>
</a>
</g>
</g>
<!-- Node3 -->
<g id="Node000003" class="node">
<title>Node3</title>
<g id="a_Node000003"><a xlink:href="namespace_big_data_stat_meth.html#a6bc1373833a2909b57128c2656bef7ab" target="_top" xlink:title=" ">
<polygon fill="white" stroke="#666666" points="383.75,-67.88 198.25,-67.88 198.25,-48.62 383.75,-48.62 383.75,-67.88"/>
<text xml:space="preserve" text-anchor="middle" x="291" y="-54.38" font-family="Helvetica,sans-Serif" font-size="10.00">BigDataStatMeth::RcppNormalizeHdf5</text>
</a>
</g>
</g>
<!-- Node2&#45;&gt;Node3 -->
<g id="edge2_Node000002_Node000003" class="edge">
<title>Node2&#45;&gt;Node3</title>
<g id="a_edge2_Node000002_Node000003"><a xlink:title=" ">
<path fill="none" stroke="#63b8ff" d="M408.14,-46.61C400.17,-47.41 392.15,-48.21 384.25,-49"/>
<polygon fill="#63b8ff" stroke="#63b8ff" points="408.26,-50.12 417.86,-45.64 407.56,-43.15 408.26,-50.12"/>
</a>
</g>
</g>
<!-- Node4 -->
<g id="Node000004" class="node">
<title>Node4</title>
<g id="a_Node000004"><a xlink:href="namespace_big_data_stat_meth.html#a92087d3669b3bc07d9973a4f2f56cce0" target="_top" xlink:title=" ">
<polygon fill="white" stroke="#666666" points="364.25,-30.5 217.75,-30.5 217.75,0 364.25,0 364.25,-30.5"/>
<text xml:space="preserve" text-anchor="start" x="225.75" y="-17" font-family="Helvetica,sans-Serif" font-size="10.00">BigDataStatMeth::RcppTypify</text>
<text xml:space="preserve" text-anchor="middle" x="291" y="-5.75" font-family="Helvetica,sans-Serif" font-size="10.00">NormalizeHdf5</text>
</a>
</g>
</g>
<!-- Node2&#45;&gt;Node4 -->
<g id="edge3_Node000002_Node000004" class="edge">
<title>Node2&#45;&gt;Node4</title>
<g id="a_edge3_Node000002_Node000004"><a xlink:title=" ">
<path fill="none" stroke="#63b8ff" d="M408.15,-26.36C393.42,-24.95 378.53,-23.53 364.55,-22.19"/>
<polygon fill="#63b8ff" stroke="#63b8ff" points="407.57,-29.82 417.86,-27.29 408.24,-22.85 407.57,-29.82"/>
</a>
</g>
</g>
<!-- Node5 -->
<g id="Node000005" class="node">
<title>Node5</title>
<g id="a_Node000005"><a xlink:href="namespace_big_data_stat_meth.html#ad6b05b5b52e05bd7801b03ba6008980d" target="_top" xlink:title="Perform Principal Component Analysis.">
<polygon fill="white" stroke="#666666" points="162.25,-24.88 0,-24.88 0,-5.63 162.25,-5.63 162.25,-24.88"/>
<text xml:space="preserve" text-anchor="middle" x="81.12" y="-11.38" font-family="Helvetica,sans-Serif" font-size="10.00">BigDataStatMeth::RcppPCAHdf5</text>
</a>
</g>
</g>
<!-- Node4&#45;&gt;Node5 -->
<g id="edge4_Node000004_Node000005" class="edge">
<title>Node4&#45;&gt;Node5</title>
<g id="a_edge4_Node000004_Node000005"><a xlink:title=" ">
<path fill="none" stroke="#63b8ff" d="M205.95,-15.25C191.64,-15.25 176.81,-15.25 162.59,-15.25"/>
<polygon fill="#63b8ff" stroke="#63b8ff" points="205.78,-18.75 215.78,-15.25 205.78,-11.75 205.78,-18.75"/>
</a>
</g>
</g>
</g>
</svg>

<g id="navigator" transform="translate(0 0)" fill="#404254">
  <rect fill="#f2f5e9" fill-opacity="0.5" stroke="#606060" stroke-width=".5" x="0" y="0" width="60" height="60"/>
  <use id="zoomplus" xlink:href="#zoomPlus" x="17" y="9" onmousedown="handleZoom(evt,'in')"/>
  <use id="zoomminus" xlink:href="#zoomMin" x="42" y="9" onmousedown="handleZoom(evt,'out')"/>
  <use id="reset" xlink:href="#resetDef" x="30" y="36" onmousedown="handleReset()"/>
   <use id="arrowup" xlink:href="#arrowUp" x="0" y="0" onmousedown="handlePan(0,-1)"/>
  <use id="arrowright" xlink:href="#arrowRight" x="0" y="0" onmousedown="handlePan(1,0)"/>
  <use id="arrowdown" xlink:href="#arrowDown" x="0" y="0" onmousedown="handlePan(0,1)"/>
  <use id="arrowleft" xlink:href="#arrowLeft" x="0" y="0" onmousedown="handlePan(-1,0)"/>
</g>
<svg viewBox="0 0 15 15" width="100%" height="30px" preserveAspectRatio="xMaxYMin meet">
 <g id="arrow_out" transform="scale(0.3 0.3)">
  <a xlink:href="namespace_big_data_stat_meth_aa109a5664920caf79ff04c997a57cc59_icgraph_org.svg" target="_base">
   <rect id="button" ry="5" rx="5" y="6" x="6" height="38" width="38"
        fill="#f2f5e9" fill-opacity="0.5" stroke="#606060" stroke-width="1.0"/>
   <path id="arrow"
     d="M 11.500037,31.436501 C 11.940474,20.09759 22.043105,11.32322 32.158766,21.979434 L 37.068811,17.246167 C 37.068811,17.246167 37.088388,32 37.088388,32 L 22.160133,31.978069 C 22.160133,31.978069 26.997745,27.140456 26.997745,27.140456 C 18.528582,18.264221 13.291696,25.230495 11.500037,31.436501 z"
     style="fill:#404040;"/>
  </a>
 </g>
</svg>

<style type='text/css'>
<![CDATA[
[data-mouse-over-selected='false'] { opacity: 0.7; }
[data-mouse-over-selected='true']  { opacity: 1.0; }
]]>
</style>
<script type="application/ecmascript"><![CDATA[
document.addEventListener('DOMContentLoaded', (event) => {
  highlightEdges();
  highlightAdjacentNodes();
});
]]></script>
</svg>
