<?xml version="1.0" encoding="UTF-8" standalone="no"?>
<!DOCTYPE svg PUBLIC "-//W3C//DTD SVG 1.1//EN"
 "http://www.w3.org/Graphics/SVG/1.1/DTD/svg11.dtd">
<!-- Generated by graphviz version 14.0.0 (20250921.2048)
 -->
<!-- Title: BigDataStatMeth::getOptimBlockSize Pages: 1 -->
<!--zoomable 693 -->

<svg id="main" version="1.1" xmlns="http://www.w3.org/2000/svg" xmlns:xlink="http://www.w3.org/1999/xlink" xml:space="preserve" onload="init(evt)">

<style type="text/css"><![CDATA[
.node, .edge {opacity: 0.7;}
.node.selected, .edge.selected {opacity: 1;}
.edge:hover path { stroke: red; }
.edge:hover polygon { stroke: red; fill: red; }
]]></style>

<defs>
  <circle id="rim" cx="0" cy="0" r="7"/>
  <circle id="rim2" cx="0" cy="0" r="3.5"/>
  <g id="zoomPlus">
    <use xlink:href="#rim" fill="#404040"><set attributeName="fill" to="#808080" begin="zoomplus.mouseover" end="zoomplus.mouseout"/></use>
    <path d="M-4,0h8M0,-4v8" fill="none" stroke="white" stroke-width="1.5" pointer-events="none"/>
  </g>
  <g id="zoomMin">
    <use xlink:href="#rim" fill="#404040"><set attributeName="fill" to="#808080" begin="zoomminus.mouseover" end="zoomminus.mouseout"/></use>
    <path d="M-4,0h8" fill="none" stroke="white" stroke-width="1.5" pointer-events="none"/>
  </g>
  <g id="arrowUp" transform="translate(30 24)">
    <use xlink:href="#rim"/>
    <path pointer-events="none" fill="none" stroke="white" stroke-width="1.5" d="M0,-3.0v7 M-2.5,-0.5L0,-3.0L2.5,-0.5"/>
  </g>
  <g id="arrowRight" transform="rotate(90) translate(36 -43)">
    <use xlink:href="#rim"/>
    <path pointer-events="none" fill="none" stroke="white" stroke-width="1.5" d="M0,-3.0v7 M-2.5,-0.5L0,-3.0L2.5,-0.5"/>
  </g>
  <g id="arrowDown" transform="rotate(180) translate(-30 -48)">
    <use xlink:href="#rim"/>
    <path pointer-events="none" fill="none" stroke="white" stroke-width="1.5" d="M0,-3.0v7 M-2.5,-0.5L0,-3.0L2.5,-0.5"/>
  </g>
  <g id="arrowLeft" transform="rotate(270) translate(-36 17)">
    <use xlink:href="#rim"/>
    <path pointer-events="none" fill="none" stroke="white" stroke-width="1.5" d="M0,-3.0v7 M-2.5,-0.5L0,-3.0L2.5,-0.5"/>
  </g>
  <g id="resetDef">
    <use xlink:href="#rim2" fill="#404040"><set attributeName="fill" to="#808080" begin="reset.mouseover" end="reset.mouseout"/></use>
  </g>
</defs>
<script type="application/ecmascript">
var viewWidth = 1325;
var viewHeight = 693;
var sectionId = 'dynsection-80';
</script>
<script type="application/ecmascript" xlink:href="../../../../assets/svg.min.js"/>
<svg id="graph" class="graph">
<g id="viewport">
<title>BigDataStatMeth::getOptimBlockSize</title>
<!-- Node1 -->
<g id="Node000001" class="node">
<title>Node1</title>
<g id="a_Node000001"><a xlink:title="Optimizes block size for edge cases.">
<polygon fill="#999999" stroke="#666666" points="1317.25,-223.09 1180.5,-223.09 1180.5,-192.59 1317.25,-192.59 1317.25,-223.09"/>
<text xml:space="preserve" text-anchor="start" x="1188.5" y="-209.59" font-family="Helvetica,sans-Serif" font-size="10.00">BigDataStatMeth::getOptim</text>
<text xml:space="preserve" text-anchor="middle" x="1248.88" y="-198.34" font-family="Helvetica,sans-Serif" font-size="10.00">BlockSize</text>
</a>
</g>
</g>
<!-- Node2 -->
<g id="Node000002" class="node">
<title>Node2</title>
<g id="a_Node000002"><a xlink:href="namespace_big_data_stat_meth.html#ae7e4660ebbdf221a371a7bcabce9e69c" target="_top" xlink:title="Computes the cross&#45;product of two matrices stored in HDF5 format.">
<polygon fill="white" stroke="#666666" points="1144.5,-383.47 1004.75,-383.47 1004.75,-364.22 1144.5,-364.22 1144.5,-383.47"/>
<text xml:space="preserve" text-anchor="middle" x="1074.62" y="-369.97" font-family="Helvetica,sans-Serif" font-size="10.00">BigDataStatMeth::crossprod</text>
</a>
</g>
</g>
<!-- Node1&#45;&gt;Node2 -->
<g id="edge1_Node000001_Node000002" class="edge">
<title>Node1&#45;&gt;Node2</title>
<g id="a_edge1_Node000001_Node000002"><a xlink:title=" ">
<path fill="none" stroke="#63b8ff" d="M1236.59,-233.64C1220.8,-266.72 1188.96,-323.54 1144.5,-354.84 1139.33,-358.49 1133.48,-361.43 1127.44,-363.81"/>
<polygon fill="#63b8ff" stroke="#63b8ff" points="1239.67,-235.32 1240.69,-224.78 1233.32,-232.38 1239.67,-235.32"/>
</a>
</g>
</g>
<!-- Node3 -->
<g id="Node000003" class="node">
<title>Node3</title>
<g id="a_Node000003"><a xlink:href="namespace_big_data_stat_meth.html#af64ef9879e2404a9490e6a93f7bc8807" target="_top" xlink:title="Calculate block positions and sizes for matrix operations.">
<polygon fill="white" stroke="#666666" points="1142.25,-346.09 1007,-346.09 1007,-315.59 1142.25,-315.59 1142.25,-346.09"/>
<text xml:space="preserve" text-anchor="start" x="1015" y="-332.59" font-family="Helvetica,sans-Serif" font-size="10.00">BigDataStatMeth::getBlock</text>
<text xml:space="preserve" text-anchor="middle" x="1074.62" y="-321.34" font-family="Helvetica,sans-Serif" font-size="10.00">PositionsSizes</text>
</a>
</g>
</g>
<!-- Node1&#45;&gt;Node3 -->
<g id="edge2_Node000001_Node000003" class="edge">
<title>Node1&#45;&gt;Node3</title>
<g id="a_edge2_Node000001_Node000003"><a xlink:title=" ">
<path fill="none" stroke="#63b8ff" d="M1216.93,-229.94C1182.51,-254.52 1127.79,-293.6 1097.53,-315.2"/>
<polygon fill="#63b8ff" stroke="#63b8ff" points="1218.72,-232.96 1224.83,-224.3 1214.66,-227.27 1218.72,-232.96"/>
</a>
</g>
</g>
<!-- Node21 -->
<g id="Node000021" class="node">
<title>Node21</title>
<g id="a_Node000021"><a xlink:href="namespace_big_data_stat_meth.html#a4532de3ac207a552febd7174eaa5e58f" target="_top" xlink:title="Calculate block positions and sizes for HDF5 matrix operations.">
<polygon fill="white" stroke="#666666" points="1142.25,-101.09 1007,-101.09 1007,-70.59 1142.25,-70.59 1142.25,-101.09"/>
<text xml:space="preserve" text-anchor="start" x="1015" y="-87.59" font-family="Helvetica,sans-Serif" font-size="10.00">BigDataStatMeth::getBlock</text>
<text xml:space="preserve" text-anchor="middle" x="1074.62" y="-76.34" font-family="Helvetica,sans-Serif" font-size="10.00">PositionsSizes_hdf5</text>
</a>
</g>
</g>
<!-- Node1&#45;&gt;Node21 -->
<g id="edge21_Node000001_Node000021" class="edge">
<title>Node1&#45;&gt;Node21</title>
<g id="a_edge21_Node000001_Node000021"><a xlink:title=" ">
<path fill="none" stroke="#63b8ff" d="M1216.58,-185.68C1182.21,-161.33 1127.89,-122.86 1097.71,-101.48"/>
<polygon fill="#63b8ff" stroke="#63b8ff" points="1214.29,-188.35 1224.47,-191.27 1218.34,-182.63 1214.29,-188.35"/>
</a>
</g>
</g>
<!-- Node25 -->
<g id="Node000025" class="node">
<title>Node25</title>
<g id="a_Node000025"><a xlink:href="namespace_big_data_stat_meth.html#ad906566c91fca82f6ff5e76098d9d098" target="_top" xlink:title="Calculate block positions and sizes for matrix operations.">
<polygon fill="white" stroke="#666666" points="1142.25,-52.09 1007,-52.09 1007,-21.59 1142.25,-21.59 1142.25,-52.09"/>
<text xml:space="preserve" text-anchor="start" x="1015" y="-38.59" font-family="Helvetica,sans-Serif" font-size="10.00">BigDataStatMeth::getBlock</text>
<text xml:space="preserve" text-anchor="middle" x="1074.62" y="-27.34" font-family="Helvetica,sans-Serif" font-size="10.00">PositionsSizes_mat</text>
</a>
</g>
</g>
<!-- Node1&#45;&gt;Node25 -->
<g id="edge26_Node000001_Node000025" class="edge">
<title>Node1&#45;&gt;Node25</title>
<g id="a_edge26_Node000001_Node000025"><a xlink:title=" ">
<path fill="none" stroke="#63b8ff" d="M1235.91,-182.25C1219.56,-149.9 1187.32,-94.5 1144.5,-61.84 1139.85,-58.3 1134.64,-55.22 1129.23,-52.55"/>
<polygon fill="#63b8ff" stroke="#63b8ff" points="1232.61,-183.49 1240.17,-190.92 1238.9,-180.4 1232.61,-183.49"/>
</a>
</g>
</g>
<!-- Node4 -->
<g id="Node000004" class="node">
<title>Node4</title>
<g id="a_Node000004"><a xlink:href="namespace_big_data_stat_meth.html#a180c07885da3c3a9e7e218e82e14e81e" target="_top" xlink:title="Block&#45;based matrix multiplication.">
<polygon fill="white" stroke="#666666" points="951.88,-661.09 831.62,-661.09 831.62,-630.59 951.88,-630.59 951.88,-661.09"/>
<text xml:space="preserve" text-anchor="start" x="839.62" y="-647.59" font-family="Helvetica,sans-Serif" font-size="10.00">BigDataStatMeth::Rcpp</text>
<text xml:space="preserve" text-anchor="middle" x="891.75" y="-636.34" font-family="Helvetica,sans-Serif" font-size="10.00">_block_matrix_mul</text>
</a>
</g>
</g>
<!-- Node3&#45;&gt;Node4 -->
<g id="edge3_Node000003_Node000004" class="edge">
<title>Node3&#45;&gt;Node4</title>
<g id="a_edge3_Node000003_Node000004"><a xlink:title=" ">
<path fill="none" stroke="#63b8ff" d="M1005.51,-353.95C1005.25,-354.24 1005,-354.54 1004.75,-354.84 929.27,-447.23 1045.03,-529.12 968.75,-620.84 964.22,-626.29 958.48,-630.56 952.19,-633.9"/>
<polygon fill="#63b8ff" stroke="#63b8ff" points="1007.69,-356.69 1012.78,-347.4 1003.01,-351.49 1007.69,-356.69"/>
</a>
</g>
</g>
<!-- Node10 -->
<g id="Node000010" class="node">
<title>Node10</title>
<g id="a_Node000010"><a xlink:href="namespace_big_data_stat_meth.html#a9597ad045ffee7645878c00c579a7139" target="_top" xlink:title="Parallel block&#45;based matrix multiplication.">
<polygon fill="white" stroke="#666666" points="958.62,-612.09 824.88,-612.09 824.88,-581.59 958.62,-581.59 958.62,-612.09"/>
<text xml:space="preserve" text-anchor="start" x="832.88" y="-598.59" font-family="Helvetica,sans-Serif" font-size="10.00">BigDataStatMeth::Rcpp</text>
<text xml:space="preserve" text-anchor="middle" x="891.75" y="-587.34" font-family="Helvetica,sans-Serif" font-size="10.00">_block_matrix_mul_parallel</text>
</a>
</g>
</g>
<!-- Node3&#45;&gt;Node10 -->
<g id="edge10_Node000003_Node000010" class="edge">
<title>Node3&#45;&gt;Node10</title>
<g id="a_edge10_Node000003_Node000010"><a xlink:title=" ">
<path fill="none" stroke="#63b8ff" d="M1005.52,-353.96C1005.26,-354.25 1005,-354.55 1004.75,-354.84 941.77,-429.62 1032.38,-497.62 968.75,-571.84 965.68,-575.43 962.08,-578.5 958.15,-581.14"/>
<polygon fill="#63b8ff" stroke="#63b8ff" points="1007.69,-356.71 1012.88,-347.48 1003.06,-351.46 1007.69,-356.71"/>
</a>
</g>
</g>
<!-- Node12 -->
<g id="Node000012" class="node">
<title>Node12</title>
<g id="a_Node000012"><a xlink:href="namespace_big_data_stat_meth.html#add3e7c6e17615743bebb831769594bb7" target="_top" xlink:title="Block&#45;based matrix subtraction for HDF5 matrices.">
<polygon fill="white" stroke="#666666" points="965,-563.09 818.5,-563.09 818.5,-532.59 965,-532.59 965,-563.09"/>
<text xml:space="preserve" text-anchor="start" x="826.5" y="-549.59" font-family="Helvetica,sans-Serif" font-size="10.00">BigDataStatMeth::Rcpp</text>
<text xml:space="preserve" text-anchor="middle" x="891.75" y="-538.34" font-family="Helvetica,sans-Serif" font-size="10.00">_block_matrix_substract_hdf5</text>
</a>
</g>
</g>
<!-- Node3&#45;&gt;Node12 -->
<g id="edge12_Node000003_Node000012" class="edge">
<title>Node3&#45;&gt;Node12</title>
<g id="a_edge12_Node000003_Node000012"><a xlink:title=" ">
<path fill="none" stroke="#63b8ff" d="M1005.84,-353.65C1005.47,-354.04 1005.11,-354.44 1004.75,-354.84 954.21,-412.09 1019.79,-466.05 968.75,-522.84 965.5,-526.46 961.72,-529.56 957.61,-532.2"/>
<polygon fill="#63b8ff" stroke="#63b8ff" points="1007.92,-356.48 1013.34,-347.38 1003.42,-351.11 1007.92,-356.48"/>
</a>
</g>
</g>
<!-- Node13 -->
<g id="Node000013" class="node">
<title>Node13</title>
<g id="a_Node000013"><a xlink:href="namespace_big_data_stat_meth.html#adca1fe834710ee0e3307197c31b6c76a" target="_top" xlink:title="Block&#45;based matrix addition for HDF5 matrices.">
<polygon fill="white" stroke="#666666" points="954.12,-514.09 829.38,-514.09 829.38,-483.59 954.12,-483.59 954.12,-514.09"/>
<text xml:space="preserve" text-anchor="start" x="837.38" y="-500.59" font-family="Helvetica,sans-Serif" font-size="10.00">BigDataStatMeth::Rcpp</text>
<text xml:space="preserve" text-anchor="middle" x="891.75" y="-489.34" font-family="Helvetica,sans-Serif" font-size="10.00">_block_matrix_sum_hdf5</text>
</a>
</g>
</g>
<!-- Node3&#45;&gt;Node13 -->
<g id="edge13_Node000003_Node000013" class="edge">
<title>Node3&#45;&gt;Node13</title>
<g id="a_edge13_Node000003_Node000013"><a xlink:title=" ">
<path fill="none" stroke="#63b8ff" d="M1006.22,-353.38C1005.72,-353.85 1005.23,-354.34 1004.75,-354.84 966.25,-395.07 1007.84,-435.19 968.75,-474.84 964.57,-479.08 959.66,-482.57 954.36,-485.45"/>
<polygon fill="#63b8ff" stroke="#63b8ff" points="1008.17,-356.29 1013.92,-347.39 1003.87,-350.77 1008.17,-356.29"/>
</a>
</g>
</g>
<!-- Node14 -->
<g id="Node000014" class="node">
<title>Node14</title>
<g id="a_Node000014"><a xlink:href="namespace_big_data_stat_meth.html#a42258f236bbc70f0e637f3883915d772" target="_top" xlink:title="Block&#45;based matrix&#45;vector subtraction for HDF5 matrices.">
<polygon fill="white" stroke="#666666" points="951.88,-465.72 831.62,-465.72 831.62,-423.97 951.88,-423.97 951.88,-465.72"/>
<text xml:space="preserve" text-anchor="start" x="839.62" y="-452.22" font-family="Helvetica,sans-Serif" font-size="10.00">BigDataStatMeth::Rcpp</text>
<text xml:space="preserve" text-anchor="start" x="839.62" y="-440.97" font-family="Helvetica,sans-Serif" font-size="10.00">_block_matrix_vector</text>
<text xml:space="preserve" text-anchor="middle" x="891.75" y="-429.72" font-family="Helvetica,sans-Serif" font-size="10.00">_substract_hdf5</text>
</a>
</g>
</g>
<!-- Node3&#45;&gt;Node14 -->
<g id="edge14_Node000003_Node000014" class="edge">
<title>Node3&#45;&gt;Node14</title>
<g id="a_edge14_Node000003_Node000014"><a xlink:title=" ">
<path fill="none" stroke="#63b8ff" d="M1008.17,-352.25C1007,-353.08 1005.86,-353.95 1004.75,-354.84 980.62,-374.47 992.47,-394.74 968.75,-414.84 963.77,-419.06 958.13,-422.74 952.22,-425.92"/>
<polygon fill="#63b8ff" stroke="#63b8ff" points="1009.66,-355.43 1016.37,-347.23 1006.01,-349.46 1009.66,-355.43"/>
</a>
</g>
</g>
<!-- Node15 -->
<g id="Node000015" class="node">
<title>Node15</title>
<g id="a_Node000015"><a xlink:href="namespace_big_data_stat_meth.html#aefec6235cbdf8698782ef6040cda64ac" target="_top" xlink:title="Block&#45;based matrix&#45;vector addition for HDF5 matrices.">
<polygon fill="white" stroke="#666666" points="951.88,-405.72 831.62,-405.72 831.62,-363.97 951.88,-363.97 951.88,-405.72"/>
<text xml:space="preserve" text-anchor="start" x="839.62" y="-392.22" font-family="Helvetica,sans-Serif" font-size="10.00">BigDataStatMeth::Rcpp</text>
<text xml:space="preserve" text-anchor="start" x="839.62" y="-380.97" font-family="Helvetica,sans-Serif" font-size="10.00">_block_matrix_vector</text>
<text xml:space="preserve" text-anchor="middle" x="891.75" y="-369.72" font-family="Helvetica,sans-Serif" font-size="10.00">_sum_hdf5</text>
</a>
</g>
</g>
<!-- Node3&#45;&gt;Node15 -->
<g id="edge15_Node000003_Node000015" class="edge">
<title>Node3&#45;&gt;Node15</title>
<g id="a_edge15_Node000003_Node000015"><a xlink:title=" ">
<path fill="none" stroke="#63b8ff" d="M1010.42,-349.71C991.54,-355.35 970.91,-361.51 952.27,-367.08"/>
<polygon fill="#63b8ff" stroke="#63b8ff" points="1011.28,-353.11 1019.86,-346.9 1009.27,-346.4 1011.28,-353.11"/>
</a>
</g>
</g>
<!-- Node16 -->
<g id="Node000016" class="node">
<title>Node16</title>
<g id="a_Node000016"><a xlink:href="namespace_big_data_stat_meth.html#a74c883fbeaa1a64e7f3153d99b49331d" target="_top" xlink:title="Block&#45;based matrix subtraction.">
<polygon fill="white" stroke="#666666" points="951.88,-346.09 831.62,-346.09 831.62,-315.59 951.88,-315.59 951.88,-346.09"/>
<text xml:space="preserve" text-anchor="start" x="839.62" y="-332.59" font-family="Helvetica,sans-Serif" font-size="10.00">BigDataStatMeth::Rcpp</text>
<text xml:space="preserve" text-anchor="middle" x="891.75" y="-321.34" font-family="Helvetica,sans-Serif" font-size="10.00">_matrix_blockSubstract</text>
</a>
</g>
</g>
<!-- Node3&#45;&gt;Node16 -->
<g id="edge16_Node000003_Node000016" class="edge">
<title>Node3&#45;&gt;Node16</title>
<g id="a_edge16_Node000003_Node000016"><a xlink:title=" ">
<path fill="none" stroke="#63b8ff" d="M995.13,-330.84C980.76,-330.84 965.98,-330.84 952.28,-330.84"/>
<polygon fill="#63b8ff" stroke="#63b8ff" points="995.02,-334.35 1005.02,-330.84 995.02,-327.35 995.02,-334.35"/>
</a>
</g>
</g>
<!-- Node17 -->
<g id="Node000017" class="node">
<title>Node17</title>
<g id="a_Node000017"><a xlink:href="namespace_big_data_stat_meth.html#a976fa99d75a6c57b1bbd1df4e67f235c" target="_top" xlink:title="Block&#45;based matrix addition implementation.">
<polygon fill="white" stroke="#666666" points="951.88,-297.09 831.62,-297.09 831.62,-266.59 951.88,-266.59 951.88,-297.09"/>
<text xml:space="preserve" text-anchor="start" x="839.62" y="-283.59" font-family="Helvetica,sans-Serif" font-size="10.00">BigDataStatMeth::Rcpp</text>
<text xml:space="preserve" text-anchor="middle" x="891.75" y="-272.34" font-family="Helvetica,sans-Serif" font-size="10.00">_matrix_blockSum</text>
</a>
</g>
</g>
<!-- Node3&#45;&gt;Node17 -->
<g id="edge17_Node000003_Node000017" class="edge">
<title>Node3&#45;&gt;Node17</title>
<g id="a_edge17_Node000003_Node000017"><a xlink:title=" ">
<path fill="none" stroke="#63b8ff" d="M1004.97,-312.25C987.14,-307.41 968.1,-302.26 950.86,-297.59"/>
<polygon fill="#63b8ff" stroke="#63b8ff" points="1003.87,-315.57 1014.44,-314.81 1005.7,-308.82 1003.87,-315.57"/>
</a>
</g>
</g>
<!-- Node18 -->
<g id="Node000018" class="node">
<title>Node18</title>
<g id="a_Node000018"><a xlink:href="namespace_big_data_stat_meth.html#adb11d884528cecbc7cc403848680b101" target="_top" xlink:title="Block&#45;based matrix&#45;vector multiplication.">
<polygon fill="white" stroke="#666666" points="955.62,-248.09 827.88,-248.09 827.88,-217.59 955.62,-217.59 955.62,-248.09"/>
<text xml:space="preserve" text-anchor="start" x="835.88" y="-234.59" font-family="Helvetica,sans-Serif" font-size="10.00">BigDataStatMeth::Rcpp</text>
<text xml:space="preserve" text-anchor="middle" x="891.75" y="-223.34" font-family="Helvetica,sans-Serif" font-size="10.00">_matrix_vector_blockMult</text>
</a>
</g>
</g>
<!-- Node3&#45;&gt;Node18 -->
<g id="edge18_Node000003_Node000018" class="edge">
<title>Node3&#45;&gt;Node18</title>
<g id="a_edge18_Node000003_Node000018"><a xlink:title=" ">
<path fill="none" stroke="#63b8ff" d="M1045.97,-308.25C1025.59,-292.46 996.68,-271.79 968.75,-257.84 961.91,-254.43 954.51,-251.33 947.09,-248.57"/>
<polygon fill="#63b8ff" stroke="#63b8ff" points="1043.76,-310.96 1053.78,-314.4 1048.09,-305.46 1043.76,-310.96"/>
</a>
</g>
</g>
<!-- Node19 -->
<g id="Node000019" class="node">
<title>Node19</title>
<g id="a_Node000019"><a xlink:href="namespace_big_data_stat_meth.html#adf046c6253bc868ddc74e25467bad8d9" target="_top" xlink:title="Block&#45;based matrix&#45;vector subtraction.">
<polygon fill="white" stroke="#666666" points="967.25,-199.09 816.25,-199.09 816.25,-168.59 967.25,-168.59 967.25,-199.09"/>
<text xml:space="preserve" text-anchor="start" x="824.25" y="-185.59" font-family="Helvetica,sans-Serif" font-size="10.00">BigDataStatMeth::Rcpp</text>
<text xml:space="preserve" text-anchor="middle" x="891.75" y="-174.34" font-family="Helvetica,sans-Serif" font-size="10.00">_matrix_vector_blockSubstract</text>
</a>
</g>
</g>
<!-- Node3&#45;&gt;Node19 -->
<g id="edge19_Node000003_Node000019" class="edge">
<title>Node3&#45;&gt;Node19</title>
<g id="a_edge19_Node000003_Node000019"><a xlink:title=" ">
<path fill="none" stroke="#63b8ff" d="M1058.32,-306.04C1040.16,-278.55 1007.42,-234.7 968.75,-208.84 963.44,-205.29 957.58,-202.21 951.55,-199.55"/>
<polygon fill="#63b8ff" stroke="#63b8ff" points="1055.16,-307.58 1063.52,-314.09 1061.04,-303.79 1055.16,-307.58"/>
</a>
</g>
</g>
<!-- Node20 -->
<g id="Node000020" class="node">
<title>Node20</title>
<g id="a_Node000020"><a xlink:href="namespace_big_data_stat_meth.html#a2fb9cee8a6e5ad95884c7d9760e014d9" target="_top" xlink:title="Block&#45;based matrix&#45;vector addition with parallel processing.">
<polygon fill="white" stroke="#666666" points="956.38,-150.09 827.12,-150.09 827.12,-119.59 956.38,-119.59 956.38,-150.09"/>
<text xml:space="preserve" text-anchor="start" x="835.12" y="-136.59" font-family="Helvetica,sans-Serif" font-size="10.00">BigDataStatMeth::Rcpp</text>
<text xml:space="preserve" text-anchor="middle" x="891.75" y="-125.34" font-family="Helvetica,sans-Serif" font-size="10.00">_matrix_vector_blockSum</text>
</a>
</g>
</g>
<!-- Node3&#45;&gt;Node20 -->
<g id="edge20_Node000003_Node000020" class="edge">
<title>Node3&#45;&gt;Node20</title>
<g id="a_edge20_Node000003_Node000020"><a xlink:title=" ">
<path fill="none" stroke="#63b8ff" d="M1064.36,-304.79C1049.75,-267.39 1017.89,-198.71 968.75,-159.84 964.17,-156.23 959.05,-153.12 953.69,-150.46"/>
<polygon fill="#63b8ff" stroke="#63b8ff" points="1060.99,-305.8 1067.8,-313.91 1067.54,-303.32 1060.99,-305.8"/>
</a>
</g>
</g>
<!-- Node5 -->
<g id="Node000005" class="node">
<title>Node5</title>
<g id="a_Node000005"><a xlink:href="namespace_big_data_stat_meth.html#a8230fb3b686276464c16ed444be03d22" target="_top" xlink:title=" ">
<polygon fill="white" stroke="#666666" points="778.75,-685.09 597.75,-685.09 597.75,-654.59 778.75,-654.59 778.75,-685.09"/>
<text xml:space="preserve" text-anchor="start" x="605.75" y="-671.59" font-family="Helvetica,sans-Serif" font-size="10.00">BigDataStatMeth::First</text>
<text xml:space="preserve" text-anchor="middle" x="688.25" y="-660.34" font-family="Helvetica,sans-Serif" font-size="10.00">_level_SvdBlock_decomposition_hdf5</text>
</a>
</g>
</g>
<!-- Node4&#45;&gt;Node5 -->
<g id="edge4_Node000004_Node000005" class="edge">
<title>Node4&#45;&gt;Node5</title>
<g id="a_edge4_Node000004_Node000005"><a xlink:title=" ">
<path fill="none" stroke="#63b8ff" d="M820.01,-654.27C806.82,-655.84 792.88,-657.5 779.2,-659.13"/>
<polygon fill="#63b8ff" stroke="#63b8ff" points="820.36,-657.75 829.88,-653.09 819.54,-650.8 820.36,-657.75"/>
</a>
</g>
</g>
<!-- Node9 -->
<g id="Node000009" class="node">
<title>Node9</title>
<g id="a_Node000009"><a xlink:href="namespace_big_data_stat_meth.html#aba547c198a44e235965333df9d1dc146" target="_top" xlink:title=" ">
<polygon fill="white" stroke="#666666" points="778.75,-636.09 597.75,-636.09 597.75,-605.59 778.75,-605.59 778.75,-636.09"/>
<text xml:space="preserve" text-anchor="start" x="605.75" y="-622.59" font-family="Helvetica,sans-Serif" font-size="10.00">BigDataStatMeth::Next</text>
<text xml:space="preserve" text-anchor="middle" x="688.25" y="-611.34" font-family="Helvetica,sans-Serif" font-size="10.00">_level_SvdBlock_decomposition_hdf5</text>
</a>
</g>
</g>
<!-- Node4&#45;&gt;Node9 -->
<g id="edge8_Node000004_Node000009" class="edge">
<title>Node4&#45;&gt;Node9</title>
<g id="a_edge8_Node000004_Node000009"><a xlink:title=" ">
<path fill="none" stroke="#63b8ff" d="M820.01,-637.07C806.82,-635.43 792.88,-633.7 779.2,-632"/>
<polygon fill="#63b8ff" stroke="#63b8ff" points="819.53,-640.54 829.88,-638.29 820.39,-633.59 819.53,-640.54"/>
</a>
</g>
</g>
<!-- Node6 -->
<g id="Node000006" class="node">
<title>Node6</title>
<g id="a_Node000006"><a xlink:href="namespace_big_data_stat_meth.html#afbf517649a66c749830f33e4273857a7" target="_top" xlink:title="Block&#45;wise SVD decomposition for large HDF5 matrices.">
<polygon fill="white" stroke="#666666" points="561.75,-636.09 410,-636.09 410,-605.59 561.75,-605.59 561.75,-636.09"/>
<text xml:space="preserve" text-anchor="start" x="418" y="-622.59" font-family="Helvetica,sans-Serif" font-size="10.00">BigDataStatMeth::RcppbdSVD</text>
<text xml:space="preserve" text-anchor="middle" x="485.88" y="-611.34" font-family="Helvetica,sans-Serif" font-size="10.00">_hdf5_Block</text>
</a>
</g>
</g>
<!-- Node5&#45;&gt;Node6 -->
<g id="edge5_Node000005_Node000006" class="edge">
<title>Node5&#45;&gt;Node6</title>
<g id="a_edge5_Node000005_Node000006"><a xlink:title=" ">
<path fill="none" stroke="#63b8ff" d="M612.05,-651.45C591.98,-646.55 570.49,-641.29 551.08,-636.55"/>
<polygon fill="#63b8ff" stroke="#63b8ff" points="611.01,-654.8 621.55,-653.78 612.67,-648 611.01,-654.8"/>
</a>
</g>
</g>
<!-- Node7 -->
<g id="Node000007" class="node">
<title>Node7</title>
<g id="a_Node000007"><a xlink:href="namespace_big_data_stat_meth.html#a05d2196df8a68f19b986fd06d8812e84" target="_top" xlink:title="Main SVD computation function for HDF5 matrices.">
<polygon fill="white" stroke="#666666" points="374,-630.47 198.25,-630.47 198.25,-611.22 374,-611.22 374,-630.47"/>
<text xml:space="preserve" text-anchor="middle" x="286.12" y="-616.97" font-family="Helvetica,sans-Serif" font-size="10.00">BigDataStatMeth::RcppbdSVD_hdf5</text>
</a>
</g>
</g>
<!-- Node6&#45;&gt;Node7 -->
<g id="edge6_Node000006_Node000007" class="edge">
<title>Node6&#45;&gt;Node7</title>
<g id="a_edge6_Node000006_Node000007"><a xlink:title=" ">
<path fill="none" stroke="#63b8ff" d="M398.15,-620.84C390.3,-620.84 382.34,-620.84 374.49,-620.84"/>
<polygon fill="#63b8ff" stroke="#63b8ff" points="398.04,-624.35 408.04,-620.84 398.04,-617.35 398.04,-624.35"/>
</a>
</g>
</g>
<!-- Node8 -->
<g id="Node000008" class="node">
<title>Node8</title>
<g id="a_Node000008"><a xlink:href="namespace_big_data_stat_meth.html#ad6b05b5b52e05bd7801b03ba6008980d" target="_top" xlink:title="Perform Principal Component Analysis.">
<polygon fill="white" stroke="#666666" points="162.25,-630.47 0,-630.47 0,-611.22 162.25,-611.22 162.25,-630.47"/>
<text xml:space="preserve" text-anchor="middle" x="81.12" y="-616.97" font-family="Helvetica,sans-Serif" font-size="10.00">BigDataStatMeth::RcppPCAHdf5</text>
</a>
</g>
</g>
<!-- Node7&#45;&gt;Node8 -->
<g id="edge7_Node000007_Node000008" class="edge">
<title>Node7&#45;&gt;Node8</title>
<g id="a_edge7_Node000007_Node000008"><a xlink:title=" ">
<path fill="none" stroke="#63b8ff" d="M186.54,-620.84C178.51,-620.84 170.46,-620.84 162.58,-620.84"/>
<polygon fill="#63b8ff" stroke="#63b8ff" points="186.34,-624.35 196.34,-620.84 186.34,-617.35 186.34,-624.35"/>
</a>
</g>
</g>
<!-- Node9&#45;&gt;Node6 -->
<g id="edge9_Node000009_Node000006" class="edge">
<title>Node9&#45;&gt;Node6</title>
<g id="a_edge9_Node000009_Node000006"><a xlink:title=" ">
<path fill="none" stroke="#63b8ff" d="M585.99,-620.84C577.96,-620.84 569.94,-620.84 562.14,-620.84"/>
<polygon fill="#63b8ff" stroke="#63b8ff" points="585.81,-624.35 595.81,-620.84 585.81,-617.35 585.81,-624.35"/>
</a>
</g>
</g>
<!-- Node11 -->
<g id="Node000011" class="node">
<title>Node11</title>
<g id="a_Node000011"><a xlink:href="namespace_big_data_stat_meth.html#ab7b48d0904453c785df129d9e538e70a" target="_top" xlink:title="Applies mathematical functions to HDF5 datasets.">
<polygon fill="white" stroke="#666666" points="760.75,-587.09 615.75,-587.09 615.75,-556.59 760.75,-556.59 760.75,-587.09"/>
<text xml:space="preserve" text-anchor="start" x="623.75" y="-573.59" font-family="Helvetica,sans-Serif" font-size="10.00">BigDataStatMeth::RcppApply</text>
<text xml:space="preserve" text-anchor="middle" x="688.25" y="-562.34" font-family="Helvetica,sans-Serif" font-size="10.00">FunctionHdf5</text>
</a>
</g>
</g>
<!-- Node10&#45;&gt;Node11 -->
<g id="edge11_Node000010_Node000011" class="edge">
<title>Node10&#45;&gt;Node11</title>
<g id="a_edge11_Node000010_Node000011"><a xlink:title=" ">
<path fill="none" stroke="#63b8ff" d="M813.36,-587.24C796.19,-585.11 778.05,-582.86 761.1,-580.76"/>
<polygon fill="#63b8ff" stroke="#63b8ff" points="812.64,-590.68 822.99,-588.44 813.5,-583.73 812.64,-590.68"/>
</a>
</g>
</g>
<!-- Node22 -->
<g id="Node000022" class="node">
<title>Node22</title>
<g id="a_Node000022"><a xlink:href="namespace_big_data_stat_meth.html#a2dc57737d2be2ac3e0fea3bb5812df65" target="_top" xlink:title="Parallel block&#45;based matrix multiplication.">
<polygon fill="white" stroke="#666666" points="955.25,-101.09 828.25,-101.09 828.25,-70.59 955.25,-70.59 955.25,-101.09"/>
<text xml:space="preserve" text-anchor="start" x="836.25" y="-87.59" font-family="Helvetica,sans-Serif" font-size="10.00">BigDataStatMeth::Bblock</text>
<text xml:space="preserve" text-anchor="middle" x="891.75" y="-76.34" font-family="Helvetica,sans-Serif" font-size="10.00">_matrix_mul_parallel</text>
</a>
</g>
</g>
<!-- Node21&#45;&gt;Node22 -->
<g id="edge22_Node000021_Node000022" class="edge">
<title>Node21&#45;&gt;Node22</title>
<g id="a_edge22_Node000021_Node000022"><a xlink:title=" ">
<path fill="none" stroke="#63b8ff" d="M995.04,-85.84C981.83,-85.84 968.28,-85.84 955.54,-85.84"/>
<polygon fill="#63b8ff" stroke="#63b8ff" points="995.02,-89.35 1005.02,-85.84 995.02,-82.35 995.02,-89.35"/>
</a>
</g>
</g>
<!-- Node23 -->
<g id="Node000023" class="node">
<title>Node23</title>
<g id="a_Node000023"><a xlink:href="namespace_big_data_stat_meth.html#a0095d1d8bf48833bdd112590ed62db5d" target="_top" xlink:title="Main matrix multiplication function for HDF5 matrices.">
<polygon fill="white" stroke="#666666" points="968.75,-52.47 814.75,-52.47 814.75,-33.22 968.75,-33.22 968.75,-52.47"/>
<text xml:space="preserve" text-anchor="middle" x="891.75" y="-38.97" font-family="Helvetica,sans-Serif" font-size="10.00">BigDataStatMeth::multiplication</text>
</a>
</g>
</g>
<!-- Node21&#45;&gt;Node23 -->
<g id="edge23_Node000021_Node000023" class="edge">
<title>Node21&#45;&gt;Node23</title>
<g id="a_edge23_Node000021_Node000023"><a xlink:title=" ">
<path fill="none" stroke="#63b8ff" d="M996.39,-67.48C975.45,-62.5 953.54,-57.3 935.29,-52.96"/>
<polygon fill="#63b8ff" stroke="#63b8ff" points="995.55,-70.88 1006.08,-69.79 997.17,-64.07 995.55,-70.88"/>
</a>
</g>
</g>
<!-- Node24 -->
<g id="Node000024" class="node">
<title>Node24</title>
<g id="a_Node000024"><a xlink:href="namespace_big_data_stat_meth.html#ac14005c662cd14e6c951b7edc0debc74" target="_top" xlink:title="Main matrix multiplication function for HDF5 matrices.">
<polygon fill="white" stroke="#666666" points="765.25,-288.47 611.25,-288.47 611.25,-269.22 765.25,-269.22 765.25,-288.47"/>
<text xml:space="preserve" text-anchor="middle" x="688.25" y="-274.97" font-family="Helvetica,sans-Serif" font-size="10.00">BigDataStatMeth::multiplication</text>
</a>
</g>
</g>
<!-- Node21&#45;&gt;Node24 -->
<g id="edge24_Node000021_Node000024" class="edge">
<title>Node21&#45;&gt;Node24</title>
<g id="a_edge24_Node000021_Node000024"><a xlink:title=" ">
<path fill="none" stroke="#63b8ff" d="M1012.19,-65.23C1009.63,-63.85 1007.13,-62.39 1004.75,-60.84 985.48,-48.39 989.89,-32.77 968.75,-23.84 905.7,2.78 872.86,12.32 814.75,-23.84 722.38,-81.34 696.03,-228.97 690.49,-268.81"/>
<polygon fill="#63b8ff" stroke="#63b8ff" points="1010.46,-68.28 1020.98,-69.53 1013.54,-62 1010.46,-68.28"/>
</a>
</g>
</g>
<!-- Node24&#45;&gt;Node6 -->
<g id="edge25_Node000024_Node000006" class="edge">
<title>Node24&#45;&gt;Node6</title>
<g id="a_edge25_Node000024_Node000006"><a xlink:title=" ">
<path fill="none" stroke="#63b8ff" d="M675.8,-298.38C639.66,-360.07 528.42,-549.93 495.9,-605.45"/>
<polygon fill="#63b8ff" stroke="#63b8ff" points="678.67,-300.41 680.7,-290.02 672.63,-296.88 678.67,-300.41"/>
</a>
</g>
</g>
</g>
</svg>

<g id="navigator" transform="translate(0 0)" fill="#404254">
  <rect fill="#f2f5e9" fill-opacity="0.5" stroke="#606060" stroke-width=".5" x="0" y="0" width="60" height="60"/>
  <use id="zoomplus" xlink:href="#zoomPlus" x="17" y="9" onmousedown="handleZoom(evt,'in')"/>
  <use id="zoomminus" xlink:href="#zoomMin" x="42" y="9" onmousedown="handleZoom(evt,'out')"/>
  <use id="reset" xlink:href="#resetDef" x="30" y="36" onmousedown="handleReset()"/>
   <use id="arrowup" xlink:href="#arrowUp" x="0" y="0" onmousedown="handlePan(0,-1)"/>
  <use id="arrowright" xlink:href="#arrowRight" x="0" y="0" onmousedown="handlePan(1,0)"/>
  <use id="arrowdown" xlink:href="#arrowDown" x="0" y="0" onmousedown="handlePan(0,1)"/>
  <use id="arrowleft" xlink:href="#arrowLeft" x="0" y="0" onmousedown="handlePan(-1,0)"/>
</g>
<svg viewBox="0 0 15 15" width="100%" height="30px" preserveAspectRatio="xMaxYMin meet">
 <g id="arrow_out" transform="scale(0.3 0.3)">
  <a xlink:href="namespace_big_data_stat_meth_ad6e454f49b5e34a5b657df896eed7502_icgraph_org.svg" target="_base">
   <rect id="button" ry="5" rx="5" y="6" x="6" height="38" width="38"
        fill="#f2f5e9" fill-opacity="0.5" stroke="#606060" stroke-width="1.0"/>
   <path id="arrow"
     d="M 11.500037,31.436501 C 11.940474,20.09759 22.043105,11.32322 32.158766,21.979434 L 37.068811,17.246167 C 37.068811,17.246167 37.088388,32 37.088388,32 L 22.160133,31.978069 C 22.160133,31.978069 26.997745,27.140456 26.997745,27.140456 C 18.528582,18.264221 13.291696,25.230495 11.500037,31.436501 z"
     style="fill:#404040;"/>
  </a>
 </g>
</svg>

<style type='text/css'>
<![CDATA[
[data-mouse-over-selected='false'] { opacity: 0.7; }
[data-mouse-over-selected='true']  { opacity: 1.0; }
]]>
</style>
<script type="application/ecmascript"><![CDATA[
document.addEventListener('DOMContentLoaded', (event) => {
  highlightEdges();
  highlightAdjacentNodes();
});
]]></script>
</svg>
