<?xml version="1.0" encoding="UTF-8" standalone="no"?>
<!DOCTYPE svg PUBLIC "-//W3C//DTD SVG 1.1//EN"
 "http://www.w3.org/Graphics/SVG/1.1/DTD/svg11.dtd">
<!-- Generated by graphviz version 14.0.0 (20250921.2048)
 -->
<!-- Title: BigDataStatMeth::First_level_SvdBlock_decomposition_hdf5 Pages: 1 -->
<!--zoomable 427 -->

<svg id="main" version="1.1" xmlns="http://www.w3.org/2000/svg" xmlns:xlink="http://www.w3.org/1999/xlink" xml:space="preserve" onload="init(evt)">

<style type="text/css"><![CDATA[
.node, .edge {opacity: 0.7;}
.node.selected, .edge.selected {opacity: 1;}
.edge:hover path { stroke: red; }
.edge:hover polygon { stroke: red; fill: red; }
]]></style>

<defs>
  <circle id="rim" cx="0" cy="0" r="7"/>
  <circle id="rim2" cx="0" cy="0" r="3.5"/>
  <g id="zoomPlus">
    <use xlink:href="#rim" fill="#404040"><set attributeName="fill" to="#808080" begin="zoomplus.mouseover" end="zoomplus.mouseout"/></use>
    <path d="M-4,0h8M0,-4v8" fill="none" stroke="white" stroke-width="1.5" pointer-events="none"/>
  </g>
  <g id="zoomMin">
    <use xlink:href="#rim" fill="#404040"><set attributeName="fill" to="#808080" begin="zoomminus.mouseover" end="zoomminus.mouseout"/></use>
    <path d="M-4,0h8" fill="none" stroke="white" stroke-width="1.5" pointer-events="none"/>
  </g>
  <g id="arrowUp" transform="translate(30 24)">
    <use xlink:href="#rim"/>
    <path pointer-events="none" fill="none" stroke="white" stroke-width="1.5" d="M0,-3.0v7 M-2.5,-0.5L0,-3.0L2.5,-0.5"/>
  </g>
  <g id="arrowRight" transform="rotate(90) translate(36 -43)">
    <use xlink:href="#rim"/>
    <path pointer-events="none" fill="none" stroke="white" stroke-width="1.5" d="M0,-3.0v7 M-2.5,-0.5L0,-3.0L2.5,-0.5"/>
  </g>
  <g id="arrowDown" transform="rotate(180) translate(-30 -48)">
    <use xlink:href="#rim"/>
    <path pointer-events="none" fill="none" stroke="white" stroke-width="1.5" d="M0,-3.0v7 M-2.5,-0.5L0,-3.0L2.5,-0.5"/>
  </g>
  <g id="arrowLeft" transform="rotate(270) translate(-36 17)">
    <use xlink:href="#rim"/>
    <path pointer-events="none" fill="none" stroke="white" stroke-width="1.5" d="M0,-3.0v7 M-2.5,-0.5L0,-3.0L2.5,-0.5"/>
  </g>
  <g id="resetDef">
    <use xlink:href="#rim2" fill="#404040"><set attributeName="fill" to="#808080" begin="reset.mouseover" end="reset.mouseout"/></use>
  </g>
</defs>
<script type="application/ecmascript">
var viewWidth = 804;
var viewHeight = 427;
var sectionId = 'dynsection-30';
</script>
<script type="application/ecmascript" xlink:href="../../../../assets/svg.min.js"/>
<svg id="graph" class="graph">
<g id="viewport">
<title>BigDataStatMeth::First_level_SvdBlock_decomposition_hdf5</title>
<!-- Node1 -->
<g id="Node000001" class="node">
<title>Node1</title>
<g id="a_Node000001"><a xlink:title=" ">
<polygon fill="#999999" stroke="#666666" points="181,-160.68 0,-160.68 0,-130.18 181,-130.18 181,-160.68"/>
<text xml:space="preserve" text-anchor="start" x="8" y="-147.18" font-family="Helvetica,sans-Serif" font-size="10.00">BigDataStatMeth::First</text>
<text xml:space="preserve" text-anchor="middle" x="90.5" y="-135.93" font-family="Helvetica,sans-Serif" font-size="10.00">_level_SvdBlock_decomposition_hdf5</text>
</a>
</g>
</g>
<!-- Node2 -->
<g id="Node000002" class="node">
<title>Node2</title>
<g id="a_Node000002"><a xlink:href="namespace_big_data_stat_meth.html#a89d901ab4b5e01771f4e3fc7dc84e50e" target="_top" xlink:title="Checks if an HDF5 element (group or dataset) exists.">
<polygon fill="white" stroke="#666666" points="561.75,-283.68 438.5,-283.68 438.5,-253.18 561.75,-253.18 561.75,-283.68"/>
<text xml:space="preserve" text-anchor="start" x="446.5" y="-270.18" font-family="Helvetica,sans-Serif" font-size="10.00">BigDataStatMeth::exists</text>
<text xml:space="preserve" text-anchor="middle" x="500.12" y="-258.93" font-family="Helvetica,sans-Serif" font-size="10.00">_HDF5_element</text>
</a>
</g>
</g>
<!-- Node1&#45;&gt;Node2 -->
<g id="edge1_Node000001_Node000002" class="edge">
<title>Node1&#45;&gt;Node2</title>
<g id="a_edge1_Node000001_Node000002"><a xlink:title=" ">
<path fill="none" stroke="#63b8ff" d="M108.28,-160.85C131.04,-180.78 173.83,-214.9 217,-231.43 285.12,-257.5 368.52,-265.81 426.9,-268.17"/>
<polygon fill="#63b8ff" stroke="#63b8ff" points="426.61,-271.66 436.72,-268.51 426.85,-264.66 426.61,-271.66"/>
</a>
</g>
</g>
<!-- Node4 -->
<g id="Node000004" class="node">
<title>Node4</title>
<g id="a_Node000004"><a xlink:href="namespace_big_data_stat_meth.html#a74ce60b67b2d8eb66be38b96cc7b3ff5" target="_top" xlink:title="Calculate column&#45;wise mean and standard deviation.">
<polygon fill="white" stroke="#666666" points="365.38,-347.68 220.38,-347.68 220.38,-317.18 365.38,-317.18 365.38,-347.68"/>
<text xml:space="preserve" text-anchor="start" x="228.38" y="-334.18" font-family="Helvetica,sans-Serif" font-size="10.00">BigDataStatMeth::get</text>
<text xml:space="preserve" text-anchor="middle" x="292.88" y="-322.93" font-family="Helvetica,sans-Serif" font-size="10.00">_HDF5_mean_sd_by_column</text>
</a>
</g>
</g>
<!-- Node1&#45;&gt;Node4 -->
<g id="edge3_Node000001_Node000004" class="edge">
<title>Node1&#45;&gt;Node4</title>
<g id="a_edge3_Node000001_Node000004"><a xlink:title=" ">
<path fill="none" stroke="#63b8ff" d="M105.58,-161.03C128.19,-185.79 174.38,-235.18 217,-273.43 231.11,-286.09 247.59,-299.24 261.49,-309.9"/>
<polygon fill="#63b8ff" stroke="#63b8ff" points="259.35,-312.67 269.43,-315.93 263.58,-307.09 259.35,-312.67"/>
</a>
</g>
</g>
<!-- Node9 -->
<g id="Node000009" class="node">
<title>Node9</title>
<g id="a_Node000009"><a xlink:href="namespace_big_data_stat_meth.html#a3d9621d5cfca7c8611f9bdd915fb24e5" target="_top" xlink:title=" ">
<polygon fill="white" stroke="#666666" points="357.5,-222.68 228.25,-222.68 228.25,-192.18 357.5,-192.18 357.5,-222.68"/>
<text xml:space="preserve" text-anchor="start" x="236.25" y="-209.18" font-family="Helvetica,sans-Serif" font-size="10.00">BigDataStatMeth::prepare</text>
<text xml:space="preserve" text-anchor="middle" x="292.88" y="-197.93" font-family="Helvetica,sans-Serif" font-size="10.00">ForParallelization</text>
</a>
</g>
</g>
<!-- Node1&#45;&gt;Node9 -->
<g id="edge8_Node000001_Node000009" class="edge">
<title>Node1&#45;&gt;Node9</title>
<g id="a_edge8_Node000001_Node000009"><a xlink:title=" ">
<path fill="none" stroke="#63b8ff" d="M142.32,-161.15C169.04,-169.42 202,-179.62 230.17,-188.33"/>
<polygon fill="#63b8ff" stroke="#63b8ff" points="229.07,-191.66 239.66,-191.27 231.14,-184.97 229.07,-191.66"/>
</a>
</g>
</g>
<!-- Node12 -->
<g id="Node000012" class="node">
<title>Node12</title>
<g id="a_Node000012"><a xlink:href="namespace_big_data_stat_meth.html#a180c07885da3c3a9e7e218e82e14e81e" target="_top" xlink:title="Block&#45;based matrix multiplication.">
<polygon fill="white" stroke="#666666" points="353,-160.68 232.75,-160.68 232.75,-130.18 353,-130.18 353,-160.68"/>
<text xml:space="preserve" text-anchor="start" x="240.75" y="-147.18" font-family="Helvetica,sans-Serif" font-size="10.00">BigDataStatMeth::Rcpp</text>
<text xml:space="preserve" text-anchor="middle" x="292.88" y="-135.93" font-family="Helvetica,sans-Serif" font-size="10.00">_block_matrix_mul</text>
</a>
</g>
</g>
<!-- Node1&#45;&gt;Node12 -->
<g id="edge12_Node000001_Node000012" class="edge">
<title>Node1&#45;&gt;Node12</title>
<g id="a_edge12_Node000001_Node000012"><a xlink:title=" ">
<path fill="none" stroke="#63b8ff" d="M181.43,-145.43C194.65,-145.43 208.12,-145.43 220.89,-145.43"/>
<polygon fill="#63b8ff" stroke="#63b8ff" points="220.88,-148.93 230.88,-145.43 220.88,-141.93 220.88,-148.93"/>
</a>
</g>
</g>
<!-- Node15 -->
<g id="Node000015" class="node">
<title>Node15</title>
<g id="a_Node000015"><a xlink:href="namespace_big_data_stat_meth.html#a818fb4dbac351735a7272343c3ad5f23" target="_top" xlink:title=" ">
<polygon fill="white" stroke="#666666" points="368.75,-111.68 217,-111.68 217,-81.18 368.75,-81.18 368.75,-111.68"/>
<text xml:space="preserve" text-anchor="start" x="225" y="-98.18" font-family="Helvetica,sans-Serif" font-size="10.00">BigDataStatMeth::RcppbdSVD</text>
<text xml:space="preserve" text-anchor="middle" x="292.88" y="-86.93" font-family="Helvetica,sans-Serif" font-size="10.00">_lapack</text>
</a>
</g>
</g>
<!-- Node1&#45;&gt;Node15 -->
<g id="edge15_Node000001_Node000015" class="edge">
<title>Node1&#45;&gt;Node15</title>
<g id="a_edge15_Node000001_Node000015"><a xlink:title=" ">
<path fill="none" stroke="#63b8ff" d="M155.73,-129.72C175.14,-124.97 196.63,-119.72 216.69,-114.81"/>
<polygon fill="#63b8ff" stroke="#63b8ff" points="217.32,-118.26 226.2,-112.49 215.65,-111.46 217.32,-118.26"/>
</a>
</g>
</g>
<!-- Node17 -->
<g id="Node000017" class="node">
<title>Node17</title>
<g id="a_Node000017"><a xlink:href="namespace_big_data_stat_meth.html#a1cd3f5cf856a0d1bff9e1cf956f368fd" target="_top" xlink:title="Template function for normalizing data with pre&#45;computed statistics.">
<polygon fill="white" stroke="#666666" points="595.5,-63.05 404.75,-63.05 404.75,-43.8 595.5,-43.8 595.5,-63.05"/>
<text xml:space="preserve" text-anchor="middle" x="500.12" y="-49.55" font-family="Helvetica,sans-Serif" font-size="10.00">BigDataStatMeth::RcppNormalize_Data</text>
</a>
</g>
</g>
<!-- Node1&#45;&gt;Node17 -->
<g id="edge20_Node000001_Node000017" class="edge">
<title>Node1&#45;&gt;Node17</title>
<g id="a_edge20_Node000001_Node000017"><a xlink:title=" ">
<path fill="none" stroke="#63b8ff" d="M111.44,-129.87C135.11,-112.39 176.51,-84.82 217,-72.43 273.53,-55.12 339.31,-49.9 393.13,-49.21"/>
<polygon fill="#63b8ff" stroke="#63b8ff" points="392.94,-52.71 402.91,-49.14 392.89,-45.71 392.94,-52.71"/>
</a>
</g>
</g>
<!-- Node18 -->
<g id="Node000018" class="node">
<title>Node18</title>
<g id="a_Node000018"><a xlink:href="namespace_big_data_stat_meth.html#aaac3a1d91c92fdf91f7bbc256672b68e" target="_top" xlink:title="Column&#45;wise normalization with pre&#45;computed statistics.">
<polygon fill="white" stroke="#666666" points="796,-30.68 631.5,-30.68 631.5,-0.18 796,-0.18 796,-30.68"/>
<text xml:space="preserve" text-anchor="start" x="639.5" y="-17.18" font-family="Helvetica,sans-Serif" font-size="10.00">BigDataStatMeth::RcppNormalize</text>
<text xml:space="preserve" text-anchor="middle" x="713.75" y="-5.93" font-family="Helvetica,sans-Serif" font-size="10.00">Colwise</text>
</a>
</g>
</g>
<!-- Node1&#45;&gt;Node18 -->
<g id="edge21_Node000001_Node000018" class="edge">
<title>Node1&#45;&gt;Node18</title>
<g id="a_edge21_Node000001_Node000018"><a xlink:title=" ">
<path fill="none" stroke="#63b8ff" d="M105.03,-129.75C126.2,-106.48 169.67,-63.6 217,-45.43 349.87,5.59 517.5,3.29 619.82,-4.78"/>
<polygon fill="#63b8ff" stroke="#63b8ff" points="619.29,-8.25 629.54,-5.59 619.86,-1.27 619.29,-8.25"/>
</a>
</g>
</g>
<!-- Node3 -->
<g id="Node000003" class="node">
<title>Node3</title>
<g id="a_Node000003"><a xlink:href="namespace_big_data_stat_meth.html#abcaa4216cd52f03ebac42e4855ef846b" target="_top" xlink:title="Checks if a path exists in an HDF5 file.">
<polygon fill="white" stroke="#666666" points="785.5,-278.05 642,-278.05 642,-258.8 785.5,-258.8 785.5,-278.05"/>
<text xml:space="preserve" text-anchor="middle" x="713.75" y="-264.55" font-family="Helvetica,sans-Serif" font-size="10.00">BigDataStatMeth::pathExists</text>
</a>
</g>
</g>
<!-- Node2&#45;&gt;Node3 -->
<g id="edge2_Node000002_Node000003" class="edge">
<title>Node2&#45;&gt;Node3</title>
<g id="a_edge2_Node000002_Node000003"><a xlink:title=" ">
<path fill="none" stroke="#63b8ff" d="M562.05,-268.43C583.36,-268.43 607.65,-268.43 630.42,-268.43"/>
<polygon fill="#63b8ff" stroke="#63b8ff" points="630.29,-271.93 640.29,-268.43 630.29,-264.93 630.29,-271.93"/>
</a>
</g>
</g>
<!-- Node5 -->
<g id="Node000005" class="node">
<title>Node5</title>
<g id="a_Node000005"><a xlink:href="class_big_data_stat_meth_1_1hdf5_dataset.html#a7b54a6f524581d54102a1614ee44991b" target="_top" xlink:title="Get dataset dimension.">
<polygon fill="white" stroke="#666666" points="586.12,-321.05 414.12,-321.05 414.12,-301.8 586.12,-301.8 586.12,-321.05"/>
<text xml:space="preserve" text-anchor="middle" x="500.12" y="-307.55" font-family="Helvetica,sans-Serif" font-size="10.00">BigDataStatMeth::hdf5Dataset::dim</text>
</a>
</g>
</g>
<!-- Node4&#45;&gt;Node5 -->
<g id="edge4_Node000004_Node000005" class="edge">
<title>Node4&#45;&gt;Node5</title>
<g id="a_edge4_Node000004_Node000005"><a xlink:title=" ">
<path fill="none" stroke="#63b8ff" d="M365.66,-325.08C377.52,-323.87 389.99,-322.59 402.34,-321.33"/>
<polygon fill="#63b8ff" stroke="#63b8ff" points="402.53,-324.83 412.13,-320.33 401.82,-317.87 402.53,-324.83"/>
</a>
</g>
</g>
<!-- Node6 -->
<g id="Node000006" class="node">
<title>Node6</title>
<g id="a_Node000006"><a xlink:href="namespace_big_data_stat_meth.html#a9c15678544a0304bf01c268623b2d957" target="_top" xlink:title="Calculate optimal block size for processing.">
<polygon fill="white" stroke="#666666" points="555.38,-418.68 444.88,-418.68 444.88,-388.18 555.38,-388.18 555.38,-418.68"/>
<text xml:space="preserve" text-anchor="start" x="452.88" y="-405.18" font-family="Helvetica,sans-Serif" font-size="10.00">BigDataStatMeth::get</text>
<text xml:space="preserve" text-anchor="middle" x="500.12" y="-393.93" font-family="Helvetica,sans-Serif" font-size="10.00">_block_size</text>
</a>
</g>
</g>
<!-- Node4&#45;&gt;Node6 -->
<g id="edge5_Node000004_Node000006" class="edge">
<title>Node4&#45;&gt;Node6</title>
<g id="a_edge5_Node000004_Node000006"><a xlink:title=" ">
<path fill="none" stroke="#63b8ff" d="M328.37,-348.15C350.03,-357.66 378.69,-369.62 404.75,-378.43 414.08,-381.58 424.04,-384.6 433.86,-387.37"/>
<polygon fill="#63b8ff" stroke="#63b8ff" points="432.82,-390.71 443.39,-389.99 434.68,-383.96 432.82,-390.71"/>
</a>
</g>
</g>
<!-- Node7 -->
<g id="Node000007" class="node">
<title>Node7</title>
<g id="a_Node000007"><a xlink:href="class_big_data_stat_meth_1_1hdf5_dataset.html#a23bea87165b8ef6b944709c5b2cbd0cf" target="_top" xlink:title=" ">
<polygon fill="white" stroke="#666666" points="575.25,-369.68 425,-369.68 425,-339.18 575.25,-339.18 575.25,-369.68"/>
<text xml:space="preserve" text-anchor="start" x="433" y="-356.18" font-family="Helvetica,sans-Serif" font-size="10.00">BigDataStatMeth::hdf5Dataset</text>
<text xml:space="preserve" text-anchor="middle" x="500.12" y="-344.93" font-family="Helvetica,sans-Serif" font-size="10.00">::readDatasetBlock</text>
</a>
</g>
</g>
<!-- Node4&#45;&gt;Node7 -->
<g id="edge6_Node000004_Node000007" class="edge">
<title>Node4&#45;&gt;Node7</title>
<g id="a_edge6_Node000004_Node000007"><a xlink:title=" ">
<path fill="none" stroke="#63b8ff" d="M365.66,-340.12C381.01,-341.77 397.37,-343.52 413.19,-345.22"/>
<polygon fill="#63b8ff" stroke="#63b8ff" points="412.77,-348.69 423.09,-346.28 413.52,-341.73 412.77,-348.69"/>
</a>
</g>
</g>
<!-- Node8 -->
<g id="Node000008" class="node">
<title>Node8</title>
<g id="a_Node000008"><a xlink:href="class_big_data_stat_meth_1_1hdf5_dataset.html#aba39e56a580d3b1fa7f1619fc72efa3e" target="_top" xlink:title="Close dataset and file.">
<polygon fill="white" stroke="#666666" points="788.88,-369.68 638.62,-369.68 638.62,-339.18 788.88,-339.18 788.88,-369.68"/>
<text xml:space="preserve" text-anchor="start" x="646.62" y="-356.18" font-family="Helvetica,sans-Serif" font-size="10.00">BigDataStatMeth::hdf5Dataset</text>
<text xml:space="preserve" text-anchor="middle" x="713.75" y="-344.93" font-family="Helvetica,sans-Serif" font-size="10.00">::close_dataset_file</text>
</a>
</g>
</g>
<!-- Node7&#45;&gt;Node8 -->
<g id="edge7_Node000007_Node000008" class="edge">
<title>Node7&#45;&gt;Node8</title>
<g id="a_edge7_Node000007_Node000008"><a xlink:title=" ">
<path fill="none" stroke="#63b8ff" d="M575.74,-354.43C592.43,-354.43 610.26,-354.43 627.35,-354.43"/>
<polygon fill="#63b8ff" stroke="#63b8ff" points="626.94,-357.93 636.94,-354.43 626.94,-350.93 626.94,-357.93"/>
</a>
</g>
</g>
<!-- Node9&#45;&gt;Node2 -->
<g id="edge9_Node000009_Node000002" class="edge">
<title>Node9&#45;&gt;Node2</title>
<g id="a_edge9_Node000009_Node000002"><a xlink:title=" ">
<path fill="none" stroke="#63b8ff" d="M340.36,-223.15C360.13,-229.68 383.49,-237.17 404.75,-243.43 411.96,-245.55 419.5,-247.69 427.05,-249.77"/>
<polygon fill="#63b8ff" stroke="#63b8ff" points="426.04,-253.13 436.61,-252.38 427.88,-246.37 426.04,-253.13"/>
</a>
</g>
</g>
<!-- Node10 -->
<g id="Node000010" class="node">
<title>Node10</title>
<g id="a_Node000010"><a xlink:href="namespace_big_data_stat_meth.html#a435006924343304fe972a3beabee62a9" target="_top" xlink:title="Determines initial position for matrix operations.">
<polygon fill="white" stroke="#666666" points="567,-234.68 433.25,-234.68 433.25,-204.18 567,-204.18 567,-234.68"/>
<text xml:space="preserve" text-anchor="start" x="441.25" y="-221.18" font-family="Helvetica,sans-Serif" font-size="10.00">BigDataStatMeth::getInitial</text>
<text xml:space="preserve" text-anchor="middle" x="500.12" y="-209.93" font-family="Helvetica,sans-Serif" font-size="10.00">Position</text>
</a>
</g>
</g>
<!-- Node9&#45;&gt;Node10 -->
<g id="edge10_Node000009_Node000010" class="edge">
<title>Node9&#45;&gt;Node10</title>
<g id="a_edge10_Node000009_Node000010"><a xlink:title=" ">
<path fill="none" stroke="#63b8ff" d="M357.97,-211.18C378.12,-212.35 400.58,-213.67 421.56,-214.89"/>
<polygon fill="#63b8ff" stroke="#63b8ff" points="421.34,-218.39 431.52,-215.48 421.75,-211.4 421.34,-218.39"/>
</a>
</g>
</g>
<!-- Node11 -->
<g id="Node000011" class="node">
<title>Node11</title>
<g id="a_Node000011"><a xlink:href="namespace_big_data_stat_meth.html#ac0c34ce0e46eff31fe19be9b5a517580" target="_top" xlink:title="Calculates dimensions for reading matrix blocks.">
<polygon fill="white" stroke="#666666" points="580.88,-186.05 419.38,-186.05 419.38,-166.8 580.88,-166.8 580.88,-186.05"/>
<text xml:space="preserve" text-anchor="middle" x="500.12" y="-172.55" font-family="Helvetica,sans-Serif" font-size="10.00">BigDataStatMeth::getSizetoRead</text>
</a>
</g>
</g>
<!-- Node9&#45;&gt;Node11 -->
<g id="edge11_Node000009_Node000011" class="edge">
<title>Node9&#45;&gt;Node11</title>
<g id="a_edge11_Node000009_Node000011"><a xlink:title=" ">
<path fill="none" stroke="#63b8ff" d="M357.97,-197.75C378.01,-194.72 400.35,-191.35 421.23,-188.19"/>
<polygon fill="#63b8ff" stroke="#63b8ff" points="421.46,-191.7 430.83,-186.74 420.42,-184.78 421.46,-191.7"/>
</a>
</g>
</g>
<!-- Node13 -->
<g id="Node000013" class="node">
<title>Node13</title>
<g id="a_Node000013"><a xlink:href="namespace_big_data_stat_meth.html#af64ef9879e2404a9490e6a93f7bc8807" target="_top" xlink:title="Calculate block positions and sizes for matrix operations.">
<polygon fill="white" stroke="#666666" points="567.75,-148.68 432.5,-148.68 432.5,-118.18 567.75,-118.18 567.75,-148.68"/>
<text xml:space="preserve" text-anchor="start" x="440.5" y="-135.18" font-family="Helvetica,sans-Serif" font-size="10.00">BigDataStatMeth::getBlock</text>
<text xml:space="preserve" text-anchor="middle" x="500.12" y="-123.93" font-family="Helvetica,sans-Serif" font-size="10.00">PositionsSizes</text>
</a>
</g>
</g>
<!-- Node12&#45;&gt;Node13 -->
<g id="edge13_Node000012_Node000013" class="edge">
<title>Node12&#45;&gt;Node13</title>
<g id="a_edge13_Node000012_Node000013"><a xlink:title=" ">
<path fill="none" stroke="#63b8ff" d="M353.24,-141.96C374.41,-140.72 398.58,-139.31 421.08,-137.99"/>
<polygon fill="#63b8ff" stroke="#63b8ff" points="421.03,-141.5 430.81,-137.42 420.62,-134.51 421.03,-141.5"/>
</a>
</g>
</g>
<!-- Node14 -->
<g id="Node000014" class="node">
<title>Node14</title>
<g id="a_Node000014"><a xlink:href="namespace_big_data_stat_meth.html#ad6e454f49b5e34a5b657df896eed7502" target="_top" xlink:title="Optimizes block size for edge cases.">
<polygon fill="white" stroke="#666666" points="782.12,-148.68 645.38,-148.68 645.38,-118.18 782.12,-118.18 782.12,-148.68"/>
<text xml:space="preserve" text-anchor="start" x="653.38" y="-135.18" font-family="Helvetica,sans-Serif" font-size="10.00">BigDataStatMeth::getOptim</text>
<text xml:space="preserve" text-anchor="middle" x="713.75" y="-123.93" font-family="Helvetica,sans-Serif" font-size="10.00">BlockSize</text>
</a>
</g>
</g>
<!-- Node13&#45;&gt;Node14 -->
<g id="edge14_Node000013_Node000014" class="edge">
<title>Node13&#45;&gt;Node14</title>
<g id="a_edge14_Node000013_Node000014"><a xlink:title=" ">
<path fill="none" stroke="#63b8ff" d="M568.08,-133.43C588.92,-133.43 612.09,-133.43 633.68,-133.43"/>
<polygon fill="#63b8ff" stroke="#63b8ff" points="633.62,-136.93 643.62,-133.43 633.62,-129.93 633.62,-136.93"/>
</a>
</g>
</g>
<!-- Node16 -->
<g id="Node000016" class="node">
<title>Node16</title>
<g id="a_Node000016"><a xlink:href="namespace_big_data_stat_meth.html#a8770383761cbd66c88453c0cfe18ad7f" target="_top" xlink:title=" ">
<polygon fill="white" stroke="#666666" points="567,-100.05 433.25,-100.05 433.25,-80.8 567,-80.8 567,-100.05"/>
<text xml:space="preserve" text-anchor="middle" x="500.12" y="-86.55" font-family="Helvetica,sans-Serif" font-size="10.00">BigDataStatMeth::dgesdd_</text>
</a>
</g>
</g>
<!-- Node15&#45;&gt;Node16 -->
<g id="edge16_Node000015_Node000016" class="edge">
<title>Node15&#45;&gt;Node16</title>
<g id="a_edge16_Node000015_Node000016"><a xlink:title=" ">
<path fill="none" stroke="#63b8ff" d="M369.14,-94.23C386.31,-93.73 404.59,-93.19 421.85,-92.69"/>
<polygon fill="#63b8ff" stroke="#63b8ff" points="421.61,-96.2 431.51,-92.4 421.41,-89.2 421.61,-96.2"/>
</a>
</g>
</g>
<!-- Node15&#45;&gt;Node17 -->
<g id="edge17_Node000015_Node000017" class="edge">
<title>Node15&#45;&gt;Node17</title>
<g id="a_edge17_Node000015_Node000017"><a xlink:title=" ">
<path fill="none" stroke="#63b8ff" d="M361.82,-80.73C375.98,-77.57 390.84,-74.32 404.75,-71.43 414.02,-69.5 423.82,-67.54 433.47,-65.66"/>
<polygon fill="#63b8ff" stroke="#63b8ff" points="434.03,-69.12 443.18,-63.78 432.7,-62.24 434.03,-69.12"/>
</a>
</g>
</g>
<!-- Node17&#45;&gt;Node18 -->
<g id="edge18_Node000017_Node000018" class="edge">
<title>Node17&#45;&gt;Node18</title>
<g id="a_edge18_Node000017_Node000018"><a xlink:title=" ">
<path fill="none" stroke="#63b8ff" d="M557.28,-43.34C576.57,-39.88 598.71,-35.91 620.12,-32.06"/>
<polygon fill="#63b8ff" stroke="#63b8ff" points="620.51,-35.55 629.74,-30.33 619.28,-28.66 620.51,-35.55"/>
</a>
</g>
</g>
<!-- Node19 -->
<g id="Node000019" class="node">
<title>Node19</title>
<g id="a_Node000019"><a xlink:href="namespace_big_data_stat_meth.html#a44b65a910276a5b61d0c3877b810eaeb" target="_top" xlink:title=" ">
<polygon fill="white" stroke="#666666" points="796,-79.68 631.5,-79.68 631.5,-49.18 796,-49.18 796,-79.68"/>
<text xml:space="preserve" text-anchor="start" x="639.5" y="-66.18" font-family="Helvetica,sans-Serif" font-size="10.00">BigDataStatMeth::RcppNormalize</text>
<text xml:space="preserve" text-anchor="middle" x="713.75" y="-54.93" font-family="Helvetica,sans-Serif" font-size="10.00">Rowwise</text>
</a>
</g>
</g>
<!-- Node17&#45;&gt;Node19 -->
<g id="edge19_Node000017_Node000019" class="edge">
<title>Node17&#45;&gt;Node19</title>
<g id="a_edge19_Node000017_Node000019"><a xlink:title=" ">
<path fill="none" stroke="#63b8ff" d="M595.8,-58.35C603.71,-58.76 611.7,-59.18 619.6,-59.59"/>
<polygon fill="#63b8ff" stroke="#63b8ff" points="619.41,-63.08 629.58,-60.11 619.77,-56.09 619.41,-63.08"/>
</a>
</g>
</g>
</g>
</svg>

<g id="navigator" transform="translate(0 0)" fill="#404254">
  <rect fill="#f2f5e9" fill-opacity="0.5" stroke="#606060" stroke-width=".5" x="0" y="0" width="60" height="60"/>
  <use id="zoomplus" xlink:href="#zoomPlus" x="17" y="9" onmousedown="handleZoom(evt,'in')"/>
  <use id="zoomminus" xlink:href="#zoomMin" x="42" y="9" onmousedown="handleZoom(evt,'out')"/>
  <use id="reset" xlink:href="#resetDef" x="30" y="36" onmousedown="handleReset()"/>
   <use id="arrowup" xlink:href="#arrowUp" x="0" y="0" onmousedown="handlePan(0,-1)"/>
  <use id="arrowright" xlink:href="#arrowRight" x="0" y="0" onmousedown="handlePan(1,0)"/>
  <use id="arrowdown" xlink:href="#arrowDown" x="0" y="0" onmousedown="handlePan(0,1)"/>
  <use id="arrowleft" xlink:href="#arrowLeft" x="0" y="0" onmousedown="handlePan(-1,0)"/>
</g>
<svg viewBox="0 0 15 15" width="100%" height="30px" preserveAspectRatio="xMaxYMin meet">
 <g id="arrow_out" transform="scale(0.3 0.3)">
  <a xlink:href="namespace_big_data_stat_meth_a8230fb3b686276464c16ed444be03d22_cgraph_org.svg" target="_base">
   <rect id="button" ry="5" rx="5" y="6" x="6" height="38" width="38"
        fill="#f2f5e9" fill-opacity="0.5" stroke="#606060" stroke-width="1.0"/>
   <path id="arrow"
     d="M 11.500037,31.436501 C 11.940474,20.09759 22.043105,11.32322 32.158766,21.979434 L 37.068811,17.246167 C 37.068811,17.246167 37.088388,32 37.088388,32 L 22.160133,31.978069 C 22.160133,31.978069 26.997745,27.140456 26.997745,27.140456 C 18.528582,18.264221 13.291696,25.230495 11.500037,31.436501 z"
     style="fill:#404040;"/>
  </a>
 </g>
</svg>

<style type='text/css'>
<![CDATA[
[data-mouse-over-selected='false'] { opacity: 0.7; }
[data-mouse-over-selected='true']  { opacity: 1.0; }
]]>
</style>
<script type="application/ecmascript"><![CDATA[
document.addEventListener('DOMContentLoaded', (event) => {
  highlightEdges();
  highlightAdjacentNodes();
});
]]></script>
</svg>
