<?xml version="1.0" encoding="UTF-8" standalone="no"?>
<!DOCTYPE svg PUBLIC "-//W3C//DTD SVG 1.1//EN"
 "http://www.w3.org/Graphics/SVG/1.1/DTD/svg11.dtd">
<!-- Generated by graphviz version 14.0.0 (20250921.2048)
 -->
<!-- Title: BigDataStatMeth::Rcpp_Remove_MAF_hdf5 Pages: 1 -->
<!--zoomable 603 -->

<svg id="main" version="1.1" xmlns="http://www.w3.org/2000/svg" xmlns:xlink="http://www.w3.org/1999/xlink" xml:space="preserve" onload="init(evt)">

<style type="text/css"><![CDATA[
.node, .edge {opacity: 0.7;}
.node.selected, .edge.selected {opacity: 1;}
.edge:hover path { stroke: red; }
.edge:hover polygon { stroke: red; fill: red; }
]]></style>

<defs>
  <circle id="rim" cx="0" cy="0" r="7"/>
  <circle id="rim2" cx="0" cy="0" r="3.5"/>
  <g id="zoomPlus">
    <use xlink:href="#rim" fill="#404040"><set attributeName="fill" to="#808080" begin="zoomplus.mouseover" end="zoomplus.mouseout"/></use>
    <path d="M-4,0h8M0,-4v8" fill="none" stroke="white" stroke-width="1.5" pointer-events="none"/>
  </g>
  <g id="zoomMin">
    <use xlink:href="#rim" fill="#404040"><set attributeName="fill" to="#808080" begin="zoomminus.mouseover" end="zoomminus.mouseout"/></use>
    <path d="M-4,0h8" fill="none" stroke="white" stroke-width="1.5" pointer-events="none"/>
  </g>
  <g id="arrowUp" transform="translate(30 24)">
    <use xlink:href="#rim"/>
    <path pointer-events="none" fill="none" stroke="white" stroke-width="1.5" d="M0,-3.0v7 M-2.5,-0.5L0,-3.0L2.5,-0.5"/>
  </g>
  <g id="arrowRight" transform="rotate(90) translate(36 -43)">
    <use xlink:href="#rim"/>
    <path pointer-events="none" fill="none" stroke="white" stroke-width="1.5" d="M0,-3.0v7 M-2.5,-0.5L0,-3.0L2.5,-0.5"/>
  </g>
  <g id="arrowDown" transform="rotate(180) translate(-30 -48)">
    <use xlink:href="#rim"/>
    <path pointer-events="none" fill="none" stroke="white" stroke-width="1.5" d="M0,-3.0v7 M-2.5,-0.5L0,-3.0L2.5,-0.5"/>
  </g>
  <g id="arrowLeft" transform="rotate(270) translate(-36 17)">
    <use xlink:href="#rim"/>
    <path pointer-events="none" fill="none" stroke="white" stroke-width="1.5" d="M0,-3.0v7 M-2.5,-0.5L0,-3.0L2.5,-0.5"/>
  </g>
  <g id="resetDef">
    <use xlink:href="#rim2" fill="#404040"><set attributeName="fill" to="#808080" begin="reset.mouseover" end="reset.mouseout"/></use>
  </g>
</defs>
<script type="application/ecmascript">
var viewWidth = 909;
var viewHeight = 603;
var sectionId = 'dynsection-138';
</script>
<script type="application/ecmascript" xlink:href="../../../../assets/svg.min.js"/>
<svg id="graph" class="graph">
<g id="viewport">
<title>BigDataStatMeth::Rcpp_Remove_MAF_hdf5</title>
<!-- Node1 -->
<g id="Node000001" class="node">
<title>Node1</title>
<g id="a_Node000001"><a xlink:title="Removes rows or columns from a dataset based on MAF threshold.">
<polygon fill="#999999" stroke="#666666" points="120.25,-289.5 0,-289.5 0,-259 120.25,-259 120.25,-289.5"/>
<text xml:space="preserve" text-anchor="start" x="8" y="-276" font-family="Helvetica,sans-Serif" font-size="10.00">BigDataStatMeth::Rcpp</text>
<text xml:space="preserve" text-anchor="middle" x="60.12" y="-264.75" font-family="Helvetica,sans-Serif" font-size="10.00">_Remove_MAF_hdf5</text>
</a>
</g>
</g>
<!-- Node2 -->
<g id="Node000002" class="node">
<title>Node2</title>
<g id="a_Node000002"><a xlink:href="namespace_big_data_stat_meth.html#a25ba80eaa6ebd8750a2a417176fd2a33" target="_top" xlink:title="Calculates the Minor Allele Frequency (MAF) from binary genotype data.">
<polygon fill="white" stroke="#666666" points="310.62,-504.88 173.88,-504.88 173.88,-485.62 310.62,-485.62 310.62,-504.88"/>
<text xml:space="preserve" text-anchor="middle" x="242.25" y="-491.38" font-family="Helvetica,sans-Serif" font-size="10.00">BigDataStatMeth::calc_freq</text>
</a>
</g>
</g>
<!-- Node1&#45;&gt;Node2 -->
<g id="edge1_Node000001_Node000002" class="edge">
<title>Node1&#45;&gt;Node2</title>
<g id="a_edge1_Node000001_Node000002"><a xlink:title=" ">
<path fill="none" stroke="#63b8ff" d="M63.67,-289.75C70.77,-327.9 94.53,-426.82 156.25,-476.25 158.52,-478.07 160.93,-479.72 163.45,-481.22"/>
<polygon fill="#63b8ff" stroke="#63b8ff" points="161.74,-484.28 172.25,-485.62 164.87,-478.02 161.74,-484.28"/>
</a>
</g>
</g>
<!-- Node3 -->
<g id="Node000003" class="node">
<title>Node3</title>
<g id="a_Node000003"><a xlink:href="class_big_data_stat_meth_1_1hdf5_dataset.html#a27b2a71abcad756b7031b02c92130536" target="_top" xlink:title="Create an unlimited dataset with optional compression.">
<polygon fill="white" stroke="#666666" points="317.38,-467.5 167.12,-467.5 167.12,-437 317.38,-437 317.38,-467.5"/>
<text xml:space="preserve" text-anchor="start" x="175.12" y="-454" font-family="Helvetica,sans-Serif" font-size="10.00">BigDataStatMeth::hdf5Dataset</text>
<text xml:space="preserve" text-anchor="middle" x="242.25" y="-442.75" font-family="Helvetica,sans-Serif" font-size="10.00">::createUnlimitedDataset</text>
</a>
</g>
</g>
<!-- Node1&#45;&gt;Node3 -->
<g id="edge2_Node000001_Node000003" class="edge">
<title>Node1&#45;&gt;Node3</title>
<g id="a_edge2_Node000001_Node000003"><a xlink:title=" ">
<path fill="none" stroke="#63b8ff" d="M66.25,-289.55C77.44,-320.59 107.08,-391.15 156.25,-428.25 157.59,-429.26 158.97,-430.23 160.38,-431.15"/>
<polygon fill="#63b8ff" stroke="#63b8ff" points="158.42,-434.06 168.84,-435.95 161.87,-427.98 158.42,-434.06"/>
</a>
</g>
</g>
<!-- Node10 -->
<g id="Node000010" class="node">
<title>Node10</title>
<g id="a_Node000010"><a xlink:href="class_big_data_stat_meth_1_1hdf5_dataset.html#a7b54a6f524581d54102a1614ee44991b" target="_top" xlink:title="Get dataset dimension.">
<polygon fill="white" stroke="#666666" points="328.25,-418.88 156.25,-418.88 156.25,-399.62 328.25,-399.62 328.25,-418.88"/>
<text xml:space="preserve" text-anchor="middle" x="242.25" y="-405.38" font-family="Helvetica,sans-Serif" font-size="10.00">BigDataStatMeth::hdf5Dataset::dim</text>
</a>
</g>
</g>
<!-- Node1&#45;&gt;Node10 -->
<g id="edge10_Node000001_Node000010" class="edge">
<title>Node1&#45;&gt;Node10</title>
<g id="a_edge10_Node000001_Node000010"><a xlink:title=" ">
<path fill="none" stroke="#63b8ff" d="M69.32,-289.83C83.48,-315.12 115,-364.85 156.25,-390.25 159.03,-391.96 161.94,-393.52 164.94,-394.93"/>
<polygon fill="#63b8ff" stroke="#63b8ff" points="163.47,-398.11 174.05,-398.66 166.12,-391.63 163.47,-398.11"/>
</a>
</g>
</g>
<!-- Node11 -->
<g id="Node000011" class="node">
<title>Node11</title>
<g id="a_Node000011"><a xlink:href="class_big_data_stat_meth_1_1hdf5_dataset.html#a5235fb1fb8b567325b1405bcef9f061d" target="_top" xlink:title="Extend an unlimited dataset.">
<polygon fill="white" stroke="#666666" points="525,-240.5 374.75,-240.5 374.75,-210 525,-210 525,-240.5"/>
<text xml:space="preserve" text-anchor="start" x="382.75" y="-227" font-family="Helvetica,sans-Serif" font-size="10.00">BigDataStatMeth::hdf5Dataset</text>
<text xml:space="preserve" text-anchor="middle" x="449.88" y="-215.75" font-family="Helvetica,sans-Serif" font-size="10.00">::extendUnlimitedDataset</text>
</a>
</g>
</g>
<!-- Node1&#45;&gt;Node11 -->
<g id="edge11_Node000001_Node000011" class="edge">
<title>Node1&#45;&gt;Node11</title>
<g id="a_edge11_Node000001_Node000011"><a xlink:title=" ">
<path fill="none" stroke="#63b8ff" d="M120.61,-272.96C174.97,-271.08 257.42,-266.49 328.25,-255.25 346.26,-252.39 365.51,-248.15 383.24,-243.76"/>
<polygon fill="#63b8ff" stroke="#63b8ff" points="384.04,-247.16 392.87,-241.31 382.32,-240.38 384.04,-247.16"/>
</a>
</g>
</g>
<!-- Node13 -->
<g id="Node000013" class="node">
<title>Node13</title>
<g id="a_Node000013"><a xlink:href="class_big_data_stat_meth_1_1hdf5_dataset.html#af3ab7117b94164ab629673cacd896dd9" target="_top" xlink:title="Get the current compression level for this dataset instance.">
<polygon fill="white" stroke="#666666" points="317.38,-332.5 167.12,-332.5 167.12,-302 317.38,-302 317.38,-332.5"/>
<text xml:space="preserve" text-anchor="start" x="175.12" y="-319" font-family="Helvetica,sans-Serif" font-size="10.00">BigDataStatMeth::hdf5Dataset</text>
<text xml:space="preserve" text-anchor="middle" x="242.25" y="-307.75" font-family="Helvetica,sans-Serif" font-size="10.00">::getCompressionLevel</text>
</a>
</g>
</g>
<!-- Node1&#45;&gt;Node13 -->
<g id="edge13_Node000001_Node000013" class="edge">
<title>Node1&#45;&gt;Node13</title>
<g id="a_edge13_Node000001_Node000013"><a xlink:title=" ">
<path fill="none" stroke="#63b8ff" d="M120.6,-288.45C134.57,-291.78 149.64,-295.38 164.25,-298.87"/>
<polygon fill="#63b8ff" stroke="#63b8ff" points="163.29,-302.24 173.83,-301.16 164.92,-295.43 163.29,-302.24"/>
</a>
</g>
</g>
<!-- Node14 -->
<g id="Node000014" class="node">
<title>Node14</title>
<g id="a_Node000014"><a xlink:href="class_big_data_stat_meth_1_1hdf5_dataset.html#ab57cadee5e43a496eb32dbf12d603d76" target="_top" xlink:title=" ">
<polygon fill="white" stroke="#666666" points="317.38,-381.5 167.12,-381.5 167.12,-351 317.38,-351 317.38,-381.5"/>
<text xml:space="preserve" text-anchor="start" x="175.12" y="-368" font-family="Helvetica,sans-Serif" font-size="10.00">BigDataStatMeth::hdf5Dataset</text>
<text xml:space="preserve" text-anchor="middle" x="242.25" y="-356.75" font-family="Helvetica,sans-Serif" font-size="10.00">::openDataset</text>
</a>
</g>
</g>
<!-- Node1&#45;&gt;Node14 -->
<g id="edge14_Node000001_Node000014" class="edge">
<title>Node1&#45;&gt;Node14</title>
<g id="a_edge14_Node000001_Node000014"><a xlink:title=" ">
<path fill="none" stroke="#63b8ff" d="M79.29,-289.8C97.64,-304.82 127.33,-327.28 156.25,-341.25 160.19,-343.15 164.3,-344.94 168.5,-346.62"/>
<polygon fill="#63b8ff" stroke="#63b8ff" points="167.06,-349.81 177.65,-350.02 169.5,-343.25 167.06,-349.81"/>
</a>
</g>
</g>
<!-- Node17 -->
<g id="Node000017" class="node">
<title>Node17</title>
<g id="a_Node000017"><a xlink:href="class_big_data_stat_meth_1_1hdf5_dataset.html#a23bea87165b8ef6b944709c5b2cbd0cf" target="_top" xlink:title=" ">
<polygon fill="white" stroke="#666666" points="317.38,-246.5 167.12,-246.5 167.12,-216 317.38,-216 317.38,-246.5"/>
<text xml:space="preserve" text-anchor="start" x="175.12" y="-233" font-family="Helvetica,sans-Serif" font-size="10.00">BigDataStatMeth::hdf5Dataset</text>
<text xml:space="preserve" text-anchor="middle" x="242.25" y="-221.75" font-family="Helvetica,sans-Serif" font-size="10.00">::readDatasetBlock</text>
</a>
</g>
</g>
<!-- Node1&#45;&gt;Node17 -->
<g id="edge21_Node000001_Node000017" class="edge">
<title>Node1&#45;&gt;Node17</title>
<g id="a_edge21_Node000001_Node000017"><a xlink:title=" ">
<path fill="none" stroke="#63b8ff" d="M120.6,-260.05C134.57,-256.72 149.64,-253.12 164.25,-249.63"/>
<polygon fill="#63b8ff" stroke="#63b8ff" points="164.92,-253.07 173.83,-247.34 163.29,-246.26 164.92,-253.07"/>
</a>
</g>
</g>
<!-- Node18 -->
<g id="Node000018" class="node">
<title>Node18</title>
<g id="a_Node000018"><a xlink:href="namespace_big_data_stat_meth.html#a962551a78d986ff03e179f2d6df2af52" target="_top" xlink:title="Removes a column from an Eigen matrix.">
<polygon fill="white" stroke="#666666" points="323.75,-197.88 160.75,-197.88 160.75,-178.62 323.75,-178.62 323.75,-197.88"/>
<text xml:space="preserve" text-anchor="middle" x="242.25" y="-184.38" font-family="Helvetica,sans-Serif" font-size="10.00">BigDataStatMeth::removeColumn</text>
</a>
</g>
</g>
<!-- Node1&#45;&gt;Node18 -->
<g id="edge23_Node000001_Node000018" class="edge">
<title>Node1&#45;&gt;Node18</title>
<g id="a_edge23_Node000001_Node000018"><a xlink:title=" ">
<path fill="none" stroke="#63b8ff" d="M78.76,-258.57C96.93,-243.23 126.7,-220.33 156.25,-207.25 161.09,-205.11 166.2,-203.19 171.42,-201.49"/>
<polygon fill="#63b8ff" stroke="#63b8ff" points="172.17,-204.91 180.76,-198.7 170.17,-198.21 172.17,-204.91"/>
</a>
</g>
</g>
<!-- Node19 -->
<g id="Node000019" class="node">
<title>Node19</title>
<g id="a_Node000019"><a xlink:href="namespace_big_data_stat_meth.html#a5e29fef215232998153a651719685521" target="_top" xlink:title="Removes a row from an Eigen matrix.">
<polygon fill="white" stroke="#666666" points="317,-160.88 167.5,-160.88 167.5,-141.62 317,-141.62 317,-160.88"/>
<text xml:space="preserve" text-anchor="middle" x="242.25" y="-147.38" font-family="Helvetica,sans-Serif" font-size="10.00">BigDataStatMeth::removeRow</text>
</a>
</g>
</g>
<!-- Node1&#45;&gt;Node19 -->
<g id="edge24_Node000001_Node000019" class="edge">
<title>Node1&#45;&gt;Node19</title>
<g id="a_edge24_Node000001_Node000019"><a xlink:title=" ">
<path fill="none" stroke="#63b8ff" d="M70.65,-258.59C85.73,-235.22 117.44,-191.56 156.25,-169.25 158.57,-167.92 160.97,-166.68 163.44,-165.54"/>
<polygon fill="#63b8ff" stroke="#63b8ff" points="164.51,-168.88 172.47,-161.9 161.89,-162.39 164.51,-168.88"/>
</a>
</g>
</g>
<!-- Node20 -->
<g id="Node000020" class="node">
<title>Node20</title>
<g id="a_Node000020"><a xlink:href="class_big_data_stat_meth_1_1hdf5_dataset.html#a9b74902d79f983c5ac359b9e72199c01" target="_top" xlink:title="Set the compression level for this dataset instance.">
<polygon fill="white" stroke="#666666" points="317.38,-123.5 167.12,-123.5 167.12,-93 317.38,-93 317.38,-123.5"/>
<text xml:space="preserve" text-anchor="start" x="175.12" y="-110" font-family="Helvetica,sans-Serif" font-size="10.00">BigDataStatMeth::hdf5Dataset</text>
<text xml:space="preserve" text-anchor="middle" x="242.25" y="-98.75" font-family="Helvetica,sans-Serif" font-size="10.00">::setCompressionLevel</text>
</a>
</g>
</g>
<!-- Node1&#45;&gt;Node20 -->
<g id="edge25_Node000001_Node000020" class="edge">
<title>Node1&#45;&gt;Node20</title>
<g id="a_edge25_Node000001_Node000020"><a xlink:title=" ">
<path fill="none" stroke="#63b8ff" d="M67.15,-258.8C79.37,-229.52 109.9,-165.89 156.25,-132.25 157.61,-131.26 159,-130.32 160.43,-129.41"/>
<polygon fill="#63b8ff" stroke="#63b8ff" points="161.9,-132.6 168.97,-124.71 158.52,-126.47 161.9,-132.6"/>
</a>
</g>
</g>
<!-- Node21 -->
<g id="Node000021" class="node">
<title>Node21</title>
<g id="a_Node000021"><a xlink:href="class_big_data_stat_meth_1_1hdf5_dataset.html#af606176d84a63561b65702b6fde3a583" target="_top" xlink:title="Write block of data with optional transposition.">
<polygon fill="white" stroke="#666666" points="317.38,-74.5 167.12,-74.5 167.12,-44 317.38,-44 317.38,-74.5"/>
<text xml:space="preserve" text-anchor="start" x="175.12" y="-61" font-family="Helvetica,sans-Serif" font-size="10.00">BigDataStatMeth::hdf5Dataset</text>
<text xml:space="preserve" text-anchor="middle" x="242.25" y="-49.75" font-family="Helvetica,sans-Serif" font-size="10.00">::writeDatasetBlock</text>
</a>
</g>
</g>
<!-- Node1&#45;&gt;Node21 -->
<g id="edge26_Node000001_Node000021" class="edge">
<title>Node1&#45;&gt;Node21</title>
<g id="a_edge26_Node000001_Node000021"><a xlink:title=" ">
<path fill="none" stroke="#63b8ff" d="M64.47,-258.57C73.04,-222.26 99.22,-131.93 156.25,-84.25 157.75,-83 159.31,-81.8 160.93,-80.67"/>
<polygon fill="#63b8ff" stroke="#63b8ff" points="162.59,-83.75 169.35,-75.6 158.98,-77.76 162.59,-83.75"/>
</a>
</g>
</g>
<!-- Node4 -->
<g id="Node000004" class="node">
<title>Node4</title>
<g id="a_Node000004"><a xlink:href="class_big_data_stat_meth_1_1hdf5_dataset.html#ac7a7f23b7e22c9b56ca6ad86592f2d52" target="_top" xlink:title="Add an attribute to the dataset.">
<polygon fill="white" stroke="#666666" points="525,-510.5 374.75,-510.5 374.75,-480 525,-480 525,-510.5"/>
<text xml:space="preserve" text-anchor="start" x="382.75" y="-497" font-family="Helvetica,sans-Serif" font-size="10.00">BigDataStatMeth::hdf5Dataset</text>
<text xml:space="preserve" text-anchor="middle" x="449.88" y="-485.75" font-family="Helvetica,sans-Serif" font-size="10.00">::addAttribute</text>
</a>
</g>
</g>
<!-- Node3&#45;&gt;Node4 -->
<g id="edge3_Node000003_Node000004" class="edge">
<title>Node3&#45;&gt;Node4</title>
<g id="a_edge3_Node000003_Node000004"><a xlink:title=" ">
<path fill="none" stroke="#63b8ff" d="M317.78,-467.83C332.57,-470.93 348.22,-474.2 363.35,-477.37"/>
<polygon fill="#63b8ff" stroke="#63b8ff" points="362.27,-480.72 372.78,-479.34 363.7,-473.86 362.27,-480.72"/>
</a>
</g>
</g>
<!-- Node5 -->
<g id="Node000005" class="node">
<title>Node5</title>
<g id="a_Node000005"><a xlink:href="class_big_data_stat_meth_1_1hdf5_file.html#abfb73b5f1eb25ee00489485c8dc56a2a" target="_top" xlink:title="Close file and cleanup resources.">
<polygon fill="white" stroke="#666666" points="515.62,-424.5 384.12,-424.5 384.12,-394 515.62,-394 515.62,-424.5"/>
<text xml:space="preserve" text-anchor="start" x="392.12" y="-411" font-family="Helvetica,sans-Serif" font-size="10.00">BigDataStatMeth::hdf5File</text>
<text xml:space="preserve" text-anchor="middle" x="449.88" y="-399.75" font-family="Helvetica,sans-Serif" font-size="10.00">::close_file</text>
</a>
</g>
</g>
<!-- Node3&#45;&gt;Node5 -->
<g id="edge4_Node000003_Node000005" class="edge">
<title>Node3&#45;&gt;Node5</title>
<g id="a_edge4_Node000003_Node000005"><a xlink:title=" ">
<path fill="none" stroke="#63b8ff" d="M317.78,-436.67C335.59,-432.94 354.62,-428.96 372.51,-425.22"/>
<polygon fill="#63b8ff" stroke="#63b8ff" points="373.23,-428.65 382.3,-423.17 371.79,-421.79 373.23,-428.65"/>
</a>
</g>
</g>
<!-- Node6 -->
<g id="Node000006" class="node">
<title>Node6</title>
<g id="a_Node000006"><a xlink:href="class_big_data_stat_meth_1_1hdf5_group.html#a27cef4d33e46c72bfd792aa49fa621a3" target="_top" xlink:title="Create multiple nested groups.">
<polygon fill="white" stroke="#666666" points="717.62,-559.5 575.62,-559.5 575.62,-529 717.62,-529 717.62,-559.5"/>
<text xml:space="preserve" text-anchor="start" x="583.62" y="-546" font-family="Helvetica,sans-Serif" font-size="10.00">BigDataStatMeth::hdf5Group</text>
<text xml:space="preserve" text-anchor="middle" x="646.62" y="-534.75" font-family="Helvetica,sans-Serif" font-size="10.00">::create_HDF5_groups</text>
</a>
</g>
</g>
<!-- Node3&#45;&gt;Node6 -->
<g id="edge5_Node000003_Node000006" class="edge">
<title>Node3&#45;&gt;Node6</title>
<g id="a_edge5_Node000003_Node000006"><a xlink:title=" ">
<path fill="none" stroke="#63b8ff" d="M316.65,-467.88C320.81,-470.29 324.73,-473.06 328.25,-476.25 360.78,-505.74 327.98,-543.5 364.25,-568.25 435.35,-616.78 541.27,-587.45 600.81,-564.24"/>
<polygon fill="#63b8ff" stroke="#63b8ff" points="601.99,-567.53 609.96,-560.56 599.38,-561.04 601.99,-567.53"/>
</a>
</g>
</g>
<!-- Node8 -->
<g id="Node000008" class="node">
<title>Node8</title>
<g id="a_Node000008"><a xlink:href="namespace_big_data_stat_meth.html#a89d901ab4b5e01771f4e3fc7dc84e50e" target="_top" xlink:title="Checks if an HDF5 element (group or dataset) exists.">
<polygon fill="white" stroke="#666666" points="708.25,-424.5 585,-424.5 585,-394 708.25,-394 708.25,-424.5"/>
<text xml:space="preserve" text-anchor="start" x="593" y="-411" font-family="Helvetica,sans-Serif" font-size="10.00">BigDataStatMeth::exists</text>
<text xml:space="preserve" text-anchor="middle" x="646.62" y="-399.75" font-family="Helvetica,sans-Serif" font-size="10.00">_HDF5_element</text>
</a>
</g>
</g>
<!-- Node3&#45;&gt;Node8 -->
<g id="edge7_Node000003_Node000008" class="edge">
<title>Node3&#45;&gt;Node8</title>
<g id="a_edge7_Node000003_Node000008"><a xlink:title=" ">
<path fill="none" stroke="#63b8ff" d="M317.73,-450.48C376.98,-448.33 461.86,-443.61 535.5,-433.25 547.94,-431.5 561.06,-429.12 573.75,-426.53"/>
<polygon fill="#63b8ff" stroke="#63b8ff" points="574.21,-430.01 583.27,-424.53 572.77,-423.16 574.21,-430.01"/>
</a>
</g>
</g>
<!-- Node9 -->
<g id="Node000009" class="node">
<title>Node9</title>
<g id="a_Node000009"><a xlink:href="namespace_big_data_stat_meth.html#a3d06783149029f1df2853c472d401380" target="_top" xlink:title="Removes multiple elements from an HDF5 file.">
<polygon fill="white" stroke="#666666" points="514.5,-559.5 385.25,-559.5 385.25,-529 514.5,-529 514.5,-559.5"/>
<text xml:space="preserve" text-anchor="start" x="393.25" y="-546" font-family="Helvetica,sans-Serif" font-size="10.00">BigDataStatMeth::remove</text>
<text xml:space="preserve" text-anchor="middle" x="449.88" y="-534.75" font-family="Helvetica,sans-Serif" font-size="10.00">_elements</text>
</a>
</g>
</g>
<!-- Node3&#45;&gt;Node9 -->
<g id="edge9_Node000003_Node000009" class="edge">
<title>Node3&#45;&gt;Node9</title>
<g id="a_edge9_Node000003_Node000009"><a xlink:title=" ">
<path fill="none" stroke="#63b8ff" d="M312.55,-467.93C318.05,-470.33 323.36,-473.08 328.25,-476.25 349.17,-489.79 343.41,-505.58 364.25,-519.25 367.55,-521.42 371.05,-523.4 374.66,-525.22"/>
<polygon fill="#63b8ff" stroke="#63b8ff" points="373.18,-528.38 383.73,-529.28 376.04,-522 373.18,-528.38"/>
</a>
</g>
</g>
<!-- Node7 -->
<g id="Node000007" class="node">
<title>Node7</title>
<g id="a_Node000007"><a xlink:href="namespace_big_data_stat_meth.html#abcaa4216cd52f03ebac42e4855ef846b" target="_top" xlink:title="Checks if a path exists in an HDF5 file.">
<polygon fill="white" stroke="#666666" points="901.25,-485.88 757.75,-485.88 757.75,-466.62 901.25,-466.62 901.25,-485.88"/>
<text xml:space="preserve" text-anchor="middle" x="829.5" y="-472.38" font-family="Helvetica,sans-Serif" font-size="10.00">BigDataStatMeth::pathExists</text>
</a>
</g>
</g>
<!-- Node6&#45;&gt;Node7 -->
<g id="edge6_Node000006_Node000007" class="edge">
<title>Node6&#45;&gt;Node7</title>
<g id="a_edge6_Node000006_Node000007"><a xlink:title=" ">
<path fill="none" stroke="#63b8ff" d="M689.12,-528.65C719.83,-517.11 761.3,-501.51 791.01,-490.34"/>
<polygon fill="#63b8ff" stroke="#63b8ff" points="792.23,-493.63 800.36,-486.83 789.76,-487.07 792.23,-493.63"/>
</a>
</g>
</g>
<!-- Node8&#45;&gt;Node7 -->
<g id="edge8_Node000008_Node000007" class="edge">
<title>Node8&#45;&gt;Node7</title>
<g id="a_edge8_Node000008_Node000007"><a xlink:title=" ">
<path fill="none" stroke="#63b8ff" d="M690.03,-424.96C720.49,-436.24 761.2,-451.32 790.58,-462.2"/>
<polygon fill="#63b8ff" stroke="#63b8ff" points="789.23,-465.44 799.82,-465.63 791.66,-458.87 789.23,-465.44"/>
</a>
</g>
</g>
<!-- Node12 -->
<g id="Node000012" class="node">
<title>Node12</title>
<g id="a_Node000012"><a xlink:href="class_big_data_stat_meth_1_1hdf5_dataset.html#aba39e56a580d3b1fa7f1619fc72efa3e" target="_top" xlink:title="Close dataset and file.">
<polygon fill="white" stroke="#666666" points="721.75,-219.5 571.5,-219.5 571.5,-189 721.75,-189 721.75,-219.5"/>
<text xml:space="preserve" text-anchor="start" x="579.5" y="-206" font-family="Helvetica,sans-Serif" font-size="10.00">BigDataStatMeth::hdf5Dataset</text>
<text xml:space="preserve" text-anchor="middle" x="646.62" y="-194.75" font-family="Helvetica,sans-Serif" font-size="10.00">::close_dataset_file</text>
</a>
</g>
</g>
<!-- Node11&#45;&gt;Node12 -->
<g id="edge12_Node000011_Node000012" class="edge">
<title>Node11&#45;&gt;Node12</title>
<g id="a_edge12_Node000011_Node000012"><a xlink:title=" ">
<path fill="none" stroke="#63b8ff" d="M525.34,-217.22C536.61,-216.01 548.32,-214.74 559.81,-213.5"/>
<polygon fill="#63b8ff" stroke="#63b8ff" points="560.13,-216.99 569.7,-212.44 559.38,-210.03 560.13,-216.99"/>
</a>
</g>
</g>
<!-- Node14&#45;&gt;Node5 -->
<g id="edge15_Node000014_Node000005" class="edge">
<title>Node14&#45;&gt;Node5</title>
<g id="a_edge15_Node000014_Node000005"><a xlink:title=" ">
<path fill="none" stroke="#63b8ff" d="M317.78,-381.83C335.59,-385.56 354.62,-389.54 372.51,-393.28"/>
<polygon fill="#63b8ff" stroke="#63b8ff" points="371.79,-396.71 382.3,-395.33 373.23,-389.85 371.79,-396.71"/>
</a>
</g>
</g>
<!-- Node14&#45;&gt;Node8 -->
<g id="edge16_Node000014_Node000008" class="edge">
<title>Node14&#45;&gt;Node8</title>
<g id="a_edge16_Node000014_Node000008"><a xlink:title=" ">
<path fill="none" stroke="#63b8ff" d="M317.73,-368.02C376.98,-370.17 461.86,-374.89 535.5,-385.25 547.94,-387 561.06,-389.38 573.75,-391.97"/>
<polygon fill="#63b8ff" stroke="#63b8ff" points="572.77,-395.34 583.27,-393.97 574.21,-388.49 572.77,-395.34"/>
</a>
</g>
</g>
<!-- Node15 -->
<g id="Node000015" class="node">
<title>Node15</title>
<g id="a_Node000015"><a xlink:href="class_big_data_stat_meth_1_1hdf5_dataset.html#a1ebc27e1f730bc4e611b844dbbb08e34" target="_top" xlink:title="Get an attribute from the dataset.">
<polygon fill="white" stroke="#666666" points="525,-338.5 374.75,-338.5 374.75,-308 525,-308 525,-338.5"/>
<text xml:space="preserve" text-anchor="start" x="382.75" y="-325" font-family="Helvetica,sans-Serif" font-size="10.00">BigDataStatMeth::hdf5Dataset</text>
<text xml:space="preserve" text-anchor="middle" x="449.88" y="-313.75" font-family="Helvetica,sans-Serif" font-size="10.00">::getAttribute</text>
</a>
</g>
</g>
<!-- Node14&#45;&gt;Node15 -->
<g id="edge17_Node000014_Node000015" class="edge">
<title>Node14&#45;&gt;Node15</title>
<g id="a_edge17_Node000014_Node000015"><a xlink:title=" ">
<path fill="none" stroke="#63b8ff" d="M317.78,-350.67C332.57,-347.57 348.22,-344.3 363.35,-341.13"/>
<polygon fill="#63b8ff" stroke="#63b8ff" points="363.7,-344.64 372.78,-339.16 362.27,-337.78 363.7,-344.64"/>
</a>
</g>
</g>
<!-- Node16 -->
<g id="Node000016" class="node">
<title>Node16</title>
<g id="a_Node000016"><a xlink:href="class_big_data_stat_meth_1_1hdf5_dataset.html#a945dd1d6f3db102a962d239045792f61" target="_top" xlink:title="Get dimensions of existing dataset.">
<polygon fill="white" stroke="#666666" points="525,-289.5 374.75,-289.5 374.75,-259 525,-259 525,-289.5"/>
<text xml:space="preserve" text-anchor="start" x="382.75" y="-276" font-family="Helvetica,sans-Serif" font-size="10.00">BigDataStatMeth::hdf5Dataset</text>
<text xml:space="preserve" text-anchor="middle" x="449.88" y="-264.75" font-family="Helvetica,sans-Serif" font-size="10.00">::getDimensExistingDataset</text>
</a>
</g>
</g>
<!-- Node14&#45;&gt;Node16 -->
<g id="edge20_Node000014_Node000016" class="edge">
<title>Node14&#45;&gt;Node16</title>
<g id="a_edge20_Node000014_Node000016"><a xlink:title=" ">
<path fill="none" stroke="#63b8ff" d="M310.33,-350.59C316.61,-347.93 322.7,-344.84 328.25,-341.25 348.89,-327.9 343.61,-312.61 364.25,-299.25 366.67,-297.68 369.19,-296.21 371.78,-294.83"/>
<polygon fill="#63b8ff" stroke="#63b8ff" points="373.19,-298.03 380.73,-290.58 370.19,-291.71 373.19,-298.03"/>
</a>
</g>
</g>
<!-- Node15&#45;&gt;Node8 -->
<g id="edge19_Node000015_Node000008" class="edge">
<title>Node15&#45;&gt;Node8</title>
<g id="a_edge19_Node000015_Node000008"><a xlink:title=" ">
<path fill="none" stroke="#63b8ff" d="M500.56,-338.91C512.15,-342.94 524.36,-347.49 535.5,-352.25 560.22,-362.82 587.04,-376.64 608.01,-388.03"/>
<polygon fill="#63b8ff" stroke="#63b8ff" points="606.33,-391.1 616.78,-392.84 609.7,-384.96 606.33,-391.1"/>
</a>
</g>
</g>
<!-- Node15&#45;&gt;Node12 -->
<g id="edge18_Node000015_Node000012" class="edge">
<title>Node15&#45;&gt;Node12</title>
<g id="a_edge18_Node000015_Node000012"><a xlink:title=" ">
<path fill="none" stroke="#63b8ff" d="M514.44,-307.67C521.73,-304.95 528.9,-301.83 535.5,-298.25 569.68,-279.71 602.76,-249.26 623.59,-228.05"/>
<polygon fill="#63b8ff" stroke="#63b8ff" points="626.01,-230.59 630.43,-220.96 620.97,-225.74 626.01,-230.59"/>
</a>
</g>
</g>
<!-- Node17&#45;&gt;Node12 -->
<g id="edge22_Node000017_Node000012" class="edge">
<title>Node17&#45;&gt;Node12</title>
<g id="a_edge22_Node000017_Node000012"><a xlink:title=" ">
<path fill="none" stroke="#63b8ff" d="M294.85,-215.52C316.12,-209.81 341.16,-204.07 364.25,-201.25 429.58,-193.27 504.07,-194.52 559.99,-197.5"/>
<polygon fill="#63b8ff" stroke="#63b8ff" points="559.58,-200.98 569.76,-198.05 559.98,-193.99 559.58,-200.98"/>
</a>
</g>
</g>
<!-- Node21&#45;&gt;Node12 -->
<g id="edge28_Node000021_Node000012" class="edge">
<title>Node21&#45;&gt;Node12</title>
<g id="a_edge28_Node000021_Node000012"><a xlink:title=" ">
<path fill="none" stroke="#63b8ff" d="M317.84,-48.5C379.44,-43.1 467.48,-43.64 535.5,-77.25 580.2,-99.34 614.29,-148.51 632.02,-178.78"/>
<polygon fill="#63b8ff" stroke="#63b8ff" points="628.87,-180.33 636.85,-187.3 634.96,-176.88 628.87,-180.33"/>
</a>
</g>
</g>
<!-- Node22 -->
<g id="Node000022" class="node">
<title>Node22</title>
<g id="a_Node000022"><a xlink:href="class_big_data_stat_meth_1_1hdf5_dataset.html#a64177ae924792ea9e557febaa95ed400" target="_top" xlink:title="Close the dataset.">
<polygon fill="white" stroke="#666666" points="525,-30.5 374.75,-30.5 374.75,0 525,0 525,-30.5"/>
<text xml:space="preserve" text-anchor="start" x="382.75" y="-17" font-family="Helvetica,sans-Serif" font-size="10.00">BigDataStatMeth::hdf5Dataset</text>
<text xml:space="preserve" text-anchor="middle" x="449.88" y="-5.75" font-family="Helvetica,sans-Serif" font-size="10.00">::close_dataset</text>
</a>
</g>
</g>
<!-- Node21&#45;&gt;Node22 -->
<g id="edge27_Node000021_Node000022" class="edge">
<title>Node21&#45;&gt;Node22</title>
<g id="a_edge27_Node000021_Node000022"><a xlink:title=" ">
<path fill="none" stroke="#63b8ff" d="M316.61,-43.55C332.17,-40.22 348.71,-36.68 364.63,-33.28"/>
<polygon fill="#63b8ff" stroke="#63b8ff" points="365.01,-36.77 374.06,-31.26 363.55,-29.93 365.01,-36.77"/>
</a>
</g>
</g>
<!-- Node23 -->
<g id="Node000023" class="node">
<title>Node23</title>
<g id="a_Node000023"><a xlink:href="class_big_data_stat_meth_1_1hdf5_dataset.html#a94d81b72e92cb0230b4e64f37ea7d2e3" target="_top" xlink:title="Convert DataFrame to range list.">
<polygon fill="white" stroke="#666666" points="535.5,-154.5 364.25,-154.5 364.25,-124 535.5,-124 535.5,-154.5"/>
<text xml:space="preserve" text-anchor="start" x="372.25" y="-141" font-family="Helvetica,sans-Serif" font-size="10.00">BigDataStatMeth::hdf5Dataset</text>
<text xml:space="preserve" text-anchor="middle" x="449.88" y="-129.75" font-family="Helvetica,sans-Serif" font-size="10.00">::convert_DataFrame_to_RangeList</text>
</a>
</g>
</g>
<!-- Node21&#45;&gt;Node23 -->
<g id="edge29_Node000021_Node000023" class="edge">
<title>Node21&#45;&gt;Node23</title>
<g id="a_edge29_Node000021_Node000023"><a xlink:title=" ">
<path fill="none" stroke="#63b8ff" d="M307.56,-74.95C314.72,-77.63 321.77,-80.72 328.25,-84.25 346.8,-94.34 345.66,-105.25 364.25,-115.25 366.78,-116.61 369.4,-117.9 372.07,-119.13"/>
<polygon fill="#63b8ff" stroke="#63b8ff" points="370.65,-122.32 381.22,-122.93 373.33,-115.86 370.65,-122.32"/>
</a>
</g>
</g>
<!-- Node24 -->
<g id="Node000024" class="node">
<title>Node24</title>
<g id="a_Node000024"><a xlink:href="namespace_big_data_stat_meth.html#a2692707b3ea4aaafa09d07afaf632437" target="_top" xlink:title="Transposes a 2D matrix.">
<polygon fill="white" stroke="#666666" points="519.75,-105.88 380,-105.88 380,-86.62 519.75,-86.62 519.75,-105.88"/>
<text xml:space="preserve" text-anchor="middle" x="449.88" y="-92.38" font-family="Helvetica,sans-Serif" font-size="10.00">BigDataStatMeth::transpose</text>
</a>
</g>
</g>
<!-- Node21&#45;&gt;Node24 -->
<g id="edge30_Node000021_Node000024" class="edge">
<title>Node21&#45;&gt;Node24</title>
<g id="a_edge30_Node000021_Node000024"><a xlink:title=" ">
<path fill="none" stroke="#63b8ff" d="M317.78,-72.66C338.63,-76.41 361.16,-80.47 381.56,-84.14"/>
<polygon fill="#63b8ff" stroke="#63b8ff" points="380.71,-87.54 391.17,-85.87 381.95,-80.65 380.71,-87.54"/>
</a>
</g>
</g>
</g>
</svg>

<g id="navigator" transform="translate(0 0)" fill="#404254">
  <rect fill="#f2f5e9" fill-opacity="0.5" stroke="#606060" stroke-width=".5" x="0" y="0" width="60" height="60"/>
  <use id="zoomplus" xlink:href="#zoomPlus" x="17" y="9" onmousedown="handleZoom(evt,'in')"/>
  <use id="zoomminus" xlink:href="#zoomMin" x="42" y="9" onmousedown="handleZoom(evt,'out')"/>
  <use id="reset" xlink:href="#resetDef" x="30" y="36" onmousedown="handleReset()"/>
   <use id="arrowup" xlink:href="#arrowUp" x="0" y="0" onmousedown="handlePan(0,-1)"/>
  <use id="arrowright" xlink:href="#arrowRight" x="0" y="0" onmousedown="handlePan(1,0)"/>
  <use id="arrowdown" xlink:href="#arrowDown" x="0" y="0" onmousedown="handlePan(0,1)"/>
  <use id="arrowleft" xlink:href="#arrowLeft" x="0" y="0" onmousedown="handlePan(-1,0)"/>
</g>
<svg viewBox="0 0 15 15" width="100%" height="30px" preserveAspectRatio="xMaxYMin meet">
 <g id="arrow_out" transform="scale(0.3 0.3)">
  <a xlink:href="namespace_big_data_stat_meth_a03a8786966faa491d4f359d52ea059e4_cgraph_org.svg" target="_base">
   <rect id="button" ry="5" rx="5" y="6" x="6" height="38" width="38"
        fill="#f2f5e9" fill-opacity="0.5" stroke="#606060" stroke-width="1.0"/>
   <path id="arrow"
     d="M 11.500037,31.436501 C 11.940474,20.09759 22.043105,11.32322 32.158766,21.979434 L 37.068811,17.246167 C 37.068811,17.246167 37.088388,32 37.088388,32 L 22.160133,31.978069 C 22.160133,31.978069 26.997745,27.140456 26.997745,27.140456 C 18.528582,18.264221 13.291696,25.230495 11.500037,31.436501 z"
     style="fill:#404040;"/>
  </a>
 </g>
</svg>

<style type='text/css'>
<![CDATA[
[data-mouse-over-selected='false'] { opacity: 0.7; }
[data-mouse-over-selected='true']  { opacity: 1.0; }
]]>
</style>
<script type="application/ecmascript"><![CDATA[
document.addEventListener('DOMContentLoaded', (event) => {
  highlightEdges();
  highlightAdjacentNodes();
});
]]></script>
</svg>
