<?xml version="1.0" encoding="UTF-8" standalone="no"?>
<!DOCTYPE svg PUBLIC "-//W3C//DTD SVG 1.1//EN"
 "http://www.w3.org/Graphics/SVG/1.1/DTD/svg11.dtd">
<!-- Generated by graphviz version 14.0.0 (20250921.2048)
 -->
<!-- Title: BigDataStatMeth::pearson_correlation Pages: 1 -->
<!--zoomable 239 -->

<svg id="main" version="1.1" xmlns="http://www.w3.org/2000/svg" xmlns:xlink="http://www.w3.org/1999/xlink" xml:space="preserve" onload="init(evt)">

<style type="text/css"><![CDATA[
.node, .edge {opacity: 0.7;}
.node.selected, .edge.selected {opacity: 1;}
.edge:hover path { stroke: red; }
.edge:hover polygon { stroke: red; fill: red; }
]]></style>

<defs>
  <circle id="rim" cx="0" cy="0" r="7"/>
  <circle id="rim2" cx="0" cy="0" r="3.5"/>
  <g id="zoomPlus">
    <use xlink:href="#rim" fill="#404040"><set attributeName="fill" to="#808080" begin="zoomplus.mouseover" end="zoomplus.mouseout"/></use>
    <path d="M-4,0h8M0,-4v8" fill="none" stroke="white" stroke-width="1.5" pointer-events="none"/>
  </g>
  <g id="zoomMin">
    <use xlink:href="#rim" fill="#404040"><set attributeName="fill" to="#808080" begin="zoomminus.mouseover" end="zoomminus.mouseout"/></use>
    <path d="M-4,0h8" fill="none" stroke="white" stroke-width="1.5" pointer-events="none"/>
  </g>
  <g id="arrowUp" transform="translate(30 24)">
    <use xlink:href="#rim"/>
    <path pointer-events="none" fill="none" stroke="white" stroke-width="1.5" d="M0,-3.0v7 M-2.5,-0.5L0,-3.0L2.5,-0.5"/>
  </g>
  <g id="arrowRight" transform="rotate(90) translate(36 -43)">
    <use xlink:href="#rim"/>
    <path pointer-events="none" fill="none" stroke="white" stroke-width="1.5" d="M0,-3.0v7 M-2.5,-0.5L0,-3.0L2.5,-0.5"/>
  </g>
  <g id="arrowDown" transform="rotate(180) translate(-30 -48)">
    <use xlink:href="#rim"/>
    <path pointer-events="none" fill="none" stroke="white" stroke-width="1.5" d="M0,-3.0v7 M-2.5,-0.5L0,-3.0L2.5,-0.5"/>
  </g>
  <g id="arrowLeft" transform="rotate(270) translate(-36 17)">
    <use xlink:href="#rim"/>
    <path pointer-events="none" fill="none" stroke="white" stroke-width="1.5" d="M0,-3.0v7 M-2.5,-0.5L0,-3.0L2.5,-0.5"/>
  </g>
  <g id="resetDef">
    <use xlink:href="#rim2" fill="#404040"><set attributeName="fill" to="#808080" begin="reset.mouseover" end="reset.mouseout"/></use>
  </g>
</defs>
<script type="application/ecmascript">
var viewWidth = 872;
var viewHeight = 239;
var sectionId = 'dynsection-80';
</script>
<script type="application/ecmascript" xlink:href="../../../../assets/svg.min.js"/>
<svg id="graph" class="graph">
<g id="viewport">
<title>BigDataStatMeth::pearson_correlation</title>
<!-- Node1 -->
<g id="Node000001" class="node">
<title>Node1</title>
<g id="a_Node000001"><a xlink:title=" ">
<polygon fill="#999999" stroke="#666666" points="863.75,-130.5 732.25,-130.5 732.25,-100 863.75,-100 863.75,-130.5"/>
<text xml:space="preserve" text-anchor="start" x="740.25" y="-117" font-family="Helvetica,sans-Serif" font-size="10.00">BigDataStatMeth::pearson</text>
<text xml:space="preserve" text-anchor="middle" x="798" y="-105.75" font-family="Helvetica,sans-Serif" font-size="10.00">_correlation</text>
</a>
</g>
</g>
<!-- Node2 -->
<g id="Node000002" class="node">
<title>Node2</title>
<g id="a_Node000002"><a xlink:href="namespace_big_data_stat_meth.html#a33749b2e89b9f4dd6a9ccd33740b7998" target="_top" xlink:title="Enhanced HDF5 cross&#45;correlation with integrated transpose support for big&#45;omics.">
<polygon fill="white" stroke="#666666" points="335,-187.5 185.5,-187.5 185.5,-157 335,-157 335,-187.5"/>
<text xml:space="preserve" text-anchor="start" x="193.5" y="-174" font-family="Helvetica,sans-Serif" font-size="10.00">BigDataStatMeth::RcppbdCorr</text>
<text xml:space="preserve" text-anchor="middle" x="260.25" y="-162.75" font-family="Helvetica,sans-Serif" font-size="10.00">_hdf5_Block_cross</text>
</a>
</g>
</g>
<!-- Node1&#45;&gt;Node2 -->
<g id="edge1_Node000001_Node000002" class="edge">
<title>Node1&#45;&gt;Node2</title>
<g id="a_edge1_Node000001_Node000002"><a xlink:title=" ">
<path fill="none" stroke="#63b8ff" d="M725.76,-133.45C715.89,-135.61 705.85,-137.62 696.25,-139.25 570.61,-160.55 422.22,-168.11 335.26,-170.78"/>
<polygon fill="#63b8ff" stroke="#63b8ff" points="726.34,-136.91 735.32,-131.29 724.8,-130.08 726.34,-136.91"/>
</a>
</g>
</g>
<!-- Node4 -->
<g id="Node000004" class="node">
<title>Node4</title>
<g id="a_Node000004"><a xlink:href="namespace_big_data_stat_meth.html#a11cc183caa903c10f78ffdb7969d0266" target="_top" xlink:title=" ">
<polygon fill="white" stroke="#666666" points="335,-73.5 185.5,-73.5 185.5,-43 335,-43 335,-73.5"/>
<text xml:space="preserve" text-anchor="start" x="193.5" y="-60" font-family="Helvetica,sans-Serif" font-size="10.00">BigDataStatMeth::RcppbdCorr</text>
<text xml:space="preserve" text-anchor="middle" x="260.25" y="-48.75" font-family="Helvetica,sans-Serif" font-size="10.00">_hdf5_Block_single</text>
</a>
</g>
</g>
<!-- Node1&#45;&gt;Node4 -->
<g id="edge3_Node000001_Node000004" class="edge">
<title>Node1&#45;&gt;Node4</title>
<g id="a_edge3_Node000001_Node000004"><a xlink:title=" ">
<path fill="none" stroke="#63b8ff" d="M725.55,-97.06C715.75,-94.9 705.78,-92.89 696.25,-91.25 570.67,-69.59 422.27,-62.15 335.28,-59.59"/>
<polygon fill="#63b8ff" stroke="#63b8ff" points="724.52,-100.41 735.04,-99.2 726.06,-93.58 724.52,-100.41"/>
</a>
</g>
</g>
<!-- Node6 -->
<g id="Node000006" class="node">
<title>Node6</title>
<g id="a_Node000006"><a xlink:href="namespace_big_data_stat_meth.html#a2b1f04e3acc28ab46d0bc32c12d9f642" target="_top" xlink:title=" ">
<polygon fill="white" stroke="#666666" points="520.5,-230.5 371,-230.5 371,-200 520.5,-200 520.5,-230.5"/>
<text xml:space="preserve" text-anchor="start" x="379" y="-217" font-family="Helvetica,sans-Serif" font-size="10.00">BigDataStatMeth::RcppbdCorr</text>
<text xml:space="preserve" text-anchor="middle" x="445.75" y="-205.75" font-family="Helvetica,sans-Serif" font-size="10.00">_matrix_cross</text>
</a>
</g>
</g>
<!-- Node1&#45;&gt;Node6 -->
<g id="edge5_Node000001_Node000006" class="edge">
<title>Node1&#45;&gt;Node6</title>
<g id="a_edge5_Node000001_Node000006"><a xlink:title=" ">
<path fill="none" stroke="#63b8ff" d="M772.27,-138.05C753.04,-154.37 724.9,-175.31 696.25,-186.25 639.93,-207.76 571.67,-214.49 520.8,-216.14"/>
<polygon fill="#63b8ff" stroke="#63b8ff" points="774.32,-140.91 779.56,-131.7 769.72,-135.63 774.32,-140.91"/>
</a>
</g>
</g>
<!-- Node7 -->
<g id="Node000007" class="node">
<title>Node7</title>
<g id="a_Node000007"><a xlink:href="namespace_big_data_stat_meth.html#aa890111706f3d0e5cc011df4d78689f0" target="_top" xlink:title=" ">
<polygon fill="white" stroke="#666666" points="520.5,-30.5 371,-30.5 371,0 520.5,0 520.5,-30.5"/>
<text xml:space="preserve" text-anchor="start" x="379" y="-17" font-family="Helvetica,sans-Serif" font-size="10.00">BigDataStatMeth::RcppbdCorr</text>
<text xml:space="preserve" text-anchor="middle" x="445.75" y="-5.75" font-family="Helvetica,sans-Serif" font-size="10.00">_matrix_single</text>
</a>
</g>
</g>
<!-- Node1&#45;&gt;Node7 -->
<g id="edge8_Node000001_Node000007" class="edge">
<title>Node1&#45;&gt;Node7</title>
<g id="a_edge8_Node000001_Node000007"><a xlink:title=" ">
<path fill="none" stroke="#63b8ff" d="M772.27,-92.45C753.04,-76.13 724.9,-55.19 696.25,-44.25 639.93,-22.74 571.67,-16.01 520.8,-14.36"/>
<polygon fill="#63b8ff" stroke="#63b8ff" points="769.72,-94.87 779.56,-98.8 774.32,-89.59 769.72,-94.87"/>
</a>
</g>
</g>
<!-- Node8 -->
<g id="Node000008" class="node">
<title>Node8</title>
<g id="a_Node000008"><a xlink:href="namespace_big_data_stat_meth.html#a73e0308254294ed4603750e0595b9802" target="_top" xlink:title=" ">
<polygon fill="white" stroke="#666666" points="696.25,-130.5 556.5,-130.5 556.5,-100 696.25,-100 696.25,-130.5"/>
<text xml:space="preserve" text-anchor="start" x="564.5" y="-117" font-family="Helvetica,sans-Serif" font-size="10.00">BigDataStatMeth::spearman</text>
<text xml:space="preserve" text-anchor="middle" x="626.38" y="-105.75" font-family="Helvetica,sans-Serif" font-size="10.00">_correlation</text>
</a>
</g>
</g>
<!-- Node1&#45;&gt;Node8 -->
<g id="edge11_Node000001_Node000008" class="edge">
<title>Node1&#45;&gt;Node8</title>
<g id="a_edge11_Node000001_Node000008"><a xlink:title=" ">
<path fill="none" stroke="#63b8ff" d="M720.64,-115.25C712.61,-115.25 704.47,-115.25 696.52,-115.25"/>
<polygon fill="#63b8ff" stroke="#63b8ff" points="720.39,-118.75 730.39,-115.25 720.39,-111.75 720.39,-118.75"/>
</a>
</g>
</g>
<!-- Node3 -->
<g id="Node000003" class="node">
<title>Node3</title>
<g id="a_Node000003"><a xlink:href="namespace_big_data_stat_meth.html#a6e97263036358fe6af3072e23914381d" target="_top" xlink:title="Implementation of cross&#45;matrix correlation computation for HDF5 matrices &#45; OPTIMIZED.">
<polygon fill="white" stroke="#666666" points="149.5,-208.5 0,-208.5 0,-178 149.5,-178 149.5,-208.5"/>
<text xml:space="preserve" text-anchor="start" x="8" y="-195" font-family="Helvetica,sans-Serif" font-size="10.00">BigDataStatMeth::RcppbdCorr</text>
<text xml:space="preserve" text-anchor="middle" x="74.75" y="-183.75" font-family="Helvetica,sans-Serif" font-size="10.00">_hdf5_cross</text>
</a>
</g>
</g>
<!-- Node2&#45;&gt;Node3 -->
<g id="edge2_Node000002_Node000003" class="edge">
<title>Node2&#45;&gt;Node3</title>
<g id="a_edge2_Node000002_Node000003"><a xlink:title=" ">
<path fill="none" stroke="#63b8ff" d="M173.86,-182.02C165.84,-182.94 157.75,-183.87 149.84,-184.77"/>
<polygon fill="#63b8ff" stroke="#63b8ff" points="174.1,-185.52 183.64,-180.9 173.31,-178.56 174.1,-185.52"/>
</a>
</g>
</g>
<!-- Node5 -->
<g id="Node000005" class="node">
<title>Node5</title>
<g id="a_Node000005"><a xlink:href="namespace_big_data_stat_meth.html#ae21b46d571f53416eedeb2d80f9b83ac" target="_top" xlink:title="Implementation of single matrix correlation computation for HDF5 matrices &#45; OPTIMIZED.">
<polygon fill="white" stroke="#666666" points="149.5,-52.5 0,-52.5 0,-22 149.5,-22 149.5,-52.5"/>
<text xml:space="preserve" text-anchor="start" x="8" y="-39" font-family="Helvetica,sans-Serif" font-size="10.00">BigDataStatMeth::RcppbdCorr</text>
<text xml:space="preserve" text-anchor="middle" x="74.75" y="-27.75" font-family="Helvetica,sans-Serif" font-size="10.00">_hdf5_single</text>
</a>
</g>
</g>
<!-- Node4&#45;&gt;Node5 -->
<g id="edge4_Node000004_Node000005" class="edge">
<title>Node4&#45;&gt;Node5</title>
<g id="a_edge4_Node000004_Node000005"><a xlink:title=" ">
<path fill="none" stroke="#63b8ff" d="M173.86,-48.48C165.84,-47.56 157.75,-46.63 149.84,-45.73"/>
<polygon fill="#63b8ff" stroke="#63b8ff" points="173.31,-51.94 183.64,-49.6 174.1,-44.98 173.31,-51.94"/>
</a>
</g>
</g>
<!-- Node6&#45;&gt;Node2 -->
<g id="edge6_Node000006_Node000002" class="edge">
<title>Node6&#45;&gt;Node2</title>
<g id="a_edge6_Node000006_Node000002"><a xlink:title=" ">
<path fill="none" stroke="#63b8ff" d="M366.66,-196.95C353.93,-193.97 340.84,-190.9 328.4,-187.99"/>
<polygon fill="#63b8ff" stroke="#63b8ff" points="365.71,-200.32 376.25,-199.2 367.31,-193.51 365.71,-200.32"/>
</a>
</g>
</g>
<!-- Node6&#45;&gt;Node3 -->
<g id="edge7_Node000006_Node000003" class="edge">
<title>Node6&#45;&gt;Node3</title>
<g id="a_edge7_Node000006_Node000003"><a xlink:title=" ">
<path fill="none" stroke="#63b8ff" d="M359.35,-210.16C295.96,-206.38 210.38,-201.28 149.86,-197.67"/>
<polygon fill="#63b8ff" stroke="#63b8ff" points="358.82,-213.63 369.01,-210.73 359.24,-206.65 358.82,-213.63"/>
</a>
</g>
</g>
<!-- Node7&#45;&gt;Node4 -->
<g id="edge9_Node000007_Node000004" class="edge">
<title>Node7&#45;&gt;Node4</title>
<g id="a_edge9_Node000007_Node000004"><a xlink:title=" ">
<path fill="none" stroke="#63b8ff" d="M366.66,-33.55C353.93,-36.53 340.84,-39.6 328.4,-42.51"/>
<polygon fill="#63b8ff" stroke="#63b8ff" points="367.31,-36.99 376.25,-31.3 365.71,-30.18 367.31,-36.99"/>
</a>
</g>
</g>
<!-- Node7&#45;&gt;Node5 -->
<g id="edge10_Node000007_Node000005" class="edge">
<title>Node7&#45;&gt;Node5</title>
<g id="a_edge10_Node000007_Node000005"><a xlink:title=" ">
<path fill="none" stroke="#63b8ff" d="M359.35,-20.34C295.96,-24.12 210.38,-29.22 149.86,-32.83"/>
<polygon fill="#63b8ff" stroke="#63b8ff" points="359.24,-23.85 369.01,-19.77 358.82,-16.87 359.24,-23.85"/>
</a>
</g>
</g>
<!-- Node8&#45;&gt;Node2 -->
<g id="edge12_Node000008_Node000002" class="edge">
<title>Node8&#45;&gt;Node2</title>
<g id="a_edge12_Node000008_Node000002"><a xlink:title=" ">
<path fill="none" stroke="#63b8ff" d="M545.02,-127.83C482.45,-137.62 396.27,-151.11 335.34,-160.65"/>
<polygon fill="#63b8ff" stroke="#63b8ff" points="545.2,-131.34 554.53,-126.34 544.11,-124.43 545.2,-131.34"/>
</a>
</g>
</g>
<!-- Node8&#45;&gt;Node4 -->
<g id="edge13_Node000008_Node000004" class="edge">
<title>Node8&#45;&gt;Node4</title>
<g id="a_edge13_Node000008_Node000004"><a xlink:title=" ">
<path fill="none" stroke="#63b8ff" d="M545.02,-102.67C482.45,-92.88 396.27,-79.39 335.34,-69.85"/>
<polygon fill="#63b8ff" stroke="#63b8ff" points="544.11,-106.07 554.53,-104.16 545.2,-99.16 544.11,-106.07"/>
</a>
</g>
</g>
<!-- Node8&#45;&gt;Node6 -->
<g id="edge14_Node000008_Node000006" class="edge">
<title>Node8&#45;&gt;Node6</title>
<g id="a_edge14_Node000008_Node000006"><a xlink:title=" ">
<path fill="none" stroke="#63b8ff" d="M587.5,-136.45C553.75,-155.35 505.12,-182.57 474.76,-199.57"/>
<polygon fill="#63b8ff" stroke="#63b8ff" points="589.13,-139.55 596.14,-131.61 585.71,-133.45 589.13,-139.55"/>
</a>
</g>
</g>
<!-- Node8&#45;&gt;Node7 -->
<g id="edge15_Node000008_Node000007" class="edge">
<title>Node8&#45;&gt;Node7</title>
<g id="a_edge15_Node000008_Node000007"><a xlink:title=" ">
<path fill="none" stroke="#63b8ff" d="M587.5,-94.05C553.75,-75.15 505.12,-47.93 474.76,-30.93"/>
<polygon fill="#63b8ff" stroke="#63b8ff" points="585.71,-97.05 596.14,-98.89 589.13,-90.95 585.71,-97.05"/>
</a>
</g>
</g>
</g>
</svg>

<g id="navigator" transform="translate(0 0)" fill="#404254">
  <rect fill="#f2f5e9" fill-opacity="0.5" stroke="#606060" stroke-width=".5" x="0" y="0" width="60" height="60"/>
  <use id="zoomplus" xlink:href="#zoomPlus" x="17" y="9" onmousedown="handleZoom(evt,'in')"/>
  <use id="zoomminus" xlink:href="#zoomMin" x="42" y="9" onmousedown="handleZoom(evt,'out')"/>
  <use id="reset" xlink:href="#resetDef" x="30" y="36" onmousedown="handleReset()"/>
   <use id="arrowup" xlink:href="#arrowUp" x="0" y="0" onmousedown="handlePan(0,-1)"/>
  <use id="arrowright" xlink:href="#arrowRight" x="0" y="0" onmousedown="handlePan(1,0)"/>
  <use id="arrowdown" xlink:href="#arrowDown" x="0" y="0" onmousedown="handlePan(0,1)"/>
  <use id="arrowleft" xlink:href="#arrowLeft" x="0" y="0" onmousedown="handlePan(-1,0)"/>
</g>
<svg viewBox="0 0 15 15" width="100%" height="30px" preserveAspectRatio="xMaxYMin meet">
 <g id="arrow_out" transform="scale(0.3 0.3)">
  <a xlink:href="namespace_big_data_stat_meth_a69e49b89327966eb689525e63dea8656_icgraph_org.svg" target="_base">
   <rect id="button" ry="5" rx="5" y="6" x="6" height="38" width="38"
        fill="#f2f5e9" fill-opacity="0.5" stroke="#606060" stroke-width="1.0"/>
   <path id="arrow"
     d="M 11.500037,31.436501 C 11.940474,20.09759 22.043105,11.32322 32.158766,21.979434 L 37.068811,17.246167 C 37.068811,17.246167 37.088388,32 37.088388,32 L 22.160133,31.978069 C 22.160133,31.978069 26.997745,27.140456 26.997745,27.140456 C 18.528582,18.264221 13.291696,25.230495 11.500037,31.436501 z"
     style="fill:#404040;"/>
  </a>
 </g>
</svg>

<style type='text/css'>
<![CDATA[
[data-mouse-over-selected='false'] { opacity: 0.7; }
[data-mouse-over-selected='true']  { opacity: 1.0; }
]]>
</style>
<script type="application/ecmascript"><![CDATA[
document.addEventListener('DOMContentLoaded', (event) => {
  highlightEdges();
  highlightAdjacentNodes();
});
]]></script>
</svg>
