<?xml version="1.0" encoding="UTF-8" standalone="no"?>
<!DOCTYPE svg PUBLIC "-//W3C//DTD SVG 1.1//EN"
 "http://www.w3.org/Graphics/SVG/1.1/DTD/svg11.dtd">
<!-- Generated by graphviz version 14.0.0 (20250921.2048)
 -->
<!-- Title: BigDataStatMeth::get_block_size Pages: 1 -->
<!--zoomable 174 -->

<svg id="main" version="1.1" xmlns="http://www.w3.org/2000/svg" xmlns:xlink="http://www.w3.org/1999/xlink" xml:space="preserve" onload="init(evt)">

<style type="text/css"><![CDATA[
.node, .edge {opacity: 0.7;}
.node.selected, .edge.selected {opacity: 1;}
.edge:hover path { stroke: red; }
.edge:hover polygon { stroke: red; fill: red; }
]]></style>

<defs>
  <circle id="rim" cx="0" cy="0" r="7"/>
  <circle id="rim2" cx="0" cy="0" r="3.5"/>
  <g id="zoomPlus">
    <use xlink:href="#rim" fill="#404040"><set attributeName="fill" to="#808080" begin="zoomplus.mouseover" end="zoomplus.mouseout"/></use>
    <path d="M-4,0h8M0,-4v8" fill="none" stroke="white" stroke-width="1.5" pointer-events="none"/>
  </g>
  <g id="zoomMin">
    <use xlink:href="#rim" fill="#404040"><set attributeName="fill" to="#808080" begin="zoomminus.mouseover" end="zoomminus.mouseout"/></use>
    <path d="M-4,0h8" fill="none" stroke="white" stroke-width="1.5" pointer-events="none"/>
  </g>
  <g id="arrowUp" transform="translate(30 24)">
    <use xlink:href="#rim"/>
    <path pointer-events="none" fill="none" stroke="white" stroke-width="1.5" d="M0,-3.0v7 M-2.5,-0.5L0,-3.0L2.5,-0.5"/>
  </g>
  <g id="arrowRight" transform="rotate(90) translate(36 -43)">
    <use xlink:href="#rim"/>
    <path pointer-events="none" fill="none" stroke="white" stroke-width="1.5" d="M0,-3.0v7 M-2.5,-0.5L0,-3.0L2.5,-0.5"/>
  </g>
  <g id="arrowDown" transform="rotate(180) translate(-30 -48)">
    <use xlink:href="#rim"/>
    <path pointer-events="none" fill="none" stroke="white" stroke-width="1.5" d="M0,-3.0v7 M-2.5,-0.5L0,-3.0L2.5,-0.5"/>
  </g>
  <g id="arrowLeft" transform="rotate(270) translate(-36 17)">
    <use xlink:href="#rim"/>
    <path pointer-events="none" fill="none" stroke="white" stroke-width="1.5" d="M0,-3.0v7 M-2.5,-0.5L0,-3.0L2.5,-0.5"/>
  </g>
  <g id="resetDef">
    <use xlink:href="#rim2" fill="#404040"><set attributeName="fill" to="#808080" begin="reset.mouseover" end="reset.mouseout"/></use>
  </g>
</defs>
<script type="application/ecmascript">
var viewWidth = 1159;
var viewHeight = 174;
var sectionId = 'dynsection-30';
</script>
<script type="application/ecmascript" xlink:href="../../../../assets/svg.min.js"/>
<svg id="graph" class="graph">
<g id="viewport">
<title>BigDataStatMeth::get_block_size</title>
<!-- Node1 -->
<g id="Node000001" class="node">
<title>Node1</title>
<g id="a_Node000001"><a xlink:title="Calculate optimal block size for processing.">
<polygon fill="#999999" stroke="#666666" points="1151.25,-67.88 1040.75,-67.88 1040.75,-37.38 1151.25,-37.38 1151.25,-67.88"/>
<text xml:space="preserve" text-anchor="start" x="1048.75" y="-54.38" font-family="Helvetica,sans-Serif" font-size="10.00">BigDataStatMeth::get</text>
<text xml:space="preserve" text-anchor="middle" x="1096" y="-43.12" font-family="Helvetica,sans-Serif" font-size="10.00">_block_size</text>
</a>
</g>
</g>
<!-- Node2 -->
<g id="Node000002" class="node">
<title>Node2</title>
<g id="a_Node000002"><a xlink:href="namespace_big_data_stat_meth.html#a74ce60b67b2d8eb66be38b96cc7b3ff5" target="_top" xlink:title="Calculate column&#45;wise mean and standard deviation.">
<polygon fill="white" stroke="#666666" points="984.5,-116.88 839.5,-116.88 839.5,-86.38 984.5,-86.38 984.5,-116.88"/>
<text xml:space="preserve" text-anchor="start" x="847.5" y="-103.38" font-family="Helvetica,sans-Serif" font-size="10.00">BigDataStatMeth::get</text>
<text xml:space="preserve" text-anchor="middle" x="912" y="-92.12" font-family="Helvetica,sans-Serif" font-size="10.00">_HDF5_mean_sd_by_column</text>
</a>
</g>
</g>
<!-- Node1&#45;&gt;Node2 -->
<g id="edge1_Node000001_Node000002" class="edge">
<title>Node1&#45;&gt;Node2</title>
<g id="a_edge1_Node000001_Node000002"><a xlink:title=" ">
<path fill="none" stroke="#63b8ff" d="M1029.43,-70.28C1010.46,-75.39 989.87,-80.93 971.37,-85.91"/>
<polygon fill="#63b8ff" stroke="#63b8ff" points="1030.19,-73.7 1038.93,-67.72 1028.37,-66.94 1030.19,-73.7"/>
</a>
</g>
</g>
<!-- Node10 -->
<g id="Node000010" class="node">
<title>Node10</title>
<g id="a_Node000010"><a xlink:href="namespace_big_data_stat_meth.html#a7cab0fb0e96ea7e4710923626e6095e6" target="_top" xlink:title="Calculate row&#45;wise mean and standard deviation.">
<polygon fill="white" stroke="#666666" points="976.62,-67.88 847.38,-67.88 847.38,-37.38 976.62,-37.38 976.62,-67.88"/>
<text xml:space="preserve" text-anchor="start" x="855.38" y="-54.38" font-family="Helvetica,sans-Serif" font-size="10.00">BigDataStatMeth::get</text>
<text xml:space="preserve" text-anchor="middle" x="912" y="-43.12" font-family="Helvetica,sans-Serif" font-size="10.00">_HDF5_mean_sd_by_row</text>
</a>
</g>
</g>
<!-- Node1&#45;&gt;Node10 -->
<g id="edge10_Node000001_Node000010" class="edge">
<title>Node1&#45;&gt;Node10</title>
<g id="a_edge10_Node000001_Node000010"><a xlink:title=" ">
<path fill="none" stroke="#63b8ff" d="M1028.88,-52.62C1011.92,-52.62 993.7,-52.62 976.85,-52.62"/>
<polygon fill="#63b8ff" stroke="#63b8ff" points="1028.88,-56.13 1038.88,-52.63 1028.88,-49.13 1028.88,-56.13"/>
</a>
</g>
</g>
<!-- Node11 -->
<g id="Node000011" class="node">
<title>Node11</title>
<g id="a_Node000011"><a xlink:href="namespace_big_data_stat_meth.html#aa04bdd4175075e124877dda4897c291b" target="_top" xlink:title="HDF5 matrix normalization with pre&#45;computed statistics.">
<polygon fill="white" stroke="#666666" points="1004.75,-19.25 819.25,-19.25 819.25,0 1004.75,0 1004.75,-19.25"/>
<text xml:space="preserve" text-anchor="middle" x="912" y="-5.75" font-family="Helvetica,sans-Serif" font-size="10.00">BigDataStatMeth::RcppNormalizeHdf5</text>
</a>
</g>
</g>
<!-- Node1&#45;&gt;Node11 -->
<g id="edge14_Node000001_Node000011" class="edge">
<title>Node1&#45;&gt;Node11</title>
<g id="a_edge14_Node000001_Node000011"><a xlink:title=" ">
<path fill="none" stroke="#63b8ff" d="M1029.77,-34.82C1021.37,-32.66 1012.87,-30.54 1004.75,-28.62 991.61,-25.52 977.35,-22.43 964.07,-19.67"/>
<polygon fill="#63b8ff" stroke="#63b8ff" points="1028.69,-38.15 1039.25,-37.28 1030.46,-31.38 1028.69,-38.15"/>
</a>
</g>
</g>
<!-- Node3 -->
<g id="Node000003" class="node">
<title>Node3</title>
<g id="a_Node000003"><a xlink:href="namespace_big_data_stat_meth.html#a8230fb3b686276464c16ed444be03d22" target="_top" xlink:title=" ">
<polygon fill="white" stroke="#666666" points="781,-165.88 600,-165.88 600,-135.38 781,-135.38 781,-165.88"/>
<text xml:space="preserve" text-anchor="start" x="608" y="-152.38" font-family="Helvetica,sans-Serif" font-size="10.00">BigDataStatMeth::First</text>
<text xml:space="preserve" text-anchor="middle" x="690.5" y="-141.12" font-family="Helvetica,sans-Serif" font-size="10.00">_level_SvdBlock_decomposition_hdf5</text>
</a>
</g>
</g>
<!-- Node2&#45;&gt;Node3 -->
<g id="edge2_Node000002_Node000003" class="edge">
<title>Node2&#45;&gt;Node3</title>
<g id="a_edge2_Node000002_Node000003"><a xlink:title=" ">
<path fill="none" stroke="#63b8ff" d="M829.53,-119.81C807.3,-124.78 783.4,-130.11 761.84,-134.92"/>
<polygon fill="#63b8ff" stroke="#63b8ff" points="830.17,-123.26 839.17,-117.66 828.64,-116.42 830.17,-123.26"/>
</a>
</g>
</g>
<!-- Node7 -->
<g id="Node000007" class="node">
<title>Node7</title>
<g id="a_Node000007"><a xlink:href="namespace_big_data_stat_meth.html#ab7b48d0904453c785df129d9e538e70a" target="_top" xlink:title="Applies mathematical functions to HDF5 datasets.">
<polygon fill="white" stroke="#666666" points="763,-116.88 618,-116.88 618,-86.38 763,-86.38 763,-116.88"/>
<text xml:space="preserve" text-anchor="start" x="626" y="-103.38" font-family="Helvetica,sans-Serif" font-size="10.00">BigDataStatMeth::RcppApply</text>
<text xml:space="preserve" text-anchor="middle" x="690.5" y="-92.12" font-family="Helvetica,sans-Serif" font-size="10.00">FunctionHdf5</text>
</a>
</g>
</g>
<!-- Node2&#45;&gt;Node7 -->
<g id="edge6_Node000002_Node000007" class="edge">
<title>Node2&#45;&gt;Node7</title>
<g id="a_edge6_Node000002_Node000007"><a xlink:title=" ">
<path fill="none" stroke="#63b8ff" d="M827.81,-101.62C806.52,-101.62 783.81,-101.62 763.16,-101.62"/>
<polygon fill="#63b8ff" stroke="#63b8ff" points="827.61,-105.13 837.61,-101.63 827.61,-98.13 827.61,-105.13"/>
</a>
</g>
</g>
<!-- Node8 -->
<g id="Node000008" class="node">
<title>Node8</title>
<g id="a_Node000008"><a xlink:href="namespace_big_data_stat_meth.html#a6bc1373833a2909b57128c2656bef7ab" target="_top" xlink:title=" ">
<polygon fill="white" stroke="#666666" points="783.25,-19.25 597.75,-19.25 597.75,0 783.25,0 783.25,-19.25"/>
<text xml:space="preserve" text-anchor="middle" x="690.5" y="-5.75" font-family="Helvetica,sans-Serif" font-size="10.00">BigDataStatMeth::RcppNormalizeHdf5</text>
</a>
</g>
</g>
<!-- Node2&#45;&gt;Node8 -->
<g id="edge7_Node000002_Node000008" class="edge">
<title>Node2&#45;&gt;Node8</title>
<g id="a_edge7_Node000002_Node000008"><a xlink:title=" ">
<path fill="none" stroke="#63b8ff" d="M828.92,-82.38C825.56,-80.63 822.32,-78.71 819.25,-76.62 797.19,-61.64 805.76,-42.92 783.25,-28.62 777.48,-24.96 771.14,-21.99 764.56,-19.58"/>
<polygon fill="#63b8ff" stroke="#63b8ff" points="827.36,-85.52 837.91,-86.54 830.31,-79.16 827.36,-85.52"/>
</a>
</g>
</g>
<!-- Node9 -->
<g id="Node000009" class="node">
<title>Node9</title>
<g id="a_Node000009"><a xlink:href="namespace_big_data_stat_meth.html#a92087d3669b3bc07d9973a4f2f56cce0" target="_top" xlink:title=" ">
<polygon fill="white" stroke="#666666" points="763.75,-67.88 617.25,-67.88 617.25,-37.38 763.75,-37.38 763.75,-67.88"/>
<text xml:space="preserve" text-anchor="start" x="625.25" y="-54.38" font-family="Helvetica,sans-Serif" font-size="10.00">BigDataStatMeth::RcppTypify</text>
<text xml:space="preserve" text-anchor="middle" x="690.5" y="-43.12" font-family="Helvetica,sans-Serif" font-size="10.00">NormalizeHdf5</text>
</a>
</g>
</g>
<!-- Node2&#45;&gt;Node9 -->
<g id="edge8_Node000002_Node000009" class="edge">
<title>Node2&#45;&gt;Node9</title>
<g id="a_edge8_Node000002_Node000009"><a xlink:title=" ">
<path fill="none" stroke="#63b8ff" d="M829.53,-83.44C807.3,-78.47 783.4,-73.14 761.84,-68.33"/>
<polygon fill="#63b8ff" stroke="#63b8ff" points="828.64,-86.83 839.17,-85.59 830.17,-79.99 828.64,-86.83"/>
</a>
</g>
</g>
<!-- Node4 -->
<g id="Node000004" class="node">
<title>Node4</title>
<g id="a_Node000004"><a xlink:href="namespace_big_data_stat_meth.html#afbf517649a66c749830f33e4273857a7" target="_top" xlink:title="Block&#45;wise SVD decomposition for large HDF5 matrices.">
<polygon fill="white" stroke="#666666" points="561.75,-151.88 410,-151.88 410,-121.38 561.75,-121.38 561.75,-151.88"/>
<text xml:space="preserve" text-anchor="start" x="418" y="-138.38" font-family="Helvetica,sans-Serif" font-size="10.00">BigDataStatMeth::RcppbdSVD</text>
<text xml:space="preserve" text-anchor="middle" x="485.88" y="-127.12" font-family="Helvetica,sans-Serif" font-size="10.00">_hdf5_Block</text>
</a>
</g>
</g>
<!-- Node3&#45;&gt;Node4 -->
<g id="edge3_Node000003_Node000004" class="edge">
<title>Node3&#45;&gt;Node4</title>
<g id="a_edge3_Node000003_Node000004"><a xlink:title=" ">
<path fill="none" stroke="#63b8ff" d="M588.48,-143.65C579.57,-143.03 570.66,-142.41 562.02,-141.82"/>
<polygon fill="#63b8ff" stroke="#63b8ff" points="588.01,-147.12 598.23,-144.32 588.5,-140.14 588.01,-147.12"/>
</a>
</g>
</g>
<!-- Node5 -->
<g id="Node000005" class="node">
<title>Node5</title>
<g id="a_Node000005"><a xlink:href="namespace_big_data_stat_meth.html#a05d2196df8a68f19b986fd06d8812e84" target="_top" xlink:title="Main SVD computation function for HDF5 matrices.">
<polygon fill="white" stroke="#666666" points="374,-129.25 198.25,-129.25 198.25,-110 374,-110 374,-129.25"/>
<text xml:space="preserve" text-anchor="middle" x="286.12" y="-115.75" font-family="Helvetica,sans-Serif" font-size="10.00">BigDataStatMeth::RcppbdSVD_hdf5</text>
</a>
</g>
</g>
<!-- Node4&#45;&gt;Node5 -->
<g id="edge4_Node000004_Node000005" class="edge">
<title>Node4&#45;&gt;Node5</title>
<g id="a_edge4_Node000004_Node000005"><a xlink:title=" ">
<path fill="none" stroke="#63b8ff" d="M398.15,-129.17C390.3,-128.49 382.34,-127.81 374.49,-127.14"/>
<polygon fill="#63b8ff" stroke="#63b8ff" points="397.78,-132.65 408.04,-130.02 398.38,-125.68 397.78,-132.65"/>
</a>
</g>
</g>
<!-- Node6 -->
<g id="Node000006" class="node">
<title>Node6</title>
<g id="a_Node000006"><a xlink:href="namespace_big_data_stat_meth.html#ad6b05b5b52e05bd7801b03ba6008980d" target="_top" xlink:title="Perform Principal Component Analysis.">
<polygon fill="white" stroke="#666666" points="162.25,-108.25 0,-108.25 0,-89 162.25,-89 162.25,-108.25"/>
<text xml:space="preserve" text-anchor="middle" x="81.12" y="-94.75" font-family="Helvetica,sans-Serif" font-size="10.00">BigDataStatMeth::RcppPCAHdf5</text>
</a>
</g>
</g>
<!-- Node5&#45;&gt;Node6 -->
<g id="edge5_Node000005_Node000006" class="edge">
<title>Node5&#45;&gt;Node6</title>
<g id="a_edge5_Node000005_Node000006"><a xlink:title=" ">
<path fill="none" stroke="#63b8ff" d="M186.54,-109.43C178.51,-108.6 170.46,-107.76 162.58,-106.95"/>
<polygon fill="#63b8ff" stroke="#63b8ff" points="186.04,-112.89 196.35,-110.44 186.76,-105.93 186.04,-112.89"/>
</a>
</g>
</g>
<!-- Node9&#45;&gt;Node6 -->
<g id="edge9_Node000009_Node000006" class="edge">
<title>Node9&#45;&gt;Node6</title>
<g id="a_edge9_Node000009_Node000006"><a xlink:title=" ">
<path fill="none" stroke="#63b8ff" d="M605.46,-58.99C488.4,-67.86 277.7,-83.81 162.58,-92.53"/>
<polygon fill="#63b8ff" stroke="#63b8ff" points="605.62,-62.49 615.33,-58.24 605.09,-55.51 605.62,-62.49"/>
</a>
</g>
</g>
<!-- Node10&#45;&gt;Node7 -->
<g id="edge11_Node000010_Node000007" class="edge">
<title>Node10&#45;&gt;Node7</title>
<g id="a_edge11_Node000010_Node000007"><a xlink:title=" ">
<path fill="none" stroke="#63b8ff" d="M835.75,-69.42C811.79,-74.77 785.4,-80.66 761.81,-85.93"/>
<polygon fill="#63b8ff" stroke="#63b8ff" points="836.45,-72.85 845.44,-67.26 834.92,-66.02 836.45,-72.85"/>
</a>
</g>
</g>
<!-- Node10&#45;&gt;Node8 -->
<g id="edge12_Node000010_Node000008" class="edge">
<title>Node10&#45;&gt;Node8</title>
<g id="a_edge12_Node000010_Node000008"><a xlink:title=" ">
<path fill="none" stroke="#63b8ff" d="M835.86,-37.91C805.31,-31.92 770.76,-25.15 743.12,-19.74"/>
<polygon fill="#63b8ff" stroke="#63b8ff" points="834.95,-41.29 845.44,-39.78 836.3,-34.42 834.95,-41.29"/>
</a>
</g>
</g>
<!-- Node10&#45;&gt;Node9 -->
<g id="edge13_Node000010_Node000009" class="edge">
<title>Node10&#45;&gt;Node9</title>
<g id="a_edge13_Node000010_Node000009"><a xlink:title=" ">
<path fill="none" stroke="#63b8ff" d="M835.44,-52.62C812.35,-52.62 787.03,-52.62 764.15,-52.62"/>
<polygon fill="#63b8ff" stroke="#63b8ff" points="835.41,-56.13 845.41,-52.63 835.41,-49.13 835.41,-56.13"/>
</a>
</g>
</g>
<!-- Node11&#45;&gt;Node8 -->
<g id="edge15_Node000011_Node000008" class="edge">
<title>Node11&#45;&gt;Node8</title>
<g id="a_edge15_Node000011_Node000008"><a xlink:title=" ">
<path fill="none" stroke="#63b8ff" d="M807.36,-9.62C799.48,-9.62 791.55,-9.62 783.75,-9.62"/>
<polygon fill="#63b8ff" stroke="#63b8ff" points="807.35,-13.13 817.35,-9.63 807.35,-6.13 807.35,-13.13"/>
</a>
</g>
</g>
<!-- Node11&#45;&gt;Node9 -->
<g id="edge16_Node000011_Node000009" class="edge">
<title>Node11&#45;&gt;Node9</title>
<g id="a_edge16_Node000011_Node000009"><a xlink:title=" ">
<path fill="none" stroke="#63b8ff" d="M848.57,-21.85C822.3,-27 791.54,-33.03 764.25,-38.37"/>
<polygon fill="#63b8ff" stroke="#63b8ff" points="848.91,-25.35 858.05,-20 847.57,-18.49 848.91,-25.35"/>
</a>
</g>
</g>
</g>
</svg>

<g id="navigator" transform="translate(0 0)" fill="#404254">
  <rect fill="#f2f5e9" fill-opacity="0.5" stroke="#606060" stroke-width=".5" x="0" y="0" width="60" height="60"/>
  <use id="zoomplus" xlink:href="#zoomPlus" x="17" y="9" onmousedown="handleZoom(evt,'in')"/>
  <use id="zoomminus" xlink:href="#zoomMin" x="42" y="9" onmousedown="handleZoom(evt,'out')"/>
  <use id="reset" xlink:href="#resetDef" x="30" y="36" onmousedown="handleReset()"/>
   <use id="arrowup" xlink:href="#arrowUp" x="0" y="0" onmousedown="handlePan(0,-1)"/>
  <use id="arrowright" xlink:href="#arrowRight" x="0" y="0" onmousedown="handlePan(1,0)"/>
  <use id="arrowdown" xlink:href="#arrowDown" x="0" y="0" onmousedown="handlePan(0,1)"/>
  <use id="arrowleft" xlink:href="#arrowLeft" x="0" y="0" onmousedown="handlePan(-1,0)"/>
</g>
<svg viewBox="0 0 15 15" width="100%" height="30px" preserveAspectRatio="xMaxYMin meet">
 <g id="arrow_out" transform="scale(0.3 0.3)">
  <a xlink:href="namespace_big_data_stat_meth_a9c15678544a0304bf01c268623b2d957_icgraph_org.svg" target="_base">
   <rect id="button" ry="5" rx="5" y="6" x="6" height="38" width="38"
        fill="#f2f5e9" fill-opacity="0.5" stroke="#606060" stroke-width="1.0"/>
   <path id="arrow"
     d="M 11.500037,31.436501 C 11.940474,20.09759 22.043105,11.32322 32.158766,21.979434 L 37.068811,17.246167 C 37.068811,17.246167 37.088388,32 37.088388,32 L 22.160133,31.978069 C 22.160133,31.978069 26.997745,27.140456 26.997745,27.140456 C 18.528582,18.264221 13.291696,25.230495 11.500037,31.436501 z"
     style="fill:#404040;"/>
  </a>
 </g>
</svg>

<style type='text/css'>
<![CDATA[
[data-mouse-over-selected='false'] { opacity: 0.7; }
[data-mouse-over-selected='true']  { opacity: 1.0; }
]]>
</style>
<script type="application/ecmascript"><![CDATA[
document.addEventListener('DOMContentLoaded', (event) => {
  highlightEdges();
  highlightAdjacentNodes();
});
]]></script>
</svg>
