<?xml version="1.0" encoding="UTF-8" standalone="no"?>
<!DOCTYPE svg PUBLIC "-//W3C//DTD SVG 1.1//EN"
 "http://www.w3.org/Graphics/SVG/1.1/DTD/svg11.dtd">
<!-- Generated by graphviz version 14.0.0 (20250921.2048)
 -->
<!-- Title: BigDataStatMeth::RcppbdCorr_hdf5_cross Pages: 1 -->
<!--zoomable 548 -->

<svg id="main" version="1.1" xmlns="http://www.w3.org/2000/svg" xmlns:xlink="http://www.w3.org/1999/xlink" xml:space="preserve" onload="init(evt)">

<style type="text/css"><![CDATA[
.node, .edge {opacity: 0.7;}
.node.selected, .edge.selected {opacity: 1;}
.edge:hover path { stroke: red; }
.edge:hover polygon { stroke: red; fill: red; }
]]></style>

<defs>
  <circle id="rim" cx="0" cy="0" r="7"/>
  <circle id="rim2" cx="0" cy="0" r="3.5"/>
  <g id="zoomPlus">
    <use xlink:href="#rim" fill="#404040"><set attributeName="fill" to="#808080" begin="zoomplus.mouseover" end="zoomplus.mouseout"/></use>
    <path d="M-4,0h8M0,-4v8" fill="none" stroke="white" stroke-width="1.5" pointer-events="none"/>
  </g>
  <g id="zoomMin">
    <use xlink:href="#rim" fill="#404040"><set attributeName="fill" to="#808080" begin="zoomminus.mouseover" end="zoomminus.mouseout"/></use>
    <path d="M-4,0h8" fill="none" stroke="white" stroke-width="1.5" pointer-events="none"/>
  </g>
  <g id="arrowUp" transform="translate(30 24)">
    <use xlink:href="#rim"/>
    <path pointer-events="none" fill="none" stroke="white" stroke-width="1.5" d="M0,-3.0v7 M-2.5,-0.5L0,-3.0L2.5,-0.5"/>
  </g>
  <g id="arrowRight" transform="rotate(90) translate(36 -43)">
    <use xlink:href="#rim"/>
    <path pointer-events="none" fill="none" stroke="white" stroke-width="1.5" d="M0,-3.0v7 M-2.5,-0.5L0,-3.0L2.5,-0.5"/>
  </g>
  <g id="arrowDown" transform="rotate(180) translate(-30 -48)">
    <use xlink:href="#rim"/>
    <path pointer-events="none" fill="none" stroke="white" stroke-width="1.5" d="M0,-3.0v7 M-2.5,-0.5L0,-3.0L2.5,-0.5"/>
  </g>
  <g id="arrowLeft" transform="rotate(270) translate(-36 17)">
    <use xlink:href="#rim"/>
    <path pointer-events="none" fill="none" stroke="white" stroke-width="1.5" d="M0,-3.0v7 M-2.5,-0.5L0,-3.0L2.5,-0.5"/>
  </g>
  <g id="resetDef">
    <use xlink:href="#rim2" fill="#404040"><set attributeName="fill" to="#808080" begin="reset.mouseover" end="reset.mouseout"/></use>
  </g>
</defs>
<script type="application/ecmascript">
var viewWidth = 923;
var viewHeight = 548;
var sectionId = 'dynsection-154';
</script>
<script type="application/ecmascript" xlink:href="../../../../assets/svg.min.js"/>
<svg id="graph" class="graph">
<g id="viewport">
<title>BigDataStatMeth::RcppbdCorr_hdf5_cross</title>
<!-- Node1 -->
<g id="Node000001" class="node">
<title>Node1</title>
<g id="a_Node000001"><a xlink:title="Implementation of cross&#45;matrix correlation computation for HDF5 matrices &#45; OPTIMIZED.">
<polygon fill="#999999" stroke="#666666" points="149.5,-452.5 0,-452.5 0,-422 149.5,-422 149.5,-452.5"/>
<text xml:space="preserve" text-anchor="start" x="8" y="-439" font-family="Helvetica,sans-Serif" font-size="10.00">BigDataStatMeth::RcppbdCorr</text>
<text xml:space="preserve" text-anchor="middle" x="74.75" y="-427.75" font-family="Helvetica,sans-Serif" font-size="10.00">_hdf5_cross</text>
</a>
</g>
</g>
<!-- Node2 -->
<g id="Node000002" class="node">
<title>Node2</title>
<g id="a_Node000002"><a xlink:href="namespace_big_data_stat_meth.html#a33749b2e89b9f4dd6a9ccd33740b7998" target="_top" xlink:title="Enhanced HDF5 cross&#45;correlation with integrated transpose support for big&#45;omics.">
<polygon fill="white" stroke="#666666" points="335,-431.5 185.5,-431.5 185.5,-401 335,-401 335,-431.5"/>
<text xml:space="preserve" text-anchor="start" x="193.5" y="-418" font-family="Helvetica,sans-Serif" font-size="10.00">BigDataStatMeth::RcppbdCorr</text>
<text xml:space="preserve" text-anchor="middle" x="260.25" y="-406.75" font-family="Helvetica,sans-Serif" font-size="10.00">_hdf5_Block_cross</text>
</a>
</g>
</g>
<!-- Node1&#45;&gt;Node2 -->
<g id="edge1_Node000001_Node000002" class="edge">
<title>Node1&#45;&gt;Node2</title>
<g id="a_edge1_Node000001_Node000002"><a xlink:title=" ">
<path fill="none" stroke="#63b8ff" d="M149.86,-428.77C157.77,-427.86 165.86,-426.94 173.89,-426.02"/>
<polygon fill="#63b8ff" stroke="#63b8ff" points="174.12,-429.51 183.66,-424.9 173.33,-422.56 174.12,-429.51"/>
</a>
</g>
</g>
<!-- Node18 -->
<g id="Node000018" class="node">
<title>Node18</title>
<g id="a_Node000018"><a xlink:href="namespace_big_data_stat_meth.html#a2b1f04e3acc28ab46d0bc32c12d9f642" target="_top" xlink:title=" ">
<polygon fill="white" stroke="#666666" points="520.88,-496.5 371.38,-496.5 371.38,-466 520.88,-466 520.88,-496.5"/>
<text xml:space="preserve" text-anchor="start" x="379.38" y="-483" font-family="Helvetica,sans-Serif" font-size="10.00">BigDataStatMeth::RcppbdCorr</text>
<text xml:space="preserve" text-anchor="middle" x="446.12" y="-471.75" font-family="Helvetica,sans-Serif" font-size="10.00">_matrix_cross</text>
</a>
</g>
</g>
<!-- Node1&#45;&gt;Node18 -->
<g id="edge25_Node000001_Node000018" class="edge">
<title>Node1&#45;&gt;Node18</title>
<g id="a_edge25_Node000001_Node000018"><a xlink:title=" ">
<path fill="none" stroke="#63b8ff" d="M149.61,-446.05C210.29,-453.28 296.28,-463.52 359.87,-471.1"/>
<polygon fill="#63b8ff" stroke="#63b8ff" points="359.23,-474.54 369.57,-472.25 360.06,-467.59 359.23,-474.54"/>
</a>
</g>
</g>
<!-- Node3 -->
<g id="Node000003" class="node">
<title>Node3</title>
<g id="a_Node000003"><a xlink:href="namespace_big_data_stat_meth.html#a548baec51dfdb0481a3632cc50faed4c" target="_top" xlink:title="Optimized p&#45;value computation for correlation matrices using Eigen.">
<polygon fill="white" stroke="#666666" points="699.62,-539.5 565.12,-539.5 565.12,-509 699.62,-509 699.62,-539.5"/>
<text xml:space="preserve" text-anchor="start" x="573.12" y="-526" font-family="Helvetica,sans-Serif" font-size="10.00">BigDataStatMeth::compute</text>
<text xml:space="preserve" text-anchor="middle" x="632.38" y="-514.75" font-family="Helvetica,sans-Serif" font-size="10.00">_pvalues_optimized</text>
</a>
</g>
</g>
<!-- Node2&#45;&gt;Node3 -->
<g id="edge2_Node000002_Node000003" class="edge">
<title>Node2&#45;&gt;Node3</title>
<g id="a_edge2_Node000002_Node000003"><a xlink:title=" ">
<path fill="none" stroke="#63b8ff" d="M274.62,-431.88C293.62,-452.84 330.63,-489.26 371,-505.25 429.1,-528.26 500.15,-532 553.34,-530.55"/>
<polygon fill="#63b8ff" stroke="#63b8ff" points="553.37,-534.05 563.24,-530.2 553.12,-527.05 553.37,-534.05"/>
</a>
</g>
</g>
<!-- Node5 -->
<g id="Node000005" class="node">
<title>Node5</title>
<g id="a_Node000005"><a xlink:href="class_big_data_stat_meth_1_1hdf5_dataset.html#a374a6cadcadfc23c1f5df858d31e20df" target="_top" xlink:title="Create a new dataset with optional compression.">
<polygon fill="white" stroke="#666666" points="521.25,-202.5 371,-202.5 371,-172 521.25,-172 521.25,-202.5"/>
<text xml:space="preserve" text-anchor="start" x="379" y="-189" font-family="Helvetica,sans-Serif" font-size="10.00">BigDataStatMeth::hdf5Dataset</text>
<text xml:space="preserve" text-anchor="middle" x="446.12" y="-177.75" font-family="Helvetica,sans-Serif" font-size="10.00">::createDataset</text>
</a>
</g>
</g>
<!-- Node2&#45;&gt;Node5 -->
<g id="edge4_Node000002_Node000005" class="edge">
<title>Node2&#45;&gt;Node5</title>
<g id="a_edge4_Node000002_Node000005"><a xlink:title=" ">
<path fill="none" stroke="#63b8ff" d="M273.89,-400.51C305.39,-361.28 387.58,-258.92 425.47,-211.73"/>
<polygon fill="#63b8ff" stroke="#63b8ff" points="428.16,-213.97 431.69,-203.98 422.7,-209.58 428.16,-213.97"/>
</a>
</g>
</g>
<!-- Node13 -->
<g id="Node000013" class="node">
<title>Node13</title>
<g id="a_Node000013"><a xlink:href="class_big_data_stat_meth_1_1hdf5_dataset.html#acf9843abcb57a0090f1635cc69d95300" target="_top" xlink:title="Write data to the dataset.">
<polygon fill="white" stroke="#666666" points="707.5,-324.5 557.25,-324.5 557.25,-294 707.5,-294 707.5,-324.5"/>
<text xml:space="preserve" text-anchor="start" x="565.25" y="-311" font-family="Helvetica,sans-Serif" font-size="10.00">BigDataStatMeth::hdf5Dataset</text>
<text xml:space="preserve" text-anchor="middle" x="632.38" y="-299.75" font-family="Helvetica,sans-Serif" font-size="10.00">::writeDataset</text>
</a>
</g>
</g>
<!-- Node2&#45;&gt;Node13 -->
<g id="edge24_Node000002_Node000013" class="edge">
<title>Node2&#45;&gt;Node13</title>
<g id="a_edge24_Node000002_Node000013"><a xlink:title=" ">
<path fill="none" stroke="#63b8ff" d="M277.51,-400.55C297.66,-382.16 333.87,-352.41 371,-338.25 426.73,-316.99 493.68,-309.91 545.74,-308.05"/>
<polygon fill="#63b8ff" stroke="#63b8ff" points="545.54,-311.55 555.43,-307.76 545.33,-304.56 545.54,-311.55"/>
</a>
</g>
</g>
<!-- Node16 -->
<g id="Node000016" class="node">
<title>Node16</title>
<g id="a_Node000016"><a xlink:href="class_big_data_stat_meth_1_1hdf5_dataset.html#a8cce59e2884ad1ee3b67f281566780af" target="_top" xlink:title="Inherit the compression level from an input dataset if not already set.">
<polygon fill="white" stroke="#666666" points="521.25,-410.5 371,-410.5 371,-380 521.25,-380 521.25,-410.5"/>
<text xml:space="preserve" text-anchor="start" x="379" y="-397" font-family="Helvetica,sans-Serif" font-size="10.00">BigDataStatMeth::hdf5Dataset</text>
<text xml:space="preserve" text-anchor="middle" x="446.12" y="-385.75" font-family="Helvetica,sans-Serif" font-size="10.00">::inheritCompressionLevel</text>
</a>
</g>
</g>
<!-- Node2&#45;&gt;Node16 -->
<g id="edge16_Node000002_Node000016" class="edge">
<title>Node2&#45;&gt;Node16</title>
<g id="a_edge16_Node000002_Node000016"><a xlink:title=" ">
<path fill="none" stroke="#63b8ff" d="M335.24,-407.8C343.18,-406.89 351.3,-405.97 359.36,-405.05"/>
<polygon fill="#63b8ff" stroke="#63b8ff" points="359.64,-408.54 369.18,-403.92 358.85,-401.58 359.64,-408.54"/>
</a>
</g>
</g>
<!-- Node17 -->
<g id="Node000017" class="node">
<title>Node17</title>
<g id="a_Node000017"><a xlink:href="namespace_big_data_stat_meth.html#a69e49b89327966eb689525e63dea8656" target="_top" xlink:title=" ">
<polygon fill="white" stroke="#666666" points="894.88,-453.5 763.38,-453.5 763.38,-423 894.88,-423 894.88,-453.5"/>
<text xml:space="preserve" text-anchor="start" x="771.38" y="-440" font-family="Helvetica,sans-Serif" font-size="10.00">BigDataStatMeth::pearson</text>
<text xml:space="preserve" text-anchor="middle" x="829.12" y="-428.75" font-family="Helvetica,sans-Serif" font-size="10.00">_correlation</text>
</a>
</g>
</g>
<!-- Node2&#45;&gt;Node17 -->
<g id="edge17_Node000002_Node000017" class="edge">
<title>Node2&#45;&gt;Node17</title>
<g id="a_edge17_Node000002_Node000017"><a xlink:title=" ">
<path fill="none" stroke="#63b8ff" d="M290.55,-400.56C312.11,-389.94 342.51,-376.86 371,-371.25 516.32,-342.61 689.83,-390.15 775.26,-418.87"/>
<polygon fill="#63b8ff" stroke="#63b8ff" points="773.95,-422.12 784.55,-422.04 776.21,-415.49 773.95,-422.12"/>
</a>
</g>
</g>
<!-- Node2&#45;&gt;Node18 -->
<g id="edge18_Node000002_Node000018" class="edge">
<title>Node2&#45;&gt;Node18</title>
<g id="a_edge18_Node000002_Node000018"><a xlink:title=" ">
<path fill="none" stroke="#63b8ff" d="M305.76,-431.98C331.08,-440.93 363,-452.22 389.9,-461.73"/>
<polygon fill="#63b8ff" stroke="#63b8ff" points="388.68,-465.01 399.28,-465.04 391.02,-458.41 388.68,-465.01"/>
</a>
</g>
</g>
<!-- Node19 -->
<g id="Node000019" class="node">
<title>Node19</title>
<g id="a_Node000019"><a xlink:href="namespace_big_data_stat_meth.html#a73e0308254294ed4603750e0595b9802" target="_top" xlink:title=" ">
<polygon fill="white" stroke="#666666" points="702.25,-453.5 562.5,-453.5 562.5,-423 702.25,-423 702.25,-453.5"/>
<text xml:space="preserve" text-anchor="start" x="570.5" y="-440" font-family="Helvetica,sans-Serif" font-size="10.00">BigDataStatMeth::spearman</text>
<text xml:space="preserve" text-anchor="middle" x="632.38" y="-428.75" font-family="Helvetica,sans-Serif" font-size="10.00">_correlation</text>
</a>
</g>
</g>
<!-- Node2&#45;&gt;Node19 -->
<g id="edge23_Node000002_Node000019" class="edge">
<title>Node2&#45;&gt;Node19</title>
<g id="a_edge23_Node000002_Node000019"><a xlink:title=" ">
<path fill="none" stroke="#63b8ff" d="M335.26,-420.65C397.65,-424.36 486.76,-429.65 550.91,-433.47"/>
<polygon fill="#63b8ff" stroke="#63b8ff" points="550.48,-436.95 560.67,-434.05 550.9,-429.96 550.48,-436.95"/>
</a>
</g>
</g>
<!-- Node4 -->
<g id="Node000004" class="node">
<title>Node4</title>
<g id="a_Node000004"><a xlink:href="namespace_big_data_stat_meth.html#a58690697a1eec1b3feefdc089d056905" target="_top" xlink:title="Compute p&#45;value for correlation coefficient using t&#45;distribution.">
<polygon fill="white" stroke="#666666" points="879.12,-539.5 779.12,-539.5 779.12,-509 879.12,-509 879.12,-539.5"/>
<text xml:space="preserve" text-anchor="start" x="787.12" y="-526" font-family="Helvetica,sans-Serif" font-size="10.00">BigDataStatMeth::t</text>
<text xml:space="preserve" text-anchor="middle" x="829.12" y="-514.75" font-family="Helvetica,sans-Serif" font-size="10.00">_distribution_cdf</text>
</a>
</g>
</g>
<!-- Node3&#45;&gt;Node4 -->
<g id="edge3_Node000003_Node000004" class="edge">
<title>Node3&#45;&gt;Node4</title>
<g id="a_edge3_Node000003_Node000004"><a xlink:title=" ">
<path fill="none" stroke="#63b8ff" d="M700.12,-524.25C721.96,-524.25 746.09,-524.25 767.46,-524.25"/>
<polygon fill="#63b8ff" stroke="#63b8ff" points="767.17,-527.75 777.17,-524.25 767.17,-520.75 767.17,-527.75"/>
</a>
</g>
</g>
<!-- Node6 -->
<g id="Node000006" class="node">
<title>Node6</title>
<g id="a_Node000006"><a xlink:href="class_big_data_stat_meth_1_1hdf5_dataset.html#ac7a7f23b7e22c9b56ca6ad86592f2d52" target="_top" xlink:title="Add an attribute to the dataset.">
<polygon fill="white" stroke="#666666" points="707.5,-128.5 557.25,-128.5 557.25,-98 707.5,-98 707.5,-128.5"/>
<text xml:space="preserve" text-anchor="start" x="565.25" y="-115" font-family="Helvetica,sans-Serif" font-size="10.00">BigDataStatMeth::hdf5Dataset</text>
<text xml:space="preserve" text-anchor="middle" x="632.38" y="-103.75" font-family="Helvetica,sans-Serif" font-size="10.00">::addAttribute</text>
</a>
</g>
</g>
<!-- Node5&#45;&gt;Node6 -->
<g id="edge5_Node000005_Node000006" class="edge">
<title>Node5&#45;&gt;Node6</title>
<g id="a_edge5_Node000005_Node000006"><a xlink:title=" ">
<path fill="none" stroke="#63b8ff" d="M480.04,-171.64C501.75,-161.58 530.93,-148.52 557.25,-138.25 562.13,-136.34 567.23,-134.45 572.36,-132.6"/>
<polygon fill="#63b8ff" stroke="#63b8ff" points="573.2,-136.01 581.47,-129.38 570.87,-129.41 573.2,-136.01"/>
</a>
</g>
</g>
<!-- Node7 -->
<g id="Node000007" class="node">
<title>Node7</title>
<g id="a_Node000007"><a xlink:href="class_big_data_stat_meth_1_1hdf5_file.html#abfb73b5f1eb25ee00489485c8dc56a2a" target="_top" xlink:title="Close file and cleanup resources.">
<polygon fill="white" stroke="#666666" points="698.12,-79.5 566.62,-79.5 566.62,-49 698.12,-49 698.12,-79.5"/>
<text xml:space="preserve" text-anchor="start" x="574.62" y="-66" font-family="Helvetica,sans-Serif" font-size="10.00">BigDataStatMeth::hdf5File</text>
<text xml:space="preserve" text-anchor="middle" x="632.38" y="-54.75" font-family="Helvetica,sans-Serif" font-size="10.00">::close_file</text>
</a>
</g>
</g>
<!-- Node5&#45;&gt;Node7 -->
<g id="edge6_Node000005_Node000007" class="edge">
<title>Node5&#45;&gt;Node7</title>
<g id="a_edge6_Node000005_Node000007"><a xlink:title=" ">
<path fill="none" stroke="#63b8ff" d="M460.92,-171.51C480.43,-150.14 518.08,-112 557.25,-89.25 560.06,-87.62 562.99,-86.07 565.99,-84.62"/>
<polygon fill="#63b8ff" stroke="#63b8ff" points="567.33,-87.85 575.04,-80.59 564.48,-81.46 567.33,-87.85"/>
</a>
</g>
</g>
<!-- Node8 -->
<g id="Node000008" class="node">
<title>Node8</title>
<g id="a_Node000008"><a xlink:href="class_big_data_stat_meth_1_1hdf5_group.html#a27cef4d33e46c72bfd792aa49fa621a3" target="_top" xlink:title="Create multiple nested groups.">
<polygon fill="white" stroke="#666666" points="703.38,-30.5 561.38,-30.5 561.38,0 703.38,0 703.38,-30.5"/>
<text xml:space="preserve" text-anchor="start" x="569.38" y="-17" font-family="Helvetica,sans-Serif" font-size="10.00">BigDataStatMeth::hdf5Group</text>
<text xml:space="preserve" text-anchor="middle" x="632.38" y="-5.75" font-family="Helvetica,sans-Serif" font-size="10.00">::create_HDF5_groups</text>
</a>
</g>
</g>
<!-- Node5&#45;&gt;Node8 -->
<g id="edge7_Node000005_Node000008" class="edge">
<title>Node5&#45;&gt;Node8</title>
<g id="a_edge7_Node000005_Node000008"><a xlink:title=" ">
<path fill="none" stroke="#63b8ff" d="M454.56,-171.94C469.73,-142.24 507.14,-76.52 557.25,-40.25 559.18,-38.85 561.2,-37.52 563.28,-36.27"/>
<polygon fill="#63b8ff" stroke="#63b8ff" points="564.87,-39.39 572.07,-31.61 561.59,-33.2 564.87,-39.39"/>
</a>
</g>
</g>
<!-- Node10 -->
<g id="Node000010" class="node">
<title>Node10</title>
<g id="a_Node000010"><a xlink:href="namespace_big_data_stat_meth.html#a89d901ab4b5e01771f4e3fc7dc84e50e" target="_top" xlink:title="Checks if an HDF5 element (group or dataset) exists.">
<polygon fill="white" stroke="#666666" points="694,-275.5 570.75,-275.5 570.75,-245 694,-245 694,-275.5"/>
<text xml:space="preserve" text-anchor="start" x="578.75" y="-262" font-family="Helvetica,sans-Serif" font-size="10.00">BigDataStatMeth::exists</text>
<text xml:space="preserve" text-anchor="middle" x="632.38" y="-250.75" font-family="Helvetica,sans-Serif" font-size="10.00">_HDF5_element</text>
</a>
</g>
</g>
<!-- Node5&#45;&gt;Node10 -->
<g id="edge9_Node000005_Node000010" class="edge">
<title>Node5&#45;&gt;Node10</title>
<g id="a_edge9_Node000005_Node000010"><a xlink:title=" ">
<path fill="none" stroke="#63b8ff" d="M481.04,-202.93C502.66,-212.7 531.37,-225.27 557.25,-235.25 562.14,-237.14 567.24,-239.02 572.38,-240.86"/>
<polygon fill="#63b8ff" stroke="#63b8ff" points="570.89,-244.05 581.49,-244.07 573.21,-237.45 570.89,-244.05"/>
</a>
</g>
</g>
<!-- Node11 -->
<g id="Node000011" class="node">
<title>Node11</title>
<g id="a_Node000011"><a xlink:href="class_big_data_stat_meth_1_1hdf5_group.html#a59995412538627e6c80f64b552c286f5" target="_top" xlink:title=" ">
<polygon fill="white" stroke="#666666" points="703.38,-226.5 561.38,-226.5 561.38,-196 703.38,-196 703.38,-226.5"/>
<text xml:space="preserve" text-anchor="start" x="569.38" y="-213" font-family="Helvetica,sans-Serif" font-size="10.00">BigDataStatMeth::hdf5Group</text>
<text xml:space="preserve" text-anchor="middle" x="632.38" y="-201.75" font-family="Helvetica,sans-Serif" font-size="10.00">::getGroupName</text>
</a>
</g>
</g>
<!-- Node5&#45;&gt;Node11 -->
<g id="edge11_Node000005_Node000011" class="edge">
<title>Node5&#45;&gt;Node11</title>
<g id="a_edge11_Node000005_Node000011"><a xlink:title=" ">
<path fill="none" stroke="#63b8ff" d="M521.54,-196.94C530.84,-198.15 540.39,-199.4 549.79,-200.62"/>
<polygon fill="#63b8ff" stroke="#63b8ff" points="549.29,-204.09 559.66,-201.91 550.2,-197.15 549.29,-204.09"/>
</a>
</g>
</g>
<!-- Node12 -->
<g id="Node000012" class="node">
<title>Node12</title>
<g id="a_Node000012"><a xlink:href="namespace_big_data_stat_meth.html#a3d06783149029f1df2853c472d401380" target="_top" xlink:title="Removes multiple elements from an HDF5 file.">
<polygon fill="white" stroke="#666666" points="697,-177.5 567.75,-177.5 567.75,-147 697,-147 697,-177.5"/>
<text xml:space="preserve" text-anchor="start" x="575.75" y="-164" font-family="Helvetica,sans-Serif" font-size="10.00">BigDataStatMeth::remove</text>
<text xml:space="preserve" text-anchor="middle" x="632.38" y="-152.75" font-family="Helvetica,sans-Serif" font-size="10.00">_elements</text>
</a>
</g>
</g>
<!-- Node5&#45;&gt;Node12 -->
<g id="edge12_Node000005_Node000012" class="edge">
<title>Node5&#45;&gt;Node12</title>
<g id="a_edge12_Node000005_Node000012"><a xlink:title=" ">
<path fill="none" stroke="#63b8ff" d="M521.54,-177.15C532.92,-175.61 544.68,-174.01 556.09,-172.47"/>
<polygon fill="#63b8ff" stroke="#63b8ff" points="556.41,-175.95 565.85,-171.14 555.47,-169.02 556.41,-175.95"/>
</a>
</g>
</g>
<!-- Node5&#45;&gt;Node13 -->
<g id="edge13_Node000005_Node000013" class="edge">
<title>Node5&#45;&gt;Node13</title>
<g id="a_edge13_Node000005_Node000013"><a xlink:title=" ">
<path fill="none" stroke="#63b8ff" d="M460.96,-202.82C480.5,-223.96 518.2,-261.7 557.25,-284.25 560.21,-285.96 563.31,-287.58 566.49,-289.1"/>
<polygon fill="#63b8ff" stroke="#63b8ff" points="564.89,-292.22 575.45,-293.04 567.7,-285.81 564.89,-292.22"/>
</a>
</g>
</g>
<!-- Node9 -->
<g id="Node000009" class="node">
<title>Node9</title>
<g id="a_Node000009"><a xlink:href="namespace_big_data_stat_meth.html#abcaa4216cd52f03ebac42e4855ef846b" target="_top" xlink:title="Checks if a path exists in an HDF5 file.">
<polygon fill="white" stroke="#666666" points="900.88,-149.88 757.38,-149.88 757.38,-130.62 900.88,-130.62 900.88,-149.88"/>
<text xml:space="preserve" text-anchor="middle" x="829.12" y="-136.38" font-family="Helvetica,sans-Serif" font-size="10.00">BigDataStatMeth::pathExists</text>
</a>
</g>
</g>
<!-- Node8&#45;&gt;Node9 -->
<g id="edge8_Node000008_Node000009" class="edge">
<title>Node8&#45;&gt;Node9</title>
<g id="a_edge8_Node000008_Node000009"><a xlink:title=" ">
<path fill="none" stroke="#63b8ff" d="M687.43,-30.87C694.35,-33.62 701.21,-36.74 707.5,-40.25 748.22,-62.96 788.48,-100.08 810.65,-122.14"/>
<polygon fill="#63b8ff" stroke="#63b8ff" points="808.15,-124.59 817.67,-129.25 813.13,-119.67 808.15,-124.59"/>
</a>
</g>
</g>
<!-- Node10&#45;&gt;Node9 -->
<g id="edge10_Node000010_Node000009" class="edge">
<title>Node10&#45;&gt;Node9</title>
<g id="a_edge10_Node000010_Node000009"><a xlink:title=" ">
<path fill="none" stroke="#63b8ff" d="M686.95,-244.64C694.02,-241.87 701.05,-238.74 707.5,-235.25 747.26,-213.72 787.29,-179.01 809.78,-158.04"/>
<polygon fill="#63b8ff" stroke="#63b8ff" points="812.07,-160.69 816.93,-151.27 807.26,-155.61 812.07,-160.69"/>
</a>
</g>
</g>
<!-- Node14 -->
<g id="Node000014" class="node">
<title>Node14</title>
<g id="a_Node000014"><a xlink:href="class_big_data_stat_meth_1_1hdf5_dataset.html#aba39e56a580d3b1fa7f1619fc72efa3e" target="_top" xlink:title="Close dataset and file.">
<polygon fill="white" stroke="#666666" points="904.25,-348.5 754,-348.5 754,-318 904.25,-318 904.25,-348.5"/>
<text xml:space="preserve" text-anchor="start" x="762" y="-335" font-family="Helvetica,sans-Serif" font-size="10.00">BigDataStatMeth::hdf5Dataset</text>
<text xml:space="preserve" text-anchor="middle" x="829.12" y="-323.75" font-family="Helvetica,sans-Serif" font-size="10.00">::close_dataset_file</text>
</a>
</g>
</g>
<!-- Node13&#45;&gt;Node14 -->
<g id="edge14_Node000013_Node000014" class="edge">
<title>Node13&#45;&gt;Node14</title>
<g id="a_edge14_Node000013_Node000014"><a xlink:title=" ">
<path fill="none" stroke="#63b8ff" d="M707.84,-318.43C719.11,-319.82 730.82,-321.26 742.31,-322.67"/>
<polygon fill="#63b8ff" stroke="#63b8ff" points="741.85,-326.14 752.2,-323.89 742.71,-319.2 741.85,-326.14"/>
</a>
</g>
</g>
<!-- Node15 -->
<g id="Node000015" class="node">
<title>Node15</title>
<g id="a_Node000015"><a xlink:href="class_big_data_stat_meth_1_1hdf5_dataset.html#a94d81b72e92cb0230b4e64f37ea7d2e3" target="_top" xlink:title="Convert DataFrame to range list.">
<polygon fill="white" stroke="#666666" points="914.75,-299.5 743.5,-299.5 743.5,-269 914.75,-269 914.75,-299.5"/>
<text xml:space="preserve" text-anchor="start" x="751.5" y="-286" font-family="Helvetica,sans-Serif" font-size="10.00">BigDataStatMeth::hdf5Dataset</text>
<text xml:space="preserve" text-anchor="middle" x="829.12" y="-274.75" font-family="Helvetica,sans-Serif" font-size="10.00">::convert_DataFrame_to_RangeList</text>
</a>
</g>
</g>
<!-- Node13&#45;&gt;Node15 -->
<g id="edge15_Node000013_Node000015" class="edge">
<title>Node13&#45;&gt;Node15</title>
<g id="a_edge15_Node000013_Node000015"><a xlink:title=" ">
<path fill="none" stroke="#63b8ff" d="M707.84,-299.69C715.72,-298.68 723.81,-297.64 731.9,-296.6"/>
<polygon fill="#63b8ff" stroke="#63b8ff" points="732.32,-300.08 741.79,-295.33 731.43,-293.13 732.32,-300.08"/>
</a>
</g>
</g>
<!-- Node18&#45;&gt;Node3 -->
<g id="edge19_Node000018_Node000003" class="edge">
<title>Node18&#45;&gt;Node3</title>
<g id="a_edge19_Node000018_Node000003"><a xlink:title=" ">
<path fill="none" stroke="#63b8ff" d="M514.43,-496.96C527.28,-499.96 540.82,-503.12 553.96,-506.18"/>
<polygon fill="#63b8ff" stroke="#63b8ff" points="552.87,-509.52 563.4,-508.39 554.46,-502.7 552.87,-509.52"/>
</a>
</g>
</g>
<!-- Node18&#45;&gt;Node17 -->
<g id="edge20_Node000018_Node000017" class="edge">
<title>Node18&#45;&gt;Node17</title>
<g id="a_edge20_Node000018_Node000017"><a xlink:title=" ">
<path fill="none" stroke="#63b8ff" d="M521.17,-478.28C573.42,-475.6 644.96,-470.72 707.5,-462.25 721.92,-460.3 737.2,-457.68 751.88,-454.9"/>
<polygon fill="#63b8ff" stroke="#63b8ff" points="752.32,-458.38 761.47,-453.04 750.98,-451.51 752.32,-458.38"/>
</a>
</g>
</g>
<!-- Node18&#45;&gt;Node19 -->
<g id="edge21_Node000018_Node000019" class="edge">
<title>Node18&#45;&gt;Node19</title>
<g id="a_edge21_Node000018_Node000019"><a xlink:title=" ">
<path fill="none" stroke="#63b8ff" d="M514.43,-465.54C526.91,-462.63 540.05,-459.56 552.83,-456.58"/>
<polygon fill="#63b8ff" stroke="#63b8ff" points="553.53,-460.01 562.47,-454.33 551.94,-453.19 553.53,-460.01"/>
</a>
</g>
</g>
<!-- Node19&#45;&gt;Node17 -->
<g id="edge22_Node000019_Node000017" class="edge">
<title>Node19&#45;&gt;Node17</title>
<g id="a_edge22_Node000019_Node000017"><a xlink:title=" ">
<path fill="none" stroke="#63b8ff" d="M702.58,-438.25C718.57,-438.25 735.67,-438.25 751.94,-438.25"/>
<polygon fill="#63b8ff" stroke="#63b8ff" points="751.53,-441.75 761.53,-438.25 751.53,-434.75 751.53,-441.75"/>
</a>
</g>
</g>
</g>
</svg>

<g id="navigator" transform="translate(0 0)" fill="#404254">
  <rect fill="#f2f5e9" fill-opacity="0.5" stroke="#606060" stroke-width=".5" x="0" y="0" width="60" height="60"/>
  <use id="zoomplus" xlink:href="#zoomPlus" x="17" y="9" onmousedown="handleZoom(evt,'in')"/>
  <use id="zoomminus" xlink:href="#zoomMin" x="42" y="9" onmousedown="handleZoom(evt,'out')"/>
  <use id="reset" xlink:href="#resetDef" x="30" y="36" onmousedown="handleReset()"/>
   <use id="arrowup" xlink:href="#arrowUp" x="0" y="0" onmousedown="handlePan(0,-1)"/>
  <use id="arrowright" xlink:href="#arrowRight" x="0" y="0" onmousedown="handlePan(1,0)"/>
  <use id="arrowdown" xlink:href="#arrowDown" x="0" y="0" onmousedown="handlePan(0,1)"/>
  <use id="arrowleft" xlink:href="#arrowLeft" x="0" y="0" onmousedown="handlePan(-1,0)"/>
</g>
<svg viewBox="0 0 15 15" width="100%" height="30px" preserveAspectRatio="xMaxYMin meet">
 <g id="arrow_out" transform="scale(0.3 0.3)">
  <a xlink:href="namespace_big_data_stat_meth_af724010f7232a698618f05378a0a2350_cgraph_org.svg" target="_base">
   <rect id="button" ry="5" rx="5" y="6" x="6" height="38" width="38"
        fill="#f2f5e9" fill-opacity="0.5" stroke="#606060" stroke-width="1.0"/>
   <path id="arrow"
     d="M 11.500037,31.436501 C 11.940474,20.09759 22.043105,11.32322 32.158766,21.979434 L 37.068811,17.246167 C 37.068811,17.246167 37.088388,32 37.088388,32 L 22.160133,31.978069 C 22.160133,31.978069 26.997745,27.140456 26.997745,27.140456 C 18.528582,18.264221 13.291696,25.230495 11.500037,31.436501 z"
     style="fill:#404040;"/>
  </a>
 </g>
</svg>

<style type='text/css'>
<![CDATA[
[data-mouse-over-selected='false'] { opacity: 0.7; }
[data-mouse-over-selected='true']  { opacity: 1.0; }
]]>
</style>
<script type="application/ecmascript"><![CDATA[
document.addEventListener('DOMContentLoaded', (event) => {
  highlightEdges();
  highlightAdjacentNodes();
});
]]></script>
</svg>
